ply
format ascii 1.0
comment TextureFile NvF5e.jpg
element vertex 149
property float x
property float y
property float z
property float nx
property float ny
property float nz
property uchar red
property uchar green
property uchar blue
property uchar alpha
property float texture_u
property float texture_v
element face 256
property list uchar int vertex_indices
end_header
-103.1562 -0 128 -0 1 0 200 200 200 255 1 0.09704593
-98.03514 0 111.4702 -0 1 0 200 200 200 255 0.9354303 0.1170502
-128 -0 128 -0 1 0 200 200 200 255 1 0
-79.04685 -0 128 -0 1 0 200 200 200 255 1 0.1912232
-59.71972 0 119.4912 -0 1 0 200 200 200 255 0.9667625 0.2667198
-55.10938 0 128 -0 1 -0 200 200 200 255 1 0.284729
-34.375 0 128 -0 1 -0 200 200 200 255 1 0.3657227
-27.66284 0 121.6506 -0 1 -0 200 200 200 255 0.9751978 0.391942
-15.15625 0 128 0 1 0 200 200 200 255 1 0.4407959
0.551503 0 119.4563 0 1 0 200 200 200 255 0.9666262 0.5021543
10.65623 -0 128 0 1 0 200 200 200 255 1 0.5416259
24.36546 -0 116.2725 0 1 0 200 200 200 255 0.9541893 0.5951776
33.03123 -0 128 0 1 0 200 200 200 255 1 0.6290283
45.47264 0 121.8569 -0 1 0 200 200 200 255 0.9760036 0.6776275
61.35935 0 128 -0 1 0 200 200 200 255 1 0.7396849
73.5814 -0 121.2869 0 1 -0 200 200 200 255 0.9737768 0.7874273
92.70311 -0 128 0 1 0 200 200 200 255 1 0.8621215
106.7158 -0 119.6824 0 1 0 200 200 200 255 0.9675093 0.9168587
128 -0 128 0 1 0 200 200 200 255 1 1
-44.90332 0 107.7163 -0 1 -0 200 200 200 255 0.9207668 0.3245964
36.25462 0 101.0991 -0 1 0 200 200 200 255 0.8949184 0.6416196
55.84959 0 102.2244 0 1 0 200 200 200 255 0.8993139 0.7181624
92.84471 0 106.0991 0 1 0 200 200 200 255 0.9144497 0.8626747
128 -0 101.4375 0 1 0 200 200 200 255 0.8962402 1
-121.8584 0 105.231 0 1 0 200 200 200 255 0.9110584 0.02399063
74.16196 0 100.572 0 1 0 200 200 200 255 0.8928595 0.7896951
-15.29504 0 94.79913 -0 1 -0 200 200 200 255 0.8703091 0.4402537
120.6074 -0 101.2412 0 1 -0 200 200 200 255 0.8954735 0.9711227
-79.5645 0 92.98755 -0 1 0 200 200 200 255 0.8632326 0.1892012
13.36424 0 93.34888 0 1 0 200 200 200 255 0.8646441 0.5522041
-56.65991 0 93.60889 0 1 0 200 200 200 255 0.8656597 0.2786722
102.5699 -0 89.42505 0 1 -0 200 200 200 255 0.8493166 0.9006639
-128 -0 88.98438 -0 1 0 200 200 200 255 0.8475952 0
-119.5493 0 85.5647 0 1 -0 200 200 200 255 0.8342371 0.03301048
-35.5791 0 88.53516 -0 1 -0 200 200 200 255 0.8458405 0.3610191
122.718 -0 72.56165 0 1 -0 200 200 200 255 0.7834439 0.9793673
32.01176 0 75.94604 0 1 0 200 200 200 255 0.7966642 0.625046
-96.42003 -0 67.45178 0 1 -0 200 200 200 255 0.7634835 0.1233593
72.68601 -0 79.29053 0 1 -0 200 200 200 255 0.8097286 0.7839297
-25.16248 0 71.88379 -0 1 -0 200 200 200 255 0.7807961 0.4017091
128 -0 75.10938 0 1 -0 200 200 200 255 0.793396 1
-49.88721 0 70.45166 0 1 0 200 200 200 255 0.7752018 0.3051281
5.859603 0 69.59914 0 1 0 200 200 200 255 0.7718716 0.5228891
99.14867 -0 68.65649 0 1 -0 200 200 200 255 0.7681894 0.8872995
-123.5693 -0 66.78027 -0 1 -0 200 200 200 255 0.7608604 0.01730728
60.02879 -0 64.78003 0 1 -0 200 200 200 255 0.753047 0.7344874
-128 -0 65.25 -0 1 -0 200 200 200 255 0.7548828 0
-71.03661 -0 60.06445 -0 1 -0 200 200 200 255 0.7346268 0.2225133
20.60008 0 58.50782 0 1 0 200 200 200 255 0.7285461 0.5804691
77.74229 -0 55.01221 -0 1 -0 200 200 200 255 0.7148914 0.8036808
-41.75464 0 53.52197 0 1 0 200 200 200 255 0.7090702 0.3368959
33.83134 0 43.62384 0 1 -0 200 200 200 255 0.6704056 0.6321537
53.0778 -0 46.08923 0 1 -0 200 200 200 255 0.6800361 0.7073351
-89.17107 -0 48.97107 -0 1 -0 200 200 200 255 0.6912932 0.1516755
128 -0 49.8125 0 1 -0 200 200 200 255 0.6945801 1
-6.1753 0 47.6416 -0 1 0 200 200 200 255 0.6861 0.4758777
119.5712 -0 40.49573 0 1 -0 200 200 200 255 0.6581864 0.9670749
-119.417 -0 48.33545 -0 1 -0 200 200 200 255 0.6888103 0.03352737
-65.50024 -0 36.30341 -0 1 -0 200 200 200 255 0.6418102 0.2441397
-128 -0 38.39062 0 1 -0 200 200 200 255 0.6499634 0
91.54637 -0 40.15308 -0 1 -0 200 200 200 255 0.656848 0.857603
12.78599 0 31.15869 0 1 -0 200 200 200 255 0.6217136 0.5499453
73.124 -0 35.45557 0 1 -0 200 200 200 255 0.6384983 0.7856406
-110.3611 -0 21.90942 -0 1 0 200 200 200 255 0.5855837 0.06890202
-36.68665 0 25.00513 -0 1 -0 200 200 200 255 0.5976763 0.3566928
128 -0 24.625 0 1 -0 200 200 200 255 0.5961914 1
-74.59148 0 17.1311 -0 1 0 200 200 200 255 0.5669184 0.208627
-11.37363 0 13.36542 0 1 -0 200 200 200 255 0.5522087 0.4555718
65.49863 -0 18.82739 0 1 0 200 200 200 255 0.5735445 0.755854
120.6333 -0 11.73456 0 1 -0 200 200 200 255 0.5458381 0.9712238
97.31737 -0 13.33008 0 1 0 200 200 200 255 0.5520706 0.880146
40.40428 0 11.17078 0 1 0 200 200 200 255 0.5436358 0.6578292
-128 -0 12.5 -0 1 0 200 200 200 255 0.5488281 0
20.02183 0 -4.872192 0 1 -0 200 200 200 255 0.480968 0.5782103
-95.92772 0 5.073975 -0 1 0 200 200 200 255 0.5198202 0.1252823
-43.85907 0 -0.989014 -0 1 0 200 200 200 255 0.4961367 0.3286755
64.41276 -0 -8.471313 0 1 0 200 200 200 255 0.4669089 0.7516123
128 -0 -1.71875 0 1 -0 200 200 200 255 0.4932861 1
-113.0144 0 -3.64502 -0 1 0 200 200 200 255 0.4857616 0.05853748
-79.43455 0 -6.052246 0 1 0 200 200 200 255 0.4763584 0.1897088
86.93418 -0 -8.382568 0 1 0 200 200 200 255 0.4672556 0.8395866
115.598 -0 -13.32751 0 1 -0 200 200 200 255 0.4479394 0.9515548
-128 0 -10.17188 -0 1 0 200 200 200 255 0.4602661 0
-8.629154 0 -13.27142 -0 1 -0 200 200 200 255 0.4481585 0.4662924
-60.35143 0 -14.34595 -0 1 -0 200 200 200 255 0.4439611 0.2642522
46.51512 0 -14.12585 0 1 -0 200 200 200 255 0.4448209 0.6816997
-96.8878 0 -22.03491 -0 1 -0 200 200 200 255 0.4139261 0.121532
-117.1772 0 -25.2019 -0 1 0 200 200 200 255 0.4015551 0.04227638
128 -0 -26.85938 0 1 -0 200 200 200 255 0.3950806 1
-75.95506 0 -29.3396 0 1 -0 200 200 200 255 0.3853922 0.2033006
20.51744 0 -34.65881 0 1 -0 200 200 200 255 0.364614 0.5801463
-55.2627 0 -35.56812 -0 1 -0 200 200 200 255 0.361062 0.2841301
-20.87341 0 -32.57495 -0 1 -0 200 200 200 255 0.3727541 0.4184632
95.22435 -0 -28.78052 0 1 -0 200 200 200 255 0.3875761 0.8719701
-128 0 -31.03125 -0 1 0 200 200 200 255 0.3787842 0
70.8801 -0 -34.92871 0 1 -0 200 200 200 255 0.3635597 0.7768754
116.2908 -0 -36.04468 0 1 -0 200 200 200 255 0.3592005 0.9542608
50.68174 0 -43.16309 -0 1 0 200 200 200 255 0.3313942 0.6979755
-90.54698 0 -42.4469 0 1 0 200 200 200 255 0.3341918 0.1463009
-42.82483 -0 -52.60291 0 1 -0 200 200 200 255 0.2945199 0.3327155
5.069077 0 -66.36316 -0 1 0 200 200 200 255 0.2407689 0.5198011
-128 0 -57.92188 0 1 -0 200 200 200 255 0.2737427 0
-112.1421 0 -55.83752 0 1 -0 200 200 200 255 0.2818847 0.06194496
93.18663 -0 -56.03772 0 1 0 200 200 200 255 0.2811027 0.8640103
-78.96263 0 -61.19177 0 1 0 200 200 200 255 0.2609696 0.1915522
25.18626 0 -57.54333 -0 1 0 200 200 200 255 0.2752213 0.5983838
128 -0 -55.39062 0 1 0 200 200 200 255 0.2836304 1
115.3296 -0 -62.03442 0 1 0 200 200 200 255 0.257678 0.9505062
-18.78394 -0 -53.62109 -0 1 -0 200 200 200 255 0.2905426 0.4266253
62.68955 -0 -59.22607 0 1 -0 200 200 200 255 0.2686481 0.744881
46.12406 0 -74.96552 0 1 0 200 200 200 255 0.207166 0.6801721
-17.81445 0 -72.77344 -0 1 0 200 200 200 255 0.2157288 0.4304123
-57.00659 -0 -79.73584 0 1 -0 200 200 200 255 0.1885319 0.277318
-83.98143 0 -84.42639 -0 1 -0 200 200 200 255 0.1702094 0.1719475
-114.5743 -0 -78.54361 0 1 -0 200 200 200 255 0.193189 0.05244422
116.4302 -0 -90.14908 0 1 0 200 200 200 255 0.1478552 0.9548056
73.39744 -0 -78.86426 0 1 0 200 200 200 255 0.1919365 0.7867087
128 -0 -79.78125 0 1 0 200 200 200 255 0.1883545 1
-35.04736 0 -85.46045 -0 1 0 200 200 200 255 0.1661701 0.3630962
-128 -0 -87.84375 0 1 -0 200 200 200 255 0.1568604 0
24.69316 0 -85.05408 -0 1 0 200 200 200 255 0.1677575 0.5964577
90.5742 0 -87.81787 0 1 0 200 200 200 255 0.1569614 0.8538055
3.19774 0 -90.66895 -0 1 0 200 200 200 255 0.1458244 0.5124912
60.0283 0 -99.07257 0 1 0 200 200 200 255 0.1129978 0.7344855
-19.37939 0 -96.90332 -0 1 0 200 200 200 255 0.1214714 0.4242992
128 -0 -99.6875 0 1 -0 200 200 200 255 0.1105957 1
-98.07768 -0 -108.9495 -0 1 -0 200 200 200 255 0.07441616 0.1168841
107.591 -0 -115.7844 0 1 -0 200 200 200 255 0.04771733 0.9202774
40.03477 0 -112.301 0 1 0 200 200 200 255 0.06132412 0.6563858
-42.68677 -0 -110.3127 -0 1 -0 200 200 200 255 0.06909084 0.3332548
-72.58031 -0 -102.1611 -0 1 -0 200 200 200 255 0.1009331 0.2164832
-118.9771 0 -107.9764 0 1 0 200 200 200 255 0.07821703 0.0352459
17.06919 0 -118.11 0 1 -0 200 200 200 255 0.03863287 0.5666766
81.45286 0 -113.938 0 1 0 200 200 200 255 0.05492973 0.8181752
-128 -0 -109.1875 -0 1 -0 200 200 200 255 0.07348633 0
-14.57593 0 -115.9987 -0 1 -0 200 200 200 255 0.04688025 0.4430628
63.08445 0 -120.1309 -0 1 0 200 200 200 255 0.03073883 0.7464236
-66.02294 -0 -121.1292 -0 1 -0 200 200 200 255 0.02683926 0.2420979
128 -0 -128 0 1 0 200 200 200 255 0 1
-128 0 -128 -0 1 0 200 200 200 255 0 0
-92.21873 -0 -128 0 1 -0 200 200 200 255 0 0.1397706
-68.57811 -0 -128 0 1 -0 200 200 200 255 0 0.2321168
-36.53125 -0 -128 -0 1 -0 200 200 200 255 0 0.3572998
-9.453127 0 -128 -0 1 -0 200 200 200 255 0 0.4630737
10.53123 0 -128 0 1 -0 200 200 200 255 0 0.5411376
31.03123 0 -128 -0 1 -0 200 200 200 255 0 0.6212158
56.0781 0 -128 -0 1 -0 200 200 200 255 0 0.7190551
80.60935 0 -128 -0 1 0 200 200 200 255 0 0.8148803
99.62498 0 -128 0 1 0 200 200 200 255 0 0.8891601
3 0 1 2 
3 0 3 1 
3 3 4 1 
3 3 5 4 
3 5 6 4 
3 6 7 4 
3 6 8 7 
3 8 9 7 
3 8 10 9 
3 10 11 9 
3 10 12 11 
3 12 13 11 
3 12 14 13 
3 14 15 13 
3 14 16 15 
3 16 17 15 
3 16 18 17 
3 4 7 19 
3 13 20 11 
3 13 15 21 
3 15 17 22 
3 18 23 17 
3 2 1 24 
3 15 25 21 
3 7 26 19 
3 17 23 27 
3 1 4 28 
3 7 9 26 
3 15 22 25 
3 9 11 29 
3 13 21 20 
3 4 30 28 
3 17 31 22 
3 4 19 30 
3 17 27 31 
3 2 24 32 
3 9 29 26 
3 11 20 29 
3 22 31 25 
3 1 33 24 
3 30 19 34 
3 19 26 34 
3 24 33 32 
3 27 35 31 
3 20 21 36 
3 27 23 35 
3 33 1 37 
3 1 28 37 
3 21 25 38 
3 20 36 29 
3 21 38 36 
3 25 31 38 
3 26 39 34 
3 23 40 35 
3 30 41 28 
3 34 41 30 
3 26 29 42 
3 29 36 42 
3 31 35 43 
3 33 44 32 
3 38 45 36 
3 34 39 41 
3 32 44 46 
3 28 41 47 
3 33 37 44 
3 37 28 47 
3 26 42 39 
3 38 31 43 
3 36 48 42 
3 38 43 49 
3 38 49 45 
3 41 39 50 
3 48 36 51 
3 45 52 36 
3 47 53 37 
3 41 50 47 
3 40 54 35 
3 50 39 55 
3 39 42 55 
3 36 52 51 
3 43 35 56 
3 44 37 57 
3 42 48 55 
3 44 57 46 
3 47 50 58 
3 35 54 56 
3 46 57 59 
3 49 43 60 
3 43 56 60 
3 37 53 57 
3 48 51 61 
3 45 62 52 
3 45 49 62 
3 49 60 62 
3 48 61 55 
3 47 58 53 
3 57 63 59 
3 57 53 63 
3 50 64 58 
3 50 55 64 
3 54 65 56 
3 53 58 66 
3 55 61 67 
3 62 68 52 
3 64 55 67 
3 56 69 60 
3 52 68 51 
3 62 60 68 
3 56 65 69 
3 53 66 63 
3 58 64 66 
3 60 70 68 
3 51 68 71 
3 60 69 70 
3 59 63 72 
3 51 71 61 
3 61 71 73 
3 63 66 74 
3 64 75 66 
3 61 73 67 
3 71 68 76 
3 65 77 69 
3 63 78 72 
3 66 79 74 
3 64 67 75 
3 68 70 80 
3 63 74 78 
3 68 80 76 
3 69 81 70 
3 72 78 82 
3 67 83 75 
3 66 75 84 
3 71 76 85 
3 79 86 74 
3 66 84 79 
3 67 73 83 
3 74 86 78 
3 70 81 80 
3 69 77 81 
3 71 85 73 
3 78 87 82 
3 77 88 81 
3 78 86 87 
3 79 89 86 
3 73 85 90 
3 84 89 79 
3 84 75 91 
3 83 73 90 
3 75 83 92 
3 80 81 93 
3 82 87 94 
3 84 91 89 
3 80 95 76 
3 80 93 95 
3 81 88 96 
3 83 90 92 
3 76 95 85 
3 81 96 93 
3 90 85 97 
3 75 92 91 
3 86 89 98 
3 86 98 87 
3 91 92 99 
3 85 95 97 
3 92 90 100 
3 94 87 101 
3 87 102 101 
3 93 103 95 
3 89 104 98 
3 89 91 104 
3 93 96 103 
3 90 97 105 
3 87 98 102 
3 88 106 96 
3 96 106 107 
3 92 100 108 
3 99 92 108 
3 97 95 109 
3 91 99 104 
3 96 107 103 
3 105 100 90 
3 97 110 105 
3 95 103 109 
3 97 109 110 
3 98 104 102 
3 108 100 111 
3 108 111 99 
3 104 99 112 
3 104 113 102 
3 102 114 101 
3 107 106 115 
3 109 103 116 
3 106 117 115 
3 99 111 118 
3 99 118 112 
3 104 112 113 
3 101 114 119 
3 105 120 100 
3 105 110 120 
3 103 115 121 
3 103 107 115 
3 102 113 114 
3 100 122 111 
3 103 121 116 
3 109 116 110 
3 110 116 123 
3 100 120 122 
3 121 123 116 
3 122 124 111 
3 118 111 124 
3 117 125 115 
3 113 126 114 
3 115 127 121 
3 120 110 128 
3 112 129 130 
3 112 118 129 
3 110 123 128 
3 114 126 131 
3 112 130 113 
3 122 120 132 
3 113 130 126 
3 114 131 119 
3 123 121 133 
3 118 124 129 
3 119 131 134 
3 122 135 124 
3 121 127 133 
3 124 135 129 
3 122 132 135 
3 120 128 132 
3 115 125 127 
3 133 136 123 
3 130 129 137 
3 123 136 128 
3 125 138 127 
3 130 137 126 
3 131 139 134 
3 131 126 139 
3 126 140 139 
3 126 137 140 
3 137 141 140 
3 137 142 141 
3 137 129 142 
3 129 135 142 
3 135 143 142 
3 135 132 143 
3 132 144 143 
3 132 145 144 
3 132 128 145 
3 128 146 145 
3 128 136 146 
3 136 147 146 
3 136 133 147 
3 133 127 147 
3 127 148 147 
3 127 138 148 
