ply
format ascii 1.0
comment VCGLIB generated
comment TextureFile NvF5e.jpg
element vertex 77
property float x
property float y
property float z
property float nx
property float ny
property float nz
property uchar red
property uchar green
property uchar blue
property uchar alpha
property float texture_u
property float texture_v
element face 127
property list uchar int vertex_indices
end_header
-128 -0 128 -0 1 0 200 200 200 255 1 0
-67.07811 0 128 -0 1 0 200 200 200 255 1 0.2379761
-98.03514 0 111.4702 -0 1 0 200 200 200 255 0.9354303 0.1170502
-59.71972 0 119.4912 -0 1 0 200 200 200 255 0.9667625 0.2667198
-24.76562 0 128 -0 1 0 200 200 200 255 1 0.4032593
-27.66284 0 121.6506 -0 1 0 200 200 200 255 0.9751978 0.391942
0.551503 0 119.4563 0 1 0 200 200 200 255 0.9666262 0.5021543
21.84373 -0 128 0 1 0 200 200 200 255 1 0.5853271
37.89134 0 115.2714 0 1 0 200 200 200 255 0.9502788 0.6480131
61.35935 0 128 -0 1 0 200 200 200 255 1 0.7396849
69.29359 0 111.3425 0 1 0 200 200 200 255 0.9349318 0.770678
92.70311 -0 128 0 1 0 200 200 200 255 1 0.8621215
128 -0 128 -0 1 0 200 200 200 255 1 1
-43.18036 0 94.59888 -0 1 -0 200 200 200 255 0.8695269 0.3313267
109.1574 -0 99.50165 0 1 -0 200 200 200 255 0.8886783 0.926396
-120.7039 0 95.39783 -0 1 0 200 200 200 255 0.8726478 0.02850056
-15.29504 0 94.79913 -0 1 -0 200 200 200 255 0.8703091 0.4402537
128 -0 101.4375 0 1 -0 200 200 200 255 0.8962402 1
-79.5645 0 92.98755 -0 1 0 200 200 200 255 0.8632326 0.1892012
17.99252 0 81.67432 0 1 0 200 200 200 255 0.8190403 0.5702833
-128 -0 77.11719 -0 1 0 200 200 200 255 0.801239 0
110.9333 -0 70.60907 0 1 -0 200 200 200 255 0.7758167 0.9333334
-81.91608 -0 59.13794 0 1 -0 200 200 200 255 0.7310076 0.1800153
66.3574 -0 72.03528 0 1 -0 200 200 200 255 0.7813878 0.7592086
-35.4917 0 66.9353 -0 1 0 200 200 200 255 0.761466 0.3613605
128 -0 75.10938 0 1 -0 200 200 200 255 0.793396 1
-121.4932 -0 57.55786 -0 1 -0 200 200 200 255 0.7248354 0.02541733
76.97783 -0 37.36206 0 1 -0 200 200 200 255 0.6459455 0.8006946
43.45457 0 44.85654 0 1 -0 200 200 200 255 0.6752208 0.6697444
128 -0 37.21875 0 1 -0 200 200 200 255 0.6453857 1
3.305345 0 39.40015 -0 1 0 200 200 200 255 0.6539068 0.5129115
-70.04585 -0 26.71725 -0 1 0 200 200 200 255 0.6043643 0.2263834
119.5712 -0 40.49573 0 1 -0 200 200 200 255 0.6581864 0.9670749
-128 -0 25.44531 0 1 0 200 200 200 255 0.5993958 0
-107.4161 0 11.31195 -0 1 0 200 200 200 255 0.5441873 0.08040595
-36.68665 0 25.00513 -0 1 0 200 200 200 255 0.5976763 0.3566928
-11.37363 0 13.36542 -0 1 0 200 200 200 255 0.5522087 0.4555718
108.9753 -0 12.53232 0 1 0 200 200 200 255 0.5489544 0.9256849
40.40428 0 11.17078 0 1 0 200 200 200 255 0.5436358 0.6578292
20.02183 0 -4.872192 0 1 0 200 200 200 255 0.480968 0.5782103
-43.85907 0 -0.989014 -0 1 0 200 200 200 255 0.4961367 0.3286755
55.46394 0 -11.29858 0 1 0 200 200 200 255 0.4558649 0.716656
128 -0 -14.28906 0 1 -0 200 200 200 255 0.4441833 1
-69.89299 0 -10.1991 0 1 0 200 200 200 255 0.4601598 0.2269805
103.5118 -0 -21.63382 0 1 -0 200 200 200 255 0.4154929 0.9043431
-128 0 -20.60156 -0 1 0 200 200 200 255 0.4195251 0
-14.75128 0 -22.92319 -0 1 -0 200 200 200 255 0.4104563 0.4423778
-90.06941 0 -28.96408 -0 1 0 200 200 200 255 0.3868591 0.1481664
-117.1772 0 -25.2019 -0 1 0 200 200 200 255 0.4015551 0.04227638
20.51744 0 -34.65881 0 1 -0 200 200 200 255 0.364614 0.5801463
-49.04376 -0 -44.08551 -0 1 -0 200 200 200 255 0.327791 0.3084228
63.78288 -0 -43.06165 0 1 -0 200 200 200 255 0.3317904 0.7491518
14.53656 0 -74.90738 0 1 0 200 200 200 255 0.2073931 0.5567834
-128 0 -57.92188 -0 1 -0 200 200 200 255 0.2737427 0
-113.3582 -0 -67.19057 0 1 -0 200 200 200 255 0.2375368 0.05719459
104.2581 -0 -59.03607 0 1 0 200 200 200 255 0.2693903 0.9072583
-69.23931 0 -76.27246 0 1 -0 200 200 200 255 0.2020607 0.2295339
128 -0 -55.39062 0 1 0 200 200 200 255 0.2836304 1
-18.29919 0 -63.19727 -0 1 -0 200 200 200 255 0.2531357 0.4285188
46.12406 0 -74.96552 0 1 0 200 200 200 255 0.207166 0.6801721
116.4302 -0 -90.14908 0 1 0 200 200 200 255 0.1478552 0.9548056
81.98582 -0 -83.34106 0 1 0 200 200 200 255 0.174449 0.8202571
128 -0 -89.73438 0 1 0 200 200 200 255 0.1494751 1
-24.763 0 -108.373 -0 1 0 200 200 200 255 0.07666802 0.4032695
-128 -0 -87.84375 0 1 -0 200 200 200 255 0.1568604 0
66.14848 0 -108.0535 0 1 0 200 200 200 255 0.07791603 0.7583925
-108.5274 -0 -108.463 -0 1 -0 200 200 200 255 0.0763166 0.07606497
107.591 -0 -115.7844 0 1 0 200 200 200 255 0.04771733 0.9202774
28.55198 0 -115.2055 0 1 -0 200 200 200 255 0.04997849 0.6115312
-69.30162 -0 -111.6451 -0 1 -0 200 200 200 255 0.06388617 0.2292905
-128 0 -128 0 1 0 200 200 200 255 0 0
128 -0 -128 0 1 0 200 200 200 255 0 1
-80.39842 -0 -128 0 1 -0 200 200 200 255 0 0.1859437
-36.53125 -0 -128 -0 1 -0 200 200 200 255 0 0.3572998
0.539051 0 -128 -0 1 -0 200 200 200 255 0 0.5021057
43.55466 0 -128 -0 1 -0 200 200 200 255 0 0.6701354
90.11717 0 -128 0 1 0 200 200 200 255 0 0.8520202
3 0 1 2 
3 1 3 2 
3 1 4 3 
3 4 5 3 
3 4 6 5 
3 4 7 6 
3 7 8 6 
3 7 9 8 
3 9 10 8 
3 9 11 10 
3 11 12 10 
3 3 5 13 
3 10 12 14 
3 0 2 15 
3 5 16 13 
3 12 17 14 
3 2 3 18 
3 5 6 16 
3 6 8 19 
3 3 13 18 
3 0 15 20 
3 6 19 16 
3 8 10 19 
3 14 17 21 
3 15 2 22 
3 2 18 22 
3 10 23 19 
3 10 14 23 
3 16 24 13 
3 17 25 21 
3 13 24 18 
3 15 26 20 
3 18 24 22 
3 15 22 26 
3 16 19 24 
3 23 14 21 
3 23 21 27 
3 23 28 19 
3 25 29 21 
3 24 19 30 
3 22 24 31 
3 21 29 32 
3 20 26 33 
3 21 32 27 
3 19 28 30 
3 23 27 28 
3 26 34 33 
3 26 22 34 
3 24 35 31 
3 24 30 35 
3 35 30 36 
3 32 37 27 
3 32 29 37 
3 22 31 34 
3 28 27 38 
3 28 38 30 
3 30 38 39 
3 35 40 31 
3 30 39 36 
3 38 27 41 
3 29 42 37 
3 31 43 34 
3 35 36 40 
3 27 37 44 
3 27 44 41 
3 33 34 45 
3 36 46 40 
3 31 40 43 
3 43 47 34 
3 36 39 46 
3 37 42 44 
3 38 41 39 
3 34 48 45 
3 34 47 48 
3 39 41 49 
3 43 40 50 
3 46 39 49 
3 43 50 47 
3 44 51 41 
3 49 41 51 
3 40 46 50 
3 46 49 52 
3 45 48 53 
3 48 54 53 
3 44 55 51 
3 47 50 56 
3 49 51 52 
3 48 47 54 
3 42 57 44 
3 44 57 55 
3 46 52 58 
3 50 46 58 
3 51 59 52 
3 47 56 54 
3 55 57 60 
3 51 55 61 
3 57 62 60 
3 50 58 63 
3 50 63 56 
3 53 54 64 
3 55 60 61 
3 51 61 59 
3 59 61 65 
3 52 63 58 
3 56 66 54 
3 60 67 61 
3 52 59 68 
3 56 63 69 
3 59 65 68 
3 56 69 66 
3 54 66 64 
3 64 66 70 
3 61 67 65 
3 52 68 63 
3 60 62 67 
3 62 71 67 
3 66 72 70 
3 66 69 72 
3 69 73 72 
3 69 63 73 
3 63 74 73 
3 63 68 74 
3 68 75 74 
3 68 65 75 
3 65 76 75 
3 65 67 76 
3 67 71 76 
