ply
format ascii 1.0
comment VCGLIB generated
comment TextureFile NvF5e.jpg
element vertex 42
property float x
property float y
property float z
property float nx
property float ny
property float nz
property uchar red
property uchar green
property uchar blue
property uchar alpha
property float texture_u
property float texture_v
element face 63
property list uchar int vertex_indices
end_header
-128 -0 128 -0 1 0 200 200 200 255 1 0
-67.07811 0 128 -0 1 0 200 200 200 255 1 0.2379761
-104.7518 0 98.81334 -0 1 0 200 200 200 255 0.8859896 0.09081313
-59.71972 0 119.4912 -0 1 0 200 200 200 255 0.9667625 0.2667198
-24.76562 0 128 -0 1 0 200 200 200 255 1 0.4032593
-13.94938 0 113.8156 -0 1 -0 200 200 200 255 0.944592 0.4455102
21.84373 -0 128 0 1 0 200 200 200 255 1 0.5853271
53.59246 0 113.3069 0 1 0 200 200 200 255 0.9426053 0.7093456
77.03123 -0 128 -0 1 0 200 200 200 255 1 0.8009033
128 -0 128 0 1 0 200 200 200 255 1 1
110.0454 -0 85.05536 0 1 -0 200 200 200 255 0.8322475 0.9298647
128 -0 88.27344 0 1 -0 200 200 200 255 0.8448181 1
17.99252 0 81.67432 0 1 0 200 200 200 255 0.8190403 0.5702833
-128 -0 77.11719 -0 1 0 200 200 200 255 0.801239 0
63.2868 -0 56.57229 0 1 -0 200 200 200 255 0.7209855 0.7472141
-35.4917 0 66.9353 -0 1 0 200 200 200 255 0.761466 0.3613605
-121.4932 -0 57.55786 -0 1 -0 200 200 200 255 0.7248354 0.02541733
-75.98096 -0 42.9276 -0 1 -0 200 200 200 255 0.6676859 0.2031994
128 -0 37.21875 0 1 -0 200 200 200 255 0.6453857 1
-11.25895 0 26.04344 -0 1 0 200 200 200 255 0.6017322 0.4560197
114.2733 -0 26.51402 0 1 -0 200 200 200 255 0.6035704 0.9463799
-128 -0 25.44531 0 1 0 200 200 200 255 0.5993958 0
-97.08712 0 -3.664547 -0 1 0 200 200 200 255 0.4856853 0.1207534
31.67797 0 -19.36673 0 1 -0 200 200 200 255 0.4243487 0.623742
128 -0 -14.28906 0 1 -0 200 200 200 255 0.4441833 1
103.885 -0 -40.33495 0 1 -0 200 200 200 255 0.3424416 0.9058007
-128 0 -20.60156 -0 1 0 200 200 200 255 0.4195251 0
-24.21138 0 -38.28229 0 1 -0 200 200 200 255 0.3504598 0.4054243
63.78288 -0 -43.06165 0 1 0 200 200 200 255 0.3317904 0.7491518
30.33031 0 -74.93645 -0 1 0 200 200 200 255 0.2072795 0.6184778
-128 0 -72.88281 0 1 -0 200 200 200 255 0.2153015 0
-113.3582 -0 -67.19057 0 1 -0 200 200 200 255 0.2375368 0.05719459
-69.27046 -0 -93.9588 -0 1 -0 200 200 200 255 0.1329734 0.2294123
128 -0 -72.5625 0 1 0 200 200 200 255 0.2165527 1
128 -0 -128 0 1 0 200 200 200 255 0 1
74.06715 0 -95.69728 0 1 0 200 200 200 255 0.1261825 0.7893248
-24.763 0 -108.373 -0 1 -0 200 200 200 255 0.07666802 0.4032695
-128 0 -128 0 1 -0 200 200 200 255 0 0
28.55198 0 -115.2055 0 1 -0 200 200 200 255 0.04997849 0.6115312
-80.39842 -0 -128 0 1 -0 200 200 200 255 0 0.1859437
-17.9961 -0 -128 -0 1 -0 200 200 200 255 0 0.4297027
43.55466 0 -128 -0 1 -0 200 200 200 255 0 0.6701354
3 0 1 2 
3 1 3 2 
3 1 4 3 
3 4 5 3 
3 4 6 5 
3 6 7 5 
3 6 8 7 
3 8 9 7 
3 7 9 10 
3 9 11 10 
3 5 7 12 
3 3 5 2 
3 0 2 13 
3 7 14 12 
3 7 10 14 
3 5 15 2 
3 2 16 13 
3 2 15 17 
3 2 17 16 
3 5 12 15 
3 11 18 10 
3 15 12 19 
3 10 18 20 
3 13 16 21 
3 10 20 14 
3 12 14 19 
3 16 22 21 
3 16 17 22 
3 15 19 17 
3 14 23 19 
3 18 24 20 
3 14 20 25 
3 14 25 23 
3 21 22 26 
3 17 19 22 
3 19 23 27 
3 20 24 25 
3 22 19 27 
3 25 28 23 
3 27 23 29 
3 26 22 30 
3 22 31 30 
3 22 27 32 
3 23 28 29 
3 24 33 25 
3 22 32 31 
3 25 33 34 
3 28 25 35 
3 27 36 32 
3 25 34 35 
3 28 35 29 
3 29 36 27 
3 32 37 31 
3 29 35 38 
3 31 37 30 
3 29 38 36 
3 37 32 39 
3 32 40 39 
3 32 36 40 
3 36 38 40 
3 38 41 40 
3 38 35 41 
3 35 34 41 
