ply
format ascii 1.0
comment VCGLIB generated
comment TextureFile NvF5e.jpg
element vertex 288
property float x
property float y
property float z
property float nx
property float ny
property float nz
property uchar red
property uchar green
property uchar blue
property uchar alpha
property float texture_u
property float texture_v
element face 512
property list uchar int vertex_indices
end_header
-128 -0 128 0 1 0 200 200 200 255 1 0
-110.9375 -0 128 0 1 0 200 200 200 255 1 0.06665039
-116.8926 -0 120.5518 0 1 0 200 200 200 255 0.9709053 0.04338837
-101.3594 -0 119.7676 0 1 0 200 200 200 255 0.9678421 0.104065
-95.37498 -0 128 -0 1 0 200 200 200 255 1 0.1274415
-85.94431 -0 117.7205 -0 1 0 200 200 200 255 0.9598455 0.16428
-79.04685 -0 128 -0 1 0 200 200 200 255 1 0.1912232
-67.37352 -0 116.3325 -0 1 0 200 200 200 255 0.9544239 0.2368222
-61.5 -0 128 -0 1 0 200 200 200 255 1 0.2597656
-52.06592 0 122.6499 -0 1 0 200 200 200 255 0.9791012 0.2966175
-48.71875 0 128 -0 1 -0 200 200 200 255 1 0.3096924
-34.375 0 128 -0 1 -0 200 200 200 255 1 0.3657227
-27.66284 0 121.6506 -0 1 -0 200 200 200 255 0.9751978 0.391942
-15.15625 0 128 0 1 0 200 200 200 255 1 0.4407959
-8.474609 0 122.249 0 1 0 200 200 200 255 0.9775352 0.4668961
7.362286 0 123.2031 0 1 0 200 200 200 255 0.9812622 0.5287589
4.062481 0 128 0 1 0 200 200 200 255 1 0.5158691
17.24998 -0 128 0 1 0 200 200 200 255 1 0.5673828
24.36546 -0 116.2725 0 1 0 200 200 200 255 0.9541893 0.5951776
33.03123 -0 128 0 1 0 200 200 200 255 1 0.6290283
45.47264 0 121.8569 -0 1 0 200 200 200 255 0.9760036 0.6776275
53.59373 0 128 -0 1 0 200 200 200 255 1 0.7093505
64.84397 0 121.5532 -0 1 -0 200 200 200 255 0.9748173 0.7532967
69.12498 -0 128 0 1 0 200 200 200 255 1 0.7700194
82.31882 -0 121.0205 0 1 0 200 200 200 255 0.9727364 0.8215579
84.87498 -0 128 0 1 0 200 200 200 255 1 0.8315428
100.5039 -0 123.374 -0 1 0 200 200 200 255 0.9819298 0.8925934
100.5312 -0 128 -0 1 0 200 200 200 255 1 0.8927001
112.9277 -0 115.9907 0 1 0 200 200 200 255 0.9530888 0.941124
115 -0 128 0 1 0 200 200 200 255 1 0.9492188
128 -0 128 0 1 0 200 200 200 255 1 1
-4.043952 0 109.1699 0 1 0 200 200 200 255 0.926445 0.4842033
-128 0 113.25 0 1 0 200 200 200 255 0.9423828 0
-38.05469 0 108.5107 -0 1 0 200 200 200 255 0.9238701 0.3513489
42.39598 0 103.7822 -0 1 0 200 200 200 255 0.9053993 0.6656093
-121.8584 0 105.231 0 1 0 200 200 200 255 0.9110584 0.02399063
55.1992 0 109.0654 -0 1 0 200 200 200 255 0.9260368 0.7156219
72.07981 0 107.2847 0 1 0 200 200 200 255 0.9190807 0.7815617
-102.4184 0 104.1963 0 1 0 200 200 200 255 0.9070168 0.09992793
-51.75195 0 106.9219 -0 1 -0 200 200 200 255 0.9176636 0.2978439
92.84471 0 106.0991 -0 1 0 200 200 200 255 0.9144497 0.8626747
128 -0 109.1875 0 1 0 200 200 200 255 0.9265137 1
-21.74683 0 100.4673 -0 1 0 200 200 200 255 0.8924503 0.4150515
120.6074 -0 101.2412 0 1 -0 200 200 200 255 0.8954735 0.9711227
30.11326 0 98.41602 -0 1 0 200 200 200 255 0.8844376 0.6176299
-78.24021 0 101.7007 -0 1 0 200 200 200 255 0.8972683 0.1943742
11.41599 0 99.58301 0 1 0 200 200 200 255 0.8889961 0.5445938
76.24412 0 93.85938 0 1 -0 200 200 200 255 0.8666382 0.7978286
-56.65991 0 93.60889 0 1 0 200 200 200 255 0.8656597 0.2786722
109.8125 -0 89.9292 0 1 -0 200 200 200 255 0.8512859 0.9289551
-7.230471 0 95.57276 -0 1 0 200 200 200 255 0.8733311 0.471756
56.49998 0 95.3833 0 1 0 200 200 200 255 0.872591 0.720703
128 -0 93.6875 0 1 -0 200 200 200 255 0.8659668 1
-128 0 96.25 -0 1 0 200 200 200 255 0.8759766 0
95.32738 -0 88.9209 0 1 -0 200 200 200 255 0.8473473 0.8723726
-119.5493 0 85.5647 0 1 -0 200 200 200 255 0.8342371 0.03301048
-35.5791 0 88.53516 -0 1 -0 200 200 200 255 0.8458405 0.3610191
15.31248 0 87.11475 0 1 0 200 200 200 255 0.840292 0.5598144
-89.33006 0 86.3252 0 1 0 200 200 200 255 0.8372078 0.1510545
-10.45605 0 82.68921 -0 1 -0 200 200 200 255 0.8230047 0.459156
41.99583 0 81.78076 -0 1 0 200 200 200 255 0.8194561 0.6640462
121.8555 -0 81.6499 0 1 -0 200 200 200 255 0.8189449 0.9759979
-72.44749 0 82.22363 0 1 0 200 200 200 255 0.8211861 0.217002
-100.9082 0 76.91016 -0 1 -0 200 200 200 255 0.8004303 0.1058274
-128 -0 81.71875 -0 1 -0 200 200 200 255 0.8192139 0
65.75193 -0 79.72363 0 1 -0 200 200 200 255 0.8114204 0.7568434
79.62009 -0 78.85742 -0 1 -0 200 200 200 255 0.8080368 0.811016
-25.16248 0 71.88379 -0 1 -0 200 200 200 255 0.7807961 0.4017091
128 -0 75.10938 0 1 -0 200 200 200 255 0.793396 1
-56.4104 0 70.13281 0 1 0 200 200 200 255 0.7739563 0.2796469
-43.36401 0 70.77051 0 1 0 200 200 200 255 0.7764473 0.3306093
5.859603 0 69.59914 -0 1 -0 200 200 200 255 0.7718716 0.5228891
-88.81931 -0 70.07812 -0 1 -0 200 200 200 255 0.7737427 0.1530496
23.916 0 77.16699 0 1 0 200 200 200 255 0.8014336 0.5934219
105.6777 -0 72.61157 0 1 -0 200 200 200 255 0.783639 0.9128036
-123.5693 -0 66.78027 -0 1 -0 200 200 200 255 0.7608604 0.01730728
60.02879 -0 64.78003 0 1 -0 200 200 200 255 0.753047 0.7344874
-110.0107 -0 67.85645 -0 1 -0 200 200 200 255 0.7650642 0.07027054
38.21922 0 67.66943 0 1 -0 200 200 200 255 0.7643337 0.6492938
-128 -0 65.25 -0 1 -0 200 200 200 255 0.7548828 0
-71.03661 -0 60.06445 -0 1 -0 200 200 200 255 0.7346268 0.2225133
92.61961 -0 64.70142 0 1 -0 200 200 200 255 0.7527399 0.8617954
123.5806 -0 63.47339 0 1 -0 200 200 200 255 0.7479429 0.9827366
20.60008 0 58.50782 0 1 0 200 200 200 255 0.7285461 0.5804691
77.74229 -0 55.01221 -0 1 -0 200 200 200 255 0.7148914 0.8036808
-35.06201 0 50.96875 0 1 0 200 200 200 255 0.6990967 0.363039
-102.582 -0 57.26758 -0 1 -0 200 200 200 255 0.7237015 0.09928897
-48.44727 0 56.0752 0 1 0 200 200 200 255 0.7190437 0.3107529
34.69285 0 50.81201 0 1 -0 200 200 200 255 0.6984844 0.635519
48.00193 0 50.33838 0 1 -0 200 200 200 255 0.6966343 0.6875076
-88.17869 -0 55.31055 -0 1 -0 200 200 200 255 0.7160568 0.155552
128 -0 56.5 0 1 -0 200 200 200 255 0.7207031 1
-17.6416 0 54.68115 -0 1 0 200 200 200 255 0.7135983 0.4310875
2.330308 0 48.09375 -0 1 0 200 200 200 255 0.6878662 0.5091028
109.9609 -0 51.64551 0 1 0 200 200 200 255 0.7017403 0.9295349
-119.417 -0 48.33545 -0 1 -0 200 200 200 255 0.6888103 0.03352737
-57.80908 -0 37.9574 -0 1 -0 200 200 200 255 0.6482711 0.2741833
122.7695 -0 48.08398 0 1 -0 200 200 200 255 0.6878281 0.9795685
-128 -0 45.53125 -0 1 -0 200 200 200 255 0.6778564 0
-90.16344 -0 42.63159 -0 1 -0 200 200 200 255 0.6665297 0.1477991
58.15366 -0 41.84009 0 1 -0 200 200 200 255 0.6634378 0.7271627
91.54637 -0 40.15308 -0 1 -0 200 200 200 255 0.656848 0.857603
128 -0 43.125 0 1 -0 200 200 200 255 0.668457 1
14.63572 0 38.54199 0 1 -0 200 200 200 255 0.6505547 0.5571708
73.124 -0 35.45557 0 1 -0 200 200 200 255 0.6384983 0.7856406
-11.72021 0 39.69775 -0 1 0 200 200 200 255 0.6550694 0.4542179
110.3662 -0 38.70508 0 1 -0 200 200 200 255 0.6511917 0.931118
-73.19139 -0 34.64941 -0 1 -0 200 200 200 255 0.6353493 0.2140961
32.96983 0 36.43567 0 1 -0 200 200 200 255 0.6423268 0.6287884
122.6758 -0 34.36182 0 1 -0 200 200 200 255 0.6342258 0.9792023
-119.0874 -0 28.5127 -0 1 0 200 200 200 255 0.6113777 0.03481483
-39.90186 0 31.19922 -0 1 -0 200 200 200 255 0.6218719 0.3441334
-128 -0 31.25 -0 1 0 200 200 200 255 0.6220703 0
-26.21191 0 29.91797 -0 1 -0 200 200 200 255 0.6168671 0.3976097
-10.651 0 24.67188 0 1 -0 200 200 200 255 0.5963745 0.4583945
10.93626 0 23.77539 0 1 -0 200 200 200 255 0.5928726 0.5427198
128 -0 24.625 0 1 -0 200 200 200 255 0.5961914 1
-102.0986 -0 23.16211 -0 1 0 200 200 200 255 0.590477 0.1011772
-82.70335 -0 18.89404 0 1 0 200 200 200 255 0.5738049 0.1769401
58.50535 -0 23.74756 0 1 0 200 200 200 255 0.5927639 0.7285365
118.4248 -0 19.18591 -0 1 -0 200 200 200 255 0.574945 0.9625969
-50.49756 0 22.15039 -0 1 0 200 200 200 255 0.586525 0.3027439
78.60496 -0 16.36914 -0 1 0 200 200 200 255 0.563942 0.8070506
-65.48241 0 21.67188 -0 1 0 200 200 200 255 0.5846558 0.2442093
93.14159 -0 20.60645 -0 1 0 200 200 200 255 0.5804939 0.8638343
-1.495857 0 13.95776 0 1 0 200 200 200 255 0.5545225 0.4941568
47.56785 -0 12.24121 0 1 -0 200 200 200 255 0.5478172 0.6858119
-30.13525 0 16.75293 -0 1 -0 200 200 200 255 0.5654411 0.3822842
-128 -0 12.5 -0 1 0 200 200 200 255 0.5488281 0
33.2407 0 10.10034 0 1 0 200 200 200 255 0.5394545 0.6298465
-118.1597 0 12.80078 -0 1 0 200 200 200 255 0.5500031 0.0384388
-67.47679 0 9.064453 -0 1 0 200 200 200 255 0.535408 0.2364188
-50.20435 0 5.218262 -0 1 0 200 200 200 255 0.5203838 0.3038893
101.4932 -0 6.053711 0 1 0 200 200 200 255 0.5236473 0.8964577
-16.67383 0 7.416016 -0 1 0 200 200 200 255 0.5289688 0.4348679
66.37888 -0 11.44531 0 1 0 200 200 200 255 0.5447083 0.7592925
-95.92772 0 5.073975 -0 1 0 200 200 200 255 0.5198202 0.1252823
16.84959 0 2.901367 0 1 0 200 200 200 255 0.5113335 0.5658187
122.8418 -0 4.283203 0 1 -0 200 200 200 255 0.5167313 0.9798508
58.50462 -0 0.480957 0 1 0 200 200 200 255 0.5018787 0.7285336
128 -0 5.125 0 1 -0 200 200 200 255 0.5200195 1
-119.4507 0 -1.03418 -0 1 0 200 200 200 255 0.4959602 0.03339577
-79.43455 0 -6.052246 0 1 0 200 200 200 255 0.4763584 0.1897088
-32.77686 0 -2.005371 -0 1 0 200 200 200 255 0.4921665 0.3719654
86.65427 -0 -1.817383 0 1 0 200 200 200 255 0.4929008 0.8384932
108.6013 -0 -11.05737 0 1 -0 200 200 200 255 0.4568071 0.9242239
72.18162 -0 -2.956055 -0 1 0 200 200 200 255 0.4884529 0.7819594
-128 0 -3.6875 -0 1 0 200 200 200 255 0.4855957 0
-106.5781 0 -6.255859 -0 1 0 200 200 200 255 0.475563 0.0836792
-16.16113 0 -15.29358 0 1 -0 200 200 200 255 0.4402595 0.4368706
29.499 0 -8.929688 0 1 -0 200 200 200 255 0.4651184 0.6152305
45.43553 0 -7.464844 0 1 0 200 200 200 255 0.4708405 0.6774825
-60.35143 0 -14.34595 -0 1 -0 200 200 200 255 0.4439611 0.2642522
-42.25073 0 -12.38721 -0 1 -0 200 200 200 255 0.4516125 0.3349581
-1.097176 0 -11.24927 0 1 -0 200 200 200 255 0.4560575 0.4957142
93.93992 -0 -13.67383 0 1 -0 200 200 200 255 0.4465866 0.8669528
-95.72972 0 -15.68115 -0 1 -0 200 200 200 255 0.4387455 0.1260558
128 -0 -8.5625 0 1 -0 200 200 200 255 0.4665527 1
16.88914 0 -16.36182 0 1 -0 200 200 200 255 0.4360867 0.5659732
80.48826 -0 -16.22168 -0 1 -0 200 200 200 255 0.4366341 0.8144072
122.5947 -0 -15.59766 0 1 -0 200 200 200 255 0.4390717 0.9788857
-118.3521 0 -17.91211 -0 1 0 200 200 200 255 0.4300308 0.0376873
63.4824 0 -15.70508 0 1 0 200 200 200 255 0.438652 0.7479781
-128 0 -16.65625 -0 1 0 200 200 200 255 0.4349365 0
47.59471 0 -20.78687 0 1 0 200 200 200 255 0.4188013 0.6859168
128 -0 -26.85938 0 1 -0 200 200 200 255 0.3950806 1
-79.96287 0 -24.06885 -0 1 -0 200 200 200 255 0.4059811 0.187645
27.81395 0 -31.64893 0 1 -0 200 200 200 255 0.3763714 0.6086482
95.22435 -0 -28.78052 0 1 -0 200 200 200 255 0.3875761 0.8719701
-98.04588 0 -28.38867 0 1 -0 200 200 200 255 0.3891068 0.1170083
-53.74805 0 -29.38135 -0 1 -0 200 200 200 255 0.3852291 0.2900467
-6.501953 0 -34.5498 -0 1 -0 200 200 200 255 0.3650398 0.4746017
11.39012 0 -31.44727 0 1 -0 200 200 200 255 0.3771591 0.5444927
-116.0024 0 -32.4917 -0 1 0 200 200 200 255 0.3730793 0.04686546
-28.91602 0 -28.76465 -0 1 -0 200 200 200 255 0.3876381 0.3870468
-128 0 -31.03125 -0 1 0 200 200 200 255 0.3787842 0
76.37351 -0 -38.45752 0 1 -0 200 200 200 255 0.3497753 0.798334
110.1343 -0 -38.65771 0 1 -0 200 200 200 255 0.3489933 0.930212
65.3867 -0 -31.3999 0 1 -0 200 200 200 255 0.3773441 0.7554168
122.4473 -0 -33.43164 0 1 -0 200 200 200 255 0.3694077 0.9783096
-19.15967 -0 -38.2207 -0 1 -0 200 200 200 255 0.3507004 0.4251575
-71.94724 0 -34.61035 0 1 -0 200 200 200 255 0.3648033 0.2189561
43.89476 0 -43.22168 -0 1 0 200 200 200 255 0.3311653 0.6714639
-84.69334 0 -39.33984 -0 1 0 200 200 200 255 0.3463287 0.1691667
57.46873 0 -43.10449 0 1 0 200 200 200 255 0.3316231 0.7244872
-96.40062 0 -45.55396 0 1 0 200 200 200 255 0.3220549 0.1234351
-38.67578 -0 -46.00781 0 1 -0 200 200 200 255 0.320282 0.3489227
1.930649 0 -48.25195 0 1 -0 200 200 200 255 0.3115158 0.5075416
-56.77734 0 -41.75488 0 1 -0 200 200 200 255 0.336895 0.2782135
-128 0 -49.40625 -0 1 -0 200 200 200 255 0.3070068 0
-118.9229 0 -51.97241 0 1 -0 200 200 200 255 0.2969828 0.03545761
15.05174 0 -43.89014 0 1 -0 200 200 200 255 0.3285542 0.5587959
92.15623 -0 -44.68164 0 1 -0 200 200 200 255 0.3254623 0.8599852
-76.65721 0 -50.56494 0 1 0 200 200 200 255 0.3024807 0.2005578
26.67137 0 -50.39331 -0 1 0 200 200 200 255 0.3031511 0.604185
128 -0 -48.46875 0 1 0 200 200 200 255 0.3106689 1
121.4248 -0 -58.37354 0 1 0 200 200 200 255 0.2719784 0.9743156
102.0801 -0 -53.77539 0 1 0 200 200 200 255 0.2899399 0.8987503
-53.72412 -0 -55.35107 0 1 -0 200 200 200 255 0.2837849 0.2901402
-18.78394 -0 -53.62109 -0 1 -0 200 200 200 255 0.2905426 0.4266253
62.68955 -0 -59.22607 0 1 -0 200 200 200 255 0.2686481 0.744881
-105.3613 -0 -59.70264 -0 1 -0 200 200 200 255 0.2667866 0.08843231
83.31492 -0 -59.53174 0 1 0 200 200 200 255 0.2674541 0.8254489
10.499 0 -59.37695 -0 1 0 200 200 200 255 0.2680588 0.5410118
43.48021 0 -63.12598 -0 1 0 200 200 200 255 0.2534142 0.6698446
-68.0703 0 -63.25977 0 1 0 200 200 200 255 0.2528915 0.2341004
-3.62598 0 -63.41797 -0 1 0 200 200 200 255 0.2522736 0.485836
-85.5615 0 -65.47119 -0 1 -0 200 200 200 255 0.2442532 0.1657754
-40.22363 -0 -63.04492 0 1 0 200 200 200 255 0.2537308 0.3428764
109.2344 -0 -65.69531 0 1 0 200 200 200 255 0.2433777 0.9266968
128 -0 -62.3125 0 1 0 200 200 200 255 0.2565918 1
23.70115 0 -64.69336 -0 1 0 200 200 200 255 0.2472916 0.5925826
95.1953 -0 -66.16211 0 1 0 200 200 200 255 0.2415543 0.8718566
-128 0 -66.4375 0 1 -0 200 200 200 255 0.2404785 0
-20.50977 0 -66.81836 -0 1 0 200 200 200 255 0.2389908 0.4198837
-55.21533 -0 -72.90869 0 1 -0 200 200 200 255 0.2152004 0.2843151
8.843731 0 -74.11011 -0 1 0 200 200 200 255 0.2105074 0.5345458
35.57469 0 -75.15015 0 1 0 200 200 200 255 0.2064447 0.6389636
-122.9277 -0 -74.47949 0 1 -0 200 200 200 255 0.2090645 0.01981354
-91.72313 0 -85.08179 -0 1 0 200 200 200 255 0.1676493 0.1417065
52.72068 -0 -80.79297 0 1 -0 200 200 200 255 0.1844025 0.7059401
-15.11914 0 -78.72852 -0 1 0 200 200 200 255 0.1924667 0.4409409
120.3704 -0 -83.23694 0 1 0 200 200 200 255 0.1748557 0.9701967
-108.5332 -0 -75.96777 0 1 -0 200 200 200 255 0.2032509 0.07604218
73.39744 -0 -78.86426 0 1 0 200 200 200 255 0.1919365 0.7867087
89.36327 -0 -81.2959 0 1 0 200 200 200 255 0.1824379 0.8490753
128 -0 -79.78125 0 1 0 200 200 200 255 0.1883545 1
-35.04736 0 -85.46045 -0 1 0 200 200 200 255 0.1661701 0.3630962
-76.23972 0 -83.771 -0 1 -0 200 200 200 255 0.1727695 0.2021886
-128 -0 -80.8125 0 1 -0 200 200 200 255 0.1843262 0
21.65159 0 -79.03223 -0 1 0 200 200 200 255 0.1912804 0.5845765
107.2529 -0 -84.51953 0 1 0 200 200 200 255 0.1698456 0.9189568
3.19774 0 -90.66895 -0 1 0 200 200 200 255 0.1458244 0.5124912
-118.303 -0 -87.7594 0 1 0 200 200 200 255 0.1571898 0.03787899
-58.79785 -0 -86.56299 0 1 -0 200 200 200 255 0.1618633 0.2703209
68.00193 0 -91.65454 0 1 0 200 200 200 255 0.1419744 0.7656325
27.73472 0 -91.07593 0 1 -0 200 200 200 255 0.1442347 0.6083388
-19.37939 0 -96.90332 -0 1 0 200 200 200 255 0.1214714 0.4242992
119.0488 -0 -96.41992 0 1 -0 200 200 200 255 0.1233597 0.9650345
-128 -0 -94.875 0 1 -0 200 200 200 255 0.1293945 0
91.78513 0 -94.33984 0 1 0 200 200 200 255 0.131485 0.8585356
128 -0 -99.6875 0 1 -0 200 200 200 255 0.1105957 1
-97.49974 -0 -99.99072 -0 1 -0 200 200 200 255 0.1094112 0.1191416
53.12986 0 -100.1777 0 1 0 200 200 200 255 0.1086807 0.7075385
107.6023 -0 -105.0359 0 1 -0 200 200 200 255 0.08970356 0.9203215
35.73729 0 -105.4712 0 1 0 200 200 200 255 0.08800316 0.6395988
-49.06323 -0 -105.7239 -0 1 -0 200 200 200 255 0.08701611 0.3083467
-64.74462 -0 -99.52734 -0 1 -0 200 200 200 255 0.1112213 0.2470913
-117.7725 -0 -101.5422 -0 1 -0 200 200 200 255 0.1033506 0.03995132
-80.41599 -0 -104.7949 0 1 -0 200 200 200 255 0.09064484 0.185875
15.27195 0 -106.8257 0 1 -0 200 200 200 255 0.08271217 0.5596561
83.14304 0 -107.4658 -0 1 0 200 200 200 255 0.08021164 0.8247775
-33.1167 0 -108.7271 -0 1 0 200 200 200 255 0.07528496 0.3706379
-128 -0 -109.1875 -0 1 0 200 200 200 255 0.07348633 0
65.85154 0 -104.2803 0 1 0 200 200 200 255 0.09265518 0.7572325
-11.01074 0 -109.7324 -0 1 -0 200 200 200 255 0.07135773 0.4569893
44.33226 0 -119.1309 0 1 0 200 200 200 255 0.03464508 0.6731729
100.8769 -0 -121.312 0 1 0 200 200 200 255 0.02612495 0.8940506
121.0078 -0 -115.4775 0 1 -0 200 200 200 255 0.04891586 0.9726868
-105.7917 -0 -119.5347 -0 1 -0 200 200 200 255 0.0330677 0.08675098
-120.1816 0 -114.4106 -0 1 0 200 200 200 255 0.05308342 0.03054047
-91.51952 -0 -116.2817 0 1 -0 200 200 200 255 0.04577446 0.1425019
-73.47459 -0 -119.6616 0 1 -0 200 200 200 255 0.03257179 0.2129899
-24.42285 0 -120.561 -0 1 0 200 200 200 255 0.02905846 0.4045982
63.08445 0 -120.1309 0 1 0 200 200 200 255 0.03073883 0.7464236
4.350571 0 -119.9092 -0 1 -0 200 200 200 255 0.03160477 0.5169944
-39.50391 -0 -121.0762 -0 1 -0 200 200 200 255 0.0270462 0.3456879
-58.57129 -0 -122.5967 -0 1 -0 200 200 200 255 0.02110672 0.2712059
24.32713 0 -122.8525 -0 1 -0 200 200 200 255 0.02010727 0.5950279
79.76267 0 -120.4102 -0 1 0 200 200 200 255 0.02964783 0.8115729
128 -0 -128 0 1 0 200 200 200 255 0 1
-128 0 -128 -0 1 0 200 200 200 255 0 0
-11.85938 0 -123.9688 0 1 0 200 200 200 255 0.01574707 0.4536743
-111.9375 -0 -128 0 1 -0 200 200 200 255 0 0.06274414
-92.21873 -0 -128 0 1 -0 200 200 200 255 0 0.1397706
-75.53123 -0 -128 0 1 -0 200 200 200 255 0 0.2049561
-61.62499 -0 -128 -0 1 -0 200 200 200 255 0 0.2592774
-44.1875 -0 -128 -0 1 -0 200 200 200 255 0 0.3273926
-28.875 -0 -128 -0 1 -0 200 200 200 255 0 0.387207
-15.84375 0 -128 -0 1 -0 200 200 200 255 0 0.4381104
-3.062504 0 -128 0 1 0 200 200 200 255 0 0.4880371
10.53123 0 -128 0 1 -0 200 200 200 255 0 0.5411376
24.49998 0 -128 -0 1 0 200 200 200 255 0 0.5957031
37.56248 0 -128 -0 1 0 200 200 200 255 0 0.6467285
56.0781 0 -128 -0 1 -0 200 200 200 255 0 0.7190551
80.60935 0 -128 -0 1 0 200 200 200 255 0 0.8148803
99.62498 0 -128 0 1 0 200 200 200 255 0 0.8891601
114.0312 -0 -128 0 1 0 200 200 200 255 0 0.9454346
3 0 1 2 
3 1 3 2 
3 1 4 3 
3 4 5 3 
3 4 6 5 
3 6 7 5 
3 6 8 7 
3 8 9 7 
3 8 10 9 
3 10 11 9 
3 11 12 9 
3 11 13 12 
3 13 14 12 
3 13 15 14 
3 13 16 15 
3 16 17 15 
3 17 18 15 
3 17 19 18 
3 19 20 18 
3 19 21 20 
3 21 22 20 
3 21 23 22 
3 23 24 22 
3 23 25 24 
3 25 26 24 
3 25 27 26 
3 27 28 26 
3 27 29 28 
3 29 30 28 
3 15 31 14 
3 0 2 32 
3 9 12 33 
3 20 34 18 
3 2 35 32 
3 20 22 36 
3 24 37 22 
3 2 3 38 
3 9 33 39 
3 14 31 12 
3 24 26 40 
3 28 40 26 
3 30 41 28 
3 9 39 7 
3 2 38 35 
3 3 5 38 
3 15 18 31 
3 22 37 36 
3 12 42 33 
3 28 41 43 
3 18 34 44 
3 5 7 45 
3 12 31 42 
3 24 40 37 
3 31 18 46 
3 20 36 34 
3 37 40 47 
3 38 5 45 
3 7 48 45 
3 28 49 40 
3 7 39 48 
3 42 31 50 
3 36 37 51 
3 28 43 49 
3 41 52 43 
3 32 35 53 
3 36 51 34 
3 39 33 48 
3 31 46 50 
3 18 44 46 
3 37 47 51 
3 40 54 47 
3 40 49 54 
3 38 55 35 
3 48 33 56 
3 33 42 56 
3 44 57 46 
3 35 55 53 
3 38 45 58 
3 42 50 59 
3 46 57 50 
3 44 34 60 
3 43 61 49 
3 45 48 62 
3 42 59 56 
3 34 51 60 
3 43 52 61 
3 55 38 63 
3 53 55 64 
3 38 58 63 
3 51 47 65 
3 45 62 58 
3 44 60 57 
3 51 65 60 
3 47 54 66 
3 59 67 56 
3 52 68 61 
3 48 69 62 
3 66 65 47 
3 56 70 48 
3 50 71 59 
3 58 72 63 
3 50 57 71 
3 57 73 71 
3 49 61 74 
3 55 75 64 
3 57 60 73 
3 54 49 74 
3 58 62 72 
3 65 76 60 
3 63 77 55 
3 73 60 78 
3 48 70 69 
3 56 67 70 
3 64 75 79 
3 62 69 80 
3 54 74 81 
3 55 77 75 
3 72 62 80 
3 59 71 67 
3 66 54 81 
3 65 66 76 
3 61 68 82 
3 73 83 71 
3 73 78 83 
3 60 76 78 
3 66 81 84 
3 74 61 82 
3 66 84 76 
3 70 67 85 
3 63 86 77 
3 63 72 86 
3 69 70 87 
3 83 78 88 
3 76 89 78 
3 80 90 72 
3 69 87 80 
3 70 85 87 
3 68 91 82 
3 85 67 92 
3 67 93 92 
3 67 71 93 
3 72 90 86 
3 78 89 88 
3 74 82 94 
3 75 77 95 
3 77 86 95 
3 71 83 93 
3 81 74 94 
3 75 95 79 
3 80 87 96 
3 82 97 94 
3 82 91 97 
3 79 95 98 
3 86 90 99 
3 89 76 100 
3 84 81 101 
3 90 80 99 
3 81 94 101 
3 91 102 97 
3 86 99 95 
3 87 85 96 
3 83 88 103 
3 76 104 100 
3 76 84 104 
3 85 92 105 
3 92 93 105 
3 84 101 104 
3 94 97 106 
3 80 96 107 
3 83 103 93 
3 94 106 101 
3 88 89 108 
3 80 107 99 
3 88 108 103 
3 89 100 108 
3 97 109 106 
3 97 102 109 
3 95 110 98 
3 95 99 110 
3 85 111 96 
3 98 110 112 
3 85 113 111 
3 85 105 113 
3 105 93 114 
3 103 115 93 
3 102 116 109 
3 99 117 110 
3 99 107 118 
3 93 115 114 
3 103 108 115 
3 104 119 100 
3 113 105 114 
3 106 120 101 
3 96 111 121 
3 106 109 120 
3 100 119 108 
3 104 101 122 
3 96 123 107 
3 109 116 120 
3 99 118 117 
3 96 121 123 
3 119 104 122 
3 101 124 122 
3 114 115 125 
3 108 119 126 
3 101 120 124 
3 113 127 111 
3 112 110 128 
3 107 123 118 
3 113 114 127 
3 108 129 115 
3 111 127 121 
3 108 126 129 
3 110 117 130 
3 110 130 128 
3 118 123 131 
3 121 127 132 
3 120 133 124 
3 123 121 131 
3 114 134 127 
3 119 135 126 
3 119 122 135 
3 117 136 130 
3 114 125 134 
3 115 129 137 
3 122 124 133 
3 120 116 138 
3 117 118 136 
3 121 132 131 
3 115 137 125 
3 126 135 139 
3 116 140 138 
3 130 141 128 
3 118 142 136 
3 127 143 132 
3 118 131 142 
3 127 134 143 
3 122 133 144 
3 120 138 145 
3 135 122 146 
3 130 136 141 
3 122 144 146 
3 120 145 133 
3 139 135 146 
3 128 141 147 
3 141 136 148 
3 134 149 143 
3 137 129 150 
3 129 126 151 
3 131 132 152 
3 126 139 151 
3 132 143 153 
3 125 154 134 
3 133 155 144 
3 142 156 136 
3 131 152 142 
3 125 137 154 
3 140 157 138 
3 136 156 148 
3 134 154 149 
3 133 145 155 
3 137 150 158 
3 146 144 159 
3 145 138 160 
3 138 157 160 
3 137 158 154 
3 141 148 161 
3 129 151 150 
3 139 146 162 
3 147 141 163 
3 153 152 132 
3 141 161 163 
3 151 139 164 
3 139 162 164 
3 143 149 153 
3 146 159 162 
3 144 155 159 
3 150 151 164 
3 157 165 160 
3 148 156 161 
3 142 166 156 
3 158 150 167 
3 150 164 167 
3 152 166 142 
3 155 168 159 
3 156 169 161 
3 152 153 170 
3 149 154 171 
3 154 158 172 
3 161 173 163 
3 153 149 174 
3 155 145 168 
3 163 173 175 
3 156 166 169 
3 152 170 166 
3 159 176 162 
3 160 177 145 
3 162 176 178 
3 159 168 176 
3 158 167 172 
3 160 165 179 
3 154 172 171 
3 162 178 164 
3 174 149 180 
3 145 177 168 
3 160 179 177 
3 149 171 180 
3 161 169 173 
3 166 170 181 
3 167 164 182 
3 153 174 170 
3 169 166 183 
3 164 184 182 
3 169 185 173 
3 170 174 186 
3 164 178 184 
3 169 183 185 
3 166 181 183 
3 171 172 187 
3 170 186 188 
3 175 173 189 
3 173 190 189 
3 181 170 188 
3 172 167 191 
3 168 192 176 
3 181 193 183 
3 172 191 187 
3 181 188 193 
3 178 176 184 
3 168 177 192 
3 167 182 194 
3 173 185 190 
3 174 180 186 
3 167 194 191 
3 165 195 179 
3 179 196 177 
3 179 195 196 
3 177 197 192 
3 188 186 198 
3 171 187 199 
3 183 193 185 
3 186 180 199 
3 180 171 199 
3 184 176 200 
3 190 185 201 
3 188 198 193 
3 176 192 202 
3 177 196 197 
3 194 203 191 
3 192 197 202 
3 182 204 194 
3 184 200 182 
3 191 203 187 
3 176 202 200 
3 182 200 204 
3 193 198 205 
3 199 187 206 
3 185 207 201 
3 185 193 207 
3 186 208 198 
3 187 203 206 
3 197 196 209 
3 195 210 196 
3 199 208 186 
3 194 211 203 
3 193 205 207 
3 194 204 211 
3 202 197 212 
3 189 190 213 
3 199 206 214 
3 199 214 208 
3 198 208 215 
3 197 209 212 
3 211 216 203 
3 205 198 215 
3 204 217 211 
3 190 201 218 
3 207 219 201 
3 190 218 213 
3 204 200 220 
3 214 206 221 
3 196 210 222 
3 201 223 218 
3 203 216 206 
3 200 202 224 
3 212 225 202 
3 210 226 222 
3 208 214 227 
3 196 222 209 
3 208 227 215 
3 205 228 207 
3 205 215 228 
3 213 218 229 
3 219 207 228 
3 211 230 216 
3 211 217 230 
3 212 231 225 
3 212 209 231 
3 204 220 217 
3 201 219 223 
3 206 232 221 
3 206 216 232 
3 202 225 224 
3 209 222 231 
3 218 223 233 
3 200 224 220 
3 218 233 229 
3 228 215 234 
3 220 224 235 
3 214 221 227 
3 234 215 227 
3 230 217 236 
3 223 219 233 
3 216 230 232 
3 217 220 236 
3 225 235 224 
3 232 237 221 
3 222 238 231 
3 229 233 239 
3 227 221 237 
3 230 236 232 
3 225 231 240 
3 226 241 222 
3 219 242 233 
3 225 240 235 
3 220 235 243 
3 231 244 240 
3 236 220 245 
3 231 238 244 
3 222 241 238 
3 234 246 247 
3 234 227 246 
3 220 243 245 
3 233 242 248 
3 219 228 249 
3 234 247 228 
3 232 236 250 
3 219 249 242 
3 233 248 239 
3 228 247 249 
3 235 240 251 
3 227 252 246 
3 227 237 252 
3 239 248 253 
3 235 254 243 
3 232 255 237 
3 240 244 251 
3 237 255 252 
3 235 251 254 
3 232 250 255 
3 236 245 250 
3 245 243 256 
3 244 257 251 
3 238 258 244 
3 238 241 258 
3 242 259 248 
3 248 260 253 
3 248 259 260 
3 242 249 261 
3 249 247 262 
3 255 263 252 
3 251 264 254 
3 242 261 259 
3 247 246 262 
3 243 254 264 
3 255 250 265 
3 243 264 256 
3 246 252 266 
3 246 267 262 
3 245 256 268 
3 251 269 264 
3 241 270 258 
3 249 262 261 
3 252 263 266 
3 250 245 268 
3 251 257 269 
3 260 271 253 
3 246 266 267 
3 255 265 272 
3 244 258 257 
3 255 272 263 
3 265 250 268 
3 260 259 271 
3 271 259 273 
3 259 261 273 
3 261 274 273 
3 261 262 274 
3 262 275 274 
3 262 267 275 
3 267 276 275 
3 267 277 276 
3 267 266 277 
3 266 278 277 
3 266 263 278 
3 263 279 278 
3 263 272 279 
3 272 280 279 
3 272 265 280 
3 265 281 280 
3 265 268 281 
3 268 282 281 
3 268 283 282 
3 268 256 283 
3 256 284 283 
3 256 264 284 
3 264 285 284 
3 264 269 285 
3 269 257 285 
3 257 286 285 
3 257 287 286 
3 257 258 287 
3 258 270 287 
