ply
format ascii 1.0
comment VCGLIB generated
comment TextureFile Dungeons_2_Texture_01_A.png
element vertex 171
property float x
property float y
property float z
property float nx
property float ny
property float nz
property uchar red
property uchar green
property uchar blue
property uchar alpha
property float texture_u
property float texture_v
element face 57
property list uchar int vertex_indices
end_header
31.4507 47.3858 17.092 -0.52935 0.774011 -0.347414 255 255 255 255 0.307702 0.352854
27.2429 41.5848 10.5793 -0.52935 0.774011 -0.347414 255 255 255 255 0.307613 0.352928
25.2361 41.3038 13.0109 -0.52935 0.774011 -0.347414 255 255 255 255 0.307645 0.352913
25.2361 41.3038 13.0109 -0.70764 0.567999 -0.420266 255 255 255 255 0.307645 0.352913
16.1895 21.3567 1.28454 -0.70764 0.567999 -0.420266 255 255 255 255 0.307543 0.353196
14.1226 21.1359 4.46637 -0.70764 0.567999 -0.420266 255 255 255 255 0.307585 0.353177
18.3237 21.4717 5.02435 0.900046 -0.316345 -0.299738 255 255 255 255 0.307598 0.353232
27.2429 41.5848 10.5793 0.900046 -0.316345 -0.299738 255 255 255 255 0.307613 0.352928
31.4507 47.3858 17.092 0.900046 -0.316345 -0.299738 255 255 255 255 0.307702 0.352854
18.3237 21.4717 5.02435 -0.096727 -0.34261 0.934485 255 255 255 255 0.307598 0.353232
25.2361 41.3038 13.0109 -0.096727 -0.34261 0.934485 255 255 255 255 0.307645 0.352913
14.1226 21.1359 4.46637 -0.096727 -0.34261 0.934485 255 255 255 255 0.307585 0.353177
18.4017 -26.8333 0.834965 0.867078 0.044433 -0.496187 255 255 255 255 0.30751 0.353851
16.1895 21.3567 1.28454 0.867078 0.044433 -0.496187 255 255 255 255 0.307543 0.353196
18.3237 21.4717 5.02435 0.867078 0.044433 -0.496187 255 255 255 255 0.307598 0.353232
16.1895 21.3567 1.28454 -0.831949 0.168138 -0.528763 255 255 255 255 0.307543 0.353196
9.82202 -26.9763 -4.0661 -0.831949 0.168138 -0.528763 255 255 255 255 0.307465 0.353824
14.1226 21.1359 4.46637 -0.831949 0.168138 -0.528763 255 255 255 255 0.307585 0.353177
18.4017 -26.8333 0.834965 -0.491674 -0.109259 0.863898 255 255 255 255 0.30751 0.353851
14.1226 21.1359 4.46637 -0.491674 -0.109259 0.863898 255 255 255 255 0.307585 0.353177
9.82202 -26.9763 -4.0661 -0.491674 -0.109259 0.863898 255 255 255 255 0.307465 0.353824
-31.4507 81.0059 -2.27736 0.686757 0.724741 0.055818 255 255 255 255 0.307702 0.352854
-22.5695 72.4369 -0.287182 0.686757 0.724741 0.055818 255 255 255 255 0.307613 0.352928
-22.3374 72.4543 -3.36811 0.686757 0.724741 0.055818 255 255 255 255 0.307645 0.352913
-22.3374 72.4543 -3.36811 0.905601 0.415744 -0.083924 255 255 255 255 0.307645 0.352913
-10.1259 46.3094 -1.11335 0.905601 0.415744 -0.083924 255 255 255 255 0.307543 0.353196
-10.5033 46.3672 -4.90022 0.905601 0.415744 -0.083924 255 255 255 255 0.307585 0.353177
-14.4012 44.9117 -2.80811 -0.393047 -0.19886 0.897758 255 255 255 255 0.307598 0.353232
-22.5695 72.4369 -0.287182 -0.393047 -0.19886 0.897758 255 255 255 255 0.307613 0.352928
-31.4507 81.0059 -2.27736 -0.393047 -0.19886 0.897758 255 255 255 255 0.307702 0.352854
-14.4012 44.9117 -2.80811 -0.426749 -0.141127 -0.893291 255 255 255 255 0.307598 0.353232
-22.3374 72.4543 -3.36811 -0.426749 -0.141127 -0.893291 255 255 255 255 0.307645 0.352913
-10.5033 46.3672 -4.90022 -0.426749 -0.141127 -0.893291 255 255 255 255 0.307585 0.353177
-1.12921 -26.9892 2.52631 -0.849873 -0.118785 0.513426 255 255 255 255 0.307449 0.353855
-14.4012 44.9117 -2.80811 -0.849873 -0.118785 0.513426 255 255 255 255 0.307598 0.353232
-6.24475 -26.8162 -5.90142 -0.849873 -0.118785 0.513426 255 255 255 255 0.30751 0.353851
-10.5033 46.3672 -4.90022 0.800313 0.16075 0.577632 255 255 255 255 0.307585 0.353177
-1.12921 -26.9892 2.52631 0.800313 0.16075 0.577632 255 255 255 255 0.307449 0.353855
3.52148 -27.0897 -3.88928 0.800313 0.16075 0.577632 255 255 255 255 0.307465 0.353824
3.52148 -27.0897 -3.88928 -0.442407 -0.096737 -0.891582 255 255 255 255 0.307465 0.353824
-14.4012 44.9117 -2.80811 -0.442407 -0.096737 -0.891582 255 255 255 255 0.307598 0.353232
-10.5033 46.3672 -4.90022 -0.442407 -0.096737 -0.891582 255 255 255 255 0.307585 0.353177
18.2594 43.9691 -27.9406 -0.021862 0.577056 0.816412 255 255 255 255 0.307653 0.352898
13.697 21.2934 -12.0352 -0.021862 0.577056 0.816412 255 255 255 255 0.307543 0.353196
17.4848 21.112 -11.8055 -0.021862 0.577056 0.816412 255 255 255 255 0.307585 0.353177
15.8624 21.4267 -15.7338 -0.84574 -0.181738 -0.501691 255 255 255 255 0.307598 0.353232
13.697 21.2934 -12.0352 -0.84574 -0.181738 -0.501691 255 255 255 255 0.307543 0.353196
18.2594 43.9691 -27.9406 -0.84574 -0.181738 -0.501691 255 255 255 255 0.307653 0.352898
17.4848 21.112 -11.8055 0.872663 -0.301008 -0.384517 255 255 255 255 0.307585 0.353177
15.8624 21.4267 -15.7338 0.872663 -0.301008 -0.384517 255 255 255 255 0.307598 0.353232
18.2594 43.9691 -27.9406 0.872663 -0.301008 -0.384517 255 255 255 255 0.307653 0.352898
12.1766 -26.8333 -13.7123 -0.862817 0.044805 -0.503527 255 255 255 255 0.30751 0.353851
13.697 21.2934 -12.0352 -0.862817 0.044805 -0.503527 255 255 255 255 0.307543 0.353196
15.8624 21.4267 -15.7338 -0.862817 0.044805 -0.503527 255 255 255 255 0.307598 0.353232
13.697 21.2934 -12.0352 -0.051601 0.16874 0.984309 255 255 255 255 0.307543 0.353196
12.3184 -26.9763 -3.83258 -0.051601 0.16874 0.984309 255 255 255 255 0.307465 0.353824
17.4848 21.112 -11.8055 -0.051601 0.16874 0.984309 255 255 255 255 0.307585 0.353177
12.1766 -26.8333 -13.7123 0.993871 -0.109404 -0.015841 255 255 255 255 0.30751 0.353851
17.4848 21.112 -11.8055 0.993871 -0.109404 -0.015841 255 255 255 255 0.307585 0.353177
12.3184 -26.9763 -3.83258 0.993871 -0.109404 -0.015841 255 255 255 255 0.307465 0.353824
9.08069 75.8999 28.7773 -0.064483 0.476384 -0.87687 255 255 255 255 0.307653 0.352898
6.79761 46.4074 12.9225 -0.064483 0.476384 -0.87687 255 255 255 255 0.307543 0.353196
2.97974 46.3915 13.1946 -0.064483 0.476384 -0.87687 255 255 255 255 0.307585 0.353177
5.03986 45.0105 17.1366 0.922164 -0.236095 0.306386 255 255 255 255 0.307598 0.353232
6.79761 46.4074 12.9225 0.922164 -0.236095 0.306386 255 255 255 255 0.307543 0.353196
9.08069 75.8999 28.7773 0.922164 -0.236095 0.306386 255 255 255 255 0.307653 0.352898
2.97974 46.3915 13.1946 -0.892443 -0.052135 0.448138 255 255 255 255 0.307585 0.353177
5.03986 45.0105 17.1366 -0.892443 -0.052135 0.448138 255 255 255 255 0.307598 0.353232
9.08069 75.8999 28.7773 -0.892443 -0.052135 0.448138 255 255 255 255 0.307653 0.352898
10.476 -26.9891 3.95832 0.508415 -0.117745 0.853024 255 255 255 255 0.307449 0.353855
5.03986 45.0105 17.1366 0.508415 -0.117745 0.853024 255 255 255 255 0.307598 0.353232
2.01782 -26.8164 9.02332 0.508415 -0.117745 0.853024 255 255 255 255 0.30751 0.353851
2.97974 46.3915 13.1946 0.582514 0.159818 -0.796954 255 255 255 255 0.307585 0.353177
10.476 -26.9891 3.95832 0.582514 0.159818 -0.796954 255 255 255 255 0.307449 0.353855
4.08838 -27.0895 -0.730648 0.582514 0.159818 -0.796954 255 255 255 255 0.307465 0.353824
4.08838 -27.0895 -0.730648 -0.895576 -0.095846 0.434462 255 255 255 255 0.307465 0.353824
5.03986 45.0105 17.1366 -0.895576 -0.095846 0.434462 255 255 255 255 0.307598 0.353232
2.97974 46.3915 13.1946 -0.895576 -0.095846 0.434462 255 255 255 255 0.307585 0.353177
-7.79553 30.2355 -28.7773 0.284988 0.852835 0.437555 255 255 255 255 0.307702 0.352854
-5.84485 25.9538 -21.7025 0.284988 0.852835 0.437555 255 255 255 255 0.307613 0.352928
-3.27564 25.8226 -23.1202 0.284988 0.852835 0.437555 255 255 255 255 0.307645 0.352913
-3.27564 25.8226 -23.1202 0.42487 0.69992 0.574107 255 255 255 255 0.307645 0.352913
2.27002 11.7792 -10.1032 0.42487 0.69992 0.574107 255 255 255 255 0.307543 0.353196
5.09851 11.7408 -12.1497 0.42487 0.69992 0.574107 255 255 255 255 0.307585 0.353177
1.64648 11.937 -14.0563 -0.865883 -0.496427 -0.061693 255 255 255 255 0.307598 0.353232
-5.84485 25.9538 -21.7025 -0.865883 -0.496427 -0.061693 255 255 255 255 0.307613 0.352928
-7.79553 30.2355 -28.7773 -0.865883 -0.496427 -0.061693 255 255 255 255 0.307702 0.352854
1.64648 11.937 -14.0563 0.430189 -0.381552 -0.818141 255 255 255 255 0.307598 0.353232
-3.27564 25.8226 -23.1202 0.430189 -0.381552 -0.818141 255 255 255 255 0.307645 0.352913
5.09851 11.7408 -12.1497 0.430189 -0.381552 -0.818141 255 255 255 255 0.307585 0.353177
2.54004 -26.8057 -10.7278 -0.987801 -0.009429 0.155434 255 255 255 255 0.30751 0.353851
2.27002 11.7792 -10.1032 -0.987801 -0.009429 0.155434 255 255 255 255 0.307543 0.353196
1.64648 11.937 -14.0563 -0.987801 -0.009429 0.155434 255 255 255 255 0.307598 0.353232
2.27002 11.7792 -10.1032 0.573673 0.220812 0.788759 255 255 255 255 0.307543 0.353196
8.24243 -27.0564 -3.57507 0.573673 0.220812 0.788759 255 255 255 255 0.307465 0.353824
5.09851 11.7408 -12.1497 0.573673 0.220812 0.788759 255 255 255 255 0.307585 0.353177
2.54004 -26.8057 -10.7278 0.778463 -0.074659 -0.623235 255 255 255 255 0.30751 0.353851
5.09851 11.7408 -12.1497 0.778463 -0.074659 -0.623235 255 255 255 255 0.307585 0.353177
8.24243 -27.0564 -3.57507 0.778463 -0.074659 -0.623235 255 255 255 255 0.307465 0.353824
25.2361 41.3038 13.0109 -0.659903 0.580041 -0.477577 255 255 255 255 0.307645 0.352913
27.2429 41.5848 10.5793 -0.659903 0.580041 -0.477577 255 255 255 255 0.307613 0.352928
16.1895 21.3567 1.28454 -0.659903 0.580041 -0.477577 255 255 255 255 0.307543 0.353196
18.3237 21.4717 5.02435 0.845536 -0.24376 -0.475026 255 255 255 255 0.307598 0.353232
16.1895 21.3567 1.28454 0.845536 -0.24376 -0.475026 255 255 255 255 0.307543 0.353196
27.2429 41.5848 10.5793 0.845536 -0.24376 -0.475026 255 255 255 255 0.307613 0.352928
18.3237 21.4717 5.02435 -0.359579 -0.238012 0.902249 255 255 255 255 0.307598 0.353232
31.4507 47.3858 17.092 -0.359579 -0.238012 0.902249 255 255 255 255 0.307702 0.352854
25.2361 41.3038 13.0109 -0.359579 -0.238012 0.902249 255 255 255 255 0.307645 0.352913
18.4017 -26.8333 0.834965 0.973059 0.046776 -0.22576 255 255 255 255 0.30751 0.353851
16.1992 -27.1491 -8.72338 0.973059 0.046776 -0.22576 255 255 255 255 0.307449 0.353855
16.1895 21.3567 1.28454 0.973059 0.046776 -0.22576 255 255 255 255 0.307543 0.353196
16.1895 21.3567 1.28454 -0.578807 0.164668 -0.798666 255 255 255 255 0.307543 0.353196
16.1992 -27.1491 -8.72338 -0.578807 0.164668 -0.798666 255 255 255 255 0.307449 0.353855
9.82202 -26.9763 -4.0661 -0.578807 0.164668 -0.798666 255 255 255 255 0.307465 0.353824
18.4017 -26.8333 0.834965 -0.124421 -0.085931 0.988501 255 255 255 255 0.30751 0.353851
18.3237 21.4717 5.02435 -0.124421 -0.085931 0.988501 255 255 255 255 0.307598 0.353232
14.1226 21.1359 4.46637 -0.124421 -0.085931 0.988501 255 255 255 255 0.307585 0.353177
-22.3374 72.4543 -3.36811 0.901461 0.427112 0.070309 255 255 255 255 0.307645 0.352913
-22.5695 72.4369 -0.287182 0.901461 0.427112 0.070309 255 255 255 255 0.307613 0.352928
-10.1259 46.3094 -1.11335 0.901461 0.427112 0.070309 255 255 255 255 0.307543 0.353196
-14.4012 44.9117 -2.80811 -0.311778 -0.178002 0.933333 255 255 255 255 0.307598 0.353232
-10.1259 46.3094 -1.11335 -0.311778 -0.178002 0.933333 255 255 255 255 0.307543 0.353196
-22.5695 72.4369 -0.287182 -0.311778 -0.178002 0.933333 255 255 255 255 0.307613 0.352928
-14.4012 44.9117 -2.80811 -0.186337 -0.073611 -0.979724 255 255 255 255 0.307598 0.353232
-31.4507 81.0059 -2.27736 -0.186337 -0.073611 -0.979724 255 255 255 255 0.307702 0.352854
-22.3374 72.4543 -3.36811 -0.186337 -0.073611 -0.979724 255 255 255 255 0.307645 0.352913
-1.12921 -26.9892 2.52631 -0.368756 0.000895 0.929526 255 255 255 255 0.307449 0.353855
-10.1259 46.3094 -1.11335 -0.368756 0.000895 0.929526 255 255 255 255 0.307543 0.353196
-14.4012 44.9117 -2.80811 -0.368756 0.000895 0.929526 255 255 255 255 0.307598 0.353232
-10.5033 46.3672 -4.90022 0.988465 0.11652 -0.096745 255 255 255 255 0.307585 0.353177
-10.1259 46.3094 -1.11335 0.988465 0.11652 -0.096745 255 255 255 255 0.307543 0.353196
-1.12921 -26.9892 2.52631 0.988465 0.11652 -0.096745 255 255 255 255 0.307449 0.353855
3.52148 -27.0897 -3.88928 0.203115 0.06523 -0.97698 255 255 255 255 0.307465 0.353824
-6.24475 -26.8162 -5.90142 0.203115 0.06523 -0.97698 255 255 255 255 0.30751 0.353851
-14.4012 44.9117 -2.80811 0.203115 0.06523 -0.97698 255 255 255 255 0.307598 0.353232
12.1766 -26.8333 -13.7123 -0.689125 0.04697 -0.723119 255 255 255 255 0.30751 0.353851
5.06561 -27.1491 -6.95611 -0.689125 0.04697 -0.723119 255 255 255 255 0.307449 0.353855
13.697 21.2934 -12.0352 -0.689125 0.04697 -0.723119 255 255 255 255 0.307543 0.353196
13.697 21.2934 -12.0352 -0.393441 0.16493 0.904435 255 255 255 255 0.307543 0.353196
5.06561 -27.1491 -6.95611 -0.393441 0.16493 0.904435 255 255 255 255 0.307449 0.353855
12.3184 -26.9763 -3.83258 -0.393441 0.16493 0.904435 255 255 255 255 0.307465 0.353824
12.1766 -26.8333 -13.7123 0.91837 -0.086316 -0.386194 255 255 255 255 0.30751 0.353851
15.8624 21.4267 -15.7338 0.91837 -0.086316 -0.386194 255 255 255 255 0.307598 0.353232
17.4848 21.112 -11.8055 0.91837 -0.086316 -0.386194 255 255 255 255 0.307585 0.353177
10.476 -26.9891 3.95832 0.923016 -0.000735 0.384762 255 255 255 255 0.307449 0.353855
6.79761 46.4074 12.9225 0.923016 -0.000735 0.384762 255 255 255 255 0.307543 0.353196
5.03986 45.0105 17.1366 0.923016 -0.000735 0.384762 255 255 255 255 0.307598 0.353232
2.97974 46.3915 13.1946 -0.071085 0.117416 -0.990535 255 255 255 255 0.307585 0.353177
6.79761 46.4074 12.9225 -0.071085 0.117416 -0.990535 255 255 255 255 0.307543 0.353196
10.476 -26.9891 3.95832 -0.071085 0.117416 -0.990535 255 255 255 255 0.307449 0.353855
4.08838 -27.0895 -0.730648 -0.975787 0.064657 -0.208949 255 255 255 255 0.307465 0.353824
2.01782 -26.8164 9.02332 -0.975787 0.064657 -0.208949 255 255 255 255 0.30751 0.353851
5.03986 45.0105 17.1366 -0.975787 0.064657 -0.208949 255 255 255 255 0.307598 0.353232
-3.27564 25.8226 -23.1202 0.369467 0.705969 0.604237 255 255 255 255 0.307645 0.352913
-5.84485 25.9538 -21.7025 0.369467 0.705969 0.604237 255 255 255 255 0.307613 0.352928
2.27002 11.7792 -10.1032 0.369467 0.705969 0.604237 255 255 255 255 0.307543 0.353196
1.64648 11.937 -14.0563 -0.901829 -0.41339 0.125747 255 255 255 255 0.307598 0.353232
2.27002 11.7792 -10.1032 -0.901829 -0.41339 0.125747 255 255 255 255 0.307543 0.353196
-5.84485 25.9538 -21.7025 -0.901829 -0.41339 0.125747 255 255 255 255 0.307613 0.352928
1.64648 11.937 -14.0563 0.666819 -0.226964 -0.709817 255 255 255 255 0.307598 0.353232
-7.79553 30.2355 -28.7773 0.666819 -0.226964 -0.709817 255 255 255 255 0.307702 0.352854
-3.27564 25.8226 -23.1202 0.666819 -0.226964 -0.709817 255 255 255 255 0.307645 0.352913
2.54004 -26.8057 -10.7278 -0.988609 -0.004483 -0.15044 255 255 255 255 0.30751 0.353851
1.1665 -27.1361 -1.69183 -0.988609 -0.004483 -0.15044 255 255 255 255 0.307449 0.353855
2.27002 11.7792 -10.1032 -0.988609 -0.004483 -0.15044 255 255 255 255 0.307543 0.353196
2.27002 11.7792 -10.1032 0.250034 0.197778 0.947822 255 255 255 255 0.307543 0.353196
1.1665 -27.1361 -1.69183 0.250034 0.197778 0.947822 255 255 255 255 0.307449 0.353855
8.24243 -27.0564 -3.57507 0.250034 0.197778 0.947822 255 255 255 255 0.307465 0.353824
2.54004 -26.8057 -10.7278 0.479686 -0.064118 -0.875094 255 255 255 255 0.30751 0.353851
1.64648 11.937 -14.0563 0.479686 -0.064118 -0.875094 255 255 255 255 0.307598 0.353232
5.09851 11.7408 -12.1497 0.479686 -0.064118 -0.875094 255 255 255 255 0.307585 0.353177
3 0 1 2 
3 3 4 5 
3 6 7 8 
3 9 10 11 
3 12 13 14 
3 15 16 17 
3 18 19 20 
3 21 22 23 
3 24 25 26 
3 27 28 29 
3 30 31 32 
3 33 34 35 
3 36 37 38 
3 39 40 41 
3 42 43 44 
3 45 46 47 
3 48 49 50 
3 51 52 53 
3 54 55 56 
3 57 58 59 
3 60 61 62 
3 63 64 65 
3 66 67 68 
3 69 70 71 
3 72 73 74 
3 75 76 77 
3 78 79 80 
3 81 82 83 
3 84 85 86 
3 87 88 89 
3 90 91 92 
3 93 94 95 
3 96 97 98 
3 99 100 101 
3 102 103 104 
3 105 106 107 
3 108 109 110 
3 111 112 113 
3 114 115 116 
3 117 118 119 
3 120 121 122 
3 123 124 125 
3 126 127 128 
3 129 130 131 
3 132 133 134 
3 135 136 137 
3 138 139 140 
3 141 142 143 
3 144 145 146 
3 147 148 149 
3 150 151 152 
3 153 154 155 
3 156 157 158 
3 159 160 161 
3 162 163 164 
3 165 166 167 
3 168 169 170 
