ply
format ascii 1.0
comment VCGLIB generated
comment TextureFile Dungeons_2_Texture_01_A.png
element vertex 129
property float x
property float y
property float z
property float nx
property float ny
property float nz
property uchar red
property uchar green
property uchar blue
property uchar alpha
property float texture_u
property float texture_v
element face 254
property list uchar int vertex_indices
end_header
6.1e-05 250.217 -500.0122 -0.6666667 0.6666667 -0.3333333 192 192 192 255 0.004229 0.75205
6.1e-05 125.1085 -218.7554 -0.9999958 0.002046166 0.002046166 192 192 192 255 0.129111 0.75205
6.1e-05 125.1085 -250.0061 -0.1430461 0.9897161 0.0001688787 192 192 192 255 0.11776 0.75205
6.1e-05 109.4699 -218.7554 -0.1119604 0.9937127 0.0002283894 192 192 192 255 0.131951 0.75205
6.1e-05 109.4699 -187.5046 -0.9999958 0.002046164 0.002046164 192 192 192 255 0.143302 0.75205
6.1e-05 93.83138 -187.5046 -0.1646757 0.0005044001 0.9863477 192 192 192 255 0.146143 0.75205
6.1e-05 93.83138 -156.2538 -0.9999833 0.004092277 0.004092277 192 192 192 255 0.157493 0.75205
6.1e-05 78.19282 -156.2538 -0.4429176 0.8965623 0.0002614509 192 192 192 255 0.160334 0.75205
6.1e-05 78.19282 -125.0031 -0.9999958 0.002046166 0.002046166 192 192 192 255 0.171685 0.75205
6.1e-05 62.55425 -125.0031 -0.1807562 0.8795007 0.4402337 192 192 192 255 0.174525 0.75205
6.1e-05 62.55425 -93.75229 -0.9999896 0.004092304 0.002046152 192 192 192 255 0.185876 0.75205
6.1e-05 46.91568 -93.75229 -0.277588 0.0004912841 0.9607001 192 192 192 255 0.188717 0.75205
6.1e-05 46.91568 -62.50152 -0.9999896 0.004092305 0.002046152 192 192 192 255 0.200067 0.75205
6.1e-05 31.27712 -62.50152 -0.07444668 0.8917491 0.4463646 192 192 192 255 0.202908 0.75205
6.1e-05 31.27712 -31.25075 -0.3557768 0.001455962 0.9345699 192 192 192 255 0.214259 0.75205
6.1e-05 15.63856 -31.25075 -0.4785128 0.7995483 0.3629711 192 192 192 255 0.217099 0.75205
6.1e-05 15.63856 2e-06 -0.9999993 0.0008303163 0.0008303163 192 192 192 255 0.22845 0.75205
6.1e-05 250.217 -468.7614 -0.4082483 0.4082483 0.8164966 192 192 192 255 0.01558 0.75205
6.1e-05 234.5784 -468.7614 -0.0419183 0.9991211 8.524906e-05 192 192 192 255 0.018421 0.75205
6.1e-05 234.5784 -437.5107 -0.9999896 0.004092317 0.002046158 192 192 192 255 0.029771 0.75205
6.1e-05 218.9399 -437.5107 -0.1646759 0.0001681337 0.9863477 192 192 192 255 0.032612 0.75205
6.1e-05 218.9399 -406.2599 -0.9999896 0.004092293 0.002046146 192 192 192 255 0.043963 0.75205
6.1e-05 203.3013 -406.2599 -0.08327188 0.9965269 0.0001700407 192 192 192 255 0.046803 0.75205
6.1e-05 203.3013 -375.0092 -0.9999896 0.002046156 0.004092313 192 192 192 255 0.058154 0.75205
6.1e-05 187.6628 -375.0092 -0.2973685 0.9547628 0.0003036126 192 192 192 255 0.060995 0.75205
6.1e-05 187.6628 -343.7584 -0.1536632 0.9881232 0.0003144212 192 192 192 255 0.072345 0.75205
6.1e-05 172.0242 -343.7584 -0.2419944 0.0004941511 0.9702775 192 192 192 255 0.075186 0.75205
6.1e-05 172.0242 -312.5076 -0.9999958 0.002046165 0.002046165 192 192 192 255 0.086537 0.75205
6.1e-05 156.3857 -312.5076 -0.164676 0.0001681337 0.9863477 192 192 192 255 0.089377 0.75205
6.1e-05 156.3857 -281.2569 -0.9999896 0.004092301 0.00204615 192 192 192 255 0.100728 0.75205
6.1e-05 140.7471 -281.2569 -0.9999992 0.0005902938 0.001180588 192 192 192 255 0.103569 0.75205
6.1e-05 140.7471 -250.0061 -0.9999896 0.004092311 0.002046155 192 192 192 255 0.114919 0.75205
6.1e-05 -22.90001 2e-06 -0.009456966 -0.8956891 -0.4445804 192 192 192 255 0.23545 0.75205
6.1e-05 227.317 -500.0122 -0.001296015 -0.8942741 -0.4475179 192 192 192 255 0.008389 0.75205
500 250.217 -500.0122 0.6666664 0.3333332 -0.666667 192 192 192 255 0.004229 0.984948
500 125.1085 -218.7554 0.3159568 0.0006465028 0.9487734 192 192 192 255 0.129111 0.984948
500 125.1085 -250.0061 0.1430462 0.9897161 8.421633e-05 192 192 192 255 0.11776 0.984948
500 109.4699 -218.7554 0.5549889 0.0005660595 0.8318576 192 192 192 255 0.131951 0.984948
500.0001 109.4699 -187.5046 0.9999896 0.004092301 0.002044197 192 192 192 255 0.143302 0.984948
500.0001 93.83138 -187.5046 0.1646757 0.0005043971 0.9863477 192 192 192 255 0.146143 0.984948
500.0001 93.83138 -156.2538 0.9999958 0.002046164 0.002046165 192 192 192 255 0.157493 0.984948
500.0001 78.19282 -156.2538 0.4911596 0.0005814966 0.8710694 192 192 192 255 0.160334 0.984948
500 78.19282 -125.0031 0.9999958 0.002046165 0.002048118 192 192 192 255 0.171685 0.984948
500 62.55425 -125.0031 0.1807443 0.8795177 0.4402048 192 192 192 255 0.174525 0.984948
500 62.55425 -93.75229 0.9999958 0.002046165 0.002045188 192 192 192 255 0.185876 0.984948
500 46.91568 -93.75229 0.2775882 0.0004908163 0.9607001 192 192 192 255 0.188717 0.984948
500 46.91568 -62.50153 0.9999958 0.002046166 0.002047142 192 192 192 255 0.200067 0.984948
500 31.27712 -62.50153 0.07444163 0.8917646 0.4463343 192 192 192 255 0.202908 0.984948
500 31.27712 -31.25076 0.9999958 0.002046164 0.002045188 192 192 192 255 0.214259 0.984948
500 15.63856 -31.25076 0.1872832 0.9823059 0.0002209206 192 192 192 255 0.217099 0.984948
500 15.63856 0 0.9999993 0.0008303162 0.0008303162 192 192 192 255 0.22845 0.984948
500 250.217 -468.7614 0.4082484 0.8164967 0.408248 192 192 192 255 0.01558 0.984948
500 234.5784 -468.7614 0.04191473 0.9991212 0.0001704834 192 192 192 255 0.018421 0.984948
500 234.5784 -437.5107 0.9999958 0.002046174 0.002046171 192 192 192 255 0.029771 0.984948
500 218.9399 -437.5107 0.1646759 0.0003362675 0.9863477 192 192 192 255 0.032612 0.984948
500 218.9399 -406.2599 0.9999896 0.002046146 0.004092293 192 192 192 255 0.043963 0.984948
500 203.3013 -406.2599 0.2426858 0.970105 1.17879e-07 192 192 192 255 0.046803 0.984948
500 203.3013 -375.0092 0.1238652 0.992299 0.0002535712 192 192 192 255 0.058154 0.984948
500 187.6628 -375.0092 0.1014623 0.8886559 0.4472093 192 192 192 255 0.060995 0.984948
500 187.6628 -343.7584 0.05689204 0.9983803 0.0002328217 192 192 192 255 0.072345 0.984948
500 172.0242 -343.7584 0.2974332 0.9547426 0.0003035335 192 192 192 255 0.075186 0.984948
500 172.0242 -312.5076 0.1536987 0.9881177 0.0003143441 192 192 192 255 0.086537 0.984948
500 156.3857 -312.5076 0.164676 0.0003362683 0.9863477 192 192 192 255 0.089377 0.984948
500 156.3857 -281.2569 0.9999896 0.00204615 0.004092301 192 192 192 255 0.100728 0.984948
500 140.7471 -281.2569 0.9999992 0.001176086 0.0005887349 192 192 192 255 0.103569 0.984948
500 140.7471 -250.0061 0.9999896 0.002046155 0.004093288 192 192 192 255 0.114919 0.984948
500 -22.90001 0 0.004720987 -0.8942685 -0.4475061 192 192 192 255 0.23545 0.984948
500 227.317 -500.0122 0.002592024 -0.8942718 -0.4475168 192 192 192 255 0.008389 0.984948
120.757 15.63856 -31.25076 -6.431589e-09 0.9965889 0.08252618 192 192 192 255 0.217099 0.808298
500 203.3013 -406.2599 0 1 7.064243e-05 192 192 192 255 0.046803 0.984948
132.1062 187.6628 -375.0092 0 0.0003641226 0.9999999 192 192 192 255 0.060995 0.813584
334.6464 172.0242 -343.7584 0 0.3944513 0.9189169 192 192 192 255 0.075186 0.907927
371.1873 109.4699 -218.7554 9.598746e-12 0.9944208 0.105486 192 192 192 255 0.131951 0.924947
146.2229 78.19282 -156.2538 1.715585e-08 0.7684368 0.6399257 192 192 192 255 0.160334 0.82016
167.0105 46.91568 -62.50153 0.07745921 0.9093226 0.4088183 192 192 192 255 0.200067 0.829843
82.09093 31.27712 -31.25076 0.02263842 0.1755489 0.9842104 192 192 192 255 0.214259 0.790288
239.1249 15.63856 0 0.02716865 0.9904535 0.1351433 192 192 192 255 0.22845 0.863433
40.97757 234.5784 -437.5107 0.05288104 0.9192157 0.3901874 192 192 192 255 0.029771 0.771137
249.7179 203.3013 -375.0092 0.02001283 0.2356235 0.9716384 192 192 192 255 0.058154 0.868367
100.5633 187.6628 -343.7584 0.0080388 0.9993721 0.03450877 192 192 192 255 0.072345 0.798892
274.4611 172.0242 -312.5076 0.01005497 0.994064 0.108331 192 192 192 255 0.086537 0.879893
281.1584 125.1085 -218.7554 0.01826809 0.4347958 0.9003438 192 192 192 255 0.129111 0.883012
160.0418 109.4699 -187.5046 0.03687629 0.8970343 0.4404197 192 192 192 255 0.143302 0.826597
282.6979 93.83138 -156.2538 0.02618652 0.1994375 0.9795606 192 192 192 255 0.157493 0.883729
71.36058 78.19282 -125.0031 0.1251499 0.7948401 0.5937733 192 192 192 255 0.171685 0.785289
67.04744 62.55425 -93.75229 0.03339319 0.9368451 0.3481469 192 192 192 255 0.185876 0.78328
207.0909 31.27712 -31.25075 -0.01737834 0.4225695 0.9061639 192 192 192 255 0.214259 0.848512
364.1249 15.63856 0 -0.08884149 0.1451675 0.9854104 192 192 192 255 0.22845 0.921658
165.9776 234.5784 -437.5107 -0.05838766 0.8575892 0.5110105 192 192 192 255 0.029771 0.829362
374.7178 203.3013 -375.0092 -0.004380188 0.9996408 0.02644334 192 192 192 255 0.058154 0.926592
225.5632 187.6628 -343.7584 -0.003388201 0.9872703 0.1590154 192 192 192 255 0.072345 0.857116
399.461 172.0242 -312.5076 -0.009397535 0.998688 0.05033922 192 192 192 255 0.086537 0.938117
406.1584 125.1085 -218.7554 -0.01940642 0.1611198 0.986744 192 192 192 255 0.129111 0.941237
285.0418 109.4699 -187.5046 -0.01590482 0.9976531 0.06659958 192 192 192 255 0.143302 0.884821
407.6979 93.83138 -156.2538 -0.09788814 0.9705546 0.2200946 192 192 192 255 0.157493 0.941954
196.3606 78.19282 -125.0031 -0.009611133 0.9939477 0.1094331 192 192 192 255 0.171685 0.843514
192.0475 62.55425 -93.75229 -0.1418907 0.5697601 0.8094693 192 192 192 255 0.185876 0.841505
292.0105 46.91568 -62.50153 -0.04717121 0.9590008 0.2794501 192 192 192 255 0.200067 0.888067
93.13051 31.27712 -39.06345 -2.251352e-09 0.9992603 0.03845642 192 192 192 255 0.211421 0.79543
112.2802 27.36748 -31.25076 -6.206976e-08 0.5125884 0.8586345 192 192 192 255 0.214969 0.80435
277.7624 15.63856 -7.812683 0 0.9921083 0.1253838 192 192 192 255 0.225612 0.88143
353.2654 8.835915 0 -0.05306735 0.4386564 0.8970867 192 192 192 255 0.229686 0.916599
98.11258 234.5784 -445.3234 9.305597e-09 0.9992603 0.03845643 192 192 192 255 0.026934 0.79775
108.8097 230.6688 -437.5107 1.839195e-08 0.1518855 0.9883981 192 192 192 255 0.030481 0.802733
328.064 203.3013 -382.8218 0 0.999479 0.03227631 192 192 192 255 0.055316 0.904861
295.4925 199.3917 -375.0092 0 0.161164 0.9869276 192 192 192 255 0.058864 0.889689
133.5898 187.6628 -351.5711 0 0.8950055 0.4460551 192 192 192 255 0.069508 0.814276
184.2249 183.7531 -343.7584 0 0.1752061 0.9845318 192 192 192 255 0.073055 0.837861
358.1227 172.0242 -320.3203 0 0.9879755 0.1546102 192 192 192 255 0.083699 0.918862
386.2625 168.1145 -312.5076 0 0.1518859 0.9883981 192 192 192 255 0.087247 0.931969
384.5374 125.1085 -226.568 0 0.9992602 0.03845951 192 192 192 255 0.126273 0.931166
373.9553 121.1989 -218.7554 0 0.5233838 0.8520971 192 192 192 255 0.129821 0.926237
252.8386 109.4699 -195.3173 0 0.9990755 0.04299179 192 192 192 255 0.140464 0.869821
254.8899 105.5603 -187.5046 0 0.1518854 0.9883981 192 192 192 255 0.144012 0.870777
390.4113 93.83138 -164.0665 -0.05156301 0.8875408 0.4578347 192 192 192 255 0.154656 0.933902
337.0445 86.6796 -156.2538 2.147795e-08 0.2464717 0.96915 192 192 192 255 0.158792 0.909044
107.9163 78.19282 -132.8157 0 0.9974101 0.07192555 192 192 192 255 0.168847 0.802317
95.93515 74.28317 -125.0031 0 0.1518851 0.9883982 192 192 192 255 0.172395 0.796736
147.9886 62.55425 -101.565 0 0.9992603 0.03845643 192 192 192 255 0.183038 0.820982
176.6043 58.64461 -93.75229 0 0.1518852 0.9883981 192 192 192 255 0.186586 0.834311
246.2383 46.91568 -70.31422 -0.03210946 0.9425146 0.3326186 192 192 192 255 0.19723 0.866747
212.7827 43.00604 -62.50153 6.839397e-09 0.1982682 0.9801478 192 192 192 255 0.200778 0.851163
334.7153 93.83138 -164.4734 0.04691558 0.7611956 0.6468232 192 192 192 255 0.154508 0.907959
208.8627 46.91568 -70.52823 0.04136775 0.9068093 0.4195065 192 192 192 255 0.197152 0.849337
290.5532 6.738065 0 0.041193 0.691171 0.7215163 192 192 192 255 0.230067 0.887388
65.99548 15.63856 0 0.1517624 0.7884013 0.5961473 192 192 192 255 0.22845 0.78279
125.7767 15.63856 0 -0.02665577 0.2635439 0.9642791 192 192 192 255 0.22845 0.810636
96.18471 15.63856 -7.812691 0 0.9973869 0.07224544 192 192 192 255 0.225612 0.796852
86.50751 11.64084 0 -5.715253e-09 0.3498734 0.936797 192 192 192 255 0.229176 0.792345
3 10 9 11 
3 8 7 9 
3 6 5 7 
3 4 3 5 
3 1 2 3 
3 31 30 2 
3 29 28 30 
3 27 26 28 
3 25 24 26 
3 23 22 24 
3 21 20 22 
3 19 18 20 
3 18 17 0 
3 18 0 33 
3 33 32 3 
3 33 3 2 
3 2 30 33 
3 33 30 28 
3 33 28 26 
3 33 26 24 
3 33 24 22 
3 33 22 20 
3 33 20 18 
3 5 3 32 
3 5 32 7 
3 7 32 9 
3 9 32 11 
3 16 15 32 
3 11 32 15 
3 11 15 13 
3 14 13 15 
3 13 12 11 
3 44 45 43 
3 42 43 41 
3 40 41 39 
3 38 39 37 
3 35 37 36 
3 65 36 64 
3 63 64 62 
3 61 62 60 
3 59 60 58 
3 57 58 56 
3 55 56 54 
3 53 54 52 
3 52 67 34 
3 52 34 51 
3 67 36 37 
3 67 37 66 
3 36 67 64 
3 67 60 62 
3 67 62 64 
3 67 56 58 
3 67 58 60 
3 67 52 54 
3 67 54 56 
3 39 41 66 
3 39 66 37 
3 41 43 66 
3 43 45 66 
3 50 66 49 
3 45 47 49 
3 45 49 66 
3 48 49 47 
3 47 45 46 
3 66 33 67 
3 33 0 34 
3 33 34 67 
3 0 17 51 
3 0 51 34 
3 17 18 52 
3 17 52 51 
3 55 69 56 
3 98 99 86 
3 100 101 87 
3 33 66 32 
3 102 103 88 
3 21 55 54 
3 21 54 20 
3 22 69 55 
3 22 55 21 
3 104 105 89 
3 106 107 90 
3 108 109 91 
3 29 63 62 
3 29 62 28 
3 30 64 63 
3 30 63 29 
3 31 65 64 
3 31 64 30 
3 2 36 65 
3 2 65 31 
3 110 111 92 
3 112 113 93 
3 114 115 94 
3 116 117 95 
3 118 119 96 
3 120 121 97 
3 14 75 98 
3 14 98 13 
3 15 68 99 
3 15 99 75 
3 15 75 14 
3 99 68 86 
3 86 68 49 
3 86 49 48 
3 13 98 47 
3 47 98 86 
3 47 86 48 
3 87 101 66 
3 87 66 50 
3 68 100 49 
3 49 100 87 
3 49 87 50 
3 19 77 102 
3 19 102 18 
3 77 19 20 
3 77 20 103 
3 54 103 20 
3 88 103 54 
3 88 54 53 
3 18 102 52 
3 52 102 88 
3 52 88 53 
3 69 22 104 
3 78 104 22 
3 78 22 23 
3 105 78 70 
3 70 78 23 
3 70 23 24 
3 70 58 105 
3 89 105 58 
3 89 58 57 
3 104 89 69 
3 57 56 89 
3 69 89 56 
3 25 79 24 
3 106 70 24 
3 106 24 79 
3 71 107 26 
3 26 107 79 
3 26 79 25 
3 107 71 90 
3 59 90 71 
3 59 71 60 
3 58 70 106 
3 58 106 90 
3 90 59 58 
3 108 71 80 
3 80 71 26 
3 80 26 27 
3 62 109 28 
3 28 109 80 
3 28 80 27 
3 91 109 62 
3 91 62 61 
3 60 71 108 
3 60 108 91 
3 91 61 60 
3 36 2 110 
3 81 110 2 
3 81 2 1 
3 111 81 72 
3 3 72 81 
3 3 81 1 
3 111 72 37 
3 111 37 92 
3 92 37 35 
3 36 110 92 
3 36 92 35 
3 72 3 112 
3 82 112 3 
3 82 3 4 
3 39 113 5 
3 5 113 82 
3 5 82 4 
3 93 113 39 
3 93 39 38 
3 112 93 72 
3 72 93 38 
3 72 38 37 
3 6 83 122 
3 6 122 5 
3 115 83 73 
3 73 83 6 
3 73 6 7 
3 73 41 115 
3 94 115 41 
3 94 41 40 
3 39 114 94 
3 39 94 40 
3 73 7 116 
3 84 116 7 
3 84 7 8 
3 9 117 84 
3 9 84 8 
3 9 43 117 
3 95 117 43 
3 95 43 42 
3 116 95 73 
3 41 73 95 
3 41 95 42 
3 10 85 118 
3 10 118 9 
3 45 119 11 
3 11 119 85 
3 11 85 10 
3 96 119 45 
3 96 45 44 
3 9 118 43 
3 43 118 96 
3 43 96 44 
3 12 74 123 
3 12 123 11 
3 13 121 74 
3 13 74 12 
3 13 47 121 
3 97 121 47 
3 97 47 46 
3 45 120 97 
3 45 97 46 
3 102 77 103 
3 104 78 105 
3 106 79 107 
3 108 80 109 
3 110 81 111 
3 112 82 113 
3 115 122 83 
3 116 84 117 
3 118 85 119 
3 121 123 74 
3 98 75 99 
3 100 76 124 
3 114 122 115 
3 5 122 114 
3 5 114 39 
3 120 123 121 
3 11 123 120 
3 11 120 45 
3 32 66 101 
3 32 101 124 
3 100 124 101 
3 127 128 126 
3 68 15 127 
3 125 127 15 
3 125 15 16 
3 32 128 125 
3 32 125 16 
3 32 124 76 
3 32 76 126 
3 32 126 128 
3 100 68 76 
3 68 127 126 
3 68 126 76 
3 127 125 128 
