ply
format ascii 1.0
comment VCGLIB generated
comment TextureFile Dungeons_2_Texture_01_A.png
element vertex 196
property float x
property float y
property float z
property float nx
property float ny
property float nz
property uchar red
property uchar green
property uchar blue
property uchar alpha
property float texture_u
property float texture_v
element face 66
property list uchar int vertex_indices
end_header
-8.75717 27.2479 8.43168 -0.359816 -0.478012 0.801272 255 255 255 255 0.143693 0.281216
-6.49258 25.9904 8.69844 -0.359816 -0.478012 0.801272 255 255 255 255 0.143693 0.281216
-7.96878 35.1087 13.4752 -0.359816 -0.478012 0.801272 255 255 255 255 0.143693 0.281216
-7.96878 35.1087 13.4752 0.17608 0.740252 -0.648862 255 255 255 255 0.143693 0.281216
-5.1019 26.8757 4.86056 0.17608 0.740252 -0.648862 255 255 255 255 0.143693 0.281216
-9.64859 27.9498 4.85214 0.17608 0.740252 -0.648862 255 255 255 255 0.143693 0.281216
-9.29916 -1.6637 -3.23712 0 -1 5e-06 255 255 255 255 0.143693 0.281216
-2.42178 -1.66369 -1.16219 0 -1 5e-06 255 255 255 255 0.143693 0.281216
-7.71146 -1.66368 2.02667 0 -1 5e-06 255 255 255 255 0.143693 0.281216
-7.71146 -1.66368 2.02667 0 -1 4e-06 255 255 255 255 0.143693 0.281216
-2.42178 -1.66369 -1.16219 0 -1 4e-06 255 255 255 255 0.143693 0.281216
-5.18014 -1.66366 5.02998 0 -1 4e-06 255 255 255 255 0.143693 0.281216
-6.49258 25.9904 8.69844 0.941641 -0.023466 0.335799 255 255 255 255 0.143693 0.281216
-5.1019 26.8757 4.86056 0.941641 -0.023466 0.335799 255 255 255 255 0.143693 0.281216
-7.96878 35.1087 13.4752 0.941641 -0.023466 0.335799 255 255 255 255 0.143693 0.281216
-9.64859 27.9498 4.85214 -0.971398 -0.051326 0.231845 255 255 255 255 0.143693 0.281216
-8.75717 27.2479 8.43168 -0.971398 -0.051326 0.231845 255 255 255 255 0.143693 0.281216
-7.96878 35.1087 13.4752 -0.971398 -0.051326 0.231845 255 255 255 255 0.143693 0.281216
-8.18503 17.4717 4.08542 -0.323218 -0.400162 0.857555 255 255 255 255 0.143693 0.281216
-6.49258 25.9904 8.69844 -0.323218 -0.400162 0.857555 255 255 255 255 0.143693 0.281216
-8.75717 27.2479 8.43168 -0.323218 -0.400162 0.857555 255 255 255 255 0.143693 0.281216
-5.45181 17.3276 5.74104 0.940404 -0.003106 0.340047 255 255 255 255 0.143693 0.281216
-5.1019 26.8757 4.86056 0.940404 -0.003106 0.340047 255 255 255 255 0.143693 0.281216
-6.49258 25.9904 8.69844 0.940404 -0.003106 0.340047 255 255 255 255 0.143693 0.281216
-9.55252 16.7876 -0.85741 0.153195 0.435268 -0.887171 255 255 255 255 0.143693 0.281216
-5.1019 26.8757 4.86056 0.153195 0.435268 -0.887171 255 255 255 255 0.143693 0.281216
-3.17984 16.6411 0.171109 0.153195 0.435268 -0.887171 255 255 255 255 0.143693 0.281216
-9.64859 27.9498 4.85214 -0.965844 -0.15035 0.211046 255 255 255 255 0.143693 0.281216
-8.18503 17.4717 4.08542 -0.965844 -0.15035 0.211046 255 255 255 255 0.143693 0.281216
-8.75717 27.2479 8.43168 -0.965844 -0.15035 0.211046 255 255 255 255 0.143693 0.281216
-8.18503 17.4717 4.08542 -0.519218 -0.039392 0.853733 255 255 255 255 0.143693 0.281216
-5.18014 -1.66366 5.02998 -0.519218 -0.039392 0.853733 255 255 255 255 0.143693 0.281216
-5.45181 17.3276 5.74104 -0.519218 -0.039392 0.853733 255 255 255 255 0.143693 0.281216
-5.18014 -1.66366 5.02998 0.925894 -0.0009 0.377783 255 255 255 255 0.143693 0.281216
-3.17984 16.6411 0.171109 0.925894 -0.0009 0.377783 255 255 255 255 0.143693 0.281216
-5.45181 17.3276 5.74104 0.925894 -0.0009 0.377783 255 255 255 255 0.143693 0.281216
-9.29916 -1.6637 -3.23712 0.287885 0.081425 -0.954197 255 255 255 255 0.143693 0.281216
-3.17984 16.6411 0.171109 0.287885 0.081425 -0.954197 255 255 255 255 0.143693 0.281216
-2.42178 -1.66369 -1.16219 0.287885 0.081425 -0.954197 255 255 255 255 0.143693 0.281216
-9.55252 16.7876 -0.85741 -0.960518 -0.053153 0.273095 255 255 255 255 0.143693 0.281216
-7.71146 -1.66368 2.02667 -0.960518 -0.053153 0.273095 255 255 255 255 0.143693 0.281216
-8.18503 17.4717 4.08542 -0.960518 -0.053153 0.273095 255 255 255 255 0.143693 0.281216
-6.47684 27.2686 -11.865 -0.51038 -0.626881 -0.58867 255 255 255 255 0.143693 0.281216
-8.4321 26.7443 -9.61136 -0.51038 -0.626881 -0.58867 255 255 255 255 0.143693 0.281216
-9.97348 34.1285 -16.1385 -0.51038 -0.626881 -0.58867 255 255 255 255 0.143693 0.281216
-9.97348 34.1285 -16.1385 0.294699 0.842136 0.45162 255 255 255 255 0.143693 0.281216
-6.11356 28.6085 -8.36412 0.294699 0.842136 0.45162 255 255 255 255 0.143693 0.281216
-4.15799 29.133 -10.6182 0.294699 0.842136 0.45162 255 255 255 255 0.143693 0.281216
1.22116 -1.6637 -4.54984 1e-06 -1 4e-06 255 255 255 255 0.143693 0.281216
-4.09482 -1.66369 -1.68886 1e-06 -1 4e-06 255 255 255 255 0.143693 0.281216
-2.55216 -1.66371 -6.71021 1e-06 -1 4e-06 255 255 255 255 0.143693 0.281216
-2.55216 -1.66371 -6.71021 2e-06 -1 4e-06 255 255 255 255 0.143693 0.281216
-4.09482 -1.66369 -1.68886 2e-06 -1 4e-06 255 255 255 255 0.143693 0.281216
-4.647 -1.66371 -5.36526 2e-06 -1 4e-06 255 255 255 255 0.143693 0.281216
-8.4321 26.7443 -9.61136 -0.665689 0.411377 0.622596 255 255 255 255 0.143693 0.281216
-6.11356 28.6085 -8.36412 -0.665689 0.411377 0.622596 255 255 255 255 0.143693 0.281216
-9.97348 34.1285 -16.1385 -0.665689 0.411377 0.622596 255 255 255 255 0.143693 0.281216
-4.15799 29.133 -10.6182 0.581659 -0.195424 -0.789609 255 255 255 255 0.143693 0.281216
-6.47684 27.2686 -11.865 0.581659 -0.195424 -0.789609 255 255 255 255 0.143693 0.281216
-9.97348 34.1285 -16.1385 0.581659 -0.195424 -0.789609 255 255 255 255 0.143693 0.281216
-3.55002 18.5951 -9.22527 -0.638117 -0.413074 -0.649751 255 255 255 255 0.143693 0.281216
-8.4321 26.7443 -9.61136 -0.638117 -0.413074 -0.649751 255 255 255 255 0.143693 0.281216
-6.47684 27.2686 -11.865 -0.638117 -0.413074 -0.649751 255 255 255 255 0.143693 0.281216
-3.6564 19.5469 -3.75656 -0.733539 0.063706 0.676655 255 255 255 255 0.143693 0.281216
-8.4321 26.7443 -9.61136 -0.733539 0.063706 0.676655 255 255 255 255 0.143693 0.281216
-6.30417 18.1454 -6.49497 -0.733539 0.063706 0.676655 255 255 255 255 0.143693 0.281216
0.435028 19.8645 -7.1167 0.528485 0.494263 0.690224 255 255 255 255 0.143693 0.281216
-6.11356 28.6085 -8.36412 0.528485 0.494263 0.690224 255 255 255 255 0.143693 0.281216
-3.6564 19.5469 -3.75656 0.528485 0.494263 0.690224 255 255 255 255 0.143693 0.281216
-4.15799 29.133 -10.6182 0.522331 -0.082062 -0.848785 255 255 255 255 0.143693 0.281216
-3.55002 18.5951 -9.22527 0.522331 -0.082062 -0.848785 255 255 255 255 0.143693 0.281216
-6.47684 27.2686 -11.865 0.522331 -0.082062 -0.848785 255 255 255 255 0.143693 0.281216
-2.55216 -1.66371 -6.71021 -0.688537 -0.122649 -0.714754 255 255 255 255 0.143693 0.281216
-6.30417 18.1454 -6.49497 -0.688537 -0.122649 -0.714754 255 255 255 255 0.143693 0.281216
-3.55002 18.5951 -9.22527 -0.688537 -0.122649 -0.714754 255 255 255 255 0.143693 0.281216
-4.09482 -1.66369 -1.68886 -0.986192 -0.074054 0.148123 255 255 255 255 0.143693 0.281216
-6.30417 18.1454 -6.49497 -0.986192 -0.074054 0.148123 255 255 255 255 0.143693 0.281216
-4.647 -1.66371 -5.36526 -0.986192 -0.074054 0.148123 255 255 255 255 0.143693 0.281216
1.22116 -1.6637 -4.54984 0.472546 0.075828 0.878038 255 255 255 255 0.143693 0.281216
-3.6564 19.5469 -3.75656 0.472546 0.075828 0.878038 255 255 255 255 0.143693 0.281216
-4.09482 -1.66369 -1.68886 0.472546 0.075828 0.878038 255 255 255 255 0.143693 0.281216
-3.55002 18.5951 -9.22527 0.495152 -0.082977 -0.864835 255 255 255 255 0.143693 0.281216
1.22116 -1.6637 -4.54984 0.495152 -0.082977 -0.864835 255 255 255 255 0.143693 0.281216
-2.55216 -1.66371 -6.71021 0.495152 -0.082977 -0.864835 255 255 255 255 0.143693 0.281216
5.39621 23.9489 10.6842 0.452993 -0.671237 0.586718 255 255 255 255 0.143693 0.281216
9.15878 23.7002 7.49466 0.452993 -0.671237 0.586718 255 255 255 255 0.143693 0.281216
14.739 35.5175 16.7059 0.452993 -0.671237 0.586718 255 255 255 255 0.143693 0.281216
14.739 35.5175 16.7059 -0.337832 0.819731 -0.462504 255 255 255 255 0.143693 0.281216
6.05368 25.2883 4.91996 -0.337832 0.819731 -0.462504 255 255 255 255 0.143693 0.281216
2.29044 25.5368 8.10925 -0.337832 0.819731 -0.462504 255 255 255 255 0.143693 0.281216
-0.649933 -1.66384 -6.62245 0 -1 6e-06 255 255 255 255 0.143693 0.281216
5.09195 -1.66379 0.024597 0 -1 6e-06 255 255 255 255 0.143693 0.281216
-4.94327 -1.66379 2.06065 0 -1 6e-06 255 255 255 255 0.143693 0.281216
-2.05911 -1.66378 3.17113 0 -1 6e-06 255 255 255 255 0.143693 0.281216
9.15878 23.7002 7.49466 0.686444 0.216879 -0.694088 255 255 255 255 0.143693 0.281216
6.05368 25.2883 4.91996 0.686444 0.216879 -0.694088 255 255 255 255 0.143693 0.281216
14.739 35.5175 16.7059 0.686444 0.216879 -0.694088 255 255 255 255 0.143693 0.281216
2.29044 25.5368 8.10925 -0.610529 0.083085 0.787624 255 255 255 255 0.143693 0.281216
5.39621 23.9489 10.6842 -0.610529 0.083085 0.787624 255 255 255 255 0.143693 0.281216
14.739 35.5175 16.7059 -0.610529 0.083085 0.787624 255 255 255 255 0.143693 0.281216
0.688141 12.7987 6.56227 0.547172 -0.483592 0.683185 255 255 255 255 0.143693 0.281216
9.15878 23.7002 7.49466 0.547172 -0.483592 0.683185 255 255 255 255 0.143693 0.281216
5.39621 23.9489 10.6842 0.547172 -0.483592 0.683185 255 255 255 255 0.143693 0.281216
6.73239 11.9545 2.59767 0.677201 0.159572 -0.718287 255 255 255 255 0.143693 0.281216
6.05368 25.2883 4.91996 0.677201 0.159572 -0.718287 255 255 255 255 0.143693 0.281216
9.15878 23.7002 7.49466 0.677201 0.159572 -0.718287 255 255 255 255 0.143693 0.281216
-3.10092 13.8449 3.93004 -0.573015 0.513652 -0.638605 255 255 255 255 0.143693 0.281216
6.05368 25.2883 4.91996 -0.573015 0.513652 -0.638605 255 255 255 255 0.143693 0.281216
1.80783 11.6555 -2.23563 -0.573015 0.513652 -0.638605 255 255 255 255 0.143693 0.281216
2.29044 25.5368 8.10925 -0.641941 -0.012358 0.766655 255 255 255 255 0.143693 0.281216
0.688141 12.7987 6.56227 -0.641941 -0.012358 0.766655 255 255 255 255 0.143693 0.281216
5.39621 23.9489 10.6842 -0.641941 -0.012358 0.766655 255 255 255 255 0.143693 0.281216
-2.05911 -1.66378 3.17113 0.497185 -0.286479 0.818985 255 255 255 255 0.143693 0.281216
6.73239 11.9545 2.59767 0.497185 -0.286479 0.818985 255 255 255 255 0.143693 0.281216
0.688141 12.7987 6.56227 0.497185 -0.286479 0.818985 255 255 255 255 0.143693 0.281216
5.09195 -1.66379 0.024597 0.69798 0.050885 -0.714307 255 255 255 255 0.143693 0.281216
1.80783 11.6555 -2.23563 0.69798 0.050885 -0.714307 255 255 255 255 0.143693 0.281216
6.73239 11.9545 2.59767 0.69798 0.050885 -0.714307 255 255 255 255 0.143693 0.281216
-4.94327 -1.66379 2.06065 -0.855874 0.297311 -0.423186 255 255 255 255 0.143693 0.281216
1.80783 11.6555 -2.23563 -0.855874 0.297311 -0.423186 255 255 255 255 0.143693 0.281216
-0.649933 -1.66384 -6.62245 -0.855874 0.297311 -0.423186 255 255 255 255 0.143693 0.281216
-3.10092 13.8449 3.93004 -0.583336 -0.078745 0.808405 255 255 255 255 0.143693 0.281216
-2.05911 -1.66378 3.17113 -0.583336 -0.078745 0.808405 255 255 255 255 0.143693 0.281216
0.688141 12.7987 6.56227 -0.583336 -0.078745 0.808405 255 255 255 255 0.143693 0.281216
-8.18503 17.4717 4.08542 -0.501326 -0.332885 0.798661 255 255 255 255 0.143693 0.281216
-5.45181 17.3276 5.74104 -0.501326 -0.332885 0.798661 255 255 255 255 0.143693 0.281216
-6.49258 25.9904 8.69844 -0.501326 -0.332885 0.798661 255 255 255 255 0.143693 0.281216
-5.45181 17.3276 5.74104 0.925971 0.000885 0.377594 255 255 255 255 0.143693 0.281216
-3.17984 16.6411 0.171109 0.925971 0.000885 0.377594 255 255 255 255 0.143693 0.281216
-5.1019 26.8757 4.86056 0.925971 0.000885 0.377594 255 255 255 255 0.143693 0.281216
-9.55252 16.7876 -0.85741 0.108758 0.453432 -0.88463 255 255 255 255 0.143693 0.281216
-9.64859 27.9498 4.85214 0.108758 0.453432 -0.88463 255 255 255 255 0.143693 0.281216
-5.1019 26.8757 4.86056 0.108758 0.453432 -0.88463 255 255 255 255 0.143693 0.281216
-9.64859 27.9498 4.85214 -0.946809 -0.152965 0.283115 255 255 255 255 0.143693 0.281216
-9.55252 16.7876 -0.85741 -0.946809 -0.152965 0.283115 255 255 255 255 0.143693 0.281216
-8.18503 17.4717 4.08542 -0.946809 -0.152965 0.283115 255 255 255 255 0.143693 0.281216
-8.18503 17.4717 4.08542 -0.761673 -0.087919 0.641969 255 255 255 255 0.143693 0.281216
-7.71146 -1.66368 2.02667 -0.761673 -0.087919 0.641969 255 255 255 255 0.143693 0.281216
-5.18014 -1.66366 5.02998 -0.761673 -0.087919 0.641969 255 255 255 255 0.143693 0.281216
-5.18014 -1.66366 5.02998 0.913436 0.00819 0.406899 255 255 255 255 0.143693 0.281216
-2.42178 -1.66369 -1.16219 0.913436 0.00819 0.406899 255 255 255 255 0.143693 0.281216
-3.17984 16.6411 0.171109 0.913436 0.00819 0.406899 255 255 255 255 0.143693 0.281216
-9.29916 -1.6637 -3.23712 0.160891 0.128419 -0.978582 255 255 255 255 0.143693 0.281216
-9.55252 16.7876 -0.85741 0.160891 0.128419 -0.978582 255 255 255 255 0.143693 0.281216
-3.17984 16.6411 0.171109 0.160891 0.128419 -0.978582 255 255 255 255 0.143693 0.281216
-9.55252 16.7876 -0.85741 -0.956183 -0.050327 0.288412 255 255 255 255 0.143693 0.281216
-9.29916 -1.6637 -3.23712 -0.956183 -0.050327 0.288412 255 255 255 255 0.143693 0.281216
-7.71146 -1.66368 2.02667 -0.956183 -0.050327 0.288412 255 255 255 255 0.143693 0.281216
-3.55002 18.5951 -9.22527 -0.611898 -0.398939 -0.682956 255 255 255 255 0.143693 0.281216
-6.30417 18.1454 -6.49497 -0.611898 -0.398939 -0.682956 255 255 255 255 0.143693 0.281216
-8.4321 26.7443 -9.61136 -0.611898 -0.398939 -0.682956 255 255 255 255 0.143693 0.281216
-3.6564 19.5469 -3.75656 -0.597427 0.228806 0.768589 255 255 255 255 0.143693 0.281216
-6.11356 28.6085 -8.36412 -0.597427 0.228806 0.768589 255 255 255 255 0.143693 0.281216
-8.4321 26.7443 -9.61136 -0.597427 0.228806 0.768589 255 255 255 255 0.143693 0.281216
0.435028 19.8645 -7.1167 0.579675 0.523246 0.624652 255 255 255 255 0.143693 0.281216
-4.15799 29.133 -10.6182 0.579675 0.523246 0.624652 255 255 255 255 0.143693 0.281216
-6.11356 28.6085 -8.36412 0.579675 0.523246 0.624652 255 255 255 255 0.143693 0.281216
-4.15799 29.133 -10.6182 0.487369 -0.086735 -0.868878 255 255 255 255 0.143693 0.281216
0.435028 19.8645 -7.1167 0.487369 -0.086735 -0.868878 255 255 255 255 0.143693 0.281216
-3.55002 18.5951 -9.22527 0.487369 -0.086735 -0.868878 255 255 255 255 0.143693 0.281216
-2.55216 -1.66371 -6.71021 -0.53793 -0.092785 -0.837868 255 255 255 255 0.143693 0.281216
-4.647 -1.66371 -5.36526 -0.53793 -0.092785 -0.837868 255 255 255 255 0.143693 0.281216
-6.30417 18.1454 -6.49497 -0.53793 -0.092785 -0.837868 255 255 255 255 0.143693 0.281216
-4.09482 -1.66369 -1.68886 -0.736874 0.080663 0.671201 255 255 255 255 0.143693 0.281216
-3.6564 19.5469 -3.75656 -0.736874 0.080663 0.671201 255 255 255 255 0.143693 0.281216
-6.30417 18.1454 -6.49497 -0.736874 0.080663 0.671201 255 255 255 255 0.143693 0.281216
1.22116 -1.6637 -4.54984 0.62512 0.114878 0.772029 255 255 255 255 0.143693 0.281216
0.435028 19.8645 -7.1167 0.62512 0.114878 0.772029 255 255 255 255 0.143693 0.281216
-3.6564 19.5469 -3.75656 0.62512 0.114878 0.772029 255 255 255 255 0.143693 0.281216
-3.55002 18.5951 -9.22527 0.487184 -0.085831 -0.869071 255 255 255 255 0.143693 0.281216
0.435028 19.8645 -7.1167 0.487184 -0.085831 -0.869071 255 255 255 255 0.143693 0.281216
1.22116 -1.6637 -4.54984 0.487184 -0.085831 -0.869071 255 255 255 255 0.143693 0.281216
0.688141 12.7987 6.56227 0.455617 -0.421098 0.784276 255 255 255 255 0.143693 0.281216
6.73239 11.9545 2.59767 0.455617 -0.421098 0.784276 255 255 255 255 0.143693 0.281216
9.15878 23.7002 7.49466 0.455617 -0.421098 0.784276 255 255 255 255 0.143693 0.281216
6.73239 11.9545 2.59767 0.686686 0.158518 -0.709461 255 255 255 255 0.143693 0.281216
1.80783 11.6555 -2.23563 0.686686 0.158518 -0.709461 255 255 255 255 0.143693 0.281216
6.05368 25.2883 4.91996 0.686686 0.158518 -0.709461 255 255 255 255 0.143693 0.281216
-3.10092 13.8449 3.93004 -0.543194 0.493324 -0.679391 255 255 255 255 0.143693 0.281216
2.29044 25.5368 8.10925 -0.543194 0.493324 -0.679391 255 255 255 255 0.143693 0.281216
6.05368 25.2883 4.91996 -0.543194 0.493324 -0.679391 255 255 255 255 0.143693 0.281216
2.29044 25.5368 8.10925 -0.575328 -0.02691 0.81748 255 255 255 255 0.143693 0.281216
-3.10092 13.8449 3.93004 -0.575328 -0.02691 0.81748 255 255 255 255 0.143693 0.281216
0.688141 12.7987 6.56227 -0.575328 -0.02691 0.81748 255 255 255 255 0.143693 0.281216
-2.05911 -1.66378 3.17113 0.393218 -0.216217 0.893661 255 255 255 255 0.143693 0.281216
5.09195 -1.66379 0.024597 0.393218 -0.216217 0.893661 255 255 255 255 0.143693 0.281216
6.73239 11.9545 2.59767 0.393218 -0.216217 0.893661 255 255 255 255 0.143693 0.281216
5.09195 -1.66379 0.024597 0.754596 0.075446 -0.651839 255 255 255 255 0.143693 0.281216
-0.649933 -1.66384 -6.62245 0.754596 0.075446 -0.651839 255 255 255 255 0.143693 0.281216
1.80783 11.6555 -2.23563 0.754596 0.075446 -0.651839 255 255 255 255 0.143693 0.281216
-4.94327 -1.66379 2.06065 -0.741781 0.166428 -0.649664 255 255 255 255 0.143693 0.281216
-3.10092 13.8449 3.93004 -0.741781 0.166428 -0.649664 255 255 255 255 0.143693 0.281216
1.80783 11.6555 -2.23563 -0.741781 0.166428 -0.649664 255 255 255 255 0.143693 0.281216
-3.10092 13.8449 3.93004 -0.35844 -0.069634 0.930952 255 255 255 255 0.143693 0.281216
-4.94327 -1.66379 2.06065 -0.35844 -0.069634 0.930952 255 255 255 255 0.143693 0.281216
-2.05911 -1.66378 3.17113 -0.35844 -0.069634 0.930952 255 255 255 255 0.143693 0.281216
3 0 1 2 
3 3 4 5 
3 6 7 8 
3 9 10 11 
3 12 13 14 
3 15 16 17 
3 18 19 20 
3 21 22 23 
3 24 25 26 
3 27 28 29 
3 30 31 32 
3 33 34 35 
3 36 37 38 
3 39 40 41 
3 42 43 44 
3 45 46 47 
3 48 49 50 
3 51 52 53 
3 54 55 56 
3 57 58 59 
3 60 61 62 
3 63 64 65 
3 66 67 68 
3 69 70 71 
3 72 73 74 
3 75 76 77 
3 78 79 80 
3 81 82 83 
3 84 85 86 
3 87 88 89 
3 90 91 92 
3 92 91 93 
3 94 95 96 
3 97 98 99 
3 100 101 102 
3 103 104 105 
3 106 107 108 
3 109 110 111 
3 112 113 114 
3 115 116 117 
3 118 119 120 
3 121 122 123 
3 124 125 126 
3 127 128 129 
3 130 131 132 
3 133 134 135 
3 136 137 138 
3 139 140 141 
3 142 143 144 
3 145 146 147 
3 148 149 150 
3 151 152 153 
3 154 155 156 
3 157 158 159 
3 160 161 162 
3 163 164 165 
3 166 167 168 
3 169 170 171 
3 172 173 174 
3 175 176 177 
3 178 179 180 
3 181 182 183 
3 184 185 186 
3 187 188 189 
3 190 191 192 
3 193 194 195 
