ply
format ascii 1.0
comment VCGLIB generated
comment TextureFile Texture_01_A.png
element vertex 240
property float x
property float y
property float z
property float nx
property float ny
property float nz
property uchar red
property uchar green
property uchar blue
property uchar alpha
property float texture_u
property float texture_v
element face 80
property list uchar int vertex_indices
end_header
-0.044771 0.600441 -0.106315 -0.454707 0.805345 -0.380343 255 255 255 255 0.446531 0.288853
0.018239 0.609695 -0.16205 -0.454707 0.805345 -0.380343 255 255 255 255 0.446531 0.288853
-0.021324 0.575815 -0.18649 -0.454707 0.805345 -0.380343 255 255 255 255 0.446531 0.288853
-0.044771 0.600441 -0.106315 -0.434416 0.828414 -0.353573 255 255 255 255 0.446531 0.288853
-0.01295 0.630707 -0.074499 -0.434416 0.828414 -0.353573 255 255 255 255 0.446531 0.288853
0.018239 0.609695 -0.16205 -0.434416 0.828414 -0.353573 255 255 255 255 0.446531 0.288853
0.045655 0.60997 -0.158672 0.525823 0.830956 -0.181723 255 255 255 255 0.446531 0.288853
0.041959 0.631244 -0.072088 0.525823 0.830956 -0.181723 255 255 255 255 0.446531 0.288853
0.078774 0.601649 -0.10089 0.525823 0.830956 -0.181723 255 255 255 255 0.446531 0.288853
-0.01295 0.630707 -0.074499 0.000726 0.972446 -0.233126 255 255 255 255 0.446531 0.288853
0.041959 0.631244 -0.072088 0.000726 0.972446 -0.233126 255 255 255 255 0.446531 0.288853
0.018239 0.609695 -0.16205 0.000726 0.972446 -0.233126 255 255 255 255 0.446531 0.288853
0.018239 0.609695 -0.16205 0.019557 0.971124 -0.237774 255 255 255 255 0.446531 0.288853
0.041959 0.631244 -0.072088 0.019557 0.971124 -0.237774 255 255 255 255 0.446531 0.288853
0.045655 0.60997 -0.158672 0.019557 0.971124 -0.237774 255 255 255 255 0.446531 0.288853
0.01301 0.607236 -0.038476 -0.032762 0.826435 0.562079 255 255 255 255 0.446531 0.288853
0.041959 0.631244 -0.072088 -0.032762 0.826435 0.562079 255 255 255 255 0.446531 0.288853
-0.01295 0.630707 -0.074499 -0.032762 0.826435 0.562079 255 255 255 255 0.446531 0.288853
0.089972 0.238359 -0.098544 0.258549 0.772231 -0.580355 255 255 255 255 0.446531 0.288853
0.17755 0.229666 -0.071095 0.258549 0.772231 -0.580355 255 255 255 255 0.446531 0.288853
0.183882 0.191556 -0.118984 0.258549 0.772231 -0.580355 255 255 255 255 0.446531 0.288853
0.217639 0.188967 -0.043782 0.602651 0.774409 0.19262 255 255 255 255 0.446531 0.288853
0.097063 0.273046 -0.004566 0.602651 0.774409 0.19262 255 255 255 255 0.446531 0.288853
0.140609 0.234476 0.014258 0.602651 0.774409 0.19262 255 255 255 255 0.446531 0.288853
0.217639 0.188967 -0.043782 0.606538 0.75814 0.239448 255 255 255 255 0.446531 0.288853
0.17755 0.229666 -0.071095 0.606538 0.75814 0.239448 255 255 255 255 0.446531 0.288853
0.097063 0.273046 -0.004566 0.606538 0.75814 0.239448 255 255 255 255 0.446531 0.288853
0.17755 0.229666 -0.071095 -0.103527 0.771207 -0.62811 255 255 255 255 0.446531 0.288853
0.051582 0.2587 -0.014684 -0.103527 0.771207 -0.62811 255 255 255 255 0.446531 0.288853
0.097063 0.273046 -0.004566 -0.103527 0.771207 -0.62811 255 255 255 255 0.446531 0.288853
0.089972 0.238359 -0.098544 0.149367 0.97441 -0.167974 255 255 255 255 0.446531 0.288853
0.051582 0.2587 -0.014684 0.149367 0.97441 -0.167974 255 255 255 255 0.446531 0.288853
0.17755 0.229666 -0.071095 0.149367 0.97441 -0.167974 255 255 255 255 0.446531 0.288853
-0.020905 0.805871 -0.059106 0.043474 0.73355 -0.678244 255 255 255 255 0.446531 0.288853
0.012128 0.728938 -0.140195 0.043474 0.73355 -0.678244 255 255 255 255 0.446531 0.288853
-0.040698 0.743422 -0.127916 0.043474 0.73355 -0.678244 255 255 255 255 0.446531 0.288853
-0.060833 0.771951 -0.070711 -0.459824 0.719387 -0.520619 255 255 255 255 0.446531 0.288853
-0.020905 0.805871 -0.059106 -0.459824 0.719387 -0.520619 255 255 255 255 0.446531 0.288853
-0.040698 0.743422 -0.127916 -0.459824 0.719387 -0.520619 255 255 255 255 0.446531 0.288853
-0.020905 0.805871 -0.059106 0.043489 0.733552 -0.67824 255 255 255 255 0.446531 0.288853
0.031921 0.791387 -0.071384 0.043489 0.733552 -0.67824 255 255 255 255 0.446531 0.288853
0.012128 0.728938 -0.140195 0.043489 0.733552 -0.67824 255 255 255 255 0.446531 0.288853
-0.022863 0.510436 0.098015 0.109878 0.815731 0.567899 255 255 255 255 0.446531 0.288853
-0.032166 0.541994 0.054485 0.109878 0.815731 0.567899 255 255 255 255 0.446531 0.288853
-0.08814 0.481215 0.152618 0.109878 0.815731 0.567899 255 255 255 255 0.446531 0.288853
-0.106851 0.515895 0.109336 0.145463 0.801825 0.579583 255 255 255 255 0.446531 0.288853
-0.08814 0.481215 0.152618 0.145463 0.801825 0.579583 255 255 255 255 0.446531 0.288853
-0.032166 0.541994 0.054485 0.145463 0.801825 0.579583 255 255 255 255 0.446531 0.288853
-0.032166 0.541994 0.054485 -0.179738 0.960532 0.212305 255 255 255 255 0.446531 0.288853
-0.12765 0.51602 0.091162 -0.179738 0.960532 0.212305 255 255 255 255 0.446531 0.288853
-0.106851 0.515895 0.109336 -0.179738 0.960532 0.212305 255 255 255 255 0.446531 0.288853
-0.12765 0.51602 0.091162 -0.56705 0.815777 -0.113847 255 255 255 255 0.446531 0.288853
-0.076358 0.541994 0.021804 -0.56705 0.815777 -0.113847 255 255 255 255 0.446531 0.288853
-0.122296 0.510436 0.024482 -0.56705 0.815777 -0.113847 255 255 255 255 0.446531 0.288853
-0.032166 0.541994 0.054485 -0.17143 0.957536 0.231812 255 255 255 255 0.446531 0.288853
-0.076358 0.541994 0.021804 -0.17143 0.957536 0.231812 255 255 255 255 0.446531 0.288853
-0.12765 0.51602 0.091162 -0.17143 0.957536 0.231812 255 255 255 255 0.446531 0.288853
0.082705 0.163823 0.191601 -0.245209 0.863893 0.439956 255 255 255 255 0.446531 0.288853
0.101579 0.204101 0.123031 -0.245209 0.863893 0.439956 255 255 255 255 0.446531 0.288853
-0.024474 0.169974 0.119787 -0.245209 0.863893 0.439956 255 255 255 255 0.446531 0.288853
0.171502 0.172333 0.110142 0.388003 0.910922 -0.140265 255 255 255 255 0.446531 0.288853
0.040936 0.210477 -0.003313 0.388003 0.910922 -0.140265 255 255 255 255 0.446531 0.288853
0.101579 0.204101 0.123031 0.388003 0.910922 -0.140265 255 255 255 255 0.446531 0.288853
0.101579 0.204101 0.123031 -0.034306 0.997177 0.066789 255 255 255 255 0.446531 0.288853
0.040936 0.210477 -0.003313 -0.034306 0.997177 0.066789 255 255 255 255 0.446531 0.288853
-0.018263 0.204803 0.050993 -0.034306 0.997177 0.066789 255 255 255 255 0.446531 0.288853
0.108722 0.182739 -0.002402 0.377167 0.917596 -0.125551 255 255 255 255 0.446531 0.288853
0.040936 0.210477 -0.003313 0.377167 0.917596 -0.125551 255 255 255 255 0.446531 0.288853
0.171502 0.172333 0.110142 0.377167 0.917596 -0.125551 255 255 255 255 0.446531 0.288853
0.101579 0.204101 0.123031 -0.247234 0.873291 0.419808 255 255 255 255 0.446531 0.288853
-0.018263 0.204803 0.050993 -0.247234 0.873291 0.419808 255 255 255 255 0.446531 0.288853
-0.024474 0.169974 0.119787 -0.247234 0.873291 0.419808 255 255 255 255 0.446531 0.288853
0.017694 0.393624 0.087948 0.276155 0.748278 0.603173 255 255 255 255 0.446531 0.288853
0.065454 0.349731 0.120534 0.276155 0.748278 0.603173 255 255 255 255 0.446531 0.288853
0.109171 0.385075 0.056672 0.276155 0.748278 0.603173 255 255 255 255 0.446531 0.288853
-0.050489 0.385185 0.016149 -0.521409 0.74999 0.406998 255 255 255 255 0.446531 0.288853
-0.040987 0.349805 0.093518 -0.521409 0.74999 0.406998 255 255 255 255 0.446531 0.288853
0.017694 0.393624 0.087948 -0.521409 0.74999 0.406998 255 255 255 255 0.446531 0.288853
0.109171 0.385075 0.056672 0.164652 0.961805 0.218679 255 255 255 255 0.446531 0.288853
0.093416 0.398299 0.010372 0.164652 0.961805 0.218679 255 255 255 255 0.446531 0.288853
0.017694 0.393624 0.087948 0.164652 0.961805 0.218679 255 255 255 255 0.446531 0.288853
-0.050489 0.385185 0.016149 -0.091897 0.995325 -0.029719 255 255 255 255 0.446531 0.288853
0.017694 0.393624 0.087948 -0.091897 0.995325 -0.029719 255 255 255 255 0.446531 0.288853
0.093416 0.398299 0.010372 -0.091897 0.995325 -0.029719 255 255 255 255 0.446531 0.288853
0.08678 0.6317 -0.111505 0.561615 0.685695 -0.463045 255 255 255 255 0.446531 0.303681
0.16107 0.61962 -0.039289 0.561615 0.685695 -0.463045 255 255 255 255 0.446531 0.303681
0.170378 0.572325 -0.098036 0.561615 0.685695 -0.463045 255 255 255 255 0.446531 0.303681
0.08678 0.6317 -0.111505 0.535828 0.726845 -0.429633 255 255 255 255 0.446531 0.303681
0.063983 0.678099 -0.06144 0.535828 0.726845 -0.429633 255 255 255 255 0.446531 0.303681
0.16107 0.61962 -0.039289 0.535828 0.726845 -0.429633 255 255 255 255 0.446531 0.303681
0.181949 0.566603 0.011017 0.661741 0.676813 0.322526 255 255 255 255 0.446531 0.303681
0.071696 0.674284 0.011262 0.661741 0.676813 0.322526 255 255 255 255 0.446531 0.303681
0.104136 0.623117 0.052076 0.661741 0.676813 0.322526 255 255 255 255 0.446531 0.303681
0.063983 0.678099 -0.06144 0.517617 0.855554 -0.01002 255 255 255 255 0.446531 0.303681
0.071696 0.674284 0.011262 0.517617 0.855554 -0.01002 255 255 255 255 0.446531 0.303681
0.16107 0.61962 -0.039289 0.517617 0.855554 -0.01002 255 255 255 255 0.446531 0.303681
0.16107 0.61962 -0.039289 0.634479 0.648678 0.420301 255 255 255 255 0.446531 0.303681
0.071696 0.674284 0.011262 0.634479 0.648678 0.420301 255 255 255 255 0.446531 0.303681
0.181949 0.566603 0.011017 0.634479 0.648678 0.420301 255 255 255 255 0.446531 0.303681
0.018112 0.658199 -0.021023 -0.332892 0.939162 0.084599 255 255 255 255 0.446531 0.303681
0.071696 0.674284 0.011262 -0.332892 0.939162 0.084599 255 255 255 255 0.446531 0.303681
0.063983 0.678099 -0.06144 -0.332892 0.939162 0.084599 255 255 255 255 0.446531 0.303681
-0.087326 0.227468 -0.051339 -0.655278 0.743252 0.134855 255 255 255 255 0.446531 0.303681
-0.090359 0.244493 -0.15991 -0.655278 0.743252 0.134855 255 255 255 255 0.446531 0.303681
-0.146008 0.191685 -0.139265 -0.655278 0.743252 0.134855 255 255 255 255 0.446531 0.303681
-0.073663 0.207584 -0.221298 -0.120632 0.835935 -0.535407 255 255 255 255 0.446531 0.303681
-0.090359 0.244493 -0.15991 -0.120632 0.835935 -0.535407 255 255 255 255 0.446531 0.303681
0.021192 0.251317 -0.174389 -0.120632 0.835935 -0.535407 255 255 255 255 0.446531 0.303681
0.01544 0.286841 -0.114545 0.314279 0.841113 0.44018 255 255 255 255 0.446531 0.303681
-0.03279 0.276241 -0.059855 0.314279 0.841113 0.44018 255 255 255 255 0.446531 0.303681
0.022129 0.256591 -0.061518 0.314279 0.841113 0.44018 255 255 255 255 0.446531 0.303681
-0.090359 0.244493 -0.15991 -0.329029 0.938084 -0.108345 255 255 255 255 0.446531 0.303681
-0.03279 0.276241 -0.059855 -0.329029 0.938084 -0.108345 255 255 255 255 0.446531 0.303681
0.01544 0.286841 -0.114545 -0.329029 0.938084 -0.108345 255 255 255 255 0.446531 0.303681
-0.087326 0.227468 -0.051339 -0.648627 0.748937 0.13556 255 255 255 255 0.446531 0.303681
-0.03279 0.276241 -0.059855 -0.648627 0.748937 0.13556 255 255 255 255 0.446531 0.303681
-0.090359 0.244493 -0.15991 -0.648627 0.748937 0.13556 255 255 255 255 0.446531 0.303681
-0.090359 0.244493 -0.15991 -0.118801 0.848764 -0.515254 255 255 255 255 0.446531 0.303681
0.01544 0.286841 -0.114545 -0.118801 0.848764 -0.515254 255 255 255 255 0.446531 0.303681
0.021192 0.251317 -0.174389 -0.118801 0.848764 -0.515254 255 255 255 255 0.446531 0.303681
-0.200109 0.190199 0.010188 -0.573743 0.73282 -0.365778 255 255 255 255 0.446531 0.288853
-0.151507 0.246036 0.04582 -0.573743 0.73282 -0.365778 255 255 255 255 0.446531 0.288853
-0.114715 0.222079 -0.059887 -0.573743 0.73282 -0.365778 255 255 255 255 0.446531 0.288853
-0.15526 0.213032 0.109434 -0.256975 0.863952 0.433072 255 255 255 255 0.446531 0.288853
-0.032813 0.288654 0.03123 -0.256975 0.863952 0.433072 255 255 255 255 0.446531 0.288853
-0.151507 0.246036 0.04582 -0.256975 0.863952 0.433072 255 255 255 255 0.446531 0.288853
-0.151507 0.246036 0.04582 -0.343868 0.937086 -0.060199 255 255 255 255 0.446531 0.288853
-0.032813 0.288654 0.03123 -0.343868 0.937086 -0.060199 255 255 255 255 0.446531 0.288853
-0.062712 0.273432 -0.034935 -0.343868 0.937086 -0.060199 255 255 255 255 0.446531 0.288853
-0.047441 0.256328 0.088983 -0.26929 0.867836 0.417545 255 255 255 255 0.446531 0.288853
-0.032813 0.288654 0.03123 -0.26929 0.867836 0.417545 255 255 255 255 0.446531 0.288853
-0.15526 0.213032 0.109434 -0.26929 0.867836 0.417545 255 255 255 255 0.446531 0.288853
-0.151507 0.246036 0.04582 -0.560343 0.744145 -0.363681 255 255 255 255 0.446531 0.288853
-0.062712 0.273432 -0.034935 -0.560343 0.744145 -0.363681 255 255 255 255 0.446531 0.288853
-0.114715 0.222079 -0.059887 -0.560343 0.744145 -0.363681 255 255 255 255 0.446531 0.288853
0.058075 0.257083 0.086623 0.680833 0.685298 0.258522 255 255 255 255 0.446531 0.303681
0.007297 0.271315 0.182623 0.680833 0.685298 0.258522 255 255 255 255 0.446531 0.303681
0.048766 0.218364 0.213776 0.680833 0.685298 0.258522 255 255 255 255 0.446531 0.303681
-0.033235 0.233141 0.221298 -0.388319 0.826079 0.408414 255 255 255 255 0.446531 0.303681
0.007297 0.271315 0.182623 -0.388319 0.826079 0.408414 255 255 255 255 0.446531 0.303681
-0.064927 0.279249 0.097905 -0.388319 0.826079 0.408414 255 255 255 255 0.446531 0.303681
0.007297 0.271315 0.182623 0.194469 0.944606 0.26439 255 255 255 255 0.446531 0.303681
0.023179 0.306289 0.045987 0.194469 0.944606 0.26439 255 255 255 255 0.446531 0.303681
-0.031489 0.31614 0.051002 0.194469 0.944606 0.26439 255 255 255 255 0.446531 0.303681
0.058075 0.257083 0.086623 0.676511 0.690715 0.255433 255 255 255 255 0.446531 0.303681
0.023179 0.306289 0.045987 0.676511 0.690715 0.255433 255 255 255 255 0.446531 0.303681
0.007297 0.271315 0.182623 0.676511 0.690715 0.255433 255 255 255 255 0.446531 0.303681
0.007297 0.271315 0.182623 -0.371729 0.83985 0.395561 255 255 255 255 0.446531 0.303681
-0.031489 0.31614 0.051002 -0.371729 0.83985 0.395561 255 255 255 255 0.446531 0.303681
-0.064927 0.279249 0.097905 -0.371729 0.83985 0.395561 255 255 255 255 0.446531 0.303681
-0.078801 0.738979 0.105107 -0.204035 0.879487 0.429967 255 255 255 255 0.446531 0.303681
-0.141568 0.765119 0.021853 -0.204035 0.879487 0.429967 255 255 255 255 0.446531 0.303681
-0.172863 0.731573 0.07562 -0.204035 0.879487 0.429967 255 255 255 255 0.446531 0.303681
-0.141568 0.765119 0.021853 -0.163295 0.858237 -0.486584 255 255 255 255 0.446531 0.303681
-0.03924 0.765539 -0.011747 -0.163295 0.858237 -0.486584 255 255 255 255 0.446531 0.303681
-0.169901 0.727987 -0.034132 -0.163295 0.858237 -0.486584 255 255 255 255 0.446531 0.303681
-0.074358 0.7336 -0.059522 -0.172611 0.872771 -0.456592 255 255 255 255 0.446531 0.303681
-0.169901 0.727987 -0.034132 -0.172611 0.872771 -0.456592 255 255 255 255 0.446531 0.303681
-0.03924 0.765539 -0.011747 -0.172611 0.872771 -0.456592 255 255 255 255 0.446531 0.303681
-0.141568 0.765119 0.021853 0.076678 0.966334 0.2456 255 255 255 255 0.446531 0.303681
-0.078801 0.738979 0.105107 0.076678 0.966334 0.2456 255 255 255 255 0.446531 0.303681
-0.03924 0.765539 -0.011747 0.076678 0.966334 0.2456 255 255 255 255 0.446531 0.303681
0.006618 0.823127 0.030051 0.514018 0.81618 0.263884 255 255 255 255 0.446531 0.288853
0.154187 0.715909 0.074222 0.514018 0.81618 0.263884 255 255 255 255 0.446531 0.288853
0.117656 0.768471 -0.017191 0.514018 0.81618 0.263884 255 255 255 255 0.446531 0.288853
0.006618 0.823127 0.030051 0.617373 0.741619 -0.262395 255 255 255 255 0.446531 0.288853
0.097224 0.768186 0.08795 0.617373 0.741619 -0.262395 255 255 255 255 0.446531 0.288853
0.154187 0.715909 0.074222 0.617373 0.741619 -0.262395 255 255 255 255 0.446531 0.288853
0.067533 0.722767 0.141547 0.062963 0.758636 0.648465 255 255 255 255 0.446531 0.288853
0.006618 0.823127 0.030051 0.062963 0.758636 0.648465 255 255 255 255 0.446531 0.288853
-0.012324 0.778759 0.083796 0.062963 0.758636 0.648465 255 255 255 255 0.446531 0.288853
0.067533 0.722767 0.141547 0.036044 0.752478 0.65763 255 255 255 255 0.446531 0.288853
0.097224 0.768186 0.08795 0.036044 0.752478 0.65763 255 255 255 255 0.446531 0.288853
0.006618 0.823127 0.030051 0.036044 0.752478 0.65763 255 255 255 255 0.446531 0.288853
0.011451 0.801701 -0.023037 -0.00782 0.927048 -0.374862 255 255 255 255 0.446531 0.288853
0.006618 0.823127 0.030051 -0.00782 0.927048 -0.374862 255 255 255 255 0.446531 0.288853
0.064128 0.793989 -0.043208 -0.00782 0.927048 -0.374862 255 255 255 255 0.446531 0.288853
0.117656 0.768471 -0.017191 0.436326 0.899659 -0.015304 255 255 255 255 0.446531 0.288853
0.064128 0.793989 -0.043208 0.436326 0.899659 -0.015304 255 255 255 255 0.446531 0.288853
0.006618 0.823127 0.030051 0.436326 0.899659 -0.015304 255 255 255 255 0.446531 0.288853
-0.143102 0.510436 -0.017607 -0.529855 0.829026 0.1788 255 255 255 255 0.446531 0.288853
-0.160523 0.523355 -0.129133 -0.529855 0.829026 0.1788 255 255 255 255 0.446531 0.288853
-0.217639 0.481216 -0.103008 -0.529855 0.829026 0.1788 255 255 255 255 0.446531 0.288853
-0.143102 0.510436 -0.017607 -0.519822 0.835528 0.177985 255 255 255 255 0.446531 0.288853
-0.085395 0.549236 -0.03121 -0.519822 0.835528 0.177985 255 255 255 255 0.446531 0.288853
-0.160523 0.523355 -0.129133 -0.519822 0.835528 0.177985 255 255 255 255 0.446531 0.288853
-0.154208 0.481216 -0.192652 -0.028292 0.844846 -0.534262 255 255 255 255 0.446531 0.288853
-0.043109 0.549236 -0.090973 -0.028292 0.844846 -0.534262 255 255 255 255 0.446531 0.288853
-0.047957 0.510436 -0.152072 -0.028292 0.844846 -0.534262 255 255 255 255 0.446531 0.288853
-0.085395 0.549236 -0.03121 -0.175045 0.976739 -0.123855 255 255 255 255 0.446531 0.288853
-0.043109 0.549236 -0.090973 -0.175045 0.976739 -0.123855 255 255 255 255 0.446531 0.288853
-0.160523 0.523355 -0.129133 -0.175045 0.976739 -0.123855 255 255 255 255 0.446531 0.288853
-0.160523 0.523355 -0.129133 -0.003886 0.833117 -0.553083 255 255 255 255 0.446531 0.288853
-0.043109 0.549236 -0.090973 -0.003886 0.833117 -0.553083 255 255 255 255 0.446531 0.288853
-0.154208 0.481216 -0.192652 -0.003886 0.833117 -0.553083 255 255 255 255 0.446531 0.288853
-0.030107 0.520176 -0.036609 0.464368 0.822438 0.328569 255 255 255 255 0.446531 0.288853
-0.043109 0.549236 -0.090973 0.464368 0.822438 0.328569 255 255 255 255 0.446531 0.288853
-0.085395 0.549236 -0.03121 0.464368 0.822438 0.328569 255 255 255 255 0.446531 0.288853
0.105249 0.510436 -0.072812 0.531535 0.829023 -0.173754 255 255 255 255 0.446531 0.288853
0.121609 0.523355 0.038875 0.531535 0.829023 -0.173754 255 255 255 255 0.446531 0.288853
0.17897 0.481216 0.013294 0.531535 0.829023 -0.173754 255 255 255 255 0.446531 0.288853
0.105249 0.510436 -0.072812 0.521486 0.835531 -0.173035 255 255 255 255 0.446531 0.288853
0.047415 0.549236 -0.059757 0.521486 0.835531 -0.173035 255 255 255 255 0.446531 0.288853
0.121609 0.523355 0.038875 0.521486 0.835531 -0.173035 255 255 255 255 0.446531 0.288853
0.114691 0.481216 0.102331 0.023221 0.844849 0.534501 255 255 255 255 0.446531 0.288853
0.004563 0.549236 -0.000399 0.023221 0.844849 0.534501 255 255 255 255 0.446531 0.288853
0.008831 0.510436 0.060744 0.023221 0.844849 0.534501 255 255 255 255 0.446531 0.288853
0.047415 0.549236 -0.059757 0.17386 0.976739 0.125513 255 255 255 255 0.446531 0.288853
0.004563 0.549236 -0.000399 0.17386 0.976739 0.125513 255 255 255 255 0.446531 0.288853
0.121609 0.523355 0.038875 0.17386 0.976739 0.125513 255 255 255 255 0.446531 0.288853
0.121609 0.523355 0.038875 -0.00137 0.833117 0.553095 255 255 255 255 0.446531 0.288853
0.004563 0.549236 -0.000399 -0.00137 0.833117 0.553095 255 255 255 255 0.446531 0.288853
0.114691 0.481216 0.102331 -0.00137 0.833117 0.553095 255 255 255 255 0.446531 0.288853
-0.007921 0.520176 -0.054885 -0.461224 0.822438 -0.332969 255 255 255 255 0.446531 0.288853
0.004563 0.549236 -0.000399 -0.461224 0.822438 -0.332969 255 255 255 255 0.446531 0.288853
0.047415 0.549236 -0.059757 -0.461224 0.822438 -0.332969 255 255 255 255 0.446531 0.288853
0.024169 -0 -0.022692 0.208502 0.003733 -0.978015 255 255 255 255 0.446531 0.260196
-0.001836 0.779559 -0.02526 0.208502 0.003733 -0.978015 255 255 255 255 0.446531 0.260196
0.016603 0.779559 -0.021329 0.208502 0.003733 -0.978015 255 255 255 255 0.446531 0.260195
0.016603 0.779559 -0.021329 -0 1 0 255 255 255 255 0.446531 0.260195
-0.001836 0.779559 -0.02526 -0 1 0 255 255 255 255 0.446531 0.260196
0.005417 0.779559 -0.014076 -0 1 0 255 255 255 255 0.446531 0.260195
-0.001836 0.779559 -0.02526 -0.839002 0.00494 0.544106 255 255 255 255 0.446531 0.260196
0.003804 -0 -0.009486 -0.839002 0.00494 0.544106 255 255 255 255 0.446531 0.260196
0.005417 0.779559 -0.014076 -0.839002 0.00494 0.544106 255 255 255 255 0.446531 0.260195
0.003804 -0 -0.009486 0 -1 0 255 255 255 255 0.446531 0.260196
-0.009402 -0 -0.02985 0 -1 0 255 255 255 255 0.446531 0.260196
0.024169 -0 -0.022692 0 -1 0 255 255 255 255 0.446531 0.260196
0.003804 -0 -0.009486 0.54404 0.003815 0.839051 255 255 255 255 0.446531 0.260196
0.016603 0.779559 -0.021329 0.54404 0.003815 0.839051 255 255 255 255 0.446531 0.260195
0.005417 0.779559 -0.014076 0.54404 0.003815 0.839051 255 255 255 255 0.446531 0.260195
0.024169 -0 -0.022692 0.208531 0.003734 -0.978009 255 255 255 255 0.446531 0.260196
-0.009402 -0 -0.02985 0.208531 0.003734 -0.978009 255 255 255 255 0.446531 0.260196
-0.001836 0.779559 -0.02526 0.208531 0.003734 -0.978009 255 255 255 255 0.446531 0.260196
-0.001836 0.779559 -0.02526 -0.839009 0.004939 0.544095 255 255 255 255 0.446531 0.260196
-0.009402 -0 -0.02985 -0.839009 0.004939 0.544095 255 255 255 255 0.446531 0.260196
0.003804 -0 -0.009486 -0.839009 0.004939 0.544095 255 255 255 255 0.446531 0.260196
0.003804 -0 -0.009486 0.544079 0.003814 0.839025 255 255 255 255 0.446531 0.260196
0.024169 -0 -0.022692 0.544079 0.003814 0.839025 255 255 255 255 0.446531 0.260196
0.016603 0.779559 -0.021329 0.544079 0.003814 0.839025 255 255 255 255 0.446531 0.260195
3 0 1 2 
3 3 4 5 
3 6 7 8 
3 9 10 11 
3 12 13 14 
3 15 16 17 
3 18 19 20 
3 21 22 23 
3 24 25 26 
3 27 28 29 
3 30 31 32 
3 33 34 35 
3 36 37 38 
3 39 40 41 
3 42 43 44 
3 45 46 47 
3 48 49 50 
3 51 52 53 
3 54 55 56 
3 57 58 59 
3 60 61 62 
3 63 64 65 
3 66 67 68 
3 69 70 71 
3 72 73 74 
3 75 76 77 
3 78 79 80 
3 81 82 83 
3 84 85 86 
3 87 88 89 
3 90 91 92 
3 93 94 95 
3 96 97 98 
3 99 100 101 
3 102 103 104 
3 105 106 107 
3 108 109 110 
3 111 112 113 
3 114 115 116 
3 117 118 119 
3 120 121 122 
3 123 124 125 
3 126 127 128 
3 129 130 131 
3 132 133 134 
3 135 136 137 
3 138 139 140 
3 141 142 143 
3 144 145 146 
3 147 148 149 
3 150 151 152 
3 153 154 155 
3 156 157 158 
3 159 160 161 
3 162 163 164 
3 165 166 167 
3 168 169 170 
3 171 172 173 
3 174 175 176 
3 177 178 179 
3 180 181 182 
3 183 184 185 
3 186 187 188 
3 189 190 191 
3 192 193 194 
3 195 196 197 
3 198 199 200 
3 201 202 203 
3 204 205 206 
3 207 208 209 
3 210 211 212 
3 213 214 215 
3 216 217 218 
3 219 220 221 
3 222 223 224 
3 225 226 227 
3 228 229 230 
3 231 232 233 
3 234 235 236 
3 237 238 239 
