ply
format ascii 1.0
comment VCGLIB generated
comment TextureFile Dungeons_2_Texture_01_A.png
element vertex 396
property float x
property float y
property float z
property float nx
property float ny
property float nz
property uchar red
property uchar green
property uchar blue
property uchar alpha
property float texture_u
property float texture_v
element face 132
property list uchar int vertex_indices
end_header
104.898 19.9401 -34.0781 0.534803 0.672068 -0.512162 255 255 255 255 0.144329 0.25489
119.203 0.730228 -44.3486 0.534803 0.672068 -0.512162 255 255 255 255 0.144329 0.25489
71.3906 9.5762 -82.667 0.534803 0.672068 -0.512162 255 255 255 255 0.144329 0.25489
126.137 -7.49999 -13.4384 0.797243 0.603385 -0.018174 255 255 255 255 0.144329 0.25489
119.203 0.730228 -44.3486 0.797243 0.603385 -0.018174 255 255 255 255 0.144329 0.25489
104.898 19.9401 -34.0781 0.797243 0.603385 -0.018174 255 255 255 255 0.144329 0.25489
119.203 0.730228 -44.3486 0.320157 -0.895153 -0.310162 255 255 255 255 0.144329 0.25489
126.137 -7.49999 -13.4384 0.320157 -0.895153 -0.310162 255 255 255 255 0.144329 0.25489
91.5039 -27.2424 7.79105 0.320157 -0.895153 -0.310162 255 255 255 255 0.144329 0.25489
91.5039 -27.2424 7.79105 0.777702 -0.623708 0.078538 255 255 255 255 0.144329 0.25489
98.6679 -25.582 -49.9629 0.777702 -0.623708 0.078538 255 255 255 255 0.144329 0.25489
119.203 0.730228 -44.3486 0.777702 -0.623708 0.078538 255 255 255 255 0.144329 0.25489
126.137 -7.49999 -13.4384 0.5419 -0.04837 0.83905 255 255 255 255 0.144329 0.25489
100.391 23.5138 4.97756 0.5419 -0.04837 0.83905 255 255 255 255 0.144329 0.25489
91.5039 -27.2424 7.79105 0.5419 -0.04837 0.83905 255 255 255 255 0.144329 0.25489
119.203 0.730228 -44.3486 0.276226 -0.010521 -0.961035 255 255 255 255 0.144329 0.25489
98.6679 -25.582 -49.9629 0.276226 -0.010521 -0.961035 255 255 255 255 0.144329 0.25489
59.6601 -25.485 -61.1758 0.276226 -0.010521 -0.961035 255 255 255 255 0.144329 0.25489
71.3906 9.5762 -82.667 0.446228 -0.57145 -0.688712 255 255 255 255 0.144329 0.25489
119.203 0.730228 -44.3486 0.446228 -0.57145 -0.688712 255 255 255 255 0.144329 0.25489
59.6601 -25.485 -61.1758 0.446228 -0.57145 -0.688712 255 255 255 255 0.144329 0.25489
104.898 19.9401 -34.0781 0.392811 0.805992 -0.442806 255 255 255 255 0.144329 0.25489
71.3906 9.5762 -82.667 0.392811 0.805992 -0.442806 255 255 255 255 0.144329 0.25489
70.0547 30.2254 -46.2666 0.392811 0.805992 -0.442806 255 255 255 255 0.144329 0.25489
104.898 19.9401 -34.0781 0.778413 0.626912 0.03248 255 255 255 255 0.144329 0.25489
100.391 23.5138 4.97756 0.778413 0.626912 0.03248 255 255 255 255 0.144329 0.25489
126.137 -7.49999 -13.4384 0.778413 0.626912 0.03248 255 255 255 255 0.144329 0.25489
100.391 23.5138 4.97756 0.299592 0.952617 -0.052588 255 255 255 255 0.144329 0.25489
104.898 19.9401 -34.0781 0.299592 0.952617 -0.052588 255 255 255 255 0.144329 0.25489
70.0547 30.2254 -46.2666 0.299592 0.952617 -0.052588 255 255 255 255 0.144329 0.25489
59.6601 -25.485 -61.1758 0.009555 -0.999077 -0.041889 255 255 255 255 0.144329 0.25489
98.6679 -25.582 -49.9629 0.009555 -0.999077 -0.041889 255 255 255 255 0.144329 0.25489
76.6211 -26.6821 -28.7549 0.009555 -0.999077 -0.041889 255 255 255 255 0.144329 0.25489
76.6211 -26.6821 -28.7549 0.025239 -0.999354 -0.0256 255 255 255 255 0.144329 0.25489
98.6679 -25.582 -49.9629 0.025239 -0.999354 -0.0256 255 255 255 255 0.144329 0.25489
91.5039 -27.2424 7.79105 0.025239 -0.999354 -0.0256 255 255 255 255 0.144329 0.25489
42.9922 14.0462 -77.1396 0.041161 0.869704 -0.491855 255 255 255 255 0.144329 0.25489
70.0547 30.2254 -46.2666 0.041161 0.869704 -0.491855 255 255 255 255 0.144329 0.25489
71.3906 9.5762 -82.667 0.041161 0.869704 -0.491855 255 255 255 255 0.144329 0.25489
71.3906 9.5762 -82.667 -0.238254 -0.448363 -0.861514 255 255 255 255 0.144329 0.25489
59.6601 -25.485 -61.1758 -0.238254 -0.448363 -0.861514 255 255 255 255 0.144329 0.25489
42.9922 14.0462 -77.1396 -0.238254 -0.448363 -0.861514 255 255 255 255 0.144329 0.25489
64.4531 31.2422 -11.8213 0.208027 0.978111 0.004957 255 255 255 255 0.144329 0.25489
100.391 23.5138 4.97756 0.208027 0.978111 0.004957 255 255 255 255 0.144329 0.25489
70.0547 30.2254 -46.2666 0.208027 0.978111 0.004957 255 255 255 255 0.144329 0.25489
100.391 23.5138 4.97756 0.907025 -0.136732 0.398258 255 255 255 255 0.144329 0.25489
80.664 -22.7113 34.0342 0.907025 -0.136732 0.398258 255 255 255 255 0.144329 0.25489
91.5039 -27.2424 7.79105 0.907025 -0.136732 0.398258 255 255 255 255 0.144329 0.25489
7.74998 17.582 -53.4883 -0.146097 0.923111 -0.355698 255 255 255 255 0.144329 0.25489
70.0547 30.2254 -46.2666 -0.146097 0.923111 -0.355698 255 255 255 255 0.144329 0.25489
42.9922 14.0462 -77.1396 -0.146097 0.923111 -0.355698 255 255 255 255 0.144329 0.25489
56.8945 -33.8842 -21.4189 0.295231 -0.945878 -0.134731 255 255 255 255 0.144329 0.25489
76.6211 -26.6821 -28.7549 0.295231 -0.945878 -0.134731 255 255 255 255 0.144329 0.25489
91.5039 -27.2424 7.79105 0.295231 -0.945878 -0.134731 255 255 255 255 0.144329 0.25489
72.7617 23.3728 21.4912 0.487254 0.306148 0.817836 255 255 255 255 0.144329 0.25489
80.664 -22.7113 34.0342 0.487254 0.306148 0.817836 255 255 255 255 0.144329 0.25489
100.391 23.5138 4.97756 0.487254 0.306148 0.817836 255 255 255 255 0.144329 0.25489
72.7617 23.3728 21.4912 0.11521 0.972779 0.201066 255 255 255 255 0.144329 0.25489
100.391 23.5138 4.97756 0.11521 0.972779 0.201066 255 255 255 255 0.144329 0.25489
64.4531 31.2422 -11.8213 0.11521 0.972779 0.201066 255 255 255 255 0.144329 0.25489
64.4531 31.2422 -11.8213 -0.307029 0.948504 -0.077929 255 255 255 255 0.144329 0.25489
70.0547 30.2254 -46.2666 -0.307029 0.948504 -0.077929 255 255 255 255 0.144329 0.25489
34.9101 22.5955 -0.668921 -0.307029 0.948504 -0.077929 255 255 255 255 0.144329 0.25489
17.9101 -6.64134 -56.0517 -0.311908 -0.465901 -0.82804 255 255 255 255 0.144329 0.25489
42.9922 14.0462 -77.1396 -0.311908 -0.465901 -0.82804 255 255 255 255 0.144329 0.25489
59.6601 -25.485 -61.1758 -0.311908 -0.465901 -0.82804 255 255 255 255 0.144329 0.25489
56.8945 -33.8842 -21.4189 0.033644 -0.982439 0.183524 255 255 255 255 0.144329 0.25489
91.5039 -27.2424 7.79105 0.033644 -0.982439 0.183524 255 255 255 255 0.144329 0.25489
80.664 -22.7113 34.0342 0.033644 -0.982439 0.183524 255 255 255 255 0.144329 0.25489
56.8945 -33.8842 -21.4189 0.303622 -0.95081 0.061427 255 255 255 255 0.144329 0.25489
80.664 -22.7113 34.0342 0.303622 -0.95081 0.061427 255 255 255 255 0.144329 0.25489
66.0898 -26.4244 48.5987 0.303622 -0.95081 0.061427 255 255 255 255 0.144329 0.25489
59.6601 -25.485 -61.1758 0.277573 -0.94368 -0.180057 255 255 255 255 0.144329 0.25489
76.6211 -26.6821 -28.7549 0.277573 -0.94368 -0.180057 255 255 255 255 0.144329 0.25489
56.8945 -33.8842 -21.4189 0.277573 -0.94368 -0.180057 255 255 255 255 0.144329 0.25489
72.7617 23.3728 21.4912 -0.176185 0.947253 0.267713 255 255 255 255 0.144329 0.25489
64.4531 31.2422 -11.8213 -0.176185 0.947253 0.267713 255 255 255 255 0.144329 0.25489
34.9101 22.5955 -0.668921 -0.176185 0.947253 0.267713 255 255 255 255 0.144329 0.25489
66.0898 -26.4244 48.5987 0.454523 0.641189 0.618292 255 255 255 255 0.144329 0.25489
80.664 -22.7113 34.0342 0.454523 0.641189 0.618292 255 255 255 255 0.144329 0.25489
39.5703 6.39546 34.0586 0.454523 0.641189 0.618292 255 255 255 255 0.144329 0.25489
29.4062 -32.2764 16.6172 0.0747 -0.99258 0.095941 255 255 255 255 0.144329 0.25489
56.8945 -33.8842 -21.4189 0.0747 -0.99258 0.095941 255 255 255 255 0.144329 0.25489
66.0898 -26.4244 48.5987 0.0747 -0.99258 0.095941 255 255 255 255 0.144329 0.25489
34.9101 22.5955 -0.668921 -0.113261 0.990464 0.07844 255 255 255 255 0.144329 0.25489
70.0547 30.2254 -46.2666 -0.113261 0.990464 0.07844 255 255 255 255 0.144329 0.25489
15.9844 22.1171 -21.956 -0.113261 0.990464 0.07844 255 255 255 255 0.144329 0.25489
80.664 -22.7113 34.0342 0.205747 0.289695 0.934743 255 255 255 255 0.144329 0.25489
72.7617 23.3728 21.4912 0.205747 0.289695 0.934743 255 255 255 255 0.144329 0.25489
39.5703 6.39546 34.0586 0.205747 0.289695 0.934743 255 255 255 255 0.144329 0.25489
59.6601 -25.485 -61.1758 -0.423566 -0.879894 -0.215355 255 255 255 255 0.144329 0.25489
56.8945 -33.8842 -21.4189 -0.423566 -0.879894 -0.215355 255 255 255 255 0.144329 0.25489
17.9101 -6.64134 -56.0517 -0.423566 -0.879894 -0.215355 255 255 255 255 0.144329 0.25489
47.2109 55.145 26.1934 0.934532 0.299721 -0.19188 255 255 255 255 0.144329 0.25489
42.9336 40.6458 -17.2871 0.934532 0.299721 -0.19188 255 255 255 255 0.144329 0.25489
26.3554 65.7929 -58.749 0.934532 0.299721 -0.19188 255 255 255 255 0.144329 0.25489
42.9336 40.6458 -17.2871 0.880655 -0.156628 -0.447117 255 255 255 255 0.144329 0.25489
18.6054 33.9067 -62.8437 0.880655 -0.156628 -0.447117 255 255 255 255 0.144329 0.25489
26.3554 65.7929 -58.749 0.880655 -0.156628 -0.447117 255 255 255 255 0.144329 0.25489
42.9336 40.6458 -17.2871 0.713824 -0.638963 -0.286675 255 255 255 255 0.144329 0.25489
7.74998 17.582 -53.4883 0.713824 -0.638963 -0.286675 255 255 255 255 0.144329 0.25489
18.6054 33.9067 -62.8437 0.713824 -0.638963 -0.286675 255 255 255 255 0.144329 0.25489
56.8945 -33.8842 -21.4189 -0.608649 -0.790938 0.062957 255 255 255 255 0.144329 0.25489
20.0039 -3.36752 5.31937 -0.608649 -0.790938 0.062957 255 255 255 255 0.144329 0.25489
17.9101 -6.64134 -56.0517 -0.608649 -0.790938 0.062957 255 255 255 255 0.144329 0.25489
56.8945 -33.8842 -21.4189 -0.736458 -0.440254 -0.51362 255 255 255 255 0.144329 0.25489
29.4062 -32.2764 16.6172 -0.736458 -0.440254 -0.51362 255 255 255 255 0.144329 0.25489
20.0039 -3.36752 5.31937 -0.736458 -0.440254 -0.51362 255 255 255 255 0.144329 0.25489
42.9336 40.6458 -17.2871 0.924875 -0.378632 0.035277 255 255 255 255 0.144329 0.25489
47.2109 55.145 26.1934 0.924875 -0.378632 0.035277 255 255 255 255 0.144329 0.25489
34.9101 22.5955 -0.668921 0.924875 -0.378632 0.035277 255 255 255 255 0.144329 0.25489
72.7617 23.3728 21.4912 -0.273173 0.857212 0.436537 255 255 255 255 0.144329 0.25489
34.9101 22.5955 -0.668921 -0.273173 0.857212 0.436537 255 255 255 255 0.144329 0.25489
39.5703 6.39546 34.0586 -0.273173 0.857212 0.436537 255 255 255 255 0.144329 0.25489
7.74998 17.582 -53.4883 0.901972 0.396431 -0.171139 255 255 255 255 0.144329 0.25489
17.9101 -6.64134 -56.0517 0.901972 0.396431 -0.171139 255 255 255 255 0.144329 0.25489
8.25388 5.64725 -78.4785 0.901972 0.396431 -0.171139 255 255 255 255 0.144329 0.25489
29.4062 -32.2764 16.6172 -0.63099 -0.175027 0.755789 255 255 255 255 0.144329 0.25489
66.0898 -26.4244 48.5987 -0.63099 -0.175027 0.755789 255 255 255 255 0.144329 0.25489
39.5703 6.39546 34.0586 -0.63099 -0.175027 0.755789 255 255 255 255 0.144329 0.25489
26.3554 65.7929 -58.749 0.379247 0.925014 0.02284 255 255 255 255 0.144329 0.25489
-0.968775 77.1177 -63.6943 0.379247 0.925014 0.02284 255 255 255 255 0.144329 0.25489
47.2109 55.145 26.1934 0.379247 0.925014 0.02284 255 255 255 255 0.144329 0.25489
34.9101 22.5955 -0.668921 0.946473 -0.319441 -0.046336 255 255 255 255 0.144329 0.25489
47.2109 55.145 26.1934 0.946473 -0.319441 -0.046336 255 255 255 255 0.144329 0.25489
36.9883 24.4836 28.7627 0.946473 -0.319441 -0.046336 255 255 255 255 0.144329 0.25489
34.9101 22.5955 -0.668921 0.552746 -0.683986 -0.476062 255 255 255 255 0.144329 0.25489
15.9844 22.1171 -21.956 0.552746 -0.683986 -0.476062 255 255 255 255 0.144329 0.25489
42.9336 40.6458 -17.2871 0.552746 -0.683986 -0.476062 255 255 255 255 0.144329 0.25489
15.9844 22.1171 -21.956 0.569893 -0.821144 -0.030722 255 255 255 255 0.144329 0.25489
7.74998 17.582 -53.4883 0.569893 -0.821144 -0.030722 255 255 255 255 0.144329 0.25489
42.9336 40.6458 -17.2871 0.569893 -0.821144 -0.030722 255 255 255 255 0.144329 0.25489
39.5703 6.39546 34.0586 -0.819032 -0.042781 0.572151 255 255 255 255 0.144329 0.25489
20.0039 -3.36752 5.31937 -0.819032 -0.042781 0.572151 255 255 255 255 0.144329 0.25489
29.4062 -32.2764 16.6172 -0.819032 -0.042781 0.572151 255 255 255 255 0.144329 0.25489
47.2109 55.145 26.1934 0.664927 0.725105 -0.179151 255 255 255 255 0.144329 0.25489
-0.968775 77.1177 -63.6943 0.664927 0.725105 -0.179151 255 255 255 255 0.144329 0.25489
23.8437 73.9934 15.7529 0.664927 0.725105 -0.179151 255 255 255 255 0.144329 0.25489
20.3242 0.291971 61.2696 0.726122 0.318568 0.609312 255 255 255 255 0.144329 0.25489
36.9883 24.4836 28.7627 0.726122 0.318568 0.609312 255 255 255 255 0.144329 0.25489
3.02341 59.1777 51.0996 0.726122 0.318568 0.609312 255 255 255 255 0.144329 0.25489
34.9101 22.5955 -0.668921 -0.775525 0.525836 0.349366 255 255 255 255 0.144329 0.25489
20.0039 -3.36752 5.31937 -0.775525 0.525836 0.349366 255 255 255 255 0.144329 0.25489
39.5703 6.39546 34.0586 -0.775525 0.525836 0.349366 255 255 255 255 0.144329 0.25489
17.9101 -6.64134 -56.0517 0.538372 -0.619522 -0.571269 255 255 255 255 0.144329 0.25489
-18.6953 -17.4694 -78.8066 0.538372 -0.619522 -0.571269 255 255 255 255 0.144329 0.25489
8.25388 5.64725 -78.4785 0.538372 -0.619522 -0.571269 255 255 255 255 0.144329 0.25489
23.8437 73.9934 15.7529 0.544949 0.827089 -0.13767 255 255 255 255 0.144329 0.25489
-0.968775 77.1177 -63.6943 0.544949 0.827089 -0.13767 255 255 255 255 0.144329 0.25489
-10.5547 86.3306 -46.29 0.544949 0.827089 -0.13767 255 255 255 255 0.144329 0.25489
18.6054 33.9067 -62.8437 0.488842 -0.00679 -0.872346 255 255 255 255 0.144329 0.25489
-38.9805 36.2561 -95.1318 0.488842 -0.00679 -0.872346 255 255 255 255 0.144329 0.25489
26.3554 65.7929 -58.749 0.488842 -0.00679 -0.872346 255 255 255 255 0.144329 0.25489
36.9883 24.4836 28.7627 0.483006 -0.088034 0.87118 255 255 255 255 0.144329 0.25489
47.2109 55.145 26.1934 0.483006 -0.088034 0.87118 255 255 255 255 0.144329 0.25489
3.02341 59.1777 51.0996 0.483006 -0.088034 0.87118 255 255 255 255 0.144329 0.25489
7.74998 17.582 -53.4883 0.865974 -0.444253 0.229627 255 255 255 255 0.144329 0.25489
8.25388 5.64725 -78.4785 0.865974 -0.444253 0.229627 255 255 255 255 0.144329 0.25489
18.6054 33.9067 -62.8437 0.865974 -0.444253 0.229627 255 255 255 255 0.144329 0.25489
20.0039 -3.36752 5.31937 -0.104644 -0.992902 0.056536 255 255 255 255 0.144329 0.25489
-10.3399 0.141141 10.7754 -0.104644 -0.992902 0.056536 255 255 255 255 0.144329 0.25489
17.9101 -6.64134 -56.0517 -0.104644 -0.992902 0.056536 255 255 255 255 0.144329 0.25489
-18.6953 -17.4694 -78.8066 0.178478 -0.968483 0.173743 255 255 255 255 0.144329 0.25489
17.9101 -6.64134 -56.0517 0.178478 -0.968483 0.173743 255 255 255 255 0.144329 0.25489
-10.3399 0.141141 10.7754 0.178478 -0.968483 0.173743 255 255 255 255 0.144329 0.25489
36.9883 24.4836 28.7627 0.810793 -0.585001 -0.019719 255 255 255 255 0.144329 0.25489
20.3242 0.291971 61.2696 0.810793 -0.585001 -0.019719 255 255 255 255 0.144329 0.25489
34.9101 22.5955 -0.668921 0.810793 -0.585001 -0.019719 255 255 255 255 0.144329 0.25489
-38.9805 36.2561 -95.1318 0.314207 0.377785 -0.870949 255 255 255 255 0.144329 0.25489
-0.968775 77.1177 -63.6943 0.314207 0.377785 -0.870949 255 255 255 255 0.144329 0.25489
26.3554 65.7929 -58.749 0.314207 0.377785 -0.870949 255 255 255 255 0.144329 0.25489
8.25388 5.64725 -78.4785 0.477617 0.284862 -0.831105 255 255 255 255 0.144329 0.25489
-38.9805 36.2561 -95.1318 0.477617 0.284862 -0.831105 255 255 255 255 0.144329 0.25489
18.6054 33.9067 -62.8437 0.477617 0.284862 -0.831105 255 255 255 255 0.144329 0.25489
-38.9805 36.2561 -95.1318 0.104535 -0.345978 -0.932401 255 255 255 255 0.144329 0.25489
8.25388 5.64725 -78.4785 0.104535 -0.345978 -0.932401 255 255 255 255 0.144329 0.25489
-47.543 3.41625 -83.9062 0.104535 -0.345978 -0.932401 255 255 255 255 0.144329 0.25489
-18.6953 -17.4694 -78.8066 0.100383 -0.102979 -0.989605 255 255 255 255 0.144329 0.25489
-47.543 3.41625 -83.9062 0.100383 -0.102979 -0.989605 255 255 255 255 0.144329 0.25489
8.25388 5.64725 -78.4785 0.100383 -0.102979 -0.989605 255 255 255 255 0.144329 0.25489
-17.4883 87.3607 -22.9287 0.274236 0.96087 0.039024 255 255 255 255 0.144329 0.25489
23.8437 73.9934 15.7529 0.274236 0.96087 0.039024 255 255 255 255 0.144329 0.25489
-10.5547 86.3306 -46.29 0.274236 0.96087 0.039024 255 255 255 255 0.144329 0.25489
34.9101 22.5955 -0.668921 0.797719 -0.343716 0.495483 255 255 255 255 0.144329 0.25489
-3.14065 2.30217 46.5147 0.797719 -0.343716 0.495483 255 255 255 255 0.144329 0.25489
20.0039 -3.36752 5.31937 0.797719 -0.343716 0.495483 255 255 255 255 0.144329 0.25489
47.2109 55.145 26.1934 0.371527 0.75775 0.536454 255 255 255 255 0.144329 0.25489
23.8437 73.9934 15.7529 0.371527 0.75775 0.536454 255 255 255 255 0.144329 0.25489
3.02341 59.1777 51.0996 0.371527 0.75775 0.536454 255 255 255 255 0.144329 0.25489
-36.6758 82.1614 -40.8164 -0.287381 0.737519 -0.611129 255 255 255 255 0.144329 0.25489
-0.968775 77.1177 -63.6943 -0.287381 0.737519 -0.611129 255 255 255 255 0.144329 0.25489
-38.9805 36.2561 -95.1318 -0.287381 0.737519 -0.611129 255 255 255 255 0.144329 0.25489
-3.14065 2.30217 46.5147 0.115606 -0.942919 -0.312313 255 255 255 255 0.144329 0.25489
34.9101 22.5955 -0.668921 0.115606 -0.942919 -0.312313 255 255 255 255 0.144329 0.25489
20.3242 0.291971 61.2696 0.115606 -0.942919 -0.312313 255 255 255 255 0.144329 0.25489
-3.14065 2.30217 46.5147 -0.10026 -0.991727 0.080162 255 255 255 255 0.144329 0.25489
-10.3399 0.141141 10.7754 -0.10026 -0.991727 0.080162 255 255 255 255 0.144329 0.25489
20.0039 -3.36752 5.31937 -0.10026 -0.991727 0.080162 255 255 255 255 0.144329 0.25489
-18.6953 -17.4694 -78.8066 0.24926 -0.954386 0.164369 255 255 255 255 0.144329 0.25489
-10.3399 0.141141 10.7754 0.24926 -0.954386 0.164369 255 255 255 255 0.144329 0.25489
-59.9883 -23.5153 -51.292 0.24926 -0.954386 0.164369 255 255 255 255 0.144329 0.25489
-10.5547 86.3306 -46.29 -0.243272 0.795445 -0.555055 255 255 255 255 0.144329 0.25489
-0.968775 77.1177 -63.6943 -0.243272 0.795445 -0.555055 255 255 255 255 0.144329 0.25489
-36.6758 82.1614 -40.8164 -0.243272 0.795445 -0.555055 255 255 255 255 0.144329 0.25489
-38.9805 36.2561 -95.1318 -0.390947 0.711086 -0.584394 255 255 255 255 0.144329 0.25489
-72.6211 29.5562 -80.7793 -0.390947 0.711086 -0.584394 255 255 255 255 0.144329 0.25489
-36.6758 82.1614 -40.8164 -0.390947 0.711086 -0.584394 255 255 255 255 0.144329 0.25489
23.8437 73.9934 15.7529 0.339967 0.939647 -0.038545 255 255 255 255 0.144329 0.25489
-17.4883 87.3607 -22.9287 0.339967 0.939647 -0.038545 255 255 255 255 0.144329 0.25489
-19.5781 89.953 21.834 0.339967 0.939647 -0.038545 255 255 255 255 0.144329 0.25489
-72.6211 29.5562 -80.7793 0.095652 0.55988 -0.823034 255 255 255 255 0.144329 0.25489
-73.9024 55.2851 -63.4258 0.095652 0.55988 -0.823034 255 255 255 255 0.144329 0.25489
-36.6758 82.1614 -40.8164 0.095652 0.55988 -0.823034 255 255 255 255 0.144329 0.25489
-11.336 8.94145 75.0772 0.388586 -0.046649 0.920231 255 255 255 255 0.144329 0.25489
20.3242 0.291971 61.2696 0.388586 -0.046649 0.920231 255 255 255 255 0.144329 0.25489
-29.5039 28.785 83.7549 0.388586 -0.046649 0.920231 255 255 255 255 0.144329 0.25489
-47.543 3.41625 -83.9062 -0.352554 -0.651076 -0.672164 255 255 255 255 0.144329 0.25489
-18.6953 -17.4694 -78.8066 -0.352554 -0.651076 -0.672164 255 255 255 255 0.144329 0.25489
-59.9883 -23.5153 -51.292 -0.352554 -0.651076 -0.672164 255 255 255 255 0.144329 0.25489
-36.6758 82.1614 -40.8164 -0.176388 0.979672 -0.095549 255 255 255 255 0.144329 0.25489
-17.4883 87.3607 -22.9287 -0.176388 0.979672 -0.095549 255 255 255 255 0.144329 0.25489
-10.5547 86.3306 -46.29 -0.176388 0.979672 -0.095549 255 255 255 255 0.144329 0.25489
-38.9805 36.2561 -95.1318 -0.344937 -0.221824 -0.912038 255 255 255 255 0.144329 0.25489
-47.543 3.41625 -83.9062 -0.344937 -0.221824 -0.912038 255 255 255 255 0.144329 0.25489
-72.6211 29.5562 -80.7793 -0.344937 -0.221824 -0.912038 255 255 255 255 0.144329 0.25489
-36.9766 0.907067 31.2823 0.01538 -0.998241 0.057262 255 255 255 255 0.144329 0.25489
-10.3399 0.141141 10.7754 0.01538 -0.998241 0.057262 255 255 255 255 0.144329 0.25489
-3.14065 2.30217 46.5147 0.01538 -0.998241 0.057262 255 255 255 255 0.144329 0.25489
-62.1602 -13.7589 -14.5273 0.128919 -0.956565 0.261463 255 255 255 255 0.144329 0.25489
-59.9883 -23.5153 -51.292 0.128919 -0.956565 0.261463 255 255 255 255 0.144329 0.25489
-10.3399 0.141141 10.7754 0.128919 -0.956565 0.261463 255 255 255 255 0.144329 0.25489
-29.5039 28.785 83.7549 0.527319 0.292689 0.797664 255 255 255 255 0.144329 0.25489
20.3242 0.291971 61.2696 0.527319 0.292689 0.797664 255 255 255 255 0.144329 0.25489
3.02341 59.1777 51.0996 0.527319 0.292689 0.797664 255 255 255 255 0.144329 0.25489
-72.6211 29.5562 -80.7793 -0.676603 -0.597666 -0.43012 255 255 255 255 0.144329 0.25489
-47.543 3.41625 -83.9062 -0.676603 -0.597666 -0.43012 255 255 255 255 0.144329 0.25489
-72.168 6.2388 -49.0918 -0.676603 -0.597666 -0.43012 255 255 255 255 0.144329 0.25489
3.02341 59.1777 51.0996 0.356751 0.767915 0.532011 255 255 255 255 0.144329 0.25489
23.8437 73.9934 15.7529 0.356751 0.767915 0.532011 255 255 255 255 0.144329 0.25489
-19.5781 89.953 21.834 0.356751 0.767915 0.532011 255 255 255 255 0.144329 0.25489
3.02341 59.1777 51.0996 0.428356 0.858338 0.28243 255 255 255 255 0.144329 0.25489
-29.9102 78.5814 42.0791 0.428356 0.858338 0.28243 255 255 255 255 0.144329 0.25489
-22.3633 58.9819 90.1983 0.428356 0.858338 0.28243 255 255 255 255 0.144329 0.25489
-47.543 3.41625 -83.9062 -0.793307 -0.284952 -0.538021 255 255 255 255 0.144329 0.25489
-59.9883 -23.5153 -51.292 -0.793307 -0.284952 -0.538021 255 255 255 255 0.144329 0.25489
-72.168 6.2388 -49.0918 -0.793307 -0.284952 -0.538021 255 255 255 255 0.144329 0.25489
-63.4102 94.3835 12.5762 -0.038061 0.969767 -0.241048 255 255 255 255 0.144329 0.25489
-17.4883 87.3607 -22.9287 -0.038061 0.969767 -0.241048 255 255 255 255 0.144329 0.25489
-36.6758 82.1614 -40.8164 -0.038061 0.969767 -0.241048 255 255 255 255 0.144329 0.25489
-39.8282 3.48392 50.1153 -0.039292 -0.996537 -0.073282 255 255 255 255 0.144329 0.25489
-3.14065 2.30217 46.5147 -0.039292 -0.996537 -0.073282 255 255 255 255 0.144329 0.25489
20.3242 0.291971 61.2696 -0.039292 -0.996537 -0.073282 255 255 255 255 0.144329 0.25489
-62.1602 -13.7589 -14.5273 0.147261 -0.962641 0.227235 255 255 255 255 0.144329 0.25489
-10.3399 0.141141 10.7754 0.147261 -0.962641 0.227235 255 255 255 255 0.144329 0.25489
-36.9766 0.907067 31.2823 0.147261 -0.962641 0.227235 255 255 255 255 0.144329 0.25489
-29.5039 28.785 83.7549 0.800771 -0.29998 0.518438 255 255 255 255 0.144329 0.25489
3.02341 59.1777 51.0996 0.800771 -0.29998 0.518438 255 255 255 255 0.144329 0.25489
-22.3633 58.9819 90.1983 0.800771 -0.29998 0.518438 255 255 255 255 0.144329 0.25489
-39.8282 3.48392 50.1153 -0.111232 -0.936778 0.331775 255 255 255 255 0.144329 0.25489
20.3242 0.291971 61.2696 -0.111232 -0.936778 0.331775 255 255 255 255 0.144329 0.25489
-11.336 8.94145 75.0772 -0.111232 -0.936778 0.331775 255 255 255 255 0.144329 0.25489
-36.9766 0.907067 31.2823 -0.018894 -0.990972 0.13273 255 255 255 255 0.144329 0.25489
-3.14065 2.30217 46.5147 -0.018894 -0.990972 0.13273 255 255 255 255 0.144329 0.25489
-39.8282 3.48392 50.1153 -0.018894 -0.990972 0.13273 255 255 255 255 0.144329 0.25489
-29.5039 28.785 83.7549 -0.420795 -0.65824 0.62422 255 255 255 255 0.144329 0.25489
-39.8282 3.48392 50.1153 -0.420795 -0.65824 0.62422 255 255 255 255 0.144329 0.25489
-11.336 8.94145 75.0772 -0.420795 -0.65824 0.62422 255 255 255 255 0.144329 0.25489
-72.168 6.2388 -49.0918 -0.838766 -0.310257 -0.447451 255 255 255 255 0.144329 0.25489
-59.9883 -23.5153 -51.292 -0.838766 -0.310257 -0.447451 255 255 255 255 0.144329 0.25489
-82.2774 -3.23512 -23.5722 -0.838766 -0.310257 -0.447451 255 255 255 255 0.144329 0.25489
-59.9883 -23.5153 -51.292 -0.520825 -0.832231 0.190084 255 255 255 255 0.144329 0.25489
-62.1602 -13.7589 -14.5273 -0.520825 -0.832231 0.190084 255 255 255 255 0.144329 0.25489
-82.2774 -3.23512 -23.5722 -0.520825 -0.832231 0.190084 255 255 255 255 0.144329 0.25489
-29.9102 78.5814 42.0791 0.291367 0.76286 0.577191 255 255 255 255 0.144329 0.25489
3.02341 59.1777 51.0996 0.291367 0.76286 0.577191 255 255 255 255 0.144329 0.25489
-19.5781 89.953 21.834 0.291367 0.76286 0.577191 255 255 255 255 0.144329 0.25489
-73.9024 55.2851 -63.4258 -0.425705 0.850202 -0.309728 255 255 255 255 0.144329 0.25489
-78.5938 71.0308 -13.7558 -0.425705 0.850202 -0.309728 255 255 255 255 0.144329 0.25489
-36.6758 82.1614 -40.8164 -0.425705 0.850202 -0.309728 255 255 255 255 0.144329 0.25489
-17.4883 87.3607 -22.9287 0.111353 0.992405 -0.052274 255 255 255 255 0.144329 0.25489
-63.4102 94.3835 12.5762 0.111353 0.992405 -0.052274 255 255 255 255 0.144329 0.25489
-19.5781 89.953 21.834 0.111353 0.992405 -0.052274 255 255 255 255 0.144329 0.25489
-111.945 6.68389 -46.2051 -0.051924 -0.804703 -0.591403 255 255 255 255 0.144329 0.25489
-72.6211 29.5562 -80.7793 -0.051924 -0.804703 -0.591403 255 255 255 255 0.144329 0.25489
-72.168 6.2388 -49.0918 -0.051924 -0.804703 -0.591403 255 255 255 255 0.144329 0.25489
-77.5313 3.84811 19.3086 -0.180208 -0.903703 0.38839 255 255 255 255 0.144329 0.25489
-62.1602 -13.7589 -14.5273 -0.180208 -0.903703 0.38839 255 255 255 255 0.144329 0.25489
-36.9766 0.907067 31.2823 -0.180208 -0.903703 0.38839 255 255 255 255 0.144329 0.25489
-63.4102 94.3835 12.5762 -0.474168 0.776411 -0.415151 255 255 255 255 0.144329 0.25489
-36.6758 82.1614 -40.8164 -0.474168 0.776411 -0.415151 255 255 255 255 0.144329 0.25489
-78.5938 71.0308 -13.7558 -0.474168 0.776411 -0.415151 255 255 255 255 0.144329 0.25489
-19.5781 89.953 21.834 -0.001963 0.898372 0.43923 255 255 255 255 0.144329 0.25489
-63.4102 94.3835 12.5762 -0.001963 0.898372 0.43923 255 255 255 255 0.144329 0.25489
-60.6524 80.2276 41.542 -0.001963 0.898372 0.43923 255 255 255 255 0.144329 0.25489
-60.6524 80.2276 41.542 0.037409 0.862993 0.503829 255 255 255 255 0.144329 0.25489
-29.9102 78.5814 42.0791 0.037409 0.862993 0.503829 255 255 255 255 0.144329 0.25489
-19.5781 89.953 21.834 0.037409 0.862993 0.503829 255 255 255 255 0.144329 0.25489
-29.9102 78.5814 42.0791 -0.080009 0.918707 0.38675 255 255 255 255 0.144329 0.25489
-61.4766 64.9003 68.0479 -0.080009 0.918707 0.38675 255 255 255 255 0.144329 0.25489
-22.3633 58.9819 90.1983 -0.080009 0.918707 0.38675 255 255 255 255 0.144329 0.25489
-75.3594 16.4208 55.5791 -0.18002 -0.758797 0.625955 255 255 255 255 0.144329 0.25489
-39.8282 3.48392 50.1153 -0.18002 -0.758797 0.625955 255 255 255 255 0.144329 0.25489
-29.5039 28.785 83.7549 -0.18002 -0.758797 0.625955 255 255 255 255 0.144329 0.25489
-75.3594 16.4208 55.5791 -0.330362 -0.94057 0.078674 255 255 255 255 0.144329 0.25489
-36.9766 0.907067 31.2823 -0.330362 -0.94057 0.078674 255 255 255 255 0.144329 0.25489
-39.8282 3.48392 50.1153 -0.330362 -0.94057 0.078674 255 255 255 255 0.144329 0.25489
-29.9102 78.5814 42.0791 0.037541 0.864567 0.501114 255 255 255 255 0.144329 0.25489
-60.6524 80.2276 41.542 0.037541 0.864567 0.501114 255 255 255 255 0.144329 0.25489
-61.4766 64.9003 68.0479 0.037541 0.864567 0.501114 255 255 255 255 0.144329 0.25489
-116.566 46.0614 -14.0537 -0.725504 0.382178 -0.57235 255 255 255 255 0.144329 0.25489
-72.6211 29.5562 -80.7793 -0.725504 0.382178 -0.57235 255 255 255 255 0.144329 0.25489
-111.945 6.68389 -46.2051 -0.725504 0.382178 -0.57235 255 255 255 255 0.144329 0.25489
-75.3594 16.4208 55.5791 -0.286337 -0.614072 0.735477 255 255 255 255 0.144329 0.25489
-29.5039 28.785 83.7549 -0.286337 -0.614072 0.735477 255 255 255 255 0.144329 0.25489
-82.8047 34.8568 68.0733 -0.286337 -0.614072 0.735477 255 255 255 255 0.144329 0.25489
-82.2774 -3.23512 -23.5722 -0.522026 -0.830354 0.19494 255 255 255 255 0.144329 0.25489
-62.1602 -13.7589 -14.5273 -0.522026 -0.830354 0.19494 255 255 255 255 0.144329 0.25489
-77.5313 3.84811 19.3086 -0.522026 -0.830354 0.19494 255 255 255 255 0.144329 0.25489
-116.566 46.0614 -14.0537 -0.522087 0.797578 -0.302149 255 255 255 255 0.144329 0.25489
-78.5938 71.0308 -13.7558 -0.522087 0.797578 -0.302149 255 255 255 255 0.144329 0.25489
-73.9024 55.2851 -63.4258 -0.522087 0.797578 -0.302149 255 255 255 255 0.144329 0.25489
-78.5938 71.0308 -13.7558 -0.915404 0.320367 0.243721 255 255 255 255 0.144329 0.25489
-60.6524 80.2276 41.542 -0.915404 0.320367 0.243721 255 255 255 255 0.144329 0.25489
-63.4102 94.3835 12.5762 -0.915404 0.320367 0.243721 255 255 255 255 0.144329 0.25489
-72.6211 29.5562 -80.7793 -0.740071 0.350342 -0.574069 255 255 255 255 0.144329 0.25489
-116.566 46.0614 -14.0537 -0.740071 0.350342 -0.574069 255 255 255 255 0.144329 0.25489
-73.9024 55.2851 -63.4258 -0.740071 0.350342 -0.574069 255 255 255 255 0.144329 0.25489
-29.5039 28.785 83.7549 -0.293626 -0.132568 0.946684 255 255 255 255 0.144329 0.25489
-22.3633 58.9819 90.1983 -0.293626 -0.132568 0.946684 255 255 255 255 0.144329 0.25489
-82.8047 34.8568 68.0733 -0.293626 -0.132568 0.946684 255 255 255 255 0.144329 0.25489
-112.898 16.7096 16.6709 -0.239774 -0.944556 0.224325 255 255 255 255 0.144329 0.25489
-36.9766 0.907067 31.2823 -0.239774 -0.944556 0.224325 255 255 255 255 0.144329 0.25489
-75.3594 16.4208 55.5791 -0.239774 -0.944556 0.224325 255 255 255 255 0.144329 0.25489
-77.5313 3.84811 19.3086 -0.268828 -0.58181 0.767612 255 255 255 255 0.144329 0.25489
-36.9766 0.907067 31.2823 -0.268828 -0.58181 0.767612 255 255 255 255 0.144329 0.25489
-112.898 16.7096 16.6709 -0.268828 -0.58181 0.767612 255 255 255 255 0.144329 0.25489
-72.168 6.2388 -49.0918 -0.037183 -0.928613 -0.369182 255 255 255 255 0.144329 0.25489
-112.977 -5.75844 -14.8047 -0.037183 -0.928613 -0.369182 255 255 255 255 0.144329 0.25489
-111.945 6.68389 -46.2051 -0.037183 -0.928613 -0.369182 255 255 255 255 0.144329 0.25489
-82.2774 -3.23512 -23.5722 0.123053 -0.981232 0.148464 255 255 255 255 0.144329 0.25489
-77.5313 3.84811 19.3086 0.123053 -0.981232 0.148464 255 255 255 255 0.144329 0.25489
-112.977 -5.75844 -14.8047 0.123053 -0.981232 0.148464 255 255 255 255 0.144329 0.25489
-78.5938 71.0308 -13.7558 -0.076999 0.987264 -0.139215 255 255 255 255 0.144329 0.25489
-103.375 71.0874 0.352555 -0.076999 0.987264 -0.139215 255 255 255 255 0.144329 0.25489
-60.6524 80.2276 41.542 -0.076999 0.987264 -0.139215 255 255 255 255 0.144329 0.25489
-112.898 16.7096 16.6709 -0.321233 -0.770396 0.550726 255 255 255 255 0.144329 0.25489
-112.977 -5.75844 -14.8047 -0.321233 -0.770396 0.550726 255 255 255 255 0.144329 0.25489
-77.5313 3.84811 19.3086 -0.321233 -0.770396 0.550726 255 255 255 255 0.144329 0.25489
-72.168 6.2388 -49.0918 -0.025094 -0.933903 -0.356645 255 255 255 255 0.144329 0.25489
-82.2774 -3.23512 -23.5722 -0.025094 -0.933903 -0.356645 255 255 255 255 0.144329 0.25489
-112.977 -5.75844 -14.8047 -0.025094 -0.933903 -0.356645 255 255 255 255 0.144329 0.25489
-103.375 71.0874 0.352555 -0.485899 0.811806 0.323842 255 255 255 255 0.144329 0.25489
-118.43 49.6693 31.4551 -0.485899 0.811806 0.323842 255 255 255 255 0.144329 0.25489
-60.6524 80.2276 41.542 -0.485899 0.811806 0.323842 255 255 255 255 0.144329 0.25489
-78.5938 71.0308 -13.7558 -0.39271 0.605479 -0.692224 255 255 255 255 0.144329 0.25489
-116.566 46.0614 -14.0537 -0.39271 0.605479 -0.692224 255 255 255 255 0.144329 0.25489
-103.375 71.0874 0.352555 -0.39271 0.605479 -0.692224 255 255 255 255 0.144329 0.25489
-82.8047 34.8568 68.0733 -0.433068 0.308154 0.84705 255 255 255 255 0.144329 0.25489
-22.3633 58.9819 90.1983 -0.433068 0.308154 0.84705 255 255 255 255 0.144329 0.25489
-61.4766 64.9003 68.0479 -0.433068 0.308154 0.84705 255 255 255 255 0.144329 0.25489
-106.285 26.2786 48.3662 -0.356419 -0.871275 0.337409 255 255 255 255 0.144329 0.25489
-112.898 16.7096 16.6709 -0.356419 -0.871275 0.337409 255 255 255 255 0.144329 0.25489
-75.3594 16.4208 55.5791 -0.356419 -0.871275 0.337409 255 255 255 255 0.144329 0.25489
-111.945 6.68389 -46.2051 -0.992787 -0.119819 0.004056 255 255 255 255 0.144329 0.25489
-112.898 16.7096 16.6709 -0.992787 -0.119819 0.004056 255 255 255 255 0.144329 0.25489
-116.566 46.0614 -14.0537 -0.992787 -0.119819 0.004056 255 255 255 255 0.144329 0.25489
-112.898 16.7096 16.6709 -0.894785 0.264629 0.359626 255 255 255 255 0.144329 0.25489
-103.375 71.0874 0.352555 -0.894785 0.264629 0.359626 255 255 255 255 0.144329 0.25489
-116.566 46.0614 -14.0537 -0.894785 0.264629 0.359626 255 255 255 255 0.144329 0.25489
-82.8047 34.8568 68.0733 -0.360065 -0.618652 0.6983 255 255 255 255 0.144329 0.25489
-106.285 26.2786 48.3662 -0.360065 -0.618652 0.6983 255 255 255 255 0.144329 0.25489
-75.3594 16.4208 55.5791 -0.360065 -0.618652 0.6983 255 255 255 255 0.144329 0.25489
-60.6524 80.2276 41.542 -0.479806 0.765911 0.427978 255 255 255 255 0.144329 0.25489
-118.43 49.6693 31.4551 -0.479806 0.765911 0.427978 255 255 255 255 0.144329 0.25489
-61.4766 64.9003 68.0479 -0.479806 0.765911 0.427978 255 255 255 255 0.144329 0.25489
-118.43 49.6693 31.4551 -0.568486 0.404179 0.716563 255 255 255 255 0.144329 0.25489
-82.8047 34.8568 68.0733 -0.568486 0.404179 0.716563 255 255 255 255 0.144329 0.25489
-61.4766 64.9003 68.0479 -0.568486 0.404179 0.716563 255 255 255 255 0.144329 0.25489
-112.898 16.7096 16.6709 -0.99929 0.031799 -0.020218 255 255 255 255 0.144329 0.25489
-111.945 6.68389 -46.2051 -0.99929 0.031799 -0.020218 255 255 255 255 0.144329 0.25489
-112.977 -5.75844 -14.8047 -0.99929 0.031799 -0.020218 255 255 255 255 0.144329 0.25489
-103.375 71.0874 0.352555 -0.908613 0.034221 -0.416234 255 255 255 255 0.144329 0.25489
-112.898 16.7096 16.6709 -0.908613 0.034221 -0.416234 255 255 255 255 0.144329 0.25489
-118.43 49.6693 31.4551 -0.908613 0.034221 -0.416234 255 255 255 255 0.144329 0.25489
-112.898 16.7096 16.6709 -0.920037 -0.278178 0.27595 255 255 255 255 0.144329 0.25489
-106.285 26.2786 48.3662 -0.920037 -0.278178 0.27595 255 255 255 255 0.144329 0.25489
-118.43 49.6693 31.4551 -0.920037 -0.278178 0.27595 255 255 255 255 0.144329 0.25489
7.74998 17.582 -53.4883 -0.187831 0.977921 -0.091599 255 255 255 255 0.144329 0.25489
15.9844 22.1171 -21.956 -0.187831 0.977921 -0.091599 255 255 255 255 0.144329 0.25489
70.0547 30.2254 -46.2666 -0.187831 0.977921 -0.091599 255 255 255 255 0.144329 0.25489
17.9101 -6.64134 -56.0517 -0.56129 -0.149278 -0.814045 255 255 255 255 0.144329 0.25489
7.74998 17.582 -53.4883 -0.56129 -0.149278 -0.814045 255 255 255 255 0.144329 0.25489
42.9922 14.0462 -77.1396 -0.56129 -0.149278 -0.814045 255 255 255 255 0.144329 0.25489
-118.43 49.6693 31.4551 -0.669618 0.174301 0.721963 255 255 255 255 0.144329 0.25489
-106.285 26.2786 48.3662 -0.669618 0.174301 0.721963 255 255 255 255 0.144329 0.25489
-82.8047 34.8568 68.0733 -0.669618 0.174301 0.721963 255 255 255 255 0.144329 0.25489
3 0 1 2 
3 3 4 5 
3 6 7 8 
3 9 10 11 
3 12 13 14 
3 15 16 17 
3 18 19 20 
3 21 22 23 
3 24 25 26 
3 27 28 29 
3 30 31 32 
3 33 34 35 
3 36 37 38 
3 39 40 41 
3 42 43 44 
3 45 46 47 
3 48 49 50 
3 51 52 53 
3 54 55 56 
3 57 58 59 
3 60 61 62 
3 63 64 65 
3 66 67 68 
3 69 70 71 
3 72 73 74 
3 75 76 77 
3 78 79 80 
3 81 82 83 
3 84 85 86 
3 87 88 89 
3 90 91 92 
3 93 94 95 
3 96 97 98 
3 99 100 101 
3 102 103 104 
3 105 106 107 
3 108 109 110 
3 111 112 113 
3 114 115 116 
3 117 118 119 
3 120 121 122 
3 123 124 125 
3 126 127 128 
3 129 130 131 
3 132 133 134 
3 135 136 137 
3 138 139 140 
3 141 142 143 
3 144 145 146 
3 147 148 149 
3 150 151 152 
3 153 154 155 
3 156 157 158 
3 159 160 161 
3 162 163 164 
3 165 166 167 
3 168 169 170 
3 171 172 173 
3 174 175 176 
3 177 178 179 
3 180 181 182 
3 183 184 185 
3 186 187 188 
3 189 190 191 
3 192 193 194 
3 195 196 197 
3 198 199 200 
3 201 202 203 
3 204 205 206 
3 207 208 209 
3 210 211 212 
3 213 214 215 
3 216 217 218 
3 219 220 221 
3 222 223 224 
3 225 226 227 
3 228 229 230 
3 231 232 233 
3 234 235 236 
3 237 238 239 
3 240 241 242 
3 243 244 245 
3 246 247 248 
3 249 250 251 
3 252 253 254 
3 255 256 257 
3 258 259 260 
3 261 262 263 
3 264 265 266 
3 267 268 269 
3 270 271 272 
3 273 274 275 
3 276 277 278 
3 279 280 281 
3 282 283 284 
3 285 286 287 
3 288 289 290 
3 291 292 293 
3 294 295 296 
3 297 298 299 
3 300 301 302 
3 303 304 305 
3 306 307 308 
3 309 310 311 
3 312 313 314 
3 315 316 317 
3 318 319 320 
3 321 322 323 
3 324 325 326 
3 327 328 329 
3 330 331 332 
3 333 334 335 
3 336 337 338 
3 339 340 341 
3 342 343 344 
3 345 346 347 
3 348 349 350 
3 351 352 353 
3 354 355 356 
3 357 358 359 
3 360 361 362 
3 363 364 365 
3 366 367 368 
3 369 370 371 
3 372 373 374 
3 375 376 377 
3 378 379 380 
3 381 382 383 
3 384 385 386 
3 387 388 389 
3 390 391 392 
3 393 394 395 
