ply
format ascii 1.0
comment VCGLIB generated
comment TextureFile Dungeons_2_Texture_01_A.png
element vertex 504
property float x
property float y
property float z
property float nx
property float ny
property float nz
property uchar red
property uchar green
property uchar blue
property uchar alpha
property float texture_u
property float texture_v
element face 176
property list uchar int vertex_indices
end_header
-6.87335 49.225 5.74268 -0.896596 -0.340084 0.283652 255 255 255 255 0.306865 0.328664
-22.9528 86.5042 -0.387173 -0.896596 -0.340084 0.283652 255 255 255 255 0.306912 0.328502
-10.2966 48.9154 -5.44914 -0.896596 -0.340084 0.283652 255 255 255 255 0.306826 0.328618
-1.28248 -3.75685 -1.33782 0.134639 -0.990799 -0.013771 255 255 255 255 0.306797 0.328751
-3.15928 -4.10501 5.36282 0.134639 -0.990799 -0.013771 255 255 255 255 0.306827 0.328765
-6.58253 -4.41465 -5.829 0.134639 -0.990799 -0.013771 255 255 255 255 0.306794 0.328722
-5.35369 51.3837 -0.874392 0.899185 0.310887 0.307922 255 255 255 255 0.306832 0.328644
-20.4935 86.7266 7.65316 0.899185 0.310887 0.307922 255 255 255 255 0.306946 0.328535
-6.87335 49.225 5.74268 0.899185 0.310887 0.307922 255 255 255 255 0.306865 0.328664
-5.35369 51.3837 -0.874392 0.516714 0.270199 -0.812404 255 255 255 255 0.306832 0.328644
-22.9528 86.5042 -0.387173 0.516714 0.270199 -0.812404 255 255 255 255 0.306912 0.328502
-20.0325 91.2543 3.0501 0.516714 0.270199 -0.812404 255 255 255 255 0.306924 0.32851
-3.15928 -4.10501 5.36282 -0.95349 -0.068495 0.29354 255 255 255 255 0.306827 0.328765
-10.2966 48.9154 -5.44914 -0.95349 -0.068495 0.29354 255 255 255 255 0.306826 0.328618
-6.58253 -4.41465 -5.829 -0.95349 -0.068495 0.29354 255 255 255 255 0.306794 0.328722
-1.28248 -3.75685 -1.33782 0.960028 0.06492 0.27227 255 255 255 255 0.306797 0.328751
-6.87335 49.225 5.74268 0.960028 0.06492 0.27227 255 255 255 255 0.306865 0.328664
-3.15928 -4.10501 5.36282 0.960028 0.06492 0.27227 255 255 255 255 0.306827 0.328765
-1.28248 -3.75685 -1.33782 0.663212 0.05524 -0.74639 255 255 255 255 0.306797 0.328751
-10.2966 48.9154 -5.44914 0.663212 0.05524 -0.74639 255 255 255 255 0.306826 0.328618
-5.35369 51.3837 -0.874392 0.663212 0.05524 -0.74639 255 255 255 255 0.306832 0.328644
-20.0325 91.2543 3.0501 0.544864 0.569875 0.615115 255 255 255 255 0.306924 0.32851
-44.4025 103.344 13.4368 0.544864 0.569875 0.615115 255 255 255 255 0.307068 0.328421
-20.4935 86.7266 7.65316 0.544864 0.569875 0.615115 255 255 255 255 0.306946 0.328535
-20.4935 86.7266 7.65316 -0.530266 -0.827383 0.185083 255 255 255 255 0.306946 0.328535
-46.1382 103.187 7.76189 -0.530266 -0.827383 0.185083 255 255 255 255 0.307042 0.3284
-22.9528 86.5042 -0.387173 -0.530266 -0.827383 0.185083 255 255 255 255 0.306912 0.328502
-20.0325 91.2543 3.0501 0.065327 0.486875 -0.871025 255 255 255 255 0.306924 0.32851
-46.1382 103.187 7.76189 0.065327 0.486875 -0.871025 255 255 255 255 0.307042 0.3284
-43.5065 106.853 10.0089 0.065327 0.486875 -0.871025 255 255 255 255 0.307051 0.328403
-46.1382 103.187 7.76189 -0.216676 -0.971788 0.093161 255 255 255 255 0.307042 0.3284
-44.4025 103.344 13.4368 -0.216676 -0.971788 0.093161 255 255 255 255 0.307068 0.328421
-54.4689 105.583 13.38 -0.216676 -0.971788 0.093161 255 255 255 255 0.307099 0.328381
-44.4025 103.344 13.4368 0.145385 0.672029 0.726113 255 255 255 255 0.307068 0.328421
-43.5065 106.853 10.0089 0.145385 0.672029 0.726113 255 255 255 255 0.307051 0.328403
-54.4689 105.583 13.38 0.145385 0.672029 0.726113 255 255 255 255 0.307099 0.328381
-43.5065 106.853 10.0089 -0.292187 0.643338 -0.707632 255 255 255 255 0.307051 0.328403
-46.1382 103.187 7.76189 -0.292187 0.643338 -0.707632 255 255 255 255 0.307042 0.3284
-54.4689 105.583 13.38 -0.292187 0.643338 -0.707632 255 255 255 255 0.307099 0.328381
7.46162 49.851 7.23968 0.910008 -0.383726 -0.156967 255 255 255 255 0.306799 0.328705
14.4977 70.6532 -2.82285 0.910008 -0.383726 -0.156967 255 255 255 255 0.306699 0.328633
16.1099 71.1031 5.42424 0.910008 -0.383726 -0.156967 255 255 255 255 0.306737 0.328668
-1.25621 -3.02444 3.89858 -0.153576 -0.985506 0.072054 255 255 255 255 0.306794 0.328751
1.70755 -3.94444 -2.36763 -0.153576 -0.985506 0.072054 255 255 255 255 0.306762 0.328744
3.21421 -3.3311 9.23245 -0.153576 -0.985506 0.072054 255 255 255 255 0.306802 0.328782
3.37497 51.956 1.80724 -0.797418 0.353218 -0.489246 255 255 255 255 0.306789 0.328668
14.4977 70.6532 -2.82285 -0.797418 0.353218 -0.489246 255 255 255 255 0.306699 0.328633
5.95496 49.2377 -4.3604 -0.797418 0.353218 -0.489246 255 255 255 255 0.306752 0.328663
3.37497 51.956 1.80724 -0.651917 0.30222 0.695462 255 255 255 255 0.306789 0.328668
16.1099 71.1031 5.42424 -0.651917 0.30222 0.695462 255 255 255 255 0.306737 0.328668
13.974 75.7081 1.42091 -0.651917 0.30222 0.695462 255 255 255 255 0.306726 0.328632
3.21421 -3.3311 9.23245 0.988753 -0.083614 -0.124002 255 255 255 255 0.306802 0.328782
5.95496 49.2377 -4.3604 0.988753 -0.083614 -0.124002 255 255 255 255 0.306752 0.328663
7.46162 49.851 7.23968 0.988753 -0.083614 -0.124002 255 255 255 255 0.306799 0.328705
-1.25621 -3.02444 3.89858 -0.899409 0.055586 -0.433559 255 255 255 255 0.306794 0.328751
5.95496 49.2377 -4.3604 -0.899409 0.055586 -0.433559 255 255 255 255 0.306752 0.328663
1.70755 -3.94444 -2.36763 -0.899409 0.055586 -0.433559 255 255 255 255 0.306762 0.328744
-1.25621 -3.02444 3.89858 -0.779026 0.089227 0.62061 255 255 255 255 0.306794 0.328751
7.46162 49.851 7.23968 -0.779026 0.089227 0.62061 255 255 255 255 0.306799 0.328705
3.37497 51.956 1.80724 -0.779026 0.089227 0.62061 255 255 255 255 0.306789 0.328668
13.974 75.7081 1.42091 -0.293004 0.596776 -0.746999 255 255 255 255 0.306726 0.328632
37.8808 83.9573 -1.36608 -0.293004 0.596776 -0.746999 255 255 255 255 0.306568 0.328699
14.4977 70.6532 -2.82285 -0.293004 0.596776 -0.746999 255 255 255 255 0.306699 0.328633
16.1099 71.1031 5.42424 0.454555 -0.870224 -0.189971 255 255 255 255 0.306737 0.328668
37.8808 83.9573 -1.36608 0.454555 -0.870224 -0.189971 255 255 255 255 0.306568 0.328699
38.207 82.8531 4.47277 0.454555 -0.870224 -0.189971 255 255 255 255 0.306596 0.328728
13.974 75.7081 1.42091 -0.223493 0.373441 0.900329 255 255 255 255 0.306726 0.328632
38.207 82.8531 4.47277 -0.223493 0.373441 0.900329 255 255 255 255 0.306596 0.328728
36.9088 87.257 2.32382 -0.223493 0.373441 0.900329 255 255 255 255 0.30659 0.328695
38.207 82.8531 4.47277 0.008243 -0.982466 -0.186263 255 255 255 255 0.306596 0.328728
37.8808 83.9573 -1.36608 0.008243 -0.982466 -0.186263 255 255 255 255 0.306568 0.328699
47.859 83.5786 1.07283 0.008243 -0.982466 -0.186263 255 255 255 255 0.306521 0.328754
37.8808 83.9573 -1.36608 0.182276 0.756302 -0.628317 255 255 255 255 0.306568 0.328699
36.9088 87.257 2.32382 0.182276 0.756302 -0.628317 255 255 255 255 0.30659 0.328695
47.859 83.5786 1.07283 0.182276 0.756302 -0.628317 255 255 255 255 0.306521 0.328754
36.9088 87.257 2.32382 0.258127 0.48407 0.83609 255 255 255 255 0.30659 0.328695
38.207 82.8531 4.47277 0.258127 0.48407 0.83609 255 255 255 255 0.306596 0.328728
47.859 83.5786 1.07283 0.258127 0.48407 0.83609 255 255 255 255 0.306521 0.328754
-5.4465 49.6395 16.4174 -0.022527 -0.462793 0.88618 255 255 255 255 0.306883 0.359032
5.66749 83.0193 34.132 -0.022527 -0.462793 0.88618 255 255 255 255 0.306969 0.359075
-2.73503 83.4969 34.1678 -0.022527 -0.462793 0.88618 255 255 255 255 0.306998 0.359035
-1.12451 -1.10908 2.94743 -0.054715 -0.936651 -0.345963 255 255 255 255 0.306791 0.359092
4.69982 -2.78705 6.5692 -0.054715 -0.936651 -0.345963 255 255 255 255 0.306788 0.359124
-6.99614 -2.12224 6.61907 -0.054715 -0.936651 -0.345963 255 255 255 255 0.306821 0.359084
0.477169 52.3552 13.3168 0.596151 0.379402 -0.707572 255 255 255 255 0.306852 0.359039
5.66749 83.0193 34.132 0.596151 0.379402 -0.707572 255 255 255 255 0.306969 0.359075
6.24947 48.9747 16.3675 0.596151 0.379402 -0.707572 255 255 255 255 0.306845 0.359079
0.477169 52.3552 13.3168 -0.621237 0.390723 -0.679264 255 255 255 255 0.306852 0.359039
-2.73503 83.4969 34.1678 -0.621237 0.390723 -0.679264 255 255 255 255 0.306998 0.359035
1.60605 88.2371 32.9242 -0.621237 0.390723 -0.679264 255 255 255 255 0.306982 0.359039
-6.99614 -2.12224 6.61907 -0.006372 -0.185805 0.982566 255 255 255 255 0.306821 0.359084
6.24947 48.9747 16.3675 -0.006372 -0.185805 0.982566 255 255 255 255 0.306845 0.359079
-5.4465 49.6395 16.4174 -0.006372 -0.185805 0.982566 255 255 255 255 0.306883 0.359032
-1.12451 -1.10908 2.94743 0.551531 0.139177 -0.822462 255 255 255 255 0.306791 0.359092
6.24947 48.9747 16.3675 0.551531 0.139177 -0.822462 255 255 255 255 0.306845 0.359079
4.69982 -2.78705 6.5692 0.551531 0.139177 -0.822462 255 255 255 255 0.306788 0.359124
-1.12451 -1.10908 2.94743 -0.519075 0.177702 -0.836052 255 255 255 255 0.306791 0.359092
-5.4465 49.6395 16.4174 -0.519075 0.177702 -0.836052 255 255 255 255 0.306883 0.359032
0.477169 52.3552 13.3168 -0.519075 0.177702 -0.836052 255 255 255 255 0.306852 0.359039
1.60605 88.2371 32.9242 0.794287 0.568915 -0.213177 255 255 255 255 0.306982 0.359039
4.85946 93.9523 60.2985 0.794287 0.568915 -0.213177 255 255 255 255 0.307161 0.359163
5.66749 83.0193 34.132 0.794287 0.568915 -0.213177 255 255 255 255 0.306969 0.359075
-2.73503 83.4969 34.1678 -0.050777 -0.922065 0.38369 255 255 255 255 0.306998 0.359035
4.85946 93.9523 60.2985 -0.050777 -0.922065 0.38369 255 255 255 255 0.307161 0.359163
-1.07103 94.2894 60.3238 -0.050777 -0.922065 0.38369 255 255 255 255 0.307181 0.35913
1.60605 88.2371 32.9242 -0.796591 0.569215 -0.203564 255 255 255 255 0.306982 0.359039
-1.07103 94.2894 60.3238 -0.796591 0.569215 -0.203564 255 255 255 255 0.307181 0.35913
2.0035 98.0801 58.8925 -0.796591 0.569215 -0.203564 255 255 255 255 0.307169 0.359132
-1.07103 94.2894 60.3238 -0.056698 -0.998324 0.011628 255 255 255 255 0.307181 0.35913
4.85946 93.9523 60.2985 -0.056698 -0.998324 0.011628 255 255 255 255 0.307161 0.359163
1.93903 94.2318 70.0626 -0.056698 -0.998324 0.011628 255 255 255 255 0.307243 0.359194
4.85946 93.9523 60.2985 0.768224 0.60389 0.212484 255 255 255 255 0.307161 0.359163
2.0035 98.0801 58.8925 0.768224 0.60389 0.212484 255 255 255 255 0.307169 0.359132
1.93903 94.2318 70.0626 0.768224 0.60389 0.212484 255 255 255 255 0.307243 0.359194
2.0035 98.0801 58.8925 -0.71364 0.663568 0.224491 255 255 255 255 0.307169 0.359132
-1.07103 94.2894 60.3238 -0.71364 0.663568 0.224491 255 255 255 255 0.307181 0.35913
1.93903 94.2318 70.0626 -0.71364 0.663568 0.224491 255 255 255 255 0.307243 0.359194
-28.3224 36.5022 -9.43694 -0.42845 -0.869069 -0.247284 255 255 255 255 0.306866 0.308141
-36.2647 44.8338 -24.9572 -0.42845 -0.869069 -0.247284 255 255 255 255 0.306825 0.30799
-21.1898 36.3988 -21.4319 -0.42845 -0.869069 -0.247284 255 255 255 255 0.306798 0.308131
-3.28341 -0.225298 -3.89328 0.628021 -0.688224 0.363232 255 255 255 255 0.306804 0.308312
-8.85233 -3.47416 -0.42043 0.628021 -0.688224 0.363232 255 255 255 255 0.306832 0.308309
-2.86844 -3.32327 -10.4806 0.628021 -0.688224 0.363232 255 255 255 255 0.306778 0.3083
-23.1808 41.0048 -14.5561 0.104414 0.69242 0.7139 255 255 255 255 0.306833 0.308135
-41.8155 44.9142 -15.6224 0.104414 0.69242 0.7139 255 255 255 255 0.306877 0.307997
-28.3224 36.5022 -9.43694 0.104414 0.69242 0.7139 255 255 255 255 0.306866 0.308141
-23.1808 41.0048 -14.5561 0.558144 0.7009 -0.444087 255 255 255 255 0.306833 0.308135
-36.2647 44.8338 -24.9572 0.558144 0.7009 -0.444087 255 255 255 255 0.306825 0.30799
-39.4137 50.1148 -20.5799 0.558144 0.7009 -0.444087 255 255 255 255 0.306854 0.30798
-8.85233 -3.47416 -0.42043 -0.753937 -0.47334 -0.455551 255 255 255 255 0.306832 0.308309
-21.1898 36.3988 -21.4319 -0.753937 -0.47334 -0.455551 255 255 255 255 0.306798 0.308131
-2.86844 -3.32327 -10.4806 -0.753937 -0.47334 -0.455551 255 255 255 255 0.306778 0.3083
-3.28341 -0.225298 -3.89328 0.333918 0.359191 0.871482 255 255 255 255 0.306804 0.308312
-28.3224 36.5022 -9.43694 0.333918 0.359191 0.871482 255 255 255 255 0.306866 0.308141
-8.85233 -3.47416 -0.42043 0.333918 0.359191 0.871482 255 255 255 255 0.306832 0.308309
-3.28341 -0.225298 -3.89328 0.902917 0.429032 -0.025948 255 255 255 255 0.306804 0.308312
-21.1898 36.3988 -21.4319 0.902917 0.429032 -0.025948 255 255 255 255 0.306798 0.308131
-23.1808 41.0048 -14.5561 0.902917 0.429032 -0.025948 255 255 255 255 0.306833 0.308135
-41.8155 44.9142 -15.6224 -0.615342 0.562327 0.552397 255 255 255 255 0.306877 0.307997
-53.9195 43.5437 -27.7106 -0.615342 0.562327 0.552397 255 255 255 255 0.30686 0.307906
-55.2322 39.2689 -24.8211 -0.615342 0.562327 0.552397 255 255 255 255 0.306871 0.307918
-41.8155 44.9142 -15.6224 0.288128 -0.940631 0.179433 255 255 255 255 0.306877 0.307997
-52.1898 39.0106 -29.912 0.288128 -0.940631 0.179433 255 255 255 255 0.306845 0.307914
-36.2647 44.8338 -24.9572 0.288128 -0.940631 0.179433 255 255 255 255 0.306825 0.30799
-36.2647 44.8338 -24.9572 0.068344 0.660504 -0.747706 255 255 255 255 0.306825 0.30799
-53.9195 43.5437 -27.7106 0.068344 0.660504 -0.747706 255 255 255 255 0.30686 0.307906
-39.4137 50.1148 -20.5799 0.068344 0.660504 -0.747706 255 255 255 255 0.306854 0.30798
-52.1898 39.0106 -29.912 0.506386 -0.791255 0.342767 255 255 255 255 0.306845 0.307914
-55.2322 39.2689 -24.8211 0.506386 -0.791255 0.342767 255 255 255 255 0.306871 0.307918
-60.96 32.7584 -31.3882 0.506386 -0.791255 0.342767 255 255 255 255 0.306858 0.307902
-55.2322 39.2689 -24.8211 -0.84401 0.453114 0.28694 255 255 255 255 0.306871 0.307918
-53.9195 43.5437 -27.7106 -0.84401 0.453114 0.28694 255 255 255 255 0.30686 0.307906
-60.96 32.7584 -31.3882 -0.84401 0.453114 0.28694 255 255 255 255 0.306858 0.307902
-53.9195 43.5437 -27.7106 -0.127324 0.393559 -0.910439 255 255 255 255 0.30686 0.307906
-52.1898 39.0106 -29.912 -0.127324 0.393559 -0.910439 255 255 255 255 0.306845 0.307914
-60.96 32.7584 -31.3882 -0.127324 0.393559 -0.910439 255 255 255 255 0.306858 0.307902
-3.75243 40.5516 -24.0156 -0.037711 -0.853275 -0.520097 255 255 255 255 0.306736 0.328572
11.7512 50.058 -40.7359 -0.037711 -0.853275 -0.520097 255 255 255 255 0.30661 0.328469
10.144 39.3569 -23.0631 -0.037711 -0.853275 -0.520097 255 255 255 255 0.306678 0.328606
-0.330061 -0.478909 1.66926 -0.108656 -0.705302 0.700531 255 255 255 255 0.306779 0.328745
-6.08271 -3.03813 -1.79966 -0.108656 -0.705302 0.700531 255 255 255 255 0.306792 0.328724
5.57369 -4.0403 -1.00067 -0.108656 -0.705302 0.700531 255 255 255 255 0.306748 0.328753
3.24372 44.3222 -21.4306 -0.533856 0.797104 0.282176 255 255 255 255 0.306713 0.328588
1.36025 50.9878 -43.8233 -0.533856 0.797104 0.282176 255 255 255 255 0.306657 0.328444
-3.75243 40.5516 -24.0156 -0.533856 0.797104 0.282176 255 255 255 255 0.306736 0.328572
3.24372 44.3222 -21.4306 0.604837 0.650244 0.459734 255 255 255 255 0.306713 0.328588
11.7512 50.058 -40.7359 0.604837 0.650244 0.459734 255 255 255 255 0.30661 0.328469
6.81141 55.7791 -42.3289 0.604837 0.650244 0.459734 255 255 255 255 0.306632 0.328444
-6.08271 -3.03813 -1.79966 0.021912 -0.454906 -0.89027 255 255 255 255 0.306792 0.328724
10.144 39.3569 -23.0631 0.021912 -0.454906 -0.89027 255 255 255 255 0.306678 0.328606
5.57369 -4.0403 -1.00067 0.021912 -0.454906 -0.89027 255 255 255 255 0.306748 0.328753
-0.330061 -0.478909 1.66926 -0.596473 0.389548 0.701763 255 255 255 255 0.306779 0.328745
-3.75243 40.5516 -24.0156 -0.596473 0.389548 0.701763 255 255 255 255 0.306736 0.328572
-6.08271 -3.03813 -1.79966 -0.596473 0.389548 0.701763 255 255 255 255 0.306792 0.328724
-0.330061 -0.478909 1.66926 0.461415 0.377224 0.802994 255 255 255 255 0.306779 0.328745
10.144 39.3569 -23.0631 0.461415 0.377224 0.802994 255 255 255 255 0.306678 0.328606
3.24372 44.3222 -21.4306 0.461415 0.377224 0.802994 255 255 255 255 0.306713 0.328588
1.36025 50.9878 -43.8233 -0.630754 0.592197 -0.50145 255 255 255 255 0.306657 0.328444
12.8389 50.239 -59.1461 -0.630754 0.592197 -0.50145 255 255 255 255 0.306568 0.328373
9.90508 46.0937 -60.3513 -0.630754 0.592197 -0.50145 255 255 255 255 0.306581 0.328377
11.7512 50.058 -40.7359 -0.148673 -0.966479 0.20932 255 255 255 255 0.30661 0.328469
9.90508 46.0937 -60.3513 -0.148673 -0.966479 0.20932 255 255 255 255 0.306581 0.328377
15.584 45.5855 -58.6639 -0.148673 -0.966479 0.20932 255 255 255 255 0.306557 0.328389
11.7512 50.058 -40.7359 0.748892 0.660747 0.050743 255 255 255 255 0.30661 0.328469
12.8389 50.239 -59.1461 0.748892 0.660747 0.050743 255 255 255 255 0.306568 0.328373
6.81141 55.7791 -42.3289 0.748892 0.660747 0.050743 255 255 255 255 0.306632 0.328444
15.584 45.5855 -58.6639 -0.203415 -0.885388 0.417984 255 255 255 255 0.306557 0.328389
9.90508 46.0937 -60.3513 -0.203415 -0.885388 0.417984 255 255 255 255 0.306581 0.328377
15.1504 41.1202 -68.3335 -0.203415 -0.885388 0.417984 255 255 255 255 0.306551 0.328369
9.90508 46.0937 -60.3513 -0.499806 0.548596 -0.670251 255 255 255 255 0.306581 0.328377
12.8389 50.239 -59.1461 -0.499806 0.548596 -0.670251 255 255 255 255 0.306568 0.328373
15.1504 41.1202 -68.3335 -0.499806 0.548596 -0.670251 255 255 255 255 0.306551 0.328369
12.8389 50.239 -59.1461 0.84406 0.47144 -0.255554 255 255 255 255 0.306568 0.328373
15.584 45.5855 -58.6639 0.84406 0.47144 -0.255554 255 255 255 255 0.306557 0.328389
15.1504 41.1202 -68.3335 0.84406 0.47144 -0.255554 255 255 255 255 0.306551 0.328369
14.2728 45.9545 -14.2271 0.47939 -0.786326 -0.389714 255 255 255 255 0.306681 0.308249
31.579 57.3231 -15.877 0.47939 -0.786326 -0.389714 255 255 255 255 0.306555 0.308262
21.6568 45.9545 -5.14404 0.47939 -0.786326 -0.389714 255 255 255 255 0.306693 0.308306
2.26991 0.120412 3.07343 -0.437363 -0.826014 0.355549 255 255 255 255 0.306782 0.308336
1.20768 -2.19221 -3.60592 -0.437363 -0.826014 0.355549 255 255 255 255 0.306759 0.308317
8.59164 -2.19221 5.47713 -0.437363 -0.826014 0.355549 255 255 255 255 0.306772 0.308368
15.9542 49.7831 -8.05101 -0.741435 0.641764 -0.195996 255 255 255 255 0.306701 0.308268
26.2743 57.3231 -22.4024 -0.741435 0.641764 -0.195996 255 255 255 255 0.30655 0.308218
14.2728 45.9545 -14.2271 -0.741435 0.641764 -0.195996 255 255 255 255 0.306681 0.308249
15.9542 49.7831 -8.05101 0.117982 0.58691 0.80101 255 255 255 255 0.306701 0.308268
31.579 57.3231 -15.877 0.117982 0.58691 0.80101 255 255 255 255 0.306555 0.308262
29.187 62.5456 -19.3514 0.117982 0.58691 0.80101 255 255 255 255 0.306553 0.308227
8.59164 -2.19221 5.47713 0.73245 -0.330112 -0.595436 255 255 255 255 0.306772 0.308368
14.2728 45.9545 -14.2271 0.73245 -0.330112 -0.595436 255 255 255 255 0.306681 0.308249
21.6568 45.9545 -5.14404 0.73245 -0.330112 -0.595436 255 255 255 255 0.306693 0.308306
2.26991 0.120412 3.07343 -0.96016 0.273356 0.05805 255 255 255 255 0.306782 0.308336
14.2728 45.9545 -14.2271 -0.96016 0.273356 0.05805 255 255 255 255 0.306681 0.308249
1.20768 -2.19221 -3.60592 -0.96016 0.273356 0.05805 255 255 255 255 0.306759 0.308317
2.26991 0.120412 3.07343 -0.278408 0.282351 0.918023 255 255 255 255 0.306782 0.308336
21.6568 45.9545 -5.14404 -0.278408 0.282351 0.918023 255 255 255 255 0.306693 0.308306
15.9542 49.7831 -8.05101 -0.278408 0.282351 0.918023 255 255 255 255 0.306701 0.308268
29.187 62.5456 -19.3514 -0.468773 0.625695 -0.623505 255 255 255 255 0.306553 0.308227
42.1202 57.9469 -33.6899 -0.468773 0.625695 -0.623505 255 255 255 255 0.306377 0.308242
26.2743 57.3231 -22.4024 -0.468773 0.625695 -0.623505 255 255 255 255 0.30655 0.308218
26.2743 57.3231 -22.4024 0.024918 -0.999484 -0.020257 255 255 255 255 0.30655 0.308218
45.8643 57.9469 -29.0843 0.024918 -0.999484 -0.020257 255 255 255 255 0.306377 0.308276
31.579 57.3231 -15.877 0.024918 -0.999484 -0.020257 255 255 255 255 0.306555 0.308262
29.187 62.5456 -19.3514 0.526311 0.566342 0.634235 255 255 255 255 0.306553 0.308227
45.8643 57.9469 -29.0843 0.526311 0.566342 0.634235 255 255 255 255 0.306377 0.308276
43.976 62.2658 -31.3739 0.526311 0.566342 0.634235 255 255 255 255 0.306377 0.308248
45.8643 57.9469 -29.0843 -0.377794 -0.873468 0.307124 255 255 255 255 0.306377 0.308276
42.1202 57.9469 -33.6899 -0.377794 -0.873468 0.307124 255 255 255 255 0.306377 0.308242
48.9145 54.4109 -35.3886 -0.377794 -0.873468 0.307124 255 255 255 255 0.306317 0.308274
42.1202 57.9469 -33.6899 0.021014 0.465454 -0.884823 255 255 255 255 0.306377 0.308242
43.976 62.2658 -31.3739 0.021014 0.465454 -0.884823 255 255 255 255 0.306377 0.308248
48.9145 54.4109 -35.3886 0.021014 0.465454 -0.884823 255 255 255 255 0.306317 0.308274
43.976 62.2658 -31.3739 0.870471 0.465455 0.160099 255 255 255 255 0.306377 0.308248
45.8643 57.9469 -29.0843 0.870471 0.465455 0.160099 255 255 255 255 0.306377 0.308276
48.9145 54.4109 -35.3886 0.870471 0.465455 0.160099 255 255 255 255 0.306317 0.308274
-16.9951 46.2083 17.5221 -0.654231 -0.548201 0.521016 255 255 255 255 0.306921 0.308234
-18.9559 73.3307 43.5976 -0.654231 -0.548201 0.521016 255 255 255 255 0.30709 0.308256
-26.8881 75.9817 36.4265 -0.654231 -0.548201 0.521016 255 255 255 255 0.307076 0.308194
-4.34269 -2.4843 4.89391 0.169706 -0.848437 -0.501353 255 255 255 255 0.306807 0.308323
-2.59651 -5.85421 11.1879 0.169706 -0.848437 -0.501353 255 255 255 255 0.306825 0.308351
-11.1462 -2.99695 3.45849 0.169706 -0.848437 -0.501353 255 255 255 255 0.30682 0.308297
-9.70462 48.013 20.3671 0.909732 0.407133 -0.081424 255 255 255 255 0.306914 0.308266
-18.9559 73.3307 43.5976 0.909732 0.407133 -0.081424 255 255 255 255 0.30709 0.308256
-6.8024 42.8019 26.7369 0.909732 0.407133 -0.081424 255 255 255 255 0.306932 0.308307
-9.70462 48.013 20.3671 0.145209 0.558254 -0.816864 255 255 255 255 0.306914 0.308266
-26.8881 75.9817 36.4265 0.145209 0.558254 -0.816864 255 255 255 255 0.307076 0.308194
-21.9267 79.7345 39.8732 0.145209 0.558254 -0.816864 255 255 255 255 0.307087 0.308216
-11.1462 -2.99695 3.45849 -0.693755 -0.272956 0.666482 255 255 255 255 0.30682 0.308297
-6.8024 42.8019 26.7369 -0.693755 -0.272956 0.666482 255 255 255 255 0.306932 0.308307
-16.9951 46.2083 17.5221 -0.693755 -0.272956 0.666482 255 255 255 255 0.306921 0.308234
-4.34269 -2.4843 4.89391 0.970684 0.145135 -0.191596 255 255 255 255 0.306807 0.308323
-6.8024 42.8019 26.7369 0.970684 0.145135 -0.191596 255 255 255 255 0.306932 0.308307
-2.59651 -5.85421 11.1879 0.970684 0.145135 -0.191596 255 255 255 255 0.306825 0.308351
-4.34269 -2.4843 4.89391 0.278624 0.308292 -0.909574 255 255 255 255 0.306807 0.308323
-16.9951 46.2083 17.5221 0.278624 0.308292 -0.909574 255 255 255 255 0.306921 0.308234
-9.70462 48.013 20.3671 0.278624 0.308292 -0.909574 255 255 255 255 0.306914 0.308266
-21.9267 79.7345 39.8732 0.664134 0.58143 0.469963 255 255 255 255 0.307087 0.308216
-38.2132 80.0559 62.491 0.664134 0.58143 0.469963 255 255 255 255 0.307267 0.308228
-18.9559 73.3307 43.5976 0.664134 0.58143 0.469963 255 255 255 255 0.30709 0.308256
-26.8881 75.9817 36.4265 -0.323085 -0.94634 0.007547 255 255 255 255 0.307076 0.308194
-38.2132 80.0559 62.491 -0.323085 -0.94634 0.007547 255 255 255 255 0.307267 0.308228
-42.5483 81.5047 58.5718 -0.323085 -0.94634 0.007547 255 255 255 255 0.307256 0.308194
-21.9267 79.7345 39.8732 -0.452689 0.690156 -0.564585 255 255 255 255 0.307087 0.308216
-42.5483 81.5047 58.5718 -0.452689 0.690156 -0.564585 255 255 255 255 0.307256 0.308194
-39.2866 84.8948 60.1007 -0.452689 0.690156 -0.564585 255 255 255 255 0.307265 0.308204
-42.5483 81.5047 58.5718 -0.069131 -0.958168 -0.277733 255 255 255 255 0.307256 0.308194
-38.2132 80.0559 62.491 -0.069131 -0.958168 -0.277733 255 255 255 255 0.307267 0.308228
-47.0234 79.2157 67.5826 -0.069131 -0.958168 -0.277733 255 255 255 255 0.307317 0.308212
-38.2132 80.0559 62.491 0.405726 0.475574 0.780523 255 255 255 255 0.307267 0.308228
-39.2866 84.8948 60.1007 0.405726 0.475574 0.780523 255 255 255 255 0.307265 0.308204
-47.0234 79.2157 67.5826 0.405726 0.475574 0.780523 255 255 255 255 0.307317 0.308212
-39.2866 84.8948 60.1007 -0.676713 0.720144 -0.15314 255 255 255 255 0.307265 0.308204
-42.5483 81.5047 58.5718 -0.676713 0.720144 -0.15314 255 255 255 255 0.307256 0.308194
-47.0234 79.2157 67.5826 -0.676713 0.720144 -0.15314 255 255 255 255 0.307317 0.308212
8.81376 43.0967 23.3644 0.486943 -0.682968 0.544464 255 255 255 255 0.306867 0.308358
22.9541 55.5256 26.3086 0.486943 -0.682968 0.544464 255 255 255 255 0.306825 0.308446
15.2697 56.1543 33.9698 0.486943 -0.682968 0.544464 255 255 255 255 0.3069 0.308439
-0.490706 -4.28112 6.1099 -0.402017 -0.852835 -0.333248 255 255 255 255 0.3068 0.308341
6.0475 -6.72381 4.47375 -0.402017 -0.852835 -0.333248 255 255 255 255 0.306775 0.308362
-2.23511 -6.04618 12.7313 -0.402017 -0.852835 -0.333248 255 255 255 255 0.30683 0.308357
11.9165 46.3581 16.448 0.090699 0.676693 -0.730658 255 255 255 255 0.306825 0.308341
22.9541 55.5256 26.3086 0.090699 0.676693 -0.730658 255 255 255 255 0.306825 0.308446
18.6881 42.2888 13.5199 0.090699 0.676693 -0.730658 255 255 255 255 0.306787 0.308366
11.9165 46.3581 16.448 -0.855382 0.504317 -0.118259 255 255 255 255 0.306825 0.308341
15.2697 56.1543 33.9698 -0.855382 0.504317 -0.118259 255 255 255 255 0.3069 0.308439
18.749 61.0209 29.5573 -0.855382 0.504317 -0.118259 255 255 255 255 0.306864 0.308429
-2.23511 -6.04618 12.7313 0.661709 -0.297666 0.68814 255 255 255 255 0.30683 0.308357
18.6881 42.2888 13.5199 0.661709 -0.297666 0.68814 255 255 255 255 0.306787 0.308366
8.81376 43.0967 23.3644 0.661709 -0.297666 0.68814 255 255 255 255 0.306867 0.308358
-0.490706 -4.28112 6.1099 -0.159191 0.218742 -0.96271 255 255 255 255 0.3068 0.308341
18.6881 42.2888 13.5199 -0.159191 0.218742 -0.96271 255 255 255 255 0.306787 0.308366
6.0475 -6.72381 4.47375 -0.159191 0.218742 -0.96271 255 255 255 255 0.306775 0.308362
-0.490706 -4.28112 6.1099 -0.918018 0.281867 -0.278915 255 255 255 255 0.3068 0.308341
8.81376 43.0967 23.3644 -0.918018 0.281867 -0.278915 255 255 255 255 0.306867 0.308358
11.9165 46.3581 16.448 -0.918018 0.281867 -0.278915 255 255 255 255 0.306825 0.308341
18.749 61.0209 29.5573 0.652721 0.687558 -0.318151 255 255 255 255 0.306864 0.308429
28.3411 57.6781 42.0123 0.652721 0.687558 -0.318151 255 255 255 255 0.306883 0.308654
22.9541 55.5256 26.3086 0.652721 0.687558 -0.318151 255 255 255 255 0.306825 0.308446
15.2697 56.1543 33.9698 0.042956 -0.992067 0.118143 255 255 255 255 0.3069 0.308439
28.3411 57.6781 42.0123 0.042956 -0.992067 0.118143 255 255 255 255 0.306883 0.308654
24.149 57.9963 46.2087 0.042956 -0.992067 0.118143 255 255 255 255 0.306931 0.308649
15.2697 56.1543 33.9698 -0.648869 0.710592 0.272081 255 255 255 255 0.3069 0.308439
25.7464 62.0891 43.4553 -0.648869 0.710592 0.272081 255 255 255 255 0.306908 0.308638
18.749 61.0209 29.5573 -0.648869 0.710592 0.272081 255 255 255 255 0.306864 0.308429
24.149 57.9963 46.2087 -0.20621 -0.969499 -0.132475 255 255 255 255 0.306931 0.308649
28.3411 57.6781 42.0123 -0.20621 -0.969499 -0.132475 255 255 255 255 0.306883 0.308654
32.9673 55.4763 50.9242 -0.20621 -0.969499 -0.132475 255 255 255 255 0.306922 0.308745
28.3411 57.6781 42.0123 0.78774 0.552496 -0.272422 255 255 255 255 0.306883 0.308654
25.7464 62.0891 43.4553 0.78774 0.552496 -0.272422 255 255 255 255 0.306908 0.308638
32.9673 55.4763 50.9242 0.78774 0.552496 -0.272422 255 255 255 255 0.306922 0.308745
25.7464 62.0891 43.4553 -0.234683 0.603998 0.76165 255 255 255 255 0.306908 0.308638
24.149 57.9963 46.2087 -0.234683 0.603998 0.76165 255 255 255 255 0.306931 0.308649
32.9673 55.4763 50.9242 -0.234683 0.603998 0.76165 255 255 255 255 0.306922 0.308745
-20.4935 86.7266 7.65316 -0.896596 -0.340084 0.283652 255 255 255 255 0.306946 0.328535
-5.35369 51.3837 -0.874392 0.882382 0.288251 0.371905 255 255 255 255 0.306832 0.328644
-20.0325 91.2543 3.0501 0.882382 0.288251 0.371905 255 255 255 255 0.306924 0.32851
-20.4935 86.7266 7.65316 0.882382 0.288251 0.371905 255 255 255 255 0.306946 0.328535
-5.35369 51.3837 -0.874392 0.565885 0.294253 -0.770188 255 255 255 255 0.306832 0.328644
-10.2966 48.9154 -5.44914 0.565885 0.294253 -0.770188 255 255 255 255 0.306826 0.328618
-22.9528 86.5042 -0.387173 0.565885 0.294253 -0.770188 255 255 255 255 0.306912 0.328502
-6.87335 49.225 5.74268 -0.95349 -0.068495 0.29354 255 255 255 255 0.306865 0.328664
-1.28248 -3.75685 -1.33782 0.967109 0.069348 0.244727 255 255 255 255 0.306797 0.328751
-5.35369 51.3837 -0.874392 0.967109 0.069348 0.244727 255 255 255 255 0.306832 0.328644
-6.87335 49.225 5.74268 0.967109 0.069348 0.244727 255 255 255 255 0.306865 0.328664
-1.28248 -3.75685 -1.33782 0.642044 0.050163 -0.765025 255 255 255 255 0.306797 0.328751
-6.58253 -4.41465 -5.829 0.642044 0.050163 -0.765025 255 255 255 255 0.306794 0.328722
-10.2966 48.9154 -5.44914 0.642044 0.050163 -0.765025 255 255 255 255 0.306826 0.328618
-20.0325 91.2543 3.0501 0.539274 0.513899 0.667152 255 255 255 255 0.306924 0.32851
-43.5065 106.853 10.0089 0.539274 0.513899 0.667152 255 255 255 255 0.307051 0.328403
-44.4025 103.344 13.4368 0.539274 0.513899 0.667152 255 255 255 255 0.307068 0.328421
-44.4025 103.344 13.4368 -0.530266 -0.827383 0.185083 255 255 255 255 0.307068 0.328421
-20.0325 91.2543 3.0501 0.097806 0.543256 -0.833851 255 255 255 255 0.306924 0.32851
-22.9528 86.5042 -0.387173 0.097806 0.543256 -0.833851 255 255 255 255 0.306912 0.328502
-46.1382 103.187 7.76189 0.097806 0.543256 -0.833851 255 255 255 255 0.307042 0.3284
7.46162 49.851 7.23968 0.92654 -0.362334 -0.101185 255 255 255 255 0.306799 0.328705
5.95496 49.2377 -4.3604 0.92654 -0.362334 -0.101185 255 255 255 255 0.306752 0.328663
14.4977 70.6532 -2.82285 0.92654 -0.362334 -0.101185 255 255 255 255 0.306699 0.328633
3.37497 51.956 1.80724 -0.789907 0.34423 -0.507496 255 255 255 255 0.306789 0.328668
13.974 75.7081 1.42091 -0.789907 0.34423 -0.507496 255 255 255 255 0.306726 0.328632
14.4977 70.6532 -2.82285 -0.789907 0.34423 -0.507496 255 255 255 255 0.306699 0.328633
3.37497 51.956 1.80724 -0.686291 0.334451 0.645869 255 255 255 255 0.306789 0.328668
7.46162 49.851 7.23968 -0.686291 0.334451 0.645869 255 255 255 255 0.306799 0.328705
16.1099 71.1031 5.42424 -0.686291 0.334451 0.645869 255 255 255 255 0.306737 0.328668
1.70755 -3.94444 -2.36763 0.988753 -0.083614 -0.124002 255 255 255 255 0.306762 0.328744
-1.25621 -3.02444 3.89858 -0.910917 0.061209 -0.408024 255 255 255 255 0.306794 0.328751
3.37497 51.956 1.80724 -0.910917 0.061209 -0.408024 255 255 255 255 0.306789 0.328668
5.95496 49.2377 -4.3604 -0.910917 0.061209 -0.408024 255 255 255 255 0.306752 0.328663
-1.25621 -3.02444 3.89858 -0.76124 0.084886 0.642891 255 255 255 255 0.306794 0.328751
3.21421 -3.3311 9.23245 -0.76124 0.084886 0.642891 255 255 255 255 0.306802 0.328782
7.46162 49.851 7.23968 -0.76124 0.084886 0.642891 255 255 255 255 0.306799 0.328705
13.974 75.7081 1.42091 -0.309173 0.66698 -0.6779 255 255 255 255 0.306726 0.328632
36.9088 87.257 2.32382 -0.309173 0.66698 -0.6779 255 255 255 255 0.30659 0.328695
37.8808 83.9573 -1.36608 -0.309173 0.66698 -0.6779 255 255 255 255 0.306568 0.328699
16.1099 71.1031 5.42424 0.496248 -0.866755 -0.049728 255 255 255 255 0.306737 0.328668
14.4977 70.6532 -2.82285 0.496248 -0.866755 -0.049728 255 255 255 255 0.306699 0.328633
37.8808 83.9573 -1.36608 0.496248 -0.866755 -0.049728 255 255 255 255 0.306568 0.328699
13.974 75.7081 1.42091 -0.264039 0.560137 0.785194 255 255 255 255 0.306726 0.328632
16.1099 71.1031 5.42424 -0.264039 0.560137 0.785194 255 255 255 255 0.306737 0.328668
38.207 82.8531 4.47277 -0.264039 0.560137 0.785194 255 255 255 255 0.306596 0.328728
6.24947 48.9747 16.3675 -0.022527 -0.462793 0.88618 255 255 255 255 0.306845 0.359079
0.477169 52.3552 13.3168 0.649217 0.348895 -0.675862 255 255 255 255 0.306852 0.359039
1.60605 88.2371 32.9242 0.649217 0.348895 -0.675862 255 255 255 255 0.306982 0.359039
5.66749 83.0193 34.132 0.649217 0.348895 -0.675862 255 255 255 255 0.306969 0.359075
0.477169 52.3552 13.3168 -0.564314 0.418328 -0.711724 255 255 255 255 0.306852 0.359039
-5.4465 49.6395 16.4174 -0.564314 0.418328 -0.711724 255 255 255 255 0.306883 0.359032
-2.73503 83.4969 34.1678 -0.564314 0.418328 -0.711724 255 255 255 255 0.306998 0.359035
4.69982 -2.78705 6.5692 -0.006372 -0.185805 0.982566 255 255 255 255 0.306788 0.359124
-1.12451 -1.10908 2.94743 0.527903 0.14644 -0.836585 255 255 255 255 0.306791 0.359092
0.477169 52.3552 13.3168 0.527903 0.14644 -0.836585 255 255 255 255 0.306852 0.359039
6.24947 48.9747 16.3675 0.527903 0.14644 -0.836585 255 255 255 255 0.306845 0.359079
-1.12451 -1.10908 2.94743 -0.543451 0.171809 -0.821671 255 255 255 255 0.306791 0.359092
-6.99614 -2.12224 6.61907 -0.543451 0.171809 -0.821671 255 255 255 255 0.306821 0.359084
-5.4465 49.6395 16.4174 -0.543451 0.171809 -0.821671 255 255 255 255 0.306883 0.359032
1.60605 88.2371 32.9242 0.836167 0.508505 -0.205542 255 255 255 255 0.306982 0.359039
2.0035 98.0801 58.8925 0.836167 0.508505 -0.205542 255 255 255 255 0.307169 0.359132
4.85946 93.9523 60.2985 0.836167 0.508505 -0.205542 255 255 255 255 0.307161 0.359163
-2.73503 83.4969 34.1678 -0.050775 -0.922065 0.38369 255 255 255 255 0.306998 0.359035
5.66749 83.0193 34.132 -0.050775 -0.922065 0.38369 255 255 255 255 0.306969 0.359075
4.85946 93.9523 60.2985 -0.050775 -0.922065 0.38369 255 255 255 255 0.307161 0.359163
1.60605 88.2371 32.9242 -0.747774 0.629184 -0.212041 255 255 255 255 0.306982 0.359039
-2.73503 83.4969 34.1678 -0.747774 0.629184 -0.212041 255 255 255 255 0.306998 0.359035
-1.07103 94.2894 60.3238 -0.747774 0.629184 -0.212041 255 255 255 255 0.307181 0.35913
-28.3224 36.5022 -9.43694 -0.42845 -0.869069 -0.247285 255 255 255 255 0.306866 0.308141
-41.8155 44.9142 -15.6224 -0.42845 -0.869069 -0.247285 255 255 255 255 0.306877 0.307997
-36.2647 44.8338 -24.9572 -0.42845 -0.869069 -0.247285 255 255 255 255 0.306825 0.30799
-23.1808 41.0048 -14.5561 0.096619 0.663022 0.742338 255 255 255 255 0.306833 0.308135
-39.4137 50.1148 -20.5799 0.096619 0.663022 0.742338 255 255 255 255 0.306854 0.30798
-41.8155 44.9142 -15.6224 0.096619 0.663022 0.742338 255 255 255 255 0.306877 0.307997
-23.1808 41.0048 -14.5561 0.5181 0.772395 -0.367394 255 255 255 255 0.306833 0.308135
-21.1898 36.3988 -21.4319 0.5181 0.772395 -0.367394 255 255 255 255 0.306798 0.308131
-36.2647 44.8338 -24.9572 0.5181 0.772395 -0.367394 255 255 255 255 0.306825 0.30799
-8.85233 -3.47416 -0.42043 -0.759933 -0.471123 -0.447823 255 255 255 255 0.306832 0.308309
-28.3224 36.5022 -9.43694 -0.759933 -0.471123 -0.447823 255 255 255 255 0.306866 0.308141
-21.1898 36.3988 -21.4319 -0.759933 -0.471123 -0.447823 255 255 255 255 0.306798 0.308131
-3.28341 -0.225298 -3.89328 0.432567 0.415666 0.800067 255 255 255 255 0.306804 0.308312
-23.1808 41.0048 -14.5561 0.432567 0.415666 0.800067 255 255 255 255 0.306833 0.308135
-28.3224 36.5022 -9.43694 0.432567 0.415666 0.800067 255 255 255 255 0.306866 0.308141
-3.28341 -0.225298 -3.89328 0.913608 0.387071 -0.124485 255 255 255 255 0.306804 0.308312
-2.86844 -3.32327 -10.4806 0.913608 0.387071 -0.124485 255 255 255 255 0.306778 0.3083
-21.1898 36.3988 -21.4319 0.913608 0.387071 -0.124485 255 255 255 255 0.306798 0.308131
-41.8155 44.9142 -15.6224 -0.544958 0.696572 0.466699 255 255 255 255 0.306877 0.307997
-39.4137 50.1148 -20.5799 -0.544958 0.696572 0.466699 255 255 255 255 0.306854 0.30798
-53.9195 43.5437 -27.7106 -0.544958 0.696572 0.466699 255 255 255 255 0.30686 0.307906
-41.8155 44.9142 -15.6224 0.258613 -0.944524 0.202469 255 255 255 255 0.306877 0.307997
-55.2322 39.2689 -24.8211 0.258613 -0.944524 0.202469 255 255 255 255 0.306871 0.307918
-52.1898 39.0106 -29.912 0.258613 -0.944524 0.202469 255 255 255 255 0.306845 0.307914
-36.2647 44.8338 -24.9572 0.10299 0.466051 -0.878743 255 255 255 255 0.306825 0.30799
-52.1898 39.0106 -29.912 0.10299 0.466051 -0.878743 255 255 255 255 0.306845 0.307914
-53.9195 43.5437 -27.7106 0.10299 0.466051 -0.878743 255 255 255 255 0.30686 0.307906
-3.75243 40.5516 -24.0156 0.055385 -0.889181 -0.45419 255 255 255 255 0.306736 0.328572
1.36025 50.9878 -43.8233 0.055385 -0.889181 -0.45419 255 255 255 255 0.306657 0.328444
11.7512 50.058 -40.7359 0.055385 -0.889181 -0.45419 255 255 255 255 0.30661 0.328469
3.24372 44.3222 -21.4306 -0.676654 0.688198 0.261769 255 255 255 255 0.306713 0.328588
6.81141 55.7791 -42.3289 -0.676654 0.688198 0.261769 255 255 255 255 0.306632 0.328444
1.36025 50.9878 -43.8233 -0.676654 0.688198 0.261769 255 255 255 255 0.306657 0.328444
3.24372 44.3222 -21.4306 0.588159 0.667 0.457362 255 255 255 255 0.306713 0.328588
10.144 39.3569 -23.0631 0.588159 0.667 0.457362 255 255 255 255 0.306678 0.328606
11.7512 50.058 -40.7359 0.588159 0.667 0.457362 255 255 255 255 0.30661 0.328469
-6.08271 -3.03813 -1.79966 0.021913 -0.454906 -0.89027 255 255 255 255 0.306792 0.328724
-3.75243 40.5516 -24.0156 0.021913 -0.454906 -0.89027 255 255 255 255 0.306736 0.328572
10.144 39.3569 -23.0631 0.021913 -0.454906 -0.89027 255 255 255 255 0.306678 0.328606
-0.330061 -0.478909 1.66926 -0.506742 0.426671 0.749109 255 255 255 255 0.306779 0.328745
3.24372 44.3222 -21.4306 -0.506742 0.426671 0.749109 255 255 255 255 0.306713 0.328588
-3.75243 40.5516 -24.0156 -0.506742 0.426671 0.749109 255 255 255 255 0.306736 0.328572
-0.330061 -0.478909 1.66926 0.547797 0.332578 0.767666 255 255 255 255 0.306779 0.328745
5.57369 -4.0403 -1.00067 0.547797 0.332578 0.767666 255 255 255 255 0.306748 0.328753
10.144 39.3569 -23.0631 0.547797 0.332578 0.767666 255 255 255 255 0.306678 0.328606
1.36025 50.9878 -43.8233 -0.526529 0.733239 -0.430265 255 255 255 255 0.306657 0.328444
6.81141 55.7791 -42.3289 -0.526529 0.733239 -0.430265 255 255 255 255 0.306632 0.328444
12.8389 50.239 -59.1461 -0.526529 0.733239 -0.430265 255 255 255 255 0.306568 0.328373
11.7512 50.058 -40.7359 -0.148674 -0.966479 0.20932 255 255 255 255 0.30661 0.328469
1.36025 50.9878 -43.8233 -0.148674 -0.966479 0.20932 255 255 255 255 0.306657 0.328444
9.90508 46.0937 -60.3513 -0.148674 -0.966479 0.20932 255 255 255 255 0.306581 0.328377
11.7512 50.058 -40.7359 0.857432 0.511576 0.055689 255 255 255 255 0.30661 0.328469
15.584 45.5855 -58.6639 0.857432 0.511576 0.055689 255 255 255 255 0.306557 0.328389
12.8389 50.239 -59.1461 0.857432 0.511576 0.055689 255 255 255 255 0.306568 0.328373
14.2728 45.9545 -14.2271 0.47939 -0.786326 -0.389715 255 255 255 255 0.306681 0.308249
26.2743 57.3231 -22.4024 0.47939 -0.786326 -0.389715 255 255 255 255 0.30655 0.308218
31.579 57.3231 -15.877 0.47939 -0.786326 -0.389715 255 255 255 255 0.306555 0.308262
15.9542 49.7831 -8.05101 -0.774738 0.57964 -0.252583 255 255 255 255 0.306701 0.308268
29.187 62.5456 -19.3514 -0.774738 0.57964 -0.252583 255 255 255 255 0.306553 0.308227
26.2743 57.3231 -22.4024 -0.774738 0.57964 -0.252583 255 255 255 255 0.30655 0.308218
15.9542 49.7831 -8.05101 0.058754 0.657712 0.750975 255 255 255 255 0.306701 0.308268
21.6568 45.9545 -5.14404 0.058754 0.657712 0.750975 255 255 255 255 0.306693 0.308306
31.579 57.3231 -15.877 0.058754 0.657712 0.750975 255 255 255 255 0.306555 0.308262
8.59164 -2.19221 5.47713 0.732449 -0.330112 -0.595436 255 255 255 255 0.306772 0.308368
1.20768 -2.19221 -3.60592 0.732449 -0.330112 -0.595436 255 255 255 255 0.306759 0.308317
14.2728 45.9545 -14.2271 0.732449 -0.330112 -0.595436 255 255 255 255 0.306681 0.308249
2.26991 0.120412 3.07343 -0.95553 0.282351 0.085091 255 255 255 255 0.306782 0.308336
15.9542 49.7831 -8.05101 -0.95553 0.282351 0.085091 255 255 255 255 0.306701 0.308268
14.2728 45.9545 -14.2271 -0.95553 0.282351 0.085091 255 255 255 255 0.306681 0.308249
2.26991 0.120412 3.07343 -0.252881 0.273356 0.928077 255 255 255 255 0.306782 0.308336
8.59164 -2.19221 5.47713 -0.252881 0.273356 0.928077 255 255 255 255 0.306772 0.308368
21.6568 45.9545 -5.14404 -0.252881 0.273356 0.928077 255 255 255 255 0.306693 0.308306
29.187 62.5456 -19.3514 -0.513406 0.566341 -0.644727 255 255 255 255 0.306553 0.308227
43.976 62.2658 -31.3739 -0.513406 0.566341 -0.644727 255 255 255 255 0.306377 0.308248
42.1202 57.9469 -33.6899 -0.513406 0.566341 -0.644727 255 255 255 255 0.306377 0.308242
42.1202 57.9469 -33.6899 0.024918 -0.999484 -0.020257 255 255 255 255 0.306377 0.308242
29.187 62.5456 -19.3514 0.51465 0.625695 0.58621 255 255 255 255 0.306553 0.308227
31.579 57.3231 -15.877 0.51465 0.625695 0.58621 255 255 255 255 0.306555 0.308262
45.8643 57.9469 -29.0843 0.51465 0.625695 0.58621 255 255 255 255 0.306377 0.308276
-6.8024 42.8019 26.7369 -0.654231 -0.548201 0.521016 255 255 255 255 0.306932 0.308307
-9.70462 48.013 20.3671 0.918423 0.39097 -0.060348 255 255 255 255 0.306914 0.308266
-21.9267 79.7345 39.8732 0.918423 0.39097 -0.060348 255 255 255 255 0.307087 0.308216
-18.9559 73.3307 43.5976 0.918423 0.39097 -0.060348 255 255 255 255 0.30709 0.308256
-9.70462 48.013 20.3671 0.173215 0.568295 -0.804386 255 255 255 255 0.306914 0.308266
-16.9951 46.2083 17.5221 0.173215 0.568295 -0.804386 255 255 255 255 0.306921 0.308234
-26.8881 75.9817 36.4265 0.173215 0.568295 -0.804386 255 255 255 255 0.307076 0.308194
-2.59651 -5.85421 11.1879 -0.693755 -0.272956 0.666482 255 255 255 255 0.306825 0.308351
-4.34269 -2.4843 4.89391 0.942576 0.185242 -0.277914 255 255 255 255 0.306807 0.308323
-9.70462 48.013 20.3671 0.942576 0.185242 -0.277914 255 255 255 255 0.306914 0.308266
-6.8024 42.8019 26.7369 0.942576 0.185242 -0.277914 255 255 255 255 0.306932 0.308307
-4.34269 -2.4843 4.89391 0.176617 0.289843 -0.940637 255 255 255 255 0.306807 0.308323
-11.1462 -2.99695 3.45849 0.176617 0.289843 -0.940637 255 255 255 255 0.30682 0.308297
-16.9951 46.2083 17.5221 0.176617 0.289843 -0.940637 255 255 255 255 0.306921 0.308234
-21.9267 79.7345 39.8732 0.738061 0.423292 0.525443 255 255 255 255 0.307087 0.308216
-39.2866 84.8948 60.1007 0.738061 0.423292 0.525443 255 255 255 255 0.307265 0.308204
-38.2132 80.0559 62.491 0.738061 0.423292 0.525443 255 255 255 255 0.307267 0.308228
-18.9559 73.3307 43.5976 -0.323085 -0.94634 0.007547 255 255 255 255 0.30709 0.308256
-21.9267 79.7345 39.8732 -0.327061 0.836383 -0.43988 255 255 255 255 0.307087 0.308216
-26.8881 75.9817 36.4265 -0.327061 0.836383 -0.43988 255 255 255 255 0.307076 0.308194
-42.5483 81.5047 58.5718 -0.327061 0.836383 -0.43988 255 255 255 255 0.307256 0.308194
18.6881 42.2888 13.5199 0.486943 -0.682968 0.544464 255 255 255 255 0.306787 0.308366
11.9165 46.3581 16.448 0.190472 0.603493 -0.774285 255 255 255 255 0.306825 0.308341
18.749 61.0209 29.5573 0.190472 0.603493 -0.774285 255 255 255 255 0.306864 0.308429
22.9541 55.5256 26.3086 0.190472 0.603493 -0.774285 255 255 255 255 0.306825 0.308446
11.9165 46.3581 16.448 -0.842193 0.522967 -0.13121 255 255 255 255 0.306825 0.308341
8.81376 43.0967 23.3644 -0.842193 0.522967 -0.13121 255 255 255 255 0.306867 0.308358
15.2697 56.1543 33.9698 -0.842193 0.522967 -0.13121 255 255 255 255 0.3069 0.308439
6.0475 -6.72381 4.47375 0.661709 -0.297666 0.68814 255 255 255 255 0.306775 0.308362
-0.490706 -4.28112 6.1099 -0.252201 0.252502 -0.934151 255 255 255 255 0.3068 0.308341
11.9165 46.3581 16.448 -0.252201 0.252502 -0.934151 255 255 255 255 0.306825 0.308341
18.6881 42.2888 13.5199 -0.252201 0.252502 -0.934151 255 255 255 255 0.306787 0.308366
-0.490706 -4.28112 6.1099 -0.950002 0.253142 -0.182796 255 255 255 255 0.3068 0.308341
-2.23511 -6.04618 12.7313 -0.950002 0.253142 -0.182796 255 255 255 255 0.30683 0.308357
8.81376 43.0967 23.3644 -0.950002 0.253142 -0.182796 255 255 255 255 0.306867 0.308358
18.749 61.0209 29.5573 0.722943 0.558374 -0.406905 255 255 255 255 0.306864 0.308429
25.7464 62.0891 43.4553 0.722943 0.558374 -0.406905 255 255 255 255 0.306908 0.308638
28.3411 57.6781 42.0123 0.722943 0.558374 -0.406905 255 255 255 255 0.306883 0.308654
15.2697 56.1543 33.9698 0.040523 -0.991699 0.122027 255 255 255 255 0.3069 0.308439
22.9541 55.5256 26.3086 0.040523 -0.991699 0.122027 255 255 255 255 0.306825 0.308446
28.3411 57.6781 42.0123 0.040523 -0.991699 0.122027 255 255 255 255 0.306883 0.308654
15.2697 56.1543 33.9698 -0.706618 0.563608 0.427828 255 255 255 255 0.3069 0.308439
24.149 57.9963 46.2087 -0.706618 0.563608 0.427828 255 255 255 255 0.306931 0.308649
25.7464 62.0891 43.4553 -0.706618 0.563608 0.427828 255 255 255 255 0.306908 0.308638
3 0 1 2 
3 3 4 5 
3 6 7 8 
3 9 10 11 
3 12 13 14 
3 15 16 17 
3 18 19 20 
3 21 22 23 
3 24 25 26 
3 27 28 29 
3 30 31 32 
3 33 34 35 
3 36 37 38 
3 39 40 41 
3 42 43 44 
3 45 46 47 
3 48 49 50 
3 51 52 53 
3 54 55 56 
3 57 58 59 
3 60 61 62 
3 63 64 65 
3 66 67 68 
3 69 70 71 
3 72 73 74 
3 75 76 77 
3 78 79 80 
3 81 82 83 
3 84 85 86 
3 87 88 89 
3 90 91 92 
3 93 94 95 
3 96 97 98 
3 99 100 101 
3 102 103 104 
3 105 106 107 
3 108 109 110 
3 111 112 113 
3 114 115 116 
3 117 118 119 
3 120 121 122 
3 123 124 125 
3 126 127 128 
3 129 130 131 
3 132 133 134 
3 135 136 137 
3 138 139 140 
3 141 142 143 
3 144 145 146 
3 147 148 149 
3 150 151 152 
3 153 154 155 
3 156 157 158 
3 159 160 161 
3 162 163 164 
3 165 166 167 
3 168 169 170 
3 171 172 173 
3 174 175 176 
3 177 178 179 
3 180 181 182 
3 183 184 185 
3 186 187 188 
3 189 190 191 
3 192 193 194 
3 195 196 197 
3 198 199 200 
3 201 202 203 
3 204 205 206 
3 207 208 209 
3 210 211 212 
3 213 214 215 
3 216 217 218 
3 219 220 221 
3 222 223 224 
3 225 226 227 
3 228 229 230 
3 231 232 233 
3 234 235 236 
3 237 238 239 
3 240 241 242 
3 243 244 245 
3 246 247 248 
3 249 250 251 
3 252 253 254 
3 255 256 257 
3 258 259 260 
3 261 262 263 
3 264 265 266 
3 267 268 269 
3 270 271 272 
3 273 274 275 
3 276 277 278 
3 279 280 281 
3 282 283 284 
3 285 286 287 
3 288 289 290 
3 291 292 293 
3 294 295 296 
3 297 298 299 
3 300 301 302 
3 303 304 305 
3 306 307 308 
3 309 310 311 
3 0 312 1 
3 313 314 315 
3 316 317 318 
3 12 319 13 
3 320 321 322 
3 323 324 325 
3 326 327 328 
3 24 329 25 
3 330 331 332 
3 333 334 335 
3 336 337 338 
3 339 340 341 
3 51 342 52 
3 343 344 345 
3 346 347 348 
3 349 350 351 
3 352 353 354 
3 355 356 357 
3 78 358 79 
3 359 360 361 
3 362 363 364 
3 90 365 91 
3 366 367 368 
3 369 370 371 
3 372 373 374 
3 375 376 377 
3 378 379 380 
3 381 382 383 
3 384 385 386 
3 387 388 389 
3 390 391 392 
3 393 394 395 
3 396 397 398 
3 399 400 401 
3 402 403 404 
3 405 406 407 
3 408 409 410 
3 411 412 413 
3 414 415 416 
3 417 418 419 
3 420 421 422 
3 423 424 425 
3 426 427 428 
3 429 430 431 
3 432 433 434 
3 435 436 437 
3 438 439 440 
3 441 442 443 
3 444 445 446 
3 447 448 449 
3 450 451 452 
3 453 454 455 
3 219 456 220 
3 457 458 459 
3 234 460 235 
3 461 462 463 
3 464 465 466 
3 246 467 247 
3 468 469 470 
3 471 472 473 
3 474 475 476 
3 258 477 259 
3 478 479 480 
3 273 481 274 
3 482 483 484 
3 485 486 487 
3 285 488 286 
3 489 490 491 
3 492 493 494 
3 495 496 497 
3 498 499 500 
3 501 502 503 
