ply
format ascii 1.0
comment VCGLIB generated
comment TextureFile Texture_01_A.png
element vertex 452
property float x
property float y
property float z
property float nx
property float ny
property float nz
property uchar red
property uchar green
property uchar blue
property uchar alpha
property float texture_u
property float texture_v
element face 153
property list uchar int vertex_indices
end_header
-0.090302 -0.936776 -0.044098 0.236636 0.03831 -0.970843 255 255 255 255 0.483345 0.280273
-0.102505 -0.861399 -0.044098 0.236636 0.03831 -0.970843 255 255 255 255 0.483345 0.280273
-0.017712 -0.898898 -0.02491 0.236636 0.03831 -0.970843 255 255 255 255 0.483345 0.280273
-0.125107 -0.916364 -0.02491 -0.518385 -0.083923 -0.851019 255 255 255 255 0.483345 0.280273
-0.102505 -0.861399 -0.044098 -0.518385 -0.083923 -0.851019 255 255 255 255 0.483345 0.280273
-0.090302 -0.936776 -0.044098 -0.518385 -0.083923 -0.851019 255 255 255 255 0.483345 0.280273
0.268169 -1.20385 -0.044098 -0.192737 -0.142539 -0.970842 255 255 255 255 0.483345 0.280273
0.313297 -1.26487 -0.044098 -0.192737 -0.142539 -0.970842 255 255 255 255 0.483345 0.280273
0.221104 -1.2709 -0.02491 -0.192737 -0.142539 -0.970842 255 255 255 255 0.483345 0.280273
0.308582 -1.2062 -0.02491 0.422253 0.312277 -0.850991 255 255 255 255 0.483345 0.280273
0.313297 -1.26487 -0.044098 0.422253 0.312277 -0.850991 255 255 255 255 0.483345 0.280273
0.268169 -1.20385 -0.044098 0.422253 0.312277 -0.850991 255 255 255 255 0.483345 0.280273
0.206371 -0.169268 -0.02491 0.318424 -0.462763 -0.827319 255 255 255 255 0.483345 0.280273
0.042873 -0.28177 -0.02491 0.318424 -0.462763 -0.827319 255 255 255 255 0.483345 0.280273
0.149567 -0.161284 -0.051239 0.318424 -0.462763 -0.827319 255 255 255 255 0.483345 0.280273
0.150318 -0.267771 -0.02491 -0 -0 -1 255 255 255 255 0.483345 0.280273
0.042873 -0.28177 -0.02491 -0 -0 -1 255 255 255 255 0.483345 0.280273
0.206371 -0.169268 -0.02491 -0 -0 -1 255 255 255 255 0.483345 0.280273
0.042873 -0.28177 -0.02491 -0.237407 -0.002045 -0.971408 255 255 255 255 0.483345 0.280273
0.041924 -0.171575 -0.02491 -0.237407 -0.002045 -0.971408 255 255 255 255 0.483345 0.280273
0.149567 -0.161284 -0.051239 -0.237407 -0.002045 -0.971408 255 255 255 255 0.483345 0.280273
0.149567 -0.161284 -0.051239 -0.254003 0.352447 -0.900702 255 255 255 255 0.483345 0.280273
0.041924 -0.171575 -0.02491 -0.254003 0.352447 -0.900702 255 255 255 255 0.483345 0.280273
0.134113 -0.105136 -0.02491 -0.254003 0.352447 -0.900702 255 255 255 255 0.483345 0.280273
-0.172619 -1.31973 -0.058929 -0.249063 0.293278 -0.923014 255 255 255 255 0.483345 0.280273
-0.287495 -1.41955 -0.059647 -0.249063 0.293278 -0.923014 255 255 255 255 0.483345 0.280273
-0.232258 -1.32053 -0.043091 -0.249063 0.293278 -0.923014 255 255 255 255 0.483345 0.280273
-0.172619 -1.31973 -0.058929 -0.216422 0.25585 -0.942179 255 255 255 255 0.483345 0.280273
-0.225971 -1.43089 -0.076859 -0.216422 0.25585 -0.942179 255 255 255 255 0.483345 0.280273
-0.287495 -1.41955 -0.059647 -0.216422 0.25585 -0.942179 255 255 255 255 0.483345 0.280273
-0.225971 -1.43089 -0.076859 0.355999 -0.268544 -0.895069 255 255 255 255 0.483345 0.280273
-0.120537 -1.36751 -0.05394 0.355999 -0.268544 -0.895069 255 255 255 255 0.483345 0.280273
-0.209366 -1.49122 -0.052155 0.355999 -0.268544 -0.895069 255 255 255 255 0.483345 0.280273
-0.115074 -1.42804 -0.03186 0.38106 -0.286309 -0.879102 255 255 255 255 0.483345 0.280273
-0.209366 -1.49122 -0.052155 0.38106 -0.286309 -0.879102 255 255 255 255 0.483345 0.280273
-0.120537 -1.36751 -0.05394 0.38106 -0.286309 -0.879102 255 255 255 255 0.483345 0.280273
-0.225971 -1.43089 -0.076859 0.166354 0.078703 -0.98292 255 255 255 255 0.483345 0.280273
-0.172619 -1.31973 -0.058929 0.166354 0.078703 -0.98292 255 255 255 255 0.483345 0.280273
-0.120537 -1.36751 -0.05394 0.166354 0.078703 -0.98292 255 255 255 255 0.483345 0.280273
-0.054272 -1.09878 -0.032974 -0.179215 0.252708 -0.9508 255 255 255 255 0.483345 0.280273
-0.081295 -1.1908 -0.052338 -0.179215 0.252708 -0.9508 255 255 255 255 0.483345 0.280273
-0.161781 -1.16329 -0.029854 -0.179215 0.252708 -0.9508 255 255 255 255 0.483345 0.280273
-0.161781 -1.16329 -0.029854 -0.35653 -0.328057 -0.874794 255 255 255 255 0.483345 0.280273
-0.081295 -1.1908 -0.052338 -0.35653 -0.328057 -0.874794 255 255 255 255 0.483345 0.280273
-0.123318 -1.21947 -0.02446 -0.35653 -0.328057 -0.874794 255 255 255 255 0.483345 0.280273
-0.054272 -1.09878 -0.032974 -0.705121 0.338216 -0.623229 255 255 255 255 0.483345 0.280273
-0.057922 -1.14772 -0.055405 -0.705121 0.338216 -0.623229 255 255 255 255 0.483345 0.280273
-0.081295 -1.1908 -0.052338 -0.705121 0.338216 -0.623229 255 255 255 255 0.483345 0.280273
-0.081295 -1.1908 -0.052338 0.431437 -0.294797 -0.852618 255 255 255 255 0.483345 0.280273
-0.057922 -1.14772 -0.055405 0.431437 -0.294797 -0.852618 255 255 255 255 0.483345 0.280273
-0.029671 -1.1957 -0.024521 0.431437 -0.294797 -0.852618 255 255 255 255 0.483345 0.280273
0.013374 -1.46326 -0.097183 -0.184365 -0.086609 -0.979034 255 255 255 255 0.483345 0.280273
-0.058769 -1.45664 -0.084183 -0.184365 -0.086609 -0.979034 255 255 255 255 0.483345 0.280273
0.04126 -1.3547 -0.112038 -0.184365 -0.086609 -0.979034 255 255 255 255 0.483345 0.280273
-0.066956 -1.34477 -0.092537 -0.449421 -0.099187 -0.887796 255 255 255 255 0.483345 0.280273
0.011837 -1.31343 -0.135925 -0.449421 -0.099187 -0.887796 255 255 255 255 0.483345 0.280273
-0.058769 -1.45664 -0.084183 -0.449421 -0.099187 -0.887796 255 255 255 255 0.483345 0.280273
-0.058769 -1.45664 -0.084183 0.162301 -0.405103 -0.89975 255 255 255 255 0.483345 0.280273
0.011837 -1.31343 -0.135925 0.162301 -0.405103 -0.89975 255 255 255 255 0.483345 0.280273
0.04126 -1.3547 -0.112038 0.162301 -0.405103 -0.89975 255 255 255 255 0.483345 0.280273
0.058044 -1.85422 -0.044647 -0.163381 -0.194498 -0.967201 255 255 255 255 0.483345 0.280273
0.023235 -1.75141 -0.059441 -0.163381 -0.194498 -0.967201 255 255 255 255 0.483345 0.280273
0.1408 -1.82828 -0.063843 -0.163381 -0.194498 -0.967201 255 255 255 255 0.483345 0.280273
0.023235 -1.75141 -0.059441 -0.016331 0.032253 -0.999346 255 255 255 255 0.483345 0.280273
0.138191 -1.73172 -0.060684 -0.016331 0.032253 -0.999346 255 255 255 255 0.483345 0.280273
0.1408 -1.82828 -0.063843 -0.016331 0.032253 -0.999346 255 255 255 255 0.483345 0.280273
0.054134 -1.70938 -0.039909 -0.090625 0.473698 -0.876012 255 255 255 255 0.483345 0.280273
0.138191 -1.73172 -0.060684 -0.090625 0.473698 -0.876012 255 255 255 255 0.483345 0.280273
0.023235 -1.75141 -0.059441 -0.090625 0.473698 -0.876012 255 255 255 255 0.483345 0.280273
-0.047729 -1.87897 -0.025856 0.069725 -0.497286 -0.86478 255 255 255 255 0.483345 0.280273
-0.073849 -1.83182 -0.055077 0.069725 -0.497286 -0.86478 255 255 255 255 0.483345 0.280273
0.02253 -1.82817 -0.049408 0.069725 -0.497286 -0.86478 255 255 255 255 0.483345 0.280273
-0.123966 -1.81974 -0.019821 -0.489103 0.328749 -0.8079 255 255 255 255 0.483345 0.280273
0.001614 -1.73417 -0.061028 -0.489103 0.328749 -0.8079 255 255 255 255 0.483345 0.280273
-0.073849 -1.83182 -0.055077 -0.489103 0.328749 -0.8079 255 255 255 255 0.483345 0.280273
-0.091827 -1.73932 -0.040359 -0.204372 -0.164745 -0.964931 255 255 255 255 0.483345 0.280273
0.001614 -1.73417 -0.061028 -0.204372 -0.164745 -0.964931 255 255 255 255 0.483345 0.280273
-0.123966 -1.81974 -0.019821 -0.204372 -0.164745 -0.964931 255 255 255 255 0.483345 0.280273
-0.073849 -1.83182 -0.055077 0.062479 -0.108748 -0.992104 255 255 255 255 0.483345 0.280273
0.001614 -1.73417 -0.061028 0.062479 -0.108748 -0.992104 255 255 255 255 0.483345 0.280273
0.02253 -1.82817 -0.049408 0.062479 -0.108748 -0.992104 255 255 255 255 0.483345 0.280273
0.190277 -1.16325 -0.02491 0 -0 -1 255 255 255 255 0.483345 0.280273
0.023636 -1.21677 -0.02491 0 -0 -1 255 255 255 255 0.483345 0.280273
0.091404 -1.14361 -0.02491 0 -0 -1 255 255 255 255 0.483345 0.280273
0.190277 -1.16325 -0.02491 -0.172803 0.538045 -0.825013 255 255 255 255 0.483345 0.280273
0.073185 -1.24123 -0.051239 -0.172803 0.538045 -0.825013 255 255 255 255 0.483345 0.280273
0.023636 -1.21677 -0.02491 -0.172803 0.538045 -0.825013 255 255 255 255 0.483345 0.280273
0.073185 -1.24123 -0.051239 0.426451 -0.360218 -0.829688 255 255 255 255 0.483345 0.280273
0.190277 -1.16325 -0.02491 0.426451 -0.360218 -0.829688 255 255 255 255 0.483345 0.280273
0.077087 -1.29726 -0.02491 0.426451 -0.360218 -0.829688 255 255 255 255 0.483345 0.280273
0.171581 -1.26433 -0.02491 0 -0 -1 255 255 255 255 0.483345 0.280273
0.077087 -1.29726 -0.02491 0 -0 -1 255 255 255 255 0.483345 0.280273
-0.12508 -1.6249 -0.02491 -0 -0 -1 255 255 255 255 0.483345 0.280273
-0.296432 -1.66057 -0.02491 -0 -0 -1 255 255 255 255 0.483345 0.280273
-0.221336 -1.59494 -0.02491 -0 -0 -1 255 255 255 255 0.483345 0.280273
-0.12508 -1.6249 -0.02491 -0.115174 0.553244 -0.825019 255 255 255 255 0.483345 0.280273
-0.249733 -1.69011 -0.051239 -0.115174 0.553244 -0.825019 255 255 255 255 0.483345 0.280273
-0.296432 -1.66057 -0.02491 -0.115174 0.553244 -0.825019 255 255 255 255 0.483345 0.280273
-0.249733 -1.69011 -0.051239 0.386146 -0.403135 -0.829683 255 255 255 255 0.483345 0.280273
-0.12508 -1.6249 -0.02491 0.386146 -0.403135 -0.829683 255 255 255 255 0.483345 0.280273
-0.251755 -1.74623 -0.02491 0.386146 -0.403135 -0.829683 255 255 255 255 0.483345 0.280273
-0.15432 -1.72344 -0.02491 0 -0 -1 255 255 255 255 0.483345 0.280273
-0.251755 -1.74623 -0.02491 0 -0 -1 255 255 255 255 0.483345 0.280273
0.060123 -2.62233 -0.044098 0.215398 0.105197 -0.970844 255 255 255 255 0.483345 0.280273
0.026817 -2.55413 -0.044098 0.215398 0.105197 -0.970844 255 255 255 255 0.483345 0.280273
0.118576 -2.56493 -0.02491 0.215398 0.105197 -0.970844 255 255 255 255 0.483345 0.280273
0.020805 -2.61268 -0.02491 -0.471874 -0.230458 -0.851013 255 255 255 255 0.483345 0.280273
0.026817 -2.55413 -0.044098 -0.471874 -0.230458 -0.851013 255 255 255 255 0.483345 0.280273
0.060123 -2.62233 -0.044098 -0.471874 -0.230458 -0.851013 255 255 255 255 0.483345 0.280273
0.072365 -2.66207 -0.044098 -0.138267 0.195813 -0.970845 255 255 255 255 0.483345 0.280273
0.009987 -2.70611 -0.044098 -0.138267 0.195813 -0.970845 255 255 255 255 0.483345 0.280273
0.00647 -2.61346 -0.02491 -0.138267 0.195813 -0.970845 255 255 255 255 0.483345 0.280273
0.069294 -2.7023 -0.02491 0.302937 -0.429018 -0.850984 255 255 255 255 0.483345 0.280273
0.009987 -2.70611 -0.044098 0.302937 -0.429018 -0.850984 255 255 255 255 0.483345 0.280273
0.072365 -2.66207 -0.044098 0.302937 -0.429018 -0.850984 255 255 255 255 0.483345 0.280273
0.078442 -0.650364 -0.010513 0.126232 -0.128349 -0.983663 255 255 255 255 0.483345 0.280273
0.018787 -0.691607 -0.012787 0.126232 -0.128349 -0.983663 255 255 255 255 0.483345 0.280273
0.046879 -0.571597 -0.024841 0.126232 -0.128349 -0.983663 255 255 255 255 0.483345 0.280273
-0.042603 -0.633463 -0.028259 0.126295 -0.128401 -0.983648 255 255 255 255 0.483345 0.280273
-0.033321 -0.552851 -0.03759 0.126295 -0.128401 -0.983648 255 255 255 255 0.483345 0.280273
0.018787 -0.691607 -0.012787 0.126295 -0.128401 -0.983648 255 255 255 255 0.483345 0.280273
-0.033321 -0.552851 -0.03759 0.126358 -0.128377 -0.983643 255 255 255 255 0.483345 0.280273
0.046879 -0.571597 -0.024841 0.126358 -0.128377 -0.983643 255 255 255 255 0.483345 0.280273
0.018787 -0.691607 -0.012787 0.126358 -0.128377 -0.983643 255 255 255 255 0.483345 0.280273
-0.327888 -2.10964 -0.04673 -0.312409 -0.330431 -0.890627 255 255 255 255 0.483345 0.280273
-0.258366 -2.15238 -0.05526 -0.312409 -0.330431 -0.890627 255 255 255 255 0.483345 0.280273
-0.304592 -2.19517 -0.02317 -0.312409 -0.330431 -0.890627 255 255 255 255 0.483345 0.280273
-0.147373 -2.58638 -0.02491 0.276095 0.489204 -0.827315 255 255 255 255 0.483345 0.280273
0.025467 -2.68392 -0.02491 0.276095 0.489204 -0.827315 255 255 255 255 0.483345 0.280273
-0.129616 -2.64093 -0.051239 0.276095 0.489204 -0.827315 255 255 255 255 0.483345 0.280273
-0.03426 -2.59352 -0.02491 0 -0 -1 255 255 255 255 0.483345 0.280273
0.025467 -2.68392 -0.02491 0 -0 -1 255 255 255 255 0.483345 0.280273
-0.147373 -2.58638 -0.02491 0 -0 -1 255 255 255 255 0.483345 0.280273
0.025467 -2.68392 -0.02491 0.106022 -0.212425 -0.971409 255 255 255 255 0.483345 0.280273
-0.073132 -2.73314 -0.02491 0.106022 -0.212425 -0.971409 255 255 255 255 0.483345 0.280273
-0.129616 -2.64093 -0.051239 0.106022 -0.212425 -0.971409 255 255 255 255 0.483345 0.280273
-0.129616 -2.64093 -0.051239 -0.205236 -0.382899 -0.900703 255 255 255 255 0.483345 0.280273
-0.073132 -2.73314 -0.02491 -0.205236 -0.382899 -0.900703 255 255 255 255 0.483345 0.280273
-0.173286 -2.67945 -0.02491 -0.205236 -0.382899 -0.900703 255 255 255 255 0.483345 0.280273
0.026451 -2.05648 -0.018906 0.574196 -0.129744 -0.808372 255 255 255 255 0.483345 0.280273
-0.02467 -2.04776 -0.056618 0.574196 -0.129744 -0.808372 255 255 255 255 0.483345 0.280273
0.02879 -1.96894 -0.031296 0.574196 -0.129744 -0.808372 255 255 255 255 0.483345 0.280273
-0.06628 -2.08219 -0.032928 -0.429146 -0.099099 -0.897782 255 255 255 255 0.483345 0.280273
-0.057964 -1.92888 -0.053825 -0.429146 -0.099099 -0.897782 255 255 255 255 0.483345 0.280273
-0.02467 -2.04776 -0.056618 -0.429146 -0.099099 -0.897782 255 255 255 255 0.483345 0.280273
-0.110306 -2.00749 -0.052338 0.186569 -0.14262 -0.972035 255 255 255 255 0.483345 0.280273
-0.057964 -1.92888 -0.053825 0.186569 -0.14262 -0.972035 255 255 255 255 0.483345 0.280273
-0.06628 -2.08219 -0.032928 0.186569 -0.14262 -0.972035 255 255 255 255 0.483345 0.280273
-0.02467 -2.04776 -0.056618 0.295079 0.104957 -0.949691 255 255 255 255 0.483345 0.280273
-0.057964 -1.92888 -0.053825 0.295079 0.104957 -0.949691 255 255 255 255 0.483345 0.280273
0.02879 -1.96894 -0.031296 0.295079 0.104957 -0.949691 255 255 255 255 0.483345 0.280273
0.20282 -0.982198 -0.058929 0.268917 -0.275165 -0.923021 255 255 255 255 0.483345 0.280273
0.310448 -0.874605 -0.059647 0.268917 -0.275165 -0.923021 255 255 255 255 0.483345 0.280273
0.26226 -0.977235 -0.043091 0.268917 -0.275165 -0.923021 255 255 255 255 0.483345 0.280273
0.20282 -0.982198 -0.058929 0.233758 -0.240122 -0.942178 255 255 255 255 0.483345 0.280273
0.248283 -0.867587 -0.076859 0.233758 -0.240122 -0.942178 255 255 255 255 0.483345 0.280273
0.310448 -0.874605 -0.059647 0.233758 -0.240122 -0.942178 255 255 255 255 0.483345 0.280273
0.248283 -0.867587 -0.076859 -0.373875 0.243043 -0.895068 255 255 255 255 0.483345 0.280273
0.14753 -0.938171 -0.05394 -0.373875 0.243043 -0.895068 255 255 255 255 0.483345 0.280273
0.227509 -0.808565 -0.052155 -0.373875 0.243043 -0.895068 255 255 255 255 0.483345 0.280273
0.137856 -0.878176 -0.03186 -0.400118 0.259017 -0.879099 255 255 255 255 0.483345 0.280273
0.227509 -0.808565 -0.052155 -0.400118 0.259017 -0.879099 255 255 255 255 0.483345 0.280273
0.14753 -0.938171 -0.05394 -0.400118 0.259017 -0.879099 255 255 255 255 0.483345 0.280273
0.248283 -0.867587 -0.076859 -0.160456 -0.090122 -0.98292 255 255 255 255 0.483345 0.280273
0.20282 -0.982198 -0.058929 -0.160456 -0.090122 -0.98292 255 255 255 255 0.483345 0.280273
0.14753 -0.938171 -0.05394 -0.160456 -0.090122 -0.98292 255 255 255 255 0.483345 0.280273
-0.037338 -2.3966 -0.04644 -0.197243 -0.574746 -0.794205 255 255 255 255 0.483345 0.280273
0.051239 -2.41739 -0.053391 -0.197243 -0.574746 -0.794205 255 255 255 255 0.483345 0.280273
0.013458 -2.45098 -0.019699 -0.197243 -0.574746 -0.794205 255 255 255 255 0.483345 0.280273
-0.037338 -2.3966 -0.04644 -0.115718 -0.165548 -0.979389 255 255 255 255 0.483345 0.280273
-0.003765 -2.30339 -0.066162 -0.115718 -0.165548 -0.979389 255 255 255 255 0.483345 0.280273
0.051239 -2.41739 -0.053391 -0.115718 -0.165548 -0.979389 255 255 255 255 0.483345 0.280273
0.099743 -2.40751 -0.019699 0.100057 -0.320803 -0.941846 255 255 255 255 0.483345 0.280273
-0.003765 -2.30339 -0.066162 0.100057 -0.320803 -0.941846 255 255 255 255 0.483345 0.280273
0.092087 -2.33139 -0.04644 0.100057 -0.320803 -0.941846 255 255 255 255 0.483345 0.280273
0.051239 -2.41739 -0.053391 0.539163 0.167679 -0.82534 255 255 255 255 0.483345 0.280273
-0.003765 -2.30339 -0.066162 0.539163 0.167679 -0.82534 255 255 255 255 0.483345 0.280273
0.099743 -2.40751 -0.019699 0.539163 0.167679 -0.82534 255 255 255 255 0.483345 0.280273
-0.183414 -0.604812 -0.048271 -0.036738 0.640744 -0.766875 255 255 255 255 0.483345 0.280273
-0.215908 -0.563932 -0.012558 -0.036738 0.640744 -0.766875 255 255 255 255 0.483345 0.280273
-0.053932 -0.581957 -0.035378 -0.036738 0.640744 -0.766875 255 255 255 255 0.483345 0.280273
-0.131695 -0.524458 -0.018326 -0.125029 0.122876 -0.984515 255 255 255 255 0.483345 0.280273
-0.053932 -0.581957 -0.035378 -0.125029 0.122876 -0.984515 255 255 255 255 0.483345 0.280273
-0.215908 -0.563932 -0.012558 -0.125029 0.122876 -0.984515 255 255 255 255 0.483345 0.280273
-0.198792 -0.658628 -0.026535 -0.125119 0.122847 -0.984507 255 255 255 255 0.483345 0.280273
-0.053932 -0.581957 -0.035378 -0.125119 0.122847 -0.984507 255 255 255 255 0.483345 0.280273
-0.106026 -0.666502 -0.039307 -0.125119 0.122847 -0.984507 255 255 255 255 0.483345 0.280273
-0.183414 -0.604812 -0.048271 0.161613 -0.408935 -0.898139 255 255 255 255 0.483345 0.280273
-0.053932 -0.581957 -0.035378 0.161613 -0.408935 -0.898139 255 255 255 255 0.483345 0.280273
-0.198792 -0.658628 -0.026535 0.161613 -0.408935 -0.898139 255 255 255 255 0.483345 0.280273
-0.109779 -0.394693 -0.031525 0.400207 0.124008 -0.907996 255 255 255 255 0.483345 0.280273
-0.105835 -0.545516 -0.050385 0.400207 0.124008 -0.907996 255 255 255 255 0.483345 0.280273
-0.135918 -0.444293 -0.04982 0.400207 0.124008 -0.907996 255 255 255 255 0.483345 0.280273
-0.037922 -0.459181 -0.043915 -0.06107 0.122277 -0.990615 255 255 255 255 0.483345 0.280273
-0.105835 -0.545516 -0.050385 -0.06107 0.122277 -0.990615 255 255 255 255 0.483345 0.280273
-0.109779 -0.394693 -0.031525 -0.06107 0.122277 -0.990615 255 255 255 255 0.483345 0.280273
-0.188728 -0.44899 -0.011436 -0.588244 -0.18777 -0.786582 255 255 255 255 0.483345 0.280273
-0.105835 -0.545516 -0.050385 -0.588244 -0.18777 -0.786582 255 255 255 255 0.483345 0.280273
-0.156345 -0.540624 -0.013779 -0.588244 -0.18777 -0.786582 255 255 255 255 0.483345 0.280273
-0.135918 -0.444293 -0.04982 -0.570239 -0.164981 -0.804742 255 255 255 255 0.483345 0.280273
-0.105835 -0.545516 -0.050385 -0.570239 -0.164981 -0.804742 255 255 255 255 0.483345 0.280273
-0.188728 -0.44899 -0.011436 -0.570239 -0.164981 -0.804742 255 255 255 255 0.483345 0.280273
0.008232 -0.798209 -0.097183 0.177866 0.09928 -0.979034 255 255 255 255 0.483345 0.280273
0.080662 -0.799774 -0.084183 0.177866 0.09928 -0.979034 255 255 255 255 0.483345 0.280273
-0.012001 -0.908451 -0.112038 0.177866 0.09928 -0.979034 255 255 255 255 0.483345 0.280273
0.096642 -0.9108 -0.092537 0.441383 0.13033 -0.887804 255 255 255 255 0.483345 0.280273
0.020226 -0.947563 -0.135925 0.441383 0.13033 -0.887804 255 255 255 255 0.483345 0.280273
0.080662 -0.799774 -0.084183 0.441383 0.13033 -0.887804 255 255 255 255 0.483345 0.280273
0.080662 -0.799774 -0.084183 -0.1902 0.392787 -0.899746 255 255 255 255 0.483345 0.280273
0.020226 -0.947563 -0.135925 -0.1902 0.392787 -0.899746 255 255 255 255 0.483345 0.280273
-0.012001 -0.908451 -0.112038 -0.1902 0.392787 -0.899746 255 255 255 255 0.483345 0.280273
0.026451 -2.05648 -0.018906 0.574196 -0.129744 -0.808372 255 255 255 255 0.483345 0.280273
-0.02467 -2.04776 -0.056618 0.574196 -0.129744 -0.808372 255 255 255 255 0.483345 0.280273
0.02879 -1.96894 -0.031296 0.574196 -0.129744 -0.808372 255 255 255 255 0.483345 0.280273
-0.06628 -2.08219 -0.032928 -0.429146 -0.099099 -0.897782 255 255 255 255 0.483345 0.280273
-0.057964 -1.92888 -0.053825 -0.429146 -0.099099 -0.897782 255 255 255 255 0.483345 0.280273
-0.02467 -2.04776 -0.056618 -0.429146 -0.099099 -0.897782 255 255 255 255 0.483345 0.280273
-0.110306 -2.00749 -0.052338 0.186569 -0.14262 -0.972035 255 255 255 255 0.483345 0.280273
-0.057964 -1.92888 -0.053825 0.186569 -0.14262 -0.972035 255 255 255 255 0.483345 0.280273
-0.06628 -2.08219 -0.032928 0.186569 -0.14262 -0.972035 255 255 255 255 0.483345 0.280273
-0.02467 -2.04776 -0.056618 0.295079 0.104957 -0.949691 255 255 255 255 0.483345 0.280273
-0.057964 -1.92888 -0.053825 0.295079 0.104957 -0.949691 255 255 255 255 0.483345 0.280273
0.02879 -1.96894 -0.031296 0.295079 0.104957 -0.949691 255 255 255 255 0.483345 0.280273
-0.252052 -1.98743 -0.044647 0.288743 0.349734 -0.891243 255 255 255 255 0.483345 0.280273
-0.243649 -2.03744 -0.061546 0.288743 0.349734 -0.891243 255 255 255 255 0.483345 0.280273
-0.336288 -1.9668 -0.063843 0.288743 0.349734 -0.891243 255 255 255 255 0.483345 0.280273
-0.336288 -1.9668 -0.063843 0.186578 -0.142642 -0.97203 255 255 255 255 0.483345 0.280273
-0.323666 -2.11339 -0.039909 0.186578 -0.142642 -0.97203 255 255 255 255 0.483345 0.280273
-0.384029 -2.05078 -0.060684 0.186578 -0.142642 -0.97203 255 255 255 255 0.483345 0.280273
-0.336288 -1.9668 -0.063843 -0.104564 -0.16902 -0.98005 255 255 255 255 0.483345 0.280273
-0.243649 -2.03744 -0.061546 -0.104564 -0.16902 -0.98005 255 255 255 255 0.483345 0.280273
-0.323666 -2.11339 -0.039909 -0.104564 -0.16902 -0.98005 255 255 255 255 0.483345 0.280273
-0.147602 -2.019 -0.025856 0.197687 0.46158 -0.864791 255 255 255 255 0.483345 0.280273
-0.149654 -2.07287 -0.055077 0.197687 0.46158 -0.864791 255 255 255 255 0.483345 0.280273
-0.234016 -2.02611 -0.049408 0.197687 0.46158 -0.864791 255 255 255 255 0.483345 0.280273
-0.113022 -2.10913 -0.019821 0.248384 -0.534439 -0.807886 255 255 255 255 0.483345 0.280273
-0.264759 -2.11736 -0.061028 0.248384 -0.534439 -0.807886 255 255 255 255 0.483345 0.280273
-0.149654 -2.07287 -0.055077 0.248384 -0.534439 -0.807886 255 255 255 255 0.483345 0.280273
-0.182144 -2.16132 -0.040359 0.260136 0.035195 -0.96493 255 255 255 255 0.483345 0.280273
-0.264759 -2.11736 -0.061028 0.260136 0.035195 -0.96493 255 255 255 255 0.483345 0.280273
-0.113022 -2.10913 -0.019821 0.260136 0.035195 -0.96493 255 255 255 255 0.483345 0.280273
-0.149654 -2.07287 -0.055077 0.002818 0.125385 -0.992104 255 255 255 255 0.483345 0.280273
-0.264759 -2.11736 -0.061028 0.002818 0.125385 -0.992104 255 255 255 255 0.483345 0.280273
-0.234016 -2.02611 -0.049408 0.002818 0.125385 -0.992104 255 255 255 255 0.483345 0.280273
-0.207935 -2.2522 -0.02491 -0 -0 -1 255 255 255 255 0.483345 0.280273
-0.377789 -2.29444 -0.02491 -0 -0 -1 255 255 255 255 0.483345 0.280273
-0.305275 -2.22598 -0.02491 -0 -0 -1 255 255 255 255 0.483345 0.280273
-0.207935 -2.2522 -0.02491 -0.136379 0.548413 -0.825011 255 255 255 255 0.483345 0.280273
-0.329987 -2.32217 -0.051239 -0.136379 0.548413 -0.825011 255 255 255 255 0.483345 0.280273
-0.377789 -2.29444 -0.02491 -0.136379 0.548413 -0.825011 255 255 255 255 0.483345 0.280273
-0.329987 -2.32217 -0.051239 0.401371 -0.387986 -0.82968 255 255 255 255 0.483345 0.280273
-0.207935 -2.2522 -0.02491 0.401371 -0.387986 -0.82968 255 255 255 255 0.483345 0.280273
-0.329849 -2.37832 -0.02491 0.401371 -0.387986 -0.82968 255 255 255 255 0.483345 0.280273
-0.23336 -2.3518 -0.02491 0 -0 -1 255 255 255 255 0.483345 0.280273
-0.329849 -2.37832 -0.02491 0 -0 -1 255 255 255 255 0.483345 0.280273
-0.294205 -2.24378 -0.022682 -0.471394 -0.544508 -0.693757 255 255 255 255 0.445969 0.30488
-0.289646 -2.27663 0 -0.471394 -0.544508 -0.693757 255 255 255 255 0.445969 0.30488
-0.313255 -2.25619 0 -0.471394 -0.544508 -0.693757 255 255 255 255 0.445969 0.30488
0.043488 1e-06 -0 0.721876 -0 -0.692023 255 255 255 255 0.445969 0.30488
0.021744 -0.316715 -0.022682 0.721876 -0 -0.692023 255 255 255 255 0.445969 0.30488
0.021744 1e-06 -0.022682 0.721876 -0 -0.692023 255 255 255 255 0.445969 0.30488
0.021744 1e-06 -0.022682 -0.721876 -0 -0.692023 255 255 255 255 0.445969 0.30488
0 -0.316715 0 -0.721876 -0 -0.692023 255 255 255 255 0.445969 0.30488
0 1e-06 -0 -0.721876 -0 -0.692023 255 255 255 255 0.445969 0.30488
0.021744 -0.316715 -0.022682 0.609299 -0.236478 -0.756857 255 255 255 255 0.445969 0.30488
-0.070915 -0.628051 0 0.609299 -0.236478 -0.756857 255 255 255 255 0.445969 0.30488
-0.100098 -0.630648 -0.022682 0.609299 -0.236478 -0.756857 255 255 255 255 0.445969 0.30488
0 -0.316715 0 -0.672007 0.264253 -0.691793 255 255 255 255 0.445969 0.30488
-0.100098 -0.630648 -0.022682 -0.672007 0.264253 -0.691793 255 255 255 255 0.445969 0.30488
-0.120033 -0.621964 0 -0.672007 0.264253 -0.691793 255 255 255 255 0.445969 0.30488
-0.070915 -0.628051 0 0.582192 0.240671 -0.776614 255 255 255 255 0.445969 0.30488
0.018085 -0.916537 -0.022682 0.582192 0.240671 -0.776614 255 255 255 255 0.445969 0.30488
-0.100098 -0.630648 -0.022682 0.582192 0.240671 -0.776614 255 255 255 255 0.445969 0.30488
-0.100098 -0.630648 -0.022682 -0.770671 -0.298112 -0.563201 255 255 255 255 0.445969 0.30488
-0.009449 -0.907843 0 -0.770671 -0.298112 -0.563201 255 255 255 255 0.445969 0.30488
-0.120033 -0.621964 0 -0.770671 -0.298112 -0.563201 255 255 255 255 0.445969 0.30488
0.021999 -0.951607 0 0.879109 -0.185769 -0.438927 255 255 255 255 0.445969 0.30488
-0.037796 -1.18098 -0.022682 0.879109 -0.185769 -0.438927 255 255 255 255 0.445969 0.30488
0.018085 -0.916537 -0.022682 0.879109 -0.185769 -0.438927 255 255 255 255 0.445969 0.30488
0.018085 -0.916537 -0.022682 -0.611746 0.107316 -0.783741 255 255 255 255 0.445969 0.30488
-0.055042 -1.16774 0 -0.611746 0.107316 -0.783741 255 255 255 255 0.445969 0.30488
-0.009449 -0.907843 0 -0.611746 0.107316 -0.783741 255 255 255 255 0.445969 0.30488
-0.037796 -1.18098 -0.022682 0.523688 -0.497293 -0.691701 255 255 255 255 0.445969 0.30488
-0.181396 -1.36375 0 0.523688 -0.497293 -0.691701 255 255 255 255 0.445969 0.30488
-0.19775 -1.34942 -0.022682 0.523688 -0.497293 -0.691701 255 255 255 255 0.445969 0.30488
-0.055042 -1.16774 0 -0.523484 0.497539 -0.691679 255 255 255 255 0.445969 0.30488
-0.19775 -1.34942 -0.022682 -0.523484 0.497539 -0.691679 255 255 255 255 0.445969 0.30488
-0.2141 -1.3351 0 -0.523484 0.497539 -0.691679 255 255 255 255 0.445969 0.30488
-0.181396 -1.36375 0 0.847066 0.169316 -0.503797 255 255 255 255 0.445969 0.30488
-0.149216 -1.59223 -0.022682 0.847066 0.169316 -0.503797 255 255 255 255 0.445969 0.30488
-0.19775 -1.34942 -0.022682 0.847066 0.169316 -0.503797 255 255 255 255 0.445969 0.30488
-0.19775 -1.34942 -0.022682 -0.843541 -0.143094 -0.517651 255 255 255 255 0.445969 0.30488
-0.168922 -1.60142 0 -0.843541 -0.143094 -0.517651 255 255 255 255 0.445969 0.30488
-0.2141 -1.3351 0 -0.843541 -0.143094 -0.517651 255 255 255 255 0.445969 0.30488
-0.129509 -1.58304 0 0.503967 0.554197 -0.662483 255 255 255 255 0.445969 0.30488
0.01746 -1.7438 -0.022682 0.503967 0.554197 -0.662483 255 255 255 255 0.445969 0.30488
-0.149216 -1.59223 -0.022682 0.503967 0.554197 -0.662483 255 255 255 255 0.445969 0.30488
-0.149216 -1.59223 -0.022682 -0.501923 -0.557028 -0.66166 255 255 255 255 0.445969 0.30488
-0.003113 -1.75083 0 -0.501923 -0.557028 -0.66166 255 255 255 255 0.445969 0.30488
-0.168922 -1.60142 0 -0.501923 -0.557028 -0.66166 255 255 255 255 0.445969 0.30488
0.01746 -1.7438 -0.022682 0.710858 -0.146444 -0.687921 255 255 255 255 0.445969 0.30488
-0.019253 -2.02856 0 0.710858 -0.146444 -0.687921 255 255 255 255 0.445969 0.30488
-0.03965 -2.02102 -0.022682 0.710858 -0.146444 -0.687921 255 255 255 255 0.445969 0.30488
-0.003113 -1.75083 0 -0.708924 0.153648 -0.688345 255 255 255 255 0.445969 0.30488
-0.03965 -2.02102 -0.022682 -0.708924 0.153648 -0.688345 255 255 255 255 0.445969 0.30488
-0.06004 -2.01348 0 -0.708924 0.153648 -0.688345 255 255 255 255 0.445969 0.30488
0.004612 -2.62099 -0.022682 -0.098754 -0.846082 -0.523826 255 255 255 255 0.445969 0.30488
0.037899 -2.63891 0 -0.098754 -0.846082 -0.523826 255 255 255 255 0.445969 0.30488
-0.006439 -2.63374 0 -0.098754 -0.846082 -0.523826 255 255 255 255 0.445969 0.30488
-0.069847 -2.0667 0 0.220269 -0.546717 -0.807826 255 255 255 255 0.445969 0.30488
-0.215637 -2.09193 -0.022682 0.220269 -0.546717 -0.807826 255 255 255 255 0.445969 0.30488
-0.03965 -2.02102 -0.022682 0.220269 -0.546717 -0.807826 255 255 255 255 0.445969 0.30488
-0.06004 -2.01348 0 -0.266097 0.71483 -0.646692 255 255 255 255 0.445969 0.30488
-0.215637 -2.09193 -0.022682 -0.266097 0.71483 -0.646692 255 255 255 255 0.445969 0.30488
-0.235279 -2.07872 0 -0.266097 0.71483 -0.646692 255 255 255 255 0.445969 0.30488
-0.199032 -2.10594 0 0.64905 -0.335809 -0.682617 255 255 255 255 0.445969 0.30488
-0.294205 -2.24378 -0.022682 0.64905 -0.335809 -0.682617 255 255 255 255 0.445969 0.30488
-0.215637 -2.09193 -0.022682 0.64905 -0.335809 -0.682617 255 255 255 255 0.445969 0.30488
-0.235279 -2.07872 0 -0.802574 0.352629 -0.481172 255 255 255 255 0.445969 0.30488
-0.294205 -2.24378 -0.022682 -0.802574 0.352629 -0.481172 255 255 255 255 0.445969 0.30488
-0.313255 -2.25619 0 -0.802574 0.352629 -0.481172 255 255 255 255 0.445969 0.30488
-0.019253 -2.02856 0 0.757555 0.118001 -0.642017 255 255 255 255 0.445969 0.30488
-0.003326 -2.25422 -0.022682 0.757555 0.118001 -0.642017 255 255 255 255 0.445969 0.30488
-0.03965 -2.02102 -0.022682 0.757555 0.118001 -0.642017 255 255 255 255 0.445969 0.30488
-0.069847 -2.0667 0 -0.546751 -0.093311 -0.832079 255 255 255 255 0.445969 0.30488
-0.003326 -2.25422 -0.022682 -0.546751 -0.093311 -0.832079 255 255 255 255 0.445969 0.30488
-0.034798 -2.27207 0 -0.546751 -0.093311 -0.832079 255 255 255 255 0.445969 0.30488
-0.003326 -2.25422 -0.022682 0.504718 -0.21757 -0.835418 255 255 255 255 0.445969 0.30488
-0.056801 -2.46536 0 0.504718 -0.21757 -0.835418 255 255 255 255 0.445969 0.30488
-0.09272 -2.4616 -0.022682 0.504718 -0.21757 -0.835418 255 255 255 255 0.445969 0.30488
-0.034798 -2.27207 0 -0.663464 0.285536 -0.691582 255 255 255 255 0.445969 0.30488
-0.09272 -2.4616 -0.022682 -0.663464 0.285536 -0.691582 255 255 255 255 0.445969 0.30488
-0.119987 -2.47002 0 -0.663464 0.285536 -0.691582 255 255 255 255 0.445969 0.30488
-0.056801 -2.46536 0 0.529287 0.323209 -0.784469 255 255 255 255 0.445969 0.30488
0.004612 -2.62099 -0.022682 0.529287 0.323209 -0.784469 255 255 255 255 0.445969 0.30488
-0.09272 -2.4616 -0.022682 0.529287 0.323209 -0.784469 255 255 255 255 0.445969 0.30488
-0.09272 -2.4616 -0.022682 -0.526213 -0.364946 -0.768058 255 255 255 255 0.445969 0.30488
-0.006439 -2.63374 0 -0.526213 -0.364946 -0.768058 255 255 255 255 0.445969 0.30488
-0.119987 -2.47002 0 -0.526213 -0.364946 -0.768058 255 255 255 255 0.445969 0.30488
0.043858 -0.901428 0 0.324512 0.574503 -0.751424 255 255 255 255 0.445969 0.30488
0.132999 -0.981447 -0.022682 0.324512 0.574503 -0.751424 255 255 255 255 0.445969 0.30488
0.018085 -0.916537 -0.022682 0.324512 0.574503 -0.751424 255 255 255 255 0.445969 0.30488
0.021999 -0.951607 0 -0.316719 -0.66122 -0.680056 255 255 255 255 0.445969 0.30488
0.132999 -0.981447 -0.022682 -0.316719 -0.66122 -0.680056 255 255 255 255 0.445969 0.30488
0.120796 -0.99893 0 -0.316719 -0.66122 -0.680056 255 255 255 255 0.445969 0.30488
0.132999 -0.981447 -0.022682 0.523193 0.009101 -0.852165 255 255 255 255 0.445969 0.30488
0.172031 -1.10148 0 0.523193 0.009101 -0.852165 255 255 255 255 0.445969 0.30488
0.135124 -1.10361 -0.022682 0.523193 0.009101 -0.852165 255 255 255 255 0.445969 0.30488
0.120796 -0.99893 0 -0.843875 0.000752 -0.536539 255 255 255 255 0.445969 0.30488
0.135124 -1.10361 -0.022682 -0.843875 0.000752 -0.536539 255 255 255 255 0.445969 0.30488
0.120689 -1.11898 0 -0.843875 0.000752 -0.536539 255 255 255 255 0.445969 0.30488
0.172031 -1.10148 0 0.480953 0.327622 -0.813233 255 255 255 255 0.444845 0.305913
0.229774 -1.24255 -0.022682 0.480953 0.327622 -0.813233 255 255 255 255 0.444845 0.305913
0.135124 -1.10361 -0.022682 0.480953 0.327622 -0.813233 255 255 255 255 0.444845 0.305913
0.120689 -1.11898 0 -0.6881 -0.513304 -0.512872 255 255 255 255 0.445969 0.30488
0.229774 -1.24255 -0.022682 -0.6881 -0.513304 -0.512872 255 255 255 255 0.445969 0.30488
0.225143 -1.25901 0 -0.6881 -0.513304 -0.512872 255 255 255 255 0.445969 0.30488
0.229774 -1.24255 -0.022682 0.654885 -0.668959 -0.351596 255 255 255 255 0.444845 0.305913
0.255138 -1.22964 0 0.654885 -0.668959 -0.351596 255 255 255 255 0.444845 0.305913
0.225143 -1.25901 0 0.654885 -0.668959 -0.351596 255 255 255 255 0.444845 0.305913
0.043488 -0.316715 0 0.721876 -0 -0.692023 255 255 255 255 0.445969 0.30488
0.021744 -0.316715 -0.022682 -0.721876 -0 -0.692023 255 255 255 255 0.445969 0.30488
0.021744 -0.316715 -0.022682 0.697745 -0.256392 -0.66889 255 255 255 255 0.445969 0.30488
0.043488 -0.316715 0 0.697745 -0.256392 -0.66889 255 255 255 255 0.445969 0.30488
-0.070915 -0.628051 0 0.697745 -0.256392 -0.66889 255 255 255 255 0.445969 0.30488
0 -0.316715 0 -0.695109 0.269782 -0.666364 255 255 255 255 0.445969 0.30488
0.021744 -0.316715 -0.022682 -0.695109 0.269782 -0.666364 255 255 255 255 0.445969 0.30488
-0.100098 -0.630648 -0.022682 -0.695109 0.269782 -0.666364 255 255 255 255 0.445969 0.30488
-0.070915 -0.628051 0 0.560672 0.235389 -0.793876 255 255 255 255 0.445969 0.30488
0.043858 -0.901428 0 0.560672 0.235389 -0.793876 255 255 255 255 0.445969 0.30488
0.018085 -0.916537 -0.022682 0.560672 0.235389 -0.793876 255 255 255 255 0.445969 0.30488
-0.100098 -0.630648 -0.022682 -0.661557 -0.27348 -0.698249 255 255 255 255 0.445969 0.30488
0.018085 -0.916537 -0.022682 -0.661557 -0.27348 -0.698249 255 255 255 255 0.445969 0.30488
-0.009449 -0.907843 0 -0.661557 -0.27348 -0.698249 255 255 255 255 0.445969 0.30488
0.021999 -0.951607 0 0.750532 -0.131616 -0.647594 255 255 255 255 0.445969 0.30488
-0.020546 -1.19422 0 0.750532 -0.131616 -0.647594 255 255 255 255 0.445969 0.30488
-0.037796 -1.18098 -0.022682 0.750532 -0.131616 -0.647594 255 255 255 255 0.445969 0.30488
0.018085 -0.916537 -0.022682 -0.740126 0.1564 -0.654028 255 255 255 255 0.445969 0.30488
-0.037796 -1.18098 -0.022682 -0.740126 0.1564 -0.654028 255 255 255 255 0.445969 0.30488
-0.055042 -1.16774 0 -0.740126 0.1564 -0.654028 255 255 255 255 0.445969 0.30488
-0.037796 -1.18098 -0.022682 0.525067 -0.498168 -0.690024 255 255 255 255 0.445969 0.30488
-0.020546 -1.19422 0 0.525067 -0.498168 -0.690024 255 255 255 255 0.445969 0.30488
-0.181396 -1.36375 0 0.525067 -0.498168 -0.690024 255 255 255 255 0.445969 0.30488
-0.055042 -1.16774 0 -0.524878 0.498423 -0.689984 255 255 255 255 0.445969 0.30488
-0.037796 -1.18098 -0.022682 -0.524878 0.498423 -0.689984 255 255 255 255 0.445969 0.30488
-0.19775 -1.34942 -0.022682 -0.524878 0.498423 -0.689984 255 255 255 255 0.445969 0.30488
-0.181396 -1.36375 0 0.709468 0.167871 -0.684452 255 255 255 255 0.445969 0.30488
-0.129509 -1.58304 0 0.709468 0.167871 -0.684452 255 255 255 255 0.445969 0.30488
-0.149216 -1.59223 -0.022682 0.709468 0.167871 -0.684452 255 255 255 255 0.445969 0.30488
-0.19775 -1.34942 -0.022682 -0.717593 -0.143437 -0.681532 255 255 255 255 0.445969 0.30488
-0.149216 -1.59223 -0.022682 -0.717593 -0.143437 -0.681532 255 255 255 255 0.445969 0.30488
-0.168922 -1.60142 0 -0.717593 -0.143437 -0.681532 255 255 255 255 0.445969 0.30488
-0.129509 -1.58304 0 0.51727 0.56374 -0.643916 255 255 255 255 0.445969 0.30488
0.038036 -1.73678 0 0.51727 0.56374 -0.643916 255 255 255 255 0.445969 0.30488
0.01746 -1.7438 -0.022682 0.51727 0.56374 -0.643916 255 255 255 255 0.445969 0.30488
-0.149216 -1.59223 -0.022682 -0.51533 -0.566694 -0.642879 255 255 255 255 0.445969 0.30488
0.01746 -1.7438 -0.022682 -0.51533 -0.566694 -0.642879 255 255 255 255 0.445969 0.30488
-0.003113 -1.75083 0 -0.51533 -0.566694 -0.642879 255 255 255 255 0.445969 0.30488
0.01746 -1.7438 -0.022682 0.754894 -0.148215 -0.638879 255 255 255 255 0.445969 0.30488
0.038036 -1.73678 0 0.754894 -0.148215 -0.638879 255 255 255 255 0.445969 0.30488
-0.019253 -2.02856 0 0.754894 -0.148215 -0.638879 255 255 255 255 0.445969 0.30488
-0.003113 -1.75083 0 -0.755178 0.155574 -0.636791 255 255 255 255 0.445969 0.30488
0.01746 -1.7438 -0.022682 -0.755178 0.155574 -0.636791 255 255 255 255 0.445969 0.30488
-0.03965 -2.02102 -0.022682 -0.755178 0.155574 -0.636791 255 255 255 255 0.445969 0.30488
-0.069847 -2.0667 0 0.226499 -0.745754 -0.626538 255 255 255 255 0.445969 0.30488
-0.199032 -2.10594 0 0.226499 -0.745754 -0.626538 255 255 255 255 0.445969 0.30488
-0.215637 -2.09193 -0.022682 0.226499 -0.745754 -0.626538 255 255 255 255 0.445969 0.30488
-0.06004 -2.01348 0 -0.314165 0.779771 -0.541533 255 255 255 255 0.445969 0.30488
-0.03965 -2.02102 -0.022682 -0.314165 0.779771 -0.541533 255 255 255 255 0.445969 0.30488
-0.215637 -2.09193 -0.022682 -0.314165 0.779771 -0.541533 255 255 255 255 0.445969 0.30488
-0.199032 -2.10594 0 0.670816 -0.356117 -0.650528 255 255 255 255 0.445969 0.30488
-0.289646 -2.27663 0 0.670816 -0.356117 -0.650528 255 255 255 255 0.445969 0.30488
-0.294205 -2.24378 -0.022682 0.670816 -0.356117 -0.650528 255 255 255 255 0.445969 0.30488
-0.235279 -2.07872 0 -0.616606 0.319023 -0.719737 255 255 255 255 0.445969 0.30488
-0.215637 -2.09193 -0.022682 -0.616606 0.319023 -0.719737 255 255 255 255 0.445969 0.30488
-0.294205 -2.24378 -0.022682 -0.616606 0.319023 -0.719737 255 255 255 255 0.445969 0.30488
-0.019253 -2.02856 0 0.610426 0.121753 -0.78266 255 255 255 255 0.445969 0.30488
0.028389 -2.26742 0 0.610426 0.121753 -0.78266 255 255 255 255 0.445969 0.30488
-0.003326 -2.25422 -0.022682 0.610426 0.121753 -0.78266 255 255 255 255 0.445969 0.30488
-0.069847 -2.0667 0 -0.517754 -0.080648 -0.85172 255 255 255 255 0.445969 0.30488
-0.03965 -2.02102 -0.022682 -0.517754 -0.080648 -0.85172 255 255 255 255 0.445969 0.30488
-0.003326 -2.25422 -0.022682 -0.517754 -0.080648 -0.85172 255 255 255 255 0.445969 0.30488
-0.003326 -2.25422 -0.022682 0.506137 -0.21783 -0.834491 255 255 255 255 0.445969 0.30488
0.028389 -2.26742 0 0.506137 -0.21783 -0.834491 255 255 255 255 0.445969 0.30488
-0.056801 -2.46536 0 0.506137 -0.21783 -0.834491 255 255 255 255 0.445969 0.30488
-0.034798 -2.27207 0 -0.661596 0.285196 -0.693508 255 255 255 255 0.445969 0.30488
-0.003326 -2.25422 -0.022682 -0.661596 0.285196 -0.693508 255 255 255 255 0.445969 0.30488
-0.09272 -2.4616 -0.022682 -0.661596 0.285196 -0.693508 255 255 255 255 0.445969 0.30488
-0.056801 -2.46536 0 0.649355 0.354329 -0.672896 255 255 255 255 0.445969 0.30488
0.037899 -2.63891 0 0.649355 0.354329 -0.672896 255 255 255 255 0.445969 0.30488
0.004612 -2.62099 -0.022682 0.649355 0.354329 -0.672896 255 255 255 255 0.445969 0.30488
-0.09272 -2.4616 -0.022682 -0.696275 -0.42518 -0.578294 255 255 255 255 0.445969 0.30488
0.004612 -2.62099 -0.022682 -0.696275 -0.42518 -0.578294 255 255 255 255 0.445969 0.30488
-0.006439 -2.63374 0 -0.696275 -0.42518 -0.578294 255 255 255 255 0.445969 0.30488
0.043858 -0.901428 0 0.40399 0.636326 -0.657177 255 255 255 255 0.445969 0.30488
0.162498 -0.97675 0 0.40399 0.636326 -0.657177 255 255 255 255 0.445969 0.30488
0.132999 -0.981447 -0.022682 0.40399 0.636326 -0.657177 255 255 255 255 0.445969 0.30488
0.021999 -0.951607 0 -0.30554 -0.540915 -0.783617 255 255 255 255 0.445969 0.30488
0.018085 -0.916537 -0.022682 -0.30554 -0.540915 -0.783617 255 255 255 255 0.445969 0.30488
0.132999 -0.981447 -0.022682 -0.30554 -0.540915 -0.783617 255 255 255 255 0.445969 0.30488
0.132999 -0.981447 -0.022682 0.604268 0.046182 -0.795442 255 255 255 255 0.445969 0.30488
0.162498 -0.97675 0 0.604268 0.046182 -0.795442 255 255 255 255 0.445969 0.30488
0.172031 -1.10148 0 0.604268 0.046182 -0.795442 255 255 255 255 0.445969 0.30488
0.120796 -0.99893 0 -0.875592 -0.015231 -0.482812 255 255 255 255 0.445969 0.30488
0.132999 -0.981447 -0.022682 -0.875592 -0.015231 -0.482812 255 255 255 255 0.445969 0.30488
0.135124 -1.10361 -0.022682 -0.875592 -0.015231 -0.482812 255 255 255 255 0.445969 0.30488
0.172031 -1.10148 0 0.524677 0.340234 -0.780355 255 255 255 255 0.444845 0.305913
0.255138 -1.22964 0 0.524677 0.340234 -0.780355 255 255 255 255 0.444845 0.305913
0.229774 -1.24255 -0.022682 0.524677 0.340234 -0.780355 255 255 255 255 0.444845 0.305913
0.120689 -1.11898 0 -0.61197 -0.416871 -0.672094 255 255 255 255 0.445969 0.30488
0.135124 -1.10361 -0.022682 -0.61197 -0.416871 -0.672094 255 255 255 255 0.445969 0.30488
0.229774 -1.24255 -0.022682 -0.61197 -0.416871 -0.672094 255 255 255 255 0.445969 0.30488
3 0 1 2 
3 3 4 5 
3 6 7 8 
3 9 10 11 
3 12 13 14 
3 15 16 17 
3 18 19 20 
3 21 22 23 
3 24 25 26 
3 27 28 29 
3 30 31 32 
3 33 34 35 
3 36 37 38 
3 39 40 41 
3 42 43 44 
3 45 46 47 
3 48 49 50 
3 51 52 53 
3 54 55 56 
3 57 58 59 
3 60 61 62 
3 63 64 65 
3 66 67 68 
3 69 70 71 
3 72 73 74 
3 75 76 77 
3 78 79 80 
3 81 82 83 
3 84 85 86 
3 87 88 89 
3 90 91 81 
3 92 93 94 
3 95 96 97 
3 98 99 100 
3 101 102 92 
3 103 104 105 
3 106 107 108 
3 109 110 111 
3 112 113 114 
3 115 116 117 
3 118 119 120 
3 121 122 123 
3 124 125 126 
3 127 128 129 
3 130 131 132 
3 133 134 135 
3 136 137 138 
3 139 140 141 
3 142 143 144 
3 145 146 147 
3 148 149 150 
3 151 152 153 
3 154 155 156 
3 157 158 159 
3 160 161 162 
3 163 164 165 
3 166 167 168 
3 169 170 171 
3 172 173 174 
3 175 176 177 
3 178 179 180 
3 181 182 183 
3 184 185 186 
3 187 188 189 
3 190 191 192 
3 193 194 195 
3 196 197 198 
3 199 200 201 
3 202 203 204 
3 205 206 207 
3 208 209 210 
3 211 212 213 
3 214 215 216 
3 217 218 219 
3 220 221 222 
3 223 224 225 
3 226 227 228 
3 229 230 231 
3 232 233 234 
3 235 236 237 
3 238 239 240 
3 241 242 243 
3 244 245 246 
3 247 248 249 
3 250 251 252 
3 253 254 244 
3 255 256 257 
3 258 259 260 
3 261 262 263 
3 264 265 266 
3 267 268 269 
3 270 271 272 
3 273 274 275 
3 276 277 278 
3 279 280 281 
3 282 283 284 
3 285 286 287 
3 288 289 290 
3 291 292 293 
3 294 295 296 
3 297 298 299 
3 300 301 302 
3 303 304 305 
3 306 307 308 
3 309 310 311 
3 312 313 314 
3 315 316 317 
3 318 319 320 
3 321 322 323 
3 324 325 326 
3 327 328 329 
3 330 331 332 
3 333 334 335 
3 336 337 338 
3 339 340 341 
3 342 343 344 
3 345 346 347 
3 348 349 350 
3 351 352 353 
3 354 355 356 
3 357 358 359 
3 258 360 259 
3 261 361 262 
3 362 363 364 
3 365 366 367 
3 368 369 370 
3 371 372 373 
3 374 375 376 
3 377 378 379 
3 380 381 382 
3 383 384 385 
3 386 387 388 
3 389 390 391 
3 392 393 394 
3 395 396 397 
3 398 399 400 
3 401 402 403 
3 404 405 406 
3 407 408 409 
3 410 411 412 
3 413 414 415 
3 416 417 418 
3 419 420 421 
3 422 423 424 
3 425 426 427 
3 428 429 430 
3 431 432 433 
3 434 435 436 
3 437 438 439 
3 440 441 442 
3 443 444 445 
3 446 447 448 
3 449 450 451 
