ply
format ascii 1.0
comment VCGLIB generated
comment TextureFile Dungeons_2_Texture_01_A.png
element vertex 264
property float x
property float y
property float z
property float nx
property float ny
property float nz
property uchar red
property uchar green
property uchar blue
property uchar alpha
property float texture_u
property float texture_v
element face 88
property list uchar int vertex_indices
end_header
-2.44226 38.2764 -9.20026 0.279021 0.75725 0.590525 255 255 255 255 0.143693 0.281216
1.23462 37.8883 -10.44 0.279021 0.75725 0.590525 255 255 255 255 0.143693 0.281216
-2.6322 44.7775 -17.4471 0.279021 0.75725 0.590525 255 255 255 255 0.143693 0.281216
-2.6322 44.7775 -17.4471 -0.328695 -0.433083 -0.839285 255 255 255 255 0.143693 0.281216
0.111633 34.0996 -13.0117 -0.328695 -0.433083 -0.839285 255 255 255 255 0.143693 0.281216
-3.56512 34.4878 -11.7721 -0.328695 -0.433083 -0.839285 255 255 255 255 0.143693 0.281216
-0.190369 -4.35219 -3.29336 0.042661 -0.988833 -0.142794 255 255 255 255 0.143693 0.281216
1.83466 -4.65253 -0.60855 0.042661 -0.988833 -0.142794 255 255 255 255 0.143693 0.281216
-4.59509 -4.88109 -0.946746 0.042661 -0.988833 -0.142794 255 255 255 255 0.143693 0.281216
-4.59509 -4.88109 -0.946746 0.038737 -0.997295 -0.062468 255 255 255 255 0.143693 0.281216
1.83466 -4.65253 -0.60855 0.038737 -0.997295 -0.062468 255 255 255 255 0.143693 0.281216
-3.534 -5.00782 1.73453 0.038737 -0.997295 -0.062468 255 255 255 255 0.143693 0.281216
1.23462 37.8883 -10.44 0.891587 0.041805 -0.450916 255 255 255 255 0.143693 0.281216
0.111633 34.0996 -13.0117 0.891587 0.041805 -0.450916 255 255 255 255 0.143693 0.281216
-2.6322 44.7775 -17.4471 0.891587 0.041805 -0.450916 255 255 255 255 0.143693 0.281216
-3.56512 34.4878 -11.7721 -0.970644 0.177513 0.162292 255 255 255 255 0.143693 0.281216
-2.44226 38.2764 -9.20026 -0.970644 0.177513 0.162292 255 255 255 255 0.143693 0.281216
-2.6322 44.7775 -17.4471 -0.970644 0.177513 0.162292 255 255 255 255 0.143693 0.281216
-2.44226 38.2764 -9.20026 0.331331 0.378836 0.86412 255 255 255 255 0.143693 0.281216
2.74066 22.5571 -4.29612 0.331331 0.378836 0.86412 255 255 255 255 0.143693 0.281216
1.23462 37.8883 -10.44 0.331331 0.378836 0.86412 255 255 255 255 0.143693 0.281216
2.74066 22.5571 -4.29612 0.938247 -0.045283 -0.34299 255 255 255 255 0.143693 0.281216
0.111633 34.0996 -13.0117 0.938247 -0.045283 -0.34299 255 255 255 255 0.143693 0.281216
1.23462 37.8883 -10.44 0.938247 -0.045283 -0.34299 255 255 255 255 0.143693 0.281216
-3.56512 34.4878 -11.7721 -0.369868 -0.312038 -0.875117 255 255 255 255 0.143693 0.281216
0.614258 19.2533 -8.10639 -0.369868 -0.312038 -0.875117 255 255 255 255 0.143693 0.281216
-5.14069 19.3216 -5.69843 -0.369868 -0.312038 -0.875117 255 255 255 255 0.143693 0.281216
-3.56512 34.4878 -11.7721 -0.968904 0.157771 0.190613 255 255 255 255 0.143693 0.281216
-3.53735 22.7194 -1.8902 -0.968904 0.157771 0.190613 255 255 255 255 0.143693 0.281216
-2.44226 38.2764 -9.20026 -0.968904 0.157771 0.190613 255 255 255 255 0.143693 0.281216
3.66724 56.0594 0.802237 -0.836948 0.451896 -0.30872 255 255 255 255 0.143693 0.281216
2.48792 55.9819 3.88604 -0.836948 0.451896 -0.30872 255 255 255 255 0.143693 0.281216
9.94623 69.8848 4.01705 -0.836948 0.451896 -0.30872 255 255 255 255 0.143693 0.281216
9.94623 69.8848 4.01705 0.915168 -0.208619 0.344884 255 255 255 255 0.143693 0.281216
5.0957 50.4833 5.15228 0.915168 -0.208619 0.344884 255 255 255 255 0.143693 0.281216
6.27527 50.5608 2.06914 0.915168 -0.208619 0.344884 255 255 255 255 0.143693 0.281216
1.18665 -3.85927 5.03772 0.092054 -0.994131 0.056831 255 255 255 255 0.143693 0.281216
-1.11169 -4.1203 4.19437 0.092054 -0.994131 0.056831 255 255 255 255 0.143693 0.281216
2.50647 -4.00519 0.347352 0.092054 -0.994131 0.056831 255 255 255 255 0.143693 0.281216
2.50647 -4.00519 0.347352 0.092051 -0.994131 0.056829 255 255 255 255 0.143693 0.281216
-1.11169 -4.1203 4.19437 0.092051 -0.994131 0.056829 255 255 255 255 0.143693 0.281216
0.208435 -4.2662 -0.496367 0.092051 -0.994131 0.056829 255 255 255 255 0.143693 0.281216
2.48792 55.9819 3.88604 -0.229261 0.11388 0.96668 255 255 255 255 0.143693 0.281216
5.0957 50.4833 5.15228 -0.229261 0.11388 0.96668 255 255 255 255 0.143693 0.281216
9.94623 69.8848 4.01705 -0.229261 0.11388 0.96668 255 255 255 255 0.143693 0.281216
6.27527 50.5608 2.06914 0.446203 0.005445 -0.894915 255 255 255 255 0.143693 0.281216
3.66724 56.0594 0.802237 0.446203 0.005445 -0.894915 255 255 255 255 0.143693 0.281216
9.94623 69.8848 4.01705 0.446203 0.005445 -0.894915 255 255 255 255 0.143693 0.281216
0.208435 -4.2662 -0.496367 -0.946703 0.012738 -0.321855 255 255 255 255 0.143693 0.281216
-0.614136 34.7605 3.46774 -0.946703 0.012738 -0.321855 255 255 255 255 0.143693 0.281216
0.770996 34.7667 -0.606238 -0.946703 0.012738 -0.321855 255 255 255 255 0.143693 0.281216
-1.11169 -4.1203 4.19437 -0.383751 0.022164 0.923171 255 255 255 255 0.143693 0.281216
2.22253 30.6421 4.74578 -0.383751 0.022164 0.923171 255 255 255 255 0.143693 0.281216
-0.614136 34.7605 3.46774 -0.383751 0.022164 0.923171 255 255 255 255 0.143693 0.281216
3.60791 30.6483 0.672236 0.961819 -0.033118 0.271677 255 255 255 255 0.143693 0.281216
1.18665 -3.85927 5.03772 0.961819 -0.033118 0.271677 255 255 255 255 0.143693 0.281216
2.50647 -4.00519 0.347352 0.961819 -0.033118 0.271677 255 255 255 255 0.143693 0.281216
3.60791 30.6483 0.672236 0.400742 -0.008354 -0.916153 255 255 255 255 0.143693 0.281216
0.208435 -4.2662 -0.496367 0.400742 -0.008354 -0.916153 255 255 255 255 0.143693 0.281216
0.770996 34.7667 -0.606238 0.400742 -0.008354 -0.916153 255 255 255 255 0.143693 0.281216
-5.27466 48.7547 7.66653 -0.945823 0.006639 0.324614 255 255 255 255 0.143693 0.281216
-4.61749 43.2924 9.69302 -0.945823 0.006639 0.324614 255 255 255 255 0.143693 0.281216
-2.97266 65.3688 14.034 -0.945823 0.006639 0.324614 255 255 255 255 0.143693 0.281216
-2.97266 65.3688 14.034 0.993599 0.100523 -0.051536 255 255 255 255 0.143693 0.281216
-0.835876 42.1137 9.87054 0.993599 0.100523 -0.051536 255 255 255 255 0.143693 0.281216
-1.49359 47.5759 7.84432 0.993599 0.100523 -0.051536 255 255 255 255 0.143693 0.281216
0.999023 -3.75854 2.46362 0.092057 -0.99413 0.056834 255 255 255 255 0.143693 0.281216
0.611938 -3.53586 6.98584 0.092057 -0.99413 0.056834 255 255 255 255 0.143693 0.281216
-1.71417 -4.01566 2.36084 0.092057 -0.99413 0.056834 255 255 255 255 0.143693 0.281216
-1.71417 -4.01566 2.36084 0.092063 -0.99413 0.056831 255 255 255 255 0.143693 0.281216
0.611938 -3.53586 6.98584 0.092063 -0.99413 0.056831 255 255 255 255 0.143693 0.281216
-2.10138 -3.79297 6.88367 0.092063 -0.99413 0.056831 255 255 255 255 0.143693 0.281216
-4.61749 43.2924 9.69302 -0.103386 -0.184487 0.977382 255 255 255 255 0.143693 0.281216
-0.835876 42.1137 9.87054 -0.103386 -0.184487 0.977382 255 255 255 255 0.143693 0.281216
-2.97266 65.3688 14.034 -0.103386 -0.184487 0.977382 255 255 255 255 0.143693 0.281216
-1.49359 47.5759 7.84432 0.148455 0.335909 -0.930122 255 255 255 255 0.143693 0.281216
-5.27466 48.7547 7.66653 0.148455 0.335909 -0.930122 255 255 255 255 0.143693 0.281216
-2.97266 65.3688 14.034 0.148455 0.335909 -0.930122 255 255 255 255 0.143693 0.281216
-3.95154 26.3284 4.21304 -0.990359 -0.076241 0.115661 255 255 255 255 0.143693 0.281216
-4.61749 43.2924 9.69302 -0.990359 -0.076241 0.115661 255 255 255 255 0.143693 0.281216
-5.27466 48.7547 7.66653 -0.990359 -0.076241 0.115661 255 255 255 255 0.143693 0.281216
-3.83557 22.6722 7.52194 -0.079989 -0.107374 0.990996 255 255 255 255 0.143693 0.281216
-0.835876 42.1137 9.87054 -0.079989 -0.107374 0.990996 255 255 255 255 0.143693 0.281216
-4.61749 43.2924 9.69302 -0.079989 -0.107374 0.990996 255 255 255 255 0.143693 0.281216
-0.427551 25.7634 4.33233 0.999625 0.026823 -0.005488 255 255 255 255 0.143693 0.281216
-0.835876 42.1137 9.87054 0.999625 0.026823 -0.005488 255 255 255 255 0.143693 0.281216
-0.311279 22.1072 7.64093 0.999625 0.026823 -0.005488 255 255 255 255 0.143693 0.281216
-1.49359 47.5759 7.84432 0.095165 0.15699 -0.983004 255 255 255 255 0.143693 0.281216
-3.95154 26.3284 4.21304 0.095165 0.15699 -0.983004 255 255 255 255 0.143693 0.281216
-5.27466 48.7547 7.66653 0.095165 0.15699 -0.983004 255 255 255 255 0.143693 0.281216
17.3368 22.7621 -3.90354 0.491555 -0.429199 -0.757735 255 255 255 255 0.143693 0.281216
15.991 24.4366 -5.72504 0.491555 -0.429199 -0.757735 255 255 255 255 0.143693 0.281216
25.703 32.8702 -4.2017 0.491555 -0.429199 -0.757735 255 255 255 255 0.143693 0.281216
25.703 32.8702 -4.2017 -0.244722 0.592292 0.767659 255 255 255 255 0.143693 0.281216
15.3825 27.1417 -3.07187 -0.244722 0.592292 0.767659 255 255 255 255 0.143693 0.281216
16.3179 24.7766 -0.948918 -0.244722 0.592292 0.767659 255 255 255 255 0.143693 0.281216
5.85266 -3.52265 4.20871 0.092049 -0.994132 0.056821 255 255 255 255 0.143693 0.281216
-0.84082 -4.28966 1.63263 0.092049 -0.994132 0.056821 255 255 255 255 0.143693 0.281216
5.78748 -3.67439 1.65945 0.092049 -0.994132 0.056821 255 255 255 255 0.143693 0.281216
5.78748 -3.67439 1.65945 0.092049 -0.994131 0.056829 255 255 255 255 0.143693 0.281216
-0.84082 -4.28966 1.63263 0.092049 -0.994131 0.056829 255 255 255 255 0.143693 0.281216
0.003296 -4.45883 -2.69394 0.092049 -0.994131 0.056829 255 255 255 255 0.143693 0.281216
15.991 24.4366 -5.72504 -0.404966 0.592187 -0.696647 255 255 255 255 0.143693 0.281216
15.3825 27.1417 -3.07187 -0.404966 0.592187 -0.696647 255 255 255 255 0.143693 0.281216
25.703 32.8702 -4.2017 -0.404966 0.592187 -0.696647 255 255 255 255 0.143693 0.281216
16.3179 24.7766 -0.948918 0.640641 -0.5134 0.570964 255 255 255 255 0.143693 0.281216
17.3368 22.7621 -3.90354 0.640641 -0.5134 0.570964 255 255 255 255 0.143693 0.281216
25.703 32.8702 -4.2017 0.640641 -0.5134 0.570964 255 255 255 255 0.143693 0.281216
5.78748 -3.67439 1.65945 0.569121 -0.378187 -0.73012 255 255 255 255 0.143693 0.281216
7.75055 14.484 -6.216 0.569121 -0.378187 -0.73012 255 255 255 255 0.143693 0.281216
11.4519 13.0427 -2.58429 0.569121 -0.378187 -0.73012 255 255 255 255 0.143693 0.281216
7.75055 14.484 -6.216 -0.895887 0.259101 -0.360907 255 255 255 255 0.143693 0.281216
-0.84082 -4.28966 1.63263 -0.895887 0.259101 -0.360907 255 255 255 255 0.143693 0.281216
6.77924 17.3816 -1.72464 -0.895887 0.259101 -0.360907 255 255 255 255 0.143693 0.281216
5.85266 -3.52265 4.20871 -0.372636 0.268632 0.888245 255 255 255 255 0.143693 0.281216
6.77924 17.3816 -1.72464 -0.372636 0.268632 0.888245 255 255 255 255 0.143693 0.281216
-0.84082 -4.28966 1.63263 -0.372636 0.268632 0.888245 255 255 255 255 0.143693 0.281216
5.85266 -3.52265 4.20871 0.927198 -0.178324 0.329399 255 255 255 255 0.143693 0.281216
11.4519 13.0427 -2.58429 0.927198 -0.178324 0.329399 255 255 255 255 0.143693 0.281216
10.4114 15.2109 1.51819 0.927198 -0.178324 0.329399 255 255 255 255 0.143693 0.281216
-5.14069 19.3216 -5.69843 -0.934681 0.045969 0.352503 255 255 255 255 0.143693 0.281216
-3.534 -5.00782 1.73453 -0.934681 0.045969 0.352503 255 255 255 255 0.143693 0.281216
-3.53735 22.7194 -1.8902 -0.934681 0.045969 0.352503 255 255 255 255 0.143693 0.281216
-3.53735 22.7194 -1.8902 0.358093 0.113672 0.926741 255 255 255 255 0.143693 0.281216
1.83466 -4.65253 -0.60855 0.358093 0.113672 0.926741 255 255 255 255 0.143693 0.281216
2.74066 22.5571 -4.29612 0.358093 0.113672 0.926741 255 255 255 255 0.143693 0.281216
1.83466 -4.65253 -0.60855 0.900297 -0.087757 -0.426338 255 255 255 255 0.143693 0.281216
0.614258 19.2533 -8.10639 0.900297 -0.087757 -0.426338 255 255 255 255 0.143693 0.281216
2.74066 22.5571 -4.29612 0.900297 -0.087757 -0.426338 255 255 255 255 0.143693 0.281216
-5.14069 19.3216 -5.69843 -0.445195 -0.182159 -0.87671 255 255 255 255 0.143693 0.281216
-0.190369 -4.35219 -3.29336 -0.445195 -0.182159 -0.87671 255 255 255 255 0.143693 0.281216
-4.59509 -4.88109 -0.946746 -0.445195 -0.182159 -0.87671 255 255 255 255 0.143693 0.281216
5.0957 50.4833 5.15228 0.924871 -0.148451 0.35011 255 255 255 255 0.143693 0.281216
3.60791 30.6483 0.672236 0.924871 -0.148451 0.35011 255 255 255 255 0.143693 0.281216
6.27527 50.5608 2.06914 0.924871 -0.148451 0.35011 255 255 255 255 0.143693 0.281216
-0.614136 34.7605 3.46774 -0.373487 0.036324 0.926924 255 255 255 255 0.143693 0.281216
5.0957 50.4833 5.15228 -0.373487 0.036324 0.926924 255 255 255 255 0.143693 0.281216
2.48792 55.9819 3.88604 -0.373487 0.036324 0.926924 255 255 255 255 0.143693 0.281216
0.770996 34.7667 -0.606238 -0.924853 0.148947 -0.349946 255 255 255 255 0.143693 0.281216
2.48792 55.9819 3.88604 -0.924853 0.148947 -0.349946 255 255 255 255 0.143693 0.281216
3.66724 56.0594 0.802237 -0.924853 0.148947 -0.349946 255 255 255 255 0.143693 0.281216
6.27527 50.5608 2.06914 0.437033 5.1e-05 -0.899445 255 255 255 255 0.143693 0.281216
0.770996 34.7667 -0.606238 0.437033 5.1e-05 -0.899445 255 255 255 255 0.143693 0.281216
3.66724 56.0594 0.802237 0.437033 5.1e-05 -0.899445 255 255 255 255 0.143693 0.281216
-1.71417 -4.01566 2.36084 -0.996546 -0.070833 -0.043342 255 255 255 255 0.143693 0.281216
-3.83557 22.6722 7.52194 -0.996546 -0.070833 -0.043342 255 255 255 255 0.143693 0.281216
-3.95154 26.3284 4.21304 -0.996546 -0.070833 -0.043342 255 255 255 255 0.143693 0.281216
-2.10138 -3.79297 6.88367 -0.037987 -0.026581 0.998925 255 255 255 255 0.143693 0.281216
-0.311279 22.1072 7.64093 -0.037987 -0.026581 0.998925 255 255 255 255 0.143693 0.281216
-3.83557 22.6722 7.52194 -0.037987 -0.026581 0.998925 255 255 255 255 0.143693 0.281216
0.999023 -3.75854 2.46362 0.99593 0.033721 0.083587 255 255 255 255 0.143693 0.281216
-0.311279 22.1072 7.64093 0.99593 0.033721 0.083587 255 255 255 255 0.143693 0.281216
0.611938 -3.53586 6.98584 0.99593 0.033721 0.083587 255 255 255 255 0.143693 0.281216
-0.427551 25.7634 4.33233 0.044026 0.064101 -0.996972 255 255 255 255 0.143693 0.281216
-1.71417 -4.01566 2.36084 0.044026 0.064101 -0.996972 255 255 255 255 0.143693 0.281216
-3.95154 26.3284 4.21304 0.044026 0.064101 -0.996972 255 255 255 255 0.143693 0.281216
7.75055 14.484 -6.216 0.54312 -0.426981 -0.722985 255 255 255 255 0.143693 0.281216
17.3368 22.7621 -3.90354 0.54312 -0.426981 -0.722985 255 255 255 255 0.143693 0.281216
11.4519 13.0427 -2.58429 0.54312 -0.426981 -0.722985 255 255 255 255 0.143693 0.281216
10.4114 15.2109 1.51819 0.784167 -0.352471 0.510732 255 255 255 255 0.143693 0.281216
17.3368 22.7621 -3.90354 0.784167 -0.352471 0.510732 255 255 255 255 0.143693 0.281216
16.3179 24.7766 -0.948918 0.784167 -0.352471 0.510732 255 255 255 255 0.143693 0.281216
6.77924 17.3816 -1.72464 -0.444284 0.494725 0.746899 255 255 255 255 0.143693 0.281216
16.3179 24.7766 -0.948918 -0.444284 0.494725 0.746899 255 255 255 255 0.143693 0.281216
15.3825 27.1417 -3.07187 -0.444284 0.494725 0.746899 255 255 255 255 0.143693 0.281216
15.991 24.4366 -5.72504 -0.628334 0.468094 -0.621358 255 255 255 255 0.143693 0.281216
6.77924 17.3816 -1.72464 -0.628334 0.468094 -0.621358 255 255 255 255 0.143693 0.281216
15.3825 27.1417 -3.07187 -0.628334 0.468094 -0.621358 255 255 255 255 0.143693 0.281216
-2.44226 38.2764 -9.20026 0.339516 0.380336 0.860275 255 255 255 255 0.143693 0.281216
-3.53735 22.7194 -1.8902 0.339516 0.380336 0.860275 255 255 255 255 0.143693 0.281216
2.74066 22.5571 -4.29612 0.339516 0.380336 0.860275 255 255 255 255 0.143693 0.281216
2.74066 22.5571 -4.29612 0.904547 -0.105843 -0.413027 255 255 255 255 0.143693 0.281216
0.614258 19.2533 -8.10639 0.904547 -0.105843 -0.413027 255 255 255 255 0.143693 0.281216
0.111633 34.0996 -13.0117 0.904547 -0.105843 -0.413027 255 255 255 255 0.143693 0.281216
-3.56512 34.4878 -11.7721 -0.33301 -0.305965 -0.891902 255 255 255 255 0.143693 0.281216
0.111633 34.0996 -13.0117 -0.33301 -0.305965 -0.891902 255 255 255 255 0.143693 0.281216
0.614258 19.2533 -8.10639 -0.33301 -0.305965 -0.891902 255 255 255 255 0.143693 0.281216
-3.56512 34.4878 -11.7721 -0.953975 0.191519 0.230762 255 255 255 255 0.143693 0.281216
-5.14069 19.3216 -5.69843 -0.953975 0.191519 0.230762 255 255 255 255 0.143693 0.281216
-3.53735 22.7194 -1.8902 -0.953975 0.191519 0.230762 255 255 255 255 0.143693 0.281216
0.208435 -4.2662 -0.496367 -0.962521 0.007251 -0.271111 255 255 255 255 0.143693 0.281216
-1.11169 -4.1203 4.19437 -0.962521 0.007251 -0.271111 255 255 255 255 0.143693 0.281216
-0.614136 34.7605 3.46774 -0.962521 0.007251 -0.271111 255 255 255 255 0.143693 0.281216
-1.11169 -4.1203 4.19437 -0.346258 0.018333 0.93796 255 255 255 255 0.143693 0.281216
1.18665 -3.85927 5.03772 -0.346258 0.018333 0.93796 255 255 255 255 0.143693 0.281216
2.22253 30.6421 4.74578 -0.346258 0.018333 0.93796 255 255 255 255 0.143693 0.281216
3.60791 30.6483 0.672236 0.946446 -0.025693 0.321838 255 255 255 255 0.143693 0.281216
2.22253 30.6421 4.74578 0.946446 -0.025693 0.321838 255 255 255 255 0.143693 0.281216
1.18665 -3.85927 5.03772 0.946446 -0.025693 0.321838 255 255 255 255 0.143693 0.281216
3.60791 30.6483 0.672236 0.344868 -0.002161 -0.938649 255 255 255 255 0.143693 0.281216
2.50647 -4.00519 0.347352 0.344868 -0.002161 -0.938649 255 255 255 255 0.143693 0.281216
0.208435 -4.2662 -0.496367 0.344868 -0.002161 -0.938649 255 255 255 255 0.143693 0.281216
-3.95154 26.3284 4.21304 -0.999287 -0.037247 -0.006135 255 255 255 255 0.143693 0.281216
-3.83557 22.6722 7.52194 -0.999287 -0.037247 -0.006135 255 255 255 255 0.143693 0.281216
-4.61749 43.2924 9.69302 -0.999287 -0.037247 -0.006135 255 255 255 255 0.143693 0.281216
-3.83557 22.6722 7.52194 -0.051452 -0.111944 0.992382 255 255 255 255 0.143693 0.281216
-0.311279 22.1072 7.64093 -0.051452 -0.111944 0.992382 255 255 255 255 0.143693 0.281216
-0.835876 42.1137 9.87054 -0.051452 -0.111944 0.992382 255 255 255 255 0.143693 0.281216
-0.427551 25.7634 4.33233 0.988666 0.069726 -0.132958 255 255 255 255 0.143693 0.281216
-1.49359 47.5759 7.84432 0.988666 0.069726 -0.132958 255 255 255 255 0.143693 0.281216
-0.835876 42.1137 9.87054 0.988666 0.069726 -0.132958 255 255 255 255 0.143693 0.281216
-1.49359 47.5759 7.84432 0.05924 0.161503 -0.985093 255 255 255 255 0.143693 0.281216
-0.427551 25.7634 4.33233 0.05924 0.161503 -0.985093 255 255 255 255 0.143693 0.281216
-3.95154 26.3284 4.21304 0.05924 0.161503 -0.985093 255 255 255 255 0.143693 0.281216
5.78748 -3.67439 1.65945 0.589522 -0.374202 -0.715847 255 255 255 255 0.143693 0.281216
0.003296 -4.45883 -2.69394 0.589522 -0.374202 -0.715847 255 255 255 255 0.143693 0.281216
7.75055 14.484 -6.216 0.589522 -0.374202 -0.715847 255 255 255 255 0.143693 0.281216
7.75055 14.484 -6.216 -0.920251 0.340507 -0.192855 255 255 255 255 0.143693 0.281216
0.003296 -4.45883 -2.69394 -0.920251 0.340507 -0.192855 255 255 255 255 0.143693 0.281216
-0.84082 -4.28966 1.63263 -0.920251 0.340507 -0.192855 255 255 255 255 0.143693 0.281216
5.85266 -3.52265 4.20871 -0.55773 0.249422 0.79166 255 255 255 255 0.143693 0.281216
10.4114 15.2109 1.51819 -0.55773 0.249422 0.79166 255 255 255 255 0.143693 0.281216
6.77924 17.3816 -1.72464 -0.55773 0.249422 0.79166 255 255 255 255 0.143693 0.281216
5.85266 -3.52265 4.20871 0.946706 -0.322061 -0.005037 255 255 255 255 0.143693 0.281216
5.78748 -3.67439 1.65945 0.946706 -0.322061 -0.005037 255 255 255 255 0.143693 0.281216
11.4519 13.0427 -2.58429 0.946706 -0.322061 -0.005037 255 255 255 255 0.143693 0.281216
-5.14069 19.3216 -5.69843 -0.927757 0.051648 0.369594 255 255 255 255 0.143693 0.281216
-4.59509 -4.88109 -0.946746 -0.927757 0.051648 0.369594 255 255 255 255 0.143693 0.281216
-3.534 -5.00782 1.73453 -0.927757 0.051648 0.369594 255 255 255 255 0.143693 0.281216
-3.53735 22.7194 -1.8902 0.390493 0.11938 0.912833 255 255 255 255 0.143693 0.281216
-3.534 -5.00782 1.73453 0.390493 0.11938 0.912833 255 255 255 255 0.143693 0.281216
1.83466 -4.65253 -0.60855 0.390493 0.11938 0.912833 255 255 255 255 0.143693 0.281216
1.83466 -4.65253 -0.60855 0.781163 -0.150186 -0.605994 255 255 255 255 0.143693 0.281216
-0.190369 -4.35219 -3.29336 0.781163 -0.150186 -0.605994 255 255 255 255 0.143693 0.281216
0.614258 19.2533 -8.10639 0.781163 -0.150186 -0.605994 255 255 255 255 0.143693 0.281216
-5.14069 19.3216 -5.69843 -0.381968 -0.172117 -0.908007 255 255 255 255 0.143693 0.281216
0.614258 19.2533 -8.10639 -0.381968 -0.172117 -0.908007 255 255 255 255 0.143693 0.281216
-0.190369 -4.35219 -3.29336 -0.381968 -0.172117 -0.908007 255 255 255 255 0.143693 0.281216
5.0957 50.4833 5.15228 0.937186 -0.142238 0.318513 255 255 255 255 0.143693 0.281216
2.22253 30.6421 4.74578 0.937186 -0.142238 0.318513 255 255 255 255 0.143693 0.281216
3.60791 30.6483 0.672236 0.937186 -0.142238 0.318513 255 255 255 255 0.143693 0.281216
-0.614136 34.7605 3.46774 -0.368651 0.034352 0.928933 255 255 255 255 0.143693 0.281216
2.22253 30.6421 4.74578 -0.368651 0.034352 0.928933 255 255 255 255 0.143693 0.281216
5.0957 50.4833 5.15228 -0.368651 0.034352 0.928933 255 255 255 255 0.143693 0.281216
0.770996 34.7667 -0.606238 -0.937075 0.143253 -0.318385 255 255 255 255 0.143693 0.281216
-0.614136 34.7605 3.46774 -0.937075 0.143253 -0.318385 255 255 255 255 0.143693 0.281216
2.48792 55.9819 3.88604 -0.937075 0.143253 -0.318385 255 255 255 255 0.143693 0.281216
6.27527 50.5608 2.06914 0.419803 0.007435 -0.907585 255 255 255 255 0.143693 0.281216
3.60791 30.6483 0.672236 0.419803 0.007435 -0.907585 255 255 255 255 0.143693 0.281216
0.770996 34.7667 -0.606238 0.419803 0.007435 -0.907585 255 255 255 255 0.143693 0.281216
-1.71417 -4.01566 2.36084 -0.994623 -0.063196 -0.08204 255 255 255 255 0.143693 0.281216
-2.10138 -3.79297 6.88367 -0.994623 -0.063196 -0.08204 255 255 255 255 0.143693 0.281216
-3.83557 22.6722 7.52194 -0.994623 -0.063196 -0.08204 255 255 255 255 0.143693 0.281216
-2.10138 -3.79297 6.88367 -0.035081 -0.026784 0.999026 255 255 255 255 0.143693 0.281216
0.611938 -3.53586 6.98584 -0.035081 -0.026784 0.999026 255 255 255 255 0.143693 0.281216
-0.311279 22.1072 7.64093 -0.035081 -0.026784 0.999026 255 255 255 255 0.143693 0.281216
0.999023 -3.75854 2.46362 0.998741 0.047183 0.017042 255 255 255 255 0.143693 0.281216
-0.427551 25.7634 4.33233 0.998741 0.047183 0.017042 255 255 255 255 0.143693 0.281216
-0.311279 22.1072 7.64093 0.998741 0.047183 0.017042 255 255 255 255 0.143693 0.281216
-0.427551 25.7634 4.33233 0.031656 0.064664 -0.997405 255 255 255 255 0.143693 0.281216
0.999023 -3.75854 2.46362 0.031656 0.064664 -0.997405 255 255 255 255 0.143693 0.281216
-1.71417 -4.01566 2.36084 0.031656 0.064664 -0.997405 255 255 255 255 0.143693 0.281216
7.75055 14.484 -6.216 0.524699 -0.397295 -0.752893 255 255 255 255 0.143693 0.281216
15.991 24.4366 -5.72504 0.524699 -0.397295 -0.752893 255 255 255 255 0.143693 0.281216
17.3368 22.7621 -3.90354 0.524699 -0.397295 -0.752893 255 255 255 255 0.143693 0.281216
10.4114 15.2109 1.51819 0.797992 -0.425196 0.427103 255 255 255 255 0.143693 0.281216
11.4519 13.0427 -2.58429 0.797992 -0.425196 0.427103 255 255 255 255 0.143693 0.281216
17.3368 22.7621 -3.90354 0.797992 -0.425196 0.427103 255 255 255 255 0.143693 0.281216
6.77924 17.3816 -1.72464 -0.421261 0.461478 0.780755 255 255 255 255 0.143693 0.281216
10.4114 15.2109 1.51819 -0.421261 0.461478 0.780755 255 255 255 255 0.143693 0.281216
16.3179 24.7766 -0.948918 -0.421261 0.461478 0.780755 255 255 255 255 0.143693 0.281216
15.991 24.4366 -5.72504 -0.652176 0.564918 -0.505503 255 255 255 255 0.143693 0.281216
7.75055 14.484 -6.216 -0.652176 0.564918 -0.505503 255 255 255 255 0.143693 0.281216
6.77924 17.3816 -1.72464 -0.652176 0.564918 -0.505503 255 255 255 255 0.143693 0.281216
3 0 1 2 
3 3 4 5 
3 6 7 8 
3 9 10 11 
3 12 13 14 
3 15 16 17 
3 18 19 20 
3 21 22 23 
3 24 25 26 
3 27 28 29 
3 30 31 32 
3 33 34 35 
3 36 37 38 
3 39 40 41 
3 42 43 44 
3 45 46 47 
3 48 49 50 
3 51 52 53 
3 54 55 56 
3 57 58 59 
3 60 61 62 
3 63 64 65 
3 66 67 68 
3 69 70 71 
3 72 73 74 
3 75 76 77 
3 78 79 80 
3 81 82 83 
3 84 85 86 
3 87 88 89 
3 90 91 92 
3 93 94 95 
3 96 97 98 
3 99 100 101 
3 102 103 104 
3 105 106 107 
3 108 109 110 
3 111 112 113 
3 114 115 116 
3 117 118 119 
3 120 121 122 
3 123 124 125 
3 126 127 128 
3 129 130 131 
3 132 133 134 
3 135 136 137 
3 138 139 140 
3 141 142 143 
3 144 145 146 
3 147 148 149 
3 150 151 152 
3 153 154 155 
3 156 157 158 
3 159 160 161 
3 162 163 164 
3 165 166 167 
3 168 169 170 
3 171 172 173 
3 174 175 176 
3 177 178 179 
3 180 181 182 
3 183 184 185 
3 186 187 188 
3 189 190 191 
3 192 193 194 
3 195 196 197 
3 198 199 200 
3 201 202 203 
3 204 205 206 
3 207 208 209 
3 210 211 212 
3 213 214 215 
3 216 217 218 
3 219 220 221 
3 222 223 224 
3 225 226 227 
3 228 229 230 
3 231 232 233 
3 234 235 236 
3 237 238 239 
3 240 241 242 
3 243 244 245 
3 246 247 248 
3 249 250 251 
3 252 253 254 
3 255 256 257 
3 258 259 260 
3 261 262 263 
