ply
format ascii 1.0
comment VCGLIB generated
comment TextureFile Dungeons_2_Texture_01_A.png
element vertex 198
property float x
property float y
property float z
property float nx
property float ny
property float nz
property uchar red
property uchar green
property uchar blue
property uchar alpha
property float texture_u
property float texture_v
element face 66
property list uchar int vertex_indices
end_header
-8.39999 18.6951 -6.55396 -0.250715 -0.821173 -0.512657 255 255 255 255 0.143693 0.281216
-11.5687 17.6489 -3.32849 -0.250715 -0.821173 -0.512657 255 255 255 255 0.143693 0.281216
-15.6847 23.5781 -10.813 -0.250715 -0.821173 -0.512657 255 255 255 255 0.143693 0.281216
-15.6847 23.5781 -10.813 0.008448 0.948713 0.316026 255 255 255 255 0.143693 0.281216
-9.84628 20.5842 -1.9812 0.008448 0.948713 0.316026 255 255 255 255 0.143693 0.281216
-6.67645 21.6308 -5.2079 0.008448 0.948713 0.316026 255 255 255 255 0.143693 0.281216
4.80353 -1.78465 2.19394 -0.022244 -0.999706 -0.009655 255 255 255 255 0.143693 0.281216
-1.25 -1.68728 6.05852 -0.022244 -0.999706 -0.009655 255 255 255 255 0.143693 0.281216
-0.220245 -1.64994 -0.179932 -0.022244 -0.999706 -0.009655 255 255 255 255 0.143693 0.281216
-0.220245 -1.64994 -0.179932 -0.022246 -0.999706 -0.009656 255 255 255 255 0.143693 0.281216
-1.25 -1.68728 6.05852 -0.022246 -0.999706 -0.009656 255 255 255 255 0.143693 0.281216
-2.59522 -1.61437 1.60873 -0.022246 -0.999706 -0.009656 255 255 255 255 0.143693 0.281216
-11.5687 17.6489 -3.32849 -0.787147 0.193011 0.585786 255 255 255 255 0.143693 0.281216
-9.84628 20.5842 -1.9812 -0.787147 0.193011 0.585786 255 255 255 255 0.143693 0.281216
-15.6847 23.5781 -10.813 -0.787147 0.193011 0.585786 255 255 255 255 0.143693 0.281216
-6.67645 21.6308 -5.2079 0.537811 0.069493 -0.840197 255 255 255 255 0.143693 0.281216
-8.39999 18.6951 -6.55396 0.537811 0.069493 -0.840197 255 255 255 255 0.143693 0.281216
-15.6847 23.5781 -10.813 0.537811 0.069493 -0.840197 255 255 255 255 0.143693 0.281216
-2.59522 -1.61437 1.60873 -0.586777 -0.236608 -0.774409 255 255 255 255 0.143693 0.281216
-3.90091 12.0308 -1.57099 -0.586777 -0.236608 -0.774409 255 255 255 255 0.143693 0.281216
-0.220245 -1.64994 -0.179932 -0.586777 -0.236608 -0.774409 255 255 255 255 0.143693 0.281216
-1.25 -1.68728 6.05852 -0.916952 -0.291516 0.272427 255 255 255 255 0.143693 0.281216
-6.83594 11.4875 1.3549 -0.916952 -0.291516 0.272427 255 255 255 255 0.143693 0.281216
-2.59522 -1.61437 1.60873 -0.916952 -0.291516 0.272427 255 255 255 255 0.143693 0.281216
-0.436249 15.0293 -0.595751 0.351061 0.738337 0.57586 255 255 255 255 0.143693 0.281216
-9.84628 20.5842 -1.9812 0.351061 0.738337 0.57586 255 255 255 255 0.143693 0.281216
-5.11368 13.768 3.87298 0.351061 0.738337 0.57586 255 255 255 255 0.143693 0.281216
-3.90091 12.0308 -1.57099 0.427625 0.023164 -0.903659 255 255 255 255 0.143693 0.281216
4.80353 -1.78465 2.19394 0.427625 0.023164 -0.903659 255 255 255 255 0.143693 0.281216
-0.220245 -1.64994 -0.179932 0.427625 0.023164 -0.903659 255 255 255 255 0.143693 0.281216
-0.436249 15.0293 -0.595751 0.517582 0.294579 0.803326 255 255 255 255 0.143693 0.281216
-1.25 -1.68728 6.05852 0.517582 0.294579 0.803326 255 255 255 255 0.143693 0.281216
4.80353 -1.78465 2.19394 0.517582 0.294579 0.803326 255 255 255 255 0.143693 0.281216
-6.83594 11.4875 1.3549 -0.667995 0.051209 0.742401 255 255 255 255 0.143693 0.281216
-9.84628 20.5842 -1.9812 -0.667995 0.051209 0.742401 255 255 255 255 0.143693 0.281216
-11.5687 17.6489 -3.32849 -0.667995 0.051209 0.742401 255 255 255 255 0.143693 0.281216
-3.90091 12.0308 -1.57099 -0.378537 -0.70446 -0.600371 255 255 255 255 0.143693 0.281216
-11.5687 17.6489 -3.32849 -0.378537 -0.70446 -0.600371 255 255 255 255 0.143693 0.281216
-8.39999 18.6951 -6.55396 -0.378537 -0.70446 -0.600371 255 255 255 255 0.143693 0.281216
-0.436249 15.0293 -0.595751 0.602582 0.012103 -0.797965 255 255 255 255 0.143693 0.281216
-8.39999 18.6951 -6.55396 0.602582 0.012103 -0.797965 255 255 255 255 0.143693 0.281216
-6.67645 21.6308 -5.2079 0.602582 0.012103 -0.797965 255 255 255 255 0.143693 0.281216
8.17239 29.1085 -11.1879 0.844683 0.534948 -0.018472 255 255 255 255 0.143693 0.281216
9.25244 27.2733 -14.9463 0.844683 0.534948 -0.018472 255 255 255 255 0.143693 0.281216
5.13657 33.4227 -25.0683 0.844683 0.534948 -0.018472 255 255 255 255 0.143693 0.281216
5.13657 33.4227 -25.0683 -0.968066 -0.125539 -0.216998 255 255 255 255 0.143693 0.281216
3.89966 26.9635 -15.8133 -0.968066 -0.125539 -0.216998 255 255 255 255 0.143693 0.281216
2.81918 28.7987 -12.0549 -0.968066 -0.125539 -0.216998 255 255 255 255 0.143693 0.281216
0.645508 -1.69268 4.6805 -0.01967 -0.999805 0.001768 255 255 255 255 0.143693 0.281216
2.29022 -1.73929 -3.38367 -0.01967 -0.999805 0.001768 255 255 255 255 0.143693 0.281216
5.30475 -1.7828 5.55212 -0.01967 -0.999805 0.001768 255 255 255 255 0.143693 0.281216
5.30475 -1.7828 5.55212 -0.019669 -0.999805 0.001767 255 255 255 255 0.143693 0.281216
2.29022 -1.73929 -3.38367 -0.019669 -0.999805 0.001767 255 255 255 255 0.143693 0.281216
6.95075 -1.82943 -2.5127 -0.019669 -0.999805 0.001767 255 255 255 255 0.143693 0.281216
9.25244 27.2733 -14.9463 0.137325 -0.82078 -0.554492 255 255 255 255 0.143693 0.281216
3.89966 26.9635 -15.8133 0.137325 -0.82078 -0.554492 255 255 255 255 0.143693 0.281216
5.13657 33.4227 -25.0683 0.137325 -0.82078 -0.554492 255 255 255 255 0.143693 0.281216
2.81918 28.7987 -12.0549 -0.10577 0.942789 0.316168 255 255 255 255 0.143693 0.281216
8.17239 29.1085 -11.1879 -0.10577 0.942789 0.316168 255 255 255 255 0.143693 0.281216
5.13657 33.4227 -25.0683 -0.10577 0.942789 0.316168 255 255 255 255 0.143693 0.281216
8.17239 29.1085 -11.1879 0.967242 0.150359 0.204535 255 255 255 255 0.143693 0.281216
9.14807 16.0768 -6.22187 0.967242 0.150359 0.204535 255 255 255 255 0.143693 0.281216
9.25244 27.2733 -14.9463 0.967242 0.150359 0.204535 255 255 255 255 0.143693 0.281216
3.10349 15.9282 -7.24344 0.146726 -0.608843 -0.779603 255 255 255 255 0.143693 0.281216
9.25244 27.2733 -14.9463 0.146726 -0.608843 -0.779603 255 255 255 255 0.143693 0.281216
9.14807 16.0768 -6.22187 0.146726 -0.608843 -0.779603 255 255 255 255 0.143693 0.281216
2.81918 28.7987 -12.0549 -0.968796 -0.105283 -0.224385 255 255 255 255 0.143693 0.281216
3.10349 15.9282 -7.24344 -0.968796 -0.105283 -0.224385 255 255 255 255 0.143693 0.281216
1.59805 18.4026 -1.90464 -0.968796 -0.105283 -0.224385 255 255 255 255 0.143693 0.281216
1.59805 18.4026 -1.90464 -0.156128 0.316921 0.935513 255 255 255 255 0.143693 0.281216
5.30475 -1.7828 5.55212 -0.156128 0.316921 0.935513 255 255 255 255 0.143693 0.281216
7.83023 18.7901 -0.995837 -0.156128 0.316921 0.935513 255 255 255 255 0.143693 0.281216
1.59805 18.4026 -1.90464 -0.979673 -0.019002 -0.199698 255 255 255 255 0.143693 0.281216
2.29022 -1.73929 -3.38367 -0.979673 -0.019002 -0.199698 255 255 255 255 0.143693 0.281216
0.645508 -1.69268 4.6805 -0.979673 -0.019002 -0.199698 255 255 255 255 0.143693 0.281216
1.59805 18.4026 -1.90464 -0.153525 0.699487 0.69796 255 255 255 255 0.143693 0.281216
8.17239 29.1085 -11.1879 -0.153525 0.699487 0.69796 255 255 255 255 0.143693 0.281216
2.81918 28.7987 -12.0549 -0.153525 0.699487 0.69796 255 255 255 255 0.143693 0.281216
7.83023 18.7901 -0.995837 0.959857 -0.061079 0.273758 255 255 255 255 0.143693 0.281216
6.95075 -1.82943 -2.5127 0.959857 -0.061079 0.273758 255 255 255 255 0.143693 0.281216
9.14807 16.0768 -6.22187 0.959857 -0.061079 0.273758 255 255 255 255 0.143693 0.281216
6.95075 -1.82943 -2.5127 0.167821 -0.219666 -0.961032 255 255 255 255 0.143693 0.281216
3.10349 15.9282 -7.24344 0.167821 -0.219666 -0.961032 255 255 255 255 0.143693 0.281216
9.14807 16.0768 -6.22187 0.167821 -0.219666 -0.961032 255 255 255 255 0.143693 0.281216
-4.95727 38.475 22.6517 -0.20467 0.902546 -0.378841 255 255 255 255 0.143693 0.281216
-8.90909 37.546 22.5734 -0.20467 0.902546 -0.378841 255 255 255 255 0.143693 0.281216
-8.9325 42.0103 33.2217 -0.20467 0.902546 -0.378841 255 255 255 255 0.143693 0.281216
-8.9325 42.0103 33.2217 0.15384 -0.711981 0.68514 255 255 255 255 0.143693 0.281216
-6.90857 34.4063 24.8653 0.15384 -0.711981 0.68514 255 255 255 255 0.143693 0.281216
-2.9574 35.3355 24.9438 0.15384 -0.711981 0.68514 255 255 255 255 0.143693 0.281216
-0.619415 -1.73889 7.27075 -0.011281 -0.999906 -0.007859 255 255 255 255 0.143693 0.281216
-1.22467 -1.70544 3.88396 -0.011281 -0.999906 -0.007859 255 255 255 255 0.143693 0.281216
5.29623 -1.78979 5.25542 -0.011281 -0.999906 -0.007859 255 255 255 255 0.143693 0.281216
5.29623 -1.78979 5.25542 -0.010154 -0.999861 -0.013214 255 255 255 255 0.143693 0.281216
-1.22467 -1.70544 3.88396 -0.010154 -0.999861 -0.013214 255 255 255 255 0.143693 0.281216
4.69272 -1.73889 1.8676 -0.010154 -0.999861 -0.013214 255 255 255 255 0.143693 0.281216
-8.90909 37.546 22.5734 -0.883761 -0.432236 0.179271 255 255 255 255 0.143693 0.281216
-6.90857 34.4063 24.8653 -0.883761 -0.432236 0.179271 255 255 255 255 0.143693 0.281216
-8.9325 42.0103 33.2217 -0.883761 -0.432236 0.179271 255 255 255 255 0.143693 0.281216
-2.9574 35.3355 24.9438 0.802193 0.587739 0.105118 255 255 255 255 0.143693 0.281216
-4.95727 38.475 22.6517 0.802193 0.587739 0.105118 255 255 255 255 0.143693 0.281216
-8.9325 42.0103 33.2217 0.802193 0.587739 0.105118 255 255 255 255 0.143693 0.281216
-4.95727 38.475 22.6517 -0.111642 0.544932 -0.831015 255 255 255 255 0.143693 0.281216
-6.69488 22.9805 12.7248 -0.111642 0.544932 -0.831015 255 255 255 255 0.143693 0.281216
-8.90909 37.546 22.5734 -0.111642 0.544932 -0.831015 255 255 255 255 0.143693 0.281216
-6.69488 22.9805 12.7248 -0.888231 -0.342242 0.306457 255 255 255 255 0.143693 0.281216
-6.90857 34.4063 24.8653 -0.888231 -0.342242 0.306457 255 255 255 255 0.143693 0.281216
-8.90909 37.546 22.5734 -0.888231 -0.342242 0.306457 255 255 255 255 0.143693 0.281216
-2.9574 35.3355 24.9438 0.093628 -0.533991 0.84029 255 255 255 255 0.143693 0.281216
-5.18692 20.9782 16.0684 0.093628 -0.533991 0.84029 255 255 255 255 0.143693 0.281216
1.08704 21.6661 15.8064 0.093628 -0.533991 0.84029 255 255 255 255 0.143693 0.281216
-0.420135 23.6682 12.4624 0.90534 0.386101 -0.176879 255 255 255 255 0.143693 0.281216
-2.9574 35.3355 24.9438 0.90534 0.386101 -0.176879 255 255 255 255 0.143693 0.281216
1.08704 21.6661 15.8064 0.90534 0.386101 -0.176879 255 255 255 255 0.143693 0.281216
1.08704 21.6661 15.8064 0.299882 -0.346074 0.88899 255 255 255 255 0.143693 0.281216
-0.619415 -1.73889 7.27075 0.299882 -0.346074 0.88899 255 255 255 255 0.143693 0.281216
5.29623 -1.78979 5.25542 0.299882 -0.346074 0.88899 255 255 255 255 0.143693 0.281216
5.29623 -1.78979 5.25542 0.926961 0.279108 -0.250684 255 255 255 255 0.143693 0.281216
-0.420135 23.6682 12.4624 0.926961 0.279108 -0.250684 255 255 255 255 0.143693 0.281216
1.08704 21.6661 15.8064 0.926961 0.279108 -0.250684 255 255 255 255 0.143693 0.281216
-0.420135 23.6682 12.4624 -0.074695 0.321508 -0.943956 255 255 255 255 0.143693 0.281216
-1.22467 -1.70544 3.88396 -0.074695 0.321508 -0.943956 255 255 255 255 0.143693 0.281216
-6.69488 22.9805 12.7248 -0.074695 0.321508 -0.943956 255 255 255 255 0.143693 0.281216
-6.69488 22.9805 12.7248 -0.926469 -0.28256 0.248625 255 255 255 255 0.143693 0.281216
-0.619415 -1.73889 7.27075 -0.926469 -0.28256 0.248625 255 255 255 255 0.143693 0.281216
-5.18692 20.9782 16.0684 -0.926469 -0.28256 0.248625 255 255 255 255 0.143693 0.281216
-2.59522 -1.61437 1.60873 -0.6656 -0.229198 -0.710243 255 255 255 255 0.143693 0.281216
-6.83594 11.4875 1.3549 -0.6656 -0.229198 -0.710243 255 255 255 255 0.143693 0.281216
-3.90091 12.0308 -1.57099 -0.6656 -0.229198 -0.710243 255 255 255 255 0.143693 0.281216
-1.25 -1.68728 6.05852 -0.773887 -0.105149 0.624534 255 255 255 255 0.143693 0.281216
-5.11368 13.768 3.87298 -0.773887 -0.105149 0.624534 255 255 255 255 0.143693 0.281216
-6.83594 11.4875 1.3549 -0.773887 -0.105149 0.624534 255 255 255 255 0.143693 0.281216
-0.436249 15.0293 -0.595751 0.348603 0.735458 0.581014 255 255 255 255 0.143693 0.281216
-6.67645 21.6308 -5.2079 0.348603 0.735458 0.581014 255 255 255 255 0.143693 0.281216
-9.84628 20.5842 -1.9812 0.348603 0.735458 0.581014 255 255 255 255 0.143693 0.281216
-3.90091 12.0308 -1.57099 0.316923 -0.058301 -0.946658 255 255 255 255 0.143693 0.281216
-0.436249 15.0293 -0.595751 0.316923 -0.058301 -0.946658 255 255 255 255 0.143693 0.281216
4.80353 -1.78465 2.19394 0.316923 -0.058301 -0.946658 255 255 255 255 0.143693 0.281216
-0.436249 15.0293 -0.595751 0.629182 0.260829 0.732187 255 255 255 255 0.143693 0.281216
-5.11368 13.768 3.87298 0.629182 0.260829 0.732187 255 255 255 255 0.143693 0.281216
-1.25 -1.68728 6.05852 0.629182 0.260829 0.732187 255 255 255 255 0.143693 0.281216
-6.83594 11.4875 1.3549 -0.803514 -0.048311 0.593322 255 255 255 255 0.143693 0.281216
-5.11368 13.768 3.87298 -0.803514 -0.048311 0.593322 255 255 255 255 0.143693 0.281216
-9.84628 20.5842 -1.9812 -0.803514 -0.048311 0.593322 255 255 255 255 0.143693 0.281216
-3.90091 12.0308 -1.57099 -0.409754 -0.73026 -0.546646 255 255 255 255 0.143693 0.281216
-6.83594 11.4875 1.3549 -0.409754 -0.73026 -0.546646 255 255 255 255 0.143693 0.281216
-11.5687 17.6489 -3.32849 -0.409754 -0.73026 -0.546646 255 255 255 255 0.143693 0.281216
-0.436249 15.0293 -0.595751 0.483852 -0.290586 -0.825498 255 255 255 255 0.143693 0.281216
-3.90091 12.0308 -1.57099 0.483852 -0.290586 -0.825498 255 255 255 255 0.143693 0.281216
-8.39999 18.6951 -6.55396 0.483852 -0.290586 -0.825498 255 255 255 255 0.143693 0.281216
8.17239 29.1085 -11.1879 0.974936 0.139148 0.173603 255 255 255 255 0.143693 0.281216
7.83023 18.7901 -0.995837 0.974936 0.139148 0.173603 255 255 255 255 0.143693 0.281216
9.14807 16.0768 -6.22187 0.974936 0.139148 0.173603 255 255 255 255 0.143693 0.281216
3.10349 15.9282 -7.24344 0.16081 -0.612586 -0.773872 255 255 255 255 0.143693 0.281216
3.89966 26.9635 -15.8133 0.16081 -0.612586 -0.773872 255 255 255 255 0.143693 0.281216
9.25244 27.2733 -14.9463 0.16081 -0.612586 -0.773872 255 255 255 255 0.143693 0.281216
2.81918 28.7987 -12.0549 -0.968208 -0.106077 -0.226542 255 255 255 255 0.143693 0.281216
3.89966 26.9635 -15.8133 -0.968208 -0.106077 -0.226542 255 255 255 255 0.143693 0.281216
3.10349 15.9282 -7.24344 -0.968208 -0.106077 -0.226542 255 255 255 255 0.143693 0.281216
1.59805 18.4026 -1.90464 -0.168701 0.314151 0.934264 255 255 255 255 0.143693 0.281216
0.645508 -1.69268 4.6805 -0.168701 0.314151 0.934264 255 255 255 255 0.143693 0.281216
5.30475 -1.7828 5.55212 -0.168701 0.314151 0.934264 255 255 255 255 0.143693 0.281216
1.59805 18.4026 -1.90464 -0.964011 -0.013631 -0.265513 255 255 255 255 0.143693 0.281216
3.10349 15.9282 -7.24344 -0.964011 -0.013631 -0.265513 255 255 255 255 0.143693 0.281216
2.29022 -1.73929 -3.38367 -0.964011 -0.013631 -0.265513 255 255 255 255 0.143693 0.281216
1.59805 18.4026 -1.90464 -0.145674 0.697683 0.701439 255 255 255 255 0.143693 0.281216
7.83023 18.7901 -0.995837 -0.145674 0.697683 0.701439 255 255 255 255 0.143693 0.281216
8.17239 29.1085 -11.1879 -0.145674 0.697683 0.701439 255 255 255 255 0.143693 0.281216
7.83023 18.7901 -0.995837 0.978176 -0.056433 0.199968 255 255 255 255 0.143693 0.281216
5.30475 -1.7828 5.55212 0.978176 -0.056433 0.199968 255 255 255 255 0.143693 0.281216
6.95075 -1.82943 -2.5127 0.978176 -0.056433 0.199968 255 255 255 255 0.143693 0.281216
6.95075 -1.82943 -2.5127 0.175219 -0.217823 -0.960131 255 255 255 255 0.143693 0.281216
2.29022 -1.73929 -3.38367 0.175219 -0.217823 -0.960131 255 255 255 255 0.143693 0.281216
3.10349 15.9282 -7.24344 0.175219 -0.217823 -0.960131 255 255 255 255 0.143693 0.281216
-4.95727 38.475 22.6517 -0.094515 0.544536 -0.833395 255 255 255 255 0.143693 0.281216
-0.420135 23.6682 12.4624 -0.094515 0.544536 -0.833395 255 255 255 255 0.143693 0.281216
-6.69488 22.9805 12.7248 -0.094515 0.544536 -0.833395 255 255 255 255 0.143693 0.281216
-6.69488 22.9805 12.7248 -0.926549 -0.28194 0.249032 255 255 255 255 0.143693 0.281216
-5.18692 20.9782 16.0684 -0.926549 -0.28194 0.249032 255 255 255 255 0.143693 0.281216
-6.90857 34.4063 24.8653 -0.926549 -0.28194 0.249032 255 255 255 255 0.143693 0.281216
-2.9574 35.3355 24.9438 0.10916 -0.534889 0.837841 255 255 255 255 0.143693 0.281216
-6.90857 34.4063 24.8653 0.10916 -0.534889 0.837841 255 255 255 255 0.143693 0.281216
-5.18692 20.9782 16.0684 0.10916 -0.534889 0.837841 255 255 255 255 0.143693 0.281216
-0.420135 23.6682 12.4624 0.886568 0.413872 -0.206655 255 255 255 255 0.143693 0.281216
-4.95727 38.475 22.6517 0.886568 0.413872 -0.206655 255 255 255 255 0.143693 0.281216
-2.9574 35.3355 24.9438 0.886568 0.413872 -0.206655 255 255 255 255 0.143693 0.281216
1.08704 21.6661 15.8064 0.077027 -0.346555 0.934862 255 255 255 255 0.143693 0.281216
-5.18692 20.9782 16.0684 0.077027 -0.346555 0.934862 255 255 255 255 0.143693 0.281216
-0.619415 -1.73889 7.27075 0.077027 -0.346555 0.934862 255 255 255 255 0.143693 0.281216
5.29623 -1.78979 5.25542 0.951192 0.260444 -0.165535 255 255 255 255 0.143693 0.281216
4.69272 -1.73889 1.8676 0.951192 0.260444 -0.165535 255 255 255 255 0.143693 0.281216
-0.420135 23.6682 12.4624 0.951192 0.260444 -0.165535 255 255 255 255 0.143693 0.281216
-0.420135 23.6682 12.4624 -0.304669 0.313706 -0.899314 255 255 255 255 0.143693 0.281216
4.69272 -1.73889 1.8676 -0.304669 0.313706 -0.899314 255 255 255 255 0.143693 0.281216
-1.22467 -1.70544 3.88396 -0.304669 0.313706 -0.899314 255 255 255 255 0.143693 0.281216
-6.69488 22.9805 12.7248 -0.948334 -0.269883 0.166812 255 255 255 255 0.143693 0.281216
-1.22467 -1.70544 3.88396 -0.948334 -0.269883 0.166812 255 255 255 255 0.143693 0.281216
-0.619415 -1.73889 7.27075 -0.948334 -0.269883 0.166812 255 255 255 255 0.143693 0.281216
3 0 1 2 
3 3 4 5 
3 6 7 8 
3 9 10 11 
3 12 13 14 
3 15 16 17 
3 18 19 20 
3 21 22 23 
3 24 25 26 
3 27 28 29 
3 30 31 32 
3 33 34 35 
3 36 37 38 
3 39 40 41 
3 42 43 44 
3 45 46 47 
3 48 49 50 
3 51 52 53 
3 54 55 56 
3 57 58 59 
3 60 61 62 
3 63 64 65 
3 66 67 68 
3 69 70 71 
3 72 73 74 
3 75 76 77 
3 78 79 80 
3 81 82 83 
3 84 85 86 
3 87 88 89 
3 90 91 92 
3 93 94 95 
3 96 97 98 
3 99 100 101 
3 102 103 104 
3 105 106 107 
3 108 109 110 
3 111 112 113 
3 114 115 116 
3 117 118 119 
3 120 121 122 
3 123 124 125 
3 126 127 128 
3 129 130 131 
3 132 133 134 
3 135 136 137 
3 138 139 140 
3 141 142 143 
3 144 145 146 
3 147 148 149 
3 150 151 152 
3 153 154 155 
3 156 157 158 
3 159 160 161 
3 162 163 164 
3 165 166 167 
3 168 169 170 
3 171 172 173 
3 174 175 176 
3 177 178 179 
3 180 181 182 
3 183 184 185 
3 186 187 188 
3 189 190 191 
3 192 193 194 
3 195 196 197 
