ply
format ascii 1.0
comment VCGLIB generated
comment TextureFile Texture_01_A.png
element vertex 267
property float x
property float y
property float z
property float nx
property float ny
property float nz
property uchar red
property uchar green
property uchar blue
property uchar alpha
property float texture_u
property float texture_v
element face 89
property list uchar int vertex_indices
end_header
0.269194 0.065568 -0.506271 0.649341 0.752931 -0.10701 255 255 255 255 0.482822 0.252843
0.331249 -0 -0.591061 0.649341 0.752931 -0.10701 255 255 255 255 0.482822 0.252843
0.302456 -0 -0.765778 0.649341 0.752931 -0.10701 255 255 255 255 0.482822 0.252843
-0.229095 -0 -0.966774 -0.501473 0.432081 -0.749554 255 255 255 255 0.482822 0.252843
-0.308567 -0 -0.913605 -0.501473 0.432081 -0.749554 255 255 255 255 0.482822 0.252843
-0.213842 0.24712 -0.834526 -0.501473 0.432081 -0.749554 255 255 255 255 0.482822 0.252843
-0.213842 0.24712 -0.834526 -0.006419 0.307002 -0.951687 255 255 255 255 0.482822 0.252843
-0.308567 -0 -0.913605 -0.006419 0.307002 -0.951687 255 255 255 255 0.482822 0.252843
-0.338207 0.276756 -0.824127 -0.006419 0.307002 -0.951687 255 255 255 255 0.482822 0.252843
-0.213842 0.24712 -0.834526 0.21346 0.959772 -0.182408 255 255 255 255 0.482822 0.252843
-0.338207 0.276756 -0.824127 0.21346 0.959772 -0.182408 255 255 255 255 0.482822 0.252843
-0.220793 0.266859 -0.7388 0.21346 0.959772 -0.182408 255 255 255 255 0.482822 0.252843
-0.220793 0.266859 -0.7388 0.259784 0.932941 -0.249264 255 255 255 255 0.482822 0.252843
-0.338207 0.276756 -0.824127 0.259784 0.932941 -0.249264 255 255 255 255 0.482822 0.252843
-0.337379 0.292152 -0.76564 0.259784 0.932941 -0.249264 255 255 255 255 0.482822 0.252843
-0.220793 0.266859 -0.7388 0.299211 0.557258 -0.774556 255 255 255 255 0.482822 0.252843
-0.337379 0.292152 -0.76564 0.299211 0.557258 -0.774556 255 255 255 255 0.482822 0.252843
-0.28084 0.435452 -0.640701 0.299211 0.557258 -0.774556 255 255 255 255 0.482822 0.252843
-0.28084 0.435452 -0.640701 -0.317435 0.691238 -0.649172 255 255 255 255 0.482822 0.252843
-0.337379 0.292152 -0.76564 -0.317435 0.691238 -0.649172 255 255 255 255 0.482822 0.252843
-0.363041 0.394726 -0.643871 -0.317435 0.691238 -0.649172 255 255 255 255 0.482822 0.252843
0.212025 0 0.43652 0.393472 0.782586 0.482429 255 255 255 255 0.482822 0.252843
0.20397 0.056808 0.350937 0.393472 0.782586 0.482429 255 255 255 255 0.482822 0.252843
0.046081 0 0.571865 0.393472 0.782586 0.482429 255 255 255 255 0.482822 0.252843
0.046081 0 0.571865 0.695121 0.397514 0.598991 255 255 255 255 0.482822 0.252843
0.20397 0.056808 0.350937 0.695121 0.397514 0.598991 255 255 255 255 0.482822 0.252843
-0.101003 0 0.742554 0.695121 0.397514 0.598991 255 255 255 255 0.482822 0.252843
-0.302462 0.413879 -0.034305 -0.284394 0.946931 0.149804 255 255 255 255 0.482822 0.252843
-0.371521 0.376682 0.069718 -0.284394 0.946931 0.149804 255 255 255 255 0.482822 0.252843
-0.367374 0.358948 0.18969 -0.284394 0.946931 0.149804 255 255 255 255 0.482822 0.252843
-0.302462 0.413879 -0.034305 -0.465886 0.884816 0.007103 255 255 255 255 0.482822 0.252843
-0.363106 0.382236 -0.070199 -0.465886 0.884816 0.007103 255 255 255 255 0.482822 0.252843
-0.371521 0.376682 0.069718 -0.465886 0.884816 0.007103 255 255 255 255 0.482822 0.252843
-0.252012 0.415867 -0.294573 -0.321976 0.945138 -0.055192 255 255 255 255 0.482822 0.252843
-0.369125 0.378643 -0.24881 -0.321976 0.945138 -0.055192 255 255 255 255 0.482822 0.252843
-0.302462 0.413879 -0.034305 -0.321976 0.945138 -0.055192 255 255 255 255 0.482822 0.252843
-0.302462 0.413879 -0.034305 -0.461528 0.887123 -0.002293 255 255 255 255 0.482822 0.252843
-0.369125 0.378643 -0.24881 -0.461528 0.887123 -0.002293 255 255 255 255 0.482822 0.252843
-0.363106 0.382236 -0.070199 -0.461528 0.887123 -0.002293 255 255 255 255 0.482822 0.252843
-0.28084 0.435452 -0.640701 -0.444949 0.891272 0.087489 255 255 255 255 0.482822 0.252843
-0.363041 0.394726 -0.643871 -0.444949 0.891272 0.087489 255 255 255 255 0.482822 0.252843
-0.252012 0.415867 -0.294573 -0.444949 0.891272 0.087489 255 255 255 255 0.482822 0.252843
-0.252012 0.415867 -0.294573 -0.29048 0.95626 0.034456 255 255 255 255 0.482822 0.252843
-0.363041 0.394726 -0.643871 -0.29048 0.95626 0.034456 255 255 255 255 0.482822 0.252843
-0.369125 0.378643 -0.24881 -0.29048 0.95626 0.034456 255 255 255 255 0.482822 0.252843
0.20397 0.056808 0.350937 0.647844 0.661361 0.378021 255 255 255 255 0.482822 0.252843
0.212025 0 0.43652 0.647844 0.661361 0.378021 255 255 255 255 0.482822 0.252843
0.327759 0 0.238178 0.647844 0.661361 0.378021 255 255 255 255 0.482822 0.252843
0.20397 0.056808 0.350937 0.453086 0.890121 0.048963 255 255 255 255 0.482822 0.252843
0.327759 0 0.238178 0.453086 0.890121 0.048963 255 255 255 255 0.482822 0.252843
0.268652 0.054285 -0.201742 0.453086 0.890121 0.048963 255 255 255 255 0.482822 0.252843
0.268652 0.054285 -0.201742 0.591924 0.805748 0.019897 255 255 255 255 0.482822 0.252843
0.327759 0 0.238178 0.591924 0.805748 0.019897 255 255 255 255 0.482822 0.252843
0.339882 -0 -0.122471 0.591924 0.805748 0.019897 255 255 255 255 0.482822 0.252843
0.268652 0.054285 -0.201742 0.569879 0.820229 0.049622 255 255 255 255 0.482822 0.252843
0.339882 -0 -0.122471 0.569879 0.820229 0.049622 255 255 255 255 0.482822 0.252843
0.361382 -0 -0.369385 0.569879 0.820229 0.049622 255 255 255 255 0.482822 0.252843
0.361382 -0 -0.369385 0.662583 0.743554 -0.090067 255 255 255 255 0.482822 0.252843
0.331249 -0 -0.591061 0.662583 0.743554 -0.090067 255 255 255 255 0.482822 0.252843
0.269194 0.065568 -0.506271 0.662583 0.743554 -0.090067 255 255 255 255 0.482822 0.252843
0.269194 0.065568 -0.506271 0.69704 0.711313 -0.090381 255 255 255 255 0.482822 0.252843
0.302456 -0 -0.765778 0.69704 0.711313 -0.090381 255 255 255 255 0.482822 0.252843
0.235579 0.081004 -0.644035 0.69704 0.711313 -0.090381 255 255 255 255 0.482822 0.252843
0.199804 -0 -0.859337 0.208219 0.951027 -0.228457 255 255 255 255 0.482822 0.252843
0.145143 0.059157 -0.662895 0.208219 0.951027 -0.228457 255 255 255 255 0.482822 0.252843
0.302456 -0 -0.765778 0.208219 0.951027 -0.228457 255 255 255 255 0.482822 0.252843
0.302456 -0 -0.765778 -0.074792 0.81078 -0.580553 255 255 255 255 0.482822 0.252843
0.145143 0.059157 -0.662895 -0.074792 0.81078 -0.580553 255 255 255 255 0.482822 0.252843
0.235579 0.081004 -0.644035 -0.074792 0.81078 -0.580553 255 255 255 255 0.482822 0.252843
-0.229095 -0 -0.966774 0.183691 0.654609 -0.733311 255 255 255 255 0.482822 0.252843
-0.143639 0.162764 -0.800072 0.183691 0.654609 -0.733311 255 255 255 255 0.482822 0.252843
0.199804 -0 -0.859337 0.183691 0.654609 -0.733311 255 255 255 255 0.482822 0.252843
0.199804 -0 -0.859337 0.399965 0.902376 -0.160452 255 255 255 255 0.482822 0.252843
-0.143639 0.162764 -0.800072 0.399965 0.902376 -0.160452 255 255 255 255 0.482822 0.252843
0.145143 0.059157 -0.662895 0.399965 0.902376 -0.160452 255 255 255 255 0.482822 0.252843
-0.229095 -0 -0.966774 0.690755 0.307577 -0.654411 255 255 255 255 0.482822 0.252843
-0.213842 0.24712 -0.834526 0.690755 0.307577 -0.654411 255 255 255 255 0.482822 0.252843
-0.143639 0.162764 -0.800072 0.690755 0.307577 -0.654411 255 255 255 255 0.482822 0.252843
-0.213842 0.24712 -0.834526 0.780809 0.620689 -0.071291 255 255 255 255 0.482822 0.252843
-0.220793 0.266859 -0.7388 0.780809 0.620689 -0.071291 255 255 255 255 0.482822 0.252843
-0.143639 0.162764 -0.800072 0.780809 0.620689 -0.071291 255 255 255 255 0.482822 0.252843
0.144054 0.080469 0.29911 0.123716 0.948935 0.2902 255 255 255 255 0.482822 0.252843
-0.178865 0.057152 0.51302 0.123716 0.948935 0.2902 255 255 255 255 0.482822 0.252843
0.20397 0.056808 0.350937 0.123716 0.948935 0.2902 255 255 255 255 0.482822 0.252843
-0.178865 0.057152 0.51302 0.090469 0.973156 0.211619 255 255 255 255 0.482822 0.252843
-0.101003 0 0.742554 0.090469 0.973156 0.211619 255 255 255 255 0.482822 0.252843
0.20397 0.056808 0.350937 0.090469 0.973156 0.211619 255 255 255 255 0.482822 0.252843
-0.178865 0.057152 0.51302 0.028991 0.972226 0.232241 255 255 255 255 0.482822 0.252843
-0.257397 0 0.762077 0.028991 0.972226 0.232241 255 255 255 255 0.482822 0.252843
-0.101003 0 0.742554 0.028991 0.972226 0.232241 255 255 255 255 0.482822 0.252843
-0.178865 0.057152 0.51302 0.002004 0.974527 0.22426 255 255 255 255 0.482822 0.252843
-0.389366 0.012821 0.707542 0.002004 0.974527 0.22426 255 255 255 255 0.482822 0.252843
-0.257397 0 0.762077 0.002004 0.974527 0.22426 255 255 255 255 0.482822 0.252843
-0.383556 0.252209 0.463898 -0.736607 0.491125 0.46498 255 255 255 255 0.482822 0.252843
-0.389366 0.012821 0.707542 -0.736607 0.491125 0.46498 255 255 255 255 0.482822 0.252843
-0.327568 0.295595 0.506767 -0.736607 0.491125 0.46498 255 255 255 255 0.482822 0.252843
-0.302462 0.413879 -0.034305 -0.106364 0.972405 0.207642 255 255 255 255 0.482822 0.252843
-0.367374 0.358948 0.18969 -0.106364 0.972405 0.207642 255 255 255 255 0.482822 0.252843
-0.327568 0.295595 0.506767 -0.106364 0.972405 0.207642 255 255 255 255 0.482822 0.252843
-0.327568 0.295595 0.506767 -0.698193 0.680115 0.223541 255 255 255 255 0.482822 0.252843
-0.367374 0.358948 0.18969 -0.698193 0.680115 0.223541 255 255 255 255 0.482822 0.252843
-0.383556 0.252209 0.463898 -0.698193 0.680115 0.223541 255 255 255 255 0.482822 0.252843
-0.302462 0.413879 -0.034305 0.076968 0.973279 0.21634 255 255 255 255 0.482822 0.252843
-0.327568 0.295595 0.506767 0.076968 0.973279 0.21634 255 255 255 255 0.482822 0.252843
-0.214411 0.382309 0.076397 0.076968 0.973279 0.21634 255 255 255 255 0.482822 0.252843
0.20397 0.056808 0.350937 0.340323 0.939637 0.03554 255 255 255 255 0.482822 0.252843
0.268652 0.054285 -0.201742 0.340323 0.939637 0.03554 255 255 255 255 0.482822 0.252843
0.144054 0.080469 0.29911 0.340323 0.939637 0.03554 255 255 255 255 0.482822 0.252843
0.268652 0.054285 -0.201742 0.547351 0.836292 0.031959 255 255 255 255 0.482822 0.252843
0.361382 -0 -0.369385 0.547351 0.836292 0.031959 255 255 255 255 0.482822 0.252843
0.269194 0.065568 -0.506271 0.547351 0.836292 0.031959 255 255 255 255 0.482822 0.252843
0.235579 0.081004 -0.644035 -0.264908 0.948996 0.17097 255 255 255 255 0.482822 0.252843
0.145143 0.059157 -0.662895 -0.264908 0.948996 0.17097 255 255 255 255 0.482822 0.252843
0.269194 0.065568 -0.506271 -0.264908 0.948996 0.17097 255 255 255 255 0.482822 0.252843
-0.215191 0.388687 -0.611359 0.894075 0.441962 -0.072798 255 255 255 255 0.482822 0.252843
-0.107912 0.259676 -0.077035 0.894075 0.441962 -0.072798 255 255 255 255 0.482822 0.252843
-0.147111 0.23711 -0.695465 0.894075 0.441962 -0.072798 255 255 255 255 0.482822 0.252843
-0.215191 0.388687 -0.611359 0.605712 0.79262 0.069764 255 255 255 255 0.482822 0.252843
-0.176537 0.294981 0.117672 0.605712 0.79262 0.069764 255 255 255 255 0.482822 0.252843
-0.107912 0.259676 -0.077035 0.605712 0.79262 0.069764 255 255 255 255 0.482822 0.252843
-0.20013 0.266434 0.424007 0.301246 0.947011 0.111452 255 255 255 255 0.482822 0.252843
-0.111996 0.249041 0.333576 0.301246 0.947011 0.111452 255 255 255 255 0.482822 0.252843
-0.176537 0.294981 0.117672 0.301246 0.947011 0.111452 255 255 255 255 0.482822 0.252843
-0.178865 0.057152 0.51302 -0.053024 0.849424 0.52504 255 255 255 255 0.482822 0.252843
0.031964 0.160232 0.367546 -0.053024 0.849424 0.52504 255 255 255 255 0.482822 0.252843
-0.018341 0.253052 0.212299 -0.053024 0.849424 0.52504 255 255 255 255 0.482822 0.252843
0.144054 0.080469 0.29911 0.079571 0.996153 -0.03671 255 255 255 255 0.482822 0.252843
0.174387 0.056164 -0.294672 0.079571 0.996153 -0.03671 255 255 255 255 0.482822 0.252843
0.146582 0.067202 -0.055418 0.079571 0.996153 -0.03671 255 255 255 255 0.482822 0.252843
0.145143 0.059157 -0.662895 0.491791 0.717349 -0.49351 255 255 255 255 0.482822 0.252843
-0.143639 0.162764 -0.800072 0.491791 0.717349 -0.49351 255 255 255 255 0.482822 0.252843
-0.147111 0.23711 -0.695465 0.491791 0.717349 -0.49351 255 255 255 255 0.482822 0.252843
-0.147111 0.23711 -0.695465 0.574197 0.579052 -0.578789 255 255 255 255 0.482822 0.252843
-0.220793 0.266859 -0.7388 0.574197 0.579052 -0.578789 255 255 255 255 0.482822 0.252843
-0.215191 0.388687 -0.611359 0.574197 0.579052 -0.578789 255 255 255 255 0.482822 0.252843
-0.252012 0.415867 -0.294573 0.784239 0.619293 0.03802 255 255 255 255 0.482822 0.252843
-0.176537 0.294981 0.117672 0.784239 0.619293 0.03802 255 255 255 255 0.482822 0.252843
-0.215191 0.388687 -0.611359 0.784239 0.619293 0.03802 255 255 255 255 0.482822 0.252843
-0.176537 0.294981 0.117672 0.289565 0.950712 0.110897 255 255 255 255 0.482822 0.252843
-0.327568 0.295595 0.506767 0.289565 0.950712 0.110897 255 255 255 255 0.482822 0.252843
-0.20013 0.266434 0.424007 0.289565 0.950712 0.110897 255 255 255 255 0.482822 0.252843
-0.327568 0.295595 0.506767 0.563991 0.371074 0.737711 255 255 255 255 0.482822 0.252843
-0.178865 0.057152 0.51302 0.563991 0.371074 0.737711 255 255 255 255 0.482822 0.252843
-0.20013 0.266434 0.424007 0.563991 0.371074 0.737711 255 255 255 255 0.482822 0.252843
-0.178865 0.057152 0.51302 0.548633 0.055219 0.834237 255 255 255 255 0.482822 0.252843
0.144054 0.080469 0.29911 0.548633 0.055219 0.834237 255 255 255 255 0.482822 0.252843
0.031964 0.160232 0.367546 0.548633 0.055219 0.834237 255 255 255 255 0.482822 0.252843
0.268652 0.054285 -0.201742 0.05726 0.997639 -0.037911 255 255 255 255 0.482822 0.252843
0.174387 0.056164 -0.294672 0.05726 0.997639 -0.037911 255 255 255 255 0.482822 0.252843
0.144054 0.080469 0.29911 0.05726 0.997639 -0.037911 255 255 255 255 0.482822 0.252843
0.268652 0.054285 -0.201742 -0.01655 0.999179 0.036991 255 255 255 255 0.482822 0.252843
0.269194 0.065568 -0.506271 -0.01655 0.999179 0.036991 255 255 255 255 0.482822 0.252843
0.174387 0.056164 -0.294672 -0.01655 0.999179 0.036991 255 255 255 255 0.482822 0.252843
-0.143639 0.162764 -0.800072 0.553903 0.687214 -0.470031 255 255 255 255 0.482822 0.252843
-0.220793 0.266859 -0.7388 0.553903 0.687214 -0.470031 255 255 255 255 0.482822 0.252843
-0.147111 0.23711 -0.695465 0.553903 0.687214 -0.470031 255 255 255 255 0.482822 0.252843
-0.220793 0.266859 -0.7388 0.633656 0.545102 -0.548948 255 255 255 255 0.482822 0.252843
-0.28084 0.435452 -0.640701 0.633656 0.545102 -0.548948 255 255 255 255 0.482822 0.252843
-0.215191 0.388687 -0.611359 0.633656 0.545102 -0.548948 255 255 255 255 0.482822 0.252843
-0.28084 0.435452 -0.640701 0.58088 0.813986 -0.002322 255 255 255 255 0.482822 0.252843
-0.252012 0.415867 -0.294573 0.58088 0.813986 -0.002322 255 255 255 255 0.482822 0.252843
-0.215191 0.388687 -0.611359 0.58088 0.813986 -0.002322 255 255 255 255 0.482822 0.252843
-0.176537 0.294981 0.117672 0.808391 0.498534 0.312998 255 255 255 255 0.482822 0.252843
-0.214411 0.382309 0.076397 0.808391 0.498534 0.312998 255 255 255 255 0.482822 0.252843
-0.327568 0.295595 0.506767 0.808391 0.498534 0.312998 255 255 255 255 0.482822 0.252843
-0.389366 0.012821 0.707542 0.582502 0.382086 0.717427 255 255 255 255 0.482822 0.252843
-0.178865 0.057152 0.51302 0.582502 0.382086 0.717427 255 255 255 255 0.482822 0.252843
-0.327568 0.295595 0.506767 0.582502 0.382086 0.717427 255 255 255 255 0.482822 0.252843
0.269194 0.065568 -0.506271 -0.023151 0.999477 -0.022575 255 255 255 255 0.482822 0.252843
0.145143 0.059157 -0.662895 -0.023151 0.999477 -0.022575 255 255 255 255 0.482822 0.252843
0.085752 0.065459 -0.322969 -0.023151 0.999477 -0.022575 255 255 255 255 0.482822 0.252843
0.145143 0.059157 -0.662895 0.512653 0.855426 0.07371 255 255 255 255 0.482822 0.252843
-0.147111 0.23711 -0.695465 0.512653 0.855426 0.07371 255 255 255 255 0.482822 0.252843
0.085752 0.065459 -0.322969 0.512653 0.855426 0.07371 255 255 255 255 0.482822 0.252843
-0.147111 0.23711 -0.695465 0.994917 0.076187 -0.065843 255 255 255 255 0.482822 0.252843
-0.107912 0.259676 -0.077035 0.994917 0.076187 -0.065843 255 255 255 255 0.482822 0.252843
-0.115836 0.133247 -0.343063 0.994917 0.076187 -0.065843 255 255 255 255 0.482822 0.252843
-0.176537 0.294981 0.117672 0.29406 0.953278 -0.06921 255 255 255 255 0.482822 0.252843
-0.018341 0.253052 0.212299 0.29406 0.953278 -0.06921 255 255 255 255 0.482822 0.252843
-0.107912 0.259676 -0.077035 0.29406 0.953278 -0.06921 255 255 255 255 0.482822 0.252843
-0.176537 0.294981 0.117672 0.163366 0.973772 0.158363 255 255 255 255 0.482822 0.252843
-0.111996 0.249041 0.333576 0.163366 0.973772 0.158363 255 255 255 255 0.482822 0.252843
-0.018341 0.253052 0.212299 0.163366 0.973772 0.158363 255 255 255 255 0.482822 0.252843
0.031964 0.160232 0.367546 0.651744 0.725114 0.222349 255 255 255 255 0.482822 0.252843
0.144054 0.080469 0.29911 0.651744 0.725114 0.222349 255 255 255 255 0.482822 0.252843
-0.018341 0.253052 0.212299 0.651744 0.725114 0.222349 255 255 255 255 0.482822 0.252843
0.144054 0.080469 0.29911 0.73318 0.679734 -0.020209 255 255 255 255 0.482822 0.252843
0.146582 0.067202 -0.055418 0.73318 0.679734 -0.020209 255 255 255 255 0.482822 0.252843
-0.018341 0.253052 0.212299 0.73318 0.679734 -0.020209 255 255 255 255 0.482822 0.252843
0.146582 0.067202 -0.055418 0.625062 0.766588 -0.147107 255 255 255 255 0.482822 0.252843
0.085752 0.065459 -0.322969 0.625062 0.766588 -0.147107 255 255 255 255 0.482822 0.252843
-0.018341 0.253052 0.212299 0.625062 0.766588 -0.147107 255 255 255 255 0.482822 0.252843
0.146582 0.067202 -0.055418 0.114499 0.992892 -0.032501 255 255 255 255 0.482822 0.252843
0.174387 0.056164 -0.294672 0.114499 0.992892 -0.032501 255 255 255 255 0.482822 0.252843
0.085752 0.065459 -0.322969 0.114499 0.992892 -0.032501 255 255 255 255 0.482822 0.252843
0.174387 0.056164 -0.294672 0.078833 0.993714 0.079484 255 255 255 255 0.482822 0.252843
0.269194 0.065568 -0.506271 0.078833 0.993714 0.079484 255 255 255 255 0.482822 0.252843
0.085752 0.065459 -0.322969 0.078833 0.993714 0.079484 255 255 255 255 0.482822 0.252843
-0.026212 0.063776 -0.279449 0.711587 0.626127 -0.318761 255 255 255 255 0.482822 0.252843
-0.115836 0.133247 -0.343063 0.711587 0.626127 -0.318761 255 255 255 255 0.482822 0.252843
-0.107912 0.259676 -0.077035 0.711587 0.626127 -0.318761 255 255 255 255 0.482822 0.252843
0.085752 0.065459 -0.322969 -0.151083 0.923351 -0.352984 255 255 255 255 0.482822 0.252843
-0.026212 0.063776 -0.279449 -0.151083 0.923351 -0.352984 255 255 255 255 0.482822 0.252843
-0.018341 0.253052 0.212299 -0.151083 0.923351 -0.352984 255 255 255 255 0.482822 0.252843
-0.026212 0.063776 -0.279449 0.506332 0.838312 0.202139 255 255 255 255 0.482822 0.252843
-0.147111 0.23711 -0.695465 0.506332 0.838312 0.202139 255 255 255 255 0.482822 0.252843
-0.115836 0.133247 -0.343063 0.506332 0.838312 0.202139 255 255 255 255 0.482822 0.252843
0.085752 0.065459 -0.322969 0.122539 0.928265 0.351152 255 255 255 255 0.482822 0.252843
-0.147111 0.23711 -0.695465 0.122539 0.928265 0.351152 255 255 255 255 0.482822 0.252843
-0.026212 0.063776 -0.279449 0.122539 0.928265 0.351152 255 255 255 255 0.482822 0.252843
-0.018341 0.253052 0.212299 0.789547 0.568387 -0.231413 255 255 255 255 0.482822 0.252843
-0.026212 0.063776 -0.279449 0.789547 0.568387 -0.231413 255 255 255 255 0.482822 0.252843
-0.107912 0.259676 -0.077035 0.789547 0.568387 -0.231413 255 255 255 255 0.482822 0.252843
-0.252012 0.415867 -0.294573 0.925831 0.373131 -0.060087 255 255 255 255 0.482822 0.252843
-0.214411 0.382309 0.076397 0.925831 0.373131 -0.060087 255 255 255 255 0.482822 0.252843
-0.176537 0.294981 0.117672 0.925831 0.373131 -0.060087 255 255 255 255 0.482822 0.252843
-0.302462 0.413879 -0.034305 0.269654 0.961111 0.05961 255 255 255 255 0.482822 0.252843
-0.214411 0.382309 0.076397 0.269654 0.961111 0.05961 255 255 255 255 0.482822 0.252843
-0.252012 0.415867 -0.294573 0.269654 0.961111 0.05961 255 255 255 255 0.482822 0.252843
-0.338207 0.276756 -0.824127 -0.605472 0.185388 -0.773973 255 255 255 255 0.482822 0.252843
-0.308567 -0 -0.913605 -0.605472 0.185388 -0.773973 255 255 255 255 0.482822 0.252843
-0.369667 -0 -0.865807 -0.605472 0.185388 -0.773973 255 255 255 255 0.482822 0.252843
-0.337379 0.292152 -0.76564 -0.986718 0.159984 -0.028145 255 255 255 255 0.482822 0.252843
-0.338207 0.276756 -0.824127 -0.986718 0.159984 -0.028145 255 255 255 255 0.482822 0.252843
-0.382301 -0 -0.851425 -0.986718 0.159984 -0.028145 255 255 255 255 0.482822 0.252843
-0.382301 -0 -0.851425 -0.738779 0.181719 -0.648987 255 255 255 255 0.482822 0.252843
-0.338207 0.276756 -0.824127 -0.738779 0.181719 -0.648987 255 255 255 255 0.482822 0.252843
-0.369667 -0 -0.865807 -0.738779 0.181719 -0.648987 255 255 255 255 0.482822 0.252843
-0.363041 0.394726 -0.643871 -0.886888 0.243898 -0.392357 255 255 255 255 0.482822 0.252843
-0.337379 0.292152 -0.76564 -0.886888 0.243898 -0.392357 255 255 255 255 0.482822 0.252843
-0.427483 -0 -0.743576 -0.886888 0.243898 -0.392357 255 255 255 255 0.482822 0.252843
-0.427483 -0 -0.743576 -0.893672 0.247347 -0.374393 255 255 255 255 0.482822 0.252843
-0.337379 0.292152 -0.76564 -0.893672 0.247347 -0.374393 255 255 255 255 0.482822 0.252843
-0.382301 -0 -0.851425 -0.893672 0.247347 -0.374393 255 255 255 255 0.482822 0.252843
-0.369125 0.378643 -0.24881 -0.995659 0.09235 -0.011574 255 255 255 255 0.482822 0.252843
-0.363041 0.394726 -0.643871 -0.995659 0.09235 -0.011574 255 255 255 255 0.482822 0.252843
-0.404362 -0 -0.238758 -0.995659 0.09235 -0.011574 255 255 255 255 0.482822 0.252843
-0.404362 -0 -0.238758 -0.987678 0.149819 0.045236 255 255 255 255 0.482822 0.252843
-0.363041 0.394726 -0.643871 -0.987678 0.149819 0.045236 255 255 255 255 0.482822 0.252843
-0.427483 -0 -0.743576 -0.987678 0.149819 0.045236 255 255 255 255 0.482822 0.252843
-0.363106 0.382236 -0.070199 -0.995121 0.093448 0.031655 255 255 255 255 0.482822 0.252843
-0.369125 0.378643 -0.24881 -0.995121 0.093448 0.031655 255 255 255 255 0.482822 0.252843
-0.404362 -0 -0.238758 -0.995121 0.093448 0.031655 255 255 255 255 0.482822 0.252843
-0.371521 0.376682 0.069718 -0.996516 0.060377 -0.057536 255 255 255 255 0.482822 0.252843
-0.363106 0.382236 -0.070199 -0.996516 0.060377 -0.057536 255 255 255 255 0.482822 0.252843
-0.401703 0 0.197182 -0.996516 0.060377 -0.057536 255 255 255 255 0.482822 0.252843
-0.401703 0 0.197182 -0.994489 0.104664 0.006066 255 255 255 255 0.482822 0.252843
-0.363106 0.382236 -0.070199 -0.994489 0.104664 0.006066 255 255 255 255 0.482822 0.252843
-0.404362 -0 -0.238758 -0.994489 0.104664 0.006066 255 255 255 255 0.482822 0.252843
-0.371521 0.376682 0.069718 -0.994186 0.096096 0.04857 255 255 255 255 0.482822 0.252843
-0.401703 0 0.197182 -0.994186 0.096096 0.04857 255 255 255 255 0.482822 0.252843
-0.367374 0.358948 0.18969 -0.994186 0.096096 0.04857 255 255 255 255 0.482822 0.252843
-0.367374 0.358948 0.18969 -0.98893 0.096924 0.112356 255 255 255 255 0.482822 0.252843
-0.401703 0 0.197182 -0.98893 0.096924 0.112356 255 255 255 255 0.482822 0.252843
-0.372337 0 0.455654 -0.98893 0.096924 0.112356 255 255 255 255 0.482822 0.252843
-0.383556 0.252209 0.463898 -0.996298 -0.041864 -0.075091 255 255 255 255 0.482822 0.252843
-0.367374 0.358948 0.18969 -0.996298 -0.041864 -0.075091 255 255 255 255 0.482822 0.252843
-0.372337 0 0.455654 -0.996298 -0.041864 -0.075091 255 255 255 255 0.482822 0.252843
-0.372337 0 0.455654 -0.996975 -0.042215 -0.065252 255 255 255 255 0.482822 0.252843
-0.389366 0.012821 0.707542 -0.996975 -0.042215 -0.065252 255 255 255 255 0.482822 0.252843
-0.383556 0.252209 0.463898 -0.996975 -0.042215 -0.065252 255 255 255 255 0.482822 0.252843
-0.20013 0.266434 0.424007 0.705868 0.336771 0.623166 255 255 255 255 0.482822 0.252843
-0.178865 0.057152 0.51302 0.705868 0.336771 0.623166 255 255 255 255 0.482822 0.252843
-0.111996 0.249041 0.333576 0.705868 0.336771 0.623166 255 255 255 255 0.482822 0.252843
-0.018341 0.253052 0.212299 0.75273 0.290257 0.590888 255 255 255 255 0.482822 0.252843
-0.111996 0.249041 0.333576 0.75273 0.290257 0.590888 255 255 255 255 0.482822 0.252843
-0.178865 0.057152 0.51302 0.75273 0.290257 0.590888 255 255 255 255 0.482822 0.252843
3 0 1 2 
3 3 4 5 
3 6 7 8 
3 9 10 11 
3 12 13 14 
3 15 16 17 
3 18 19 20 
3 21 22 23 
3 24 25 26 
3 27 28 29 
3 30 31 32 
3 33 34 35 
3 36 37 38 
3 39 40 41 
3 42 43 44 
3 45 46 47 
3 48 49 50 
3 51 52 53 
3 54 55 56 
3 57 58 59 
3 60 61 62 
3 63 64 65 
3 66 67 68 
3 69 70 71 
3 72 73 74 
3 75 76 77 
3 78 79 80 
3 81 82 83 
3 84 85 86 
3 87 88 89 
3 90 91 92 
3 93 94 95 
3 96 97 98 
3 99 100 101 
3 102 103 104 
3 105 106 107 
3 108 109 110 
3 111 112 113 
3 114 115 116 
3 117 118 119 
3 120 121 122 
3 123 124 125 
3 126 127 128 
3 129 130 131 
3 132 133 134 
3 135 136 137 
3 138 139 140 
3 141 142 143 
3 144 145 146 
3 147 148 149 
3 150 151 152 
3 153 154 155 
3 156 157 158 
3 159 160 161 
3 162 163 164 
3 165 166 167 
3 168 169 170 
3 171 172 173 
3 174 175 176 
3 177 178 179 
3 180 181 182 
3 183 184 185 
3 186 187 188 
3 189 190 191 
3 192 193 194 
3 195 196 197 
3 198 199 200 
3 201 202 203 
3 204 205 206 
3 207 208 209 
3 210 211 212 
3 213 214 215 
3 216 217 218 
3 219 220 221 
3 222 223 224 
3 225 226 227 
3 228 229 230 
3 231 232 233 
3 234 235 236 
3 237 238 239 
3 240 241 242 
3 243 244 245 
3 246 247 248 
3 249 250 251 
3 252 253 254 
3 255 256 257 
3 258 259 260 
3 261 262 263 
3 264 265 266 
