ply
format ascii 1.0
comment VCGLIB generated
comment TextureFile Texture_01_A.png
element vertex 333
property float x
property float y
property float z
property float nx
property float ny
property float nz
property uchar red
property uchar green
property uchar blue
property uchar alpha
property float texture_u
property float texture_v
element face 113
property list uchar int vertex_indices
end_header
-0.353161 -0.060012 0.272694 -0 0.836918 0.547328 255 255 255 255 0.447094 0.283132
-0.453505 -0.060012 0.272694 -0 0.836918 0.547328 255 255 255 255 0.447094 0.283132
-0.38744 -0.085391 0.311501 -0 0.836918 0.547328 255 255 255 255 0.447094 0.283132
-0.353161 -0.060012 0.272694 0 1 -0 255 255 255 255 0.447094 0.283132
-0.453505 -0.060012 0.208758 0 1 -0 255 255 255 255 0.447094 0.283132
-0.453505 -0.060012 0.272694 0 1 -0 255 255 255 255 0.447094 0.283132
-0.38744 -0.085391 0.167646 0 0.850925 -0.525288 255 255 255 255 0.447094 0.283132
-0.453505 -0.060012 0.208758 0 0.850925 -0.525288 255 255 255 255 0.447094 0.283132
-0.353161 -0.060012 0.208758 0 0.850925 -0.525288 255 255 255 255 0.447094 0.283132
-0.353161 -0.060012 0.208758 0 1 -0 255 255 255 255 0.447094 0.283132
0.511288 -0.060012 -0.252456 -0.540266 0.836935 -0.087477 255 255 255 255 0.447094 0.283132
0.527424 -0.060012 -0.352114 -0.540266 0.836935 -0.087477 255 255 255 255 0.447094 0.283132
0.47842 -0.085391 -0.292274 -0.540266 0.836935 -0.087477 255 255 255 255 0.447094 0.283132
0.527424 -0.060012 -0.352114 0 1 -0 255 255 255 255 0.447094 0.283132
0.574392 -0.060012 -0.242193 0 1 -0 255 255 255 255 0.447094 0.283132
0.59053 -0.060012 -0.34185 0 1 -0 255 255 255 255 0.447094 0.283132
0.620409 -0.085391 -0.269181 0.518541 0.85092 0.08397 255 255 255 255 0.447094 0.283132
0.59053 -0.060012 -0.34185 0.518541 0.85092 0.08397 255 255 255 255 0.447094 0.283132
0.574392 -0.060012 -0.242193 0.518541 0.85092 0.08397 255 255 255 255 0.447094 0.283132
0.511288 -0.060012 -0.252456 0 1 -0 255 255 255 255 0.447094 0.283132
0.446826 -0.005474 0.344856 0.408348 0.862123 0.299994 255 255 255 255 0.447094 0.306142
0.400195 0.027668 0.313086 0.408348 0.862123 0.299994 255 255 255 255 0.447094 0.306142
0.357224 0.013473 0.412371 0.408348 0.862123 0.299994 255 255 255 255 0.447094 0.306142
0.407557 -0.002463 0.25738 0.082877 0.881093 -0.465625 255 255 255 255 0.447094 0.306142
0.280393 0.049015 0.332157 0.082877 0.881093 -0.465625 255 255 255 255 0.447094 0.306142
0.400195 0.027668 0.313086 0.082877 0.881093 -0.465625 255 255 255 255 0.447094 0.306142
0.298324 0.01799 0.281157 0.051122 0.861099 -0.505861 255 255 255 255 0.447094 0.306142
0.280393 0.049015 0.332157 0.051122 0.861099 -0.505861 255 255 255 255 0.447094 0.306142
0.407557 -0.002463 0.25738 0.051122 0.861099 -0.505861 255 255 255 255 0.447094 0.306142
0.400195 0.027668 0.313086 0.429408 0.849233 0.307266 255 255 255 255 0.447094 0.306142
0.306571 0.047008 0.390474 0.429408 0.849233 0.307266 255 255 255 255 0.447094 0.306142
0.357224 0.013473 0.412371 0.429408 0.849233 0.307266 255 255 255 255 0.447094 0.306142
0.280393 0.049015 0.332157 0.168803 0.98476 -0.041883 255 255 255 255 0.447094 0.306142
0.306571 0.047008 0.390474 0.168803 0.98476 -0.041883 255 255 255 255 0.447094 0.306142
0.400195 0.027668 0.313086 0.168803 0.98476 -0.041883 255 255 255 255 0.447094 0.306142
0.253667 0.030322 0.378704 -0.332225 0.925672 0.18099 255 255 255 255 0.447094 0.306142
0.306571 0.047008 0.390474 -0.332225 0.925672 0.18099 255 255 255 255 0.447094 0.306142
0.280393 0.049015 0.332157 -0.332225 0.925672 0.18099 255 255 255 255 0.447094 0.306142
-0.27541 -0.046719 -0.393132 -0.097293 0.947428 0.304817 255 255 255 255 0.447094 0.283132
-0.341707 -0.031799 -0.460667 -0.097293 0.947428 0.304817 255 255 255 255 0.447094 0.283132
-0.385668 -0.046816 -0.428023 -0.097293 0.947428 0.304817 255 255 255 255 0.447094 0.283132
-0.341707 -0.031799 -0.460667 0.257726 0.856917 -0.446398 255 255 255 255 0.447094 0.283132
-0.248169 -0.05477 -0.450759 0.257726 0.856917 -0.446398 255 255 255 255 0.447094 0.283132
-0.344805 -0.058892 -0.514464 0.257726 0.856917 -0.446398 255 255 255 255 0.447094 0.283132
-0.341707 -0.031799 -0.460667 0.240616 0.970375 -0.021828 255 255 255 255 0.447094 0.283132
-0.27541 -0.046719 -0.393132 0.240616 0.970375 -0.021828 255 255 255 255 0.447094 0.283132
-0.248169 -0.05477 -0.450759 0.240616 0.970375 -0.021828 255 255 255 255 0.447094 0.283132
-0.940901 -0.040576 -0.094979 0.121994 0.861998 -0.492013 255 255 255 255 0.447094 0.283132
-0.856428 -0.014997 -0.02922 0.121994 0.861998 -0.492013 255 255 255 255 0.447094 0.283132
-0.879452 -0.057425 -0.109262 0.121994 0.861998 -0.492013 255 255 255 255 0.447094 0.283132
-0.940901 -0.040576 -0.094979 0.121999 0.861994 -0.492018 255 255 255 255 0.447094 0.283132
-0.917877 0.001852 -0.014938 0.121999 0.861994 -0.492018 255 255 255 255 0.447094 0.283132
-0.856428 -0.014997 -0.02922 0.121999 0.861994 -0.492018 255 255 255 255 0.447094 0.283132
-0.964323 -0.026274 -0.028437 -0.417362 0.847103 -0.328976 255 255 255 255 0.447094 0.283132
-0.917877 0.001852 -0.014938 -0.417362 0.847103 -0.328976 255 255 255 255 0.447094 0.283132
-0.940901 -0.040576 -0.094979 -0.417362 0.847103 -0.328976 255 255 255 255 0.447094 0.283132
-0.54064 -0.060012 0.834107 0.440059 0.836917 0.325449 255 255 255 255 0.447094 0.283132
-0.600306 -0.060012 0.914785 0.440059 0.836917 0.325449 255 255 255 255 0.447094 0.283132
-0.529821 -0.085391 0.884742 0.440059 0.836917 0.325449 255 255 255 255 0.447094 0.283132
-0.54064 -0.060012 0.834107 -0 1 -0 255 255 255 255 0.447094 0.283132
-0.651711 -0.060012 0.87677 -0 1 -0 255 255 255 255 0.447094 0.283132
-0.600306 -0.060012 0.914785 -0 1 -0 255 255 255 255 0.447094 0.283132
-0.645483 -0.085391 0.799207 -0.422346 0.850922 -0.312338 255 255 255 255 0.447094 0.283132
-0.651711 -0.060012 0.87677 -0.422346 0.850922 -0.312338 255 255 255 255 0.447094 0.283132
-0.592047 -0.060012 0.796092 -0.422346 0.850922 -0.312338 255 255 255 255 0.447094 0.283132
-0.592047 -0.060012 0.796092 0 1 -0 255 255 255 255 0.447094 0.283132
-0.509584 -0.08539 -0.008204 -0.388881 0.89942 0.199539 255 255 255 255 0.447094 0.283132
-0.362141 -0.051588 0.126785 -0.388881 0.89942 0.199539 255 255 255 255 0.447094 0.283132
-0.434475 -0.050574 -0.018757 -0.388881 0.89942 0.199539 255 255 255 255 0.447094 0.283132
-0.435469 -0.08539 0.122032 -0.419255 0.875957 0.23859 255 255 255 255 0.447094 0.283132
-0.362141 -0.051588 0.126785 -0.419255 0.875957 0.23859 255 255 255 255 0.447094 0.283132
-0.509584 -0.08539 -0.008204 -0.419255 0.875957 0.23859 255 255 255 255 0.447094 0.283132
-0.414043 -0.08539 -0.092992 0.270226 0.886785 -0.374954 255 255 255 255 0.447094 0.283132
-0.298449 -0.051588 0.070259 0.270226 0.886785 -0.374954 255 255 255 255 0.447094 0.283132
-0.29216 -0.08539 -0.005152 0.270226 0.886785 -0.374954 255 255 255 255 0.447094 0.283132
-0.362141 -0.051588 0.126785 0.004291 0.999979 0.004834 255 255 255 255 0.447094 0.283132
-0.298449 -0.051588 0.070259 0.004291 0.999979 0.004834 255 255 255 255 0.447094 0.283132
-0.434475 -0.050574 -0.018757 0.004291 0.999979 0.004834 255 255 255 255 0.447094 0.283132
-0.434475 -0.050574 -0.018757 0.240436 0.902579 -0.357131 255 255 255 255 0.447094 0.283132
-0.298449 -0.051588 0.070259 0.240436 0.902579 -0.357131 255 255 255 255 0.447094 0.283132
-0.414043 -0.08539 -0.092992 0.240436 0.902579 -0.357131 255 255 255 255 0.447094 0.283132
-0.293413 -0.08539 0.14054 0.343431 0.855751 0.386969 255 255 255 255 0.447094 0.283132
-0.298449 -0.051588 0.070259 0.343431 0.855751 0.386969 255 255 255 255 0.447094 0.283132
-0.362141 -0.051588 0.126785 0.343431 0.855751 0.386969 255 255 255 255 0.447094 0.283132
-0.058701 -0.063109 -0.003312 0.558493 0.808356 0.186135 255 255 255 255 0.447094 0.283132
-0.122507 -0.013244 -0.02842 0.558493 0.808356 0.186135 255 255 255 255 0.447094 0.283132
-0.115961 -0.046723 0.097333 0.558493 0.808356 0.186135 255 255 255 255 0.447094 0.283132
-0.146023 -0.044563 -0.09584 0.026645 0.903017 -0.428778 255 255 255 255 0.447094 0.283132
-0.236958 0.014562 0.023028 0.026645 0.903017 -0.428778 255 255 255 255 0.447094 0.283132
-0.122507 -0.013244 -0.02842 0.026645 0.903017 -0.428778 255 255 255 255 0.447094 0.283132
-0.246943 -0.018905 -0.041457 -0.020858 0.888708 -0.458 255 255 255 255 0.447094 0.283132
-0.236958 0.014562 0.023028 -0.020858 0.888708 -0.458 255 255 255 255 0.447094 0.283132
-0.146023 -0.044563 -0.09584 -0.020858 0.888708 -0.458 255 255 255 255 0.447094 0.283132
-0.122507 -0.013244 -0.02842 0.581632 0.79309 0.180866 255 255 255 255 0.447094 0.283132
-0.178743 0.002198 0.084712 0.581632 0.79309 0.180866 255 255 255 255 0.447094 0.283132
-0.115961 -0.046723 0.097333 0.581632 0.79309 0.180866 255 255 255 255 0.447094 0.283132
-0.236958 0.014562 0.023028 0.227659 0.973541 -0.019719 255 255 255 255 0.447094 0.283132
-0.178743 0.002198 0.084712 0.227659 0.973541 -0.019719 255 255 255 255 0.447094 0.283132
-0.122507 -0.013244 -0.02842 0.227659 0.973541 -0.019719 255 255 255 255 0.447094 0.283132
-0.241512 -0.016942 0.083286 -0.272302 0.861001 0.429568 255 255 255 255 0.447094 0.283132
-0.178743 0.002198 0.084712 -0.272302 0.861001 0.429568 255 255 255 255 0.447094 0.283132
-0.236958 0.014562 0.023028 -0.272302 0.861001 0.429568 255 255 255 255 0.447094 0.283132
0.251252 -0.01005 0.368019 0.249009 0.92305 -0.293213 255 255 255 255 0.447094 0.283132
0.403131 -0.0091 0.499992 0.249009 0.92305 -0.293213 255 255 255 255 0.447094 0.283132
0.330104 -0.030985 0.369079 0.249009 0.92305 -0.293213 255 255 255 255 0.447094 0.283132
0.251252 -0.01005 0.368019 0.216412 0.942186 -0.255836 255 255 255 255 0.447094 0.283132
0.321795 0.013653 0.514984 0.216412 0.942186 -0.255836 255 255 255 255 0.447094 0.283132
0.403131 -0.0091 0.499992 0.216412 0.942186 -0.255836 255 255 255 255 0.447094 0.283132
0.321795 0.013653 0.514984 -0.355947 0.895114 0.268463 255 255 255 255 0.447094 0.283132
0.182393 -0.016649 0.431189 -0.355947 0.895114 0.268463 255 255 255 255 0.447094 0.283132
0.299842 -0.018999 0.594746 -0.355947 0.895114 0.268463 255 255 255 255 0.447094 0.283132
0.175168 -0.045834 0.51121 -0.381017 0.879144 0.286237 255 255 255 255 0.447094 0.283132
0.299842 -0.018999 0.594746 -0.381017 0.879144 0.286237 255 255 255 255 0.447094 0.283132
0.182393 -0.016649 0.431189 -0.381017 0.879144 0.286237 255 255 255 255 0.447094 0.283132
0.321795 0.013653 0.514984 -0.166369 0.98292 -0.078672 255 255 255 255 0.447094 0.283132
0.251252 -0.01005 0.368019 -0.166369 0.98292 -0.078672 255 255 255 255 0.447094 0.283132
0.182393 -0.016649 0.431189 -0.166369 0.98292 -0.078672 255 255 255 255 0.447094 0.283132
-0.148966 -0.011171 0.596704 0.316517 0.934674 0.161866 255 255 255 255 0.447094 0.283132
-0.171303 -0.018845 0.684695 0.316517 0.934674 0.161866 255 255 255 255 0.447094 0.283132
-0.064894 -0.048579 0.648315 0.316517 0.934674 0.161866 255 255 255 255 0.447094 0.283132
-0.064894 -0.048579 0.648315 0.35658 0.874801 0.327983 255 255 255 255 0.447094 0.283132
-0.171303 -0.018845 0.684695 0.35658 0.874801 0.327983 255 255 255 255 0.447094 0.283132
-0.115749 -0.055701 0.7226 0.35658 0.874801 0.327983 255 255 255 255 0.447094 0.283132
-0.148966 -0.011171 0.596704 -0.020077 0.996446 0.081807 255 255 255 255 0.447094 0.283132
-0.202208 -0.014792 0.627743 -0.020077 0.996446 0.081807 255 255 255 255 0.447094 0.283132
-0.171303 -0.018845 0.684695 -0.020077 0.996446 0.081807 255 255 255 255 0.447094 0.283132
-0.171303 -0.018845 0.684695 -0.431348 0.852678 0.294752 255 255 255 255 0.447094 0.283132
-0.202208 -0.014792 0.627743 -0.431348 0.852678 0.294752 255 255 255 255 0.447094 0.283132
-0.239561 -0.055615 0.691175 -0.431348 0.852678 0.294752 255 255 255 255 0.447094 0.283132
-0.202208 -0.014792 0.627743 -0.282577 0.879872 -0.382066 255 255 255 255 0.447094 0.283132
-0.148966 -0.011171 0.596704 -0.282577 0.879872 -0.382066 255 255 255 255 0.447094 0.283132
-0.207033 -0.044441 0.563032 -0.282577 0.879872 -0.382066 255 255 255 255 0.447094 0.283132
0.654351 -0.056978 -0.234119 0.429915 0.794182 -0.429475 255 255 255 255 0.447094 0.306142
0.730451 -0.047787 -0.140945 0.429915 0.794182 -0.429475 255 255 255 255 0.447094 0.306142
0.748439 -0.092338 -0.205322 0.429915 0.794182 -0.429475 255 255 255 255 0.447094 0.306142
0.620946 -0.010954 -0.096546 -0.323212 0.946318 -0.003997 255 255 255 255 0.447094 0.306142
0.621999 -0.010954 -0.181699 -0.323212 0.946318 -0.003997 255 255 255 255 0.447094 0.306142
0.563098 -0.030896 -0.140151 -0.323212 0.946318 -0.003997 255 255 255 255 0.447094 0.306142
0.730451 -0.047787 -0.140945 0.320247 0.947326 0.00396 255 255 255 255 0.447094 0.306142
0.621999 -0.010954 -0.181699 0.320247 0.947326 0.00396 255 255 255 255 0.447094 0.306142
0.620946 -0.010954 -0.096546 0.320247 0.947326 0.00396 255 255 255 255 0.447094 0.306142
0.654351 -0.056978 -0.234119 0.43106 0.793112 -0.430304 255 255 255 255 0.447094 0.306142
0.621999 -0.010954 -0.181699 0.43106 0.793112 -0.430304 255 255 255 255 0.447094 0.306142
0.730451 -0.047787 -0.140945 0.43106 0.793112 -0.430304 255 255 255 255 0.447094 0.306142
0.74686 -0.092338 -0.077593 0.448585 0.790945 0.416146 255 255 255 255 0.447094 0.306142
0.620946 -0.010954 -0.096546 0.448585 0.790945 0.416146 255 255 255 255 0.447094 0.306142
0.651982 -0.056978 -0.042526 0.448585 0.790945 0.416146 255 255 255 255 0.447094 0.306142
0.730451 -0.047787 -0.140945 0.440903 0.783938 0.437088 255 255 255 255 0.447094 0.306142
0.620946 -0.010954 -0.096546 0.440903 0.783938 0.437088 255 255 255 255 0.447094 0.306142
0.74686 -0.092338 -0.077593 0.440903 0.783938 0.437088 255 255 255 255 0.447094 0.306142
0.120638 0.044471 0.223478 -0.507976 0.823948 0.251137 255 255 255 255 0.447094 0.283132
0.055908 -0.002756 0.247494 -0.507976 0.823948 0.251137 255 255 255 255 0.447094 0.283132
0.187603 0.050282 0.339863 -0.507976 0.823948 0.251137 255 255 255 255 0.447094 0.283132
0.124166 0.004878 0.34977 -0.526204 0.798813 0.291559 255 255 255 255 0.447094 0.283132
0.187603 0.050282 0.339863 -0.526204 0.798813 0.291559 255 255 255 255 0.447094 0.283132
0.055908 -0.002756 0.247494 -0.526204 0.798813 0.291559 255 255 255 255 0.447094 0.283132
0.14006 0.015739 0.152071 0.0527 0.918944 -0.390852 255 255 255 255 0.447094 0.283132
0.243704 0.062611 0.276248 0.0527 0.918944 -0.390852 255 255 255 255 0.447094 0.283132
0.250395 0.032619 0.206635 0.0527 0.918944 -0.390852 255 255 255 255 0.447094 0.283132
0.187603 0.050282 0.339863 -0.164793 0.985272 0.045624 255 255 255 255 0.447094 0.283132
0.243704 0.062611 0.276248 -0.164793 0.985272 0.045624 255 255 255 255 0.447094 0.283132
0.120638 0.044471 0.223478 -0.164793 0.985272 0.045624 255 255 255 255 0.447094 0.283132
0.120638 0.044471 0.223478 0.020921 0.929471 -0.368301 255 255 255 255 0.447094 0.283132
0.243704 0.062611 0.276248 0.020921 0.929471 -0.368301 255 255 255 255 0.447094 0.283132
0.14006 0.015739 0.152071 0.020921 0.929471 -0.368301 255 255 255 255 0.447094 0.283132
0.251486 0.027425 0.337929 0.314274 0.841121 0.440168 255 255 255 255 0.447094 0.283132
0.243704 0.062611 0.276248 0.314274 0.841121 0.440168 255 255 255 255 0.447094 0.283132
0.187603 0.050282 0.339863 0.314274 0.841121 0.440168 255 255 255 255 0.447094 0.283132
0.054043 0.022318 0.51049 -0.089279 0.948244 0.304733 255 255 255 255 0.447094 0.306142
0.196476 0.064962 0.419523 -0.089279 0.948244 0.304733 255 255 255 255 0.447094 0.306142
0.058411 0.046509 0.436494 -0.089279 0.948244 0.304733 255 255 255 255 0.447094 0.306142
0.058411 0.046509 0.436494 -0.149759 0.976193 -0.156905 255 255 255 255 0.447094 0.306142
0.196476 0.064962 0.419523 -0.149759 0.976193 -0.156905 255 255 255 255 0.447094 0.306142
0.161697 0.047256 0.342559 -0.149759 0.976193 -0.156905 255 255 255 255 0.447094 0.306142
0.179459 0.038691 0.486702 -0.055346 0.934568 0.351452 255 255 255 255 0.447094 0.306142
0.196476 0.064962 0.419523 -0.055346 0.934568 0.351452 255 255 255 255 0.447094 0.306142
0.054043 0.022318 0.51049 -0.055346 0.934568 0.351452 255 255 255 255 0.447094 0.306142
0.001875 -0.004242 0.395046 -0.406198 0.786536 -0.46515 255 255 255 255 0.447094 0.306142
0.161697 0.047256 0.342559 -0.406198 0.786536 -0.46515 255 255 255 255 0.447094 0.306142
0.101208 -0.001148 0.313534 -0.406198 0.786536 -0.46515 255 255 255 255 0.447094 0.306142
0.058411 0.046509 0.436494 -0.402575 0.804747 -0.436251 255 255 255 255 0.447094 0.306142
0.161697 0.047256 0.342559 -0.402575 0.804747 -0.436251 255 255 255 255 0.447094 0.306142
0.001875 -0.004242 0.395046 -0.402575 0.804747 -0.436251 255 255 255 255 0.447094 0.306142
0.177535 0.041112 0.622844 -0.369904 0.90299 0.218585 255 255 255 255 0.447094 0.283132
0.224683 0.071316 0.577856 -0.369904 0.90299 0.218585 255 255 255 255 0.447094 0.283132
0.140672 0.060756 0.479311 -0.369904 0.90299 0.218585 255 255 255 255 0.447094 0.283132
0.27292 0.023924 0.614094 0.64815 0.751906 0.120578 255 255 255 255 0.447094 0.283132
0.243157 0.080879 0.418919 0.64815 0.751906 0.120578 255 255 255 255 0.447094 0.283132
0.224683 0.071316 0.577856 0.64815 0.751906 0.120578 255 255 255 255 0.447094 0.283132
0.283748 0.034973 0.466187 0.6895 0.716777 0.104022 255 255 255 255 0.447094 0.283132
0.243157 0.080879 0.418919 0.6895 0.716777 0.104022 255 255 255 255 0.447094 0.283132
0.27292 0.023924 0.614094 0.6895 0.716777 0.104022 255 255 255 255 0.447094 0.283132
0.224683 0.071316 0.577856 -0.389935 0.889801 0.237075 255 255 255 255 0.447094 0.283132
0.179568 0.092338 0.424751 -0.389935 0.889801 0.237075 255 255 255 255 0.447094 0.283132
0.140672 0.060756 0.479311 -0.389935 0.889801 0.237075 255 255 255 255 0.447094 0.283132
0.243157 0.080879 0.418919 0.183905 0.979657 0.08032 255 255 255 255 0.447094 0.283132
0.179568 0.092338 0.424751 0.183905 0.979657 0.08032 255 255 255 255 0.447094 0.283132
0.224683 0.071316 0.577856 0.183905 0.979657 0.08032 255 255 255 255 0.447094 0.283132
-0.058701 -0.063109 -0.003312 0.558493 0.808356 0.186135 255 255 255 255 0.447094 0.283132
-0.122507 -0.013244 -0.02842 0.558493 0.808356 0.186135 255 255 255 255 0.447094 0.283132
-0.115961 -0.046723 0.097333 0.558493 0.808356 0.186135 255 255 255 255 0.447094 0.283132
-0.146023 -0.044563 -0.09584 0.026645 0.903017 -0.428778 255 255 255 255 0.447094 0.283132
-0.236958 0.014562 0.023028 0.026645 0.903017 -0.428778 255 255 255 255 0.447094 0.283132
-0.122507 -0.013244 -0.02842 0.026645 0.903017 -0.428778 255 255 255 255 0.447094 0.283132
-0.246943 -0.018905 -0.041457 -0.020858 0.888708 -0.458 255 255 255 255 0.447094 0.283132
-0.236958 0.014562 0.023028 -0.020858 0.888708 -0.458 255 255 255 255 0.447094 0.283132
-0.146023 -0.044563 -0.09584 -0.020858 0.888708 -0.458 255 255 255 255 0.447094 0.283132
-0.122507 -0.013244 -0.02842 0.581632 0.79309 0.180866 255 255 255 255 0.447094 0.283132
-0.178743 0.002198 0.084712 0.581632 0.79309 0.180866 255 255 255 255 0.447094 0.283132
-0.115961 -0.046723 0.097333 0.581632 0.79309 0.180866 255 255 255 255 0.447094 0.283132
-0.236958 0.014562 0.023028 0.227659 0.973541 -0.019719 255 255 255 255 0.447094 0.283132
-0.178743 0.002198 0.084712 0.227659 0.973541 -0.019719 255 255 255 255 0.447094 0.283132
-0.122507 -0.013244 -0.02842 0.227659 0.973541 -0.019719 255 255 255 255 0.447094 0.283132
-0.241512 -0.016942 0.083286 -0.272302 0.861001 0.429568 255 255 255 255 0.447094 0.283132
-0.178743 0.002198 0.084712 -0.272302 0.861001 0.429568 255 255 255 255 0.447094 0.283132
-0.236958 0.014562 0.023028 -0.272302 0.861001 0.429568 255 255 255 255 0.447094 0.283132
-0.19738 -0.030047 -0.639487 -0.215042 0.962117 -0.167596 255 255 255 255 0.447094 0.306142
-0.171745 0.001917 -0.488884 -0.215042 0.962117 -0.167596 255 255 255 255 0.447094 0.306142
-0.131294 -0.009909 -0.608676 -0.215042 0.962117 -0.167596 255 255 255 255 0.447094 0.306142
-0.131294 -0.009909 -0.608676 0.233546 0.972195 -0.017113 255 255 255 255 0.447094 0.306142
-0.171745 0.001917 -0.488884 0.233546 0.972195 -0.017113 255 255 255 255 0.447094 0.306142
-0.087511 -0.018336 -0.489897 0.233546 0.972195 -0.017113 255 255 255 255 0.447094 0.306142
-0.226482 -0.020129 -0.527647 -0.27258 0.949544 -0.155134 255 255 255 255 0.447094 0.306142
-0.171745 0.001917 -0.488884 -0.27258 0.949544 -0.155134 255 255 255 255 0.447094 0.306142
-0.19738 -0.030047 -0.639487 -0.27258 0.949544 -0.155134 255 255 255 255 0.447094 0.306142
-0.071032 -0.060427 -0.641006 0.610014 0.778026 -0.150193 255 255 255 255 0.447094 0.306142
-0.087511 -0.018336 -0.489897 0.610014 0.778026 -0.150193 255 255 255 255 0.447094 0.306142
-0.036959 -0.065699 -0.529927 0.610014 0.778026 -0.150193 255 255 255 255 0.447094 0.306142
-0.131294 -0.009909 -0.608676 0.58304 0.796856 -0.15838 255 255 255 255 0.447094 0.306142
-0.087511 -0.018336 -0.489897 0.58304 0.796856 -0.15838 255 255 255 255 0.447094 0.306142
-0.071032 -0.060427 -0.641006 0.58304 0.796856 -0.15838 255 255 255 255 0.447094 0.306142
-0.969776 -0.059123 0.156092 0.066025 0.891233 0.448713 255 255 255 255 0.447094 0.283132
-0.926054 -0.036778 0.105277 0.066025 0.891233 0.448713 255 255 255 255 0.447094 0.283132
-1.07919 -0.033748 0.121792 0.066025 0.891233 0.448713 255 255 255 255 0.447094 0.283132
-0.926054 -0.036778 0.105277 0.061104 0.915039 0.39871 255 255 255 255 0.447094 0.283132
-1.04279 -0.008927 0.059249 0.061104 0.915039 0.39871 255 255 255 255 0.447094 0.283132
-1.07919 -0.033748 0.121792 0.061104 0.915039 0.39871 255 255 255 255 0.447094 0.283132
-1.04279 -0.008927 0.059249 0.100891 0.888916 -0.446821 255 255 255 255 0.447094 0.283132
-0.964607 -0.06538 -0.035407 0.100891 0.888916 -0.446821 255 255 255 255 0.447094 0.283132
-1.07574 -0.03792 -0.005872 0.100891 0.888916 -0.446821 255 255 255 255 0.447094 0.283132
-1.04279 -0.008927 0.059249 0.323746 0.905932 -0.272902 255 255 255 255 0.447094 0.283132
-0.926054 -0.036778 0.105277 0.323746 0.905932 -0.272902 255 255 255 255 0.447094 0.283132
-0.964607 -0.06538 -0.035407 0.323746 0.905932 -0.272902 255 255 255 255 0.447094 0.283132
-0.828939 -0.05391 0.189095 -0.069693 0.864799 0.497259 255 255 255 255 0.447094 0.306142
-0.794403 -0.015279 0.126751 -0.069693 0.864799 0.497259 255 255 255 255 0.447094 0.306142
-0.921833 -0.02277 0.121919 -0.069693 0.864799 0.497259 255 255 255 255 0.447094 0.306142
-0.728146 -0.061888 0.110782 0.57597 0.817462 0.003816 255 255 255 255 0.447094 0.306142
-0.8326 0.012192 0.007193 0.57597 0.817462 0.003816 255 255 255 255 0.447094 0.306142
-0.794403 -0.015279 0.126751 0.57597 0.817462 0.003816 255 255 255 255 0.447094 0.306142
-0.770638 -0.034737 0.004449 0.602301 0.797407 -0.037078 255 255 255 255 0.447094 0.306142
-0.8326 0.012192 0.007193 0.602301 0.797407 -0.037078 255 255 255 255 0.447094 0.306142
-0.728146 -0.061888 0.110782 0.602301 0.797407 -0.037078 255 255 255 255 0.447094 0.306142
-0.794403 -0.015279 0.126751 -0.069768 0.849592 0.522806 255 255 255 255 0.447094 0.306142
-0.899799 0.01751 0.059402 -0.069768 0.849592 0.522806 255 255 255 255 0.447094 0.306142
-0.921833 -0.02277 0.121919 -0.069768 0.849592 0.522806 255 255 255 255 0.447094 0.306142
-0.8326 0.012192 0.007193 0.199603 0.966987 0.158415 255 255 255 255 0.447094 0.306142
-0.899799 0.01751 0.059402 0.199603 0.966987 0.158415 255 255 255 255 0.447094 0.306142
-0.794403 -0.015279 0.126751 0.199603 0.966987 0.158415 255 255 255 255 0.447094 0.306142
-0.894176 -0.007413 -0.002352 -0.226033 0.89601 -0.382198 255 255 255 255 0.447094 0.306142
-0.899799 0.01751 0.059402 -0.226033 0.89601 -0.382198 255 255 255 255 0.447094 0.306142
-0.8326 0.012192 0.007193 -0.226033 0.89601 -0.382198 255 255 255 255 0.447094 0.306142
-0.594624 -0.051588 0.758572 -0.365274 0.874607 0.318807 255 255 255 255 0.447094 0.283132
-0.748451 -0.08539 0.675056 -0.365274 0.874607 0.318807 255 255 255 255 0.447094 0.283132
-0.661749 -0.08539 0.774395 -0.365274 0.874607 0.318807 255 255 255 255 0.447094 0.283132
-0.594624 -0.051588 0.758572 -0.345552 0.89778 0.273103 255 255 255 255 0.447094 0.283132
-0.682013 -0.050574 0.644667 -0.345552 0.89778 0.273103 255 255 255 255 0.447094 0.283132
-0.748451 -0.08539 0.675056 -0.345552 0.89778 0.273103 255 255 255 255 0.447094 0.283132
-0.682013 -0.050574 0.644667 0.140137 0.900975 -0.410616 255 255 255 255 0.447094 0.283132
-0.545435 -0.051588 0.689054 0.140137 0.900975 -0.410616 255 255 255 255 0.447094 0.283132
-0.674669 -0.08539 0.57078 0.140137 0.900975 -0.410616 255 255 255 255 0.447094 0.283132
-0.551075 -0.08539 0.617983 0.165852 0.885388 -0.43426 255 255 255 255 0.447094 0.283132
-0.674669 -0.08539 0.57078 0.165852 0.885388 -0.43426 255 255 255 255 0.447094 0.283132
-0.545435 -0.051588 0.689054 0.165852 0.885388 -0.43426 255 255 255 255 0.447094 0.283132
-0.682013 -0.050574 0.644667 0.006036 0.999973 0.004271 255 255 255 255 0.447094 0.283132
-0.594624 -0.051588 0.758572 0.006036 0.999973 0.004271 255 255 255 255 0.447094 0.283132
-0.545435 -0.051588 0.689054 0.006036 0.999973 0.004271 255 255 255 255 0.447094 0.283132
-0.530312 -0.08539 0.752292 0.464357 0.822446 0.328566 255 255 255 255 0.447094 0.283132
-0.545435 -0.051588 0.689054 0.464357 0.822446 0.328566 255 255 255 255 0.447094 0.283132
-0.594624 -0.051588 0.758572 0.464357 0.822446 0.328566 255 255 255 255 0.447094 0.283132
-0.474313 -0.051588 0.705798 0.368284 0.87461 -0.315317 255 255 255 255 0.447094 0.306142
-0.321286 -0.08539 0.790772 0.368284 0.87461 -0.315317 255 255 255 255 0.447094 0.306142
-0.407041 -0.08539 0.690612 0.368284 0.87461 -0.315317 255 255 255 255 0.447094 0.306142
-0.474313 -0.051588 0.705798 0.348133 0.897777 -0.269813 255 255 255 255 0.447094 0.306142
-0.388009 -0.050574 0.820528 0.348133 0.897777 -0.269813 255 255 255 255 0.447094 0.306142
-0.321286 -0.08539 0.790772 0.348133 0.897777 -0.269813 255 255 255 255 0.447094 0.306142
-0.388009 -0.050574 0.820528 -0.144039 0.900974 0.409267 255 255 255 255 0.447094 0.306142
-0.524159 -0.051588 0.774843 -0.144039 0.900974 0.409267 255 255 255 255 0.447094 0.306142
-0.396056 -0.08539 0.894341 -0.144039 0.900974 0.409267 255 255 255 255 0.447094 0.306142
-0.519195 -0.08539 0.845965 -0.169973 0.885389 0.43266 255 255 255 255 0.447094 0.306142
-0.396056 -0.08539 0.894341 -0.169973 0.885389 0.43266 255 255 255 255 0.447094 0.306142
-0.524159 -0.051588 0.774843 -0.169973 0.885389 0.43266 255 255 255 255 0.447094 0.306142
-0.388009 -0.050574 0.820528 -0.005995 0.999973 -0.004328 255 255 255 255 0.447094 0.306142
-0.474313 -0.051588 0.705798 -0.005995 0.999973 -0.004328 255 255 255 255 0.447094 0.306142
-0.524159 -0.051588 0.774843 -0.005995 0.999973 -0.004328 255 255 255 255 0.447094 0.306142
-0.53868 -0.08539 0.711464 -0.461213 0.822445 -0.332966 255 255 255 255 0.447094 0.306142
-0.524159 -0.051588 0.774843 -0.461213 0.822445 -0.332966 255 255 255 255 0.447094 0.306142
-0.474313 -0.051588 0.705798 -0.461213 0.822445 -0.332966 255 255 255 255 0.447094 0.306142
-0.892068 -0.051588 -0.710848 -0.467229 0.874615 0.129405 255 255 255 255 0.447094 0.283132
-0.994628 -0.08539 -0.852691 -0.467229 0.874615 0.129405 255 255 255 255 0.447094 0.283132
-0.959434 -0.08539 -0.72562 -0.467229 0.874615 0.129405 255 255 255 255 0.447094 0.283132
-0.892068 -0.051588 -0.710848 -0.429689 0.89778 0.096741 255 255 255 255 0.447094 0.283132
-0.921582 -0.050574 -0.851348 -0.429689 0.89778 0.096741 255 255 255 255 0.447094 0.283132
-0.994628 -0.08539 -0.852691 -0.429689 0.89778 0.096741 255 255 255 255 0.447094 0.283132
-0.921582 -0.050574 -0.851348 0.303987 0.900972 -0.309581 255 255 255 255 0.447094 0.283132
-0.817649 -0.051588 -0.752244 0.303987 0.900972 -0.309581 255 255 255 255 0.447094 0.283132
-0.882997 -0.08539 -0.914785 0.303987 0.900972 -0.309581 255 255 255 255 0.447094 0.283132
-0.791987 -0.08539 -0.818762 0.33738 0.885395 -0.319767 255 255 255 255 0.447094 0.283132
-0.882997 -0.08539 -0.914785 0.33738 0.885395 -0.319767 255 255 255 255 0.447094 0.283132
-0.817649 -0.051588 -0.752244 0.33738 0.885395 -0.319767 255 255 255 255 0.447094 0.283132
-0.921582 -0.050574 -0.851348 0.003594 0.999973 0.006462 255 255 255 255 0.447094 0.283132
-0.892068 -0.051588 -0.710848 0.003594 0.999973 0.006462 255 255 255 255 0.447094 0.283132
-0.817649 -0.051588 -0.752244 0.003594 0.999973 0.006462 255 255 255 255 0.447094 0.283132
-0.831368 -0.08539 -0.688688 0.276518 0.82245 0.497105 255 255 255 255 0.447094 0.283132
-0.817649 -0.051588 -0.752244 0.276518 0.82245 0.497105 255 255 255 255 0.447094 0.283132
-0.892068 -0.051588 -0.710848 0.276518 0.82245 0.497105 255 255 255 255 0.447094 0.283132
0.915522 -0.051588 0.337238 0.319026 0.874612 -0.36507 255 255 255 255 0.447094 0.283132
1.07919 -0.08539 0.399284 0.319026 0.874612 -0.36507 255 255 255 255 0.447094 0.283132
0.979906 -0.08539 0.312521 0.319026 0.874612 -0.36507 255 255 255 255 0.447094 0.283132
0.915522 -0.051588 0.337238 0.305642 0.897777 -0.317143 255 255 255 255 0.447094 0.283132
1.01745 -0.050574 0.43834 0.305642 0.897777 -0.317143 255 255 255 255 0.447094 0.283132
1.07919 -0.08539 0.399284 0.305642 0.897777 -0.317143 255 255 255 255 0.447094 0.283132
1.01745 -0.050574 0.43834 -0.083584 0.90097 0.425755 255 255 255 255 0.447094 0.283132
0.876141 -0.051588 0.412744 -0.083584 0.90097 0.425755 255 255 255 255 0.447094 0.283132
1.02012 -0.08539 0.512541 -0.083584 0.90097 0.425755 255 255 255 255 0.447094 0.283132
0.891298 -0.08539 0.482409 -0.105872 0.88539 0.452632 255 255 255 255 0.447094 0.283132
1.02012 -0.08539 0.512541 -0.105872 0.88539 0.452632 255 255 255 255 0.447094 0.283132
0.876141 -0.051588 0.412744 -0.105872 0.88539 0.452632 255 255 255 255 0.447094 0.283132
1.01745 -0.050574 0.43834 -0.006556 0.999973 -0.00342 255 255 255 255 0.447094 0.283132
0.915522 -0.051588 0.337238 -0.006556 0.999973 -0.00342 255 255 255 255 0.447094 0.283132
0.876141 -0.051588 0.412744 -0.006556 0.999973 -0.00342 255 255 255 255 0.447094 0.283132
0.85264 -0.08539 0.352119 -0.504357 0.822452 -0.263053 255 255 255 255 0.447094 0.283132
0.876141 -0.051588 0.412744 -0.504357 0.822452 -0.263053 255 255 255 255 0.447094 0.283132
0.915522 -0.051588 0.337238 -0.504357 0.822452 -0.263053 255 255 255 255 0.447094 0.283132
3 0 1 2 
3 3 4 5 
3 6 7 8 
3 4 3 9 
3 10 11 12 
3 13 14 15 
3 16 17 18 
3 13 19 14 
3 20 21 22 
3 23 24 25 
3 26 27 28 
3 29 30 31 
3 32 33 34 
3 35 36 37 
3 38 39 40 
3 41 42 43 
3 44 45 46 
3 47 48 49 
3 50 51 52 
3 53 54 55 
3 56 57 58 
3 59 60 61 
3 62 63 64 
3 60 59 65 
3 66 67 68 
3 69 70 71 
3 72 73 74 
3 75 76 77 
3 78 79 80 
3 81 82 83 
3 84 85 86 
3 87 88 89 
3 90 91 92 
3 93 94 95 
3 96 97 98 
3 99 100 101 
3 102 103 104 
3 105 106 107 
3 108 109 110 
3 111 112 113 
3 114 115 116 
3 117 118 119 
3 120 121 122 
3 123 124 125 
3 126 127 128 
3 129 130 131 
3 132 133 134 
3 135 136 137 
3 138 139 140 
3 141 142 143 
3 144 145 146 
3 147 148 149 
3 150 151 152 
3 153 154 155 
3 156 157 158 
3 159 160 161 
3 162 163 164 
3 165 166 167 
3 168 169 170 
3 171 172 173 
3 174 175 176 
3 177 178 179 
3 180 181 182 
3 183 184 185 
3 186 187 188 
3 189 190 191 
3 192 193 194 
3 195 196 197 
3 198 199 200 
3 201 202 203 
3 204 205 206 
3 207 208 209 
3 210 211 212 
3 213 214 215 
3 216 217 218 
3 219 220 221 
3 222 223 224 
3 225 226 227 
3 228 229 230 
3 231 232 233 
3 234 235 236 
3 237 238 239 
3 240 241 242 
3 243 244 245 
3 246 247 248 
3 249 250 251 
3 252 253 254 
3 255 256 257 
3 258 259 260 
3 261 262 263 
3 264 265 266 
3 267 268 269 
3 270 271 272 
3 273 274 275 
3 276 277 278 
3 279 280 281 
3 282 283 284 
3 285 286 287 
3 288 289 290 
3 291 292 293 
3 294 295 296 
3 297 298 299 
3 300 301 302 
3 303 304 305 
3 306 307 308 
3 309 310 311 
3 312 313 314 
3 315 316 317 
3 318 319 320 
3 321 322 323 
3 324 325 326 
3 327 328 329 
3 330 331 332 
