ply
format ascii 1.0
comment VCGLIB generated
comment TextureFile Texture_01_A.png
element vertex 414
property float x
property float y
property float z
property float nx
property float ny
property float nz
property uchar red
property uchar green
property uchar blue
property uchar alpha
property float texture_u
property float texture_v
element face 138
property list uchar int vertex_indices
end_header
0.846138 0.077657 -0.572693 0.233432 0.871398 -0.43148 255 255 255 255 0.483724 0.250343
0.810944 -0 -0.748566 0.233432 0.871398 -0.43148 255 255 255 255 0.483724 0.250343
0.537613 -0 -0.896439 0.233432 0.871398 -0.43148 255 255 255 255 0.483724 0.250343
0.537613 -0 -0.896439 0.027564 0.950803 -0.308569 255 255 255 255 0.483724 0.250343
0.229641 -0 -0.92395 0.027564 0.950803 -0.308569 255 255 255 255 0.483724 0.250343
0.162086 0.055007 -0.76049 0.027564 0.950803 -0.308569 255 255 255 255 0.483724 0.250343
0.162086 0.055007 -0.76049 0.089956 0.954579 -0.284055 255 255 255 255 0.483724 0.250343
0.229641 -0 -0.92395 0.089956 0.954579 -0.284055 255 255 255 255 0.483724 0.250343
-0.528641 0.042373 -1.02169 0.089956 0.954579 -0.284055 255 255 255 255 0.483724 0.250343
-0.528641 0.042373 -1.02169 0.098783 0.925735 -0.365042 255 255 255 255 0.483724 0.250343
0.229641 -0 -0.92395 0.098783 0.925735 -0.365042 255 255 255 255 0.483724 0.250343
-0.600998 -0 -1.14873 0.098783 0.925735 -0.365042 255 255 255 255 0.483724 0.250343
-0.528641 0.042373 -1.02169 -0.11695 0.960197 -0.253661 255 255 255 255 0.483724 0.250343
-0.600998 -0 -1.14873 -0.11695 0.960197 -0.253661 255 255 255 255 0.483724 0.250343
-0.79744 0.061422 -0.825653 -0.11695 0.960197 -0.253661 255 255 255 255 0.483724 0.250343
-0.79744 0.061422 -0.825653 -0.035784 0.977557 -0.207609 255 255 255 255 0.483724 0.250343
-0.600998 -0 -1.14873 -0.035784 0.977557 -0.207609 255 255 255 255 0.483724 0.250343
-0.916504 -0 -1.09434 -0.035784 0.977557 -0.207609 255 255 255 255 0.483724 0.250343
-0.79744 0.061422 -0.825653 0.497334 0.771524 -0.396749 255 255 255 255 0.483724 0.250343
-0.916504 -0 -1.09434 0.497334 0.771524 -0.396749 255 255 255 255 0.483724 0.250343
-0.958565 0.113925 -0.925529 0.497334 0.771524 -0.396749 255 255 255 255 0.483724 0.250343
-0.958565 0.113925 -0.925529 -0.008582 0.827884 -0.560834 255 255 255 255 0.483724 0.250343
-0.916504 -0 -1.09434 -0.008582 0.827884 -0.560834 255 255 255 255 0.483724 0.250343
-1.00179 -0 -1.09304 -0.008582 0.827884 -0.560834 255 255 255 255 0.483724 0.250343
-1.00179 -0 -1.09304 -0.345915 0.814938 -0.464993 255 255 255 255 0.483724 0.250343
-1.33353 -0 -0.846252 -0.345915 0.814938 -0.464993 255 255 255 255 0.483724 0.250343
-0.958565 0.113925 -0.925529 -0.345915 0.814938 -0.464993 255 255 255 255 0.483724 0.250343
-0.958565 0.113925 -0.925529 -0.328909 0.912011 -0.245062 255 255 255 255 0.483724 0.250343
-1.33353 -0 -0.846252 -0.328909 0.912011 -0.245062 255 255 255 255 0.483724 0.250343
-1.16718 0.128448 -0.591484 -0.328909 0.912011 -0.245062 255 255 255 255 0.483724 0.250343
0.965843 0 0.748871 0.212756 0.913887 0.345754 255 255 255 255 0.483724 0.250343
0.674904 0.109402 0.638729 0.212756 0.913887 0.345754 255 255 255 255 0.483724 0.250343
0.563072 0 0.996712 0.212756 0.913887 0.345754 255 255 255 255 0.483724 0.250343
0.563072 0 0.996712 0.210068 0.914728 0.345171 255 255 255 255 0.483724 0.250343
0.674904 0.109402 0.638729 0.210068 0.914728 0.345171 255 255 255 255 0.483724 0.250343
0.432919 0.079782 0.864494 0.210068 0.914728 0.345171 255 255 255 255 0.483724 0.250343
0.563072 0 0.996712 0.162079 0.907321 0.387941 255 255 255 255 0.483724 0.250343
0.432919 0.079782 0.864494 0.162079 0.907321 0.387941 255 255 255 255 0.483724 0.250343
-0.032426 0 1.24551 0.162079 0.907321 0.387941 255 255 255 255 0.483724 0.250343
-0.032426 0 1.24551 0.12113 0.931496 0.342991 255 255 255 255 0.483724 0.250343
0.432919 0.079782 0.864494 0.12113 0.931496 0.342991 255 255 255 255 0.483724 0.250343
-0.066171 0.069102 1.06976 0.12113 0.931496 0.342991 255 255 255 255 0.483724 0.250343
-0.032426 0 1.24551 -0.331995 0.854417 0.399688 255 255 255 255 0.483724 0.250343
-0.066171 0.069102 1.06976 -0.331995 0.854417 0.399688 255 255 255 255 0.483724 0.250343
-0.281771 0 1.03839 -0.331995 0.854417 0.399688 255 255 255 255 0.483724 0.250343
-0.281771 0 1.03839 -0.331124 0.826379 0.455472 255 255 255 255 0.483724 0.250343
-0.066171 0.069102 1.06976 -0.331124 0.826379 0.455472 255 255 255 255 0.483724 0.250343
-0.318443 0.050232 0.920593 -0.331124 0.826379 0.455472 255 255 255 255 0.483724 0.250343
-0.281771 0 1.03839 0.012626 0.921197 0.388891 255 255 255 255 0.483724 0.250343
-0.318443 0.050232 0.920593 0.012626 0.921197 0.388891 255 255 255 255 0.483724 0.250343
-0.752472 0 1.05367 0.012626 0.921197 0.388891 255 255 255 255 0.483724 0.250343
-0.752472 0 1.05367 -0.012712 0.948489 0.316555 255 255 255 255 0.483724 0.250343
-0.318443 0.050232 0.920593 -0.012712 0.948489 0.316555 255 255 255 255 0.483724 0.250343
-0.764755 0.03695 0.942467 -0.012712 0.948489 0.316555 255 255 255 255 0.483724 0.250343
-1.02359 0.035761 0.768852 -0.238622 0.906023 0.349545 255 255 255 255 0.483724 0.250343
-1.10246 0 0.807701 -0.238622 0.906023 0.349545 255 255 255 255 0.483724 0.250343
-0.764755 0.03695 0.942467 -0.238622 0.906023 0.349545 255 255 255 255 0.483724 0.250343
-0.764755 0.03695 0.942467 -0.231703 0.915216 0.329687 255 255 255 255 0.483724 0.250343
-1.10246 0 0.807701 -0.231703 0.915216 0.329687 255 255 255 255 0.483724 0.250343
-0.752472 0 1.05367 -0.231703 0.915216 0.329687 255 255 255 255 0.483724 0.250343
-1.2215 0.035512 -0.184584 -0.32098 0.944757 0.06638 255 255 255 255 0.483724 0.250343
-1.22678 0 0.295317 -0.32098 0.944757 0.06638 255 255 255 255 0.483724 0.250343
-1.02359 0.035761 0.768852 -0.32098 0.944757 0.06638 255 255 255 255 0.483724 0.250343
-1.02359 0.035761 0.768852 -0.373836 0.923049 0.090699 255 255 255 255 0.483724 0.250343
-1.22678 0 0.295317 -0.373836 0.923049 0.090699 255 255 255 255 0.483724 0.250343
-1.10246 0 0.807701 -0.373836 0.923049 0.090699 255 255 255 255 0.483724 0.250343
-1.2215 0.035512 -0.184584 -0.20285 0.976701 0.070043 255 255 255 255 0.483724 0.250343
-1.49104 -0 -0.47002 -0.20285 0.976701 0.070043 255 255 255 255 0.483724 0.250343
-1.22678 0 0.295317 -0.20285 0.976701 0.070043 255 255 255 255 0.483724 0.250343
-1.37436 0.056221 -0.42046 -0.531267 0.741712 0.409412 255 255 255 255 0.483724 0.250343
-1.49104 -0 -0.47002 -0.531267 0.741712 0.409412 255 255 255 255 0.483724 0.250343
-1.2215 0.035512 -0.184584 -0.531267 0.741712 0.409412 255 255 255 255 0.483724 0.250343
-1.33353 -0 -0.846252 -0.419121 0.890812 -0.175473 255 255 255 255 0.483724 0.250343
-1.49104 -0 -0.47002 -0.419121 0.890812 -0.175473 255 255 255 255 0.483724 0.250343
-1.16718 0.128448 -0.591484 -0.419121 0.890812 -0.175473 255 255 255 255 0.483724 0.250343
-1.16718 0.128448 -0.591484 -0.398212 0.912132 -0.097176 255 255 255 255 0.483724 0.250343
-1.49104 -0 -0.47002 -0.398212 0.912132 -0.097176 255 255 255 255 0.483724 0.250343
-1.37436 0.056221 -0.42046 -0.398212 0.912132 -0.097176 255 255 255 255 0.483724 0.250343
0.965843 0 0.748871 0.369895 0.92739 -0.055915 255 255 255 255 0.483724 0.250343
0.924767 0 0.477139 0.369895 0.92739 -0.055915 255 255 255 255 0.483724 0.250343
0.674904 0.109402 0.638729 0.369895 0.92739 -0.055915 255 255 255 255 0.483724 0.250343
0.674904 0.109402 0.638729 0.477733 0.865075 0.153023 255 255 255 255 0.483724 0.250343
0.924767 0 0.477139 0.477733 0.865075 0.153023 255 255 255 255 0.483724 0.250343
0.751434 0.111604 0.387356 0.477733 0.865075 0.153023 255 255 255 255 0.483724 0.250343
0.751434 0.111604 0.387356 0.448665 0.868001 0.212777 255 255 255 255 0.483724 0.250343
0.924767 0 0.477139 0.448665 0.868001 0.212777 255 255 255 255 0.483724 0.250343
1.02786 0.069722 -0.024673 0.448665 0.868001 0.212777 255 255 255 255 0.483724 0.250343
1.02786 0.069722 -0.024673 0.448904 0.86787 0.212808 255 255 255 255 0.483724 0.250343
0.924767 0 0.477139 0.448904 0.86787 0.212808 255 255 255 255 0.483724 0.250343
1.15424 -0 -0.006909 0.448904 0.86787 0.212808 255 255 255 255 0.483724 0.250343
1.02786 0.069722 -0.024673 0.482276 0.875989 0.007268 255 255 255 255 0.483724 0.250343
1.15424 -0 -0.006909 0.482276 0.875989 0.007268 255 255 255 255 0.483724 0.250343
1.01614 0.078601 -0.316673 0.482276 0.875989 0.007268 255 255 255 255 0.483724 0.250343
1.01614 0.078601 -0.316673 0.684684 0.718393 -0.122959 255 255 255 255 0.483724 0.250343
1.15424 -0 -0.006909 0.684684 0.718393 -0.122959 255 255 255 255 0.483724 0.250343
1.08691 -0 -0.381828 0.684684 0.718393 -0.122959 255 255 255 255 0.483724 0.250343
1.01614 0.078601 -0.316673 0.529571 0.770649 -0.354479 255 255 255 255 0.483724 0.250343
1.08691 -0 -0.381828 0.529571 0.770649 -0.354479 255 255 255 255 0.483724 0.250343
0.846138 0.077657 -0.572693 0.529571 0.770649 -0.354479 255 255 255 255 0.483724 0.250343
0.846138 0.077657 -0.572693 0.56513 0.70696 -0.425248 255 255 255 255 0.483724 0.250343
1.08691 -0 -0.381828 0.56513 0.70696 -0.425248 255 255 255 255 0.483724 0.250343
0.810944 -0 -0.748566 0.56513 0.70696 -0.425248 255 255 255 255 0.483724 0.250343
0.846138 0.077657 -0.572693 0.300261 0.8223 -0.48339 255 255 255 255 0.483724 0.250343
0.537613 -0 -0.896439 0.300261 0.8223 -0.48339 255 255 255 255 0.483724 0.250343
0.511616 0.155998 -0.647217 0.300261 0.8223 -0.48339 255 255 255 255 0.483724 0.250343
0.511616 0.155998 -0.647217 0.091835 0.848338 -0.521429 255 255 255 255 0.483724 0.250343
0.537613 -0 -0.896439 0.091835 0.848338 -0.521429 255 255 255 255 0.483724 0.250343
0.388268 0.124581 -0.720055 0.091835 0.848338 -0.521429 255 255 255 255 0.483724 0.250343
0.537613 -0 -0.896439 -0.119747 0.760324 -0.638411 255 255 255 255 0.483724 0.250343
0.162086 0.055007 -0.76049 -0.119747 0.760324 -0.638411 255 255 255 255 0.483724 0.250343
0.388268 0.124581 -0.720055 -0.119747 0.760324 -0.638411 255 255 255 255 0.483724 0.250343
0.388268 0.124581 -0.720055 -0.253844 0.945028 -0.206119 255 255 255 255 0.483724 0.250343
0.162086 0.055007 -0.76049 -0.253844 0.945028 -0.206119 255 255 255 255 0.483724 0.250343
0.189268 0.113926 -0.52383 -0.253844 0.945028 -0.206119 255 255 255 255 0.483724 0.250343
-0.528641 0.042373 -1.02169 0.067 0.972237 -0.224203 255 255 255 255 0.483724 0.250343
-0.166161 0.10314 -0.649857 0.067 0.972237 -0.224203 255 255 255 255 0.483724 0.250343
0.162086 0.055007 -0.76049 0.067 0.972237 -0.224203 255 255 255 255 0.483724 0.250343
0.162086 0.055007 -0.76049 0.058404 0.96713 -0.247485 255 255 255 255 0.483724 0.250343
-0.166161 0.10314 -0.649857 0.058404 0.96713 -0.247485 255 255 255 255 0.483724 0.250343
0.189268 0.113926 -0.52383 0.058404 0.96713 -0.247485 255 255 255 255 0.483724 0.250343
-0.79744 0.061422 -0.825653 -0.102477 0.966712 -0.234448 255 255 255 255 0.483724 0.250343
-0.524761 0.134134 -0.645023 -0.102477 0.966712 -0.234448 255 255 255 255 0.483724 0.250343
-0.528641 0.042373 -1.02169 -0.102477 0.966712 -0.234448 255 255 255 255 0.483724 0.250343
-0.528641 0.042373 -1.02169 0.080495 0.968241 -0.236705 255 255 255 255 0.483724 0.250343
-0.524761 0.134134 -0.645023 0.080495 0.968241 -0.236705 255 255 255 255 0.483724 0.250343
-0.166161 0.10314 -0.649857 0.080495 0.968241 -0.236705 255 255 255 255 0.483724 0.250343
-0.958565 0.113925 -0.925529 0.532346 0.68342 -0.499546 255 255 255 255 0.483724 0.250343
-0.861717 0.164101 -0.753677 0.532346 0.68342 -0.499546 255 255 255 255 0.483724 0.250343
-0.79744 0.061422 -0.825653 0.532346 0.68342 -0.499546 255 255 255 255 0.483724 0.250343
-0.79744 0.061422 -0.825653 0.282533 0.662896 -0.693358 255 255 255 255 0.483724 0.250343
-0.861717 0.164101 -0.753677 0.282533 0.662896 -0.693358 255 255 255 255 0.483724 0.250343
-0.524761 0.134134 -0.645023 0.282533 0.662896 -0.693358 255 255 255 255 0.483724 0.250343
-0.958565 0.113925 -0.925529 -0.201819 0.964908 -0.167991 255 255 255 255 0.483724 0.250343
-1.16718 0.128448 -0.591484 -0.201819 0.964908 -0.167991 255 255 255 255 0.483724 0.250343
-0.861717 0.164101 -0.753677 -0.201819 0.964908 -0.167991 255 255 255 255 0.483724 0.250343
-0.861717 0.164101 -0.753677 -0.469067 0.369318 -0.802235 255 255 255 255 0.483724 0.250343
-1.16718 0.128448 -0.591484 -0.469067 0.369318 -0.802235 255 255 255 255 0.483724 0.250343
-1.11432 0.179731 -0.598785 -0.469067 0.369318 -0.802235 255 255 255 255 0.483724 0.250343
0.466225 0.154967 0.500805 0.075135 0.975139 0.20847 255 255 255 255 0.483724 0.250343
0.432919 0.079782 0.864494 0.075135 0.975139 0.20847 255 255 255 255 0.483724 0.250343
0.674904 0.109402 0.638729 0.075135 0.975139 0.20847 255 255 255 255 0.483724 0.250343
0.466225 0.154967 0.500805 0.094561 0.973153 0.209838 255 255 255 255 0.483724 0.250343
-0.063962 0.108352 0.95591 0.094561 0.973153 0.209838 255 255 255 255 0.483724 0.250343
0.432919 0.079782 0.864494 0.094561 0.973153 0.209838 255 255 255 255 0.483724 0.250343
-0.063962 0.108352 0.95591 0.113904 0.938556 0.32579 255 255 255 255 0.483724 0.250343
-0.066171 0.069102 1.06976 0.113904 0.938556 0.32579 255 255 255 255 0.483724 0.250343
0.432919 0.079782 0.864494 0.113904 0.938556 0.32579 255 255 255 255 0.483724 0.250343
-0.221474 0.09712 0.844139 -0.248931 0.933811 0.256964 255 255 255 255 0.483724 0.250343
-0.318443 0.050232 0.920593 -0.248931 0.933811 0.256964 255 255 255 255 0.483724 0.250343
-0.063962 0.108352 0.95591 -0.248931 0.933811 0.256964 255 255 255 255 0.483724 0.250343
-0.063962 0.108352 0.95591 -0.252426 0.916275 0.311001 255 255 255 255 0.483724 0.250343
-0.318443 0.050232 0.920593 -0.252426 0.916275 0.311001 255 255 255 255 0.483724 0.250343
-0.066171 0.069102 1.06976 -0.252426 0.916275 0.311001 255 255 255 255 0.483724 0.250343
-0.221474 0.09712 0.844139 -0.007765 0.85679 0.515607 255 255 255 255 0.483724 0.250343
-0.620686 0.080123 0.866371 -0.007765 0.85679 0.515607 255 255 255 255 0.483724 0.250343
-0.318443 0.050232 0.920593 -0.007765 0.85679 0.515607 255 255 255 255 0.483724 0.250343
-0.318443 0.050232 0.920593 -0.001876 0.871286 0.490772 255 255 255 255 0.483724 0.250343
-0.620686 0.080123 0.866371 -0.001876 0.871286 0.490772 255 255 255 255 0.483724 0.250343
-0.764755 0.03695 0.942467 -0.001876 0.871286 0.490772 255 255 255 255 0.483724 0.250343
-1.02359 0.035761 0.768852 -0.18064 0.947785 0.262817 255 255 255 255 0.483724 0.250343
-0.764755 0.03695 0.942467 -0.18064 0.947785 0.262817 255 255 255 255 0.483724 0.250343
-0.905281 0.079182 0.693581 -0.18064 0.947785 0.262817 255 255 255 255 0.483724 0.250343
-0.905281 0.079182 0.693581 -0.154663 0.955935 0.249533 255 255 255 255 0.483724 0.250343
-0.764755 0.03695 0.942467 -0.154663 0.955935 0.249533 255 255 255 255 0.483724 0.250343
-0.620686 0.080123 0.866371 -0.154663 0.955935 0.249533 255 255 255 255 0.483724 0.250343
-1.2215 0.035512 -0.184584 -0.307897 0.949287 0.063663 255 255 255 255 0.483724 0.250343
-1.02359 0.035761 0.768852 -0.307897 0.949287 0.063663 255 255 255 255 0.483724 0.250343
-0.905281 0.079182 0.693581 -0.307897 0.949287 0.063663 255 255 255 255 0.483724 0.250343
-1.2215 0.035512 -0.184584 -0.662344 0.721277 0.202633 255 255 255 255 0.483724 0.250343
-0.905281 0.079182 0.693581 -0.662344 0.721277 0.202633 255 255 255 255 0.483724 0.250343
-1.18542 0.121406 -0.372391 -0.662344 0.721277 0.202633 255 255 255 255 0.483724 0.250343
-1.37436 0.056221 -0.42046 -0.381048 0.866299 0.323 255 255 255 255 0.483724 0.250343
-1.2215 0.035512 -0.184584 -0.381048 0.866299 0.323 255 255 255 255 0.483724 0.250343
-1.18542 0.121406 -0.372391 -0.381048 0.866299 0.323 255 255 255 255 0.483724 0.250343
-1.37436 0.056221 -0.42046 -0.326856 0.945069 0.003173 255 255 255 255 0.483724 0.250343
-1.18542 0.121406 -0.372391 -0.326856 0.945069 0.003173 255 255 255 255 0.483724 0.250343
-1.16718 0.128448 -0.591484 -0.326856 0.945069 0.003173 255 255 255 255 0.483724 0.250343
-1.16718 0.128448 -0.591484 -0.698358 0.714885 -0.035143 255 255 255 255 0.483724 0.250343
-1.18542 0.121406 -0.372391 -0.698358 0.714885 -0.035143 255 255 255 255 0.483724 0.250343
-1.11432 0.179731 -0.598785 -0.698358 0.714885 -0.035143 255 255 255 255 0.483724 0.250343
0.674904 0.109402 0.638729 0.173916 0.982835 0.061558 255 255 255 255 0.483724 0.250343
0.751434 0.111604 0.387356 0.173916 0.982835 0.061558 255 255 255 255 0.483724 0.250343
0.466225 0.154967 0.500805 0.173916 0.982835 0.061558 255 255 255 255 0.483724 0.250343
0.466225 0.154967 0.500805 0.181009 0.98019 0.080401 255 255 255 255 0.483724 0.250343
0.751434 0.111604 0.387356 0.181009 0.98019 0.080401 255 255 255 255 0.483724 0.250343
0.494041 0.15925 0.385967 0.181009 0.98019 0.080401 255 255 255 255 0.483724 0.250343
1.02786 0.069722 -0.024673 0.420464 0.886772 0.191949 255 255 255 255 0.483724 0.250343
0.961601 0.104541 -0.040384 0.420464 0.886772 0.191949 255 255 255 255 0.483724 0.250343
0.751434 0.111604 0.387356 0.420464 0.886772 0.191949 255 255 255 255 0.483724 0.250343
0.751434 0.111604 0.387356 0.181155 0.980755 0.072814 255 255 255 255 0.483724 0.250343
0.961601 0.104541 -0.040384 0.181155 0.980755 0.072814 255 255 255 255 0.483724 0.250343
0.494041 0.15925 0.385967 0.181155 0.980755 0.072814 255 255 255 255 0.483724 0.250343
1.02786 0.069722 -0.024673 0.4636 0.886005 0.008323 255 255 255 255 0.483724 0.250343
1.01614 0.078601 -0.316673 0.4636 0.886005 0.008323 255 255 255 255 0.483724 0.250343
0.961601 0.104541 -0.040384 0.4636 0.886005 0.008323 255 255 255 255 0.483724 0.250343
0.961601 0.104541 -0.040384 0.300755 0.953225 -0.030132 255 255 255 255 0.483724 0.250343
1.01614 0.078601 -0.316673 0.300755 0.953225 -0.030132 255 255 255 255 0.483724 0.250343
0.829193 0.139392 -0.259476 0.300755 0.953225 -0.030132 255 255 255 255 0.483724 0.250343
0.846138 0.077657 -0.572693 0.459884 0.832691 -0.308435 255 255 255 255 0.483724 0.250343
0.794655 0.126272 -0.518208 0.459884 0.832691 -0.308435 255 255 255 255 0.483724 0.250343
1.01614 0.078601 -0.316673 0.459884 0.832691 -0.308435 255 255 255 255 0.483724 0.250343
1.01614 0.078601 -0.316673 0.2841 0.954899 -0.086346 255 255 255 255 0.483724 0.250343
0.794655 0.126272 -0.518208 0.2841 0.954899 -0.086346 255 255 255 255 0.483724 0.250343
0.829193 0.139392 -0.259476 0.2841 0.954899 -0.086346 255 255 255 255 0.483724 0.250343
0.846138 0.077657 -0.572693 0.298561 0.834732 -0.462691 255 255 255 255 0.483724 0.250343
0.511616 0.155998 -0.647217 0.298561 0.834732 -0.462691 255 255 255 255 0.483724 0.250343
0.794655 0.126272 -0.518208 0.298561 0.834732 -0.462691 255 255 255 255 0.483724 0.250343
0.089398 0.178631 0.303844 -0.207627 0.96659 -0.150313 255 255 255 255 0.483724 0.250343
-0.074929 0.122821 0.171942 -0.207627 0.96659 -0.150313 255 255 255 255 0.483724 0.250343
-0.05736 0.181437 0.524605 -0.207627 0.96659 -0.150313 255 255 255 255 0.483724 0.250343
0.511616 0.155998 -0.647217 -0.118556 0.992532 0.028702 255 255 255 255 0.483724 0.250343
0.189268 0.113926 -0.52383 -0.118556 0.992532 0.028702 255 255 255 255 0.483724 0.250343
0.312166 0.125797 -0.426693 -0.118556 0.992532 0.028702 255 255 255 255 0.483724 0.250343
-0.465435 0.119942 -0.308544 0.150207 0.979137 0.136853 255 255 255 255 0.483724 0.250343
-0.722862 0.178698 -0.446377 0.150207 0.979137 0.136853 255 255 255 255 0.483724 0.250343
-0.58057 0.116952 -0.160782 0.150207 0.979137 0.136853 255 255 255 255 0.483724 0.250343
-0.722862 0.178698 -0.446377 -0.005571 0.976825 0.213967 255 255 255 255 0.483724 0.250343
-0.941078 0.186359 -0.487034 -0.005571 0.976825 0.213967 255 255 255 255 0.483724 0.250343
-0.58057 0.116952 -0.160782 -0.005571 0.976825 0.213967 255 255 255 255 0.483724 0.250343
-0.941078 0.186359 -0.487034 0.222208 0.974248 -0.038277 255 255 255 255 0.483724 0.250343
-0.780266 0.160461 -0.212652 0.222208 0.974248 -0.038277 255 255 255 255 0.483724 0.250343
-0.58057 0.116952 -0.160782 0.222208 0.974248 -0.038277 255 255 255 255 0.483724 0.250343
-0.58057 0.116952 -0.160782 0.197469 0.978442 0.060484 255 255 255 255 0.483724 0.250343
-0.780266 0.160461 -0.212652 0.197469 0.978442 0.060484 255 255 255 255 0.483724 0.250343
-0.671066 0.119335 0.096122 0.197469 0.978442 0.060484 255 255 255 255 0.483724 0.250343
-0.780266 0.160461 -0.212652 -0.117741 0.978052 0.171908 255 255 255 255 0.483724 0.250343
-0.965271 0.125383 -0.139791 -0.117741 0.978052 0.171908 255 255 255 255 0.483724 0.250343
-0.671066 0.119335 0.096122 -0.117741 0.978052 0.171908 255 255 255 255 0.483724 0.250343
-0.685577 0.140064 0.591316 0.218439 0.945792 -0.240335 255 255 255 255 0.483724 0.250343
-0.221474 0.09712 0.844139 0.218439 0.945792 -0.240335 255 255 255 255 0.483724 0.250343
-0.756302 0.078001 0.282797 0.218439 0.945792 -0.240335 255 255 255 255 0.483724 0.250343
-0.059595 0.104589 0.805962 -0.170769 0.950838 0.258349 255 255 255 255 0.483724 0.250343
0.122211 0.161642 0.716156 -0.170769 0.950838 0.258349 255 255 255 255 0.483724 0.250343
-0.05736 0.181437 0.524605 -0.170769 0.950838 0.258349 255 255 255 255 0.483724 0.250343
0.122211 0.161642 0.716156 0.193111 0.977912 -0.079975 255 255 255 255 0.483724 0.250343
0.203009 0.133205 0.563534 0.193111 0.977912 -0.079975 255 255 255 255 0.483724 0.250343
-0.05736 0.181437 0.524605 0.193111 0.977912 -0.079975 255 255 255 255 0.483724 0.250343
0.466225 0.154967 0.500805 -0.128617 0.991677 0.005832 255 255 255 255 0.483724 0.250343
0.494041 0.15925 0.385967 -0.128617 0.991677 0.005832 255 255 255 255 0.483724 0.250343
0.256348 0.129418 0.216637 -0.128617 0.991677 0.005832 255 255 255 255 0.483724 0.250343
0.494041 0.15925 0.385967 -0.260004 0.944987 0.19849 255 255 255 255 0.483724 0.250343
0.424629 0.178577 0.20303 -0.260004 0.944987 0.19849 255 255 255 255 0.483724 0.250343
0.256348 0.129418 0.216637 -0.260004 0.944987 0.19849 255 255 255 255 0.483724 0.250343
0.424629 0.178577 0.20303 -0.290026 0.91723 -0.273081 255 255 255 255 0.483724 0.250343
0.491905 0.135776 -0.012182 -0.290026 0.91723 -0.273081 255 255 255 255 0.483724 0.250343
0.256348 0.129418 0.216637 -0.290026 0.91723 -0.273081 255 255 255 255 0.483724 0.250343
0.559685 0.127845 -0.390888 -0.024667 0.993208 0.113711 255 255 255 255 0.483724 0.250343
0.511616 0.155998 -0.647217 -0.024667 0.993208 0.113711 255 255 255 255 0.483724 0.250343
0.312166 0.125797 -0.426693 -0.024667 0.993208 0.113711 255 255 255 255 0.483724 0.250343
0.494041 0.15925 0.385967 0.390182 0.919328 -0.050922 255 255 255 255 0.483724 0.250343
0.56213 0.108161 -0.014657 0.390182 0.919328 -0.050922 255 255 255 255 0.483724 0.250343
0.424629 0.178577 0.20303 0.390182 0.919328 -0.050922 255 255 255 255 0.483724 0.250343
0.424629 0.178577 0.20303 0.362846 0.929113 -0.071354 255 255 255 255 0.483724 0.250343
0.56213 0.108161 -0.014657 0.362846 0.929113 -0.071354 255 255 255 255 0.483724 0.250343
0.491905 0.135776 -0.012182 0.362846 0.929113 -0.071354 255 255 255 255 0.483724 0.250343
0.56213 0.108161 -0.014657 0.363119 0.902737 0.230676 255 255 255 255 0.483724 0.250343
0.558483 0.158443 -0.205692 0.363119 0.902737 0.230676 255 255 255 255 0.483724 0.250343
0.491905 0.135776 -0.012182 0.363119 0.902737 0.230676 255 255 255 255 0.483724 0.250343
0.189268 0.113926 -0.52383 -0.017617 0.999202 -0.035833 255 255 255 255 0.483724 0.250343
-0.166161 0.10314 -0.649857 -0.017617 0.999202 -0.035833 255 255 255 255 0.483724 0.250343
-0.049615 0.119741 -0.244236 -0.017617 0.999202 -0.035833 255 255 255 255 0.483724 0.250343
-0.166161 0.10314 -0.649857 0.007123 0.999053 -0.042935 255 255 255 255 0.483724 0.250343
-0.465435 0.119942 -0.308544 0.007123 0.999053 -0.042935 255 255 255 255 0.483724 0.250343
-0.049615 0.119741 -0.244236 0.007123 0.999053 -0.042935 255 255 255 255 0.483724 0.250343
-0.465435 0.119942 -0.308544 0.311852 0.931911 -0.185178 255 255 255 255 0.483724 0.250343
-0.861717 0.164101 -0.753677 0.311852 0.931911 -0.185178 255 255 255 255 0.483724 0.250343
-0.722862 0.178698 -0.446377 0.311852 0.931911 -0.185178 255 255 255 255 0.483724 0.250343
-0.861717 0.164101 -0.753677 0.047829 0.996473 -0.068945 255 255 255 255 0.483724 0.250343
-0.941078 0.186359 -0.487034 0.047829 0.996473 -0.068945 255 255 255 255 0.483724 0.250343
-0.722862 0.178698 -0.446377 0.047829 0.996473 -0.068945 255 255 255 255 0.483724 0.250343
-0.941078 0.186359 -0.487034 -0.168085 0.967325 0.189815 255 255 255 255 0.483724 0.250343
-1.18542 0.121406 -0.372391 -0.168085 0.967325 0.189815 255 255 255 255 0.483724 0.250343
-0.780266 0.160461 -0.212652 -0.168085 0.967325 0.189815 255 255 255 255 0.483724 0.250343
-1.18542 0.121406 -0.372391 -0.140625 0.98321 0.116285 255 255 255 255 0.483724 0.250343
-0.965271 0.125383 -0.139791 -0.140625 0.98321 0.116285 255 255 255 255 0.483724 0.250343
-0.780266 0.160461 -0.212652 -0.140625 0.98321 0.116285 255 255 255 255 0.483724 0.250343
-0.756302 0.078001 0.282797 -0.600236 0.799485 -0.02323 255 255 255 255 0.483724 0.250343
-0.768486 0.080793 0.693718 -0.600236 0.799485 -0.02323 255 255 255 255 0.483724 0.250343
-0.685577 0.140064 0.591316 -0.600236 0.799485 -0.02323 255 255 255 255 0.483724 0.250343
-0.768486 0.080793 0.693718 -0.139409 0.901783 0.409086 255 255 255 255 0.483724 0.250343
-0.221474 0.09712 0.844139 -0.139409 0.901783 0.409086 255 255 255 255 0.483724 0.250343
-0.685577 0.140064 0.591316 -0.139409 0.901783 0.409086 255 255 255 255 0.483724 0.250343
-0.221474 0.09712 0.844139 -0.052327 0.998276 -0.026576 255 255 255 255 0.483724 0.250343
-0.063962 0.108352 0.95591 -0.052327 0.998276 -0.026576 255 255 255 255 0.483724 0.250343
-0.059595 0.104589 0.805962 -0.052327 0.998276 -0.026576 255 255 255 255 0.483724 0.250343
-0.063962 0.108352 0.95591 -0.314037 0.948838 -0.032957 255 255 255 255 0.483724 0.250343
0.122211 0.161642 0.716156 -0.314037 0.948838 -0.032957 255 255 255 255 0.483724 0.250343
-0.059595 0.104589 0.805962 -0.314037 0.948838 -0.032957 255 255 255 255 0.483724 0.250343
-0.063962 0.108352 0.95591 0.269702 0.874217 0.403739 255 255 255 255 0.483724 0.250343
0.466225 0.154967 0.500805 0.269702 0.874217 0.403739 255 255 255 255 0.483724 0.250343
0.122211 0.161642 0.716156 0.269702 0.874217 0.403739 255 255 255 255 0.483724 0.250343
0.122211 0.161642 0.716156 -0.139265 0.957614 -0.252153 255 255 255 255 0.483724 0.250343
0.466225 0.154967 0.500805 -0.139265 0.957614 -0.252153 255 255 255 255 0.483724 0.250343
0.203009 0.133205 0.563534 -0.139265 0.957614 -0.252153 255 255 255 255 0.483724 0.250343
0.961601 0.104541 -0.040384 0.000852 0.991984 -0.126357 255 255 255 255 0.483724 0.250343
0.56213 0.108161 -0.014657 0.000852 0.991984 -0.126357 255 255 255 255 0.483724 0.250343
0.494041 0.15925 0.385967 0.000852 0.991984 -0.126357 255 255 255 255 0.483724 0.250343
0.961601 0.104541 -0.040384 0.01838 0.989081 0.146225 255 255 255 255 0.483724 0.250343
0.829193 0.139392 -0.259476 0.01838 0.989081 0.146225 255 255 255 255 0.483724 0.250343
0.56213 0.108161 -0.014657 0.01838 0.989081 0.146225 255 255 255 255 0.483724 0.250343
0.56213 0.108161 -0.014657 0.117429 0.960921 0.250681 255 255 255 255 0.483724 0.250343
0.829193 0.139392 -0.259476 0.117429 0.960921 0.250681 255 255 255 255 0.483724 0.250343
0.558483 0.158443 -0.205692 0.117429 0.960921 0.250681 255 255 255 255 0.483724 0.250343
0.794655 0.126272 -0.518208 -0.019355 0.998657 -0.048057 255 255 255 255 0.483724 0.250343
0.559685 0.127845 -0.390888 -0.019355 0.998657 -0.048057 255 255 255 255 0.483724 0.250343
0.829193 0.139392 -0.259476 -0.019355 0.998657 -0.048057 255 255 255 255 0.483724 0.250343
0.829193 0.139392 -0.259476 0.03707 0.985985 -0.162664 255 255 255 255 0.483724 0.250343
0.559685 0.127845 -0.390888 0.03707 0.985985 -0.162664 255 255 255 255 0.483724 0.250343
0.558483 0.158443 -0.205692 0.03707 0.985985 -0.162664 255 255 255 255 0.483724 0.250343
0.794655 0.126272 -0.518208 0.059704 0.993403 0.097911 255 255 255 255 0.483724 0.250343
0.511616 0.155998 -0.647217 0.059704 0.993403 0.097911 255 255 255 255 0.483724 0.250343
0.559685 0.127845 -0.390888 0.059704 0.993403 0.097911 255 255 255 255 0.483724 0.250343
0.388268 0.124581 -0.720055 -0.175164 0.976622 -0.124611 255 255 255 255 0.483724 0.250343
0.189268 0.113926 -0.52383 -0.175164 0.976622 -0.124611 255 255 255 255 0.483724 0.250343
0.511616 0.155998 -0.647217 -0.175164 0.976622 -0.124611 255 255 255 255 0.483724 0.250343
-0.166161 0.10314 -0.649857 0.086437 0.995898 0.026765 255 255 255 255 0.483724 0.250343
-0.524761 0.134134 -0.645023 0.086437 0.995898 0.026765 255 255 255 255 0.483724 0.250343
-0.465435 0.119942 -0.308544 0.086437 0.995898 0.026765 255 255 255 255 0.483724 0.250343
-0.524761 0.134134 -0.645023 0.07959 0.996435 0.027995 255 255 255 255 0.483724 0.250343
-0.861717 0.164101 -0.753677 0.07959 0.996435 0.027995 255 255 255 255 0.483724 0.250343
-0.465435 0.119942 -0.308544 0.07959 0.996435 0.027995 255 255 255 255 0.483724 0.250343
-0.861717 0.164101 -0.753677 0.013035 0.996764 -0.079325 255 255 255 255 0.483724 0.250343
-1.11432 0.179731 -0.598785 0.013035 0.996764 -0.079325 255 255 255 255 0.483724 0.250343
-0.941078 0.186359 -0.487034 0.013035 0.996764 -0.079325 255 255 255 255 0.483724 0.250343
-1.11432 0.179731 -0.598785 -0.164302 0.966459 0.197387 255 255 255 255 0.483724 0.250343
-1.18542 0.121406 -0.372391 -0.164302 0.966459 0.197387 255 255 255 255 0.483724 0.250343
-0.941078 0.186359 -0.487034 -0.164302 0.966459 0.197387 255 255 255 255 0.483724 0.250343
-0.905281 0.079182 0.693581 0.067754 0.997466 0.021705 255 255 255 255 0.483724 0.250343
-0.756302 0.078001 0.282797 0.067754 0.997466 0.021705 255 255 255 255 0.483724 0.250343
-1.18542 0.121406 -0.372391 0.067754 0.997466 0.021705 255 255 255 255 0.483724 0.250343
-1.18542 0.121406 -0.372391 -0.267079 0.934126 0.236807 255 255 255 255 0.483724 0.250343
-0.756302 0.078001 0.282797 -0.267079 0.934126 0.236807 255 255 255 255 0.483724 0.250343
-0.965271 0.125383 -0.139791 -0.267079 0.934126 0.236807 255 255 255 255 0.483724 0.250343
-0.905281 0.079182 0.693581 -0.011768 0.999905 -0.007143 255 255 255 255 0.483724 0.250343
-0.768486 0.080793 0.693718 -0.011768 0.999905 -0.007143 255 255 255 255 0.483724 0.250343
-0.756302 0.078001 0.282797 -0.011768 0.999905 -0.007143 255 255 255 255 0.483724 0.250343
-0.905281 0.079182 0.693581 -0.011789 0.999833 0.013972 255 255 255 255 0.483724 0.250343
-0.620686 0.080123 0.866371 -0.011789 0.999833 0.013972 255 255 255 255 0.483724 0.250343
-0.768486 0.080793 0.693718 -0.011789 0.999833 0.013972 255 255 255 255 0.483724 0.250343
-0.620686 0.080123 0.866371 -0.04037 0.998445 0.038433 255 255 255 255 0.483724 0.250343
-0.221474 0.09712 0.844139 -0.04037 0.998445 0.038433 255 255 255 255 0.483724 0.250343
-0.768486 0.080793 0.693718 -0.04037 0.998445 0.038433 255 255 255 255 0.483724 0.250343
0.312166 0.125797 -0.426693 -0.010182 0.994034 -0.108598 255 255 255 255 0.483724 0.250343
0.189268 0.113926 -0.52383 -0.010182 0.994034 -0.108598 255 255 255 255 0.483724 0.250343
0.20826 0.152358 -0.173828 -0.010182 0.994034 -0.108598 255 255 255 255 0.483724 0.250343
0.189268 0.113926 -0.52383 -0.096965 0.989899 -0.103434 255 255 255 255 0.483724 0.250343
-0.049615 0.119741 -0.244236 -0.096965 0.989899 -0.103434 255 255 255 255 0.483724 0.250343
0.20826 0.152358 -0.173828 -0.096965 0.989899 -0.103434 255 255 255 255 0.483724 0.250343
-0.049615 0.119741 -0.244236 0.039214 0.967313 -0.250537 255 255 255 255 0.483724 0.250343
-0.465435 0.119942 -0.308544 0.039214 0.967313 -0.250537 255 255 255 255 0.483724 0.250343
-0.423805 0.162348 -0.1383 0.039214 0.967313 -0.250537 255 255 255 255 0.483724 0.250343
-0.465435 0.119942 -0.308544 -0.250459 0.952015 -0.175892 255 255 255 255 0.483724 0.250343
-0.58057 0.116952 -0.160782 -0.250459 0.952015 -0.175892 255 255 255 255 0.483724 0.250343
-0.423805 0.162348 -0.1383 -0.250459 0.952015 -0.175892 255 255 255 255 0.483724 0.250343
-0.58057 0.116952 -0.160782 -0.263238 0.959363 -0.101626 255 255 255 255 0.483724 0.250343
-0.671066 0.119335 0.096122 -0.263238 0.959363 -0.101626 255 255 255 255 0.483724 0.250343
-0.423805 0.162348 -0.1383 -0.263238 0.959363 -0.101626 255 255 255 255 0.483724 0.250343
-0.965271 0.125383 -0.139791 -0.112592 0.979756 0.16553 255 255 255 255 0.483724 0.250343
-0.756302 0.078001 0.282797 -0.112592 0.979756 0.16553 255 255 255 255 0.483724 0.250343
-0.671066 0.119335 0.096122 -0.112592 0.979756 0.16553 255 255 255 255 0.483724 0.250343
-0.756302 0.078001 0.282797 -0.188807 0.97346 0.129336 255 255 255 255 0.483724 0.250343
-0.05736 0.181437 0.524605 -0.188807 0.97346 0.129336 255 255 255 255 0.483724 0.250343
-0.671066 0.119335 0.096122 -0.188807 0.97346 0.129336 255 255 255 255 0.483724 0.250343
-0.756302 0.078001 0.282797 -0.196721 0.968218 0.154452 255 255 255 255 0.483724 0.250343
-0.221474 0.09712 0.844139 -0.196721 0.968218 0.154452 255 255 255 255 0.483724 0.250343
-0.05736 0.181437 0.524605 -0.196721 0.968218 0.154452 255 255 255 255 0.483724 0.250343
-0.221474 0.09712 0.844139 0.017659 0.964478 0.263571 255 255 255 255 0.483724 0.250343
-0.059595 0.104589 0.805962 0.017659 0.964478 0.263571 255 255 255 255 0.483724 0.250343
-0.05736 0.181437 0.524605 0.017659 0.964478 0.263571 255 255 255 255 0.483724 0.250343
-0.05736 0.181437 0.524605 0.166995 0.981021 0.098546 255 255 255 255 0.483724 0.250343
0.203009 0.133205 0.563534 0.166995 0.981021 0.098546 255 255 255 255 0.483724 0.250343
0.089398 0.178631 0.303844 0.166995 0.981021 0.098546 255 255 255 255 0.483724 0.250343
0.203009 0.133205 0.563534 -0.036435 0.981562 0.187638 255 255 255 255 0.483724 0.250343
0.466225 0.154967 0.500805 -0.036435 0.981562 0.187638 255 255 255 255 0.483724 0.250343
0.089398 0.178631 0.303844 -0.036435 0.981562 0.187638 255 255 255 255 0.483724 0.250343
0.466225 0.154967 0.500805 0.171974 0.961692 -0.213478 255 255 255 255 0.483724 0.250343
0.256348 0.129418 0.216637 0.171974 0.961692 -0.213478 255 255 255 255 0.483724 0.250343
0.089398 0.178631 0.303844 0.171974 0.961692 -0.213478 255 255 255 255 0.483724 0.250343
0.256348 0.129418 0.216637 0.311693 0.948182 0.061627 255 255 255 255 0.483724 0.250343
0.316324 0.126061 -0.035055 0.311693 0.948182 0.061627 255 255 255 255 0.483724 0.250343
0.089398 0.178631 0.303844 0.311693 0.948182 0.061627 255 255 255 255 0.483724 0.250343
0.256348 0.129418 0.216637 -0.051892 0.998322 -0.025681 255 255 255 255 0.483724 0.250343
0.491905 0.135776 -0.012182 -0.051892 0.998322 -0.025681 255 255 255 255 0.483724 0.250343
0.316324 0.126061 -0.035055 -0.051892 0.998322 -0.025681 255 255 255 255 0.483724 0.250343
0.491905 0.135776 -0.012182 -0.067114 0.993376 0.093269 255 255 255 255 0.483724 0.250343
0.558483 0.158443 -0.205692 -0.067114 0.993376 0.093269 255 255 255 255 0.483724 0.250343
0.316324 0.126061 -0.035055 -0.067114 0.993376 0.093269 255 255 255 255 0.483724 0.250343
0.559685 0.127845 -0.390888 -0.031975 0.986087 -0.163128 255 255 255 255 0.483724 0.250343
0.20826 0.152358 -0.173828 -0.031975 0.986087 -0.163128 255 255 255 255 0.483724 0.250343
0.558483 0.158443 -0.205692 -0.031975 0.986087 -0.163128 255 255 255 255 0.483724 0.250343
0.558483 0.158443 -0.205692 -0.000123 0.982498 0.186275 255 255 255 255 0.483724 0.250343
0.20826 0.152358 -0.173828 -0.000123 0.982498 0.186275 255 255 255 255 0.483724 0.250343
0.316324 0.126061 -0.035055 -0.000123 0.982498 0.186275 255 255 255 255 0.483724 0.250343
0.559685 0.127845 -0.390888 0.006498 0.994781 -0.101822 255 255 255 255 0.483724 0.250343
0.312166 0.125797 -0.426693 0.006498 0.994781 -0.101822 255 255 255 255 0.483724 0.250343
0.20826 0.152358 -0.173828 0.006498 0.994781 -0.101822 255 255 255 255 0.483724 0.250343
0.20826 0.152358 -0.173828 0.064386 0.988453 0.13717 255 255 255 255 0.483724 0.250343
-0.074929 0.122821 0.171942 0.064386 0.988453 0.13717 255 255 255 255 0.483724 0.250343
0.316324 0.126061 -0.035055 0.064386 0.988453 0.13717 255 255 255 255 0.483724 0.250343
-0.074929 0.122821 0.171942 -0.025415 0.987679 0.154417 255 255 255 255 0.483724 0.250343
-0.423805 0.162348 -0.1383 -0.025415 0.987679 0.154417 255 255 255 255 0.483724 0.250343
-0.671066 0.119335 0.096122 -0.025415 0.987679 0.154417 255 255 255 255 0.483724 0.250343
0.316324 0.126061 -0.035055 -0.134541 0.961591 -0.239251 255 255 255 255 0.483724 0.250343
-0.074929 0.122821 0.171942 -0.134541 0.961591 -0.239251 255 255 255 255 0.483724 0.250343
0.089398 0.178631 0.303844 -0.134541 0.961591 -0.239251 255 255 255 255 0.483724 0.250343
-0.074929 0.122821 0.171942 0.112999 0.993595 -0.00048 255 255 255 255 0.483724 0.250343
-0.049615 0.119741 -0.244236 0.112999 0.993595 -0.00048 255 255 255 255 0.483724 0.250343
-0.423805 0.162348 -0.1383 0.112999 0.993595 -0.00048 255 255 255 255 0.483724 0.250343
0.20826 0.152358 -0.173828 -0.121509 0.992481 -0.014736 255 255 255 255 0.483724 0.250343
-0.049615 0.119741 -0.244236 -0.121509 0.992481 -0.014736 255 255 255 255 0.483724 0.250343
-0.074929 0.122821 0.171942 -0.121509 0.992481 -0.014736 255 255 255 255 0.483724 0.250343
-0.05736 0.181437 0.524605 0.015177 0.986231 -0.164677 255 255 255 255 0.483724 0.250343
-0.074929 0.122821 0.171942 0.015177 0.986231 -0.164677 255 255 255 255 0.483724 0.250343
-0.671066 0.119335 0.096122 0.015177 0.986231 -0.164677 255 255 255 255 0.483724 0.250343
3 0 1 2 
3 3 4 5 
3 6 7 8 
3 9 10 11 
3 12 13 14 
3 15 16 17 
3 18 19 20 
3 21 22 23 
3 24 25 26 
3 27 28 29 
3 30 31 32 
3 33 34 35 
3 36 37 38 
3 39 40 41 
3 42 43 44 
3 45 46 47 
3 48 49 50 
3 51 52 53 
3 54 55 56 
3 57 58 59 
3 60 61 62 
3 63 64 65 
3 66 67 68 
3 69 70 71 
3 72 73 74 
3 75 76 77 
3 78 79 80 
3 81 82 83 
3 84 85 86 
3 87 88 89 
3 90 91 92 
3 93 94 95 
3 96 97 98 
3 99 100 101 
3 102 103 104 
3 105 106 107 
3 108 109 110 
3 111 112 113 
3 114 115 116 
3 117 118 119 
3 120 121 122 
3 123 124 125 
3 126 127 128 
3 129 130 131 
3 132 133 134 
3 135 136 137 
3 138 139 140 
3 141 142 143 
3 144 145 146 
3 147 148 149 
3 150 151 152 
3 153 154 155 
3 156 157 158 
3 159 160 161 
3 162 163 164 
3 165 166 167 
3 168 169 170 
3 171 172 173 
3 174 175 176 
3 177 178 179 
3 180 181 182 
3 183 184 185 
3 186 187 188 
3 189 190 191 
3 192 193 194 
3 195 196 197 
3 198 199 200 
3 201 202 203 
3 204 205 206 
3 207 208 209 
3 210 211 212 
3 213 214 215 
3 216 217 218 
3 219 220 221 
3 222 223 224 
3 225 226 227 
3 228 229 230 
3 231 232 233 
3 234 235 236 
3 237 238 239 
3 240 241 242 
3 243 244 245 
3 246 247 248 
3 249 250 251 
3 252 253 254 
3 255 256 257 
3 258 259 260 
3 261 262 263 
3 264 265 266 
3 267 268 269 
3 270 271 272 
3 273 274 275 
3 276 277 278 
3 279 280 281 
3 282 283 284 
3 285 286 287 
3 288 289 290 
3 291 292 293 
3 294 295 296 
3 297 298 299 
3 300 301 302 
3 303 304 305 
3 306 307 308 
3 309 310 311 
3 312 313 314 
3 315 316 317 
3 318 319 320 
3 321 322 323 
3 324 325 326 
3 327 328 329 
3 330 331 332 
3 333 334 335 
3 336 337 338 
3 339 340 341 
3 342 343 344 
3 345 346 347 
3 348 349 350 
3 351 352 353 
3 354 355 356 
3 357 358 359 
3 360 361 362 
3 363 364 365 
3 366 367 368 
3 369 370 371 
3 372 373 374 
3 375 376 377 
3 378 379 380 
3 381 382 383 
3 384 385 386 
3 387 388 389 
3 390 391 392 
3 393 394 395 
3 396 397 398 
3 399 400 401 
3 402 403 404 
3 405 406 407 
3 408 409 410 
3 411 412 413 
