ply
format ascii 1.0
comment VCGLIB generated
comment TextureFile Texture_01_A.png
element vertex 439
property float x
property float y
property float z
property float nx
property float ny
property float nz
property uchar red
property uchar green
property uchar blue
property uchar alpha
property float texture_u
property float texture_v
element face 149
property list uchar int vertex_indices
end_header
-0.965119 0.032541 -0.395457 -0 0.97082 0.239807 255 255 255 255 0.447094 0.283132
-1.06631 0.032541 -0.395457 -0 0.97082 0.239807 255 255 255 255 0.447094 0.283132
-0.999684 0.006947 -0.291844 -0 0.97082 0.239807 255 255 255 255 0.447094 0.283132
-0.999684 0.006947 -0.436917 0 0.850923 -0.52529 255 255 255 255 0.447094 0.283132
-1.06631 0.032541 -0.395457 0 0.850923 -0.52529 255 255 255 255 0.447094 0.283132
-0.965119 0.032541 -0.395457 0 0.850923 -0.52529 255 255 255 255 0.447094 0.283132
0.414704 0.032541 -0.434933 -0.236723 0.970821 -0.038336 255 255 255 255 0.447094 0.283132
0.43098 0.032541 -0.535436 -0.236723 0.970821 -0.038336 255 255 255 255 0.447094 0.283132
0.31792 0.006947 -0.485438 -0.236723 0.970821 -0.038336 255 255 255 255 0.447094 0.283132
0.461112 0.006947 -0.46215 0.518533 0.850924 0.083974 255 255 255 255 0.447094 0.283132
0.43098 0.032541 -0.535436 0.518533 0.850924 0.083974 255 255 255 255 0.447094 0.283132
0.414704 0.032541 -0.434933 0.518533 0.850924 0.083974 255 255 255 255 0.447094 0.283132
1.04778 0.086864 -0.426898 0.174499 0.983653 -0.044468 255 255 255 255 0.447094 0.283132
1.00818 0.089901 -0.515115 0.174499 0.983653 -0.044468 255 255 255 255 0.447094 0.283132
0.957415 0.105972 -0.358813 0.174499 0.983653 -0.044468 255 255 255 255 0.447094 0.283132
0.898014 0.110526 -0.491138 0.174479 0.983655 -0.04449 255 255 255 255 0.447094 0.283132
0.852982 0.122963 -0.392765 0.174479 0.983655 -0.04449 255 255 255 255 0.447094 0.283132
1.00818 0.089901 -0.515115 0.174479 0.983655 -0.04449 255 255 255 255 0.447094 0.283132
0.852982 0.122963 -0.392765 0.174495 0.983653 -0.044469 255 255 255 255 0.447094 0.283132
0.957415 0.105972 -0.358813 0.174495 0.983653 -0.044469 255 255 255 255 0.447094 0.283132
1.00818 0.089901 -0.515115 0.174495 0.983653 -0.044469 255 255 255 255 0.447094 0.283132
1.02744 0.045722 -1.30481 -0.003644 0.991959 -0.126507 255 255 255 255 0.447094 0.283132
0.9217 0.033446 -1.39802 -0.003644 0.991959 -0.126507 255 255 255 255 0.447094 0.283132
0.910846 0.045625 -1.30221 -0.003644 0.991959 -0.126507 255 255 255 255 0.447094 0.283132
0.9217 0.033446 -1.39802 -0.003649 0.99196 -0.126501 255 255 255 255 0.447094 0.283132
1.02744 0.045722 -1.30481 -0.003649 0.99196 -0.126501 255 255 255 255 0.447094 0.283132
1.03468 0.037603 -1.36868 -0.003649 0.99196 -0.126501 255 255 255 255 0.447094 0.283132
-0.824887 0.081793 -1.1616 -0.683268 0.685922 -0.250309 255 255 255 255 0.447094 0.283132
-0.771207 0.101207 -1.25493 -0.683268 0.685922 -0.250309 255 255 255 255 0.447094 0.283132
-0.833276 0.03268 -1.27329 -0.683268 0.685922 -0.250309 255 255 255 255 0.447094 0.283132
0.137275 0.032541 0.020936 0.192811 0.970821 0.142586 255 255 255 255 0.447094 0.283132
0.077107 0.032541 0.102298 0.192811 0.970821 0.142586 255 255 255 255 0.447094 0.283132
0.20003 0.006947 0.110337 0.192811 0.970821 0.142586 255 255 255 255 0.447094 0.283132
0.083388 0.006947 0.024077 -0.422355 0.850918 -0.312336 255 255 255 255 0.447094 0.283132
0.077107 0.032541 0.102298 -0.422355 0.850918 -0.312336 255 255 255 255 0.447094 0.283132
0.137275 0.032541 0.020936 -0.422355 0.850918 -0.312336 255 255 255 255 0.447094 0.283132
-1.12289 0.006948 -0.612428 -0.318457 0.827278 0.462813 255 255 255 255 0.447094 0.283132
-0.904885 0.006948 -0.462424 -0.318457 0.827278 0.462813 255 255 255 255 0.447094 0.283132
-1.04714 0.042059 -0.623071 -0.318457 0.827278 0.462813 255 255 255 255 0.447094 0.283132
-1.04814 0.006948 -0.481089 0 1 -0 255 255 255 255 0.447094 0.283132
-0.904885 0.006948 -0.462424 0 1 -0 255 255 255 255 0.447094 0.283132
-1.12289 0.006948 -0.612428 0 1 -0 255 255 255 255 0.447094 0.283132
-0.904885 0.006948 -0.462424 0.237443 0.971399 0.002046 255 255 255 255 0.447094 0.283132
-0.903619 0.006948 -0.609351 0.237443 0.971399 0.002046 255 255 255 255 0.447094 0.283132
-1.04714 0.042059 -0.623071 0.237443 0.971399 0.002046 255 255 255 255 0.447094 0.283132
-1.04714 0.042059 -0.623071 0.254033 0.900676 -0.352492 255 255 255 255 0.447094 0.283132
-0.903619 0.006948 -0.609351 0.254033 0.900676 -0.352492 255 255 255 255 0.447094 0.283132
-1.02654 0.006948 -0.697936 0.254033 0.900676 -0.352492 255 255 255 255 0.447094 0.283132
-0.84018 0.029229 -0.480328 0.558496 0.808356 0.186125 255 255 255 255 0.447094 0.307221
-0.904527 0.079517 -0.50565 0.558496 0.808356 0.186125 255 255 255 255 0.447094 0.307221
-0.897923 0.045754 -0.378831 0.558496 0.808356 0.186125 255 255 255 255 0.447094 0.307221
-0.928243 0.047932 -0.573639 -0.315946 0.897782 -0.306865 255 255 255 255 0.447094 0.307221
-1.02454 0.075787 -0.392997 -0.315946 0.897782 -0.306865 255 255 255 255 0.447094 0.307221
-0.904527 0.079517 -0.50565 -0.315946 0.897782 -0.306865 255 255 255 255 0.447094 0.307221
-1.03001 0.073807 -0.518796 0.233419 0.972043 -0.025456 255 255 255 255 0.447094 0.307221
-1.02454 0.075787 -0.392997 0.233419 0.972043 -0.025456 255 255 255 255 0.447094 0.307221
-0.928243 0.047932 -0.573639 0.233419 0.972043 -0.025456 255 255 255 255 0.447094 0.307221
-0.904527 0.079517 -0.50565 0.198129 0.949699 0.242521 255 255 255 255 0.447094 0.307221
-1.02454 0.075787 -0.392997 0.198129 0.949699 0.242521 255 255 255 255 0.447094 0.307221
-0.897923 0.045754 -0.378831 0.198129 0.949699 0.242521 255 255 255 255 0.447094 0.307221
0.846503 0.082591 -0.005682 0.249015 0.923045 -0.293223 255 255 255 255 0.447094 0.307221
0.999669 0.083549 0.127408 0.249015 0.923045 -0.293223 255 255 255 255 0.447094 0.307221
0.926023 0.061478 -0.004613 0.249015 0.923045 -0.293223 255 255 255 255 0.447094 0.307221
0.846503 0.082591 -0.005682 0.216411 0.942185 -0.255838 255 255 255 255 0.447094 0.307221
0.917644 0.106495 0.142528 0.216411 0.942185 -0.255838 255 255 255 255 0.447094 0.307221
0.999669 0.083549 0.127408 0.216411 0.942185 -0.255838 255 255 255 255 0.447094 0.307221
0.917644 0.106495 0.142528 -0.355947 0.895115 0.268461 255 255 255 255 0.447094 0.307221
0.777061 0.075936 0.058023 -0.355947 0.895115 0.268461 255 255 255 255 0.447094 0.307221
0.895503 0.073566 0.222965 -0.355947 0.895115 0.268461 255 255 255 255 0.447094 0.307221
0.769774 0.046504 0.138722 -0.381014 0.879147 0.286232 255 255 255 255 0.447094 0.307221
0.895503 0.073566 0.222965 -0.381014 0.879147 0.286232 255 255 255 255 0.447094 0.307221
0.777061 0.075936 0.058023 -0.381014 0.879147 0.286232 255 255 255 255 0.447094 0.307221
0.917644 0.106495 0.142528 -0.166371 0.98292 -0.078672 255 255 255 255 0.447094 0.307221
0.846503 0.082591 -0.005682 -0.166371 0.98292 -0.078672 255 255 255 255 0.447094 0.307221
0.777061 0.075936 0.058023 -0.166371 0.98292 -0.078672 255 255 255 255 0.447094 0.307221
0.521837 0.047993 -0.218926 0.17929 0.950791 -0.25269 255 255 255 255 0.447094 0.283132
0.557871 0.073806 -0.096233 0.17929 0.950791 -0.25269 255 255 255 255 0.447094 0.283132
0.66518 0.04382 -0.132922 0.17929 0.950791 -0.25269 255 255 255 255 0.447094 0.283132
0.66518 0.04382 -0.132922 0.35659 0.874793 0.327994 255 255 255 255 0.447094 0.283132
0.557871 0.073806 -0.096233 0.35659 0.874793 0.327994 255 255 255 255 0.447094 0.283132
0.613895 0.036637 -0.058008 0.35659 0.874793 0.327994 255 255 255 255 0.447094 0.283132
0.521837 0.047993 -0.218926 0.705022 0.623348 -0.338204 255 255 255 255 0.447094 0.283132
0.526705 0.077893 -0.153669 0.705022 0.623348 -0.338204 255 255 255 255 0.447094 0.283132
0.557871 0.073806 -0.096233 0.705022 0.623348 -0.338204 255 255 255 255 0.447094 0.283132
0.557871 0.073806 -0.096233 -0.431369 0.85267 0.294744 255 255 255 255 0.447094 0.283132
0.526705 0.077893 -0.153669 -0.431369 0.85267 0.294744 255 255 255 255 0.447094 0.283132
0.489035 0.036723 -0.089699 -0.431369 0.85267 0.294744 255 255 255 255 0.447094 0.283132
1.25709 0.03566 -0.356812 0.429926 0.794173 -0.429478 255 255 255 255 0.447094 0.283132
1.33384 0.044928 -0.26285 0.429926 0.794173 -0.429478 255 255 255 255 0.447094 0.283132
1.35197 -0 -0.327772 0.429926 0.794173 -0.429478 255 255 255 255 0.447094 0.283132
1.25709 0.03566 -0.356812 0.09801 0.979381 -0.176652 255 255 255 255 0.447094 0.283132
1.16507 0.061962 -0.262048 0.09801 0.979381 -0.176652 255 255 255 255 0.447094 0.283132
1.33384 0.044928 -0.26285 0.09801 0.979381 -0.176652 255 255 255 255 0.447094 0.283132
1.35038 -0 -0.198961 0.332221 0.941829 -0.050864 255 255 255 255 0.447094 0.283132
1.16507 0.061962 -0.262048 0.332221 0.941829 -0.050864 255 255 255 255 0.447094 0.283132
1.2547 0.03566 -0.163597 0.332221 0.941829 -0.050864 255 255 255 255 0.447094 0.283132
1.33384 0.044928 -0.26285 0.08595 0.825305 0.558108 255 255 255 255 0.447094 0.283132
1.16507 0.061962 -0.262048 0.08595 0.825305 0.558108 255 255 255 255 0.447094 0.283132
1.35038 -0 -0.198961 0.08595 0.825305 0.558108 255 255 255 255 0.447094 0.283132
0.849691 0.137209 -0.558038 -0.36309 0.766803 0.52932 255 255 255 255 0.447094 0.307221
0.784414 0.089582 -0.53382 -0.36309 0.766803 0.52932 255 255 255 255 0.447094 0.307221
0.981647 0.120018 -0.442618 -0.36309 0.766803 0.52932 255 255 255 255 0.447094 0.307221
0.853251 0.097281 -0.430677 -0.170589 0.984515 0.040362 255 255 255 255 0.447094 0.307221
0.981647 0.120018 -0.442618 -0.170589 0.984515 0.040362 255 255 255 255 0.447094 0.307221
0.784414 0.089582 -0.53382 -0.170589 0.984515 0.040362 255 255 255 255 0.447094 0.307221
0.86928 0.108233 -0.63005 -0.17059 0.984515 0.040367 255 255 255 255 0.447094 0.307221
0.981647 0.120018 -0.442618 -0.17059 0.984515 0.040367 255 255 255 255 0.447094 0.307221
0.980551 0.125257 -0.575023 -0.17059 0.984515 0.040367 255 255 255 255 0.447094 0.307221
0.849691 0.137209 -0.558038 0.349878 0.898169 -0.266228 255 255 255 255 0.447094 0.307221
0.981647 0.120018 -0.442618 0.349878 0.898169 -0.266228 255 255 255 255 0.447094 0.307221
0.86928 0.108233 -0.63005 0.349878 0.898169 -0.266228 255 255 255 255 0.447094 0.307221
0.786751 0.114881 -0.269959 0.278333 0.907965 0.313257 255 255 255 255 0.447094 0.283132
0.895315 0.14003 -0.439313 0.278333 0.907965 0.313257 255 255 255 255 0.447094 0.283132
0.791155 0.139277 -0.344583 0.278333 0.907965 0.313257 255 255 255 255 0.447094 0.283132
0.913231 0.131393 -0.29395 -0.115462 0.990619 0.07309 255 255 255 255 0.447094 0.283132
0.895315 0.14003 -0.439313 -0.115462 0.990619 0.07309 255 255 255 255 0.447094 0.283132
0.786751 0.114881 -0.269959 -0.115462 0.990619 0.07309 255 255 255 255 0.447094 0.283132
0.73414 0.088096 -0.386382 -0.406197 0.786535 -0.465152 255 255 255 255 0.447094 0.283132
0.895315 0.14003 -0.439313 -0.406197 0.786535 -0.465152 255 255 255 255 0.447094 0.283132
0.834314 0.091216 -0.468584 -0.406197 0.786535 -0.465152 255 255 255 255 0.447094 0.283132
0.791155 0.139277 -0.344583 -0.402575 0.804747 -0.436253 255 255 255 255 0.447094 0.283132
0.895315 0.14003 -0.439313 -0.402575 0.804747 -0.436253 255 255 255 255 0.447094 0.283132
0.73414 0.088096 -0.386382 -0.402575 0.804747 -0.436253 255 255 255 255 0.447094 0.283132
0.772815 0.133596 0.249678 0.184371 0.979032 0.086627 255 255 255 255 0.447094 0.283132
0.869006 0.116262 0.240855 0.184371 0.979032 0.086627 255 255 255 255 0.447094 0.283132
0.735637 0.153405 0.104931 0.184371 0.979032 0.086627 255 255 255 255 0.447094 0.283132
0.879926 0.127404 0.091695 0.449394 0.887807 0.099218 255 255 255 255 0.447094 0.283132
0.774863 0.185255 0.04991 0.449394 0.887807 0.099218 255 255 255 255 0.447094 0.283132
0.869006 0.116262 0.240855 0.449394 0.887807 0.099218 255 255 255 255 0.447094 0.283132
0.869006 0.116262 0.240855 -0.162306 0.899741 0.405121 255 255 255 255 0.447094 0.283132
0.774863 0.185255 0.04991 -0.162306 0.899741 0.405121 255 255 255 255 0.447094 0.283132
0.735637 0.153405 0.104931 -0.162306 0.899741 0.405121 255 255 255 255 0.447094 0.283132
-0.84018 0.029229 -0.480328 0.558496 0.808356 0.186125 255 255 255 255 0.447094 0.283132
-0.904527 0.079517 -0.50565 0.558496 0.808356 0.186125 255 255 255 255 0.447094 0.283132
-0.897923 0.045754 -0.378831 0.558496 0.808356 0.186125 255 255 255 255 0.447094 0.283132
-0.928243 0.047932 -0.573639 -0.315946 0.897782 -0.306865 255 255 255 255 0.447094 0.283132
-1.02454 0.075787 -0.392997 -0.315946 0.897782 -0.306865 255 255 255 255 0.447094 0.283132
-0.904527 0.079517 -0.50565 -0.315946 0.897782 -0.306865 255 255 255 255 0.447094 0.283132
-1.03001 0.073807 -0.518796 0.233419 0.972043 -0.025456 255 255 255 255 0.447094 0.283132
-1.02454 0.075787 -0.392997 0.233419 0.972043 -0.025456 255 255 255 255 0.447094 0.283132
-0.928243 0.047932 -0.573639 0.233419 0.972043 -0.025456 255 255 255 255 0.447094 0.283132
-0.904527 0.079517 -0.50565 0.198129 0.949699 0.242521 255 255 255 255 0.447094 0.283132
-1.02454 0.075787 -0.392997 0.198129 0.949699 0.242521 255 255 255 255 0.447094 0.283132
-0.897923 0.045754 -0.378831 0.198129 0.949699 0.242521 255 255 255 255 0.447094 0.283132
1.01931 0.062593 -1.56892 -0.28484 0.917344 0.278111 255 255 255 255 0.447094 0.283132
1.14417 0.051949 -1.40593 -0.28484 0.917344 0.278111 255 255 255 255 0.447094 0.283132
1.09242 0.082902 -1.56103 -0.28484 0.917344 0.278111 255 255 255 255 0.447094 0.283132
1.02795 0.072595 -1.4527 0.212704 0.972041 -0.099466 255 255 255 255 0.447094 0.283132
1.14417 0.051949 -1.40593 0.212704 0.972041 -0.099466 255 255 255 255 0.447094 0.283132
1.01931 0.062593 -1.56892 0.212704 0.972041 -0.099466 255 255 255 255 0.447094 0.283132
1.13941 0.031956 -1.61151 0.212699 0.972043 -0.099457 255 255 255 255 0.447094 0.283132
1.14417 0.051949 -1.40593 0.212699 0.972043 -0.099457 255 255 255 255 0.447094 0.283132
1.2081 0.026639 -1.51658 0.212699 0.972043 -0.099457 255 255 255 255 0.447094 0.283132
1.09242 0.082902 -1.56103 0.688439 0.72018 -0.085981 255 255 255 255 0.447094 0.283132
1.14417 0.051949 -1.40593 0.688439 0.72018 -0.085981 255 255 255 255 0.447094 0.283132
1.13941 0.031956 -1.61151 0.688439 0.72018 -0.085981 255 255 255 255 0.447094 0.283132
-1.58239 0.033267 -0.44705 0.163343 0.967203 0.19452 255 255 255 255 0.447094 0.283132
-1.53598 0.052998 -0.584129 0.163343 0.967203 0.19452 255 255 255 255 0.447094 0.283132
-1.69273 0.058858 -0.48164 0.163343 0.967203 0.19452 255 255 255 255 0.447094 0.283132
-1.53598 0.052998 -0.584129 0.016297 0.999348 -0.032215 255 255 255 255 0.447094 0.283132
-1.68925 0.054651 -0.610388 0.016297 0.999348 -0.032215 255 255 255 255 0.447094 0.283132
-1.69273 0.058858 -0.48164 0.016297 0.999348 -0.032215 255 255 255 255 0.447094 0.283132
-1.57718 0.026958 -0.640171 0.090594 0.87604 -0.473653 255 255 255 255 0.447094 0.283132
-1.68925 0.054651 -0.610388 0.090594 0.87604 -0.473653 255 255 255 255 0.447094 0.283132
-1.53598 0.052998 -0.584129 0.090594 0.87604 -0.473653 255 255 255 255 0.447094 0.283132
-1.44136 0.038495 -0.414048 -0.069699 0.864795 0.497264 255 255 255 255 0.447094 0.283132
-1.40653 0.077454 -0.47692 -0.069699 0.864795 0.497264 255 255 255 255 0.447094 0.283132
-1.53504 0.069899 -0.481793 -0.069699 0.864795 0.497264 255 255 255 255 0.447094 0.283132
-1.33971 0.03045 -0.493025 0.489076 0.807919 -0.328743 255 255 255 255 0.447094 0.283132
-1.50715 0.085386 -0.607116 0.489076 0.807919 -0.328743 255 255 255 255 0.447094 0.283132
-1.40653 0.077454 -0.47692 0.489076 0.807919 -0.328743 255 255 255 255 0.447094 0.283132
-1.38256 0.057831 -0.600257 0.204345 0.964938 0.164732 255 255 255 255 0.447094 0.283132
-1.50715 0.085386 -0.607116 0.204345 0.964938 0.164732 255 255 255 255 0.447094 0.283132
-1.33971 0.03045 -0.493025 0.204345 0.964938 0.164732 255 255 255 255 0.447094 0.283132
-1.40653 0.077454 -0.47692 -0.062449 0.992111 0.108704 255 255 255 255 0.447094 0.283132
-1.50715 0.085386 -0.607116 -0.062449 0.992111 0.108704 255 255 255 255 0.447094 0.283132
-1.53504 0.069899 -0.481793 -0.062449 0.992111 0.108704 255 255 255 255 0.447094 0.283132
0.199945 0.006948 -0.028317 0 1 -0 255 255 255 255 0.447094 0.283132
-0.020041 0.006948 -0.106208 0 1 -0 255 255 255 255 0.447094 0.283132
0.067396 0.006948 -0.006027 0 1 -0 255 255 255 255 0.447094 0.283132
0.199945 0.006948 -0.028317 -0.188635 0.824977 0.532757 255 255 255 255 0.447094 0.283132
0.046961 0.042059 -0.136854 -0.188635 0.824977 0.532757 255 255 255 255 0.447094 0.283132
-0.020041 0.006948 -0.106208 -0.188635 0.824977 0.532757 255 255 255 255 0.447094 0.283132
0.046961 0.042059 -0.136854 0.436955 0.829644 -0.347508 255 255 255 255 0.447094 0.283132
0.199945 0.006948 -0.028317 0.436955 0.829644 -0.347508 255 255 255 255 0.447094 0.283132
0.054367 0.006948 -0.211366 0.436955 0.829644 -0.347508 255 255 255 255 0.447094 0.283132
0.179007 0.006948 -0.163764 -0 1 -0 255 255 255 255 0.447094 0.283132
0.054367 0.006948 -0.211366 -0 1 -0 255 255 255 255 0.447094 0.283132
0.189731 0.006948 -0.070505 -0 1 -0 255 255 255 255 0.447094 0.283132
0.408967 0.006948 0.009473 -0 1 -0 255 255 255 255 0.447094 0.283132
0.32249 0.006948 -0.091534 -0 1 -0 255 255 255 255 0.447094 0.283132
0.189731 0.006948 -0.070505 0.193691 0.824972 -0.530948 255 255 255 255 0.447094 0.283132
0.34168 0.042059 0.039481 0.193691 0.824972 -0.530948 255 255 255 255 0.447094 0.283132
0.408967 0.006948 0.009473 0.193691 0.824972 -0.530948 255 255 255 255 0.447094 0.283132
0.34168 0.042059 0.039481 -0.44023 0.829647 0.343342 255 255 255 255 0.447094 0.283132
0.189731 0.006948 -0.070505 -0.44023 0.829647 0.343342 255 255 255 255 0.447094 0.283132
0.333566 0.006948 0.113919 -0.44023 0.829647 0.343342 255 255 255 255 0.447094 0.283132
0.209384 0.006948 0.065134 0 1 -0 255 255 255 255 0.447094 0.283132
0.333566 0.006948 0.113919 0 1 -0 255 255 255 255 0.447094 0.283132
-0.643626 0.006948 -1.20982 0 1 -0 255 255 255 255 0.447094 0.307221
-0.808265 0.006948 -1.37521 0 1 -0 255 255 255 255 0.447094 0.307221
-0.772775 0.006948 -1.24706 0 1 -0 255 255 255 255 0.447094 0.307221
-0.643626 0.006948 -1.20982 -0.400543 0.824976 0.398722 255 255 255 255 0.447094 0.307221
-0.734601 0.042059 -1.37385 -0.400543 0.824976 0.398722 255 255 255 255 0.447094 0.307221
-0.808265 0.006948 -1.37521 -0.400543 0.824976 0.398722 255 255 255 255 0.447094 0.307221
-0.734601 0.042059 -1.37385 0.544281 0.829646 -0.124279 255 255 255 255 0.447094 0.307221
-0.643626 0.006948 -1.20982 0.544281 0.829646 -0.124279 255 255 255 255 0.447094 0.307221
-0.695689 0.006948 -1.43783 0.544281 0.829646 -0.124279 255 255 255 255 0.447094 0.307221
-0.603908 0.006948 -1.34099 -0 1 -0 255 255 255 255 0.447094 0.307221
-0.695689 0.006948 -1.43783 -0 1 -0 255 255 255 255 0.447094 0.307221
1.20604 0.006948 -0.016512 -0 1 -0 255 255 255 255 0.447094 0.283132
1.43451 0.006948 0.031052 -0 1 -0 255 255 255 255 0.447094 0.283132
1.33438 0.006948 -0.056446 -0 1 -0 255 255 255 255 0.447094 0.283132
1.20604 0.006948 -0.016512 0.11519 0.824975 -0.553306 255 255 255 255 0.447094 0.283132
1.37225 0.042059 0.07044 0.11519 0.824975 -0.553306 255 255 255 255 0.447094 0.283132
1.43451 0.006948 0.031052 0.11519 0.824975 -0.553306 255 255 255 255 0.447094 0.283132
1.37225 0.042059 0.07044 -0.386182 0.82965 0.403168 255 255 255 255 0.447094 0.283132
1.20604 0.006948 -0.016512 -0.386182 0.82965 0.403168 255 255 255 255 0.447094 0.283132
1.37494 0.006948 0.14527 -0.386182 0.82965 0.403168 255 255 255 255 0.447094 0.283132
1.24502 0.006948 0.114882 -0 1 -0 255 255 255 255 0.447094 0.283132
1.37494 0.006948 0.14527 -0 1 -0 255 255 255 255 0.447094 0.283132
1.43422 0.032541 1.37888 -0.124102 0.970821 -0.205196 255 255 255 255 0.447094 0.283132
1.52081 0.032541 1.32651 -0.124102 0.970821 -0.205196 255 255 255 255 0.447094 0.283132
1.41017 0.006947 1.27233 -0.124102 0.970821 -0.205196 255 255 255 255 0.447094 0.283132
1.48525 0.006947 1.39647 0.271844 0.850922 0.44948 255 255 255 255 0.447094 0.283132
1.52081 0.032541 1.32651 0.271844 0.850922 0.44948 255 255 255 255 0.447094 0.283132
1.43422 0.032541 1.37888 0.271844 0.850922 0.44948 255 255 255 255 0.447094 0.283132
0.401799 0.032541 0.964963 0.22239 0.970822 -0.089705 255 255 255 255 0.447094 0.283132
0.439885 0.032541 1.05938 0.22239 0.970822 -0.089705 255 255 255 255 0.447094 0.283132
0.510755 0.006947 0.958091 0.22239 0.970822 -0.089705 255 255 255 255 0.447094 0.283132
0.376178 0.006947 1.01227 -0.487183 0.850903 0.196514 255 255 255 255 0.447094 0.283132
0.439885 0.032541 1.05938 -0.487183 0.850903 0.196514 255 255 255 255 0.447094 0.283132
0.401799 0.032541 0.964963 -0.487183 0.850903 0.196514 255 255 255 255 0.447094 0.283132
-0.692723 0.086864 1.37408 -0.126302 0.983652 0.128357 255 255 255 255 0.447094 0.283132
-0.613185 0.089901 1.42907 -0.126302 0.983652 0.128357 255 255 255 255 0.447094 0.283132
-0.65064 0.105972 1.26906 -0.126302 0.983652 0.128357 255 255 255 255 0.447094 0.283132
-0.531333 0.110526 1.35154 -0.126284 0.983654 0.12836 255 255 255 255 0.447094 0.283132
-0.543708 0.122963 1.24406 -0.126284 0.983654 0.12836 255 255 255 255 0.447094 0.283132
-0.613185 0.089901 1.42907 -0.126284 0.983654 0.12836 255 255 255 255 0.447094 0.283132
-0.543708 0.122963 1.24406 -0.126296 0.983653 0.128356 255 255 255 255 0.447094 0.283132
-0.65064 0.105972 1.26906 -0.126296 0.983653 0.128356 255 255 255 255 0.447094 0.283132
-0.613185 0.089901 1.42907 -0.126296 0.983653 0.128356 255 255 255 255 0.447094 0.283132
-1.08003 0.060537 -0.228923 -0.207437 0.977416 0.040351 255 255 255 255 0.447094 0.283132
-1.1593 0.038958 -0.11372 -0.207437 0.977416 0.040351 255 255 255 255 0.447094 0.283132
-1.06422 0.059122 -0.113382 -0.207437 0.977416 0.040351 255 255 255 255 0.447094 0.283132
-1.1593 0.038958 -0.11372 -0.207433 0.977417 0.040354 255 255 255 255 0.447094 0.283132
-1.08003 0.060537 -0.228923 -0.207433 0.977417 0.040354 255 255 255 255 0.447094 0.283132
-1.14341 0.047095 -0.229148 -0.207433 0.977417 0.040354 255 255 255 255 0.447094 0.283132
1.23399 0.066328 0.731151 0.312386 0.890639 0.330418 255 255 255 255 0.447094 0.283132
1.1413 0.0777 0.788136 0.312386 0.890639 0.330418 255 255 255 255 0.447094 0.283132
1.20294 0.034913 0.84519 0.312386 0.890639 0.330418 255 255 255 255 0.447094 0.283132
-0.66167 0.032541 -0.167374 -0.238778 0.97082 -0.022227 255 255 255 255 0.447094 0.283132
-0.652291 0.032541 -0.268132 -0.238778 0.97082 -0.022227 255 255 255 255 0.447094 0.283132
-0.761632 0.006947 -0.211396 -0.238778 0.97082 -0.022227 255 255 255 255 0.447094 0.283132
-0.617183 0.006947 -0.19795 0.523014 0.850932 0.048684 255 255 255 255 0.447094 0.283132
-0.652291 0.032541 -0.268132 0.523014 0.850932 0.048684 255 255 255 255 0.447094 0.283132
-0.66167 0.032541 -0.167374 0.523014 0.850932 0.048684 255 255 255 255 0.447094 0.283132
1.69273 0.006948 1.48848 0.032982 0.827283 -0.560817 255 255 255 255 0.447094 0.307221
1.42856 0.006948 1.47295 0.032982 0.827283 -0.560817 255 255 255 255 0.447094 0.307221
1.63342 0.042059 1.53679 0.032982 0.827283 -0.560817 255 255 255 255 0.447094 0.307221
1.5608 0.006948 1.41478 -0 1 -0 255 255 255 255 0.447094 0.307221
1.42856 0.006948 1.47295 -0 1 -0 255 255 255 255 0.447094 0.307221
1.69273 0.006948 1.48848 -0 1 -0 255 255 255 255 0.447094 0.307221
1.42856 0.006948 1.47295 -0.204232 0.9714 0.121129 255 255 255 255 0.447094 0.307221
1.50351 0.006948 1.59932 -0.204232 0.9714 0.121129 255 255 255 255 0.447094 0.307221
1.63342 0.042059 1.53679 -0.204232 0.9714 0.121129 255 255 255 255 0.447094 0.307221
1.63342 0.042059 1.53679 -0.034954 0.900675 0.433086 255 255 255 255 0.447094 0.307221
1.50351 0.006948 1.59932 -0.034954 0.900675 0.433086 255 255 255 255 0.447094 0.307221
1.65453 0.006948 1.61151 -0.034954 0.900675 0.433086 255 255 255 255 0.447094 0.307221
0.646545 0.029229 0.698162 -0.574213 0.808359 0.129751 255 255 255 255 0.447094 0.283132
0.71471 0.079517 0.686528 -0.574213 0.808359 0.129751 255 255 255 255 0.447094 0.283132
0.643431 0.045754 0.581429 -0.574213 0.808359 0.129751 255 255 255 255 0.447094 0.283132
0.770187 0.047932 0.732432 0.429162 0.897778 0.09907 255 255 255 255 0.447094 0.283132
0.759102 0.075787 0.528027 0.429162 0.897778 0.09907 255 255 255 255 0.447094 0.283132
0.71471 0.079517 0.686528 0.429162 0.897778 0.09907 255 255 255 255 0.447094 0.283132
0.828892 0.073807 0.632835 -0.186544 0.972045 0.14258 255 255 255 255 0.447094 0.283132
0.759102 0.075787 0.528027 -0.186544 0.972045 0.14258 255 255 255 255 0.447094 0.283132
0.770187 0.047932 0.732432 -0.186544 0.972045 0.14258 255 255 255 255 0.447094 0.283132
0.71471 0.079517 0.686528 -0.295049 0.949697 -0.104985 255 255 255 255 0.447094 0.283132
0.759102 0.075787 0.528027 -0.295049 0.949697 -0.104985 255 255 255 255 0.447094 0.283132
0.643431 0.045754 0.581429 -0.295049 0.949697 -0.104985 255 255 255 255 0.447094 0.283132
-1.02046 0.082591 1.21389 -0.268871 0.923049 0.275115 255 255 255 255 0.447094 0.283132
-1.16396 0.083549 1.07043 -0.268871 0.923049 0.275115 255 255 255 255 0.447094 0.283132
-1.09971 0.061478 1.20727 -0.268871 0.923049 0.275115 255 255 255 255 0.447094 0.283132
-1.02046 0.082591 1.21389 -0.233744 0.942185 0.240106 255 255 255 255 0.447094 0.283132
-1.08108 0.106495 1.06108 -0.233744 0.942185 0.240106 255 255 255 255 0.447094 0.283132
-1.16396 0.083549 1.07043 -0.233744 0.942185 0.240106 255 255 255 255 0.447094 0.283132
-1.08108 0.106495 1.06108 0.37382 0.895116 -0.242952 255 255 255 255 0.447094 0.283132
-0.94674 0.075936 1.15519 0.37382 0.895116 -0.242952 255 255 255 255 0.447094 0.283132
-1.05338 0.073566 0.982382 0.37382 0.895116 -0.242952 255 255 255 255 0.447094 0.283132
-0.933839 0.046504 1.0752 0.40008 0.87914 -0.258938 255 255 255 255 0.447094 0.283132
-1.05338 0.073566 0.982382 0.40008 0.87914 -0.258938 255 255 255 255 0.447094 0.283132
-0.94674 0.075936 1.15519 0.40008 0.87914 -0.258938 255 255 255 255 0.447094 0.283132
-1.08108 0.106495 1.06108 0.160475 0.98292 0.090094 255 255 255 255 0.447094 0.283132
-1.02046 0.082591 1.21389 0.160475 0.98292 0.090094 255 255 255 255 0.447094 0.283132
-0.94674 0.075936 1.15519 0.160475 0.98292 0.090094 255 255 255 255 0.447094 0.283132
0.484054 0.047993 0.140157 -0.022646 0.950791 0.309006 255 255 255 255 0.447094 0.283132
0.389724 0.073806 0.053819 -0.022646 0.950791 0.309006 255 255 255 255 0.447094 0.283132
0.316888 0.04382 0.140746 -0.022646 0.950791 0.309006 255 255 255 255 0.447094 0.283132
0.316888 0.04382 0.140746 -0.474863 0.874795 -0.096121 255 255 255 255 0.447094 0.283132
0.389724 0.073806 0.053819 -0.474863 0.874795 -0.096121 255 255 255 255 0.447094 0.283132
0.322003 0.036637 0.050104 -0.474863 0.874795 -0.096121 255 255 255 255 0.447094 0.283132
0.389724 0.073806 0.053819 0.431277 0.877731 -0.208779 255 255 255 255 0.447094 0.283132
0.484054 0.047993 0.140157 0.431277 0.877731 -0.208779 255 255 255 255 0.447094 0.283132
0.445243 0.036723 0.012604 0.431277 0.877731 -0.208779 255 255 255 255 0.447094 0.283132
0.167975 0.03566 1.2535 -0.145619 0.79418 0.589977 255 255 255 255 0.447094 0.283132
0.053681 0.044928 1.21282 -0.145619 0.79418 0.589977 255 255 255 255 0.447094 0.283132
0.071757 0 1.27776 -0.145619 0.79418 0.589977 255 255 255 255 0.447094 0.283132
0.167975 0.03566 1.2535 0.007554 0.979382 0.201876 255 255 255 255 0.447094 0.283132
0.197679 0.061962 1.12479 0.007554 0.979382 0.201876 255 255 255 255 0.447094 0.283132
0.053681 0.044928 1.21282 0.007554 0.979382 0.201876 255 255 255 255 0.447094 0.283132
0.006457 0 1.16671 -0.257948 0.94183 0.215452 255 255 255 255 0.447094 0.283132
0.197679 0.061962 1.12479 -0.257948 0.94183 0.215452 255 255 255 255 0.447094 0.283132
0.070027 0.03566 1.08694 -0.257948 0.94183 0.215452 255 255 255 255 0.447094 0.283132
0.053681 0.044928 1.21282 -0.362372 0.825306 -0.433079 255 255 255 255 0.447094 0.283132
0.197679 0.061962 1.12479 -0.362372 0.825306 -0.433079 255 255 255 255 0.447094 0.283132
0.006457 0 1.16671 -0.362372 0.825306 -0.433079 255 255 255 255 0.447094 0.283132
-0.343583 0.137209 1.31334 0.036758 0.766812 -0.640818 255 255 255 255 0.447094 0.283132
-0.30026 0.089582 1.25884 0.036758 0.766812 -0.640818 255 255 255 255 0.447094 0.283132
-0.516229 0.120018 1.28287 0.036758 0.766812 -0.640818 255 255 255 255 0.447094 0.283132
-0.412541 0.097281 1.2062 0.125079 0.984516 -0.122817 255 255 255 255 0.447094 0.283132
-0.516229 0.120018 1.28287 0.125079 0.984516 -0.122817 255 255 255 255 0.447094 0.283132
-0.30026 0.089582 1.25884 0.125079 0.984516 -0.122817 255 255 255 255 0.447094 0.283132
-0.323077 0.108233 1.3851 0.12508 0.984514 -0.122831 255 255 255 255 0.447094 0.283132
-0.516229 0.120018 1.28287 0.12508 0.984514 -0.122831 255 255 255 255 0.447094 0.283132
-0.446765 0.125257 1.3956 0.12508 0.984514 -0.122831 255 255 255 255 0.447094 0.283132
-0.343583 0.137209 1.31334 -0.161606 0.898165 0.408879 255 255 255 255 0.447094 0.283132
-0.516229 0.120018 1.28287 -0.161606 0.898165 0.408879 255 255 255 255 0.447094 0.283132
-0.323077 0.108233 1.3851 -0.161606 0.898165 0.408879 255 255 255 255 0.447094 0.283132
-0.441765 0.114881 1.03319 -0.400284 0.907962 -0.12401 255 255 255 255 0.447094 0.307221
-0.44702 0.14003 1.23428 -0.400284 0.907962 -0.12401 255 255 255 255 0.447094 0.307221
-0.406916 0.139277 1.09932 -0.400284 0.907962 -0.12401 255 255 255 255 0.447094 0.307221
-0.537575 0.131393 1.11917 0.060976 0.990619 -0.122293 255 255 255 255 0.447094 0.307221
-0.44702 0.14003 1.23428 0.060976 0.990619 -0.122293 255 255 255 255 0.447094 0.307221
-0.441765 0.114881 1.03319 0.060976 0.990619 -0.122293 255 255 255 255 0.447094 0.307221
-0.336498 0.088096 1.10558 0.588287 0.786543 0.1878 255 255 255 255 0.447094 0.307221
-0.44702 0.14003 1.23428 0.588287 0.786543 0.1878 255 255 255 255 0.447094 0.307221
-0.379673 0.091216 1.22776 0.588287 0.786543 0.1878 255 255 255 255 0.447094 0.307221
-0.406916 0.139277 1.09932 0.570238 0.804748 0.164955 255 255 255 255 0.447094 0.307221
-0.44702 0.14003 1.23428 0.570238 0.804748 0.164955 255 255 255 255 0.447094 0.307221
-0.336498 0.088096 1.10558 0.570238 0.804748 0.164955 255 255 255 255 0.447094 0.307221
-0.926805 0.133596 0.96368 -0.177875 0.979032 -0.099285 255 255 255 255 0.447094 0.283132
-1.02338 0.116262 0.965767 -0.177875 0.979032 -0.099285 255 255 255 255 0.447094 0.283132
-0.899821 0.153405 1.11067 -0.177875 0.979032 -0.099285 255 255 255 255 0.447094 0.283132
-1.04468 0.127404 1.1138 -0.441373 0.887806 -0.130348 255 255 255 255 0.447094 0.283132
-0.942794 0.185255 1.16282 -0.441373 0.887806 -0.130348 255 255 255 255 0.447094 0.283132
-1.02338 0.116262 0.965767 -0.441373 0.887806 -0.130348 255 255 255 255 0.447094 0.283132
-1.02338 0.116262 0.965767 0.190184 0.899744 -0.392798 255 255 255 255 0.447094 0.283132
-0.942794 0.185255 1.16282 0.190184 0.899744 -0.392798 255 255 255 255 0.447094 0.283132
-0.899821 0.153405 1.11067 0.190184 0.899744 -0.392798 255 255 255 255 0.447094 0.283132
0.646545 0.029229 0.698162 -0.574213 0.808359 0.129751 255 255 255 255 0.447094 0.283132
0.71471 0.079517 0.686528 -0.574213 0.808359 0.129751 255 255 255 255 0.447094 0.283132
0.643431 0.045754 0.581429 -0.574213 0.808359 0.129751 255 255 255 255 0.447094 0.283132
0.770187 0.047932 0.732432 0.429162 0.897778 0.09907 255 255 255 255 0.447094 0.283132
0.759102 0.075787 0.528027 0.429162 0.897778 0.09907 255 255 255 255 0.447094 0.283132
0.71471 0.079517 0.686528 0.429162 0.897778 0.09907 255 255 255 255 0.447094 0.283132
0.828892 0.073807 0.632835 -0.186544 0.972045 0.14258 255 255 255 255 0.447094 0.283132
0.759102 0.075787 0.528027 -0.186544 0.972045 0.14258 255 255 255 255 0.447094 0.283132
0.770187 0.047932 0.732432 -0.186544 0.972045 0.14258 255 255 255 255 0.447094 0.283132
0.71471 0.079517 0.686528 -0.295049 0.949697 -0.104985 255 255 255 255 0.447094 0.283132
0.759102 0.075787 0.528027 -0.295049 0.949697 -0.104985 255 255 255 255 0.447094 0.283132
0.643431 0.045754 0.581429 -0.295049 0.949697 -0.104985 255 255 255 255 0.447094 0.283132
-1.34779 0.053992 0.514326 0.263199 0.926332 0.269511 255 255 255 255 0.447094 0.283132
-1.26025 0.076916 0.35005 0.263199 0.926332 0.269511 255 255 255 255 0.447094 0.283132
-1.34996 0.075864 0.441273 0.263199 0.926332 0.269511 255 255 255 255 0.447094 0.283132
-1.23454 0.073986 0.492964 -0.164521 0.985115 0.049804 255 255 255 255 0.447094 0.283132
-1.26025 0.076916 0.35005 -0.164521 0.985115 0.049804 255 255 255 255 0.447094 0.283132
-1.34779 0.053992 0.514326 -0.164521 0.985115 0.049804 255 255 255 255 0.447094 0.283132
-1.40103 0.021422 0.399081 -0.460513 0.75318 -0.469731 255 255 255 255 0.447094 0.283132
-1.26025 0.076916 0.35005 -0.460513 0.75318 -0.469731 255 255 255 255 0.447094 0.283132
-1.3144 0.025131 0.320096 -0.460513 0.75318 -0.469731 255 255 255 255 0.447094 0.283132
-1.34996 0.075864 0.441273 -0.457935 0.771643 -0.441431 255 255 255 255 0.447094 0.283132
-1.26025 0.076916 0.35005 -0.457935 0.771643 -0.441431 255 255 255 255 0.447094 0.283132
-1.40103 0.021422 0.399081 -0.457935 0.771643 -0.441431 255 255 255 255 0.447094 0.283132
1.13288 0.033267 0.568208 -0.288724 0.891227 -0.34979 255 255 255 255 0.447094 0.283132
1.12168 0.055802 0.634876 -0.288724 0.891227 -0.34979 255 255 255 255 0.447094 0.283132
1.2452 0.058858 0.540703 -0.288724 0.891227 -0.34979 255 255 255 255 0.447094 0.283132
1.2452 0.058858 0.540703 -0.18655 0.972044 0.142582 255 255 255 255 0.447094 0.283132
1.22836 0.026958 0.736154 -0.18655 0.972044 0.142582 255 255 255 255 0.447094 0.283132
1.30885 0.054651 0.652667 -0.18655 0.972044 0.142582 255 255 255 255 0.447094 0.283132
1.2452 0.058858 0.540703 0.104569 0.980059 0.168964 255 255 255 255 0.447094 0.283132
1.12168 0.055802 0.634876 0.104569 0.980059 0.168964 255 255 255 255 0.447094 0.283132
1.22836 0.026958 0.736154 0.104569 0.980059 0.168964 255 255 255 255 0.447094 0.283132
0.993619 0.038495 0.610293 -0.197706 0.864793 -0.461568 255 255 255 255 0.447094 0.307221
0.996354 0.077454 0.682115 -0.197706 0.864793 -0.461568 255 255 255 255 0.447094 0.307221
1.10884 0.069899 0.61978 -0.197706 0.864793 -0.461568 255 255 255 255 0.447094 0.307221
0.947509 0.03045 0.730476 -0.248363 0.807919 0.5344 255 255 255 255 0.447094 0.307221
1.14983 0.085386 0.74145 -0.248363 0.807919 0.5344 255 255 255 255 0.447094 0.307221
0.996354 0.077454 0.682115 -0.248363 0.807919 0.5344 255 255 255 255 0.447094 0.307221
1.03967 0.057831 0.800055 -0.260104 0.964939 -0.03519 255 255 255 255 0.447094 0.307221
1.14983 0.085386 0.74145 -0.260104 0.964939 -0.03519 255 255 255 255 0.447094 0.307221
0.947509 0.03045 0.730476 -0.260104 0.964939 -0.03519 255 255 255 255 0.447094 0.307221
0.996354 0.077454 0.682115 -0.00282 0.992111 -0.125333 255 255 255 255 0.447094 0.307221
1.14983 0.085386 0.74145 -0.00282 0.992111 -0.125333 255 255 255 255 0.447094 0.307221
1.10884 0.069899 0.61978 -0.00282 0.992111 -0.125333 255 255 255 255 0.447094 0.307221
-0.68195 0.006948 -0.097017 -0 1 -0 255 255 255 255 0.447094 0.283132
-0.453403 0.006948 -0.144212 -0 1 -0 255 255 255 255 0.447094 0.283132
-0.580065 0.006948 -0.184686 -0 1 -0 255 255 255 255 0.447094 0.283132
-0.68195 0.006948 -0.097017 -0.114296 0.824976 -0.553489 255 255 255 255 0.447094 0.283132
-0.494875 0.042059 -0.083315 -0.114296 0.824976 -0.553489 255 255 255 255 0.447094 0.283132
-0.453403 0.006948 -0.144212 -0.114296 0.824976 -0.553489 255 255 255 255 0.447094 0.283132
-0.494875 0.042059 -0.083315 -0.194052 0.829639 0.523491 255 255 255 255 0.447094 0.283132
-0.68195 0.006948 -0.097017 -0.194052 0.829639 0.523491 255 255 255 255 0.447094 0.283132
-0.46265 0.006948 -0.015725 -0.194052 0.829639 0.523491 255 255 255 255 0.447094 0.283132
-0.593937 0.006948 0.008046 0 1 -0 255 255 255 255 0.447094 0.283132
-0.46265 0.006948 -0.015725 0 1 -0 255 255 255 255 0.447094 0.283132
-0.670213 0.006948 -0.069153 0 1 -0 255 255 255 255 0.447094 0.283132
-0.899196 0.006948 -0.024132 0 1 -0 255 255 255 255 0.447094 0.283132
-0.772925 0.006948 0.017544 0 1 -0 255 255 255 255 0.447094 0.283132
-0.670213 0.006948 -0.069153 0.109033 0.824971 0.554558 255 255 255 255 0.447094 0.283132
-0.857148 0.042059 -0.084631 0.109033 0.824971 0.554558 255 255 255 255 0.447094 0.283132
-0.899196 0.006948 -0.024132 0.109033 0.824971 0.554558 255 255 255 255 0.447094 0.283132
-0.857148 0.042059 -0.084631 0.199017 0.82965 -0.521606 255 255 255 255 0.447094 0.283132
-0.670213 0.006948 -0.069153 0.199017 0.82965 -0.521606 255 255 255 255 0.447094 0.283132
-0.888726 0.006948 -0.152526 0.199017 0.82965 -0.521606 255 255 255 255 0.447094 0.283132
-0.75722 0.006948 -0.175047 0 1 -0 255 255 255 255 0.447094 0.283132
-0.888726 0.006948 -0.152526 0 1 -0 255 255 255 255 0.447094 0.283132
0.959064 0.006948 0.959124 0 1 -0 255 255 255 255 0.447094 0.283132
1.18553 0.006948 1.01544 0 1 -0 255 255 255 255 0.447094 0.283132
1.08885 0.006948 0.924158 0 1 -0 255 255 255 255 0.447094 0.283132
0.959064 0.006948 0.959124 0.136391 0.824974 -0.548466 255 255 255 255 0.447094 0.283132
1.1218 0.042059 1.0524 0.136391 0.824974 -0.548466 255 255 255 255 0.447094 0.283132
1.18553 0.006948 1.01544 0.136391 0.824974 -0.548466 255 255 255 255 0.447094 0.283132
1.1218 0.042059 1.0524 -0.401416 0.82964 0.388024 255 255 255 255 0.447094 0.283132
0.959064 0.006948 0.959124 -0.401416 0.82964 0.388024 255 255 255 255 0.447094 0.283132
1.12161 0.006948 1.12728 -0.401416 0.82964 0.388024 255 255 255 255 0.447094 0.283132
0.992965 0.006948 1.09192 0 1 -0 255 255 255 255 0.447094 0.283132
1.12161 0.006948 1.12728 0 1 -0 255 255 255 255 0.447094 0.283132
-0.317487 0.006948 0.85969 0 1 -0 255 255 255 255 0.447094 0.283132
-0.537599 0.006948 0.937227 0 1 -0 255 255 255 255 0.447094 0.283132
-0.406638 0.006948 0.960279 0 1 -0 255 255 255 255 0.447094 0.283132
-0.317487 0.006948 0.85969 0.187777 0.824976 0.533062 255 255 255 255 0.447094 0.283132
-0.504704 0.042059 0.871301 0.187777 0.824976 0.533062 255 255 255 255 0.447094 0.283132
-0.537599 0.006948 0.937227 0.187777 0.824976 0.533062 255 255 255 255 0.447094 0.283132
-0.504704 0.042059 0.871301 0.121803 0.829646 -0.544841 255 255 255 255 0.447094 0.283132
-0.317487 0.006948 0.85969 0.121803 0.829646 -0.544841 255 255 255 255 0.447094 0.283132
-0.545733 0.006948 0.808664 0.121803 0.829646 -0.544841 255 255 255 255 0.447094 0.283132
-0.418843 0.006948 0.767434 -0 1 -0 255 255 255 255 0.447094 0.283132
-0.545733 0.006948 0.808664 -0 1 -0 255 255 255 255 0.447094 0.283132
3 0 1 2 
3 3 4 5 
3 6 7 8 
3 9 10 11 
3 12 13 14 
3 15 16 17 
3 18 19 20 
3 21 22 23 
3 24 25 26 
3 27 28 29 
3 30 31 32 
3 33 34 35 
3 36 37 38 
3 39 40 41 
3 42 43 44 
3 45 46 47 
3 48 49 50 
3 51 52 53 
3 54 55 56 
3 57 58 59 
3 60 61 62 
3 63 64 65 
3 66 67 68 
3 69 70 71 
3 72 73 74 
3 75 76 77 
3 78 79 80 
3 81 82 83 
3 84 85 86 
3 87 88 89 
3 90 91 92 
3 93 94 95 
3 96 97 98 
3 99 100 101 
3 102 103 104 
3 105 106 107 
3 108 109 110 
3 111 112 113 
3 114 115 116 
3 117 118 119 
3 120 121 122 
3 123 124 125 
3 126 127 128 
3 129 130 131 
3 132 133 134 
3 135 136 137 
3 138 139 140 
3 141 142 143 
3 144 145 146 
3 147 148 149 
3 150 151 152 
3 153 154 155 
3 156 157 158 
3 159 160 161 
3 162 163 164 
3 165 166 167 
3 168 169 170 
3 171 172 173 
3 174 175 176 
3 177 178 179 
3 180 181 182 
3 183 184 185 
3 186 187 177 
3 188 189 190 
3 191 192 193 
3 194 195 196 
3 197 198 188 
3 199 200 201 
3 202 203 204 
3 205 206 207 
3 208 209 199 
3 210 211 212 
3 213 214 215 
3 216 217 218 
3 219 220 210 
3 221 222 223 
3 224 225 226 
3 227 228 229 
3 230 231 232 
3 233 234 235 
3 236 237 238 
3 239 240 241 
3 242 243 244 
3 245 246 247 
3 248 249 250 
3 251 252 253 
3 254 255 256 
3 257 258 259 
3 260 261 262 
3 263 264 265 
3 266 267 268 
3 269 270 271 
3 272 273 274 
3 275 276 277 
3 278 279 280 
3 281 282 283 
3 284 285 286 
3 287 288 289 
3 290 291 292 
3 293 294 295 
3 296 297 298 
3 299 300 301 
3 302 303 304 
3 305 306 307 
3 308 309 310 
3 311 312 313 
3 314 315 316 
3 317 318 319 
3 320 321 322 
3 323 324 325 
3 326 327 328 
3 329 330 331 
3 332 333 334 
3 335 336 337 
3 338 339 340 
3 341 342 343 
3 344 345 346 
3 347 348 349 
3 350 351 352 
3 353 354 355 
3 356 357 358 
3 359 360 361 
3 362 363 364 
3 365 366 367 
3 368 369 370 
3 371 372 373 
3 374 375 376 
3 377 378 379 
3 380 381 382 
3 383 384 385 
3 386 387 388 
3 389 390 391 
3 392 393 394 
3 395 396 397 
3 398 399 400 
3 401 402 403 
3 404 405 395 
3 406 407 408 
3 409 410 411 
3 412 413 414 
3 415 416 406 
3 417 418 419 
3 420 421 422 
3 423 424 425 
3 426 427 417 
3 428 429 430 
3 431 432 433 
3 434 435 436 
3 437 438 428 
