ply
format ascii 1.0
comment VCGLIB generated
comment TextureFile Texture_01_A.png
element vertex 204
property float x
property float y
property float z
property float nx
property float ny
property float nz
property uchar red
property uchar green
property uchar blue
property uchar alpha
property float texture_u
property float texture_v
element face 68
property list uchar int vertex_indices
end_header
0.242043 0.065568 -0.506271 0.56739 0.819335 -0.082213 255 255 255 255 0.482822 0.252843
0.32444 -0 -0.591061 0.56739 0.819335 -0.082213 255 255 255 255 0.482822 0.252843
0.299124 -0 -0.765778 0.56739 0.819335 -0.082213 255 255 255 255 0.482822 0.252843
-0.242783 -0 -0.976051 -0.181126 0.949137 -0.25755 255 255 255 255 0.482822 0.252843
-0.439434 -0 -0.837753 -0.181126 0.949137 -0.25755 255 255 255 255 0.482822 0.252843
-0.412975 0.031894 -0.738823 -0.181126 0.949137 -0.25755 255 255 255 255 0.482822 0.252843
-0.439434 -0 -0.837753 -0.206866 0.945982 -0.249648 255 255 255 255 0.482822 0.252843
-0.497356 -0 -0.789757 -0.206866 0.945982 -0.249648 255 255 255 255 0.482822 0.252843
-0.412975 0.031894 -0.738823 -0.206866 0.945982 -0.249648 255 255 255 255 0.482822 0.252843
-0.412975 0.031894 -0.738823 0.10906 0.751165 -0.651043 255 255 255 255 0.482822 0.252843
-0.497356 -0 -0.789757 0.10906 0.751165 -0.651043 255 255 255 255 0.482822 0.252843
-0.456802 0.085212 -0.684647 0.10906 0.751165 -0.651043 255 255 255 255 0.482822 0.252843
-0.497356 -0 -0.789757 -0.53248 0.746225 -0.399516 255 255 255 255 0.482822 0.252843
-0.692451 -0 -0.529732 -0.53248 0.746225 -0.399516 255 255 255 255 0.482822 0.252843
-0.456802 0.085212 -0.684647 -0.53248 0.746225 -0.399516 255 255 255 255 0.482822 0.252843
-0.456802 0.085212 -0.684647 -0.475753 0.839713 -0.261802 255 255 255 255 0.482822 0.252843
-0.692451 -0 -0.529732 -0.475753 0.839713 -0.261802 255 255 255 255 0.482822 0.252843
-0.573116 0.093328 -0.447247 -0.475753 0.839713 -0.261802 255 255 255 255 0.482822 0.252843
0.186756 0 0.43652 0.175809 0.958437 0.224698 255 255 255 255 0.482822 0.252843
0.01153 0.056808 0.33131 0.175809 0.958437 0.224698 255 255 255 255 0.482822 0.252843
0.031482 0 0.55801 0.175809 0.958437 0.224698 255 255 255 255 0.482822 0.252843
0.031482 0 0.55801 0.286164 0.935079 0.209133 255 255 255 255 0.482822 0.252843
0.01153 0.056808 0.33131 0.286164 0.935079 0.209133 255 255 255 255 0.482822 0.252843
-0.096979 0 0.733788 0.286164 0.935079 0.209133 255 255 255 255 0.482822 0.252843
-0.6404 0.01844 -0.130856 -0.092634 0.994772 0.04299 255 255 255 255 0.482822 0.252843
-0.70417 0 0.158424 -0.092634 0.994772 0.04299 255 255 255 255 0.482822 0.252843
-0.613876 0 0.352985 -0.092634 0.994772 0.04299 255 255 255 255 0.482822 0.252843
-0.6404 0.01844 -0.130856 -0.164145 0.986076 0.026672 255 255 255 255 0.482822 0.252843
-0.774239 -0 -0.272793 -0.164145 0.986076 0.026672 255 255 255 255 0.482822 0.252843
-0.70417 0 0.158424 -0.164145 0.986076 0.026672 255 255 255 255 0.482822 0.252843
-0.610062 0.063041 -0.271011 -0.352202 0.911194 0.213728 255 255 255 255 0.482822 0.252843
-0.774239 -0 -0.272793 -0.352202 0.911194 0.213728 255 255 255 255 0.482822 0.252843
-0.6404 0.01844 -0.130856 -0.352202 0.911194 0.213728 255 255 255 255 0.482822 0.252843
-0.573116 0.093328 -0.447247 -0.618358 0.785877 0.005424 255 255 255 255 0.482822 0.252843
-0.692451 -0 -0.529732 -0.618358 0.785877 0.005424 255 255 255 255 0.482822 0.252843
-0.610062 0.063041 -0.271011 -0.618358 0.785877 0.005424 255 255 255 255 0.482822 0.252843
-0.610062 0.063041 -0.271011 -0.355097 0.927971 -0.113034 255 255 255 255 0.482822 0.252843
-0.692451 -0 -0.529732 -0.355097 0.927971 -0.113034 255 255 255 255 0.482822 0.252843
-0.774239 -0 -0.272793 -0.355097 0.927971 -0.113034 255 255 255 255 0.482822 0.252843
0.01153 0.056808 0.33131 0.226879 0.963463 0.142356 255 255 255 255 0.482822 0.252843
0.186756 0 0.43652 0.226879 0.963463 0.142356 255 255 255 255 0.482822 0.252843
0.311207 0 0.238178 0.226879 0.963463 0.142356 255 255 255 255 0.482822 0.252843
0.01153 0.056808 0.33131 0.205852 0.976296 0.066871 255 255 255 255 0.482822 0.252843
0.311207 0 0.238178 0.205852 0.976296 0.066871 255 255 255 255 0.482822 0.252843
0.197474 0.054285 -0.204256 0.205852 0.976296 0.066871 255 255 255 255 0.482822 0.252843
0.197474 0.054285 -0.204256 0.437083 0.899419 -0.002002 255 255 255 255 0.482822 0.252843
0.311207 0 0.238178 0.437083 0.899419 -0.002002 255 255 255 255 0.482822 0.252843
0.309555 -0 -0.122471 0.437083 0.899419 -0.002002 255 255 255 255 0.482822 0.252843
0.197474 0.054285 -0.204256 0.406303 0.912433 0.048818 255 255 255 255 0.482822 0.252843
0.309555 -0 -0.122471 0.406303 0.912433 0.048818 255 255 255 255 0.482822 0.252843
0.339222 -0 -0.369385 0.406303 0.912433 0.048818 255 255 255 255 0.482822 0.252843
0.339222 -0 -0.369385 0.596782 0.801416 -0.039795 255 255 255 255 0.482822 0.252843
0.32444 -0 -0.591061 0.596782 0.801416 -0.039795 255 255 255 255 0.482822 0.252843
0.242043 0.065568 -0.506271 0.596782 0.801416 -0.039795 255 255 255 255 0.482822 0.252843
0.242043 0.065568 -0.506271 0.678581 0.733638 -0.036103 255 255 255 255 0.482822 0.252843
0.299124 -0 -0.765778 0.678581 0.733638 -0.036103 255 255 255 255 0.482822 0.252843
0.218025 0.081004 -0.644035 0.678581 0.733638 -0.036103 255 255 255 255 0.482822 0.252843
0.186848 -0 -0.859337 0.181727 0.958861 -0.218083 255 255 255 255 0.482822 0.252843
0.110455 0.059157 -0.662895 0.181727 0.958861 -0.218083 255 255 255 255 0.482822 0.252843
0.299124 -0 -0.765778 0.181727 0.958861 -0.218083 255 255 255 255 0.482822 0.252843
0.299124 -0 -0.765778 -0.062779 0.811114 -0.58151 255 255 255 255 0.482822 0.252843
0.110455 0.059157 -0.662895 -0.062779 0.811114 -0.58151 255 255 255 255 0.482822 0.252843
0.218025 0.081004 -0.644035 -0.062779 0.811114 -0.58151 255 255 255 255 0.482822 0.252843
-0.242783 -0 -0.976051 0.077842 0.954901 -0.286541 255 255 255 255 0.482822 0.252843
-0.270041 0.069651 -0.751343 0.077842 0.954901 -0.286541 255 255 255 255 0.482822 0.252843
0.186848 -0 -0.859337 0.077842 0.954901 -0.286541 255 255 255 255 0.482822 0.252843
0.186848 -0 -0.859337 0.086156 0.96272 -0.256412 255 255 255 255 0.482822 0.252843
-0.270041 0.069651 -0.751343 0.086156 0.96272 -0.256412 255 255 255 255 0.482822 0.252843
0.110455 0.059157 -0.662895 0.086156 0.96272 -0.256412 255 255 255 255 0.482822 0.252843
-0.242783 -0 -0.976051 -0.268092 0.910527 -0.31475 255 255 255 255 0.482822 0.252843
-0.412975 0.031894 -0.738823 -0.268092 0.910527 -0.31475 255 255 255 255 0.482822 0.252843
-0.270041 0.069651 -0.751343 -0.268092 0.910527 -0.31475 255 255 255 255 0.482822 0.252843
-0.412975 0.031894 -0.738823 -0.225179 0.59716 -0.769867 255 255 255 255 0.482822 0.252843
-0.456802 0.085212 -0.684647 -0.225179 0.59716 -0.769867 255 255 255 255 0.482822 0.252843
-0.270041 0.069651 -0.751343 -0.225179 0.59716 -0.769867 255 255 255 255 0.482822 0.252843
-0.088803 0.080469 0.143228 0.086369 0.993137 0.078864 255 255 255 255 0.482822 0.252843
-0.219713 0.056263 0.591419 0.086369 0.993137 0.078864 255 255 255 255 0.482822 0.252843
0.01153 0.056808 0.33131 0.086369 0.993137 0.078864 255 255 255 255 0.482822 0.252843
-0.219713 0.056263 0.591419 0.214912 0.95736 0.193068 255 255 255 255 0.482822 0.252843
-0.096979 0 0.733788 0.214912 0.95736 0.193068 255 255 255 255 0.482822 0.252843
0.01153 0.056808 0.33131 0.214912 0.95736 0.193068 255 255 255 255 0.482822 0.252843
-0.219713 0.056263 0.591419 0.045322 0.941795 0.333118 255 255 255 255 0.482822 0.252843
-0.262177 0 0.756264 0.045322 0.941795 0.333118 255 255 255 255 0.482822 0.252843
-0.096979 0 0.733788 0.045322 0.941795 0.333118 255 255 255 255 0.482822 0.252843
-0.219713 0.056263 0.591419 -0.168763 0.945297 0.279164 255 255 255 255 0.482822 0.252843
-0.443607 0 0.646584 -0.168763 0.945297 0.279164 255 255 255 255 0.482822 0.252843
-0.262177 0 0.756264 -0.168763 0.945297 0.279164 255 255 255 255 0.482822 0.252843
-0.613876 0 0.352985 -0.569337 0.752885 0.33018 255 255 255 255 0.482822 0.252843
-0.443607 0 0.646584 -0.569337 0.752885 0.33018 255 255 255 255 0.482822 0.252843
-0.553257 0.041116 0.363758 -0.569337 0.752885 0.33018 255 255 255 255 0.482822 0.252843
-0.6404 0.01844 -0.130856 -0.567809 0.820791 0.062409 255 255 255 255 0.482822 0.252843
-0.613876 0 0.352985 -0.567809 0.820791 0.062409 255 255 255 255 0.482822 0.252843
-0.553257 0.041116 0.363758 -0.567809 0.820791 0.062409 255 255 255 255 0.482822 0.252843
-0.6404 0.01844 -0.130856 -0.677413 0.730576 0.085855 255 255 255 255 0.482822 0.252843
-0.553257 0.041116 0.363758 -0.677413 0.730576 0.085855 255 255 255 255 0.482822 0.252843
-0.610062 0.063041 -0.271011 -0.677413 0.730576 0.085855 255 255 255 255 0.482822 0.252843
0.01153 0.056808 0.33131 0.146443 0.98814 0.046189 255 255 255 255 0.482822 0.252843
0.197474 0.054285 -0.204256 0.146443 0.98814 0.046189 255 255 255 255 0.482822 0.252843
-0.088803 0.080469 0.143228 0.146443 0.98814 0.046189 255 255 255 255 0.482822 0.252843
0.197474 0.054285 -0.204256 0.455564 0.884538 0.100274 255 255 255 255 0.482822 0.252843
0.339222 -0 -0.369385 0.455564 0.884538 0.100274 255 255 255 255 0.482822 0.252843
0.242043 0.065568 -0.506271 0.455564 0.884538 0.100274 255 255 255 255 0.482822 0.252843
0.218025 0.081004 -0.644035 -0.221508 0.96407 0.146639 255 255 255 255 0.482822 0.252843
0.110455 0.059157 -0.662895 -0.221508 0.96407 0.146639 255 255 255 255 0.482822 0.252843
0.242043 0.065568 -0.506271 -0.221508 0.96407 0.146639 255 255 255 255 0.482822 0.252843
-0.484844 0.096769 -0.439278 -0.164198 0.982657 0.086162 255 255 255 255 0.482822 0.252843
-0.408295 0.061966 0.103522 -0.164198 0.982657 0.086162 255 255 255 255 0.482822 0.252843
-0.340477 0.139615 -0.652809 -0.164198 0.982657 0.086162 255 255 255 255 0.482822 0.252843
-0.484844 0.096769 -0.439278 -0.19829 0.975953 0.09054 255 255 255 255 0.482822 0.252843
-0.479149 0.040503 0.179701 -0.19829 0.975953 0.09054 255 255 255 255 0.482822 0.252843
-0.408295 0.061966 0.103522 -0.19829 0.975953 0.09054 255 255 255 255 0.482822 0.252843
-0.455006 0.07273 0.365753 0.255267 0.946571 -0.197085 255 255 255 255 0.482822 0.252843
-0.219713 0.056263 0.591419 0.255267 0.946571 -0.197085 255 255 255 255 0.482822 0.252843
-0.479149 0.040503 0.179701 0.255267 0.946571 -0.197085 255 255 255 255 0.482822 0.252843
-0.219713 0.056263 0.591419 -0.007107 0.993489 0.113706 255 255 255 255 0.482822 0.252843
-0.241936 0.083934 0.348259 -0.007107 0.993489 0.113706 255 255 255 255 0.482822 0.252843
-0.283804 0.094213 0.255831 -0.007107 0.993489 0.113706 255 255 255 255 0.482822 0.252843
-0.088803 0.080469 0.143228 -0.021897 0.997863 -0.061558 255 255 255 255 0.482822 0.252843
0.042667 0.056164 -0.297525 -0.021897 0.997863 -0.061558 255 255 255 255 0.482822 0.252843
-0.096608 0.067202 -0.069055 -0.021897 0.997863 -0.061558 255 255 255 255 0.482822 0.252843
0.110455 0.059157 -0.662895 0.140732 0.851963 -0.504335 255 255 255 255 0.482822 0.252843
-0.270041 0.069651 -0.751343 0.140732 0.851963 -0.504335 255 255 255 255 0.482822 0.252843
-0.340477 0.139615 -0.652809 0.140732 0.851963 -0.504335 255 255 255 255 0.482822 0.252843
-0.340477 0.139615 -0.652809 -0.401905 0.91136 -0.088857 255 255 255 255 0.482822 0.252843
-0.456802 0.085212 -0.684647 -0.401905 0.91136 -0.088857 255 255 255 255 0.482822 0.252843
-0.484844 0.096769 -0.439278 -0.401905 0.91136 -0.088857 255 255 255 255 0.482822 0.252843
-0.610062 0.063041 -0.271011 -0.143295 0.985497 0.090901 255 255 255 255 0.482822 0.252843
-0.479149 0.040503 0.179701 -0.143295 0.985497 0.090901 255 255 255 255 0.482822 0.252843
-0.484844 0.096769 -0.439278 -0.143295 0.985497 0.090901 255 255 255 255 0.482822 0.252843
-0.479149 0.040503 0.179701 -0.301622 0.945252 -0.124592 255 255 255 255 0.482822 0.252843
-0.553257 0.041116 0.363758 -0.301622 0.945252 -0.124592 255 255 255 255 0.482822 0.252843
-0.455006 0.07273 0.365753 -0.301622 0.945252 -0.124592 255 255 255 255 0.482822 0.252843
-0.553257 0.041116 0.363758 -0.291531 0.882781 0.368384 255 255 255 255 0.482822 0.252843
-0.219713 0.056263 0.591419 -0.291531 0.882781 0.368384 255 255 255 255 0.482822 0.252843
-0.455006 0.07273 0.365753 -0.291531 0.882781 0.368384 255 255 255 255 0.482822 0.252843
-0.219713 0.056263 0.591419 0.153312 0.983317 0.097887 255 255 255 255 0.482822 0.252843
-0.088803 0.080469 0.143228 0.153312 0.983317 0.097887 255 255 255 255 0.482822 0.252843
-0.241936 0.083934 0.348259 0.153312 0.983317 0.097887 255 255 255 255 0.482822 0.252843
0.197474 0.054285 -0.204256 0.038386 0.998311 -0.043601 255 255 255 255 0.482822 0.252843
0.042667 0.056164 -0.297525 0.038386 0.998311 -0.043601 255 255 255 255 0.482822 0.252843
-0.088803 0.080469 0.143228 0.038386 0.998311 -0.043601 255 255 255 255 0.482822 0.252843
0.197474 0.054285 -0.204256 -0.009517 0.999309 0.035929 255 255 255 255 0.482822 0.252843
0.242043 0.065568 -0.506271 -0.009517 0.999309 0.035929 255 255 255 255 0.482822 0.252843
0.042667 0.056164 -0.297525 -0.009517 0.999309 0.035929 255 255 255 255 0.482822 0.252843
-0.270041 0.069651 -0.751343 -0.169683 0.742225 -0.648313 255 255 255 255 0.482822 0.252843
-0.456802 0.085212 -0.684647 -0.169683 0.742225 -0.648313 255 255 255 255 0.482822 0.252843
-0.340477 0.139615 -0.652809 -0.169683 0.742225 -0.648313 255 255 255 255 0.482822 0.252843
-0.456802 0.085212 -0.684647 -0.03431 0.998113 -0.050933 255 255 255 255 0.482822 0.252843
-0.573116 0.093328 -0.447247 -0.03431 0.998113 -0.050933 255 255 255 255 0.482822 0.252843
-0.484844 0.096769 -0.439278 -0.03431 0.998113 -0.050933 255 255 255 255 0.482822 0.252843
-0.573116 0.093328 -0.447247 -0.052734 0.985968 0.158388 255 255 255 255 0.482822 0.252843
-0.610062 0.063041 -0.271011 -0.052734 0.985968 0.158388 255 255 255 255 0.482822 0.252843
-0.484844 0.096769 -0.439278 -0.052734 0.985968 0.158388 255 255 255 255 0.482822 0.252843
-0.610062 0.063041 -0.271011 0.076697 0.996673 0.027561 255 255 255 255 0.482822 0.252843
-0.553257 0.041116 0.363758 0.076697 0.996673 0.027561 255 255 255 255 0.482822 0.252843
-0.479149 0.040503 0.179701 0.076697 0.996673 0.027561 255 255 255 255 0.482822 0.252843
-0.443607 0 0.646584 -0.188581 0.958792 0.212497 255 255 255 255 0.482822 0.252843
-0.219713 0.056263 0.591419 -0.188581 0.958792 0.212497 255 255 255 255 0.482822 0.252843
-0.553257 0.041116 0.363758 -0.188581 0.958792 0.212497 255 255 255 255 0.482822 0.252843
0.242043 0.065568 -0.506271 -0.010929 0.999437 -0.031728 255 255 255 255 0.482822 0.252843
0.110455 0.059157 -0.662895 -0.010929 0.999437 -0.031728 255 255 255 255 0.482822 0.252843
-0.097132 0.065459 -0.392872 -0.010929 0.999437 -0.031728 255 255 255 255 0.482822 0.252843
0.110455 0.059157 -0.662895 0.176976 0.977679 0.113237 255 255 255 255 0.482822 0.252843
-0.340477 0.139615 -0.652809 0.176976 0.977679 0.113237 255 255 255 255 0.482822 0.252843
-0.097132 0.065459 -0.392872 0.176976 0.977679 0.113237 255 255 255 255 0.482822 0.252843
-0.340477 0.139615 -0.652809 -0.058835 0.99357 0.09673 255 255 255 255 0.482822 0.252843
-0.408295 0.061966 0.103522 -0.058835 0.99357 0.09673 255 255 255 255 0.482822 0.252843
-0.303349 0.100418 -0.22761 -0.058835 0.99357 0.09673 255 255 255 255 0.482822 0.252843
-0.479149 0.040503 0.179701 -0.271717 0.962202 0.018371 255 255 255 255 0.482822 0.252843
-0.283804 0.094213 0.255831 -0.271717 0.962202 0.018371 255 255 255 255 0.482822 0.252843
-0.408295 0.061966 0.103522 -0.271717 0.962202 0.018371 255 255 255 255 0.482822 0.252843
-0.479149 0.040503 0.179701 -0.321298 0.932176 0.166777 255 255 255 255 0.482822 0.252843
-0.219713 0.056263 0.591419 -0.321298 0.932176 0.166777 255 255 255 255 0.482822 0.252843
-0.283804 0.094213 0.255831 -0.321298 0.932176 0.166777 255 255 255 255 0.482822 0.252843
-0.241936 0.083934 0.348259 0.105962 0.992412 0.062368 255 255 255 255 0.482822 0.252843
-0.088803 0.080469 0.143228 0.105962 0.992412 0.062368 255 255 255 255 0.482822 0.252843
-0.283804 0.094213 0.255831 0.105962 0.992412 0.062368 255 255 255 255 0.482822 0.252843
-0.088803 0.080469 0.143228 0.033591 0.997412 -0.06357 255 255 255 255 0.482822 0.252843
-0.096608 0.067202 -0.069055 0.033591 0.997412 -0.06357 255 255 255 255 0.482822 0.252843
-0.283804 0.094213 0.255831 0.033591 0.997412 -0.06357 255 255 255 255 0.482822 0.252843
-0.096608 0.067202 -0.069055 0.133369 0.991051 -0.00555 255 255 255 255 0.482822 0.252843
-0.097132 0.065459 -0.392872 0.133369 0.991051 -0.00555 255 255 255 255 0.482822 0.252843
-0.283804 0.094213 0.255831 0.133369 0.991051 -0.00555 255 255 255 255 0.482822 0.252843
-0.096608 0.067202 -0.069055 0.070063 0.997527 -0.005483 255 255 255 255 0.482822 0.252843
0.042667 0.056164 -0.297525 0.070063 0.997527 -0.005483 255 255 255 255 0.482822 0.252843
-0.097132 0.065459 -0.392872 0.070063 0.997527 -0.005483 255 255 255 255 0.482822 0.252843
0.042667 0.056164 -0.297525 0.021604 0.997614 0.065577 255 255 255 255 0.482822 0.252843
0.242043 0.065568 -0.506271 0.021604 0.997614 0.065577 255 255 255 255 0.482822 0.252843
-0.097132 0.065459 -0.392872 0.021604 0.997614 0.065577 255 255 255 255 0.482822 0.252843
-0.214499 0.063776 -0.163017 0.252864 0.948603 0.190295 255 255 255 255 0.482822 0.252843
-0.303349 0.100418 -0.22761 0.252864 0.948603 0.190295 255 255 255 255 0.482822 0.252843
-0.408295 0.061966 0.103522 0.252864 0.948603 0.190295 255 255 255 255 0.482822 0.252843
-0.097132 0.065459 -0.392872 -0.224464 0.968532 -0.107523 255 255 255 255 0.482822 0.252843
-0.214499 0.063776 -0.163017 -0.224464 0.968532 -0.107523 255 255 255 255 0.482822 0.252843
-0.283804 0.094213 0.255831 -0.224464 0.968532 -0.107523 255 255 255 255 0.482822 0.252843
-0.214499 0.063776 -0.163017 0.345469 0.936747 0.056188 255 255 255 255 0.482822 0.252843
-0.340477 0.139615 -0.652809 0.345469 0.936747 0.056188 255 255 255 255 0.482822 0.252843
-0.303349 0.100418 -0.22761 0.345469 0.936747 0.056188 255 255 255 255 0.482822 0.252843
-0.097132 0.065459 -0.392872 0.187671 0.976819 0.102979 255 255 255 255 0.482822 0.252843
-0.340477 0.139615 -0.652809 0.187671 0.976819 0.102979 255 255 255 255 0.482822 0.252843
-0.214499 0.063776 -0.163017 0.187671 0.976819 0.102979 255 255 255 255 0.482822 0.252843
-0.283804 0.094213 0.255831 -0.139458 0.985689 -0.094704 255 255 255 255 0.482822 0.252843
-0.214499 0.063776 -0.163017 -0.139458 0.985689 -0.094704 255 255 255 255 0.482822 0.252843
-0.408295 0.061966 0.103522 -0.139458 0.985689 -0.094704 255 255 255 255 0.482822 0.252843
3 0 1 2 
3 3 4 5 
3 6 7 8 
3 9 10 11 
3 12 13 14 
3 15 16 17 
3 18 19 20 
3 21 22 23 
3 24 25 26 
3 27 28 29 
3 30 31 32 
3 33 34 35 
3 36 37 38 
3 39 40 41 
3 42 43 44 
3 45 46 47 
3 48 49 50 
3 51 52 53 
3 54 55 56 
3 57 58 59 
3 60 61 62 
3 63 64 65 
3 66 67 68 
3 69 70 71 
3 72 73 74 
3 75 76 77 
3 78 79 80 
3 81 82 83 
3 84 85 86 
3 87 88 89 
3 90 91 92 
3 93 94 95 
3 96 97 98 
3 99 100 101 
3 102 103 104 
3 105 106 107 
3 108 109 110 
3 111 112 113 
3 114 115 116 
3 117 118 119 
3 120 121 122 
3 123 124 125 
3 126 127 128 
3 129 130 131 
3 132 133 134 
3 135 136 137 
3 138 139 140 
3 141 142 143 
3 144 145 146 
3 147 148 149 
3 150 151 152 
3 153 154 155 
3 156 157 158 
3 159 160 161 
3 162 163 164 
3 165 166 167 
3 168 169 170 
3 171 172 173 
3 174 175 176 
3 177 178 179 
3 180 181 182 
3 183 184 185 
3 186 187 188 
3 189 190 191 
3 192 193 194 
3 195 196 197 
3 198 199 200 
3 201 202 203 
