ply
format ascii 1.0
comment VCGLIB generated
comment TextureFile Texture_01_A.png
element vertex 433
property float x
property float y
property float z
property float nx
property float ny
property float nz
property uchar red
property uchar green
property uchar blue
property uchar alpha
property float texture_u
property float texture_v
element face 176
property list uchar int vertex_indices
end_header
0 0.035105 -0.083295 -0.360146 0.319352 -0.876532 255 255 255 255 0.225683 0.31241
-0.050587 0.067855 -0.050578 -0.360146 0.319352 -0.876532 255 255 255 255 0.225683 0.31241
0 0.067855 -0.071363 -0.360146 0.319352 -0.876532 255 255 255 255 0.225683 0.31241
0 0.256732 -0 -0.117991 0.975548 -0.185428 255 255 255 255 0.34118 0.214823
-0.013842 0.257801 0.014432 -0.117991 0.975548 -0.185428 255 255 255 255 0.34118 0.214823
0.000302 0.260494 0.0196 -0.117991 0.975548 -0.185428 255 255 255 255 0.34118 0.214823
0 0.035105 0.083128 -0.360712 0.314897 0.877911 255 255 255 255 0.225683 0.31241
-0.050587 0.067855 0.050596 -0.360712 0.314897 0.877911 255 255 255 255 0.225683 0.31241
-0.058979 0.035105 0.058895 -0.360712 0.314897 0.877911 255 255 255 255 0.225683 0.31241
0 0 0 0 -1 0 255 255 255 255 0.225683 0.31241
-0.048831 0 0.048841 0 -1 0 255 255 255 255 0.225683 0.31241
-0.068896 0 9e-06 0 -1 0 255 255 255 255 0.225683 0.31241
-0.071372 0.067855 9e-06 -0.877503 0.316219 0.360545 255 255 255 255 0.225683 0.31241
-0.058979 0.035105 0.058895 -0.877503 0.316219 0.360545 255 255 255 255 0.225683 0.31241
-0.050587 0.067855 0.050596 -0.877503 0.316219 0.360545 255 255 255 255 0.225683 0.31241
0.058979 0.035105 0.058895 0.877503 0.316219 0.360545 255 255 255 255 0.225683 0.31241
0.071372 0.067855 9e-06 0.877503 0.316219 0.360545 255 255 255 255 0.225683 0.31241
0.050587 0.067855 0.050596 0.877503 0.316219 0.360545 255 255 255 255 0.225683 0.31241
0 0.035105 -0.083295 0.360145 0.319354 -0.876532 255 255 255 255 0.225683 0.31241
0.050587 0.067855 -0.050578 0.360145 0.319354 -0.876532 255 255 255 255 0.225683 0.31241
0.058979 0.035105 -0.059062 0.360145 0.319354 -0.876532 255 255 255 255 0.225683 0.31241
0.048831 0 0.048841 -0 -1 0 255 255 255 255 0.225683 0.31241
0.068896 0 9e-06 -0 -1 0 255 255 255 255 0.225683 0.31241
0.050587 0.067855 0.050596 0.360712 0.314897 0.877911 255 255 255 255 0.225683 0.31241
0 0.035105 0.083128 0.360712 0.314897 0.877911 255 255 255 255 0.225683 0.31241
0.058979 0.035105 0.058895 0.360712 0.314897 0.877911 255 255 255 255 0.225683 0.31241
0 0.256732 -0 -0.118006 0.975547 -0.185426 255 255 255 255 0.34118 0.214823
0.01427 0.260996 0.013352 -0.118006 0.975547 -0.185426 255 255 255 255 0.34118 0.214823
0.019831 0.258986 -0.000762 -0.118006 0.975547 -0.185426 255 255 255 255 0.34118 0.214823
-0.048831 -0 -0.048823 -0 -1 0 255 255 255 255 0.225683 0.31241
0 -0 -0.068886 -0 -1 0 255 255 255 255 0.225683 0.31241
0.048831 -0 -0.048823 0 -1 0 255 255 255 255 0.225683 0.31241
0.083212 0.035105 -8.4e-05 0.876935 0.318058 -0.360312 255 255 255 255 0.225683 0.31241
0.050587 0.067855 -0.050578 0.876935 0.318058 -0.360312 255 255 255 255 0.225683 0.31241
0.071372 0.067855 9e-06 0.876935 0.318058 -0.360312 255 255 255 255 0.225683 0.31241
0.013842 0.25566 -0.014432 -0.11801 0.975505 -0.185645 255 255 255 255 0.34118 0.214824
0 0.256732 -0 -0.11801 0.975505 -0.185645 255 255 255 255 0.34118 0.214823
0.019831 0.258986 -0.000762 -0.11801 0.975505 -0.185645 255 255 255 255 0.34118 0.214823
0 0.256732 -0 -0.118054 0.975538 -0.185441 255 255 255 255 0.34118 0.214823
-0.01427 0.252467 -0.013352 -0.118054 0.975538 -0.185441 255 255 255 255 0.34118 0.214824
-0.019831 0.254477 0.000762 -0.118054 0.975538 -0.185441 255 255 255 255 0.34118 0.214824
-0.083212 0.035105 -8.4e-05 -0.876935 0.318051 -0.360317 255 255 255 255 0.225683 0.31241
-0.050587 0.067855 -0.050578 -0.876935 0.318051 -0.360317 255 255 255 255 0.225683 0.31241
-0.058979 0.035105 -0.059062 -0.876935 0.318051 -0.360317 255 255 255 255 0.225683 0.31241
0 0.035105 0.083128 0.355875 -0.350935 0.866139 255 255 255 255 0.225683 0.31241
0.048831 0 0.048841 0.355875 -0.350935 0.866139 255 255 255 255 0.225683 0.31241
0.058979 0.035105 0.058895 0.355875 -0.350935 0.866139 255 255 255 255 0.225683 0.31241
0.068896 0 9e-06 0.865716 -0.352135 0.355721 255 255 255 255 0.225683 0.31241
0.058979 0.035105 0.058895 0.865716 -0.352135 0.355721 255 255 255 255 0.225683 0.31241
0.048831 0 0.048841 0.865716 -0.352135 0.355721 255 255 255 255 0.225683 0.31241
0.083212 0.035105 -8.4e-05 0.865149 -0.353774 -0.355474 255 255 255 255 0.225683 0.31241
0.048831 -0 -0.048823 0.865149 -0.353774 -0.355474 255 255 255 255 0.225683 0.31241
0.058979 0.035105 -0.059062 0.865149 -0.353774 -0.355474 255 255 255 255 0.225683 0.31241
0.048831 -0 -0.048823 0.355303 -0.354928 -0.864746 255 255 255 255 0.225683 0.31241
0 0.035105 -0.083295 0.355303 -0.354928 -0.864746 255 255 255 255 0.225683 0.31241
0.058979 0.035105 -0.059062 0.355303 -0.354928 -0.864746 255 255 255 255 0.225683 0.31241
0 0.035105 -0.083295 -0.355303 -0.354928 -0.864746 255 255 255 255 0.225683 0.31241
-0.048831 -0 -0.048823 -0.355303 -0.354928 -0.864746 255 255 255 255 0.225683 0.31241
-0.058979 0.035105 -0.059062 -0.355303 -0.354928 -0.864746 255 255 255 255 0.225683 0.31241
-0.048831 -0 -0.048823 -0.865149 -0.353774 -0.355474 255 255 255 255 0.225683 0.31241
-0.083212 0.035105 -8.4e-05 -0.865149 -0.353774 -0.355474 255 255 255 255 0.225683 0.31241
-0.058979 0.035105 -0.059062 -0.865149 -0.353774 -0.355474 255 255 255 255 0.225683 0.31241
-0.058979 0.035105 0.058895 -0.865715 -0.352135 0.355721 255 255 255 255 0.225683 0.31241
-0.068896 0 9e-06 -0.865715 -0.352135 0.355721 255 255 255 255 0.225683 0.31241
-0.048831 0 0.048841 -0.865715 -0.352135 0.355721 255 255 255 255 0.225683 0.31241
0 0.035105 0.083128 -0.355867 -0.350946 0.866139 255 255 255 255 0.225683 0.31241
-0.048831 0 0.048841 -0.355867 -0.350946 0.866139 255 255 255 255 0.225683 0.31241
0 0 0.068904 -0.355867 -0.350946 0.866139 255 255 255 255 0.225683 0.31241
-0.071372 0.067855 9e-06 -0.634372 0.727757 0.260656 255 255 255 255 0.225683 0.31241
-0.030198 0.092933 0.030198 -0.634372 0.727757 0.260656 255 255 255 255 0.225683 0.31241
-0.042606 0.092933 -0 -0.634372 0.727757 0.260656 255 255 255 255 0.225683 0.31241
0 0.067855 0.071382 -0.260632 0.727828 0.6343 255 255 255 255 0.225683 0.31241
-0.030198 0.092933 0.030198 -0.260632 0.727828 0.6343 255 255 255 255 0.225683 0.31241
-0.050587 0.067855 0.050596 -0.260632 0.727828 0.6343 255 255 255 255 0.225683 0.31241
0 0.067855 0.071382 0.260626 0.727832 0.634298 255 255 255 255 0.225683 0.31241
0.030198 0.092933 0.030198 0.260626 0.727832 0.634298 255 255 255 255 0.225683 0.31241
0 0.092933 0.042606 0.260626 0.727832 0.634298 255 255 255 255 0.225683 0.31241
0.071372 0.067855 9e-06 0.634369 0.727763 0.260647 255 255 255 255 0.225683 0.31241
0.030198 0.092933 0.030198 0.634369 0.727763 0.260647 255 255 255 255 0.225683 0.31241
0.050587 0.067855 0.050596 0.634369 0.727763 0.260647 255 255 255 255 0.225683 0.31241
0 0.067855 -0.071363 0.260708 0.727612 -0.634518 255 255 255 255 0.225683 0.31241
0.030198 0.092933 -0.030198 0.260708 0.727612 -0.634518 255 255 255 255 0.225683 0.31241
0.050587 0.067855 -0.050578 0.260708 0.727612 -0.634518 255 255 255 255 0.225683 0.31241
0.071372 0.067855 9e-06 0.634458 0.727669 -0.260692 255 255 255 255 0.225683 0.31241
0.030198 0.092933 -0.030198 0.634458 0.727669 -0.260692 255 255 255 255 0.225683 0.31241
0.042606 0.092933 -0 0.634458 0.727669 -0.260692 255 255 255 255 0.225683 0.31241
0 0.067855 -0.071363 -0.260717 0.727606 -0.634521 255 255 255 255 0.225683 0.31241
-0.030198 0.092933 -0.030198 -0.260717 0.727606 -0.634521 255 255 255 255 0.225683 0.31241
0 0.092933 -0.042606 -0.260717 0.727606 -0.634521 255 255 255 255 0.225683 0.31241
-0.071372 0.067855 9e-06 -0.634456 0.727675 -0.260683 255 255 255 255 0.225683 0.31241
-0.030198 0.092933 -0.030198 -0.634456 0.727675 -0.260683 255 255 255 255 0.225683 0.31241
-0.050587 0.067855 -0.050578 -0.634456 0.727675 -0.260683 255 255 255 255 0.225683 0.31241
-0.02528 0.119701 -0 -0.921385 0.088165 0.378518 255 255 255 255 0.225683 0.31241
-0.012502 0.199565 0.012502 -0.921385 0.088165 0.378518 255 255 255 255 0.225683 0.31241
-0.017638 0.199565 -0 -0.921385 0.088165 0.378518 255 255 255 255 0.225683 0.31241
0 0.119701 0.02528 -0.378564 0.088155 0.921367 255 255 255 255 0.225683 0.31241
-0.012502 0.199565 0.012502 -0.378564 0.088155 0.921367 255 255 255 255 0.225683 0.31241
-0.017918 0.119701 0.017918 -0.378564 0.088155 0.921367 255 255 255 255 0.225683 0.31241
0 0.119701 0.02528 0.378518 0.088165 0.921385 255 255 255 255 0.225683 0.31241
0.012502 0.199565 0.012502 0.378518 0.088165 0.921385 255 255 255 255 0.225683 0.31241
0 0.199565 0.017638 0.378518 0.088165 0.921385 255 255 255 255 0.225683 0.31241
0.02528 0.119701 -0 0.921368 0.088155 0.378564 255 255 255 255 0.225683 0.31241
0.012502 0.199565 0.012502 0.921368 0.088155 0.378564 255 255 255 255 0.225683 0.31241
0.017918 0.119701 0.017918 0.921368 0.088155 0.378564 255 255 255 255 0.225683 0.31241
0 0.119701 -0.02528 0.378564 0.088155 -0.921368 255 255 255 255 0.225683 0.31241
0.012502 0.199565 -0.012502 0.378564 0.088155 -0.921368 255 255 255 255 0.225683 0.31241
0.017918 0.119701 -0.017918 0.378564 0.088155 -0.921368 255 255 255 255 0.225683 0.31241
0.02528 0.119701 -0 0.921385 0.088165 -0.378518 255 255 255 255 0.225683 0.31241
0.012502 0.199565 -0.012502 0.921385 0.088165 -0.378518 255 255 255 255 0.225683 0.31241
0.017638 0.199565 -0 0.921385 0.088165 -0.378518 255 255 255 255 0.225683 0.31241
0 0.119701 -0.02528 -0.378518 0.088165 -0.921385 255 255 255 255 0.225683 0.31241
-0.012502 0.199565 -0.012502 -0.378518 0.088165 -0.921385 255 255 255 255 0.225683 0.31241
0 0.199565 -0.017638 -0.378518 0.088165 -0.921385 255 255 255 255 0.225683 0.31241
-0.02528 0.119701 -0 -0.921367 0.088155 -0.378564 255 255 255 255 0.225683 0.31241
-0.012502 0.199565 -0.012502 -0.921367 0.088155 -0.378564 255 255 255 255 0.225683 0.31241
-0.017918 0.119701 -0.017918 -0.921367 0.088155 -0.378564 255 255 255 255 0.225683 0.31241
-0.012502 0.199565 0.012502 -0.922473 -0.073678 0.378965 255 255 255 255 0.225683 0.31241
-0.018893 0.215278 -0 -0.922473 -0.073678 0.378965 255 255 255 255 0.225683 0.31241
-0.017638 0.199565 -0 -0.922473 -0.073678 0.378965 255 255 255 255 0.225683 0.31241
-0.012502 0.199565 0.012502 -0.379013 -0.073634 0.922457 255 255 255 255 0.225683 0.31241
0 0.215278 0.018893 -0.379013 -0.073634 0.922457 255 255 255 255 0.225683 0.31241
-0.013391 0.215278 0.013391 -0.379013 -0.073634 0.922457 255 255 255 255 0.225683 0.31241
0.012502 0.199565 0.012502 0.378965 -0.073678 0.922473 255 255 255 255 0.225683 0.31241
0 0.215278 0.018893 0.378965 -0.073678 0.922473 255 255 255 255 0.225683 0.31241
0 0.199565 0.017638 0.378965 -0.073678 0.922473 255 255 255 255 0.225683 0.31241
0.012502 0.199565 0.012502 0.922457 -0.073634 0.379013 255 255 255 255 0.225683 0.31241
0.018893 0.215278 -0 0.922457 -0.073634 0.379013 255 255 255 255 0.225683 0.31241
0.013391 0.215278 0.013391 0.922457 -0.073634 0.379013 255 255 255 255 0.225683 0.31241
0.012502 0.199565 -0.012502 0.379013 -0.073634 -0.922457 255 255 255 255 0.225683 0.31241
0 0.215278 -0.018893 0.379013 -0.073634 -0.922457 255 255 255 255 0.225683 0.31241
0.013391 0.215278 -0.013391 0.379013 -0.073634 -0.922457 255 255 255 255 0.225683 0.31241
0.012502 0.199565 -0.012502 0.922473 -0.073678 -0.378965 255 255 255 255 0.225683 0.31241
0.018893 0.215278 -0 0.922473 -0.073678 -0.378965 255 255 255 255 0.225683 0.31241
0.017638 0.199565 -0 0.922473 -0.073678 -0.378965 255 255 255 255 0.225683 0.31241
-0.012502 0.199565 -0.012502 -0.378965 -0.073678 -0.922473 255 255 255 255 0.225683 0.31241
0 0.215278 -0.018893 -0.378965 -0.073678 -0.922473 255 255 255 255 0.225683 0.31241
0 0.199565 -0.017638 -0.378965 -0.073678 -0.922473 255 255 255 255 0.225683 0.31241
-0.012502 0.199565 -0.012502 -0.922457 -0.073634 -0.379013 255 255 255 255 0.225683 0.31241
-0.018893 0.215278 -0 -0.922457 -0.073634 -0.379013 255 255 255 255 0.225683 0.31241
-0.013391 0.215278 -0.013391 -0.922457 -0.073634 -0.379013 255 255 255 255 0.225683 0.31241
-0.013391 0.215278 0.013391 0 -1 0 255 255 255 255 0.225683 0.31241
-0.024821 0.215278 -0 0 -1 0 255 255 255 255 0.225683 0.31241
-0.018893 0.215278 -0 0 -1 0 255 255 255 255 0.225683 0.31241
0 0.215278 0.024821 0 -1 -0 255 255 255 255 0.225683 0.31241
-0.017592 0.215278 0.017592 0 -1 -0 255 255 255 255 0.225683 0.31241
0.013391 0.215278 0.013391 0 -1 0 255 255 255 255 0.225683 0.31241
0 0.215278 0.018893 0 -1 0 255 255 255 255 0.225683 0.31241
0.024821 0.215278 -0 -0 -1 -0 255 255 255 255 0.225683 0.31241
0.017592 0.215278 0.017592 -0 -1 -0 255 255 255 255 0.225683 0.31241
0.013391 0.215278 -0.013391 -0 -1 0 255 255 255 255 0.225683 0.31241
0 0.215278 -0.024821 -0 -1 0 255 255 255 255 0.225683 0.31241
0.017592 0.215278 -0.017592 -0 -1 0 255 255 255 255 0.225683 0.31241
0.018893 0.215278 -0 0 -1 -0 255 255 255 255 0.225683 0.31241
-0.013391 0.215278 -0.013391 -0 -1 -0 255 255 255 255 0.225683 0.31241
0 0.215278 -0.018893 -0 -1 -0 255 255 255 255 0.225683 0.31241
-0.017592 0.215278 -0.017592 0 -1 0 255 255 255 255 0.225683 0.31241
-0.017592 0.215278 0.017592 -0.924951 0 0.380086 255 255 255 255 0.225683 0.31241
-0.024821 0.237386 -0 -0.924951 0 0.380086 255 255 255 255 0.225683 0.31241
-0.024821 0.215278 -0 -0.924951 0 0.380086 255 255 255 255 0.225683 0.31241
0 0.215278 0.024821 -0.380086 0 0.924951 255 255 255 255 0.225683 0.31241
-0.017592 0.237386 0.017592 -0.380086 0 0.924951 255 255 255 255 0.225683 0.31241
-0.017592 0.215278 0.017592 -0.380086 0 0.924951 255 255 255 255 0.225683 0.31241
0.017592 0.215278 0.017592 0.380086 0 0.924951 255 255 255 255 0.225683 0.31241
0 0.237386 0.024821 0.380086 0 0.924951 255 255 255 255 0.225683 0.31241
0 0.215278 0.024821 0.380086 0 0.924951 255 255 255 255 0.225683 0.31241
0.024821 0.215278 -0 0.924951 0 0.380086 255 255 255 255 0.225683 0.31241
0.017592 0.237386 0.017592 0.924951 0 0.380086 255 255 255 255 0.225683 0.31241
0.017592 0.215278 0.017592 0.924951 0 0.380086 255 255 255 255 0.225683 0.31241
0 0.215278 -0.024821 0.380086 -0 -0.924951 255 255 255 255 0.225683 0.31241
0.017592 0.237386 -0.017592 0.380086 -0 -0.924951 255 255 255 255 0.225683 0.31241
0.017592 0.215278 -0.017592 0.380086 -0 -0.924951 255 255 255 255 0.225683 0.31241
0.017592 0.215278 -0.017592 0.924951 -0 -0.380086 255 255 255 255 0.225683 0.31241
0.024821 0.237386 -0 0.924951 -0 -0.380086 255 255 255 255 0.225683 0.31241
0.024821 0.215278 -0 0.924951 -0 -0.380086 255 255 255 255 0.225683 0.31241
-0.017592 0.215278 -0.017592 -0.380086 -0 -0.924951 255 255 255 255 0.225683 0.31241
0 0.237386 -0.024821 -0.380086 -0 -0.924951 255 255 255 255 0.225683 0.31241
0 0.215278 -0.024821 -0.380086 -0 -0.924951 255 255 255 255 0.225683 0.31241
-0.024821 0.215278 -0 -0.924951 -0 -0.380086 255 255 255 255 0.225683 0.31241
-0.017592 0.237386 -0.017592 -0.924951 -0 -0.380086 255 255 255 255 0.225683 0.31241
-0.017592 0.215278 -0.017592 -0.924951 -0 -0.380086 255 255 255 255 0.225683 0.31241
-0.024821 0.237386 -0 0 1 -0 255 255 255 255 0.225683 0.31241
-0.011692 0.237386 0.011692 0 1 -0 255 255 255 255 0.225683 0.31241
-0.016496 0.237386 -0 0 1 -0 255 255 255 255 0.225683 0.31241
0 0.237386 0.024821 -0 1 0 255 255 255 255 0.225683 0.31241
-0.017592 0.237386 0.017592 -0 1 0 255 255 255 255 0.225683 0.31241
0.011692 0.237386 0.011692 -0 1 -0 255 255 255 255 0.225683 0.31241
0 0.237386 0.016496 -0 1 -0 255 255 255 255 0.225683 0.31241
0.024821 0.237386 -0 0 1 0 255 255 255 255 0.225683 0.31241
0.017592 0.237386 0.017592 0 1 0 255 255 255 255 0.225683 0.31241
0 0.237386 -0.024821 0 1 0 255 255 255 255 0.225683 0.31241
0.011692 0.237386 -0.011692 0 1 0 255 255 255 255 0.225683 0.31241
0.017592 0.237386 -0.017592 0 1 0 255 255 255 255 0.225683 0.31241
0.016496 0.237386 -0 -0 1 0 255 255 255 255 0.225683 0.31241
-0.011692 0.237386 -0.011692 0 1 0 255 255 255 255 0.225683 0.31241
0 0.237386 -0.016496 0 1 0 255 255 255 255 0.225683 0.31241
-0.017592 0.237386 -0.017592 0 1 -0 255 255 255 255 0.225683 0.31241
-0.011692 0.237386 0.011692 -0.907449 -0.193696 0.372852 255 255 255 255 0.34118 0.214824
-0.019831 0.254477 0.000762 -0.907449 -0.193696 0.372852 255 255 255 255 0.34118 0.214824
-0.016496 0.237386 -0 -0.907449 -0.193696 0.372852 255 255 255 255 0.34118 0.214824
0 0.237386 0.016496 -0.375029 -0.162001 0.912748 255 255 255 255 0.34118 0.214824
-0.013842 0.257801 0.014432 -0.375029 -0.162001 0.912748 255 255 255 255 0.34118 0.214823
-0.011692 0.237386 0.011692 -0.375029 -0.162001 0.912748 255 255 255 255 0.34118 0.214824
0.011692 0.237386 0.011692 0.376916 -0.128148 0.91734 255 255 255 255 0.34118 0.214824
0.000302 0.260494 0.0196 0.376916 -0.128148 0.91734 255 255 255 255 0.34118 0.214823
0 0.237386 0.016496 0.376916 -0.128148 0.91734 255 255 255 255 0.34118 0.214824
0.011692 0.237386 0.011692 0.916596 -0.126745 0.379194 255 255 255 255 0.34118 0.214824
0.019831 0.258986 -0.000762 0.916596 -0.126745 0.379194 255 255 255 255 0.34118 0.214823
0.01427 0.260996 0.013352 0.916596 -0.126745 0.379194 255 255 255 255 0.34118 0.214823
0.011692 0.237386 -0.011692 0.367647 -0.180056 -0.912368 255 255 255 255 0.34118 0.214824
-0.000302 0.252967 -0.0196 0.367647 -0.180056 -0.912368 255 255 255 255 0.34118 0.214824
0.013842 0.25566 -0.014432 0.367647 -0.180056 -0.912368 255 255 255 255 0.34118 0.214824
0.016496 0.237386 -0 0.918212 -0.154635 -0.364657 255 255 255 255 0.34118 0.214824
0.013842 0.25566 -0.014432 0.918212 -0.154635 -0.364657 255 255 255 255 0.34118 0.214824
0.019831 0.258986 -0.000762 0.918212 -0.154635 -0.364657 255 255 255 255 0.34118 0.214823
-0.011692 0.237386 -0.011692 -0.373257 -0.188211 -0.908436 255 255 255 255 0.34118 0.214824
-0.000302 0.252967 -0.0196 -0.373257 -0.188211 -0.908436 255 255 255 255 0.34118 0.214824
0 0.237386 -0.016496 -0.373257 -0.188211 -0.908436 255 255 255 255 0.34118 0.214824
-0.016496 0.237386 -0 -0.907013 -0.196069 -0.372673 255 255 255 255 0.34118 0.214824
-0.01427 0.252467 -0.013352 -0.907013 -0.196069 -0.372673 255 255 255 255 0.34118 0.214824
-0.011692 0.237386 -0.011692 -0.907013 -0.196069 -0.372673 255 255 255 255 0.34118 0.214824
0.042606 0.092933 -0 0.793609 0.513667 0.326084 255 255 255 255 0.225683 0.31241
0.017918 0.119701 0.017918 0.793609 0.513667 0.326084 255 255 255 255 0.225683 0.31241
0.030198 0.092933 0.030198 0.793609 0.513667 0.326084 255 255 255 255 0.225683 0.31241
0.042606 0.092933 -0 0.793609 0.513675 -0.326071 255 255 255 255 0.225683 0.31241
0.017918 0.119701 -0.017918 0.793609 0.513675 -0.326071 255 255 255 255 0.225683 0.31241
0.02528 0.119701 -0 0.793609 0.513675 -0.326071 255 255 255 255 0.225683 0.31241
0 0.092933 -0.042606 0.326085 0.513667 -0.793609 255 255 255 255 0.225683 0.31241
0.017918 0.119701 -0.017918 0.326085 0.513667 -0.793609 255 255 255 255 0.225683 0.31241
0.030198 0.092933 -0.030198 0.326085 0.513667 -0.793609 255 255 255 255 0.225683 0.31241
0 0.092933 -0.042606 -0.326071 0.513675 -0.793609 255 255 255 255 0.225683 0.31241
-0.017918 0.119701 -0.017918 -0.326071 0.513675 -0.793609 255 255 255 255 0.225683 0.31241
0 0.119701 -0.02528 -0.326071 0.513675 -0.793609 255 255 255 255 0.225683 0.31241
-0.042606 0.092933 -0 -0.793609 0.513667 -0.326085 255 255 255 255 0.225683 0.31241
-0.017918 0.119701 -0.017918 -0.793609 0.513667 -0.326085 255 255 255 255 0.225683 0.31241
-0.030198 0.092933 -0.030198 -0.793609 0.513667 -0.326085 255 255 255 255 0.225683 0.31241
-0.042606 0.092933 -0 -0.793609 0.513676 0.326071 255 255 255 255 0.225683 0.31241
-0.017918 0.119701 0.017918 -0.793609 0.513676 0.326071 255 255 255 255 0.225683 0.31241
-0.02528 0.119701 -0 -0.793609 0.513676 0.326071 255 255 255 255 0.225683 0.31241
0 0.092933 0.042606 -0.326084 0.513667 0.793609 255 255 255 255 0.225683 0.31241
-0.017918 0.119701 0.017918 -0.326084 0.513667 0.793609 255 255 255 255 0.225683 0.31241
-0.030198 0.092933 0.030198 -0.326084 0.513667 0.793609 255 255 255 255 0.225683 0.31241
0 0.092933 0.042606 0.326072 0.513676 0.793609 255 255 255 255 0.225683 0.31241
0.017918 0.119701 0.017918 0.326072 0.513676 0.793609 255 255 255 255 0.225683 0.31241
0 0.119701 0.02528 0.326072 0.513676 0.793609 255 255 255 255 0.225683 0.31241
0 0.035105 -0.083295 -0.360145 0.319354 -0.876532 255 255 255 255 0.225683 0.31241
-0.058979 0.035105 -0.059062 -0.360145 0.319354 -0.876532 255 255 255 255 0.225683 0.31241
-0.050587 0.067855 -0.050578 -0.360145 0.319354 -0.876532 255 255 255 255 0.225683 0.31241
0 0.256732 -0 -0.118055 0.975529 -0.185489 255 255 255 255 0.34118 0.214823
-0.019831 0.254477 0.000762 -0.118055 0.975529 -0.185489 255 255 255 255 0.34118 0.214824
-0.013842 0.257801 0.014432 -0.118055 0.975529 -0.185489 255 255 255 255 0.34118 0.214823
0 0.035105 0.083128 -0.360731 0.314869 0.877913 255 255 255 255 0.225683 0.31241
0 0.067855 0.071382 -0.360731 0.314869 0.877913 255 255 255 255 0.225683 0.31241
-0.050587 0.067855 0.050596 -0.360731 0.314869 0.877913 255 255 255 255 0.225683 0.31241
0 0 0.068904 0 -1 0 255 255 255 255 0.225683 0.31241
-0.071372 0.067855 9e-06 -0.877504 0.316218 0.360545 255 255 255 255 0.225683 0.31241
-0.083212 0.035105 -8.4e-05 -0.877504 0.316218 0.360545 255 255 255 255 0.225683 0.31241
-0.058979 0.035105 0.058895 -0.877504 0.316218 0.360545 255 255 255 255 0.225683 0.31241
0.058979 0.035105 0.058895 0.877504 0.316218 0.360545 255 255 255 255 0.225683 0.31241
0.083212 0.035105 -8.4e-05 0.877504 0.316218 0.360545 255 255 255 255 0.225683 0.31241
0.071372 0.067855 9e-06 0.877504 0.316218 0.360545 255 255 255 255 0.225683 0.31241
0 0.035105 -0.083295 0.360146 0.319352 -0.876532 255 255 255 255 0.225683 0.31241
0 0.067855 -0.071363 0.360146 0.319352 -0.876532 255 255 255 255 0.225683 0.31241
0.050587 0.067855 -0.050578 0.360146 0.319352 -0.876532 255 255 255 255 0.225683 0.31241
0.050587 0.067855 0.050596 0.360731 0.314869 0.877913 255 255 255 255 0.225683 0.31241
0 0.067855 0.071382 0.360731 0.314869 0.877913 255 255 255 255 0.225683 0.31241
0 0.035105 0.083128 0.360731 0.314869 0.877913 255 255 255 255 0.225683 0.31241
0 0.256732 -0 -0.118005 0.975547 -0.185427 255 255 255 255 0.34118 0.214823
0.000302 0.260494 0.0196 -0.118005 0.975547 -0.185427 255 255 255 255 0.34118 0.214823
0.01427 0.260996 0.013352 -0.118005 0.975547 -0.185427 255 255 255 255 0.34118 0.214823
0.083212 0.035105 -8.4e-05 0.876935 0.318051 -0.360317 255 255 255 255 0.225683 0.31241
0.058979 0.035105 -0.059062 0.876935 0.318051 -0.360317 255 255 255 255 0.225683 0.31241
0.050587 0.067855 -0.050578 0.876935 0.318051 -0.360317 255 255 255 255 0.225683 0.31241
0.013842 0.25566 -0.014432 -0.117934 0.975528 -0.185573 255 255 255 255 0.34118 0.214824
-0.000302 0.252967 -0.0196 -0.117934 0.975528 -0.185573 255 255 255 255 0.34118 0.214824
0 0.256732 -0 -0.117934 0.975528 -0.185573 255 255 255 255 0.34118 0.214823
0 0.256732 -0 -0.117928 0.975528 -0.185573 255 255 255 255 0.34118 0.214823
-0.000302 0.252967 -0.0196 -0.117928 0.975528 -0.185573 255 255 255 255 0.34118 0.214824
-0.01427 0.252467 -0.013352 -0.117928 0.975528 -0.185573 255 255 255 255 0.34118 0.214824
-0.083212 0.035105 -8.4e-05 -0.876935 0.318058 -0.360312 255 255 255 255 0.225683 0.31241
-0.071372 0.067855 9e-06 -0.876935 0.318058 -0.360312 255 255 255 255 0.225683 0.31241
-0.050587 0.067855 -0.050578 -0.876935 0.318058 -0.360312 255 255 255 255 0.225683 0.31241
0 0.035105 0.083128 0.355867 -0.350946 0.866139 255 255 255 255 0.225683 0.31241
0 0 0.068904 0.355867 -0.350946 0.866139 255 255 255 255 0.225683 0.31241
0.048831 0 0.048841 0.355867 -0.350946 0.866139 255 255 255 255 0.225683 0.31241
0.068896 0 9e-06 0.865732 -0.352108 0.355708 255 255 255 255 0.225683 0.31241
0.083212 0.035105 -8.4e-05 0.865732 -0.352108 0.355708 255 255 255 255 0.225683 0.31241
0.058979 0.035105 0.058895 0.865732 -0.352108 0.355708 255 255 255 255 0.225683 0.31241
0.083212 0.035105 -8.4e-05 0.86515 -0.353755 -0.355489 255 255 255 255 0.225683 0.31241
0.068896 0 9e-06 0.86515 -0.353755 -0.355489 255 255 255 255 0.225683 0.31241
0.048831 -0 -0.048823 0.86515 -0.353755 -0.355489 255 255 255 255 0.225683 0.31241
0.048831 -0 -0.048823 0.355294 -0.354939 -0.864745 255 255 255 255 0.225683 0.31241
0 -0 -0.068886 0.355294 -0.354939 -0.864745 255 255 255 255 0.225683 0.31241
0 0.035105 -0.083295 0.355294 -0.354939 -0.864745 255 255 255 255 0.225683 0.31241
0 0.035105 -0.083295 -0.355294 -0.354939 -0.864745 255 255 255 255 0.225683 0.31241
0 -0 -0.068886 -0.355294 -0.354939 -0.864745 255 255 255 255 0.225683 0.31241
-0.048831 -0 -0.048823 -0.355294 -0.354939 -0.864745 255 255 255 255 0.225683 0.31241
-0.048831 -0 -0.048823 -0.86515 -0.353755 -0.355489 255 255 255 255 0.225683 0.31241
-0.068896 0 9e-06 -0.86515 -0.353755 -0.355489 255 255 255 255 0.225683 0.31241
-0.083212 0.035105 -8.4e-05 -0.86515 -0.353755 -0.355489 255 255 255 255 0.225683 0.31241
-0.058979 0.035105 0.058895 -0.865732 -0.352108 0.355708 255 255 255 255 0.225683 0.31241
-0.083212 0.035105 -8.4e-05 -0.865732 -0.352108 0.355708 255 255 255 255 0.225683 0.31241
-0.068896 0 9e-06 -0.865732 -0.352108 0.355708 255 255 255 255 0.225683 0.31241
0 0.035105 0.083128 -0.355875 -0.350935 0.866139 255 255 255 255 0.225683 0.31241
-0.058979 0.035105 0.058895 -0.355875 -0.350935 0.866139 255 255 255 255 0.225683 0.31241
-0.048831 0 0.048841 -0.355875 -0.350935 0.866139 255 255 255 255 0.225683 0.31241
-0.071372 0.067855 9e-06 -0.634369 0.727763 0.260647 255 255 255 255 0.225683 0.31241
-0.050587 0.067855 0.050596 -0.634369 0.727763 0.260647 255 255 255 255 0.225683 0.31241
-0.030198 0.092933 0.030198 -0.634369 0.727763 0.260647 255 255 255 255 0.225683 0.31241
0 0.067855 0.071382 -0.260626 0.727832 0.634298 255 255 255 255 0.225683 0.31241
0 0.092933 0.042606 -0.260626 0.727832 0.634298 255 255 255 255 0.225683 0.31241
-0.030198 0.092933 0.030198 -0.260626 0.727832 0.634298 255 255 255 255 0.225683 0.31241
0 0.067855 0.071382 0.260632 0.727828 0.6343 255 255 255 255 0.225683 0.31241
0.050587 0.067855 0.050596 0.260632 0.727828 0.6343 255 255 255 255 0.225683 0.31241
0.030198 0.092933 0.030198 0.260632 0.727828 0.6343 255 255 255 255 0.225683 0.31241
0.071372 0.067855 9e-06 0.634372 0.727757 0.260656 255 255 255 255 0.225683 0.31241
0.042606 0.092933 -0 0.634372 0.727757 0.260656 255 255 255 255 0.225683 0.31241
0.030198 0.092933 0.030198 0.634372 0.727757 0.260656 255 255 255 255 0.225683 0.31241
0 0.067855 -0.071363 0.260717 0.727606 -0.634521 255 255 255 255 0.225683 0.31241
0 0.092933 -0.042606 0.260717 0.727606 -0.634521 255 255 255 255 0.225683 0.31241
0.030198 0.092933 -0.030198 0.260717 0.727606 -0.634521 255 255 255 255 0.225683 0.31241
0.071372 0.067855 9e-06 0.634456 0.727675 -0.260683 255 255 255 255 0.225683 0.31241
0.050587 0.067855 -0.050578 0.634456 0.727675 -0.260683 255 255 255 255 0.225683 0.31241
0.030198 0.092933 -0.030198 0.634456 0.727675 -0.260683 255 255 255 255 0.225683 0.31241
0 0.067855 -0.071363 -0.260708 0.727612 -0.634518 255 255 255 255 0.225683 0.31241
-0.050587 0.067855 -0.050578 -0.260708 0.727612 -0.634518 255 255 255 255 0.225683 0.31241
-0.030198 0.092933 -0.030198 -0.260708 0.727612 -0.634518 255 255 255 255 0.225683 0.31241
-0.071372 0.067855 9e-06 -0.634458 0.727669 -0.260692 255 255 255 255 0.225683 0.31241
-0.042606 0.092933 -0 -0.634458 0.727669 -0.260692 255 255 255 255 0.225683 0.31241
-0.030198 0.092933 -0.030198 -0.634458 0.727669 -0.260692 255 255 255 255 0.225683 0.31241
-0.02528 0.119701 -0 -0.921368 0.088155 0.378564 255 255 255 255 0.225683 0.31241
-0.017918 0.119701 0.017918 -0.921368 0.088155 0.378564 255 255 255 255 0.225683 0.31241
-0.012502 0.199565 0.012502 -0.921368 0.088155 0.378564 255 255 255 255 0.225683 0.31241
0 0.119701 0.02528 -0.378518 0.088165 0.921385 255 255 255 255 0.225683 0.31241
0 0.199565 0.017638 -0.378518 0.088165 0.921385 255 255 255 255 0.225683 0.31241
-0.012502 0.199565 0.012502 -0.378518 0.088165 0.921385 255 255 255 255 0.225683 0.31241
0 0.119701 0.02528 0.378564 0.088155 0.921367 255 255 255 255 0.225683 0.31241
0.017918 0.119701 0.017918 0.378564 0.088155 0.921367 255 255 255 255 0.225683 0.31241
0.012502 0.199565 0.012502 0.378564 0.088155 0.921367 255 255 255 255 0.225683 0.31241
0.02528 0.119701 -0 0.921385 0.088165 0.378518 255 255 255 255 0.225683 0.31241
0.017638 0.199565 -0 0.921385 0.088165 0.378518 255 255 255 255 0.225683 0.31241
0.012502 0.199565 0.012502 0.921385 0.088165 0.378518 255 255 255 255 0.225683 0.31241
0 0.119701 -0.02528 0.378518 0.088165 -0.921385 255 255 255 255 0.225683 0.31241
0 0.199565 -0.017638 0.378518 0.088165 -0.921385 255 255 255 255 0.225683 0.31241
0.012502 0.199565 -0.012502 0.378518 0.088165 -0.921385 255 255 255 255 0.225683 0.31241
0.02528 0.119701 -0 0.921368 0.088155 -0.378564 255 255 255 255 0.225683 0.31241
0.017918 0.119701 -0.017918 0.921368 0.088155 -0.378564 255 255 255 255 0.225683 0.31241
0.012502 0.199565 -0.012502 0.921368 0.088155 -0.378564 255 255 255 255 0.225683 0.31241
0 0.119701 -0.02528 -0.378564 0.088155 -0.921368 255 255 255 255 0.225683 0.31241
-0.017918 0.119701 -0.017918 -0.378564 0.088155 -0.921368 255 255 255 255 0.225683 0.31241
-0.012502 0.199565 -0.012502 -0.378564 0.088155 -0.921368 255 255 255 255 0.225683 0.31241
-0.02528 0.119701 -0 -0.921385 0.088165 -0.378518 255 255 255 255 0.225683 0.31241
-0.017638 0.199565 -0 -0.921385 0.088165 -0.378518 255 255 255 255 0.225683 0.31241
-0.012502 0.199565 -0.012502 -0.921385 0.088165 -0.378518 255 255 255 255 0.225683 0.31241
-0.012502 0.199565 0.012502 -0.922457 -0.073634 0.379013 255 255 255 255 0.225683 0.31241
-0.013391 0.215278 0.013391 -0.922457 -0.073634 0.379013 255 255 255 255 0.225683 0.31241
-0.018893 0.215278 -0 -0.922457 -0.073634 0.379013 255 255 255 255 0.225683 0.31241
-0.012502 0.199565 0.012502 -0.378965 -0.073678 0.922473 255 255 255 255 0.225683 0.31241
0 0.199565 0.017638 -0.378965 -0.073678 0.922473 255 255 255 255 0.225683 0.31241
0 0.215278 0.018893 -0.378965 -0.073678 0.922473 255 255 255 255 0.225683 0.31241
0.012502 0.199565 0.012502 0.379013 -0.073634 0.922457 255 255 255 255 0.225683 0.31241
0.013391 0.215278 0.013391 0.379013 -0.073634 0.922457 255 255 255 255 0.225683 0.31241
0 0.215278 0.018893 0.379013 -0.073634 0.922457 255 255 255 255 0.225683 0.31241
0.012502 0.199565 0.012502 0.922473 -0.073678 0.378965 255 255 255 255 0.225683 0.31241
0.017638 0.199565 -0 0.922473 -0.073678 0.378965 255 255 255 255 0.225683 0.31241
0.018893 0.215278 -0 0.922473 -0.073678 0.378965 255 255 255 255 0.225683 0.31241
0.012502 0.199565 -0.012502 0.378965 -0.073678 -0.922473 255 255 255 255 0.225683 0.31241
0 0.199565 -0.017638 0.378965 -0.073678 -0.922473 255 255 255 255 0.225683 0.31241
0 0.215278 -0.018893 0.378965 -0.073678 -0.922473 255 255 255 255 0.225683 0.31241
0.012502 0.199565 -0.012502 0.922457 -0.073634 -0.379013 255 255 255 255 0.225683 0.31241
0.013391 0.215278 -0.013391 0.922457 -0.073634 -0.379013 255 255 255 255 0.225683 0.31241
0.018893 0.215278 -0 0.922457 -0.073634 -0.379013 255 255 255 255 0.225683 0.31241
-0.012502 0.199565 -0.012502 -0.379013 -0.073634 -0.922457 255 255 255 255 0.225683 0.31241
-0.013391 0.215278 -0.013391 -0.379013 -0.073634 -0.922457 255 255 255 255 0.225683 0.31241
0 0.215278 -0.018893 -0.379013 -0.073634 -0.922457 255 255 255 255 0.225683 0.31241
-0.012502 0.199565 -0.012502 -0.922473 -0.073678 -0.378965 255 255 255 255 0.225683 0.31241
-0.017638 0.199565 -0 -0.922473 -0.073678 -0.378965 255 255 255 255 0.225683 0.31241
-0.018893 0.215278 -0 -0.922473 -0.073678 -0.378965 255 255 255 255 0.225683 0.31241
-0.017592 0.237386 0.017592 -0.924951 0 0.380086 255 255 255 255 0.225683 0.31241
0 0.237386 0.024821 -0.380086 0 0.924951 255 255 255 255 0.225683 0.31241
0.017592 0.237386 0.017592 0.380086 0 0.924951 255 255 255 255 0.225683 0.31241
0.024821 0.237386 -0 0.924951 0 0.380086 255 255 255 255 0.225683 0.31241
0 0.237386 -0.024821 0.380086 -0 -0.924951 255 255 255 255 0.225683 0.31241
0.017592 0.237386 -0.017592 0.924951 -0 -0.380086 255 255 255 255 0.225683 0.31241
-0.017592 0.237386 -0.017592 -0.380086 -0 -0.924951 255 255 255 255 0.225683 0.31241
-0.024821 0.237386 -0 -0.924951 -0 -0.380086 255 255 255 255 0.225683 0.31241
-0.011692 0.237386 0.011692 -0.891376 -0.151224 0.427295 255 255 255 255 0.34118 0.214824
-0.013842 0.257801 0.014432 -0.891376 -0.151224 0.427295 255 255 255 255 0.34118 0.214823
-0.019831 0.254477 0.000762 -0.891376 -0.151224 0.427295 255 255 255 255 0.34118 0.214824
0 0.237386 0.016496 -0.320051 -0.122018 0.93951 255 255 255 255 0.34118 0.214824
0.000302 0.260494 0.0196 -0.320051 -0.122018 0.93951 255 255 255 255 0.34118 0.214823
-0.013842 0.257801 0.014432 -0.320051 -0.122018 0.93951 255 255 255 255 0.34118 0.214823
0.011692 0.237386 0.011692 0.409158 -0.108377 0.906004 255 255 255 255 0.34118 0.214824
0.01427 0.260996 0.013352 0.409158 -0.108377 0.906004 255 255 255 255 0.34118 0.214823
0.000302 0.260494 0.0196 0.409158 -0.108377 0.906004 255 255 255 255 0.34118 0.214823
0.011692 0.237386 0.011692 0.917317 -0.128336 0.376907 255 255 255 255 0.34118 0.214824
0.016496 0.237386 -0 0.917317 -0.128336 0.376907 255 255 255 255 0.34118 0.214824
0.019831 0.258986 -0.000762 0.917317 -0.128336 0.376907 255 255 255 255 0.34118 0.214823
0.011692 0.237386 -0.011692 0.374239 -0.174198 -0.910824 255 255 255 255 0.34118 0.214824
0 0.237386 -0.016496 0.374239 -0.174198 -0.910824 255 255 255 255 0.34118 0.214824
-0.000302 0.252967 -0.0196 0.374239 -0.174198 -0.910824 255 255 255 255 0.34118 0.214824
0.016496 0.237386 -0 0.912507 -0.163577 -0.37493 255 255 255 255 0.34118 0.214824
0.011692 0.237386 -0.011692 0.912507 -0.163577 -0.37493 255 255 255 255 0.34118 0.214824
0.013842 0.25566 -0.014432 0.912507 -0.163577 -0.37493 255 255 255 255 0.34118 0.214824
-0.011692 0.237386 -0.011692 -0.397572 -0.167269 -0.902196 255 255 255 255 0.34118 0.214824
-0.01427 0.252467 -0.013352 -0.397572 -0.167269 -0.902196 255 255 255 255 0.34118 0.214824
-0.000302 0.252967 -0.0196 -0.397572 -0.167269 -0.902196 255 255 255 255 0.34118 0.214824
-0.016496 0.237386 -0 -0.925383 -0.165366 -0.341057 255 255 255 255 0.34118 0.214824
-0.019831 0.254477 0.000762 -0.925383 -0.165366 -0.341057 255 255 255 255 0.34118 0.214824
-0.01427 0.252467 -0.013352 -0.925383 -0.165366 -0.341057 255 255 255 255 0.34118 0.214824
0.042606 0.092933 -0 0.793609 0.513676 0.326071 255 255 255 255 0.225683 0.31241
0.02528 0.119701 -0 0.793609 0.513676 0.326071 255 255 255 255 0.225683 0.31241
0.017918 0.119701 0.017918 0.793609 0.513676 0.326071 255 255 255 255 0.225683 0.31241
0.042606 0.092933 -0 0.793609 0.513667 -0.326085 255 255 255 255 0.225683 0.31241
0.030198 0.092933 -0.030198 0.793609 0.513667 -0.326085 255 255 255 255 0.225683 0.31241
0.017918 0.119701 -0.017918 0.793609 0.513667 -0.326085 255 255 255 255 0.225683 0.31241
0 0.092933 -0.042606 0.326071 0.513675 -0.793609 255 255 255 255 0.225683 0.31241
0 0.119701 -0.02528 0.326071 0.513675 -0.793609 255 255 255 255 0.225683 0.31241
0.017918 0.119701 -0.017918 0.326071 0.513675 -0.793609 255 255 255 255 0.225683 0.31241
0 0.092933 -0.042606 -0.326085 0.513667 -0.793609 255 255 255 255 0.225683 0.31241
-0.030198 0.092933 -0.030198 -0.326085 0.513667 -0.793609 255 255 255 255 0.225683 0.31241
-0.017918 0.119701 -0.017918 -0.326085 0.513667 -0.793609 255 255 255 255 0.225683 0.31241
-0.042606 0.092933 -0 -0.793609 0.513675 -0.326071 255 255 255 255 0.225683 0.31241
-0.02528 0.119701 -0 -0.793609 0.513675 -0.326071 255 255 255 255 0.225683 0.31241
-0.017918 0.119701 -0.017918 -0.793609 0.513675 -0.326071 255 255 255 255 0.225683 0.31241
-0.042606 0.092933 -0 -0.793609 0.513667 0.326084 255 255 255 255 0.225683 0.31241
-0.030198 0.092933 0.030198 -0.793609 0.513667 0.326084 255 255 255 255 0.225683 0.31241
-0.017918 0.119701 0.017918 -0.793609 0.513667 0.326084 255 255 255 255 0.225683 0.31241
0 0.092933 0.042606 -0.326072 0.513676 0.793609 255 255 255 255 0.225683 0.31241
0 0.119701 0.02528 -0.326072 0.513676 0.793609 255 255 255 255 0.225683 0.31241
-0.017918 0.119701 0.017918 -0.326072 0.513676 0.793609 255 255 255 255 0.225683 0.31241
0 0.092933 0.042606 0.326084 0.513667 0.793609 255 255 255 255 0.225683 0.31241
0.030198 0.092933 0.030198 0.326084 0.513667 0.793609 255 255 255 255 0.225683 0.31241
0.017918 0.119701 0.017918 0.326084 0.513667 0.793609 255 255 255 255 0.225683 0.31241
3 0 1 2 
3 3 4 5 
3 6 7 8 
3 9 10 11 
3 12 13 14 
3 15 16 17 
3 18 19 20 
3 21 9 22 
3 23 24 25 
3 26 27 28 
3 9 29 30 
3 9 31 22 
3 32 33 34 
3 35 36 37 
3 38 39 40 
3 41 42 43 
3 44 45 46 
3 47 48 49 
3 50 51 52 
3 53 54 55 
3 56 57 58 
3 59 60 61 
3 62 63 64 
3 65 66 67 
3 68 69 70 
3 71 72 73 
3 74 75 76 
3 77 78 79 
3 80 81 82 
3 83 84 85 
3 86 87 88 
3 89 90 91 
3 92 93 94 
3 95 96 97 
3 98 99 100 
3 101 102 103 
3 104 105 106 
3 107 108 109 
3 110 111 112 
3 113 114 115 
3 116 117 118 
3 119 120 121 
3 122 123 124 
3 125 126 127 
3 128 129 130 
3 131 132 133 
3 134 135 136 
3 137 138 139 
3 140 141 142 
3 140 143 144 
3 145 143 146 
3 145 147 148 
3 149 150 151 
3 149 147 152 
3 153 150 154 
3 153 141 155 
3 156 157 158 
3 159 160 161 
3 162 163 164 
3 165 166 167 
3 168 169 170 
3 171 172 173 
3 174 175 176 
3 177 178 179 
3 180 181 182 
3 183 181 184 
3 183 185 186 
3 187 185 188 
3 189 190 191 
3 187 190 192 
3 189 193 194 
3 180 193 195 
3 196 197 198 
3 199 200 201 
3 202 203 204 
3 205 206 207 
3 208 209 210 
3 211 212 213 
3 214 215 216 
3 217 218 219 
3 220 221 222 
3 223 224 225 
3 226 227 228 
3 229 230 231 
3 232 233 234 
3 235 236 237 
3 238 239 240 
3 241 242 243 
3 244 245 246 
3 247 248 249 
3 250 251 252 
3 9 253 10 
3 254 255 256 
3 257 258 259 
3 260 261 262 
3 21 253 9 
3 263 264 265 
3 266 267 268 
3 9 11 29 
3 9 30 31 
3 269 270 271 
3 272 273 274 
3 275 276 277 
3 278 279 280 
3 281 282 283 
3 284 285 286 
3 287 288 289 
3 290 291 292 
3 293 294 295 
3 296 297 298 
3 299 300 301 
3 302 303 304 
3 305 306 307 
3 308 309 310 
3 311 312 313 
3 314 315 316 
3 317 318 319 
3 320 321 322 
3 323 324 325 
3 326 327 328 
3 329 330 331 
3 332 333 334 
3 335 336 337 
3 338 339 340 
3 341 342 343 
3 344 345 346 
3 347 348 349 
3 350 351 352 
3 353 354 355 
3 356 357 358 
3 359 360 361 
3 362 363 364 
3 365 366 367 
3 368 369 370 
3 371 372 373 
3 374 375 376 
3 140 144 141 
3 140 146 143 
3 145 148 143 
3 145 152 147 
3 149 154 150 
3 149 151 147 
3 153 155 150 
3 153 142 141 
3 156 377 157 
3 159 378 160 
3 162 379 163 
3 165 380 166 
3 168 381 169 
3 171 382 172 
3 174 383 175 
3 177 384 178 
3 180 184 181 
3 183 186 181 
3 183 188 185 
3 187 192 185 
3 189 194 190 
3 187 191 190 
3 189 195 193 
3 180 182 193 
3 385 386 387 
3 388 389 390 
3 391 392 393 
3 394 395 396 
3 397 398 399 
3 400 401 402 
3 403 404 405 
3 406 407 408 
3 409 410 411 
3 412 413 414 
3 415 416 417 
3 418 419 420 
3 421 422 423 
3 424 425 426 
3 427 428 429 
3 430 431 432 
