ply
format ascii 1.0
comment VCGLIB generated
comment TextureFile Texture_01_A.png
element vertex 248
property float x
property float y
property float z
property float nx
property float ny
property float nz
property uchar red
property uchar green
property uchar blue
property uchar alpha
property float texture_u
property float texture_v
element face 132
property list uchar int vertex_indices
end_header
0.004567 0 0.060754 -0.587789 0 0.809014 255 255 255 255 0.39839 0.283245
-0.027373 0.029851 0.037548 -0.587789 0 0.809014 255 255 255 255 0.39839 0.283245
-0.027373 0 0.037548 -0.587789 0 0.809014 255 255 255 255 0.39839 0.283245
0.044047 0 0.060753 2.5e-05 0 1 255 255 255 255 0.39839 0.283245
0.004567 0.029851 0.060754 2.5e-05 0 1 255 255 255 255 0.39839 0.283245
0.004567 0 0.060754 2.5e-05 0 1 255 255 255 255 0.39839 0.283245
0.075987 0 0.037548 0.587773 0 0.809026 255 255 255 255 0.39839 0.283245
0.044047 0.029851 0.060753 0.587773 0 0.809026 255 255 255 255 0.39839 0.283245
0.044047 0 0.060753 0.587773 0 0.809026 255 255 255 255 0.39839 0.283245
0.088187 0 0 0.951057 0 0.309015 255 255 255 255 0.39839 0.283245
0.075987 0.029851 0.037548 0.951057 0 0.309015 255 255 255 255 0.39839 0.283245
0.075987 0 0.037548 0.951057 0 0.309015 255 255 255 255 0.39839 0.283245
0.075988 -0 -0.037548 0.951065 -0 -0.308992 255 255 255 255 0.39839 0.283245
0.088187 0.029851 -0 0.951065 -0 -0.308992 255 255 255 255 0.39839 0.283245
0.088187 0 0 0.951065 -0 -0.308992 255 255 255 255 0.39839 0.283245
0.044047 -0 -0.060753 0.58776 -0 -0.809035 255 255 255 255 0.39839 0.283245
0.075988 0.029851 -0.037548 0.58776 -0 -0.809035 255 255 255 255 0.39839 0.283245
0.075988 -0 -0.037548 0.58776 -0 -0.809035 255 255 255 255 0.39839 0.283245
0.004567 -0 -0.060753 0 -0 -1 255 255 255 255 0.39839 0.283245
0.044047 0.029851 -0.060753 0 -0 -1 255 255 255 255 0.39839 0.283245
0.044047 -0 -0.060753 0 -0 -1 255 255 255 255 0.39839 0.283245
-0.027373 -0 -0.037548 -0.587772 -0 -0.809026 255 255 255 255 0.39839 0.283245
0.004567 0.029851 -0.060753 -0.587772 -0 -0.809026 255 255 255 255 0.39839 0.283245
0.004567 -0 -0.060753 -0.587772 -0 -0.809026 255 255 255 255 0.39839 0.283245
-0.088187 0.006376 -0.01803 -0.951063 -0 -0.308997 255 255 255 255 0.39839 0.283245
-0.077301 0.023475 -0.051536 -0.951063 -0 -0.308997 255 255 255 255 0.39839 0.283245
-0.077301 0.006376 -0.051536 -0.951063 -0 -0.308997 255 255 255 255 0.39839 0.283245
-0.027373 0 0.037548 -0.951057 0 0.309015 255 255 255 255 0.39839 0.283245
-0.039573 0.029851 -0 -0.951057 0 0.309015 255 255 255 255 0.39839 0.283245
-0.039573 0 0 -0.951057 0 0.309015 255 255 255 255 0.39839 0.283245
0.004567 0 0.060754 0 -1 0 255 255 255 255 0.39839 0.283245
-0.027373 0 0.037548 0 -1 0 255 255 255 255 0.39839 0.283245
0.024307 0 0 0 -1 0 255 255 255 255 0.39839 0.283245
0.044047 0 0.060753 -0 -1 0 255 255 255 255 0.39839 0.283245
0.075987 0 0.037548 0 -1 0 255 255 255 255 0.39839 0.283245
0.088187 0 0 0 -1 0 255 255 255 255 0.39839 0.283245
0.075988 -0 -0.037548 0 -1 0 255 255 255 255 0.39839 0.283245
0.044047 -0 -0.060753 -0 -1 0 255 255 255 255 0.39839 0.283245
0.004567 -0 -0.060753 0 -1 0 255 255 255 255 0.39839 0.283245
-0.027373 -0 -0.037548 0 -1 0 255 255 255 255 0.39839 0.283245
-0.039573 0 0 0 -1 0 255 255 255 255 0.39839 0.283245
-0.00944 0.022929 0.024519 0 1 -0 255 255 255 255 0.361146 0.211105
0.011417 0.022929 0.039672 0 1 -0 255 255 255 255 0.361146 0.211105
0.024307 0.022929 -0 0 1 -0 255 255 255 255 0.361146 0.211105
0.011417 0.022929 0.039672 0 1 -0 255 255 255 255 0.406447 0.254957
0.037198 0.022929 0.039672 0 1 -0 255 255 255 255 0.406447 0.254957
0.024307 0.022929 -0 0 1 -0 255 255 255 255 0.406447 0.254957
0.037198 0.022929 0.039672 -0 1 -0 255 255 255 255 0.361146 0.211105
0.058054 0.022929 0.024519 -0 1 -0 255 255 255 255 0.361146 0.211105
0.058054 0.022929 0.024519 0 1 -0 255 255 255 255 0.364885 0.16624
0.066021 0.022929 -0 0 1 -0 255 255 255 255 0.364885 0.16624
0.024307 0.022929 -0 0 1 -0 255 255 255 255 0.364885 0.16624
0.066021 0.022929 -0 0 1 -0 255 255 255 255 0.361146 0.211105
0.058054 0.022929 -0.024519 0 1 -0 255 255 255 255 0.361146 0.211105
0.058054 0.022929 -0.024519 0 1 -0 255 255 255 255 0.364885 0.16624
0.037197 0.022929 -0.039672 0 1 -0 255 255 255 255 0.364886 0.16624
0.037197 0.022929 -0.039672 0 1 -0 255 255 255 255 0.361146 0.211105
0.011417 0.022929 -0.039672 0 1 -0 255 255 255 255 0.361146 0.211105
0.011417 0.022929 -0.039672 -0 1 -0 255 255 255 255 0.364886 0.16624
-0.00944 0.022929 -0.024519 -0 1 -0 255 255 255 255 0.364885 0.16624
-0.00944 0.022929 -0.024519 0 1 -0 255 255 255 255 0.361146 0.211105
-0.017407 0.022929 -0 0 1 -0 255 255 255 255 0.361146 0.211105
-0.017407 0.022929 -0 0 1 -0 255 255 255 255 0.364885 0.16624
-0.00944 0.022929 0.024519 0 1 -0 255 255 255 255 0.364885 0.16624
0.004567 0.029851 0.060754 -0 1 -0 255 255 255 255 0.39839 0.283245
-0.016135 0.029851 0.029383 -0 1 -0 255 255 255 255 0.39839 0.283245
-0.027373 0.029851 0.037548 -0 1 -0 255 255 255 255 0.39839 0.283245
0.044047 0.029851 0.060753 -0 1 -0 255 255 255 255 0.39839 0.283245
0.00886 0.029851 0.047543 -0 1 -0 255 255 255 255 0.39839 0.283245
0.075987 0.029851 0.037548 0 1 -0 255 255 255 255 0.39839 0.283245
0.039755 0.029851 0.047543 0 1 -0 255 255 255 255 0.39839 0.283245
0.074297 0.029851 -0 0 1 -0 255 255 255 255 0.39839 0.283245
0.064749 0.029851 0.029383 0 1 -0 255 255 255 255 0.39839 0.283245
0.075988 0.029851 -0.037548 0 1 -0 255 255 255 255 0.39839 0.283245
0.088187 0.029851 -0 0 1 -0 255 255 255 255 0.39839 0.283245
0.044047 0.029851 -0.060753 -0 1 -0 255 255 255 255 0.39839 0.283245
0.064749 0.029851 -0.029383 -0 1 -0 255 255 255 255 0.39839 0.283245
0.00886 0.029851 -0.047543 0 1 -0 255 255 255 255 0.39839 0.283245
0.039755 0.029851 -0.047543 0 1 -0 255 255 255 255 0.39839 0.283245
0.004567 0.029851 -0.060753 -0 1 -0 255 255 255 255 0.39839 0.283245
-0.016135 0.029851 -0.029383 -0 1 -0 255 255 255 255 0.39839 0.283245
-0.039573 0.029851 -0 0 1 -0 255 255 255 255 0.39839 0.283245
-0.027373 0.029851 -0.037548 0 1 -0 255 255 255 255 0.39839 0.283245
-0.025682 0.029851 -0 0 1 -0 255 255 255 255 0.39839 0.283245
-0.016135 0.029851 0.029383 0.388179 0.750894 -0.5343 255 255 255 255 0.39839 0.283245
0.011417 0.022929 0.039672 0.388179 0.750894 -0.5343 255 255 255 255 0.39839 0.283245
-0.00944 0.022929 0.024519 0.388179 0.750894 -0.5343 255 255 255 255 0.39839 0.283245
0.00886 0.029851 0.047543 0 0.750925 -0.660387 255 255 255 255 0.39839 0.283245
0.037198 0.022929 0.039672 0 0.750925 -0.660387 255 255 255 255 0.39839 0.283245
0.011417 0.022929 0.039672 0 0.750925 -0.660387 255 255 255 255 0.39839 0.283245
0.064749 0.029851 0.029383 -0.388186 0.750912 -0.534268 255 255 255 255 0.39839 0.283245
0.037198 0.022929 0.039672 -0.388186 0.750912 -0.534268 255 255 255 255 0.39839 0.283245
0.039755 0.029851 0.047543 -0.388186 0.750912 -0.534268 255 255 255 255 0.39839 0.283245
0.064749 0.029851 0.029383 -0.62809 0.750901 -0.204086 255 255 255 255 0.39839 0.283245
0.066021 0.022929 -0 -0.62809 0.750901 -0.204086 255 255 255 255 0.39839 0.283245
0.058054 0.022929 0.024519 -0.62809 0.750901 -0.204086 255 255 255 255 0.39839 0.283245
0.064749 0.029851 -0.029383 -0.628066 0.75092 0.20409 255 255 255 255 0.39839 0.283245
0.066021 0.022929 -0 -0.628066 0.75092 0.20409 255 255 255 255 0.39839 0.283245
0.074297 0.029851 -0 -0.628066 0.75092 0.20409 255 255 255 255 0.39839 0.283245
0.039755 0.029851 -0.047543 -0.388195 0.750898 0.534281 255 255 255 255 0.39839 0.283245
0.058054 0.022929 -0.024519 -0.388195 0.750898 0.534281 255 255 255 255 0.39839 0.283245
0.064749 0.029851 -0.029383 -0.388195 0.750898 0.534281 255 255 255 255 0.39839 0.283245
0.00886 0.029851 -0.047543 0 0.750926 0.660387 255 255 255 255 0.39839 0.283245
0.037197 0.022929 -0.039672 0 0.750926 0.660387 255 255 255 255 0.39839 0.283245
0.039755 0.029851 -0.047543 0 0.750926 0.660387 255 255 255 255 0.39839 0.283245
-0.016135 0.029851 -0.029383 0.388174 0.750915 0.534274 255 255 255 255 0.39839 0.283245
0.011417 0.022929 -0.039672 0.388174 0.750915 0.534274 255 255 255 255 0.39839 0.283245
0.00886 0.029851 -0.047543 0.388174 0.750915 0.534274 255 255 255 255 0.39839 0.283245
-0.016135 0.029851 -0.029383 0.62809 0.750901 0.204086 255 255 255 255 0.39839 0.283245
-0.017407 0.022929 -0 0.62809 0.750901 0.204086 255 255 255 255 0.39839 0.283245
-0.00944 0.022929 -0.024519 0.62809 0.750901 0.204086 255 255 255 255 0.39839 0.283245
-0.016135 0.029851 0.029383 0.628111 0.750884 -0.204083 255 255 255 255 0.39839 0.283245
-0.017407 0.022929 -0 0.628111 0.750884 -0.204083 255 255 255 255 0.39839 0.283245
-0.025682 0.029851 -0 0.628111 0.750884 -0.204083 255 255 255 255 0.39839 0.283245
-0.039573 0 0 -0.941783 -0.13931 -0.306002 255 255 255 255 0.39839 0.283245
-0.032156 0.010624 -0.027664 -0.941783 -0.13931 -0.306002 255 255 255 255 0.39839 0.283245
-0.027373 -0 -0.037548 -0.941783 -0.13931 -0.306002 255 255 255 255 0.39839 0.283245
-0.039573 0 0 -0.984267 -0 -0.176689 255 255 255 255 0.39839 0.283245
-0.037633 0.019227 -0.010807 -0.984267 -0 -0.176689 255 255 255 255 0.39839 0.283245
-0.037633 0.010624 -0.010807 -0.984267 -0 -0.176689 255 255 255 255 0.39839 0.283245
-0.039573 0.029851 -0 -0.941788 0.139291 -0.305996 255 255 255 255 0.39839 0.283245
-0.032156 0.019227 -0.027664 -0.941788 0.139291 -0.305996 255 255 255 255 0.39839 0.283245
-0.037633 0.019227 -0.010807 -0.941788 0.139291 -0.305996 255 255 255 255 0.39839 0.283245
-0.027373 -0 -0.037548 -0.900144 -0 -0.435592 255 255 255 255 0.39839 0.283245
-0.032156 0.019227 -0.027664 -0.900144 -0 -0.435592 255 255 255 255 0.39839 0.283245
-0.027373 0.029851 -0.037548 -0.900144 -0 -0.435592 255 255 255 255 0.39839 0.283245
-0.032156 0.010624 -0.027664 -0 -1 0 255 255 255 255 0.39839 0.283245
-0.047539 0.010624 -0.014026 -0 -1 0 255 255 255 255 0.39839 0.283245
-0.042062 0.010624 -0.030883 -0 -1 0 255 255 255 255 0.39839 0.283245
-0.037633 0.019227 -0.010807 -0.309047 0 0.951047 255 255 255 255 0.39839 0.283245
-0.047539 0.010624 -0.014026 -0.309047 0 0.951047 255 255 255 255 0.39839 0.283245
-0.037633 0.010624 -0.010807 -0.309047 0 0.951047 255 255 255 255 0.39839 0.283245
-0.032156 0.019227 -0.027664 0 1 -0 255 255 255 255 0.39839 0.283245
-0.047539 0.019227 -0.014026 0 1 -0 255 255 255 255 0.39839 0.283245
-0.037633 0.019227 -0.010807 0 1 -0 255 255 255 255 0.39839 0.283245
-0.032156 0.010624 -0.027664 0.309047 -0 -0.951047 255 255 255 255 0.39839 0.283245
-0.042062 0.019227 -0.030883 0.309047 -0 -0.951047 255 255 255 255 0.39839 0.283245
-0.032156 0.019227 -0.027664 0.309047 -0 -0.951047 255 255 255 255 0.39839 0.283245
-0.042062 0.010624 -0.030883 0.89712 -0.331962 0.291507 255 255 255 255 0.39839 0.283245
-0.051666 0.006376 -0.006164 0.89712 -0.331962 0.291507 255 255 255 255 0.39839 0.283245
-0.040779 0.006376 -0.039669 0.89712 -0.331962 0.291507 255 255 255 255 0.39839 0.283245
-0.047539 0.019227 -0.014026 0.885423 0 0.464785 255 255 255 255 0.39839 0.283245
-0.051666 0.006376 -0.006164 0.885423 0 0.464785 255 255 255 255 0.39839 0.283245
-0.047539 0.010624 -0.014026 0.885423 0 0.464785 255 255 255 255 0.39839 0.283245
-0.042062 0.019227 -0.030883 0.897084 0.33209 0.291471 255 255 255 255 0.39839 0.283245
-0.051666 0.023475 -0.006164 0.897084 0.33209 0.291471 255 255 255 255 0.39839 0.283245
-0.047539 0.019227 -0.014026 0.897084 0.33209 0.291471 255 255 255 255 0.39839 0.283245
-0.042062 0.010624 -0.030883 0.989505 0 0.144495 255 255 255 255 0.39839 0.283245
-0.040779 0.023475 -0.039669 0.989505 0 0.144495 255 255 255 255 0.39839 0.283245
-0.042062 0.019227 -0.030883 0.989505 0 0.144495 255 255 255 255 0.39839 0.283245
-0.051666 0.023475 -0.006164 -0.309008 0 0.95106 255 255 255 255 0.39839 0.283245
-0.088187 0.006376 -0.01803 -0.309008 0 0.95106 255 255 255 255 0.39839 0.283245
-0.051666 0.006376 -0.006164 -0.309008 0 0.95106 255 255 255 255 0.39839 0.283245
-0.040779 0.006376 -0.039669 0.309024 -0 -0.951054 255 255 255 255 0.39839 0.283245
-0.077301 0.023475 -0.051536 0.309024 -0 -0.951054 255 255 255 255 0.39839 0.283245
-0.040779 0.023475 -0.039669 0.309024 -0 -0.951054 255 255 255 255 0.39839 0.283245
-0.051666 0.006376 -0.006164 -0 -1 0 255 255 255 255 0.39839 0.283245
-0.050094 0.006376 -0.035417 -0 -1 0 255 255 255 255 0.39839 0.283245
-0.040779 0.006376 -0.039669 -0 -1 0 255 255 255 255 0.39839 0.283245
-0.088187 0.006376 -0.01803 0 -1 0 255 255 255 255 0.39839 0.283245
-0.056703 0.006376 -0.015079 0 -1 0 255 255 255 255 0.39839 0.283245
-0.072264 0.006376 -0.042621 -0 -1 0 255 255 255 255 0.39839 0.283245
-0.078872 0.006376 -0.022282 -0 -1 0 255 255 255 255 0.39839 0.283245
-0.077301 0.006376 -0.051536 0 -1 0 255 255 255 255 0.39839 0.283245
-0.051666 0.023475 -0.006164 0 1 -0 255 255 255 255 0.39839 0.283245
-0.050094 0.023475 -0.035417 0 1 -0 255 255 255 255 0.39839 0.283245
-0.056703 0.023475 -0.015079 0 1 -0 255 255 255 255 0.39839 0.283245
-0.040779 0.023475 -0.039669 -0 1 -0 255 255 255 255 0.39839 0.283245
-0.072264 0.023475 -0.042621 -0 1 -0 255 255 255 255 0.39839 0.283245
-0.088187 0.023475 -0.01803 -0 1 -0 255 255 255 255 0.39839 0.283245
-0.077301 0.023475 -0.051536 -0 1 -0 255 255 255 255 0.39839 0.283245
-0.078872 0.023475 -0.022282 -0 1 -0 255 255 255 255 0.39839 0.283245
-0.072264 0.006376 -0.042621 0.951064 0 0.308994 255 255 255 255 0.39839 0.283245
-0.078872 0.023475 -0.022282 0.951064 0 0.308994 255 255 255 255 0.39839 0.283245
-0.078872 0.006376 -0.022282 0.951064 0 0.308994 255 255 255 255 0.39839 0.283245
-0.050094 0.006376 -0.035417 -0.309038 0 0.95105 255 255 255 255 0.39839 0.283245
-0.072264 0.023475 -0.042621 -0.309038 0 0.95105 255 255 255 255 0.39839 0.283245
-0.072264 0.006376 -0.042621 -0.309038 0 0.95105 255 255 255 255 0.39839 0.283245
-0.056703 0.023475 -0.015079 -0.951046 -0 -0.30905 255 255 255 255 0.39839 0.283245
-0.050094 0.006376 -0.035417 -0.951046 -0 -0.30905 255 255 255 255 0.39839 0.283245
-0.056703 0.006376 -0.015079 -0.951046 -0 -0.30905 255 255 255 255 0.39839 0.283245
-0.078872 0.023475 -0.022282 0.309011 -0 -0.951058 255 255 255 255 0.39839 0.283245
-0.056703 0.006376 -0.015079 0.309011 -0 -0.951058 255 255 255 255 0.39839 0.283245
-0.078872 0.006376 -0.022282 0.309011 -0 -0.951058 255 255 255 255 0.39839 0.283245
0.004567 0.029851 0.060754 -0.587789 0 0.809014 255 255 255 255 0.39839 0.283245
0.044047 0.029851 0.060753 2.5e-05 0 1 255 255 255 255 0.39839 0.283245
0.075987 0.029851 0.037548 0.587773 0 0.809026 255 255 255 255 0.39839 0.283245
0.088187 0.029851 -0 0.951057 0 0.309015 255 255 255 255 0.39839 0.283245
0.075988 0.029851 -0.037548 0.951065 -0 -0.308992 255 255 255 255 0.39839 0.283245
0.044047 0.029851 -0.060753 0.58776 -0 -0.809035 255 255 255 255 0.39839 0.283245
0.004567 0.029851 -0.060753 -0 -0 -1 255 255 255 255 0.39839 0.283245
-0.027373 0.029851 -0.037548 -0.587772 -0 -0.809026 255 255 255 255 0.39839 0.283245
-0.088187 0.023475 -0.01803 -0.951063 -0 -0.308997 255 255 255 255 0.39839 0.283245
-0.027373 0.029851 0.037548 -0.951057 0 0.309015 255 255 255 255 0.39839 0.283245
-0.016135 0.029851 0.029383 0.388174 0.750914 -0.534274 255 255 255 255 0.39839 0.283245
0.00886 0.029851 0.047543 0.388174 0.750914 -0.534274 255 255 255 255 0.39839 0.283245
0.011417 0.022929 0.039672 0.388174 0.750914 -0.534274 255 255 255 255 0.39839 0.283245
0.039755 0.029851 0.047543 0 0.750925 -0.660387 255 255 255 255 0.39839 0.283245
0.064749 0.029851 0.029383 -0.388189 0.750896 -0.534289 255 255 255 255 0.39839 0.283245
0.058054 0.022929 0.024519 -0.388189 0.750896 -0.534289 255 255 255 255 0.39839 0.283245
0.037198 0.022929 0.039672 -0.388189 0.750896 -0.534289 255 255 255 255 0.39839 0.283245
0.064749 0.029851 0.029383 -0.628066 0.75092 -0.20409 255 255 255 255 0.39839 0.283245
0.074297 0.029851 -0 -0.628066 0.75092 -0.20409 255 255 255 255 0.39839 0.283245
0.066021 0.022929 -0 -0.628066 0.75092 -0.20409 255 255 255 255 0.39839 0.283245
0.064749 0.029851 -0.029383 -0.628089 0.750901 0.204086 255 255 255 255 0.39839 0.283245
0.058054 0.022929 -0.024519 -0.628089 0.750901 0.204086 255 255 255 255 0.39839 0.283245
0.066021 0.022929 -0 -0.628089 0.750901 0.204086 255 255 255 255 0.39839 0.283245
0.039755 0.029851 -0.047543 -0.388147 0.750941 0.534256 255 255 255 255 0.39839 0.283245
0.037197 0.022929 -0.039672 -0.388147 0.750941 0.534256 255 255 255 255 0.39839 0.283245
0.058054 0.022929 -0.024519 -0.388147 0.750941 0.534256 255 255 255 255 0.39839 0.283245
0.011417 0.022929 -0.039672 0 0.750926 0.660387 255 255 255 255 0.39839 0.283245
-0.016135 0.029851 -0.029383 0.388178 0.750894 0.534299 255 255 255 255 0.39839 0.283245
-0.00944 0.022929 -0.024519 0.388178 0.750894 0.534299 255 255 255 255 0.39839 0.283245
0.011417 0.022929 -0.039672 0.388178 0.750894 0.534299 255 255 255 255 0.39839 0.283245
-0.016135 0.029851 -0.029383 0.628111 0.750884 0.204083 255 255 255 255 0.39839 0.283245
-0.025682 0.029851 -0 0.628111 0.750884 0.204083 255 255 255 255 0.39839 0.283245
-0.017407 0.022929 -0 0.628111 0.750884 0.204083 255 255 255 255 0.39839 0.283245
-0.016135 0.029851 0.029383 0.62809 0.750901 -0.204086 255 255 255 255 0.39839 0.283245
-0.00944 0.022929 0.024519 0.62809 0.750901 -0.204086 255 255 255 255 0.39839 0.283245
-0.017407 0.022929 -0 0.62809 0.750901 -0.204086 255 255 255 255 0.39839 0.283245
-0.039573 0 0 -0.941788 -0.139291 -0.305996 255 255 255 255 0.39839 0.283245
-0.037633 0.010624 -0.010807 -0.941788 -0.139291 -0.305996 255 255 255 255 0.39839 0.283245
-0.032156 0.010624 -0.027664 -0.941788 -0.139291 -0.305996 255 255 255 255 0.39839 0.283245
-0.039573 0.029851 -0 -0.984267 -0 -0.176689 255 255 255 255 0.39839 0.283245
-0.039573 0.029851 -0 -0.941783 0.13931 -0.306002 255 255 255 255 0.39839 0.283245
-0.027373 0.029851 -0.037548 -0.941783 0.13931 -0.306002 255 255 255 255 0.39839 0.283245
-0.032156 0.019227 -0.027664 -0.941783 0.13931 -0.306002 255 255 255 255 0.39839 0.283245
-0.032156 0.010624 -0.027664 -0.900144 -0 -0.435592 255 255 255 255 0.39839 0.283245
-0.037633 0.010624 -0.010807 -0 -1 0 255 255 255 255 0.39839 0.283245
-0.047539 0.019227 -0.014026 -0.309047 0 0.951047 255 255 255 255 0.39839 0.283245
-0.042062 0.019227 -0.030883 -0 1 -0 255 255 255 255 0.39839 0.283245
-0.042062 0.010624 -0.030883 0.309047 -0 -0.951047 255 255 255 255 0.39839 0.283245
-0.042062 0.010624 -0.030883 0.897084 -0.33209 0.291471 255 255 255 255 0.39839 0.283245
-0.047539 0.010624 -0.014026 0.897084 -0.33209 0.291471 255 255 255 255 0.39839 0.283245
-0.051666 0.006376 -0.006164 0.897084 -0.33209 0.291471 255 255 255 255 0.39839 0.283245
-0.051666 0.023475 -0.006164 0.885423 0 0.464785 255 255 255 255 0.39839 0.283245
-0.042062 0.019227 -0.030883 0.89712 0.331962 0.291507 255 255 255 255 0.39839 0.283245
-0.040779 0.023475 -0.039669 0.89712 0.331962 0.291507 255 255 255 255 0.39839 0.283245
-0.051666 0.023475 -0.006164 0.89712 0.331962 0.291507 255 255 255 255 0.39839 0.283245
-0.040779 0.006376 -0.039669 0.989505 0 0.144495 255 255 255 255 0.39839 0.283245
-0.051666 0.023475 -0.006164 -0.309008 0 0.951059 255 255 255 255 0.39839 0.283245
-0.088187 0.023475 -0.01803 -0.309008 0 0.951059 255 255 255 255 0.39839 0.283245
-0.088187 0.006376 -0.01803 -0.309008 0 0.951059 255 255 255 255 0.39839 0.283245
-0.077301 0.006376 -0.051536 0.309024 -0 -0.951054 255 255 255 255 0.39839 0.283245
-0.072264 0.023475 -0.042621 0.951064 0 0.308994 255 255 255 255 0.39839 0.283245
-0.050094 0.023475 -0.035417 -0.309038 0 0.95105 255 255 255 255 0.39839 0.283245
-0.050094 0.023475 -0.035417 -0.951046 -0 -0.30905 255 255 255 255 0.39839 0.283245
-0.056703 0.023475 -0.015079 0.309011 -0 -0.951058 255 255 255 255 0.39839 0.283245
3 0 1 2 
3 3 4 5 
3 6 7 8 
3 9 10 11 
3 12 13 14 
3 15 16 17 
3 18 19 20 
3 21 22 23 
3 24 25 26 
3 27 28 29 
3 30 31 32 
3 33 30 32 
3 34 33 32 
3 35 34 32 
3 36 35 32 
3 37 36 32 
3 38 37 32 
3 39 38 32 
3 40 39 32 
3 31 40 32 
3 41 42 43 
3 44 45 46 
3 47 48 43 
3 49 50 51 
3 52 53 43 
3 54 55 51 
3 56 57 43 
3 58 59 51 
3 60 61 43 
3 62 63 51 
3 64 65 66 
3 67 68 64 
3 69 70 67 
3 69 71 72 
3 73 71 74 
3 75 76 73 
3 75 77 78 
3 79 80 77 
3 81 80 82 
3 81 65 83 
3 84 85 86 
3 87 88 89 
3 90 91 92 
3 93 94 95 
3 96 97 98 
3 99 100 101 
3 102 103 104 
3 105 106 107 
3 108 109 110 
3 111 112 113 
3 114 115 116 
3 117 118 119 
3 120 121 122 
3 123 124 125 
3 126 127 128 
3 129 130 131 
3 132 133 134 
3 135 136 137 
3 138 139 140 
3 141 142 143 
3 144 145 146 
3 147 148 149 
3 150 151 152 
3 153 154 155 
3 156 157 158 
3 159 160 156 
3 159 161 162 
3 158 161 163 
3 164 165 166 
3 167 168 165 
3 169 168 170 
3 169 166 171 
3 172 173 174 
3 175 176 177 
3 178 179 180 
3 181 182 183 
3 0 184 1 
3 3 185 4 
3 6 186 7 
3 9 187 10 
3 12 188 13 
3 15 189 16 
3 18 190 19 
3 21 191 22 
3 24 192 25 
3 27 193 28 
3 64 68 65 
3 67 70 68 
3 69 72 70 
3 69 74 71 
3 73 76 71 
3 75 78 76 
3 75 79 77 
3 79 82 80 
3 81 83 80 
3 81 66 65 
3 194 195 196 
3 87 197 88 
3 198 199 200 
3 201 202 203 
3 204 205 206 
3 207 208 209 
3 102 210 103 
3 211 212 213 
3 214 215 216 
3 217 218 219 
3 220 221 222 
3 117 223 118 
3 224 225 226 
3 123 227 124 
3 126 228 127 
3 129 229 130 
3 132 230 133 
3 135 231 136 
3 232 233 234 
3 141 235 142 
3 236 237 238 
3 147 239 148 
3 240 241 242 
3 153 243 154 
3 156 160 157 
3 159 162 160 
3 159 163 161 
3 158 157 161 
3 164 167 165 
3 167 170 168 
3 169 171 168 
3 169 164 166 
3 172 244 173 
3 175 245 176 
3 178 246 179 
3 181 247 182 
