ply
format ascii 1.0
comment VCGLIB generated
comment TextureFile Texture_01_A.png
element vertex 497
property float x
property float y
property float z
property float nx
property float ny
property float nz
property uchar red
property uchar green
property uchar blue
property uchar alpha
property float texture_u
property float texture_v
element face 192
property list uchar int vertex_indices
end_header
0 0.116121 -0.060079 -0.197678 0.396106 -0.896674 255 255 255 255 0.472509 0.179559
-0.045392 0.132988 -0.042621 -0.197678 0.396106 -0.896674 255 255 255 255 0.472509 0.179559
0 0.132988 -0.052628 -0.197678 0.396106 -0.896674 255 255 255 255 0.472509 0.179559
0 0.205719 -0 0.136102 0.990681 0.005325 255 255 255 255 0.34118 0.214823
-0.018917 0.208244 0.01374 0.136102 0.990681 0.005325 255 255 255 255 0.34118 0.214823
-0.003769 0.206113 0.02303 0.136102 0.990681 0.005325 255 255 255 255 0.34118 0.214823
0 0.116121 0.059912 -0.076542 0.606484 0.791403 255 255 255 255 0.472509 0.179559
-0.045392 0.132988 0.042596 -0.076542 0.606484 0.791403 255 255 255 255 0.472509 0.179559
-0.057374 0.116121 0.054363 -0.076542 0.606484 0.791403 255 255 255 255 0.472509 0.179559
0 -0 -3e-06 0 -1 0 255 255 255 255 0.472509 0.179559
-0.023063 0 0.022129 0 -1 0 255 255 255 255 0.472509 0.179559
-0.03254 -0 -9e-06 0 -1 0 255 255 255 255 0.472509 0.179559
-0.064042 0.132988 -3e-06 -0.670622 0.681223 0.293601 255 255 255 255 0.472509 0.179559
-0.057374 0.116121 0.054363 -0.670622 0.681223 0.293601 255 255 255 255 0.472509 0.179559
-0.045392 0.132988 0.042596 -0.670622 0.681223 0.293601 255 255 255 255 0.472509 0.179559
0.057374 0.116121 0.054363 0.670622 0.681223 0.293601 255 255 255 255 0.472509 0.179559
0.064042 0.132988 -3e-06 0.670622 0.681223 0.293601 255 255 255 255 0.472509 0.179559
0.045392 0.132988 0.042596 0.670622 0.681223 0.293601 255 255 255 255 0.472509 0.179559
0 0.116121 -0.060079 0.076217 0.610694 -0.78819 255 255 255 255 0.472509 0.179559
0.045392 0.132988 -0.042621 0.076217 0.610694 -0.78819 255 255 255 255 0.472509 0.179559
0.057374 0.116121 -0.054531 0.076217 0.610694 -0.78819 255 255 255 255 0.472509 0.179559
0.023063 0 0.022129 0 -1 0 255 255 255 255 0.472509 0.179559
0.03254 -0 -9e-06 0 -1 0 255 255 255 255 0.472509 0.179559
0.045392 0.132988 0.042596 0.076542 0.606484 0.791403 255 255 255 255 0.472509 0.179559
0 0.116121 0.059912 0.076542 0.606484 0.791403 255 255 255 255 0.472509 0.179559
0.057374 0.116121 0.054363 0.076542 0.606484 0.791403 255 255 255 255 0.472509 0.179559
0 0.205719 -0 0.13613 0.990677 0.005274 255 255 255 255 0.34118 0.214823
0.013575 0.203753 0.018905 0.13613 0.990677 0.005274 255 255 255 255 0.34118 0.214823
0.022921 0.20255 0.003644 0.13613 0.990677 0.005274 255 255 255 255 0.34118 0.214823
-0.023063 -0 -0.022155 0 -1 0 255 255 255 255 0.472509 0.179559
0 -0 -0.030509 0 -1 0 255 255 255 255 0.472509 0.179559
0.023063 -0 -0.022155 -0 -1 0 255 255 255 255 0.472509 0.179559
0.064042 0.132988 -3e-06 0.669554 0.68253 -0.293002 255 255 255 255 0.472509 0.179559
0.057374 0.116121 -0.054531 0.669554 0.68253 -0.293002 255 255 255 255 0.472509 0.179559
0.045392 0.132988 -0.042621 0.669554 0.68253 -0.293002 255 255 255 255 0.472509 0.179559
0.018917 0.203195 -0.01374 0.136109 0.990679 0.005408 255 255 255 255 0.34118 0.214824
0 0.205719 -0 0.136109 0.990679 0.005408 255 255 255 255 0.34118 0.214823
0.022921 0.20255 0.003644 0.136109 0.990679 0.005408 255 255 255 255 0.34118 0.214823
0 0.205719 -0 0.136073 0.990684 0.005369 255 255 255 255 0.34118 0.214823
-0.013575 0.207686 -0.018905 0.136073 0.990684 0.005369 255 255 255 255 0.34118 0.214824
-0.022921 0.208887 -0.003644 0.136073 0.990684 0.005369 255 255 255 255 0.34118 0.214824
-0.057374 0.116121 -0.054531 -0.669554 0.68253 -0.293002 255 255 255 255 0.472509 0.179559
-0.064042 0.132988 -3e-06 -0.669554 0.68253 -0.293002 255 255 255 255 0.472509 0.179559
-0.045392 0.132988 -0.042621 -0.669554 0.68253 -0.293002 255 255 255 255 0.472509 0.179559
0 0.048434 0.048067 0.103462 -0.57199 0.81371 255 255 255 255 0.472509 0.179559
0.024561 0.016939 0.022805 0.103462 -0.57199 0.81371 255 255 255 255 0.472509 0.179559
0.046033 0.048434 0.042214 0.103462 -0.57199 0.81371 255 255 255 255 0.472509 0.179559
0.034653 0.016939 -3.2e-05 0.689151 -0.657513 0.304546 255 255 255 255 0.472509 0.179559
0.046033 0.048434 0.042214 0.689151 -0.657513 0.304546 255 255 255 255 0.472509 0.179559
0.024561 0.016939 0.022805 0.689151 -0.657513 0.304546 255 255 255 255 0.472509 0.179559
0.046033 0.048434 -0.042345 0.688901 -0.657851 -0.304382 255 255 255 255 0.472509 0.179559
0.034653 0.016939 -3.2e-05 0.688901 -0.657851 -0.304382 255 255 255 255 0.472509 0.179559
0.024561 0.016939 -0.022873 0.688901 -0.657851 -0.304382 255 255 255 255 0.472509 0.179559
0.024561 0.016939 -0.022873 0.103482 -0.573133 -0.812902 255 255 255 255 0.472509 0.179559
0 0.048434 -0.048205 0.103482 -0.573133 -0.812902 255 255 255 255 0.472509 0.179559
0.046033 0.048434 -0.042345 0.103482 -0.573133 -0.812902 255 255 255 255 0.472509 0.179559
0 0.048434 -0.048205 -0.103482 -0.573133 -0.812902 255 255 255 255 0.472509 0.179559
-0.024561 0.016939 -0.022873 -0.103482 -0.573133 -0.812902 255 255 255 255 0.472509 0.179559
-0.046033 0.048434 -0.042345 -0.103482 -0.573133 -0.812902 255 255 255 255 0.472509 0.179559
-0.034653 0.016939 -3.2e-05 -0.688901 -0.657851 -0.304382 255 255 255 255 0.472509 0.179559
-0.046033 0.048434 -0.042345 -0.688901 -0.657851 -0.304382 255 255 255 255 0.472509 0.179559
-0.024561 0.016939 -0.022873 -0.688901 -0.657851 -0.304382 255 255 255 255 0.472509 0.179559
-0.046033 0.048434 0.042214 -0.689151 -0.657513 0.304546 255 255 255 255 0.472509 0.179559
-0.034653 0.016939 -3.2e-05 -0.689151 -0.657513 0.304546 255 255 255 255 0.472509 0.179559
-0.024561 0.016939 0.022805 -0.689151 -0.657513 0.304546 255 255 255 255 0.472509 0.179559
-0.024561 0.016939 0.022805 -0.103462 -0.57199 0.81371 255 255 255 255 0.472509 0.179559
0 0.048434 0.048067 -0.103462 -0.57199 0.81371 255 255 255 255 0.472509 0.179559
-0.046033 0.048434 0.042214 -0.103462 -0.57199 0.81371 255 255 255 255 0.472509 0.179559
-0.045392 0.132988 0.042596 -0.312448 0.940034 0.136791 255 255 255 255 0.472509 0.179559
-0.034295 0.142875 -1e-06 -0.312448 0.940034 0.136791 255 255 255 255 0.472509 0.179559
-0.064042 0.132988 -3e-06 -0.312448 0.940034 0.136791 255 255 255 255 0.472509 0.179559
0 0.132988 0.052561 -0.082917 0.92221 0.377695 255 255 255 255 0.472509 0.179559
-0.024307 0.142875 0.023084 -0.082917 0.92221 0.377695 255 255 255 255 0.472509 0.179559
-0.045392 0.132988 0.042596 -0.082917 0.92221 0.377695 255 255 255 255 0.472509 0.179559
0 0.132988 0.052561 0.142123 0.897201 0.418129 255 255 255 255 0.472509 0.179559
0.024307 0.142875 0.023084 0.142123 0.897201 0.418129 255 255 255 255 0.472509 0.179559
0 0.142875 0.031346 0.142123 0.897201 0.418129 255 255 255 255 0.472509 0.179559
0.045392 0.132988 0.042596 0.314563 0.939429 0.136099 255 255 255 255 0.472509 0.179559
0.034295 0.142875 -1e-06 0.314563 0.939429 0.136099 255 255 255 255 0.472509 0.179559
0.024307 0.142875 0.023084 0.314563 0.939429 0.136099 255 255 255 255 0.472509 0.179559
0 0.132988 -0.052628 0.08318 0.922346 -0.377306 255 255 255 255 0.472509 0.179559
0.024307 0.142875 -0.0231 0.08318 0.922346 -0.377306 255 255 255 255 0.472509 0.179559
0.045392 0.132988 -0.042621 0.08318 0.922346 -0.377306 255 255 255 255 0.472509 0.179559
0.045392 0.132988 -0.042621 0.312434 0.940049 -0.136724 255 255 255 255 0.472509 0.179559
0.034295 0.142875 -1e-06 0.312434 0.940049 -0.136724 255 255 255 255 0.472509 0.179559
0.064042 0.132988 -3e-06 0.312434 0.940049 -0.136724 255 255 255 255 0.472509 0.179559
0 0.132988 -0.052628 -0.142093 0.897505 -0.417485 255 255 255 255 0.472509 0.179559
-0.024307 0.142875 -0.0231 -0.142093 0.897505 -0.417485 255 255 255 255 0.472509 0.179559
0 0.142875 -0.031373 -0.142093 0.897505 -0.417485 255 255 255 255 0.472509 0.179559
-0.045392 0.132988 -0.042621 -0.314578 0.939435 -0.136023 255 255 255 255 0.472509 0.179559
-0.034295 0.142875 -1e-06 -0.314578 0.939435 -0.136023 255 255 255 255 0.472509 0.179559
-0.024307 0.142875 -0.0231 -0.314578 0.939435 -0.136023 255 255 255 255 0.472509 0.179559
-0.024307 0.142875 0.023084 -0.615214 0.742065 0.26618 255 255 255 255 0.472509 0.179559
-0.017617 0.156702 -1e-06 -0.615214 0.742065 0.26618 255 255 255 255 0.472509 0.179559
-0.034295 0.142875 -1e-06 -0.615214 0.742065 0.26618 255 255 255 255 0.472509 0.179559
0 0.142875 0.031346 -0.225389 0.713791 0.663101 255 255 255 255 0.472509 0.179559
-0.012486 0.156702 0.012218 -0.225389 0.713791 0.663101 255 255 255 255 0.472509 0.179559
-0.024307 0.142875 0.023084 -0.225389 0.713791 0.663101 255 255 255 255 0.472509 0.179559
0 0.142875 0.031346 0.260159 0.693907 0.671424 255 255 255 255 0.472509 0.179559
0.012486 0.156702 0.012218 0.260159 0.693907 0.671424 255 255 255 255 0.472509 0.179559
0 0.156702 0.017056 0.260159 0.693907 0.671424 255 255 255 255 0.472509 0.179559
0.024307 0.142875 0.023084 0.622529 0.737646 0.261412 255 255 255 255 0.472509 0.179559
0.017617 0.156702 -1e-06 0.622529 0.737646 0.261412 255 255 255 255 0.472509 0.179559
0.012486 0.156702 0.012218 0.622529 0.737646 0.261412 255 255 255 255 0.472509 0.179559
0 0.142875 -0.031373 0.225563 0.71408 -0.66273 255 255 255 255 0.472509 0.179559
0.012486 0.156702 -0.012225 0.225563 0.71408 -0.66273 255 255 255 255 0.472509 0.179559
0.024307 0.142875 -0.0231 0.225563 0.71408 -0.66273 255 255 255 255 0.472509 0.179559
0.024307 0.142875 -0.0231 0.61524 0.742097 -0.26603 255 255 255 255 0.472509 0.179559
0.017617 0.156702 -1e-06 0.61524 0.742097 -0.26603 255 255 255 255 0.472509 0.179559
0.034295 0.142875 -1e-06 0.61524 0.742097 -0.26603 255 255 255 255 0.472509 0.179559
0 0.142875 -0.031373 -0.26022 0.694271 -0.671025 255 255 255 255 0.472509 0.179559
-0.012486 0.156702 -0.012225 -0.26022 0.694271 -0.671025 255 255 255 255 0.472509 0.179559
0 0.156702 -0.017067 -0.26022 0.694271 -0.671025 255 255 255 255 0.472509 0.179559
-0.024307 0.142875 -0.0231 -0.622507 0.737706 -0.261296 255 255 255 255 0.472509 0.179559
-0.017617 0.156702 -1e-06 -0.622507 0.737706 -0.261296 255 255 255 255 0.472509 0.179559
-0.012486 0.156702 -0.012225 -0.622507 0.737706 -0.261296 255 255 255 255 0.472509 0.179559
-0.012486 0.156702 0.012218 -0.918635 -0.085462 0.385753 255 255 255 255 0.472509 0.179559
-0.01887 0.170175 -0 -0.918635 -0.085462 0.385753 255 255 255 255 0.472509 0.179559
-0.017617 0.156702 -1e-06 -0.918635 -0.085462 0.385753 255 255 255 255 0.472509 0.179559
0 0.156702 0.017056 -0.359675 -0.094739 0.928256 255 255 255 255 0.472509 0.179559
-0.013374 0.170175 0.013249 -0.359675 -0.094739 0.928256 255 255 255 255 0.472509 0.179559
-0.012486 0.156702 0.012218 -0.359675 -0.094739 0.928256 255 255 255 255 0.472509 0.179559
0 0.156702 0.017056 0.366821 -0.102869 0.924587 255 255 255 255 0.472509 0.179559
0.013374 0.170175 0.013249 0.366821 -0.102869 0.924587 255 255 255 255 0.472509 0.179559
0 0.170175 0.018555 0.366821 -0.102869 0.924587 255 255 255 255 0.472509 0.179559
0.012486 0.156702 0.012218 0.919945 -0.089836 0.381615 255 255 255 255 0.472509 0.179559
0.01887 0.170175 -0 0.919945 -0.089836 0.381615 255 255 255 255 0.472509 0.179559
0.013374 0.170175 0.013249 0.919945 -0.089836 0.381615 255 255 255 255 0.472509 0.179559
0 0.156702 -0.017067 0.359943 -0.094476 -0.928179 255 255 255 255 0.472509 0.179559
0.013374 0.170175 -0.013252 0.359943 -0.094476 -0.928179 255 255 255 255 0.472509 0.179559
0.012486 0.156702 -0.012225 0.359943 -0.094476 -0.928179 255 255 255 255 0.472509 0.179559
0.012486 0.156702 -0.012225 0.918696 -0.085411 -0.385621 255 255 255 255 0.472509 0.179559
0.01887 0.170175 -0 0.918696 -0.085411 -0.385621 255 255 255 255 0.472509 0.179559
0.017617 0.156702 -1e-06 0.918696 -0.085411 -0.385621 255 255 255 255 0.472509 0.179559
0 0.156702 -0.017067 -0.367013 -0.102522 -0.924549 255 255 255 255 0.472509 0.179559
-0.013374 0.170175 -0.013252 -0.367013 -0.102522 -0.924549 255 255 255 255 0.472509 0.179559
0 0.170175 -0.018561 -0.367013 -0.102522 -0.924549 255 255 255 255 0.472509 0.179559
-0.012486 0.156702 -0.012225 -0.919986 -0.08972 -0.381545 255 255 255 255 0.472509 0.179559
-0.01887 0.170175 -0 -0.919986 -0.08972 -0.381545 255 255 255 255 0.472509 0.179559
-0.013374 0.170175 -0.013252 -0.919986 -0.08972 -0.381545 255 255 255 255 0.472509 0.179559
-0.01887 0.170175 -0 0 -1 -0 255 255 255 255 0.472509 0.179559
-0.01757 0.170175 0.017355 0 -1 -0 255 255 255 255 0.472509 0.179559
-0.02479 0.170175 -0 0 -1 -0 255 255 255 255 0.472509 0.179559
-0.013374 0.170175 0.013249 0 -1 -0 255 255 255 255 0.472509 0.179559
0 0.170175 0.024201 0 -1 -0 255 255 255 255 0.472509 0.179559
0.013374 0.170175 0.013249 0 -1 0 255 255 255 255 0.472509 0.179559
0 0.170175 0.018555 0 -1 0 255 255 255 255 0.472509 0.179559
0.01887 0.170175 -0 0 -1 0 255 255 255 255 0.472509 0.179559
0.01757 0.170175 0.017355 0 -1 0 255 255 255 255 0.472509 0.179559
0.013374 0.170175 -0.013252 -0 -1 0 255 255 255 255 0.472509 0.179559
0 0.170175 -0.02421 -0 -1 0 255 255 255 255 0.472509 0.179559
0.01757 0.170175 -0.01736 -0 -1 0 255 255 255 255 0.472509 0.179559
0.02479 0.170175 -0 -0 -1 0 255 255 255 255 0.472509 0.179559
-0.013374 0.170175 -0.013252 -0 -1 -0 255 255 255 255 0.472509 0.179559
0 0.170175 -0.018561 -0 -1 -0 255 255 255 255 0.472509 0.179559
-0.01757 0.170175 -0.01736 -0 -1 0 255 255 255 255 0.472509 0.179559
-0.01757 0.170175 0.017355 -0.923289 0 0.384105 255 255 255 255 0.472509 0.179559
-0.02479 0.189132 -0 -0.923289 0 0.384105 255 255 255 255 0.472509 0.179559
-0.02479 0.170175 -0 -0.923289 0 0.384105 255 255 255 255 0.472509 0.179559
0 0.170175 0.024201 -0.363036 -0.010321 0.931718 255 255 255 255 0.472509 0.179559
-0.01757 0.189132 0.017565 -0.363036 -0.010321 0.931718 255 255 255 255 0.472509 0.179559
-0.01757 0.170175 0.017355 -0.363036 -0.010321 0.931718 255 255 255 255 0.472509 0.179559
0 0.170175 0.024201 0.376631 -0.024913 0.926029 255 255 255 255 0.472509 0.179559
0.01757 0.189132 0.017565 0.376631 -0.024913 0.926029 255 255 255 255 0.472509 0.179559
0 0.189132 0.024711 0.376631 -0.024913 0.926029 255 255 255 255 0.472509 0.179559
0.01757 0.170175 0.017355 0.924904 -0.004211 0.380177 255 255 255 255 0.472509 0.179559
0.02479 0.189132 -0 0.924904 -0.004211 0.380177 255 255 255 255 0.472509 0.179559
0.01757 0.189132 0.017565 0.924904 -0.004211 0.380177 255 255 255 255 0.472509 0.179559
0 0.170175 -0.02421 0.363221 -0.010075 -0.931648 255 255 255 255 0.472509 0.179559
0.01757 0.189132 -0.017565 0.363221 -0.010075 -0.931648 255 255 255 255 0.472509 0.179559
0.01757 0.170175 -0.01736 0.363221 -0.010075 -0.931648 255 255 255 255 0.472509 0.179559
0.01757 0.170175 -0.01736 0.923329 -0 -0.384011 255 255 255 255 0.472509 0.179559
0.02479 0.189132 -0 0.923329 -0 -0.384011 255 255 255 255 0.472509 0.179559
0.02479 0.170175 -0 0.923329 -0 -0.384011 255 255 255 255 0.472509 0.179559
0 0.170175 -0.02421 -0.376724 -0.02457 -0.926 255 255 255 255 0.472509 0.179559
-0.01757 0.189132 -0.017565 -0.376724 -0.02457 -0.926 255 255 255 255 0.472509 0.179559
0 0.189132 -0.024713 -0.376724 -0.02457 -0.926 255 255 255 255 0.472509 0.179559
-0.01757 0.170175 -0.01736 -0.924905 -0.004111 -0.380177 255 255 255 255 0.472509 0.179559
-0.02479 0.189132 -0 -0.924905 -0.004111 -0.380177 255 255 255 255 0.472509 0.179559
-0.01757 0.189132 -0.017565 -0.924905 -0.004111 -0.380177 255 255 255 255 0.472509 0.179559
-0.02479 0.189132 -0 0 1 -0 255 255 255 255 0.472509 0.179559
-0.011678 0.189132 0.011677 0 1 -0 255 255 255 255 0.472509 0.179559
-0.016476 0.189132 -0 0 1 -0 255 255 255 255 0.472509 0.179559
0 0.189132 0.024711 -0 1 0 255 255 255 255 0.472509 0.179559
-0.01757 0.189132 0.017565 -0 1 0 255 255 255 255 0.472509 0.179559
0.011678 0.189132 0.011677 -0 1 -0 255 255 255 255 0.472509 0.179559
0 0.189132 0.016466 -0 1 -0 255 255 255 255 0.472509 0.179559
0.02479 0.189132 -0 0 1 0 255 255 255 255 0.472509 0.179559
0.01757 0.189132 0.017565 0 1 0 255 255 255 255 0.472509 0.179559
0 0.189132 -0.024713 0 1 0 255 255 255 255 0.472509 0.179559
0.011678 0.189132 -0.011678 0 1 0 255 255 255 255 0.472509 0.179559
0.01757 0.189132 -0.017565 0 1 0 255 255 255 255 0.472509 0.179559
0.016476 0.189132 -0 -0 1 0 255 255 255 255 0.472509 0.179559
-0.011678 0.189132 -0.011678 0 1 0 255 255 255 255 0.472509 0.179559
0 0.189132 -0.016466 0 1 0 255 255 255 255 0.472509 0.179559
-0.01757 0.189132 -0.017565 0 1 -0 255 255 255 255 0.472509 0.179559
-0.016476 0.189132 -0 -0.940752 -0.268782 0.206739 255 255 255 255 0.34118 0.214824
-0.018917 0.208244 0.01374 -0.940752 -0.268782 0.206739 255 255 255 255 0.34118 0.214823
-0.022921 0.208887 -0.003644 -0.940752 -0.268782 0.206739 255 255 255 255 0.34118 0.214824
-0.011678 0.189132 0.011677 -0.529829 -0.286834 0.798128 255 255 255 255 0.34118 0.214824
-0.003769 0.206113 0.02303 -0.529829 -0.286834 0.798128 255 255 255 255 0.34118 0.214823
-0.018917 0.208244 0.01374 -0.529829 -0.286834 0.798128 255 255 255 255 0.34118 0.214823
0 0.189132 0.016466 0.177733 -0.320241 0.930514 255 255 255 255 0.34118 0.214824
0.013575 0.203753 0.018905 0.177733 -0.320241 0.930514 255 255 255 255 0.34118 0.214823
-0.003769 0.206113 0.02303 0.177733 -0.320241 0.930514 255 255 255 255 0.34118 0.214823
0.011678 0.189132 0.011677 0.785121 -0.35333 0.508669 255 255 255 255 0.34118 0.214824
0.022921 0.20255 0.003644 0.785121 -0.35333 0.508669 255 255 255 255 0.34118 0.214823
0.013575 0.203753 0.018905 0.785121 -0.35333 0.508669 255 255 255 255 0.34118 0.214823
0.011678 0.189132 -0.011678 0.452578 -0.353034 -0.818865 255 255 255 255 0.34118 0.214824
0.003769 0.205324 -0.02303 0.452578 -0.353034 -0.818865 255 255 255 255 0.34118 0.214824
0.018917 0.203195 -0.01374 0.452578 -0.353034 -0.818865 255 255 255 255 0.34118 0.214824
0.016476 0.189132 -0 0.901148 -0.372721 -0.221388 255 255 255 255 0.34118 0.214824
0.018917 0.203195 -0.01374 0.901148 -0.372721 -0.221388 255 255 255 255 0.34118 0.214824
0.022921 0.20255 0.003644 0.901148 -0.372721 -0.221388 255 255 255 255 0.34118 0.214823
0 0.189132 -0.016466 -0.259747 -0.310256 -0.914479 255 255 255 255 0.34118 0.214824
-0.013575 0.207686 -0.018905 -0.259747 -0.310256 -0.914479 255 255 255 255 0.34118 0.214824
0.003769 0.205324 -0.02303 -0.259747 -0.310256 -0.914479 255 255 255 255 0.34118 0.214824
-0.011678 0.189132 -0.011678 -0.829545 -0.274287 -0.486437 255 255 255 255 0.34118 0.214824
-0.022921 0.208887 -0.003644 -0.829545 -0.274287 -0.486437 255 255 255 255 0.34118 0.214824
-0.013575 0.207686 -0.018905 -0.829545 -0.274287 -0.486437 255 255 255 255 0.34118 0.214824
0 0.016939 0.031008 0.316099 -0.065725 0.946447 255 255 255 255 0.472509 0.179559
0.023063 0 0.022129 0.316099 -0.065725 0.946447 255 255 255 255 0.472509 0.179559
0.024561 0.016939 0.022805 0.316099 -0.065725 0.946447 255 255 255 255 0.472509 0.179559
0.03254 -0 -9e-06 0.915011 -0.096551 0.391705 255 255 255 255 0.472509 0.179559
0.024561 0.016939 0.022805 0.915011 -0.096551 0.391705 255 255 255 255 0.472509 0.179559
0.023063 0 0.022129 0.915011 -0.096551 0.391705 255 255 255 255 0.472509 0.179559
0.024561 0.016939 -0.022873 0.914976 -0.097513 -0.391548 255 255 255 255 0.472509 0.179559
0.03254 -0 -9e-06 0.914976 -0.097513 -0.391548 255 255 255 255 0.472509 0.179559
0.023063 -0 -0.022155 0.914976 -0.097513 -0.391548 255 255 255 255 0.472509 0.179559
0.023063 -0 -0.022155 0.316188 -0.068071 -0.946251 255 255 255 255 0.472509 0.179559
0 0.016939 -0.03108 0.316188 -0.068071 -0.946251 255 255 255 255 0.472509 0.179559
0.024561 0.016939 -0.022873 0.316188 -0.068071 -0.946251 255 255 255 255 0.472509 0.179559
0 0.016939 -0.03108 -0.316188 -0.068071 -0.946251 255 255 255 255 0.472509 0.179559
-0.023063 -0 -0.022155 -0.316188 -0.068071 -0.946251 255 255 255 255 0.472509 0.179559
-0.024561 0.016939 -0.022873 -0.316188 -0.068071 -0.946251 255 255 255 255 0.472509 0.179559
-0.03254 -0 -9e-06 -0.914976 -0.097513 -0.391548 255 255 255 255 0.472509 0.179559
-0.024561 0.016939 -0.022873 -0.914976 -0.097513 -0.391548 255 255 255 255 0.472509 0.179559
-0.023063 -0 -0.022155 -0.914976 -0.097513 -0.391548 255 255 255 255 0.472509 0.179559
-0.024561 0.016939 0.022805 -0.915011 -0.096551 0.391705 255 255 255 255 0.472509 0.179559
-0.03254 -0 -9e-06 -0.915011 -0.096551 0.391705 255 255 255 255 0.472509 0.179559
-0.023063 0 0.022129 -0.915011 -0.096551 0.391705 255 255 255 255 0.472509 0.179559
0 0.016939 0.031008 -0.34028 -0.029352 0.939866 255 255 255 255 0.472509 0.179559
-0.023063 0 0.022129 -0.34028 -0.029352 0.939866 255 255 255 255 0.472509 0.179559
0 0 0.030479 -0.34028 -0.029352 0.939866 255 255 255 255 0.472509 0.179559
-0.080948 0.116121 -8.4e-05 -0.89528 -0.21958 0.387631 255 255 255 255 0.472509 0.179559
-0.046033 0.048434 0.042214 -0.89528 -0.21958 0.387631 255 255 255 255 0.472509 0.179559
-0.057374 0.116121 0.054363 -0.89528 -0.21958 0.387631 255 255 255 255 0.472509 0.179559
-0.046033 0.048434 -0.042345 -0.895239 -0.219782 -0.387613 255 255 255 255 0.472509 0.179559
-0.080948 0.116121 -8.4e-05 -0.895239 -0.219782 -0.387613 255 255 255 255 0.472509 0.179559
-0.057374 0.116121 -0.054531 -0.895239 -0.219782 -0.387613 255 255 255 255 0.472509 0.179559
0 0.116121 -0.060079 -0.094465 -0.191703 -0.976896 255 255 255 255 0.472509 0.179559
-0.046033 0.048434 -0.042345 -0.094465 -0.191703 -0.976896 255 255 255 255 0.472509 0.179559
-0.057374 0.116121 -0.054531 -0.094465 -0.191703 -0.976896 255 255 255 255 0.472509 0.179559
0.046033 0.048434 -0.042345 0.094465 -0.191703 -0.976896 255 255 255 255 0.472509 0.179559
0 0.116121 -0.060079 0.094465 -0.191703 -0.976896 255 255 255 255 0.472509 0.179559
0.057374 0.116121 -0.054531 0.094465 -0.191703 -0.976896 255 255 255 255 0.472509 0.179559
0.080948 0.116121 -8.4e-05 0.895239 -0.219782 -0.387613 255 255 255 255 0.472509 0.179559
0.046033 0.048434 -0.042345 0.895239 -0.219782 -0.387613 255 255 255 255 0.472509 0.179559
0.057374 0.116121 -0.054531 0.895239 -0.219782 -0.387613 255 255 255 255 0.472509 0.179559
0.046033 0.048434 0.042214 0.89528 -0.21958 0.387631 255 255 255 255 0.472509 0.179559
0.080948 0.116121 -8.4e-05 0.89528 -0.21958 0.387631 255 255 255 255 0.472509 0.179559
0.057374 0.116121 0.054363 0.89528 -0.21958 0.387631 255 255 255 255 0.472509 0.179559
0 0.116121 0.059912 0.094491 -0.191191 0.976994 255 255 255 255 0.472509 0.179559
0.046033 0.048434 0.042214 0.094491 -0.191191 0.976994 255 255 255 255 0.472509 0.179559
0.057374 0.116121 0.054363 0.094491 -0.191191 0.976994 255 255 255 255 0.472509 0.179559
-0.046033 0.048434 0.042214 -0.094491 -0.191191 0.976994 255 255 255 255 0.472509 0.179559
0 0.116121 0.059912 -0.094491 -0.191191 0.976994 255 255 255 255 0.472509 0.179559
-0.057374 0.116121 0.054363 -0.094491 -0.191191 0.976994 255 255 255 255 0.472509 0.179559
0 0.116121 -0.060079 -0.076217 0.610694 -0.78819 255 255 255 255 0.472509 0.179559
-0.057374 0.116121 -0.054531 -0.076217 0.610694 -0.78819 255 255 255 255 0.472509 0.179559
-0.045392 0.132988 -0.042621 -0.076217 0.610694 -0.78819 255 255 255 255 0.472509 0.179559
0 0.205719 -0 0.136084 0.990683 0.0053 255 255 255 255 0.34118 0.214823
-0.022921 0.208887 -0.003644 0.136084 0.990683 0.0053 255 255 255 255 0.34118 0.214824
-0.018917 0.208244 0.01374 0.136084 0.990683 0.0053 255 255 255 255 0.34118 0.214823
0 0.116121 0.059912 -0.197294 0.391674 0.898703 255 255 255 255 0.472509 0.179559
0 0.132988 0.052561 -0.197294 0.391674 0.898703 255 255 255 255 0.472509 0.179559
-0.045392 0.132988 0.042596 -0.197294 0.391674 0.898703 255 255 255 255 0.472509 0.179559
0 0 0.030479 0 -1 0 255 255 255 255 0.472509 0.179559
-0.064042 0.132988 -3e-06 -0.676057 0.676214 0.292713 255 255 255 255 0.472509 0.179559
-0.080948 0.116121 -8.4e-05 -0.676057 0.676214 0.292713 255 255 255 255 0.472509 0.179559
-0.057374 0.116121 0.054363 -0.676057 0.676214 0.292713 255 255 255 255 0.472509 0.179559
0.057374 0.116121 0.054363 0.676057 0.676214 0.292713 255 255 255 255 0.472509 0.179559
0.080948 0.116121 -8.4e-05 0.676057 0.676214 0.292713 255 255 255 255 0.472509 0.179559
0.064042 0.132988 -3e-06 0.676057 0.676214 0.292713 255 255 255 255 0.472509 0.179559
0 0.116121 -0.060079 0.197678 0.396106 -0.896674 255 255 255 255 0.472509 0.179559
0 0.132988 -0.052628 0.197678 0.396106 -0.896674 255 255 255 255 0.472509 0.179559
0.045392 0.132988 -0.042621 0.197678 0.396106 -0.896674 255 255 255 255 0.472509 0.179559
0.045392 0.132988 0.042596 0.197294 0.391674 0.898703 255 255 255 255 0.472509 0.179559
0 0.132988 0.052561 0.197294 0.391674 0.898703 255 255 255 255 0.472509 0.179559
0 0.116121 0.059912 0.197294 0.391674 0.898703 255 255 255 255 0.472509 0.179559
0 0.205719 -0 0.136068 0.990685 0.00532 255 255 255 255 0.34118 0.214823
-0.003769 0.206113 0.02303 0.136068 0.990685 0.00532 255 255 255 255 0.34118 0.214823
0.013575 0.203753 0.018905 0.136068 0.990685 0.00532 255 255 255 255 0.34118 0.214823
0.064042 0.132988 -3e-06 0.674773 0.677736 -0.292157 255 255 255 255 0.472509 0.179559
0.080948 0.116121 -8.4e-05 0.674773 0.677736 -0.292157 255 255 255 255 0.472509 0.179559
0.057374 0.116121 -0.054531 0.674773 0.677736 -0.292157 255 255 255 255 0.472509 0.179559
0.018917 0.203195 -0.01374 0.136008 0.990694 0.005267 255 255 255 255 0.34118 0.214824
0.003769 0.205324 -0.02303 0.136008 0.990694 0.005267 255 255 255 255 0.34118 0.214824
0 0.205719 -0 0.136008 0.990694 0.005267 255 255 255 255 0.34118 0.214823
0 0.205719 -0 0.136175 0.990671 0.005294 255 255 255 255 0.34118 0.214823
0.003769 0.205324 -0.02303 0.136175 0.990671 0.005294 255 255 255 255 0.34118 0.214824
-0.013575 0.207686 -0.018905 0.136175 0.990671 0.005294 255 255 255 255 0.34118 0.214824
-0.057374 0.116121 -0.054531 -0.674773 0.677736 -0.292157 255 255 255 255 0.472509 0.179559
-0.080948 0.116121 -8.4e-05 -0.674773 0.677736 -0.292157 255 255 255 255 0.472509 0.179559
-0.064042 0.132988 -3e-06 -0.674773 0.677736 -0.292157 255 255 255 255 0.472509 0.179559
0 0.048434 0.048067 0.281774 -0.456968 0.843673 255 255 255 255 0.472509 0.179559
0 0.016939 0.031008 0.281774 -0.456968 0.843673 255 255 255 255 0.472509 0.179559
0.024561 0.016939 0.022805 0.281774 -0.456968 0.843673 255 255 255 255 0.472509 0.179559
0.034653 0.016939 -3.2e-05 0.686082 -0.659608 0.306934 255 255 255 255 0.472509 0.179559
0.064947 0.048434 -6.4e-05 0.686082 -0.659608 0.306934 255 255 255 255 0.472509 0.179559
0.046033 0.048434 0.042214 0.686082 -0.659608 0.306934 255 255 255 255 0.472509 0.179559
0.046033 0.048434 -0.042345 0.685805 -0.659965 -0.306788 255 255 255 255 0.472509 0.179559
0.064947 0.048434 -6.4e-05 0.685805 -0.659965 -0.306788 255 255 255 255 0.472509 0.179559
0.034653 0.016939 -3.2e-05 0.685805 -0.659965 -0.306788 255 255 255 255 0.472509 0.179559
0.024561 0.016939 -0.022873 0.281672 -0.458348 -0.842958 255 255 255 255 0.472509 0.179559
0 0.016939 -0.03108 0.281672 -0.458348 -0.842958 255 255 255 255 0.472509 0.179559
0 0.048434 -0.048205 0.281672 -0.458348 -0.842958 255 255 255 255 0.472509 0.179559
0 0.048434 -0.048205 -0.281672 -0.458348 -0.842958 255 255 255 255 0.472509 0.179559
0 0.016939 -0.03108 -0.281672 -0.458348 -0.842958 255 255 255 255 0.472509 0.179559
-0.024561 0.016939 -0.022873 -0.281672 -0.458348 -0.842958 255 255 255 255 0.472509 0.179559
-0.034653 0.016939 -3.2e-05 -0.685805 -0.659965 -0.306788 255 255 255 255 0.472509 0.179559
-0.064947 0.048434 -6.4e-05 -0.685805 -0.659965 -0.306788 255 255 255 255 0.472509 0.179559
-0.046033 0.048434 -0.042345 -0.685805 -0.659965 -0.306788 255 255 255 255 0.472509 0.179559
-0.046033 0.048434 0.042214 -0.686082 -0.659608 0.306934 255 255 255 255 0.472509 0.179559
-0.064947 0.048434 -6.4e-05 -0.686082 -0.659608 0.306934 255 255 255 255 0.472509 0.179559
-0.034653 0.016939 -3.2e-05 -0.686082 -0.659608 0.306934 255 255 255 255 0.472509 0.179559
-0.024561 0.016939 0.022805 -0.281774 -0.456968 0.843673 255 255 255 255 0.472509 0.179559
0 0.016939 0.031008 -0.281774 -0.456968 0.843673 255 255 255 255 0.472509 0.179559
0 0.048434 0.048067 -0.281774 -0.456968 0.843673 255 255 255 255 0.472509 0.179559
-0.045392 0.132988 0.042596 -0.314563 0.939429 0.136099 255 255 255 255 0.472509 0.179559
-0.024307 0.142875 0.023084 -0.314563 0.939429 0.136099 255 255 255 255 0.472509 0.179559
-0.034295 0.142875 -1e-06 -0.314563 0.939429 0.136099 255 255 255 255 0.472509 0.179559
0 0.132988 0.052561 -0.142123 0.897201 0.418129 255 255 255 255 0.472509 0.179559
0 0.142875 0.031346 -0.142123 0.897201 0.418129 255 255 255 255 0.472509 0.179559
-0.024307 0.142875 0.023084 -0.142123 0.897201 0.418129 255 255 255 255 0.472509 0.179559
0 0.132988 0.052561 0.082917 0.92221 0.377695 255 255 255 255 0.472509 0.179559
0.045392 0.132988 0.042596 0.082917 0.92221 0.377695 255 255 255 255 0.472509 0.179559
0.024307 0.142875 0.023084 0.082917 0.92221 0.377695 255 255 255 255 0.472509 0.179559
0.045392 0.132988 0.042596 0.312448 0.940034 0.136791 255 255 255 255 0.472509 0.179559
0.064042 0.132988 -3e-06 0.312448 0.940034 0.136791 255 255 255 255 0.472509 0.179559
0.034295 0.142875 -1e-06 0.312448 0.940034 0.136791 255 255 255 255 0.472509 0.179559
0 0.132988 -0.052628 0.142093 0.897505 -0.417485 255 255 255 255 0.472509 0.179559
0 0.142875 -0.031373 0.142093 0.897505 -0.417485 255 255 255 255 0.472509 0.179559
0.024307 0.142875 -0.0231 0.142093 0.897505 -0.417485 255 255 255 255 0.472509 0.179559
0.045392 0.132988 -0.042621 0.314578 0.939435 -0.136023 255 255 255 255 0.472509 0.179559
0.024307 0.142875 -0.0231 0.314578 0.939435 -0.136023 255 255 255 255 0.472509 0.179559
0.034295 0.142875 -1e-06 0.314578 0.939435 -0.136023 255 255 255 255 0.472509 0.179559
0 0.132988 -0.052628 -0.08318 0.922346 -0.377306 255 255 255 255 0.472509 0.179559
-0.045392 0.132988 -0.042621 -0.08318 0.922346 -0.377306 255 255 255 255 0.472509 0.179559
-0.024307 0.142875 -0.0231 -0.08318 0.922346 -0.377306 255 255 255 255 0.472509 0.179559
-0.045392 0.132988 -0.042621 -0.312434 0.940049 -0.136724 255 255 255 255 0.472509 0.179559
-0.064042 0.132988 -3e-06 -0.312434 0.940049 -0.136724 255 255 255 255 0.472509 0.179559
-0.034295 0.142875 -1e-06 -0.312434 0.940049 -0.136724 255 255 255 255 0.472509 0.179559
-0.024307 0.142875 0.023084 -0.622529 0.737646 0.261412 255 255 255 255 0.472509 0.179559
-0.012486 0.156702 0.012218 -0.622529 0.737646 0.261412 255 255 255 255 0.472509 0.179559
-0.017617 0.156702 -1e-06 -0.622529 0.737646 0.261412 255 255 255 255 0.472509 0.179559
0 0.142875 0.031346 -0.260159 0.693907 0.671424 255 255 255 255 0.472509 0.179559
0 0.156702 0.017056 -0.260159 0.693907 0.671424 255 255 255 255 0.472509 0.179559
-0.012486 0.156702 0.012218 -0.260159 0.693907 0.671424 255 255 255 255 0.472509 0.179559
0 0.142875 0.031346 0.225389 0.713791 0.663101 255 255 255 255 0.472509 0.179559
0.024307 0.142875 0.023084 0.225389 0.713791 0.663101 255 255 255 255 0.472509 0.179559
0.012486 0.156702 0.012218 0.225389 0.713791 0.663101 255 255 255 255 0.472509 0.179559
0.024307 0.142875 0.023084 0.615214 0.742065 0.26618 255 255 255 255 0.472509 0.179559
0.034295 0.142875 -1e-06 0.615214 0.742065 0.26618 255 255 255 255 0.472509 0.179559
0.017617 0.156702 -1e-06 0.615214 0.742065 0.26618 255 255 255 255 0.472509 0.179559
0 0.142875 -0.031373 0.26022 0.694271 -0.671025 255 255 255 255 0.472509 0.179559
0 0.156702 -0.017067 0.26022 0.694271 -0.671025 255 255 255 255 0.472509 0.179559
0.012486 0.156702 -0.012225 0.26022 0.694271 -0.671025 255 255 255 255 0.472509 0.179559
0.024307 0.142875 -0.0231 0.622507 0.737706 -0.261296 255 255 255 255 0.472509 0.179559
0.012486 0.156702 -0.012225 0.622507 0.737706 -0.261296 255 255 255 255 0.472509 0.179559
0.017617 0.156702 -1e-06 0.622507 0.737706 -0.261296 255 255 255 255 0.472509 0.179559
0 0.142875 -0.031373 -0.225563 0.71408 -0.66273 255 255 255 255 0.472509 0.179559
-0.024307 0.142875 -0.0231 -0.225563 0.71408 -0.66273 255 255 255 255 0.472509 0.179559
-0.012486 0.156702 -0.012225 -0.225563 0.71408 -0.66273 255 255 255 255 0.472509 0.179559
-0.024307 0.142875 -0.0231 -0.61524 0.742097 -0.26603 255 255 255 255 0.472509 0.179559
-0.034295 0.142875 -1e-06 -0.61524 0.742097 -0.26603 255 255 255 255 0.472509 0.179559
-0.017617 0.156702 -1e-06 -0.61524 0.742097 -0.26603 255 255 255 255 0.472509 0.179559
-0.012486 0.156702 0.012218 -0.919945 -0.089836 0.381615 255 255 255 255 0.472509 0.179559
-0.013374 0.170175 0.013249 -0.919945 -0.089836 0.381615 255 255 255 255 0.472509 0.179559
-0.01887 0.170175 -0 -0.919945 -0.089836 0.381615 255 255 255 255 0.472509 0.179559
0 0.156702 0.017056 -0.366821 -0.102869 0.924587 255 255 255 255 0.472509 0.179559
0 0.170175 0.018555 -0.366821 -0.102869 0.924587 255 255 255 255 0.472509 0.179559
-0.013374 0.170175 0.013249 -0.366821 -0.102869 0.924587 255 255 255 255 0.472509 0.179559
0 0.156702 0.017056 0.359675 -0.094739 0.928256 255 255 255 255 0.472509 0.179559
0.012486 0.156702 0.012218 0.359675 -0.094739 0.928256 255 255 255 255 0.472509 0.179559
0.013374 0.170175 0.013249 0.359675 -0.094739 0.928256 255 255 255 255 0.472509 0.179559
0.012486 0.156702 0.012218 0.918635 -0.085462 0.385753 255 255 255 255 0.472509 0.179559
0.017617 0.156702 -1e-06 0.918635 -0.085462 0.385753 255 255 255 255 0.472509 0.179559
0.01887 0.170175 -0 0.918635 -0.085462 0.385753 255 255 255 255 0.472509 0.179559
0 0.156702 -0.017067 0.367013 -0.102522 -0.924549 255 255 255 255 0.472509 0.179559
0 0.170175 -0.018561 0.367013 -0.102522 -0.924549 255 255 255 255 0.472509 0.179559
0.013374 0.170175 -0.013252 0.367013 -0.102522 -0.924549 255 255 255 255 0.472509 0.179559
0.012486 0.156702 -0.012225 0.919986 -0.08972 -0.381545 255 255 255 255 0.472509 0.179559
0.013374 0.170175 -0.013252 0.919986 -0.08972 -0.381545 255 255 255 255 0.472509 0.179559
0.01887 0.170175 -0 0.919986 -0.08972 -0.381545 255 255 255 255 0.472509 0.179559
0 0.156702 -0.017067 -0.359943 -0.094476 -0.928179 255 255 255 255 0.472509 0.179559
-0.012486 0.156702 -0.012225 -0.359943 -0.094476 -0.928179 255 255 255 255 0.472509 0.179559
-0.013374 0.170175 -0.013252 -0.359943 -0.094476 -0.928179 255 255 255 255 0.472509 0.179559
-0.012486 0.156702 -0.012225 -0.918696 -0.085411 -0.385621 255 255 255 255 0.472509 0.179559
-0.017617 0.156702 -1e-06 -0.918696 -0.085411 -0.385621 255 255 255 255 0.472509 0.179559
-0.01887 0.170175 -0 -0.918696 -0.085411 -0.385621 255 255 255 255 0.472509 0.179559
-0.01757 0.170175 0.017355 -0.924904 -0.004211 0.380177 255 255 255 255 0.472509 0.179559
-0.01757 0.189132 0.017565 -0.924904 -0.004211 0.380177 255 255 255 255 0.472509 0.179559
-0.02479 0.189132 -0 -0.924904 -0.004211 0.380177 255 255 255 255 0.472509 0.179559
0 0.170175 0.024201 -0.376631 -0.024913 0.926029 255 255 255 255 0.472509 0.179559
0 0.189132 0.024711 -0.376631 -0.024913 0.926029 255 255 255 255 0.472509 0.179559
-0.01757 0.189132 0.017565 -0.376631 -0.024913 0.926029 255 255 255 255 0.472509 0.179559
0 0.170175 0.024201 0.363036 -0.010321 0.931718 255 255 255 255 0.472509 0.179559
0.01757 0.170175 0.017355 0.363036 -0.010321 0.931718 255 255 255 255 0.472509 0.179559
0.01757 0.189132 0.017565 0.363036 -0.010321 0.931718 255 255 255 255 0.472509 0.179559
0.01757 0.170175 0.017355 0.923289 0 0.384105 255 255 255 255 0.472509 0.179559
0.02479 0.170175 -0 0.923289 0 0.384105 255 255 255 255 0.472509 0.179559
0.02479 0.189132 -0 0.923289 0 0.384105 255 255 255 255 0.472509 0.179559
0 0.170175 -0.02421 0.376724 -0.02457 -0.926 255 255 255 255 0.472509 0.179559
0 0.189132 -0.024713 0.376724 -0.02457 -0.926 255 255 255 255 0.472509 0.179559
0.01757 0.189132 -0.017565 0.376724 -0.02457 -0.926 255 255 255 255 0.472509 0.179559
0.01757 0.170175 -0.01736 0.924905 -0.004111 -0.380177 255 255 255 255 0.472509 0.179559
0.01757 0.189132 -0.017565 0.924905 -0.004111 -0.380177 255 255 255 255 0.472509 0.179559
0.02479 0.189132 -0 0.924905 -0.004111 -0.380177 255 255 255 255 0.472509 0.179559
0 0.170175 -0.02421 -0.363221 -0.010075 -0.931648 255 255 255 255 0.472509 0.179559
-0.01757 0.170175 -0.01736 -0.363221 -0.010075 -0.931648 255 255 255 255 0.472509 0.179559
-0.01757 0.189132 -0.017565 -0.363221 -0.010075 -0.931648 255 255 255 255 0.472509 0.179559
-0.01757 0.170175 -0.01736 -0.923329 -0 -0.384011 255 255 255 255 0.472509 0.179559
-0.02479 0.170175 -0 -0.923329 -0 -0.384011 255 255 255 255 0.472509 0.179559
-0.02479 0.189132 -0 -0.923329 -0 -0.384011 255 255 255 255 0.472509 0.179559
-0.016476 0.189132 -0 -0.861345 -0.364452 0.353921 255 255 255 255 0.34118 0.214824
-0.011678 0.189132 0.011677 -0.861345 -0.364452 0.353921 255 255 255 255 0.34118 0.214824
-0.018917 0.208244 0.01374 -0.861345 -0.364452 0.353921 255 255 255 255 0.34118 0.214823
-0.011678 0.189132 0.011677 -0.347053 -0.404163 0.84629 255 255 255 255 0.34118 0.214824
0 0.189132 0.016466 -0.347053 -0.404163 0.84629 255 255 255 255 0.34118 0.214824
-0.003769 0.206113 0.02303 -0.347053 -0.404163 0.84629 255 255 255 255 0.34118 0.214823
0 0.189132 0.016466 0.338465 -0.451931 0.825348 255 255 255 255 0.34118 0.214824
0.011678 0.189132 0.011677 0.338465 -0.451931 0.825348 255 255 255 255 0.34118 0.214824
0.013575 0.203753 0.018905 0.338465 -0.451931 0.825348 255 255 255 255 0.34118 0.214823
0.011678 0.189132 0.011677 0.811322 -0.480233 0.333367 255 255 255 255 0.34118 0.214824
0.016476 0.189132 -0 0.811322 -0.480233 0.333367 255 255 255 255 0.34118 0.214824
0.022921 0.20255 0.003644 0.811322 -0.480233 0.333367 255 255 255 255 0.34118 0.214823
0.011678 0.189132 -0.011678 0.344196 -0.42044 -0.8395 255 255 255 255 0.34118 0.214824
0 0.189132 -0.016466 0.344196 -0.42044 -0.8395 255 255 255 255 0.34118 0.214824
0.003769 0.205324 -0.02303 0.344196 -0.42044 -0.8395 255 255 255 255 0.34118 0.214824
0.016476 0.189132 -0 0.816653 -0.469573 -0.335528 255 255 255 255 0.34118 0.214824
0.011678 0.189132 -0.011678 0.816653 -0.469573 -0.335528 255 255 255 255 0.34118 0.214824
0.018917 0.203195 -0.01374 0.816653 -0.469573 -0.335528 255 255 255 255 0.34118 0.214824
0 0.189132 -0.016466 -0.352321 -0.370736 -0.859316 255 255 255 255 0.34118 0.214824
-0.011678 0.189132 -0.011678 -0.352321 -0.370736 -0.859316 255 255 255 255 0.34118 0.214824
-0.013575 0.207686 -0.018905 -0.352321 -0.370736 -0.859316 255 255 255 255 0.34118 0.214824
-0.011678 0.189132 -0.011678 -0.866968 -0.34855 -0.356201 255 255 255 255 0.34118 0.214824
-0.016476 0.189132 -0 -0.866968 -0.34855 -0.356201 255 255 255 255 0.34118 0.214824
-0.022921 0.208887 -0.003644 -0.866968 -0.34855 -0.356201 255 255 255 255 0.34118 0.214824
0 0.016939 0.031008 0.34028 -0.029352 0.939866 255 255 255 255 0.472509 0.179559
0 0 0.030479 0.34028 -0.029352 0.939866 255 255 255 255 0.472509 0.179559
0.023063 0 0.022129 0.34028 -0.029352 0.939866 255 255 255 255 0.472509 0.179559
0.03254 -0 -9e-06 0.908828 -0.112823 0.401624 255 255 255 255 0.472509 0.179559
0.034653 0.016939 -3.2e-05 0.908828 -0.112823 0.401624 255 255 255 255 0.472509 0.179559
0.024561 0.016939 0.022805 0.908828 -0.112823 0.401624 255 255 255 255 0.472509 0.179559
0.024561 0.016939 -0.022873 0.908742 -0.113903 -0.401516 255 255 255 255 0.472509 0.179559
0.034653 0.016939 -3.2e-05 0.908742 -0.113903 -0.401516 255 255 255 255 0.472509 0.179559
0.03254 -0 -9e-06 0.908742 -0.113903 -0.401516 255 255 255 255 0.472509 0.179559
0.023063 -0 -0.022155 0.3404 -0.031678 -0.939747 255 255 255 255 0.472509 0.179559
0 -0 -0.030509 0.3404 -0.031678 -0.939747 255 255 255 255 0.472509 0.179559
0 0.016939 -0.03108 0.3404 -0.031678 -0.939747 255 255 255 255 0.472509 0.179559
0 0.016939 -0.03108 -0.3404 -0.031678 -0.939747 255 255 255 255 0.472509 0.179559
0 -0 -0.030509 -0.3404 -0.031678 -0.939747 255 255 255 255 0.472509 0.179559
-0.023063 -0 -0.022155 -0.3404 -0.031678 -0.939747 255 255 255 255 0.472509 0.179559
-0.03254 -0 -9e-06 -0.908742 -0.113903 -0.401516 255 255 255 255 0.472509 0.179559
-0.034653 0.016939 -3.2e-05 -0.908742 -0.113903 -0.401516 255 255 255 255 0.472509 0.179559
-0.024561 0.016939 -0.022873 -0.908742 -0.113903 -0.401516 255 255 255 255 0.472509 0.179559
-0.024561 0.016939 0.022805 -0.908828 -0.112823 0.401624 255 255 255 255 0.472509 0.179559
-0.034653 0.016939 -3.2e-05 -0.908828 -0.112823 0.401624 255 255 255 255 0.472509 0.179559
-0.03254 -0 -9e-06 -0.908828 -0.112823 0.401624 255 255 255 255 0.472509 0.179559
0 0.016939 0.031008 -0.316099 -0.065725 0.946447 255 255 255 255 0.472509 0.179559
-0.024561 0.016939 0.022805 -0.316099 -0.065725 0.946447 255 255 255 255 0.472509 0.179559
-0.023063 0 0.022129 -0.316099 -0.065725 0.946447 255 255 255 255 0.472509 0.179559
-0.080948 0.116121 -8.4e-05 -0.892301 -0.210819 0.399191 255 255 255 255 0.472509 0.179559
-0.064947 0.048434 -6.4e-05 -0.892301 -0.210819 0.399191 255 255 255 255 0.472509 0.179559
-0.046033 0.048434 0.042214 -0.892301 -0.210819 0.399191 255 255 255 255 0.472509 0.179559
-0.046033 0.048434 -0.042345 -0.892267 -0.211047 -0.399147 255 255 255 255 0.472509 0.179559
-0.064947 0.048434 -6.4e-05 -0.892267 -0.211047 -0.399147 255 255 255 255 0.472509 0.179559
-0.080948 0.116121 -8.4e-05 -0.892267 -0.211047 -0.399147 255 255 255 255 0.472509 0.179559
0 0.116121 -0.060079 -0.124411 -0.171444 -0.977307 255 255 255 255 0.472509 0.179559
0 0.048434 -0.048205 -0.124411 -0.171444 -0.977307 255 255 255 255 0.472509 0.179559
-0.046033 0.048434 -0.042345 -0.124411 -0.171444 -0.977307 255 255 255 255 0.472509 0.179559
0.046033 0.048434 -0.042345 0.124411 -0.171444 -0.977307 255 255 255 255 0.472509 0.179559
0 0.048434 -0.048205 0.124411 -0.171444 -0.977307 255 255 255 255 0.472509 0.179559
0 0.116121 -0.060079 0.124411 -0.171444 -0.977307 255 255 255 255 0.472509 0.179559
0.080948 0.116121 -8.4e-05 0.892267 -0.211047 -0.399147 255 255 255 255 0.472509 0.179559
0.064947 0.048434 -6.4e-05 0.892267 -0.211047 -0.399147 255 255 255 255 0.472509 0.179559
0.046033 0.048434 -0.042345 0.892267 -0.211047 -0.399147 255 255 255 255 0.472509 0.179559
0.046033 0.048434 0.042214 0.892301 -0.210819 0.399191 255 255 255 255 0.472509 0.179559
0.064947 0.048434 -6.4e-05 0.892301 -0.210819 0.399191 255 255 255 255 0.472509 0.179559
0.080948 0.116121 -8.4e-05 0.892301 -0.210819 0.399191 255 255 255 255 0.472509 0.179559
0 0.116121 0.059912 0.124274 -0.171041 0.977395 255 255 255 255 0.472509 0.179559
0 0.048434 0.048067 0.124274 -0.171041 0.977395 255 255 255 255 0.472509 0.179559
0.046033 0.048434 0.042214 0.124274 -0.171041 0.977395 255 255 255 255 0.472509 0.179559
-0.046033 0.048434 0.042214 -0.124274 -0.171041 0.977395 255 255 255 255 0.472509 0.179559
0 0.048434 0.048067 -0.124274 -0.171041 0.977395 255 255 255 255 0.472509 0.179559
0 0.116121 0.059912 -0.124274 -0.171041 0.977395 255 255 255 255 0.472509 0.179559
3 0 1 2 
3 3 4 5 
3 6 7 8 
3 9 10 11 
3 12 13 14 
3 15 16 17 
3 18 19 20 
3 21 9 22 
3 23 24 25 
3 26 27 28 
3 9 29 30 
3 9 31 22 
3 32 33 34 
3 35 36 37 
3 38 39 40 
3 41 42 43 
3 44 45 46 
3 47 48 49 
3 50 51 52 
3 53 54 55 
3 56 57 58 
3 59 60 61 
3 62 63 64 
3 65 66 67 
3 68 69 70 
3 71 72 73 
3 74 75 76 
3 77 78 79 
3 80 81 82 
3 83 84 85 
3 86 87 88 
3 89 90 91 
3 92 93 94 
3 95 96 97 
3 98 99 100 
3 101 102 103 
3 104 105 106 
3 107 108 109 
3 110 111 112 
3 113 114 115 
3 116 117 118 
3 119 120 121 
3 122 123 124 
3 125 126 127 
3 128 129 130 
3 131 132 133 
3 134 135 136 
3 137 138 139 
3 140 141 142 
3 143 144 141 
3 145 144 146 
3 147 148 145 
3 149 150 151 
3 147 151 152 
3 153 150 154 
3 140 155 153 
3 156 157 158 
3 159 160 161 
3 162 163 164 
3 165 166 167 
3 168 169 170 
3 171 172 173 
3 174 175 176 
3 177 178 179 
3 180 181 182 
3 183 181 184 
3 183 185 186 
3 187 185 188 
3 189 190 191 
3 187 190 192 
3 189 193 194 
3 180 193 195 
3 196 197 198 
3 199 200 201 
3 202 203 204 
3 205 206 207 
3 208 209 210 
3 211 212 213 
3 214 215 216 
3 217 218 219 
3 220 221 222 
3 223 224 225 
3 226 227 228 
3 229 230 231 
3 232 233 234 
3 235 236 237 
3 238 239 240 
3 241 242 243 
3 244 245 246 
3 247 248 249 
3 250 251 252 
3 253 254 255 
3 256 257 258 
3 259 260 261 
3 262 263 264 
3 265 266 267 
3 268 269 270 
3 271 272 273 
3 274 275 276 
3 9 277 10 
3 278 279 280 
3 281 282 283 
3 284 285 286 
3 21 277 9 
3 287 288 289 
3 290 291 292 
3 9 11 29 
3 9 30 31 
3 293 294 295 
3 296 297 298 
3 299 300 301 
3 302 303 304 
3 305 306 307 
3 308 309 310 
3 311 312 313 
3 314 315 316 
3 317 318 319 
3 320 321 322 
3 323 324 325 
3 326 327 328 
3 329 330 331 
3 332 333 334 
3 335 336 337 
3 338 339 340 
3 341 342 343 
3 344 345 346 
3 347 348 349 
3 350 351 352 
3 353 354 355 
3 356 357 358 
3 359 360 361 
3 362 363 364 
3 365 366 367 
3 368 369 370 
3 371 372 373 
3 374 375 376 
3 377 378 379 
3 380 381 382 
3 383 384 385 
3 386 387 388 
3 389 390 391 
3 392 393 394 
3 395 396 397 
3 398 399 400 
3 140 143 141 
3 143 146 144 
3 145 148 144 
3 147 152 148 
3 149 154 150 
3 147 149 151 
3 153 155 150 
3 140 142 155 
3 401 402 403 
3 404 405 406 
3 407 408 409 
3 410 411 412 
3 413 414 415 
3 416 417 418 
3 419 420 421 
3 422 423 424 
3 180 184 181 
3 183 186 181 
3 183 188 185 
3 187 192 185 
3 189 194 190 
3 187 191 190 
3 189 195 193 
3 180 182 193 
3 425 426 427 
3 428 429 430 
3 431 432 433 
3 434 435 436 
3 437 438 439 
3 440 441 442 
3 443 444 445 
3 446 447 448 
3 449 450 451 
3 452 453 454 
3 455 456 457 
3 458 459 460 
3 461 462 463 
3 464 465 466 
3 467 468 469 
3 470 471 472 
3 473 474 475 
3 476 477 478 
3 479 480 481 
3 482 483 484 
3 485 486 487 
3 488 489 490 
3 491 492 493 
3 494 495 496 
