ply
format ascii 1.0
comment VCGLIB generated
comment TextureFile Texture_01_A.png
element vertex 381
property float x
property float y
property float z
property float nx
property float ny
property float nz
property uchar red
property uchar green
property uchar blue
property uchar alpha
property float texture_u
property float texture_v
element face 160
property list uchar int vertex_indices
end_header
0 0.102325 -0.103258 -0.363636 0.290619 -0.885048 255 255 255 255 0.434455 0.283461
-0.059124 0.162782 -0.059114 -0.363636 0.290619 -0.885048 255 255 255 255 0.434455 0.283461
0 0.162782 -0.083406 -0.363636 0.290619 -0.885048 255 255 255 255 0.434455 0.283461
0 0.249167 -0 -0.102126 0.981773 -0.160284 255 255 255 255 0.34118 0.214823
-0.015648 0.250203 0.016316 -0.102126 0.981773 -0.160284 255 255 255 255 0.34118 0.214823
0.000341 0.25282 0.022158 -0.102126 0.981773 -0.160284 255 255 255 255 0.34118 0.214823
0 0.102325 0.10307 -0.363974 0.287809 0.885827 255 255 255 255 0.434455 0.283461
-0.059124 0.162782 0.059134 -0.363974 0.287809 0.885827 255 255 255 255 0.434455 0.283461
-0.07312 0.102325 0.073026 -0.363974 0.287809 0.885827 255 255 255 255 0.434455 0.283461
0 0 0 0 -1 0 255 255 255 255 0.434455 0.283461
-0.055203 0 0.055214 0 -1 0 255 255 255 255 0.434455 0.283461
-0.077885 0 1.1e-05 0 -1 0 255 255 255 255 0.434455 0.283461
-0.083417 0.162782 1.1e-05 -0.885597 0.288633 0.363882 255 255 255 255 0.434455 0.283461
-0.07312 0.102325 0.073026 -0.885597 0.288633 0.363882 255 255 255 255 0.434455 0.283461
-0.059124 0.162782 0.059134 -0.885597 0.288633 0.363882 255 255 255 255 0.434455 0.283461
0.07312 0.102325 0.073026 0.885597 0.288633 0.363882 255 255 255 255 0.434455 0.283461
0.083417 0.162782 1.1e-05 0.885597 0.288633 0.363882 255 255 255 255 0.434455 0.283461
0.059124 0.162782 0.059134 0.885597 0.288633 0.363882 255 255 255 255 0.434455 0.283461
0 0.102325 -0.103258 0.363642 0.290613 -0.885048 255 255 255 255 0.434455 0.283461
0.059124 0.162782 -0.059114 0.363642 0.290613 -0.885048 255 255 255 255 0.434455 0.283461
0.07312 0.102325 -0.073215 0.363642 0.290613 -0.885048 255 255 255 255 0.434455 0.283461
0.055203 0 0.055214 0 -1 0 255 255 255 255 0.434455 0.283461
0.077885 0 1.1e-05 0 -1 0 255 255 255 255 0.434455 0.283461
0.059124 0.162782 0.059134 0.363974 0.287809 0.885827 255 255 255 255 0.434455 0.283461
0 0.102325 0.10307 0.363974 0.287809 0.885827 255 255 255 255 0.434455 0.283461
0.07312 0.102325 0.073026 0.363974 0.287809 0.885827 255 255 255 255 0.434455 0.283461
0 0.249167 -0 -0.102024 0.98179 -0.160247 255 255 255 255 0.34118 0.214823
0.016132 0.253307 0.015094 -0.102024 0.98179 -0.160247 255 255 255 255 0.34118 0.214823
0.022419 0.251356 -0.000862 -0.102024 0.98179 -0.160247 255 255 255 255 0.34118 0.214823
-0.055203 -0 -0.055193 -0 -1 0 255 255 255 255 0.434455 0.283461
0 -0 -0.077874 -0 -1 0 255 255 255 255 0.434455 0.283461
0.055203 -0 -0.055193 0 -1 0 255 255 255 255 0.434455 0.283461
0.103164 0.102325 -9.5e-05 0.885276 0.289794 -0.363738 255 255 255 255 0.434455 0.283461
0.059124 0.162782 -0.059114 0.885276 0.289794 -0.363738 255 255 255 255 0.434455 0.283461
0.083417 0.162782 1.1e-05 0.885276 0.289794 -0.363738 255 255 255 255 0.434455 0.283461
0.015648 0.248128 -0.016316 -0.102027 0.98177 -0.160369 255 255 255 255 0.34118 0.214824
0 0.249167 -0 -0.102027 0.98177 -0.160369 255 255 255 255 0.34118 0.214823
0.022419 0.251356 -0.000862 -0.102027 0.98177 -0.160369 255 255 255 255 0.34118 0.214823
0 0.249167 -0 -0.10198 0.981798 -0.16023 255 255 255 255 0.34118 0.214823
-0.016132 0.245028 -0.015094 -0.10198 0.981798 -0.16023 255 255 255 255 0.34118 0.214824
-0.022419 0.246979 0.000862 -0.10198 0.981798 -0.16023 255 255 255 255 0.34118 0.214824
-0.103164 0.102325 -9.5e-05 -0.885275 0.289785 -0.363748 255 255 255 255 0.434455 0.283461
-0.059124 0.162782 -0.059114 -0.885275 0.289785 -0.363748 255 255 255 255 0.434455 0.283461
-0.07312 0.102325 -0.073215 -0.885275 0.289785 -0.363748 255 255 255 255 0.434455 0.283461
0 0.102325 0.10307 0.370581 -0.221886 0.901907 255 255 255 255 0.434455 0.283461
0.055203 0 0.055214 0.370581 -0.221886 0.901907 255 255 255 255 0.434455 0.283461
0.07312 0.102325 0.073026 0.370581 -0.221886 0.901907 255 255 255 255 0.434455 0.283461
0.077885 0 1.1e-05 0.901799 -0.222404 0.370534 255 255 255 255 0.434455 0.283461
0.07312 0.102325 0.073026 0.901799 -0.222404 0.370534 255 255 255 255 0.434455 0.283461
0.055203 0 0.055214 0.901799 -0.222404 0.370534 255 255 255 255 0.434455 0.283461
0.103164 0.102325 -9.5e-05 0.901645 -0.223127 -0.370474 255 255 255 255 0.434455 0.283461
0.055203 -0 -0.055193 0.901645 -0.223127 -0.370474 255 255 255 255 0.434455 0.283461
0.07312 0.102325 -0.073215 0.901645 -0.223127 -0.370474 255 255 255 255 0.434455 0.283461
0.055203 -0 -0.055193 0.370418 -0.223644 -0.90154 255 255 255 255 0.434455 0.283461
0 0.102325 -0.103258 0.370418 -0.223644 -0.90154 255 255 255 255 0.434455 0.283461
0.07312 0.102325 -0.073215 0.370418 -0.223644 -0.90154 255 255 255 255 0.434455 0.283461
0 0.102325 -0.103258 -0.370418 -0.223644 -0.90154 255 255 255 255 0.434455 0.283461
-0.055203 -0 -0.055193 -0.370418 -0.223644 -0.90154 255 255 255 255 0.434455 0.283461
-0.07312 0.102325 -0.073215 -0.370418 -0.223644 -0.90154 255 255 255 255 0.434455 0.283461
-0.055203 -0 -0.055193 -0.901645 -0.223127 -0.370474 255 255 255 255 0.434455 0.283461
-0.103164 0.102325 -9.5e-05 -0.901645 -0.223127 -0.370474 255 255 255 255 0.434455 0.283461
-0.07312 0.102325 -0.073215 -0.901645 -0.223127 -0.370474 255 255 255 255 0.434455 0.283461
-0.07312 0.102325 0.073026 -0.901799 -0.222404 0.370534 255 255 255 255 0.434455 0.283461
-0.077885 0 1.1e-05 -0.901799 -0.222404 0.370534 255 255 255 255 0.434455 0.283461
-0.055203 0 0.055214 -0.901799 -0.222404 0.370534 255 255 255 255 0.434455 0.283461
0 0.102325 0.10307 -0.370579 -0.221887 0.901908 255 255 255 255 0.434455 0.283461
-0.055203 0 0.055214 -0.370579 -0.221887 0.901908 255 255 255 255 0.434455 0.283461
0 0 0.077896 -0.370579 -0.221887 0.901908 255 255 255 255 0.434455 0.283461
-0.083417 0.162782 1.1e-05 -0.286738 0.950737 0.117811 255 255 255 255 0.434455 0.283461
-0.030151 0.175112 0.030151 -0.286738 0.950737 0.117811 255 255 255 255 0.434455 0.283461
-0.042539 0.175112 -0 -0.286738 0.950737 0.117811 255 255 255 255 0.434455 0.283461
0 0.162782 0.083428 -0.117806 0.950749 0.286703 255 255 255 255 0.434455 0.283461
-0.030151 0.175112 0.030151 -0.117806 0.950749 0.286703 255 255 255 255 0.434455 0.283461
-0.059124 0.162782 0.059134 -0.117806 0.950749 0.286703 255 255 255 255 0.434455 0.283461
0 0.162782 0.083428 0.117794 0.950752 0.286697 255 255 255 255 0.434455 0.283461
0.030151 0.175112 0.030151 0.117794 0.950752 0.286697 255 255 255 255 0.434455 0.283461
0 0.175112 0.042539 0.117794 0.950752 0.286697 255 255 255 255 0.434455 0.283461
0.083417 0.162782 1.1e-05 0.286743 0.950735 0.117819 255 255 255 255 0.434455 0.283461
0.030151 0.175112 0.030151 0.286743 0.950735 0.117819 255 255 255 255 0.434455 0.283461
0.059124 0.162782 0.059134 0.286743 0.950735 0.117819 255 255 255 255 0.434455 0.283461
0 0.162782 -0.083406 0.117851 0.950703 -0.286837 255 255 255 255 0.434455 0.283461
0.030151 0.175112 -0.030151 0.117851 0.950703 -0.286837 255 255 255 255 0.434455 0.283461
0.059124 0.162782 -0.059114 0.117851 0.950703 -0.286837 255 255 255 255 0.434455 0.283461
0.083417 0.162782 1.1e-05 0.286796 0.950717 -0.117834 255 255 255 255 0.434455 0.283461
0.030151 0.175112 -0.030151 0.286796 0.950717 -0.117834 255 255 255 255 0.434455 0.283461
0.042539 0.175112 -0 0.286796 0.950717 -0.117834 255 255 255 255 0.434455 0.283461
0 0.162782 -0.083406 -0.117851 0.950703 -0.286837 255 255 255 255 0.434455 0.283461
-0.030151 0.175112 -0.030151 -0.117851 0.950703 -0.286837 255 255 255 255 0.434455 0.283461
0 0.175112 -0.042539 -0.117851 0.950703 -0.286837 255 255 255 255 0.434455 0.283461
-0.083417 0.162782 1.1e-05 -0.286798 0.950716 -0.117838 255 255 255 255 0.434455 0.283461
-0.030151 0.175112 -0.030151 -0.286798 0.950716 -0.117838 255 255 255 255 0.434455 0.283461
-0.059124 0.162782 -0.059114 -0.286798 0.950716 -0.117838 255 255 255 255 0.434455 0.283461
-0.042539 0.175112 -0 -0.614389 0.747528 0.252442 255 255 255 255 0.434455 0.283461
-0.014133 0.193686 0.014133 -0.614389 0.747528 0.252442 255 255 255 255 0.434455 0.283461
-0.01994 0.193686 -0 -0.614389 0.747528 0.252442 255 255 255 255 0.434455 0.283461
0 0.175112 0.042539 -0.25243 0.747534 0.614388 255 255 255 255 0.434455 0.283461
-0.014133 0.193686 0.014133 -0.25243 0.747534 0.614388 255 255 255 255 0.434455 0.283461
-0.030151 0.175112 0.030151 -0.25243 0.747534 0.614388 255 255 255 255 0.434455 0.283461
0 0.175112 0.042539 0.252442 0.747528 0.61439 255 255 255 255 0.434455 0.283461
0.014133 0.193686 0.014133 0.252442 0.747528 0.61439 255 255 255 255 0.434455 0.283461
0 0.193686 0.01994 0.252442 0.747528 0.61439 255 255 255 255 0.434455 0.283461
0.042539 0.175112 -0 0.614388 0.747534 0.252431 255 255 255 255 0.434455 0.283461
0.014133 0.193686 0.014133 0.614388 0.747534 0.252431 255 255 255 255 0.434455 0.283461
0.030151 0.175112 0.030151 0.614388 0.747534 0.252431 255 255 255 255 0.434455 0.283461
0 0.175112 -0.042539 0.252431 0.747534 -0.614388 255 255 255 255 0.434455 0.283461
0.014133 0.193686 -0.014133 0.252431 0.747534 -0.614388 255 255 255 255 0.434455 0.283461
0.030151 0.175112 -0.030151 0.252431 0.747534 -0.614388 255 255 255 255 0.434455 0.283461
0.042539 0.175112 -0 0.61439 0.747528 -0.252442 255 255 255 255 0.434455 0.283461
0.014133 0.193686 -0.014133 0.61439 0.747528 -0.252442 255 255 255 255 0.434455 0.283461
0.01994 0.193686 -0 0.61439 0.747528 -0.252442 255 255 255 255 0.434455 0.283461
0 0.175112 -0.042539 -0.252442 0.747528 -0.61439 255 255 255 255 0.434455 0.283461
-0.014133 0.193686 -0.014133 -0.252442 0.747528 -0.61439 255 255 255 255 0.434455 0.283461
0 0.193686 -0.01994 -0.252442 0.747528 -0.61439 255 255 255 255 0.434455 0.283461
-0.042539 0.175112 -0 -0.614388 0.747534 -0.252431 255 255 255 255 0.434455 0.283461
-0.014133 0.193686 -0.014133 -0.614388 0.747534 -0.252431 255 255 255 255 0.434455 0.283461
-0.030151 0.175112 -0.030151 -0.614388 0.747534 -0.252431 255 255 255 255 0.434455 0.283461
-0.014133 0.193686 0.014133 -0.921563 -0.08569 0.378654 255 255 255 255 0.434455 0.283461
-0.021358 0.208936 -0 -0.921563 -0.08569 0.378654 255 255 255 255 0.434455 0.283461
-0.01994 0.193686 -0 -0.921563 -0.08569 0.378654 255 255 255 255 0.434455 0.283461
-0.014133 0.193686 0.014133 -0.378657 -0.085686 0.921562 255 255 255 255 0.434455 0.283461
0 0.208936 0.021358 -0.378657 -0.085686 0.921562 255 255 255 255 0.434455 0.283461
-0.015138 0.208936 0.015138 -0.378657 -0.085686 0.921562 255 255 255 255 0.434455 0.283461
0.014133 0.193686 0.014133 0.378654 -0.08569 0.921563 255 255 255 255 0.434455 0.283461
0 0.208936 0.021358 0.378654 -0.08569 0.921563 255 255 255 255 0.434455 0.283461
0 0.193686 0.01994 0.378654 -0.08569 0.921563 255 255 255 255 0.434455 0.283461
0.014133 0.193686 0.014133 0.921562 -0.085686 0.378657 255 255 255 255 0.434455 0.283461
0.021358 0.208936 -0 0.921562 -0.085686 0.378657 255 255 255 255 0.434455 0.283461
0.015138 0.208936 0.015138 0.921562 -0.085686 0.378657 255 255 255 255 0.434455 0.283461
0.014133 0.193686 -0.014133 0.378657 -0.085687 -0.921562 255 255 255 255 0.434455 0.283461
0 0.208936 -0.021358 0.378657 -0.085687 -0.921562 255 255 255 255 0.434455 0.283461
0.015138 0.208936 -0.015138 0.378657 -0.085687 -0.921562 255 255 255 255 0.434455 0.283461
0.014133 0.193686 -0.014133 0.921563 -0.08569 -0.378654 255 255 255 255 0.434455 0.283461
0.021358 0.208936 -0 0.921563 -0.08569 -0.378654 255 255 255 255 0.434455 0.283461
0.01994 0.193686 -0 0.921563 -0.08569 -0.378654 255 255 255 255 0.434455 0.283461
-0.014133 0.193686 -0.014133 -0.378654 -0.08569 -0.921563 255 255 255 255 0.434455 0.283461
0 0.208936 -0.021358 -0.378654 -0.08569 -0.921563 255 255 255 255 0.434455 0.283461
0 0.193686 -0.01994 -0.378654 -0.08569 -0.921563 255 255 255 255 0.434455 0.283461
-0.014133 0.193686 -0.014133 -0.921562 -0.085687 -0.378657 255 255 255 255 0.434455 0.283461
-0.021358 0.208936 -0 -0.921562 -0.085687 -0.378657 255 255 255 255 0.434455 0.283461
-0.015138 0.208936 -0.015138 -0.921562 -0.085687 -0.378657 255 255 255 255 0.434455 0.283461
-0.015138 0.208936 0.015138 0 -1 0 255 255 255 255 0.434455 0.283461
-0.028059 0.208936 -0 0 -1 0 255 255 255 255 0.434455 0.283461
-0.021358 0.208936 -0 0 -1 0 255 255 255 255 0.434455 0.283461
0 0.208936 0.028059 0 -1 -0 255 255 255 255 0.434455 0.283461
-0.019888 0.208936 0.019888 0 -1 -0 255 255 255 255 0.434455 0.283461
0.015138 0.208936 0.015138 0 -1 0 255 255 255 255 0.434455 0.283461
0 0.208936 0.021358 0 -1 0 255 255 255 255 0.434455 0.283461
0.028059 0.208936 -0 -0 -1 -0 255 255 255 255 0.434455 0.283461
0.019888 0.208936 0.019888 -0 -1 -0 255 255 255 255 0.434455 0.283461
0.015138 0.208936 -0.015138 -0 -1 0 255 255 255 255 0.434455 0.283461
0 0.208936 -0.028059 -0 -1 0 255 255 255 255 0.434455 0.283461
0.019888 0.208936 -0.019888 -0 -1 0 255 255 255 255 0.434455 0.283461
0.021358 0.208936 -0 0 -1 -0 255 255 255 255 0.434455 0.283461
-0.015138 0.208936 -0.015138 -0 -1 -0 255 255 255 255 0.434455 0.283461
0 0.208936 -0.021358 -0 -1 -0 255 255 255 255 0.434455 0.283461
-0.019888 0.208936 -0.019888 0 -1 0 255 255 255 255 0.434455 0.283461
-0.019888 0.208936 0.019888 -0.924976 0 0.380027 255 255 255 255 0.434455 0.283461
-0.028059 0.230393 -0 -0.924976 0 0.380027 255 255 255 255 0.434455 0.283461
-0.028059 0.208936 -0 -0.924976 0 0.380027 255 255 255 255 0.434455 0.283461
0 0.208936 0.028059 -0.380027 0 0.924976 255 255 255 255 0.434455 0.283461
-0.019888 0.230393 0.019888 -0.380027 0 0.924976 255 255 255 255 0.434455 0.283461
-0.019888 0.208936 0.019888 -0.380027 0 0.924976 255 255 255 255 0.434455 0.283461
0.019888 0.208936 0.019888 0.380027 0 0.924976 255 255 255 255 0.434455 0.283461
0 0.230393 0.028059 0.380027 0 0.924976 255 255 255 255 0.434455 0.283461
0 0.208936 0.028059 0.380027 0 0.924976 255 255 255 255 0.434455 0.283461
0.028059 0.208936 -0 0.924976 0 0.380027 255 255 255 255 0.434455 0.283461
0.019888 0.230393 0.019888 0.924976 0 0.380027 255 255 255 255 0.434455 0.283461
0.019888 0.208936 0.019888 0.924976 0 0.380027 255 255 255 255 0.434455 0.283461
0 0.208936 -0.028059 0.380027 -0 -0.924976 255 255 255 255 0.434455 0.283461
0.019888 0.230393 -0.019888 0.380027 -0 -0.924976 255 255 255 255 0.434455 0.283461
0.019888 0.208936 -0.019888 0.380027 -0 -0.924976 255 255 255 255 0.434455 0.283461
0.019888 0.208936 -0.019888 0.924976 -0 -0.380027 255 255 255 255 0.434455 0.283461
0.028059 0.230393 -0 0.924976 -0 -0.380027 255 255 255 255 0.434455 0.283461
0.028059 0.208936 -0 0.924976 -0 -0.380027 255 255 255 255 0.434455 0.283461
-0.019888 0.208936 -0.019888 -0.380027 -0 -0.924976 255 255 255 255 0.434455 0.283461
0 0.230393 -0.028059 -0.380027 -0 -0.924976 255 255 255 255 0.434455 0.283461
0 0.208936 -0.028059 -0.380027 -0 -0.924976 255 255 255 255 0.434455 0.283461
-0.028059 0.208936 -0 -0.924976 -0 -0.380027 255 255 255 255 0.434455 0.283461
-0.019888 0.230393 -0.019888 -0.924976 -0 -0.380027 255 255 255 255 0.434455 0.283461
-0.019888 0.208936 -0.019888 -0.924976 -0 -0.380027 255 255 255 255 0.434455 0.283461
-0.028059 0.230393 -0 0 1 -0 255 255 255 255 0.434455 0.283461
-0.013218 0.230393 0.013218 0 1 -0 255 255 255 255 0.434455 0.283461
-0.018649 0.230393 -0 0 1 -0 255 255 255 255 0.434455 0.283461
0 0.230393 0.028059 -0 1 0 255 255 255 255 0.434455 0.283461
-0.019888 0.230393 0.019888 -0 1 0 255 255 255 255 0.434455 0.283461
0.013218 0.230393 0.013218 -0 1 -0 255 255 255 255 0.434455 0.283461
0 0.230393 0.018649 -0 1 -0 255 255 255 255 0.434455 0.283461
0.028059 0.230393 -0 0 1 0 255 255 255 255 0.434455 0.283461
0.019888 0.230393 0.019888 0 1 0 255 255 255 255 0.434455 0.283461
0 0.230393 -0.028059 0 1 0 255 255 255 255 0.434455 0.283461
0.013218 0.230393 -0.013218 0 1 0 255 255 255 255 0.434455 0.283461
0.019888 0.230393 -0.019888 0 1 0 255 255 255 255 0.434455 0.283461
0.018649 0.230393 -0 -0 1 0 255 255 255 255 0.434455 0.283461
-0.013218 0.230393 -0.013218 0 1 0 255 255 255 255 0.434455 0.283461
0 0.230393 -0.018649 0 1 0 255 255 255 255 0.434455 0.283461
-0.019888 0.230393 -0.019888 0 1 -0 255 255 255 255 0.434455 0.283461
-0.013218 0.230393 0.013218 -0.901431 -0.224145 0.370379 255 255 255 255 0.34118 0.214824
-0.022419 0.246979 0.000862 -0.901431 -0.224145 0.370379 255 255 255 255 0.34118 0.214824
-0.018649 0.230393 -0 -0.901431 -0.224145 0.370379 255 255 255 255 0.34118 0.214824
0 0.230393 0.018649 -0.373283 -0.187865 0.908497 255 255 255 255 0.34118 0.214824
-0.015648 0.250203 0.016316 -0.373283 -0.187865 0.908497 255 255 255 255 0.34118 0.214823
-0.013218 0.230393 0.013218 -0.373283 -0.187865 0.908497 255 255 255 255 0.34118 0.214824
0.013218 0.230393 0.013218 0.375817 -0.148826 0.914665 255 255 255 255 0.34118 0.214824
0.000341 0.25282 0.022158 0.375817 -0.148826 0.914665 255 255 255 255 0.34118 0.214823
0 0.230393 0.018649 0.375817 -0.148826 0.914665 255 255 255 255 0.34118 0.214824
0.013218 0.230393 0.013218 0.913979 -0.147189 0.378124 255 255 255 255 0.34118 0.214824
0.022419 0.251356 -0.000862 0.913979 -0.147189 0.378124 255 255 255 255 0.34118 0.214823
0.016132 0.253307 0.015094 0.913979 -0.147189 0.378124 255 255 255 255 0.34118 0.214823
0.013218 0.230393 -0.013218 0.365539 -0.208546 -0.907133 255 255 255 255 0.34118 0.214824
-0.000341 0.245514 -0.022158 0.365539 -0.208546 -0.907133 255 255 255 255 0.34118 0.214824
0.015648 0.248128 -0.016316 0.365539 -0.208546 -0.907133 255 255 255 255 0.34118 0.214824
0.018649 0.230393 -0 0.914311 -0.179362 -0.363131 255 255 255 255 0.34118 0.214824
0.015648 0.248128 -0.016316 0.914311 -0.179362 -0.363131 255 255 255 255 0.34118 0.214824
0.022419 0.251356 -0.000862 0.914311 -0.179362 -0.363131 255 255 255 255 0.34118 0.214823
-0.013218 0.230393 -0.013218 -0.370921 -0.217858 -0.902749 255 255 255 255 0.34118 0.214824
-0.000341 0.245514 -0.022158 -0.370921 -0.217858 -0.902749 255 255 255 255 0.34118 0.214824
0 0.230393 -0.018649 -0.370921 -0.217858 -0.902749 255 255 255 255 0.34118 0.214824
-0.018649 0.230393 -0 -0.900859 -0.226819 -0.370144 255 255 255 255 0.34118 0.214824
-0.016132 0.245028 -0.015094 -0.900859 -0.226819 -0.370144 255 255 255 255 0.34118 0.214824
-0.013218 0.230393 -0.013218 -0.900859 -0.226819 -0.370144 255 255 255 255 0.34118 0.214824
0 0.102325 -0.103258 -0.363642 0.290613 -0.885048 255 255 255 255 0.434455 0.283461
-0.07312 0.102325 -0.073215 -0.363642 0.290613 -0.885048 255 255 255 255 0.434455 0.283461
-0.059124 0.162782 -0.059114 -0.363642 0.290613 -0.885048 255 255 255 255 0.434455 0.283461
0 0.249167 -0 -0.101978 0.981812 -0.160145 255 255 255 255 0.34118 0.214823
-0.022419 0.246979 0.000862 -0.101978 0.981812 -0.160145 255 255 255 255 0.34118 0.214824
-0.015648 0.250203 0.016316 -0.101978 0.981812 -0.160145 255 255 255 255 0.34118 0.214823
0 0.102325 0.10307 -0.363985 0.287798 0.885826 255 255 255 255 0.434455 0.283461
0 0.162782 0.083428 -0.363985 0.287798 0.885826 255 255 255 255 0.434455 0.283461
-0.059124 0.162782 0.059134 -0.363985 0.287798 0.885826 255 255 255 255 0.434455 0.283461
0 0 0.077896 0 -1 0 255 255 255 255 0.434455 0.283461
-0.083417 0.162782 1.1e-05 -0.885601 0.288625 0.363876 255 255 255 255 0.434455 0.283461
-0.103164 0.102325 -9.5e-05 -0.885601 0.288625 0.363876 255 255 255 255 0.434455 0.283461
-0.07312 0.102325 0.073026 -0.885601 0.288625 0.363876 255 255 255 255 0.434455 0.283461
0.07312 0.102325 0.073026 0.885601 0.288625 0.363876 255 255 255 255 0.434455 0.283461
0.103164 0.102325 -9.5e-05 0.885601 0.288625 0.363876 255 255 255 255 0.434455 0.283461
0.083417 0.162782 1.1e-05 0.885601 0.288625 0.363876 255 255 255 255 0.434455 0.283461
0 0.102325 -0.103258 0.363636 0.290619 -0.885048 255 255 255 255 0.434455 0.283461
0 0.162782 -0.083406 0.363636 0.290619 -0.885048 255 255 255 255 0.434455 0.283461
0.059124 0.162782 -0.059114 0.363636 0.290619 -0.885048 255 255 255 255 0.434455 0.283461
0.059124 0.162782 0.059134 0.363985 0.287798 0.885826 255 255 255 255 0.434455 0.283461
0 0.162782 0.083428 0.363985 0.287798 0.885826 255 255 255 255 0.434455 0.283461
0 0.102325 0.10307 0.363985 0.287798 0.885826 255 255 255 255 0.434455 0.283461
0 0.249167 -0 -0.101985 0.981788 -0.160289 255 255 255 255 0.34118 0.214823
0.000341 0.25282 0.022158 -0.101985 0.981788 -0.160289 255 255 255 255 0.34118 0.214823
0.016132 0.253307 0.015094 -0.101985 0.981788 -0.160289 255 255 255 255 0.34118 0.214823
0.103164 0.102325 -9.5e-05 0.885275 0.289785 -0.363748 255 255 255 255 0.434455 0.283461
0.07312 0.102325 -0.073215 0.885275 0.289785 -0.363748 255 255 255 255 0.434455 0.283461
0.059124 0.162782 -0.059114 0.885275 0.289785 -0.363748 255 255 255 255 0.434455 0.283461
0.015648 0.248128 -0.016316 -0.101944 0.981791 -0.16029 255 255 255 255 0.34118 0.214824
-0.000341 0.245514 -0.022158 -0.101944 0.981791 -0.16029 255 255 255 255 0.34118 0.214824
0 0.249167 -0 -0.101944 0.981791 -0.16029 255 255 255 255 0.34118 0.214823
0 0.249167 -0 -0.101922 0.981794 -0.160291 255 255 255 255 0.34118 0.214823
-0.000341 0.245514 -0.022158 -0.101922 0.981794 -0.160291 255 255 255 255 0.34118 0.214824
-0.016132 0.245028 -0.015094 -0.101922 0.981794 -0.160291 255 255 255 255 0.34118 0.214824
-0.103164 0.102325 -9.5e-05 -0.885276 0.289794 -0.363738 255 255 255 255 0.434455 0.283461
-0.083417 0.162782 1.1e-05 -0.885276 0.289794 -0.363738 255 255 255 255 0.434455 0.283461
-0.059124 0.162782 -0.059114 -0.885276 0.289794 -0.363738 255 255 255 255 0.434455 0.283461
0 0.102325 0.10307 0.370579 -0.221887 0.901908 255 255 255 255 0.434455 0.283461
0 0 0.077896 0.370579 -0.221887 0.901908 255 255 255 255 0.434455 0.283461
0.055203 0 0.055214 0.370579 -0.221887 0.901908 255 255 255 255 0.434455 0.283461
0.077885 0 1.1e-05 0.9018 -0.222402 0.370532 255 255 255 255 0.434455 0.283461
0.103164 0.102325 -9.5e-05 0.9018 -0.222402 0.370532 255 255 255 255 0.434455 0.283461
0.07312 0.102325 0.073026 0.9018 -0.222402 0.370532 255 255 255 255 0.434455 0.283461
0.103164 0.102325 -9.5e-05 0.901647 -0.223132 -0.370465 255 255 255 255 0.434455 0.283461
0.077885 0 1.1e-05 0.901647 -0.223132 -0.370465 255 255 255 255 0.434455 0.283461
0.055203 -0 -0.055193 0.901647 -0.223132 -0.370465 255 255 255 255 0.434455 0.283461
0.055203 -0 -0.055193 0.370412 -0.223648 -0.901541 255 255 255 255 0.434455 0.283461
0 -0 -0.077874 0.370412 -0.223648 -0.901541 255 255 255 255 0.434455 0.283461
0 0.102325 -0.103258 0.370412 -0.223648 -0.901541 255 255 255 255 0.434455 0.283461
0 0.102325 -0.103258 -0.370412 -0.223648 -0.901541 255 255 255 255 0.434455 0.283461
0 -0 -0.077874 -0.370412 -0.223648 -0.901541 255 255 255 255 0.434455 0.283461
-0.055203 -0 -0.055193 -0.370412 -0.223648 -0.901541 255 255 255 255 0.434455 0.283461
-0.055203 -0 -0.055193 -0.901647 -0.223132 -0.370465 255 255 255 255 0.434455 0.283461
-0.077885 0 1.1e-05 -0.901647 -0.223132 -0.370465 255 255 255 255 0.434455 0.283461
-0.103164 0.102325 -9.5e-05 -0.901647 -0.223132 -0.370465 255 255 255 255 0.434455 0.283461
-0.07312 0.102325 0.073026 -0.9018 -0.222402 0.370532 255 255 255 255 0.434455 0.283461
-0.103164 0.102325 -9.5e-05 -0.9018 -0.222402 0.370532 255 255 255 255 0.434455 0.283461
-0.077885 0 1.1e-05 -0.9018 -0.222402 0.370532 255 255 255 255 0.434455 0.283461
0 0.102325 0.10307 -0.370581 -0.221886 0.901907 255 255 255 255 0.434455 0.283461
-0.07312 0.102325 0.073026 -0.370581 -0.221886 0.901907 255 255 255 255 0.434455 0.283461
-0.055203 0 0.055214 -0.370581 -0.221886 0.901907 255 255 255 255 0.434455 0.283461
-0.083417 0.162782 1.1e-05 -0.286743 0.950735 0.117819 255 255 255 255 0.434455 0.283461
-0.059124 0.162782 0.059134 -0.286743 0.950735 0.117819 255 255 255 255 0.434455 0.283461
-0.030151 0.175112 0.030151 -0.286743 0.950735 0.117819 255 255 255 255 0.434455 0.283461
0 0.162782 0.083428 -0.117794 0.950752 0.286697 255 255 255 255 0.434455 0.283461
0 0.175112 0.042539 -0.117794 0.950752 0.286697 255 255 255 255 0.434455 0.283461
-0.030151 0.175112 0.030151 -0.117794 0.950752 0.286697 255 255 255 255 0.434455 0.283461
0 0.162782 0.083428 0.117806 0.950749 0.286703 255 255 255 255 0.434455 0.283461
0.059124 0.162782 0.059134 0.117806 0.950749 0.286703 255 255 255 255 0.434455 0.283461
0.030151 0.175112 0.030151 0.117806 0.950749 0.286703 255 255 255 255 0.434455 0.283461
0.083417 0.162782 1.1e-05 0.286738 0.950737 0.117811 255 255 255 255 0.434455 0.283461
0.042539 0.175112 -0 0.286738 0.950737 0.117811 255 255 255 255 0.434455 0.283461
0.030151 0.175112 0.030151 0.286738 0.950737 0.117811 255 255 255 255 0.434455 0.283461
0 0.175112 -0.042539 0.117851 0.950703 -0.286837 255 255 255 255 0.434455 0.283461
0.083417 0.162782 1.1e-05 0.286798 0.950716 -0.117838 255 255 255 255 0.434455 0.283461
0.059124 0.162782 -0.059114 0.286798 0.950716 -0.117838 255 255 255 255 0.434455 0.283461
0.030151 0.175112 -0.030151 0.286798 0.950716 -0.117838 255 255 255 255 0.434455 0.283461
-0.059124 0.162782 -0.059114 -0.117851 0.950703 -0.286837 255 255 255 255 0.434455 0.283461
-0.083417 0.162782 1.1e-05 -0.286796 0.950717 -0.117834 255 255 255 255 0.434455 0.283461
-0.042539 0.175112 -0 -0.286796 0.950717 -0.117834 255 255 255 255 0.434455 0.283461
-0.030151 0.175112 -0.030151 -0.286796 0.950717 -0.117834 255 255 255 255 0.434455 0.283461
-0.042539 0.175112 -0 -0.614388 0.747534 0.252431 255 255 255 255 0.434455 0.283461
-0.030151 0.175112 0.030151 -0.614388 0.747534 0.252431 255 255 255 255 0.434455 0.283461
-0.014133 0.193686 0.014133 -0.614388 0.747534 0.252431 255 255 255 255 0.434455 0.283461
0 0.175112 0.042539 -0.252442 0.747528 0.61439 255 255 255 255 0.434455 0.283461
0 0.193686 0.01994 -0.252442 0.747528 0.61439 255 255 255 255 0.434455 0.283461
-0.014133 0.193686 0.014133 -0.252442 0.747528 0.61439 255 255 255 255 0.434455 0.283461
0 0.175112 0.042539 0.25243 0.747534 0.614388 255 255 255 255 0.434455 0.283461
0.030151 0.175112 0.030151 0.25243 0.747534 0.614388 255 255 255 255 0.434455 0.283461
0.014133 0.193686 0.014133 0.25243 0.747534 0.614388 255 255 255 255 0.434455 0.283461
0.042539 0.175112 -0 0.61439 0.747528 0.252442 255 255 255 255 0.434455 0.283461
0.01994 0.193686 -0 0.61439 0.747528 0.252442 255 255 255 255 0.434455 0.283461
0.014133 0.193686 0.014133 0.61439 0.747528 0.252442 255 255 255 255 0.434455 0.283461
0 0.175112 -0.042539 0.252442 0.747528 -0.61439 255 255 255 255 0.434455 0.283461
0 0.193686 -0.01994 0.252442 0.747528 -0.61439 255 255 255 255 0.434455 0.283461
0.014133 0.193686 -0.014133 0.252442 0.747528 -0.61439 255 255 255 255 0.434455 0.283461
0.042539 0.175112 -0 0.614388 0.747534 -0.252431 255 255 255 255 0.434455 0.283461
0.030151 0.175112 -0.030151 0.614388 0.747534 -0.252431 255 255 255 255 0.434455 0.283461
0.014133 0.193686 -0.014133 0.614388 0.747534 -0.252431 255 255 255 255 0.434455 0.283461
0 0.175112 -0.042539 -0.252431 0.747534 -0.614388 255 255 255 255 0.434455 0.283461
-0.030151 0.175112 -0.030151 -0.252431 0.747534 -0.614388 255 255 255 255 0.434455 0.283461
-0.014133 0.193686 -0.014133 -0.252431 0.747534 -0.614388 255 255 255 255 0.434455 0.283461
-0.042539 0.175112 -0 -0.61439 0.747528 -0.252442 255 255 255 255 0.434455 0.283461
-0.01994 0.193686 -0 -0.61439 0.747528 -0.252442 255 255 255 255 0.434455 0.283461
-0.014133 0.193686 -0.014133 -0.61439 0.747528 -0.252442 255 255 255 255 0.434455 0.283461
-0.014133 0.193686 0.014133 -0.921562 -0.085686 0.378657 255 255 255 255 0.434455 0.283461
-0.015138 0.208936 0.015138 -0.921562 -0.085686 0.378657 255 255 255 255 0.434455 0.283461
-0.021358 0.208936 -0 -0.921562 -0.085686 0.378657 255 255 255 255 0.434455 0.283461
-0.014133 0.193686 0.014133 -0.378654 -0.08569 0.921563 255 255 255 255 0.434455 0.283461
0 0.193686 0.01994 -0.378654 -0.08569 0.921563 255 255 255 255 0.434455 0.283461
0 0.208936 0.021358 -0.378654 -0.08569 0.921563 255 255 255 255 0.434455 0.283461
0.014133 0.193686 0.014133 0.378657 -0.085686 0.921562 255 255 255 255 0.434455 0.283461
0.015138 0.208936 0.015138 0.378657 -0.085686 0.921562 255 255 255 255 0.434455 0.283461
0 0.208936 0.021358 0.378657 -0.085686 0.921562 255 255 255 255 0.434455 0.283461
0.014133 0.193686 0.014133 0.921563 -0.08569 0.378654 255 255 255 255 0.434455 0.283461
0.01994 0.193686 -0 0.921563 -0.08569 0.378654 255 255 255 255 0.434455 0.283461
0.021358 0.208936 -0 0.921563 -0.08569 0.378654 255 255 255 255 0.434455 0.283461
0.014133 0.193686 -0.014133 0.378654 -0.08569 -0.921563 255 255 255 255 0.434455 0.283461
0 0.193686 -0.01994 0.378654 -0.08569 -0.921563 255 255 255 255 0.434455 0.283461
0 0.208936 -0.021358 0.378654 -0.08569 -0.921563 255 255 255 255 0.434455 0.283461
0.014133 0.193686 -0.014133 0.921562 -0.085687 -0.378657 255 255 255 255 0.434455 0.283461
0.015138 0.208936 -0.015138 0.921562 -0.085687 -0.378657 255 255 255 255 0.434455 0.283461
0.021358 0.208936 -0 0.921562 -0.085687 -0.378657 255 255 255 255 0.434455 0.283461
-0.014133 0.193686 -0.014133 -0.378657 -0.085687 -0.921562 255 255 255 255 0.434455 0.283461
-0.015138 0.208936 -0.015138 -0.378657 -0.085687 -0.921562 255 255 255 255 0.434455 0.283461
0 0.208936 -0.021358 -0.378657 -0.085687 -0.921562 255 255 255 255 0.434455 0.283461
-0.014133 0.193686 -0.014133 -0.921563 -0.08569 -0.378654 255 255 255 255 0.434455 0.283461
-0.01994 0.193686 -0 -0.921563 -0.08569 -0.378654 255 255 255 255 0.434455 0.283461
-0.021358 0.208936 -0 -0.921563 -0.08569 -0.378654 255 255 255 255 0.434455 0.283461
-0.019888 0.230393 0.019888 -0.924976 0 0.380027 255 255 255 255 0.434455 0.283461
0 0.230393 0.028059 -0.380027 0 0.924976 255 255 255 255 0.434455 0.283461
0.019888 0.230393 0.019888 0.380027 0 0.924976 255 255 255 255 0.434455 0.283461
0.028059 0.230393 -0 0.924976 0 0.380027 255 255 255 255 0.434455 0.283461
0 0.230393 -0.028059 0.380027 -0 -0.924976 255 255 255 255 0.434455 0.283461
0.019888 0.230393 -0.019888 0.924976 -0 -0.380027 255 255 255 255 0.434455 0.283461
-0.019888 0.230393 -0.019888 -0.380027 -0 -0.924976 255 255 255 255 0.434455 0.283461
-0.028059 0.230393 -0 -0.924976 -0 -0.380027 255 255 255 255 0.434455 0.283461
-0.013218 0.230393 0.013218 -0.887757 -0.175449 0.425563 255 255 255 255 0.34118 0.214824
-0.015648 0.250203 0.016316 -0.887757 -0.175449 0.425563 255 255 255 255 0.34118 0.214823
-0.022419 0.246979 0.000862 -0.887757 -0.175449 0.425563 255 255 255 255 0.34118 0.214824
0 0.230393 0.018649 -0.319168 -0.141759 0.937036 255 255 255 255 0.34118 0.214824
0.000341 0.25282 0.022158 -0.319168 -0.141759 0.937036 255 255 255 255 0.34118 0.214823
-0.015648 0.250203 0.016316 -0.319168 -0.141759 0.937036 255 255 255 255 0.34118 0.214823
0.013218 0.230393 0.013218 0.40833 -0.125948 0.904104 255 255 255 255 0.34118 0.214824
0.016132 0.253307 0.015094 0.40833 -0.125948 0.904104 255 255 255 255 0.34118 0.214823
0.000341 0.25282 0.022158 0.40833 -0.125948 0.904104 255 255 255 255 0.34118 0.214823
0.013218 0.230393 0.013218 0.914636 -0.149036 0.375805 255 255 255 255 0.34118 0.214824
0.018649 0.230393 -0 0.914636 -0.149036 0.375805 255 255 255 255 0.34118 0.214824
0.022419 0.251356 -0.000862 0.914636 -0.149036 0.375805 255 255 255 255 0.34118 0.214823
0.013218 0.230393 -0.013218 0.372228 -0.201837 -0.90593 255 255 255 255 0.34118 0.214824
0 0.230393 -0.018649 0.372228 -0.201837 -0.90593 255 255 255 255 0.34118 0.214824
-0.000341 0.245514 -0.022158 0.372228 -0.201837 -0.90593 255 255 255 255 0.34118 0.214824
0.018649 0.230393 -0 0.908185 -0.189621 -0.373154 255 255 255 255 0.34118 0.214824
0.013218 0.230393 -0.013218 0.908185 -0.189621 -0.373154 255 255 255 255 0.34118 0.214824
0.015648 0.248128 -0.016316 0.908185 -0.189621 -0.373154 255 255 255 255 0.34118 0.214824
-0.013218 0.230393 -0.013218 -0.395624 -0.193849 -0.897722 255 255 255 255 0.34118 0.214824
-0.016132 0.245028 -0.015094 -0.395624 -0.193849 -0.897722 255 255 255 255 0.34118 0.214824
-0.000341 0.245514 -0.022158 -0.395624 -0.193849 -0.897722 255 255 255 255 0.34118 0.214824
-0.018649 0.230393 -0 -0.920899 -0.191681 -0.339416 255 255 255 255 0.34118 0.214824
-0.022419 0.246979 0.000862 -0.920899 -0.191681 -0.339416 255 255 255 255 0.34118 0.214824
-0.016132 0.245028 -0.015094 -0.920899 -0.191681 -0.339416 255 255 255 255 0.34118 0.214824
3 0 1 2 
3 3 4 5 
3 6 7 8 
3 9 10 11 
3 12 13 14 
3 15 16 17 
3 18 19 20 
3 21 9 22 
3 23 24 25 
3 26 27 28 
3 9 29 30 
3 9 31 22 
3 32 33 34 
3 35 36 37 
3 38 39 40 
3 41 42 43 
3 44 45 46 
3 47 48 49 
3 50 51 52 
3 53 54 55 
3 56 57 58 
3 59 60 61 
3 62 63 64 
3 65 66 67 
3 68 69 70 
3 71 72 73 
3 74 75 76 
3 77 78 79 
3 80 81 82 
3 83 84 85 
3 86 87 88 
3 89 90 91 
3 92 93 94 
3 95 96 97 
3 98 99 100 
3 101 102 103 
3 104 105 106 
3 107 108 109 
3 110 111 112 
3 113 114 115 
3 116 117 118 
3 119 120 121 
3 122 123 124 
3 125 126 127 
3 128 129 130 
3 131 132 133 
3 134 135 136 
3 137 138 139 
3 140 141 142 
3 140 143 144 
3 145 143 146 
3 145 147 148 
3 149 150 151 
3 149 147 152 
3 153 150 154 
3 153 141 155 
3 156 157 158 
3 159 160 161 
3 162 163 164 
3 165 166 167 
3 168 169 170 
3 171 172 173 
3 174 175 176 
3 177 178 179 
3 180 181 182 
3 183 181 184 
3 183 185 186 
3 187 185 188 
3 189 190 191 
3 187 190 192 
3 189 193 194 
3 180 193 195 
3 196 197 198 
3 199 200 201 
3 202 203 204 
3 205 206 207 
3 208 209 210 
3 211 212 213 
3 214 215 216 
3 217 218 219 
3 220 221 222 
3 223 224 225 
3 226 227 228 
3 9 229 10 
3 230 231 232 
3 233 234 235 
3 236 237 238 
3 21 229 9 
3 239 240 241 
3 242 243 244 
3 9 11 29 
3 9 30 31 
3 245 246 247 
3 248 249 250 
3 251 252 253 
3 254 255 256 
3 257 258 259 
3 260 261 262 
3 263 264 265 
3 266 267 268 
3 269 270 271 
3 272 273 274 
3 275 276 277 
3 278 279 280 
3 281 282 283 
3 284 285 286 
3 287 288 289 
3 290 291 292 
3 80 293 81 
3 294 295 296 
3 86 297 87 
3 298 299 300 
3 301 302 303 
3 304 305 306 
3 307 308 309 
3 310 311 312 
3 313 314 315 
3 316 317 318 
3 319 320 321 
3 322 323 324 
3 325 326 327 
3 328 329 330 
3 331 332 333 
3 334 335 336 
3 337 338 339 
3 340 341 342 
3 343 344 345 
3 346 347 348 
3 140 144 141 
3 140 146 143 
3 145 148 143 
3 145 152 147 
3 149 154 150 
3 149 151 147 
3 153 155 150 
3 153 142 141 
3 156 349 157 
3 159 350 160 
3 162 351 163 
3 165 352 166 
3 168 353 169 
3 171 354 172 
3 174 355 175 
3 177 356 178 
3 180 184 181 
3 183 186 181 
3 183 188 185 
3 187 192 185 
3 189 194 190 
3 187 191 190 
3 189 195 193 
3 180 182 193 
3 357 358 359 
3 360 361 362 
3 363 364 365 
3 366 367 368 
3 369 370 371 
3 372 373 374 
3 375 376 377 
3 378 379 380 
