ply
format ascii 1.0
comment VCGLIB generated
comment TextureFile Texture_01_A.png
element vertex 503
property float x
property float y
property float z
property float nx
property float ny
property float nz
property uchar red
property uchar green
property uchar blue
property uchar alpha
property float texture_u
property float texture_v
element face 192
property list uchar int vertex_indices
end_header
0 0 0.084307 -0.382684 0 0.923879 255 255 255 255 0.29856 0.186755
-0.059614 0.016702 0.059614 -0.382684 0 0.923879 255 255 255 255 0.29856 0.186755
-0.059614 0 0.059614 -0.382684 0 0.923879 255 255 255 255 0.29856 0.186755
0.059614 0 0.059614 0.382684 -0 0.923879 255 255 255 255 0.29856 0.186755
0 0.016702 0.084307 0.382684 -0 0.923879 255 255 255 255 0.29856 0.186755
0 0 0.084307 0.382684 -0 0.923879 255 255 255 255 0.29856 0.186755
0.084307 0 0 0.923879 0 0.382684 255 255 255 255 0.29856 0.186755
0.059614 0.016702 0.059614 0.923879 0 0.382684 255 255 255 255 0.29856 0.186755
0.059614 0 0.059614 0.923879 0 0.382684 255 255 255 255 0.29856 0.186755
0.059614 -0 -0.059614 0.923879 -0 -0.382684 255 255 255 255 0.29856 0.186755
0.084307 0.016702 -0 0.923879 -0 -0.382684 255 255 255 255 0.29856 0.186755
0.084307 0 0 0.923879 -0 -0.382684 255 255 255 255 0.29856 0.186755
0 -0 -0.084306 0.382671 -0 -0.923885 255 255 255 255 0.29856 0.186755
0.059614 0.016702 -0.059614 0.382671 -0 -0.923885 255 255 255 255 0.29856 0.186755
0.059614 -0 -0.059614 0.382671 -0 -0.923885 255 255 255 255 0.29856 0.186755
-0.059614 -0 -0.059614 -0.382671 0 -0.923885 255 255 255 255 0.29856 0.186755
0 0.016702 -0.084306 -0.382671 0 -0.923885 255 255 255 255 0.29856 0.186755
0 -0 -0.084306 -0.382671 0 -0.923885 255 255 255 255 0.29856 0.186755
-0.084307 0 0 -0.923879 -0 -0.382684 255 255 255 255 0.29856 0.186755
-0.059614 0.016702 -0.059614 -0.923879 -0 -0.382684 255 255 255 255 0.29856 0.186755
-0.059614 -0 -0.059614 -0.923879 -0 -0.382684 255 255 255 255 0.29856 0.186755
-0.059614 0 0.059614 -0.923879 0 0.382684 255 255 255 255 0.29856 0.186755
-0.084307 0.016702 -0 -0.923879 0 0.382684 255 255 255 255 0.29856 0.186755
-0.084307 0 0 -0.923879 0 0.382684 255 255 255 255 0.29856 0.186755
0 0 0.084307 0 -1 0 255 255 255 255 0.29856 0.186755
-0.059614 0 0.059614 0 -1 0 255 255 255 255 0.29856 0.186755
0 0 0 0 -1 0 255 255 255 255 0.29856 0.186755
0.059614 0 0.059614 0 -1 0 255 255 255 255 0.29856 0.186755
0.084307 0 0 0 -1 0 255 255 255 255 0.29856 0.186755
0.059614 -0 -0.059614 0 -1 0 255 255 255 255 0.29856 0.186755
0 -0 -0.084306 0 -1 0 255 255 255 255 0.29856 0.186755
-0.059614 -0 -0.059614 -0 -1 0 255 255 255 255 0.29856 0.186755
-0.084307 0 0 0 -1 0 255 255 255 255 0.29856 0.186755
-0.046769 0.153849 0.046769 0.184441 0.876197 -0.445265 255 255 255 255 0.29856 0.186755
0 0.153849 0.066142 0.184441 0.876197 -0.445265 255 255 255 255 0.29856 0.186755
0 0.120237 -0 0.184441 0.876197 -0.445265 255 255 255 255 0.29856 0.186755
0 0.153849 0.066142 -0.184441 0.876197 -0.445265 255 255 255 255 0.29856 0.186755
0.046769 0.153849 0.046769 -0.184441 0.876197 -0.445265 255 255 255 255 0.29856 0.186755
0 0.120237 -0 -0.184441 0.876197 -0.445265 255 255 255 255 0.29856 0.186755
0.046769 0.153849 0.046769 -0.445265 0.876197 -0.184441 255 255 255 255 0.29856 0.186755
0.066142 0.153849 -0 -0.445265 0.876197 -0.184441 255 255 255 255 0.29856 0.186755
0 0.120237 -0 -0.445265 0.876197 -0.184441 255 255 255 255 0.29856 0.186755
0.066142 0.153849 -0 -0.445265 0.876197 0.184441 255 255 255 255 0.29856 0.186755
0.046769 0.153849 -0.046769 -0.445265 0.876197 0.184441 255 255 255 255 0.29856 0.186755
0 0.120237 -0 -0.445265 0.876197 0.184441 255 255 255 255 0.29856 0.186755
0.046769 0.153849 -0.046769 -0.184441 0.876197 0.445265 255 255 255 255 0.29856 0.186755
0 0.153849 -0.066142 -0.184441 0.876197 0.445265 255 255 255 255 0.29856 0.186755
0 0.120237 -0 -0.184441 0.876197 0.445265 255 255 255 255 0.29856 0.186755
0 0.153849 -0.066142 0.184441 0.876197 0.445265 255 255 255 255 0.29856 0.186755
-0.046769 0.153849 -0.046769 0.184441 0.876197 0.445265 255 255 255 255 0.29856 0.186755
0 0.120237 -0 0.184441 0.876197 0.445265 255 255 255 255 0.29856 0.186755
-0.046769 0.153849 -0.046769 0.445265 0.876197 0.184441 255 255 255 255 0.29856 0.186755
-0.066142 0.153849 -0 0.445265 0.876197 0.184441 255 255 255 255 0.29856 0.186755
0 0.120237 -0 0.445265 0.876197 0.184441 255 255 255 255 0.29856 0.186755
-0.066142 0.153849 -0 0.445265 0.876197 -0.184441 255 255 255 255 0.29856 0.186755
-0.046769 0.153849 0.046769 0.445265 0.876197 -0.184441 255 255 255 255 0.29856 0.186755
0 0.120237 -0 0.445265 0.876197 -0.184441 255 255 255 255 0.29856 0.186755
-0.059614 0.016702 0.059614 -0.110708 0.957243 0.267262 255 255 255 255 0.29856 0.186755
0 0.026582 0.048921 -0.110708 0.957243 0.267262 255 255 255 255 0.29856 0.186755
-0.034592 0.026582 0.034592 -0.110708 0.957243 0.267262 255 255 255 255 0.29856 0.186755
0.059614 0.016702 0.059614 0.110706 0.957242 0.267268 255 255 255 255 0.29856 0.186755
0 0.026582 0.048921 0.110706 0.957242 0.267268 255 255 255 255 0.29856 0.186755
0 0.016702 0.084307 0.110706 0.957242 0.267268 255 255 255 255 0.29856 0.186755
0.059614 0.016702 0.059614 0.267262 0.957243 0.110708 255 255 255 255 0.29856 0.186755
0.048921 0.026582 -0 0.267262 0.957243 0.110708 255 255 255 255 0.29856 0.186755
0.034592 0.026582 0.034592 0.267262 0.957243 0.110708 255 255 255 255 0.29856 0.186755
0.059614 0.016702 -0.059614 0.267268 0.957242 -0.110707 255 255 255 255 0.29856 0.186755
0.048921 0.026582 -0 0.267268 0.957242 -0.110707 255 255 255 255 0.29856 0.186755
0.084307 0.016702 -0 0.267268 0.957242 -0.110707 255 255 255 255 0.29856 0.186755
0 0.016702 -0.084306 0.110702 0.957242 -0.267268 255 255 255 255 0.29856 0.186755
0.034592 0.026582 -0.034592 0.110702 0.957242 -0.267268 255 255 255 255 0.29856 0.186755
0.059614 0.016702 -0.059614 0.110702 0.957242 -0.267268 255 255 255 255 0.29856 0.186755
0 0.016702 -0.084306 -0.110713 0.957239 -0.267275 255 255 255 255 0.29856 0.186755
-0.034592 0.026582 -0.034592 -0.110713 0.957239 -0.267275 255 255 255 255 0.29856 0.186755
0 0.026582 -0.048921 -0.110713 0.957239 -0.267275 255 255 255 255 0.29856 0.186755
-0.059614 0.016702 -0.059614 -0.267262 0.957243 -0.110708 255 255 255 255 0.29856 0.186755
-0.048921 0.026582 -0 -0.267262 0.957243 -0.110708 255 255 255 255 0.29856 0.186755
-0.034592 0.026582 -0.034592 -0.267262 0.957243 -0.110708 255 255 255 255 0.29856 0.186755
-0.059614 0.016702 0.059614 -0.267268 0.957242 0.110706 255 255 255 255 0.29856 0.186755
-0.048921 0.026582 -0 -0.267268 0.957242 0.110706 255 255 255 255 0.29856 0.186755
-0.084307 0.016702 -0 -0.267268 0.957242 0.110706 255 255 255 255 0.29856 0.186755
-0.034592 0.026582 0.034592 -0.338515 0.466339 0.817273 255 255 255 255 0.29856 0.186755
0 0.056885 0.031629 -0.338515 0.466339 0.817273 255 255 255 255 0.29856 0.186755
-0.022366 0.056885 0.022365 -0.338515 0.466339 0.817273 255 255 255 255 0.29856 0.186755
0.034592 0.026582 0.034592 0.338531 0.466357 0.817257 255 255 255 255 0.29856 0.186755
0 0.056885 0.031629 0.338531 0.466357 0.817257 255 255 255 255 0.29856 0.186755
0 0.026582 0.048921 0.338531 0.466357 0.817257 255 255 255 255 0.29856 0.186755
0.034592 0.026582 0.034592 0.817262 0.46635 0.338525 255 255 255 255 0.29856 0.186755
0.031629 0.056885 -0 0.817262 0.46635 0.338525 255 255 255 255 0.29856 0.186755
0.022365 0.056885 0.022365 0.817262 0.46635 0.338525 255 255 255 255 0.29856 0.186755
0.034592 0.026582 -0.034592 0.817257 0.466356 -0.338531 255 255 255 255 0.29856 0.186755
0.031629 0.056885 -0 0.817257 0.466356 -0.338531 255 255 255 255 0.29856 0.186755
0.048921 0.026582 -0 0.817257 0.466356 -0.338531 255 255 255 255 0.29856 0.186755
0.034592 0.026582 -0.034592 0.338525 0.46635 -0.817263 255 255 255 255 0.29856 0.186755
0 0.056885 -0.031629 0.338525 0.46635 -0.817263 255 255 255 255 0.29856 0.186755
0.022365 0.056885 -0.022365 0.338525 0.46635 -0.817263 255 255 255 255 0.29856 0.186755
-0.034592 0.026582 -0.034592 -0.338531 0.466356 -0.817257 255 255 255 255 0.29856 0.186755
0 0.056885 -0.031629 -0.338531 0.466356 -0.817257 255 255 255 255 0.29856 0.186755
0 0.026582 -0.048921 -0.338531 0.466356 -0.817257 255 255 255 255 0.29856 0.186755
-0.048921 0.026582 -0 -0.817269 0.466331 -0.338536 255 255 255 255 0.29856 0.186755
-0.022366 0.056885 -0.022365 -0.817269 0.466331 -0.338536 255 255 255 255 0.29856 0.186755
-0.034592 0.026582 -0.034592 -0.817269 0.466331 -0.338536 255 255 255 255 0.29856 0.186755
-0.048921 0.026582 -0 -0.817269 0.466364 0.338491 255 255 255 255 0.29856 0.186755
-0.022366 0.056885 0.022365 -0.817269 0.466364 0.338491 255 255 255 255 0.29856 0.186755
-0.031629 0.056885 -0 -0.817269 0.466364 0.338491 255 255 255 255 0.29856 0.186755
0 0.056885 0.031629 -0.382375 -0.039481 0.923164 255 255 255 255 0.29856 0.186755
-0.024033 0.112032 0.024033 -0.382375 -0.039481 0.923164 255 255 255 255 0.29856 0.186755
-0.022366 0.056885 0.022365 -0.382375 -0.039481 0.923164 255 255 255 255 0.29856 0.186755
0 0.056885 0.031629 0.382392 -0.039489 0.923156 255 255 255 255 0.29856 0.186755
0.024033 0.112032 0.024033 0.382392 -0.039489 0.923156 255 255 255 255 0.29856 0.186755
0 0.112032 0.033988 0.382392 -0.039489 0.923156 255 255 255 255 0.29856 0.186755
0.031629 0.056885 -0 0.923157 -0.039488 0.382389 255 255 255 255 0.29856 0.186755
0.024033 0.112032 0.024033 0.923157 -0.039488 0.382389 255 255 255 255 0.29856 0.186755
0.022365 0.056885 0.022365 0.923157 -0.039488 0.382389 255 255 255 255 0.29856 0.186755
0.031629 0.056885 -0 0.923156 -0.03949 -0.382392 255 255 255 255 0.29856 0.186755
0.024033 0.112032 -0.024033 0.923156 -0.03949 -0.382392 255 255 255 255 0.29856 0.186755
0.033988 0.112032 -0 0.923156 -0.03949 -0.382392 255 255 255 255 0.29856 0.186755
0 0.056885 -0.031629 0.382389 -0.039488 -0.923157 255 255 255 255 0.29856 0.186755
0.024033 0.112032 -0.024033 0.382389 -0.039488 -0.923157 255 255 255 255 0.29856 0.186755
0.022365 0.056885 -0.022365 0.382389 -0.039488 -0.923157 255 255 255 255 0.29856 0.186755
0 0.056885 -0.031629 -0.382392 -0.03949 -0.923156 255 255 255 255 0.29856 0.186755
-0.024033 0.112032 -0.024033 -0.382392 -0.03949 -0.923156 255 255 255 255 0.29856 0.186755
0 0.112032 -0.033988 -0.382392 -0.03949 -0.923156 255 255 255 255 0.29856 0.186755
-0.022366 0.056885 -0.022365 -0.923157 -0.039472 -0.382392 255 255 255 255 0.29856 0.186755
-0.033988 0.112032 -0 -0.923157 -0.039472 -0.382392 255 255 255 255 0.29856 0.186755
-0.024033 0.112032 -0.024033 -0.923157 -0.039472 -0.382392 255 255 255 255 0.29856 0.186755
-0.022366 0.056885 0.022365 -0.923172 -0.03949 0.382354 255 255 255 255 0.29856 0.186755
-0.033988 0.112032 -0 -0.923172 -0.03949 0.382354 255 255 255 255 0.29856 0.186755
-0.031629 0.056885 -0 -0.923172 -0.03949 0.382354 255 255 255 255 0.29856 0.186755
0 0.112032 0.033988 -0.190469 -0.867343 0.459824 255 255 255 255 0.29856 0.186755
-0.042311 0.125736 0.042311 -0.190469 -0.867343 0.459824 255 255 255 255 0.29856 0.186755
-0.024033 0.112032 0.024033 -0.190469 -0.867343 0.459824 255 255 255 255 0.29856 0.186755
0 0.112032 0.033988 0.190468 -0.867342 0.459826 255 255 255 255 0.29856 0.186755
0.042311 0.125736 0.042311 0.190468 -0.867342 0.459826 255 255 255 255 0.29856 0.186755
0 0.125736 0.059837 0.190468 -0.867342 0.459826 255 255 255 255 0.29856 0.186755
0.033988 0.112032 -0 0.459824 -0.867343 0.190469 255 255 255 255 0.29856 0.186755
0.042311 0.125736 0.042311 0.459824 -0.867343 0.190469 255 255 255 255 0.29856 0.186755
0.024033 0.112032 0.024033 0.459824 -0.867343 0.190469 255 255 255 255 0.29856 0.186755
0.033988 0.112032 -0 0.459826 -0.867342 -0.190468 255 255 255 255 0.29856 0.186755
0.042311 0.125736 -0.042311 0.459826 -0.867342 -0.190468 255 255 255 255 0.29856 0.186755
0.059837 0.125736 -0 0.459826 -0.867342 -0.190468 255 255 255 255 0.29856 0.186755
0 0.112032 -0.033988 0.190469 -0.867343 -0.459824 255 255 255 255 0.29856 0.186755
0.042311 0.125736 -0.042311 0.190469 -0.867343 -0.459824 255 255 255 255 0.29856 0.186755
0.024033 0.112032 -0.024033 0.190469 -0.867343 -0.459824 255 255 255 255 0.29856 0.186755
0 0.112032 -0.033988 -0.190469 -0.867342 -0.459826 255 255 255 255 0.29856 0.186755
-0.042311 0.125736 -0.042311 -0.190469 -0.867342 -0.459826 255 255 255 255 0.29856 0.186755
0 0.125736 -0.059837 -0.190469 -0.867342 -0.459826 255 255 255 255 0.29856 0.186755
-0.033988 0.112032 -0 -0.459824 -0.867343 -0.190469 255 255 255 255 0.29856 0.186755
-0.042311 0.125736 -0.042311 -0.459824 -0.867343 -0.190469 255 255 255 255 0.29856 0.186755
-0.024033 0.112032 -0.024033 -0.459824 -0.867343 -0.190469 255 255 255 255 0.29856 0.186755
-0.033988 0.112032 -0 -0.459812 -0.867348 0.190473 255 255 255 255 0.29856 0.186755
-0.042311 0.125736 0.042311 -0.459812 -0.867348 0.190473 255 255 255 255 0.29856 0.186755
-0.059838 0.125736 -0 -0.459812 -0.867348 0.190473 255 255 255 255 0.29856 0.186755
0 0.125736 0.059837 -0.324484 -0.530139 0.783366 255 255 255 255 0.29856 0.186755
-0.058013 0.158549 0.058013 -0.324484 -0.530139 0.783366 255 255 255 255 0.29856 0.186755
-0.042311 0.125736 0.042311 -0.324484 -0.530139 0.783366 255 255 255 255 0.29856 0.186755
0 0.125736 0.059837 0.324492 -0.530153 0.783353 255 255 255 255 0.29856 0.186755
0.058013 0.158549 0.058013 0.324492 -0.530153 0.783353 255 255 255 255 0.29856 0.186755
0 0.158549 0.082044 0.324492 -0.530153 0.783353 255 255 255 255 0.29856 0.186755
0.059837 0.125736 -0 0.783366 -0.530139 0.324485 255 255 255 255 0.29856 0.186755
0.058013 0.158549 0.058013 0.783366 -0.530139 0.324485 255 255 255 255 0.29856 0.186755
0.042311 0.125736 0.042311 0.783366 -0.530139 0.324485 255 255 255 255 0.29856 0.186755
0.059837 0.125736 -0 0.783353 -0.530154 -0.324492 255 255 255 255 0.29856 0.186755
0.058013 0.158549 -0.058013 0.783353 -0.530154 -0.324492 255 255 255 255 0.29856 0.186755
0.082044 0.158549 -0 0.783353 -0.530154 -0.324492 255 255 255 255 0.29856 0.186755
0 0.125736 -0.059837 0.324485 -0.53014 -0.783365 255 255 255 255 0.29856 0.186755
0.058013 0.158549 -0.058013 0.324485 -0.53014 -0.783365 255 255 255 255 0.29856 0.186755
0.042311 0.125736 -0.042311 0.324485 -0.53014 -0.783365 255 255 255 255 0.29856 0.186755
0 0.125736 -0.059837 -0.324492 -0.530154 -0.783353 255 255 255 255 0.29856 0.186755
-0.058013 0.158549 -0.058013 -0.324492 -0.530154 -0.783353 255 255 255 255 0.29856 0.186755
0 0.158549 -0.082044 -0.324492 -0.530154 -0.783353 255 255 255 255 0.29856 0.186755
-0.059838 0.125736 -0 -0.783357 -0.530143 -0.3245 255 255 255 255 0.29856 0.186755
-0.058013 0.158549 -0.058013 -0.783357 -0.530143 -0.3245 255 255 255 255 0.29856 0.186755
-0.042311 0.125736 -0.042311 -0.783357 -0.530143 -0.3245 255 255 255 255 0.29856 0.186755
-0.059838 0.125736 -0 -0.783363 -0.530136 0.324496 255 255 255 255 0.29856 0.186755
-0.058013 0.158549 0.058013 -0.783363 -0.530136 0.324496 255 255 255 255 0.29856 0.186755
-0.082044 0.158549 -0 -0.783363 -0.530136 0.324496 255 255 255 255 0.29856 0.186755
0 0.158549 0.082044 -0.381185 -0.088887 0.920216 255 255 255 255 0.29856 0.186755
-0.06638 0.281061 0.066381 -0.381185 -0.088887 0.920216 255 255 255 255 0.29856 0.186755
-0.058013 0.158549 0.058013 -0.381185 -0.088887 0.920216 255 255 255 255 0.29856 0.186755
0.058013 0.158549 0.058013 0.381186 -0.088873 0.920217 255 255 255 255 0.29856 0.186755
0 0.281061 0.093876 0.381186 -0.088873 0.920217 255 255 255 255 0.29856 0.186755
0 0.158549 0.082044 0.381186 -0.088873 0.920217 255 255 255 255 0.29856 0.186755
0.058013 0.158549 0.058013 0.920227 -0.088889 0.381158 255 255 255 255 0.29856 0.186755
0.093876 0.281061 -0 0.920227 -0.088889 0.381158 255 255 255 255 0.29856 0.186755
0.066381 0.281061 0.066381 0.920227 -0.088889 0.381158 255 255 255 255 0.29856 0.186755
0.082044 0.158549 -0 0.920226 -0.088874 -0.381163 255 255 255 255 0.29856 0.186755
0.066381 0.281061 -0.06638 0.920226 -0.088874 -0.381163 255 255 255 255 0.29856 0.186755
0.093876 0.281061 -0 0.920226 -0.088874 -0.381163 255 255 255 255 0.29856 0.186755
0.058013 0.158549 -0.058013 0.38117 -0.088882 -0.920223 255 255 255 255 0.29856 0.186755
0 0.281061 -0.093876 0.38117 -0.088882 -0.920223 255 255 255 255 0.29856 0.186755
0.066381 0.281061 -0.06638 0.38117 -0.088882 -0.920223 255 255 255 255 0.29856 0.186755
-0.058013 0.158549 -0.058013 -0.381186 -0.088873 -0.920217 255 255 255 255 0.29856 0.186755
0 0.281061 -0.093876 -0.381186 -0.088873 -0.920217 255 255 255 255 0.29856 0.186755
0 0.158549 -0.082044 -0.381186 -0.088873 -0.920217 255 255 255 255 0.29856 0.186755
-0.082044 0.158549 -0 -0.920216 -0.08888 -0.381185 255 255 255 255 0.29856 0.186755
-0.06638 0.281061 -0.06638 -0.920216 -0.08888 -0.381185 255 255 255 255 0.29856 0.186755
-0.058013 0.158549 -0.058013 -0.920216 -0.08888 -0.381185 255 255 255 255 0.29856 0.186755
-0.058013 0.158549 0.058013 -0.920217 -0.088873 0.381186 255 255 255 255 0.29856 0.186755
-0.093876 0.281061 -0 -0.920217 -0.088873 0.381186 255 255 255 255 0.29856 0.186755
-0.082044 0.158549 -0 -0.920217 -0.088873 0.381186 255 255 255 255 0.29856 0.186755
-0.06638 0.281061 0.066381 -0.210752 -0.834688 0.508803 255 255 255 255 0.29856 0.186755
0 0.28845 0.105998 -0.210752 -0.834688 0.508803 255 255 255 255 0.29856 0.186755
-0.074952 0.28845 0.074952 -0.210752 -0.834688 0.508803 255 255 255 255 0.29856 0.186755
0.066381 0.281061 0.066381 0.210741 -0.834697 0.508792 255 255 255 255 0.29856 0.186755
0 0.28845 0.105998 0.210741 -0.834697 0.508792 255 255 255 255 0.29856 0.186755
0 0.281061 0.093876 0.210741 -0.834697 0.508792 255 255 255 255 0.29856 0.186755
0.066381 0.281061 0.066381 0.508815 -0.834679 0.210757 255 255 255 255 0.29856 0.186755
0.105998 0.28845 -0 0.508815 -0.834679 0.210757 255 255 255 255 0.29856 0.186755
0.074952 0.28845 0.074952 0.508815 -0.834679 0.210757 255 255 255 255 0.29856 0.186755
0.066381 0.281061 -0.06638 0.508792 -0.834696 -0.210745 255 255 255 255 0.29856 0.186755
0.105998 0.28845 -0 0.508792 -0.834696 -0.210745 255 255 255 255 0.29856 0.186755
0.093876 0.281061 -0 0.508792 -0.834696 -0.210745 255 255 255 255 0.29856 0.186755
0 0.281061 -0.093876 0.210746 -0.8347 -0.508784 255 255 255 255 0.29856 0.186755
0.074952 0.28845 -0.074952 0.210746 -0.8347 -0.508784 255 255 255 255 0.29856 0.186755
0.066381 0.281061 -0.06638 0.210746 -0.8347 -0.508784 255 255 255 255 0.29856 0.186755
-0.06638 0.281061 -0.06638 -0.210752 -0.834695 -0.508791 255 255 255 255 0.29856 0.186755
0 0.28845 -0.105998 -0.210752 -0.834695 -0.508791 255 255 255 255 0.29856 0.186755
0 0.281061 -0.093876 -0.210752 -0.834695 -0.508791 255 255 255 255 0.29856 0.186755
-0.06638 0.281061 -0.06638 -0.508774 -0.834708 -0.21074 255 255 255 255 0.29856 0.186755
-0.105998 0.28845 -0 -0.508774 -0.834708 -0.21074 255 255 255 255 0.29856 0.186755
-0.074952 0.28845 -0.074952 -0.508774 -0.834708 -0.21074 255 255 255 255 0.29856 0.186755
-0.093876 0.281061 -0 -0.508792 -0.834696 0.210747 255 255 255 255 0.29856 0.186755
-0.074952 0.28845 0.074952 -0.508792 -0.834696 0.210747 255 255 255 255 0.29856 0.186755
-0.105998 0.28845 -0 -0.508792 -0.834696 0.210747 255 255 255 255 0.29856 0.186755
0 0.28845 0.105998 -0.382682 1e-06 0.92388 255 255 255 255 0.29856 0.186755
-0.074952 0.300972 0.074952 -0.382682 1e-06 0.92388 255 255 255 255 0.29856 0.186755
-0.074952 0.28845 0.074952 -0.382682 1e-06 0.92388 255 255 255 255 0.29856 0.186755
0.074952 0.28845 0.074952 0.382682 1e-06 0.92388 255 255 255 255 0.29856 0.186755
0 0.300972 0.105998 0.382682 1e-06 0.92388 255 255 255 255 0.29856 0.186755
0 0.28845 0.105998 0.382682 1e-06 0.92388 255 255 255 255 0.29856 0.186755
0.105998 0.28845 -0 0.92388 0 0.382682 255 255 255 255 0.29856 0.186755
0.074952 0.300972 0.074952 0.92388 0 0.382682 255 255 255 255 0.29856 0.186755
0.074952 0.28845 0.074952 0.92388 0 0.382682 255 255 255 255 0.29856 0.186755
0.074952 0.28845 -0.074952 0.92388 -0 -0.382682 255 255 255 255 0.29856 0.186755
0.105998 0.300972 -0 0.92388 -0 -0.382682 255 255 255 255 0.29856 0.186755
0.105998 0.28845 -0 0.92388 -0 -0.382682 255 255 255 255 0.29856 0.186755
0 0.28845 -0.105998 0.382682 -1e-06 -0.92388 255 255 255 255 0.29856 0.186755
0.074952 0.300972 -0.074952 0.382682 -1e-06 -0.92388 255 255 255 255 0.29856 0.186755
0.074952 0.28845 -0.074952 0.382682 -1e-06 -0.92388 255 255 255 255 0.29856 0.186755
-0.074952 0.28845 -0.074952 -0.382682 -1e-06 -0.92388 255 255 255 255 0.29856 0.186755
0 0.300972 -0.105998 -0.382682 -1e-06 -0.92388 255 255 255 255 0.29856 0.186755
0 0.28845 -0.105998 -0.382682 -1e-06 -0.92388 255 255 255 255 0.29856 0.186755
-0.105998 0.28845 -0 -0.92388 -0 -0.382682 255 255 255 255 0.29856 0.186755
-0.074952 0.300972 -0.074952 -0.92388 -0 -0.382682 255 255 255 255 0.29856 0.186755
-0.074952 0.28845 -0.074952 -0.92388 -0 -0.382682 255 255 255 255 0.29856 0.186755
-0.074952 0.28845 0.074952 -0.92388 0 0.382682 255 255 255 255 0.29856 0.186755
-0.105998 0.300972 -0 -0.92388 0 0.382682 255 255 255 255 0.29856 0.186755
-0.105998 0.28845 -0 -0.92388 0 0.382682 255 255 255 255 0.29856 0.186755
-0.074952 0.300972 0.074952 0 1 -0 255 255 255 255 0.29856 0.186755
0 0.300972 0.086054 0 1 -0 255 255 255 255 0.29856 0.186755
-0.060849 0.300972 0.060849 0 1 -0 255 255 255 255 0.29856 0.186755
0.074952 0.300972 0.074952 -0 1 -1e-06 255 255 255 255 0.29856 0.186755
0 0.300972 0.086054 -0 1 -1e-06 255 255 255 255 0.29856 0.186755
0 0.300972 0.105998 -0 1 -1e-06 255 255 255 255 0.29856 0.186755
0.074952 0.300972 0.074952 -0 1 -0 255 255 255 255 0.29856 0.186755
0.086054 0.300972 -0 -0 1 -0 255 255 255 255 0.29856 0.186755
0.060849 0.300972 0.060849 -0 1 -0 255 255 255 255 0.29856 0.186755
0.074952 0.300972 -0.074952 0 1 0 255 255 255 255 0.29856 0.186755
0.105998 0.300972 -0 0 1 0 255 255 255 255 0.29856 0.186755
0 0.300972 -0.086054 -0 1 0 255 255 255 255 0.29856 0.186755
0.060849 0.300972 -0.060849 -0 1 0 255 255 255 255 0.29856 0.186755
-0.074952 0.300972 -0.074952 -0 1 -1e-06 255 255 255 255 0.29856 0.186755
0 0.300972 -0.086054 -0 1 -1e-06 255 255 255 255 0.29856 0.186755
0 0.300972 -0.105998 -0 1 -1e-06 255 255 255 255 0.29856 0.186755
-0.074952 0.300972 -0.074952 0 1 0 255 255 255 255 0.29856 0.186755
-0.086054 0.300972 -0 0 1 0 255 255 255 255 0.29856 0.186755
-0.060849 0.300972 -0.060849 0 1 0 255 255 255 255 0.29856 0.186755
-0.105998 0.300972 -0 0 1 0 255 255 255 255 0.29856 0.186755
-0.060849 0.300972 0.060849 0.379737 0.124075 -0.916736 255 255 255 255 0.29856 0.186755
0 0.153849 0.066142 0.379737 0.124075 -0.916736 255 255 255 255 0.29856 0.186755
-0.046769 0.153849 0.046769 0.379737 0.124075 -0.916736 255 255 255 255 0.29856 0.186755
0.060849 0.300972 0.060849 -0.379733 0.124073 -0.916738 255 255 255 255 0.29856 0.186755
0 0.153849 0.066142 -0.379733 0.124073 -0.916738 255 255 255 255 0.29856 0.186755
0 0.300972 0.086054 -0.379733 0.124073 -0.916738 255 255 255 255 0.29856 0.186755
0.060849 0.300972 0.060849 -0.916736 0.124075 -0.379737 255 255 255 255 0.29856 0.186755
0.066142 0.153849 -0 -0.916736 0.124075 -0.379737 255 255 255 255 0.29856 0.186755
0.046769 0.153849 0.046769 -0.916736 0.124075 -0.379737 255 255 255 255 0.29856 0.186755
0.060849 0.300972 -0.060849 -0.916738 0.124074 0.379733 255 255 255 255 0.29856 0.186755
0.066142 0.153849 -0 -0.916738 0.124074 0.379733 255 255 255 255 0.29856 0.186755
0.086054 0.300972 -0 -0.916738 0.124074 0.379733 255 255 255 255 0.29856 0.186755
0.060849 0.300972 -0.060849 -0.379737 0.124075 0.916736 255 255 255 255 0.29856 0.186755
0 0.153849 -0.066142 -0.379737 0.124075 0.916736 255 255 255 255 0.29856 0.186755
0.046769 0.153849 -0.046769 -0.379737 0.124075 0.916736 255 255 255 255 0.29856 0.186755
-0.060849 0.300972 -0.060849 0.379733 0.124074 0.916738 255 255 255 255 0.29856 0.186755
0 0.153849 -0.066142 0.379733 0.124074 0.916738 255 255 255 255 0.29856 0.186755
0 0.300972 -0.086054 0.379733 0.124074 0.916738 255 255 255 255 0.29856 0.186755
-0.060849 0.300972 -0.060849 0.916736 0.124075 0.379737 255 255 255 255 0.29856 0.186755
-0.066142 0.153849 -0 0.916736 0.124075 0.379737 255 255 255 255 0.29856 0.186755
-0.046769 0.153849 -0.046769 0.916736 0.124075 0.379737 255 255 255 255 0.29856 0.186755
-0.060849 0.300972 0.060849 0.916738 0.124074 -0.379733 255 255 255 255 0.29856 0.186755
-0.066142 0.153849 -0 0.916738 0.124074 -0.379733 255 255 255 255 0.29856 0.186755
-0.086054 0.300972 -0 0.916738 0.124074 -0.379733 255 255 255 255 0.29856 0.186755
0 0.016702 0.084307 -0.382684 0 0.923879 255 255 255 255 0.29856 0.186755
0.059614 0.016702 0.059614 0.382684 0 0.923879 255 255 255 255 0.29856 0.186755
0.084307 0.016702 -0 0.923879 0 0.382684 255 255 255 255 0.29856 0.186755
0.059614 0.016702 -0.059614 0.923879 -0 -0.382684 255 255 255 255 0.29856 0.186755
0 0.016702 -0.084306 0.382671 0 -0.923885 255 255 255 255 0.29856 0.186755
-0.059614 0.016702 -0.059614 -0.382671 -0 -0.923885 255 255 255 255 0.29856 0.186755
-0.084307 0.016702 -0 -0.923879 -0 -0.382684 255 255 255 255 0.29856 0.186755
-0.059614 0.016702 0.059614 -0.923879 0 0.382684 255 255 255 255 0.29856 0.186755
-0.059614 0.016702 0.059614 -0.110706 0.957242 0.267268 255 255 255 255 0.29856 0.186755
0 0.016702 0.084307 -0.110706 0.957242 0.267268 255 255 255 255 0.29856 0.186755
0 0.026582 0.048921 -0.110706 0.957242 0.267268 255 255 255 255 0.29856 0.186755
0.059614 0.016702 0.059614 0.110708 0.957243 0.267262 255 255 255 255 0.29856 0.186755
0.034592 0.026582 0.034592 0.110708 0.957243 0.267262 255 255 255 255 0.29856 0.186755
0 0.026582 0.048921 0.110708 0.957243 0.267262 255 255 255 255 0.29856 0.186755
0.059614 0.016702 0.059614 0.267268 0.957242 0.110706 255 255 255 255 0.29856 0.186755
0.084307 0.016702 -0 0.267268 0.957242 0.110706 255 255 255 255 0.29856 0.186755
0.048921 0.026582 -0 0.267268 0.957242 0.110706 255 255 255 255 0.29856 0.186755
0.059614 0.016702 -0.059614 0.267262 0.957243 -0.110708 255 255 255 255 0.29856 0.186755
0.034592 0.026582 -0.034592 0.267262 0.957243 -0.110708 255 255 255 255 0.29856 0.186755
0.048921 0.026582 -0 0.267262 0.957243 -0.110708 255 255 255 255 0.29856 0.186755
0 0.016702 -0.084306 0.110713 0.957239 -0.267275 255 255 255 255 0.29856 0.186755
0 0.026582 -0.048921 0.110713 0.957239 -0.267275 255 255 255 255 0.29856 0.186755
0.034592 0.026582 -0.034592 0.110713 0.957239 -0.267275 255 255 255 255 0.29856 0.186755
0 0.016702 -0.084306 -0.110702 0.957242 -0.267268 255 255 255 255 0.29856 0.186755
-0.059614 0.016702 -0.059614 -0.110702 0.957242 -0.267268 255 255 255 255 0.29856 0.186755
-0.034592 0.026582 -0.034592 -0.110702 0.957242 -0.267268 255 255 255 255 0.29856 0.186755
-0.059614 0.016702 -0.059614 -0.267268 0.957242 -0.110707 255 255 255 255 0.29856 0.186755
-0.084307 0.016702 -0 -0.267268 0.957242 -0.110707 255 255 255 255 0.29856 0.186755
-0.048921 0.026582 -0 -0.267268 0.957242 -0.110707 255 255 255 255 0.29856 0.186755
-0.059614 0.016702 0.059614 -0.267262 0.957243 0.110708 255 255 255 255 0.29856 0.186755
-0.034592 0.026582 0.034592 -0.267262 0.957243 0.110708 255 255 255 255 0.29856 0.186755
-0.048921 0.026582 -0 -0.267262 0.957243 0.110708 255 255 255 255 0.29856 0.186755
-0.034592 0.026582 0.034592 -0.338531 0.466357 0.817257 255 255 255 255 0.29856 0.186755
0 0.026582 0.048921 -0.338531 0.466357 0.817257 255 255 255 255 0.29856 0.186755
0 0.056885 0.031629 -0.338531 0.466357 0.817257 255 255 255 255 0.29856 0.186755
0.034592 0.026582 0.034592 0.338525 0.466351 0.817262 255 255 255 255 0.29856 0.186755
0.022365 0.056885 0.022365 0.338525 0.466351 0.817262 255 255 255 255 0.29856 0.186755
0 0.056885 0.031629 0.338525 0.466351 0.817262 255 255 255 255 0.29856 0.186755
0.034592 0.026582 0.034592 0.817257 0.466357 0.338531 255 255 255 255 0.29856 0.186755
0.048921 0.026582 -0 0.817257 0.466357 0.338531 255 255 255 255 0.29856 0.186755
0.031629 0.056885 -0 0.817257 0.466357 0.338531 255 255 255 255 0.29856 0.186755
0.034592 0.026582 -0.034592 0.817262 0.46635 -0.338525 255 255 255 255 0.29856 0.186755
0.022365 0.056885 -0.022365 0.817262 0.46635 -0.338525 255 255 255 255 0.29856 0.186755
0.031629 0.056885 -0 0.817262 0.46635 -0.338525 255 255 255 255 0.29856 0.186755
0.034592 0.026582 -0.034592 0.338531 0.466356 -0.817257 255 255 255 255 0.29856 0.186755
0 0.026582 -0.048921 0.338531 0.466356 -0.817257 255 255 255 255 0.29856 0.186755
0 0.056885 -0.031629 0.338531 0.466356 -0.817257 255 255 255 255 0.29856 0.186755
-0.034592 0.026582 -0.034592 -0.338515 0.466339 -0.817273 255 255 255 255 0.29856 0.186755
-0.022366 0.056885 -0.022365 -0.338515 0.466339 -0.817273 255 255 255 255 0.29856 0.186755
0 0.056885 -0.031629 -0.338515 0.466339 -0.817273 255 255 255 255 0.29856 0.186755
-0.048921 0.026582 -0 -0.817269 0.466363 -0.338492 255 255 255 255 0.29856 0.186755
-0.031629 0.056885 -0 -0.817269 0.466363 -0.338492 255 255 255 255 0.29856 0.186755
-0.022366 0.056885 -0.022365 -0.817269 0.466363 -0.338492 255 255 255 255 0.29856 0.186755
-0.048921 0.026582 -0 -0.817269 0.466331 0.338536 255 255 255 255 0.29856 0.186755
-0.034592 0.026582 0.034592 -0.817269 0.466331 0.338536 255 255 255 255 0.29856 0.186755
-0.022366 0.056885 0.022365 -0.817269 0.466331 0.338536 255 255 255 255 0.29856 0.186755
0 0.056885 0.031629 -0.382392 -0.039489 0.923156 255 255 255 255 0.29856 0.186755
0 0.112032 0.033988 -0.382392 -0.039489 0.923156 255 255 255 255 0.29856 0.186755
-0.024033 0.112032 0.024033 -0.382392 -0.039489 0.923156 255 255 255 255 0.29856 0.186755
0 0.056885 0.031629 0.382389 -0.039488 0.923157 255 255 255 255 0.29856 0.186755
0.022365 0.056885 0.022365 0.382389 -0.039488 0.923157 255 255 255 255 0.29856 0.186755
0.024033 0.112032 0.024033 0.382389 -0.039488 0.923157 255 255 255 255 0.29856 0.186755
0.031629 0.056885 -0 0.923156 -0.039489 0.382392 255 255 255 255 0.29856 0.186755
0.033988 0.112032 -0 0.923156 -0.039489 0.382392 255 255 255 255 0.29856 0.186755
0.024033 0.112032 0.024033 0.923156 -0.039489 0.382392 255 255 255 255 0.29856 0.186755
0.031629 0.056885 -0 0.923157 -0.039488 -0.382389 255 255 255 255 0.29856 0.186755
0.022365 0.056885 -0.022365 0.923157 -0.039488 -0.382389 255 255 255 255 0.29856 0.186755
0.024033 0.112032 -0.024033 0.923157 -0.039488 -0.382389 255 255 255 255 0.29856 0.186755
0 0.056885 -0.031629 0.382392 -0.03949 -0.923156 255 255 255 255 0.29856 0.186755
0 0.112032 -0.033988 0.382392 -0.03949 -0.923156 255 255 255 255 0.29856 0.186755
0.024033 0.112032 -0.024033 0.382392 -0.03949 -0.923156 255 255 255 255 0.29856 0.186755
0 0.056885 -0.031629 -0.382374 -0.039481 -0.923164 255 255 255 255 0.29856 0.186755
-0.022366 0.056885 -0.022365 -0.382374 -0.039481 -0.923164 255 255 255 255 0.29856 0.186755
-0.024033 0.112032 -0.024033 -0.382374 -0.039481 -0.923164 255 255 255 255 0.29856 0.186755
-0.022366 0.056885 -0.022365 -0.923172 -0.03949 -0.382354 255 255 255 255 0.29856 0.186755
-0.031629 0.056885 -0 -0.923172 -0.03949 -0.382354 255 255 255 255 0.29856 0.186755
-0.033988 0.112032 -0 -0.923172 -0.03949 -0.382354 255 255 255 255 0.29856 0.186755
-0.022366 0.056885 0.022365 -0.923157 -0.039471 0.382392 255 255 255 255 0.29856 0.186755
-0.024033 0.112032 0.024033 -0.923157 -0.039471 0.382392 255 255 255 255 0.29856 0.186755
-0.033988 0.112032 -0 -0.923157 -0.039471 0.382392 255 255 255 255 0.29856 0.186755
0 0.112032 0.033988 -0.190468 -0.867342 0.459826 255 255 255 255 0.29856 0.186755
0 0.125736 0.059837 -0.190468 -0.867342 0.459826 255 255 255 255 0.29856 0.186755
-0.042311 0.125736 0.042311 -0.190468 -0.867342 0.459826 255 255 255 255 0.29856 0.186755
0 0.112032 0.033988 0.190469 -0.867343 0.459824 255 255 255 255 0.29856 0.186755
0.024033 0.112032 0.024033 0.190469 -0.867343 0.459824 255 255 255 255 0.29856 0.186755
0.042311 0.125736 0.042311 0.190469 -0.867343 0.459824 255 255 255 255 0.29856 0.186755
0.033988 0.112032 -0 0.459826 -0.867342 0.190468 255 255 255 255 0.29856 0.186755
0.059837 0.125736 -0 0.459826 -0.867342 0.190468 255 255 255 255 0.29856 0.186755
0.042311 0.125736 0.042311 0.459826 -0.867342 0.190468 255 255 255 255 0.29856 0.186755
0.033988 0.112032 -0 0.459824 -0.867343 -0.190469 255 255 255 255 0.29856 0.186755
0.024033 0.112032 -0.024033 0.459824 -0.867343 -0.190469 255 255 255 255 0.29856 0.186755
0.042311 0.125736 -0.042311 0.459824 -0.867343 -0.190469 255 255 255 255 0.29856 0.186755
0 0.112032 -0.033988 0.190469 -0.867342 -0.459826 255 255 255 255 0.29856 0.186755
0 0.125736 -0.059837 0.190469 -0.867342 -0.459826 255 255 255 255 0.29856 0.186755
0.042311 0.125736 -0.042311 0.190469 -0.867342 -0.459826 255 255 255 255 0.29856 0.186755
0 0.112032 -0.033988 -0.190469 -0.867343 -0.459824 255 255 255 255 0.29856 0.186755
-0.024033 0.112032 -0.024033 -0.190469 -0.867343 -0.459824 255 255 255 255 0.29856 0.186755
-0.042311 0.125736 -0.042311 -0.190469 -0.867343 -0.459824 255 255 255 255 0.29856 0.186755
-0.033988 0.112032 -0 -0.459812 -0.867348 -0.190473 255 255 255 255 0.29856 0.186755
-0.059838 0.125736 -0 -0.459812 -0.867348 -0.190473 255 255 255 255 0.29856 0.186755
-0.042311 0.125736 -0.042311 -0.459812 -0.867348 -0.190473 255 255 255 255 0.29856 0.186755
-0.033988 0.112032 -0 -0.459824 -0.867343 0.190469 255 255 255 255 0.29856 0.186755
-0.024033 0.112032 0.024033 -0.459824 -0.867343 0.190469 255 255 255 255 0.29856 0.186755
-0.042311 0.125736 0.042311 -0.459824 -0.867343 0.190469 255 255 255 255 0.29856 0.186755
0 0.125736 0.059837 -0.324492 -0.530153 0.783353 255 255 255 255 0.29856 0.186755
0 0.158549 0.082044 -0.324492 -0.530153 0.783353 255 255 255 255 0.29856 0.186755
-0.058013 0.158549 0.058013 -0.324492 -0.530153 0.783353 255 255 255 255 0.29856 0.186755
0 0.125736 0.059837 0.324484 -0.530139 0.783366 255 255 255 255 0.29856 0.186755
0.042311 0.125736 0.042311 0.324484 -0.530139 0.783366 255 255 255 255 0.29856 0.186755
0.058013 0.158549 0.058013 0.324484 -0.530139 0.783366 255 255 255 255 0.29856 0.186755
0.059837 0.125736 -0 0.783353 -0.530153 0.324492 255 255 255 255 0.29856 0.186755
0.082044 0.158549 -0 0.783353 -0.530153 0.324492 255 255 255 255 0.29856 0.186755
0.058013 0.158549 0.058013 0.783353 -0.530153 0.324492 255 255 255 255 0.29856 0.186755
0.059837 0.125736 -0 0.783366 -0.53014 -0.324484 255 255 255 255 0.29856 0.186755
0.042311 0.125736 -0.042311 0.783366 -0.53014 -0.324484 255 255 255 255 0.29856 0.186755
0.058013 0.158549 -0.058013 0.783366 -0.53014 -0.324484 255 255 255 255 0.29856 0.186755
0 0.125736 -0.059837 0.324492 -0.530154 -0.783353 255 255 255 255 0.29856 0.186755
0 0.158549 -0.082044 0.324492 -0.530154 -0.783353 255 255 255 255 0.29856 0.186755
0.058013 0.158549 -0.058013 0.324492 -0.530154 -0.783353 255 255 255 255 0.29856 0.186755
0 0.125736 -0.059837 -0.324485 -0.53014 -0.783366 255 255 255 255 0.29856 0.186755
-0.042311 0.125736 -0.042311 -0.324485 -0.53014 -0.783366 255 255 255 255 0.29856 0.186755
-0.058013 0.158549 -0.058013 -0.324485 -0.53014 -0.783366 255 255 255 255 0.29856 0.186755
-0.059838 0.125736 -0 -0.783363 -0.530136 -0.324496 255 255 255 255 0.29856 0.186755
-0.082044 0.158549 -0 -0.783363 -0.530136 -0.324496 255 255 255 255 0.29856 0.186755
-0.058013 0.158549 -0.058013 -0.783363 -0.530136 -0.324496 255 255 255 255 0.29856 0.186755
-0.059838 0.125736 -0 -0.783357 -0.530142 0.3245 255 255 255 255 0.29856 0.186755
-0.042311 0.125736 0.042311 -0.783357 -0.530142 0.3245 255 255 255 255 0.29856 0.186755
-0.058013 0.158549 0.058013 -0.783357 -0.530142 0.3245 255 255 255 255 0.29856 0.186755
0 0.158549 0.082044 -0.381163 -0.088874 0.920226 255 255 255 255 0.29856 0.186755
0 0.281061 0.093876 -0.381163 -0.088874 0.920226 255 255 255 255 0.29856 0.186755
-0.06638 0.281061 0.066381 -0.381163 -0.088874 0.920226 255 255 255 255 0.29856 0.186755
0.058013 0.158549 0.058013 0.381158 -0.088889 0.920227 255 255 255 255 0.29856 0.186755
0.066381 0.281061 0.066381 0.381158 -0.088889 0.920227 255 255 255 255 0.29856 0.186755
0 0.281061 0.093876 0.381158 -0.088889 0.920227 255 255 255 255 0.29856 0.186755
0.058013 0.158549 0.058013 0.920217 -0.088873 0.381186 255 255 255 255 0.29856 0.186755
0.082044 0.158549 -0 0.920217 -0.088873 0.381186 255 255 255 255 0.29856 0.186755
0.093876 0.281061 -0 0.920217 -0.088873 0.381186 255 255 255 255 0.29856 0.186755
0.082044 0.158549 -0 0.920216 -0.088887 -0.381185 255 255 255 255 0.29856 0.186755
0.058013 0.158549 -0.058013 0.920216 -0.088887 -0.381185 255 255 255 255 0.29856 0.186755
0.066381 0.281061 -0.06638 0.920216 -0.088887 -0.381185 255 255 255 255 0.29856 0.186755
0.058013 0.158549 -0.058013 0.381186 -0.088873 -0.920217 255 255 255 255 0.29856 0.186755
0 0.158549 -0.082044 0.381186 -0.088873 -0.920217 255 255 255 255 0.29856 0.186755
0 0.281061 -0.093876 0.381186 -0.088873 -0.920217 255 255 255 255 0.29856 0.186755
-0.058013 0.158549 -0.058013 -0.381175 -0.088879 -0.920221 255 255 255 255 0.29856 0.186755
-0.06638 0.281061 -0.06638 -0.381175 -0.088879 -0.920221 255 255 255 255 0.29856 0.186755
0 0.281061 -0.093876 -0.381175 -0.088879 -0.920221 255 255 255 255 0.29856 0.186755
-0.082044 0.158549 -0 -0.920221 -0.088873 -0.381175 255 255 255 255 0.29856 0.186755
-0.093876 0.281061 -0 -0.920221 -0.088873 -0.381175 255 255 255 255 0.29856 0.186755
-0.06638 0.281061 -0.06638 -0.920221 -0.088873 -0.381175 255 255 255 255 0.29856 0.186755
-0.058013 0.158549 0.058013 -0.920223 -0.088882 0.38117 255 255 255 255 0.29856 0.186755
-0.06638 0.281061 0.066381 -0.920223 -0.088882 0.38117 255 255 255 255 0.29856 0.186755
-0.093876 0.281061 -0 -0.920223 -0.088882 0.38117 255 255 255 255 0.29856 0.186755
-0.06638 0.281061 0.066381 -0.210744 -0.834696 0.508792 255 255 255 255 0.29856 0.186755
0 0.281061 0.093876 -0.210744 -0.834696 0.508792 255 255 255 255 0.29856 0.186755
0 0.28845 0.105998 -0.210744 -0.834696 0.508792 255 255 255 255 0.29856 0.186755
0.066381 0.281061 0.066381 0.210757 -0.834679 0.508815 255 255 255 255 0.29856 0.186755
0.074952 0.28845 0.074952 0.210757 -0.834679 0.508815 255 255 255 255 0.29856 0.186755
0 0.28845 0.105998 0.210757 -0.834679 0.508815 255 255 255 255 0.29856 0.186755
0.066381 0.281061 0.066381 0.508792 -0.834697 0.210742 255 255 255 255 0.29856 0.186755
0.093876 0.281061 -0 0.508792 -0.834697 0.210742 255 255 255 255 0.29856 0.186755
0.105998 0.28845 -0 0.508792 -0.834697 0.210742 255 255 255 255 0.29856 0.186755
0.066381 0.281061 -0.06638 0.508803 -0.834688 -0.210752 255 255 255 255 0.29856 0.186755
0.074952 0.28845 -0.074952 0.508803 -0.834688 -0.210752 255 255 255 255 0.29856 0.186755
0.105998 0.28845 -0 0.508803 -0.834688 -0.210752 255 255 255 255 0.29856 0.186755
0 0.281061 -0.093876 0.210748 -0.834696 -0.508791 255 255 255 255 0.29856 0.186755
0 0.28845 -0.105998 0.210748 -0.834696 -0.508791 255 255 255 255 0.29856 0.186755
0.074952 0.28845 -0.074952 0.210748 -0.834696 -0.508791 255 255 255 255 0.29856 0.186755
-0.06638 0.281061 -0.06638 -0.21074 -0.834708 -0.508773 255 255 255 255 0.29856 0.186755
-0.074952 0.28845 -0.074952 -0.21074 -0.834708 -0.508773 255 255 255 255 0.29856 0.186755
0 0.28845 -0.105998 -0.21074 -0.834708 -0.508773 255 255 255 255 0.29856 0.186755
-0.06638 0.281061 -0.06638 -0.508791 -0.834695 -0.210752 255 255 255 255 0.29856 0.186755
-0.093876 0.281061 -0 -0.508791 -0.834695 -0.210752 255 255 255 255 0.29856 0.186755
-0.105998 0.28845 -0 -0.508791 -0.834695 -0.210752 255 255 255 255 0.29856 0.186755
-0.093876 0.281061 -0 -0.508785 -0.8347 0.210746 255 255 255 255 0.29856 0.186755
-0.06638 0.281061 0.066381 -0.508785 -0.8347 0.210746 255 255 255 255 0.29856 0.186755
-0.074952 0.28845 0.074952 -0.508785 -0.8347 0.210746 255 255 255 255 0.29856 0.186755
0 0.300972 0.105998 -0.382682 1e-06 0.92388 255 255 255 255 0.29856 0.186755
0.074952 0.300972 0.074952 0.382682 1e-06 0.92388 255 255 255 255 0.29856 0.186755
0.105998 0.300972 -0 0.92388 0 0.382682 255 255 255 255 0.29856 0.186755
0.074952 0.300972 -0.074952 0.92388 -0 -0.382682 255 255 255 255 0.29856 0.186755
0 0.300972 -0.105998 0.382682 -1e-06 -0.92388 255 255 255 255 0.29856 0.186755
-0.074952 0.300972 -0.074952 -0.382682 -1e-06 -0.92388 255 255 255 255 0.29856 0.186755
-0.105998 0.300972 -0 -0.92388 -0 -0.382682 255 255 255 255 0.29856 0.186755
-0.074952 0.300972 0.074952 -0.92388 0 0.382682 255 255 255 255 0.29856 0.186755
-0.074952 0.300972 0.074952 0 1 -1e-06 255 255 255 255 0.29856 0.186755
0.074952 0.300972 -0.074952 0 1 -1e-06 255 255 255 255 0.29856 0.186755
-0.060849 0.300972 0.060849 0.379733 0.124073 -0.916738 255 255 255 255 0.29856 0.186755
0 0.300972 0.086054 0.379733 0.124073 -0.916738 255 255 255 255 0.29856 0.186755
0 0.153849 0.066142 0.379733 0.124073 -0.916738 255 255 255 255 0.29856 0.186755
0.060849 0.300972 0.060849 -0.379737 0.124075 -0.916736 255 255 255 255 0.29856 0.186755
0.046769 0.153849 0.046769 -0.379737 0.124075 -0.916736 255 255 255 255 0.29856 0.186755
0 0.153849 0.066142 -0.379737 0.124075 -0.916736 255 255 255 255 0.29856 0.186755
0.060849 0.300972 0.060849 -0.916738 0.124074 -0.379733 255 255 255 255 0.29856 0.186755
0.086054 0.300972 -0 -0.916738 0.124074 -0.379733 255 255 255 255 0.29856 0.186755
0.066142 0.153849 -0 -0.916738 0.124074 -0.379733 255 255 255 255 0.29856 0.186755
0.060849 0.300972 -0.060849 -0.916736 0.124075 0.379737 255 255 255 255 0.29856 0.186755
0.046769 0.153849 -0.046769 -0.916736 0.124075 0.379737 255 255 255 255 0.29856 0.186755
0.066142 0.153849 -0 -0.916736 0.124075 0.379737 255 255 255 255 0.29856 0.186755
0.060849 0.300972 -0.060849 -0.379733 0.124074 0.916738 255 255 255 255 0.29856 0.186755
0 0.300972 -0.086054 -0.379733 0.124074 0.916738 255 255 255 255 0.29856 0.186755
0 0.153849 -0.066142 -0.379733 0.124074 0.916738 255 255 255 255 0.29856 0.186755
-0.060849 0.300972 -0.060849 0.379737 0.124075 0.916736 255 255 255 255 0.29856 0.186755
-0.046769 0.153849 -0.046769 0.379737 0.124075 0.916736 255 255 255 255 0.29856 0.186755
0 0.153849 -0.066142 0.379737 0.124075 0.916736 255 255 255 255 0.29856 0.186755
-0.060849 0.300972 -0.060849 0.916738 0.124074 0.379733 255 255 255 255 0.29856 0.186755
-0.086054 0.300972 -0 0.916738 0.124074 0.379733 255 255 255 255 0.29856 0.186755
-0.066142 0.153849 -0 0.916738 0.124074 0.379733 255 255 255 255 0.29856 0.186755
-0.060849 0.300972 0.060849 0.916736 0.124075 -0.379737 255 255 255 255 0.29856 0.186755
-0.046769 0.153849 0.046769 0.916736 0.124075 -0.379737 255 255 255 255 0.29856 0.186755
-0.066142 0.153849 -0 0.916736 0.124075 -0.379737 255 255 255 255 0.29856 0.186755
3 0 1 2 
3 3 4 5 
3 6 7 8 
3 9 10 11 
3 12 13 14 
3 15 16 17 
3 18 19 20 
3 21 22 23 
3 24 25 26 
3 27 24 26 
3 28 27 26 
3 29 28 26 
3 30 29 26 
3 31 30 26 
3 32 31 26 
3 25 32 26 
3 33 34 35 
3 36 37 38 
3 39 40 41 
3 42 43 44 
3 45 46 47 
3 48 49 50 
3 51 52 53 
3 54 55 56 
3 57 58 59 
3 60 61 62 
3 63 64 65 
3 66 67 68 
3 69 70 71 
3 72 73 74 
3 75 76 77 
3 78 79 80 
3 81 82 83 
3 84 85 86 
3 87 88 89 
3 90 91 92 
3 93 94 95 
3 96 97 98 
3 99 100 101 
3 102 103 104 
3 105 106 107 
3 108 109 110 
3 111 112 113 
3 114 115 116 
3 117 118 119 
3 120 121 122 
3 123 124 125 
3 126 127 128 
3 129 130 131 
3 132 133 134 
3 135 136 137 
3 138 139 140 
3 141 142 143 
3 144 145 146 
3 147 148 149 
3 150 151 152 
3 153 154 155 
3 156 157 158 
3 159 160 161 
3 162 163 164 
3 165 166 167 
3 168 169 170 
3 171 172 173 
3 174 175 176 
3 177 178 179 
3 180 181 182 
3 183 184 185 
3 186 187 188 
3 189 190 191 
3 192 193 194 
3 195 196 197 
3 198 199 200 
3 201 202 203 
3 204 205 206 
3 207 208 209 
3 210 211 212 
3 213 214 215 
3 216 217 218 
3 219 220 221 
3 222 223 224 
3 225 226 227 
3 228 229 230 
3 231 232 233 
3 234 235 236 
3 237 238 239 
3 240 241 242 
3 243 244 245 
3 246 247 248 
3 249 250 251 
3 252 253 254 
3 255 256 257 
3 258 256 259 
3 258 260 261 
3 262 263 264 
3 265 266 267 
3 249 266 268 
3 269 270 271 
3 272 273 274 
3 275 276 277 
3 278 279 280 
3 281 282 283 
3 284 285 286 
3 287 288 289 
3 290 291 292 
3 0 293 1 
3 3 294 4 
3 6 295 7 
3 9 296 10 
3 12 297 13 
3 15 298 16 
3 18 299 19 
3 21 300 22 
3 301 302 303 
3 304 305 306 
3 307 308 309 
3 310 311 312 
3 313 314 315 
3 316 317 318 
3 319 320 321 
3 322 323 324 
3 325 326 327 
3 328 329 330 
3 331 332 333 
3 334 335 336 
3 337 338 339 
3 340 341 342 
3 343 344 345 
3 346 347 348 
3 349 350 351 
3 352 353 354 
3 355 356 357 
3 358 359 360 
3 361 362 363 
3 364 365 366 
3 367 368 369 
3 370 371 372 
3 373 374 375 
3 376 377 378 
3 379 380 381 
3 382 383 384 
3 385 386 387 
3 388 389 390 
3 391 392 393 
3 394 395 396 
3 397 398 399 
3 400 401 402 
3 403 404 405 
3 406 407 408 
3 409 410 411 
3 412 413 414 
3 415 416 417 
3 418 419 420 
3 421 422 423 
3 424 425 426 
3 427 428 429 
3 430 431 432 
3 433 434 435 
3 436 437 438 
3 439 440 441 
3 442 443 444 
3 445 446 447 
3 448 449 450 
3 451 452 453 
3 454 455 456 
3 457 458 459 
3 460 461 462 
3 463 464 465 
3 466 467 468 
3 225 469 226 
3 228 470 229 
3 231 471 232 
3 234 472 235 
3 237 473 238 
3 240 474 241 
3 243 475 244 
3 246 476 247 
3 477 254 253 
3 255 257 250 
3 255 259 256 
3 258 261 256 
3 478 264 263 
3 265 267 260 
3 265 268 266 
3 249 251 266 
3 479 480 481 
3 482 483 484 
3 485 486 487 
3 488 489 490 
3 491 492 493 
3 494 495 496 
3 497 498 499 
3 500 501 502 
