ply
format ascii 1.0
comment VCGLIB generated
comment TextureFile Texture_01_A.png
element vertex 456
property float x
property float y
property float z
property float nx
property float ny
property float nz
property uchar red
property uchar green
property uchar blue
property uchar alpha
property float texture_u
property float texture_v
element face 194
property list uchar int vertex_indices
end_header
-0.03312 0.059175 -0.045669 0 0.137405 -0.990515 255 255 255 255 0.299097 0.11512
0.027581 0.088702 -0.041573 0 0.137405 -0.990515 255 255 255 255 0.299097 0.11512
0.03312 0.059175 -0.045669 0 0.137405 -0.990515 255 255 255 255 0.299097 0.11512
-0.01079 0.2479 0.008475 0 1 0 255 255 255 255 0.133074 0.359019
0.005968 0.2479 0.016276 0 1 0 255 255 255 255 0.133074 0.359019
0.01079 0.2479 0.007531 0 1 0 255 255 255 255 0.133074 0.359019
-0.027581 0.088703 0.041676 0 0.134893 0.99086 255 255 255 255 0.299097 0.11512
0.03312 0.059174 0.045696 0 0.134893 0.99086 255 255 255 255 0.299097 0.11512
0.027581 0.088703 0.041676 0 0.134893 0.99086 255 255 255 255 0.299097 0.11512
-0.063802 0.011054 6.4e-05 -0.169954 -0.980998 0.093587 255 255 255 255 0.299186 0.160212
0 0 5.8e-05 -0.169954 -0.980998 0.093587 255 255 255 255 0.299186 0.160212
-0.045221 0.011054 0.033807 -0.169954 -0.980998 0.093587 255 255 255 255 0.299186 0.160212
-0.069806 0.098532 6.4e-05 -0.833829 0.313837 0.454131 255 255 255 255 0.299186 0.160212
-0.059899 0.06027 0.044696 -0.833829 0.313837 0.454131 255 255 255 255 0.299186 0.160212
-0.049882 0.097608 0.037285 -0.833829 0.313837 0.454131 255 255 255 255 0.299186 0.160212
0.059899 0.06027 0.044696 0.833829 0.313837 0.454131 255 255 255 255 0.299186 0.160212
0.069806 0.098532 6.4e-05 0.833829 0.313837 0.454131 255 255 255 255 0.299186 0.160212
0.049882 0.097608 0.037285 0.833829 0.313837 0.454131 255 255 255 255 0.299186 0.160212
0.045221 0.011054 0.033807 0.169954 -0.980998 0.093587 255 255 255 255 0.299186 0.160212
0 0 5.8e-05 0.169954 -0.980998 0.093587 255 255 255 255 0.299186 0.160212
0.063802 0.011054 6.4e-05 0.169954 -0.980998 0.093587 255 255 255 255 0.299186 0.160212
0 0 5.8e-05 -0 -0.950291 -0.311365 255 255 255 255 0.299186 0.160212
-0.045221 0.011054 -0.033679 -0 -0.950291 -0.311365 255 255 255 255 0.299186 0.160212
0.045221 0.011054 -0.033679 -0 -0.950291 -0.311365 255 255 255 255 0.299186 0.160212
0.069806 0.098532 6.4e-05 0.833399 0.315241 -0.453948 255 255 255 255 0.299186 0.160212
0.059899 0.06027 -0.044695 0.833399 0.315241 -0.453948 255 255 255 255 0.299186 0.160212
0.049882 0.097608 -0.037156 0.833399 0.315241 -0.453948 255 255 255 255 0.299186 0.160212
-0.005968 0.2479 -0.00027 0 1 -0 255 255 255 255 0.133074 0.359019
0.005789 0.2479 -0.000939 0 1 -0 255 255 255 255 0.133074 0.359019
-0.059899 0.06027 -0.044695 -0.833399 0.315241 -0.453948 255 255 255 255 0.299186 0.160212
-0.069806 0.098532 6.4e-05 -0.833399 0.315241 -0.453948 255 255 255 255 0.299186 0.160212
-0.049882 0.097608 -0.037156 -0.833399 0.315241 -0.453948 255 255 255 255 0.299186 0.160212
0.063802 0.011054 6.4e-05 0.822082 -0.345332 0.452689 255 255 255 255 0.299186 0.160212
0.059899 0.06027 0.044696 0.822082 -0.345332 0.452689 255 255 255 255 0.299186 0.160212
0.045221 0.011054 0.033807 0.822082 -0.345332 0.452689 255 255 255 255 0.299186 0.160212
0.059899 0.06027 -0.044695 0.82175 -0.34636 -0.452506 255 255 255 255 0.299186 0.160212
0.063802 0.011054 6.4e-05 0.82175 -0.34636 -0.452506 255 255 255 255 0.299186 0.160212
0.045221 0.011054 -0.033679 0.82175 -0.34636 -0.452506 255 255 255 255 0.299186 0.160212
-0.025004 0.02308 -0.038816 0 -0.186528 -0.98245 255 255 255 255 0.299097 0.11512
0.03312 0.059175 -0.045669 0 -0.186528 -0.98245 255 255 255 255 0.299097 0.11512
0.025004 0.02308 -0.038816 0 -0.186528 -0.98245 255 255 255 255 0.299097 0.11512
-0.063802 0.011054 6.4e-05 -0.82175 -0.34636 -0.452506 255 255 255 255 0.299186 0.160212
-0.059899 0.06027 -0.044695 -0.82175 -0.34636 -0.452506 255 255 255 255 0.299186 0.160212
-0.045221 0.011054 -0.033679 -0.82175 -0.34636 -0.452506 255 255 255 255 0.299186 0.160212
-0.059899 0.06027 0.044696 -0.822082 -0.345332 0.452689 255 255 255 255 0.299186 0.160212
-0.063802 0.011054 6.4e-05 -0.822082 -0.345332 0.452689 255 255 255 255 0.299186 0.160212
-0.045221 0.011054 0.033807 -0.822082 -0.345332 0.452689 255 255 255 255 0.299186 0.160212
-0.03312 0.059174 0.045696 0 -0.184561 0.982821 255 255 255 255 0.299097 0.11512
0.025004 0.02308 0.038918 0 -0.184561 0.982821 255 255 255 255 0.299097 0.11512
0.03312 0.059174 0.045696 0 -0.184561 0.982821 255 255 255 255 0.299097 0.11512
-0.049882 0.097608 0.037285 -0.728143 0.554057 0.403521 255 255 255 255 0.299186 0.160212
-0.054018 0.119285 5.8e-05 -0.728143 0.554057 0.403521 255 255 255 255 0.299186 0.160212
-0.069806 0.098532 6.4e-05 -0.728143 0.554057 0.403521 255 255 255 255 0.299186 0.160212
-0.049882 0.097608 0.037285 -0 0.371916 0.928267 255 255 255 255 0.299186 0.160212
0.038432 0.118948 0.028735 -0 0.371916 0.928267 255 255 255 255 0.299186 0.160212
-0.038432 0.118948 0.028735 -0 0.371916 0.928267 255 255 255 255 0.299186 0.160212
0.049882 0.097608 0.037285 0.729416 0.552807 0.402935 255 255 255 255 0.299186 0.160212
0.054018 0.119285 5.8e-05 0.729416 0.552807 0.402935 255 255 255 255 0.299186 0.160212
0.038432 0.118948 0.028735 0.729416 0.552807 0.402935 255 255 255 255 0.299186 0.160212
0.049882 0.097608 -0.037156 0 0.371428 -0.928462 255 255 255 255 0.299186 0.160212
-0.038432 0.118948 -0.028619 0 0.371428 -0.928462 255 255 255 255 0.299186 0.160212
0.038432 0.118948 -0.028619 0 0.371428 -0.928462 255 255 255 255 0.299186 0.160212
0.049882 0.097608 -0.037156 0.728235 0.553894 -0.403578 255 255 255 255 0.299186 0.160212
0.054018 0.119285 5.8e-05 0.728235 0.553894 -0.403578 255 255 255 255 0.299186 0.160212
0.069806 0.098532 6.4e-05 0.728235 0.553894 -0.403578 255 255 255 255 0.299186 0.160212
-0.049882 0.097608 -0.037156 -0.729516 0.552637 -0.402988 255 255 255 255 0.299186 0.160212
-0.054018 0.119285 5.8e-05 -0.729516 0.552637 -0.402988 255 255 255 255 0.299186 0.160212
-0.038432 0.118948 -0.028619 -0.729516 0.552637 -0.402988 255 255 255 255 0.299186 0.160212
-0.038432 0.118948 0.028735 -0.819373 0.355764 0.449511 255 255 255 255 0.299186 0.160212
-0.036478 0.159682 5.8e-05 -0.819373 0.355764 0.449511 255 255 255 255 0.299186 0.160212
-0.054018 0.119285 5.8e-05 -0.819373 0.355764 0.449511 255 255 255 255 0.299186 0.160212
-0.038432 0.118948 0.028735 -0 0.224515 0.97447 255 255 255 255 0.299186 0.160212
0.025855 0.159682 0.01935 -0 0.224515 0.97447 255 255 255 255 0.299186 0.160212
-0.025855 0.159682 0.01935 -0 0.224515 0.97447 255 255 255 255 0.299186 0.160212
0.038432 0.118948 0.028735 0.818415 0.356523 0.450654 255 255 255 255 0.299186 0.160212
0.036478 0.159682 5.8e-05 0.818415 0.356523 0.450654 255 255 255 255 0.299186 0.160212
0.025855 0.159682 0.01935 0.818415 0.356523 0.450654 255 255 255 255 0.299186 0.160212
0.038432 0.118948 -0.028619 0 0.224515 -0.974471 255 255 255 255 0.299186 0.160212
-0.025855 0.159682 -0.019234 0 0.224515 -0.974471 255 255 255 255 0.299186 0.160212
0.025855 0.159682 -0.019234 0 0.224515 -0.974471 255 255 255 255 0.299186 0.160212
0.038432 0.118948 -0.028619 0.819373 0.355764 -0.449511 255 255 255 255 0.299186 0.160212
0.036478 0.159682 5.8e-05 0.819373 0.355764 -0.449511 255 255 255 255 0.299186 0.160212
0.054018 0.119285 5.8e-05 0.819373 0.355764 -0.449511 255 255 255 255 0.299186 0.160212
-0.038432 0.118948 -0.028619 -0.818415 0.356522 -0.450654 255 255 255 255 0.299186 0.160212
-0.036478 0.159682 5.8e-05 -0.818415 0.356522 -0.450654 255 255 255 255 0.299186 0.160212
-0.025855 0.159682 -0.019234 -0.818415 0.356522 -0.450654 255 255 255 255 0.299186 0.160212
-0.025855 0.159682 0.01935 -0.865402 0.154924 0.476527 255 255 255 255 0.299186 0.160212
-0.031123 0.189595 5.8e-05 -0.865402 0.154924 0.476527 255 255 255 255 0.299186 0.160212
-0.036478 0.159682 5.8e-05 -0.865402 0.154924 0.476527 255 255 255 255 0.299186 0.160212
-0.025855 0.159682 0.01935 0 -0.077293 0.997008 255 255 255 255 0.299186 0.160212
0.02206 0.189595 0.021669 0 -0.077293 0.997008 255 255 255 255 0.299186 0.160212
-0.02206 0.189595 0.021669 0 -0.077293 0.997008 255 255 255 255 0.299186 0.160212
0.025855 0.159682 0.01935 0.918718 0.086687 0.385283 255 255 255 255 0.299186 0.160212
0.031123 0.189595 5.8e-05 0.918718 0.086687 0.385283 255 255 255 255 0.299186 0.160212
0.02206 0.189595 0.021669 0.918718 0.086687 0.385283 255 255 255 255 0.299186 0.160212
0.025855 0.159682 -0.019234 -0 -0.077293 -0.997008 255 255 255 255 0.299186 0.160212
-0.02206 0.189595 -0.021553 -0 -0.077293 -0.997008 255 255 255 255 0.299186 0.160212
0.02206 0.189595 -0.021553 -0 -0.077293 -0.997008 255 255 255 255 0.299186 0.160212
0.025855 0.159682 -0.019234 0.865402 0.154924 -0.476527 255 255 255 255 0.299186 0.160212
0.031123 0.189595 5.8e-05 0.865402 0.154924 -0.476527 255 255 255 255 0.299186 0.160212
0.036478 0.159682 5.8e-05 0.865402 0.154924 -0.476527 255 255 255 255 0.299186 0.160212
-0.025855 0.159682 -0.019234 -0.918718 0.086687 -0.385283 255 255 255 255 0.299186 0.160212
-0.031123 0.189595 5.8e-05 -0.918718 0.086687 -0.385283 255 255 255 255 0.299186 0.160212
-0.02206 0.189595 -0.021553 -0.918718 0.086687 -0.385283 255 255 255 255 0.299186 0.160212
-0.02206 0.189595 0.021669 -0.617908 -0.742321 0.259132 255 255 255 255 0.133074 0.359019
-0.035407 0.193161 5.8e-05 -0.617908 -0.742321 0.259132 255 255 255 255 0.133074 0.359019
-0.031123 0.189595 5.8e-05 -0.617908 -0.742321 0.259132 255 255 255 255 0.133074 0.359019
-0.02206 0.189595 0.021669 0 -0.890171 0.455626 255 255 255 255 0.133074 0.359019
0.019289 0.193161 0.028636 0 -0.890171 0.455626 255 255 255 255 0.133074 0.359019
-0.019289 0.193161 0.028636 0 -0.890171 0.455626 255 255 255 255 0.133074 0.359019
0.02206 0.189595 0.021669 0.838114 -0.272256 0.472696 255 255 255 255 0.133074 0.359019
0.035407 0.193161 5.8e-05 0.838114 -0.272256 0.472696 255 255 255 255 0.133074 0.359019
0.019289 0.193161 0.028636 0.838114 -0.272256 0.472696 255 255 255 255 0.133074 0.359019
0.019289 0.193161 -0.02852 0 -0.890171 -0.455626 255 255 255 255 0.133074 0.359019
-0.02206 0.189595 -0.021553 0 -0.890171 -0.455626 255 255 255 255 0.133074 0.359019
-0.019289 0.193161 -0.02852 0 -0.890171 -0.455626 255 255 255 255 0.133074 0.359019
0.02206 0.189595 -0.021553 0.617907 -0.742321 -0.259132 255 255 255 255 0.133074 0.359019
0.035407 0.193161 5.8e-05 0.617907 -0.742321 -0.259132 255 255 255 255 0.133074 0.359019
0.031123 0.189595 5.8e-05 0.617907 -0.742321 -0.259132 255 255 255 255 0.133074 0.359019
-0.02206 0.189595 -0.021553 -0.838114 -0.272255 -0.472697 255 255 255 255 0.133074 0.359019
-0.035407 0.193161 5.8e-05 -0.838114 -0.272255 -0.472697 255 255 255 255 0.133074 0.359019
-0.019289 0.193161 -0.02852 -0.838114 -0.272255 -0.472697 255 255 255 255 0.133074 0.359019
-0.019289 0.193161 0.028636 -0.871017 0 0.491254 255 255 255 255 0.133074 0.359019
-0.035407 0.222355 5.8e-05 -0.871017 0 0.491254 255 255 255 255 0.133074 0.359019
-0.035407 0.193161 5.8e-05 -0.871017 0 0.491254 255 255 255 255 0.133074 0.359019
-0.019289 0.193161 0.028636 -0 0 1 255 255 255 255 0.133074 0.359019
0.019289 0.222355 0.028636 -0 0 1 255 255 255 255 0.133074 0.359019
-0.019289 0.222355 0.028636 -0 0 1 255 255 255 255 0.133074 0.359019
0.035407 0.193161 5.8e-05 0.871017 0 0.491254 255 255 255 255 0.133074 0.359019
0.019289 0.222355 0.028636 0.871017 0 0.491254 255 255 255 255 0.133074 0.359019
0.019289 0.193161 0.028636 0.871017 0 0.491254 255 255 255 255 0.133074 0.359019
0.019289 0.193161 -0.02852 -0 -0 -1 255 255 255 255 0.133074 0.359019
-0.019289 0.222355 -0.02852 -0 -0 -1 255 255 255 255 0.133074 0.359019
0.019289 0.222355 -0.02852 -0 -0 -1 255 255 255 255 0.133074 0.359019
0.019289 0.193161 -0.02852 0.871017 -0 -0.491254 255 255 255 255 0.133074 0.359019
0.035407 0.222355 5.8e-05 0.871017 -0 -0.491254 255 255 255 255 0.133074 0.359019
0.035407 0.193161 5.8e-05 0.871017 -0 -0.491254 255 255 255 255 0.133074 0.359019
-0.069225 0.201475 -0.023054 -0.871023 0 -0.491243 255 255 255 255 0.133074 0.359019
-0.056563 0.21404 -0.045505 -0.871023 0 -0.491243 255 255 255 255 0.133074 0.359019
-0.056563 0.201475 -0.045505 -0.871023 0 -0.491243 255 255 255 255 0.133074 0.359019
-0.019289 0.222355 0.028636 0 1 -0 255 255 255 255 0.133074 0.359019
-0.014171 0.222355 0.008003 0 1 -0 255 255 255 255 0.133074 0.359019
-0.035407 0.222355 5.8e-05 0 1 -0 255 255 255 255 0.133074 0.359019
0.00772 0.222355 0.01944 0 1 -0 255 255 255 255 0.133074 0.359019
-0.00772 0.222355 0.01944 0 1 -0 255 255 255 255 0.133074 0.359019
0.019289 0.222355 0.028636 -0 1 0 255 255 255 255 0.133074 0.359019
0.014171 0.222355 0.008003 -0 1 0 255 255 255 255 0.133074 0.359019
0.019289 0.222355 -0.02852 0 1 0 255 255 255 255 0.133074 0.359019
-0.00772 0.222355 -0.003434 0 1 0 255 255 255 255 0.133074 0.359019
0.00772 0.222355 -0.003434 0 1 0 255 255 255 255 0.133074 0.359019
0.035407 0.222355 5.8e-05 -0 1 0 255 255 255 255 0.133074 0.359019
-0.019289 0.222355 -0.02852 0 1 -0 255 255 255 255 0.133074 0.359019
-0.00772 0.222355 0.01944 -0.866129 0.105609 0.488537 255 255 255 255 0.133074 0.359019
-0.01079 0.2479 0.008475 -0.866129 0.105609 0.488537 255 255 255 255 0.133074 0.359019
-0.014171 0.222355 0.008003 -0.866129 0.105609 0.488537 255 255 255 255 0.133074 0.359019
-0.005789 0.2479 0.016945 0.056354 0.126531 0.990361 255 255 255 255 0.133074 0.359019
0.00772 0.222355 0.01944 0.056354 0.126531 0.990361 255 255 255 255 0.133074 0.359019
0.005968 0.2479 0.016276 0.056354 0.126531 0.990361 255 255 255 255 0.133074 0.359019
0.014171 0.222355 0.008003 0.864735 0.119721 0.487751 255 255 255 255 0.133074 0.359019
0.005968 0.2479 0.016276 0.864735 0.119721 0.487751 255 255 255 255 0.133074 0.359019
0.00772 0.222355 0.01944 0.864735 0.119721 0.487751 255 255 255 255 0.133074 0.359019
0.005789 0.2479 -0.000939 -0.056354 0.126531 -0.990361 255 255 255 255 0.133074 0.359019
-0.00772 0.222355 -0.003434 -0.056354 0.126531 -0.990361 255 255 255 255 0.133074 0.359019
-0.005968 0.2479 -0.00027 -0.056354 0.126531 -0.990361 255 255 255 255 0.133074 0.359019
0.00772 0.222355 -0.003434 0.866128 0.105609 -0.488537 255 255 255 255 0.133074 0.359019
0.01079 0.2479 0.007531 0.866128 0.105609 -0.488537 255 255 255 255 0.133074 0.359019
0.014171 0.222355 0.008003 0.866128 0.105609 -0.488537 255 255 255 255 0.133074 0.359019
-0.014171 0.222355 0.008003 -0.864735 0.11972 -0.487751 255 255 255 255 0.133074 0.359019
-0.005968 0.2479 -0.00027 -0.864735 0.11972 -0.487751 255 255 255 255 0.133074 0.359019
-0.00772 0.222355 -0.003434 -0.864735 0.11972 -0.487751 255 255 255 255 0.133074 0.359019
0.063802 0.011054 6.4e-05 0.169971 -0.980994 -0.093596 255 255 255 255 0.299186 0.160212
0 0 5.8e-05 0.169971 -0.980994 -0.093596 255 255 255 255 0.299186 0.160212
0.045221 0.011054 -0.033679 0.169971 -0.980994 -0.093596 255 255 255 255 0.299186 0.160212
0.045221 0.011054 0.033807 0 -0.950323 0.311265 255 255 255 255 0.299186 0.160212
-0.045221 0.011054 0.033807 0 -0.950323 0.311265 255 255 255 255 0.299186 0.160212
0 0 5.8e-05 0 -0.950323 0.311265 255 255 255 255 0.299186 0.160212
-0.045221 0.011054 -0.033679 -0.169971 -0.980994 -0.093596 255 255 255 255 0.299186 0.160212
0 0 5.8e-05 -0.169971 -0.980994 -0.093596 255 255 255 255 0.299186 0.160212
-0.063802 0.011054 6.4e-05 -0.169971 -0.980994 -0.093596 255 255 255 255 0.299186 0.160212
-0.059899 0.06027 -0.044695 -0.030139 0.142887 -0.98928 255 255 255 255 0.299186 0.160212
-0.027581 0.088702 -0.041573 -0.030139 0.142887 -0.98928 255 255 255 255 0.299186 0.160212
-0.03312 0.059175 -0.045669 -0.030139 0.142887 -0.98928 255 255 255 255 0.299186 0.160212
0.049882 0.097608 -0.037156 0 0.444314 -0.895871 255 255 255 255 0.299186 0.160212
-0.027581 0.088702 -0.041573 0 0.444314 -0.895871 255 255 255 255 0.299186 0.160212
-0.049882 0.097608 -0.037156 0 0.444314 -0.895871 255 255 255 255 0.299186 0.160212
0.059899 0.06027 -0.044695 0.10281 0.223298 -0.969313 255 255 255 255 0.299186 0.160212
0.027581 0.088702 -0.041573 0.10281 0.223298 -0.969313 255 255 255 255 0.299186 0.160212
0.049882 0.097608 -0.037156 0.10281 0.223298 -0.969313 255 255 255 255 0.299186 0.160212
-0.045221 0.011054 -0.033679 0 -0.392821 -0.919615 255 255 255 255 0.299186 0.160212
0.025004 0.02308 -0.038816 0 -0.392821 -0.919615 255 255 255 255 0.299186 0.160212
0.045221 0.011054 -0.033679 0 -0.392821 -0.919615 255 255 255 255 0.299186 0.160212
-0.059899 0.06027 -0.044695 -0.099063 -0.245394 -0.964349 255 255 255 255 0.299186 0.160212
-0.025004 0.02308 -0.038816 -0.099063 -0.245394 -0.964349 255 255 255 255 0.299186 0.160212
-0.045221 0.011054 -0.033679 -0.099063 -0.245394 -0.964349 255 255 255 255 0.299186 0.160212
0.059899 0.06027 -0.044695 0.043639 -0.195813 -0.97967 255 255 255 255 0.299186 0.160212
0.025004 0.02308 -0.038816 0.043639 -0.195813 -0.97967 255 255 255 255 0.299186 0.160212
0.03312 0.059175 -0.045669 0.043639 -0.195813 -0.97967 255 255 255 255 0.299186 0.160212
-0.049882 0.097608 0.037285 0 0.442251 0.896891 255 255 255 255 0.299186 0.160212
0.027581 0.088703 0.041676 0 0.442251 0.896891 255 255 255 255 0.299186 0.160212
0.049882 0.097608 0.037285 0 0.442251 0.896891 255 255 255 255 0.299186 0.160212
-0.059899 0.06027 0.044696 -0.10307 0.220181 0.969999 255 255 255 255 0.299186 0.160212
-0.027581 0.088703 0.041676 -0.10307 0.220181 0.969999 255 255 255 255 0.299186 0.160212
-0.049882 0.097608 0.037285 -0.10307 0.220181 0.969999 255 255 255 255 0.299186 0.160212
0.059899 0.06027 0.044696 0.0312 0.140571 0.989579 255 255 255 255 0.299186 0.160212
0.027581 0.088703 0.041676 0.0312 0.140571 0.989579 255 255 255 255 0.299186 0.160212
0.03312 0.059174 0.045696 0.0312 0.140571 0.989579 255 255 255 255 0.299186 0.160212
-0.059899 0.06027 0.044696 -0.044537 -0.194043 0.979982 255 255 255 255 0.299186 0.160212
-0.025004 0.02308 0.038918 -0.044537 -0.194043 0.979982 255 255 255 255 0.299186 0.160212
-0.03312 0.059174 0.045696 -0.044537 -0.194043 0.979982 255 255 255 255 0.299186 0.160212
0.045221 0.011054 0.033807 0 -0.391137 0.920332 255 255 255 255 0.299186 0.160212
-0.025004 0.02308 0.038918 0 -0.391137 0.920332 255 255 255 255 0.299186 0.160212
-0.045221 0.011054 0.033807 0 -0.391137 0.920332 255 255 255 255 0.299186 0.160212
0.059899 0.06027 0.044696 0.099324 -0.243105 0.964901 255 255 255 255 0.299186 0.160212
0.025004 0.02308 0.038918 0.099324 -0.243105 0.964901 255 255 255 255 0.299186 0.160212
0.045221 0.011054 0.033807 0.099324 -0.243105 0.964901 255 255 255 255 0.299186 0.160212
-0.019289 0.193161 -0.02852 -0.870998 3.6e-05 -0.491287 255 255 255 255 0.133074 0.359019
-0.032154 0.203857 -0.005711 -0.870998 3.6e-05 -0.491287 255 255 255 255 0.133074 0.359019
-0.022542 0.203857 -0.022752 -0.870998 3.6e-05 -0.491287 255 255 255 255 0.133074 0.359019
-0.035407 0.222355 5.8e-05 -0.871063 -0 -0.491171 255 255 255 255 0.133074 0.359019
-0.032154 0.203857 -0.005711 -0.871063 -0 -0.491171 255 255 255 255 0.133074 0.359019
-0.035407 0.193161 5.8e-05 -0.871063 -0 -0.491171 255 255 255 255 0.133074 0.359019
-0.019289 0.222355 -0.02852 -0.871017 5.9e-05 -0.491254 255 255 255 255 0.133074 0.359019
-0.032154 0.211659 -0.005711 -0.871017 5.9e-05 -0.491254 255 255 255 255 0.133074 0.359019
-0.035407 0.222355 5.8e-05 -0.871017 5.9e-05 -0.491254 255 255 255 255 0.133074 0.359019
-0.019289 0.222355 -0.02852 -0.871026 -0 -0.491236 255 255 255 255 0.133074 0.359019
-0.022542 0.203857 -0.022752 -0.871026 -0 -0.491236 255 255 255 255 0.133074 0.359019
-0.022542 0.211659 -0.022752 -0.871026 -0 -0.491236 255 255 255 255 0.133074 0.359019
-0.032154 0.203857 -0.005711 -0.040489 -0.998919 -0.022838 255 255 255 255 0.133074 0.359019
-0.035291 0.204496 -0.028099 -0.040489 -0.998919 -0.022838 255 255 255 255 0.133074 0.359019
-0.022542 0.203857 -0.022752 -0.040489 -0.998919 -0.022838 255 255 255 255 0.133074 0.359019
-0.032154 0.203857 -0.005711 -0.589066 0 0.808085 255 255 255 255 0.133074 0.359019
-0.043326 0.211019 -0.013855 -0.589066 0 0.808085 255 255 255 255 0.133074 0.359019
-0.043326 0.204496 -0.013855 -0.589066 0 0.808085 255 255 255 255 0.133074 0.359019
-0.032154 0.211659 -0.005711 -0.04055 0.998916 -0.022874 255 255 255 255 0.133074 0.359019
-0.035291 0.211019 -0.028099 -0.04055 0.998916 -0.022874 255 255 255 255 0.133074 0.359019
-0.043326 0.211019 -0.013855 -0.04055 0.998916 -0.022874 255 255 255 255 0.133074 0.359019
-0.022542 0.203857 -0.022752 0.386766 -0 -0.922178 255 255 255 255 0.133074 0.359019
-0.035291 0.211019 -0.028099 0.386766 -0 -0.922178 255 255 255 255 0.133074 0.359019
-0.022542 0.211659 -0.022752 0.386766 -0 -0.922178 255 255 255 255 0.133074 0.359019
-0.035291 0.204496 -0.028099 0.802362 -0.389089 0.452575 255 255 255 255 0.133074 0.359019
-0.046751 0.201475 -0.010379 0.802362 -0.389089 0.452575 255 255 255 255 0.133074 0.359019
-0.034088 0.201475 -0.032829 0.802362 -0.389089 0.452575 255 255 255 255 0.133074 0.359019
-0.043326 0.211019 -0.013855 0.712313 0 0.701862 255 255 255 255 0.133074 0.359019
-0.046751 0.201475 -0.010379 0.712313 0 0.701862 255 255 255 255 0.133074 0.359019
-0.043326 0.204496 -0.013855 0.712313 0 0.701862 255 255 255 255 0.133074 0.359019
-0.035291 0.211019 -0.028099 0.802414 0.388908 0.45264 255 255 255 255 0.133074 0.359019
-0.046751 0.21404 -0.010379 0.802414 0.388908 0.45264 255 255 255 255 0.133074 0.359019
-0.043326 0.211019 -0.013855 0.802414 0.388908 0.45264 255 255 255 255 0.133074 0.359019
-0.035291 0.204496 -0.028099 0.969146 0 0.246487 255 255 255 255 0.133074 0.359019
-0.034088 0.21404 -0.032829 0.969146 0 0.246487 255 255 255 255 0.133074 0.359019
-0.035291 0.211019 -0.028099 0.969146 0 0.246487 255 255 255 255 0.133074 0.359019
-0.046751 0.21404 -0.010379 -0.491244 0 0.871022 255 255 255 255 0.133074 0.359019
-0.069225 0.201475 -0.023054 -0.491244 0 0.871022 255 255 255 255 0.133074 0.359019
-0.046751 0.201475 -0.010379 -0.491244 0 0.871022 255 255 255 255 0.133074 0.359019
-0.034088 0.201475 -0.032829 0.491256 0 -0.871015 255 255 255 255 0.133074 0.359019
-0.056563 0.21404 -0.045505 0.491256 0 -0.871015 255 255 255 255 0.133074 0.359019
-0.034088 0.21404 -0.032829 0.491256 0 -0.871015 255 255 255 255 0.133074 0.359019
-0.034088 0.201475 -0.032829 0 -1 0 255 255 255 255 0.133074 0.359019
-0.048937 0.201475 -0.018206 0 -1 0 255 255 255 255 0.133074 0.359019
-0.041919 0.201475 -0.030651 0 -1 0 255 255 255 255 0.133074 0.359019
-0.046751 0.201475 -0.010379 -0 -1 0 255 255 255 255 0.133074 0.359019
-0.061395 0.201475 -0.025232 -0 -1 0 255 255 255 255 0.133074 0.359019
-0.069225 0.201475 -0.023054 -0 -1 -0 255 255 255 255 0.133074 0.359019
-0.054376 0.201475 -0.037677 -0 -1 -0 255 255 255 255 0.133074 0.359019
-0.056563 0.201475 -0.045505 0 -1 -0 255 255 255 255 0.133074 0.359019
-0.034088 0.21404 -0.032829 0 1 0 255 255 255 255 0.133074 0.359019
-0.048937 0.21404 -0.018206 0 1 0 255 255 255 255 0.133074 0.359019
-0.046751 0.21404 -0.010379 0 1 0 255 255 255 255 0.133074 0.359019
-0.056563 0.21404 -0.045505 0 1 0 255 255 255 255 0.133074 0.359019
-0.041919 0.21404 -0.030651 0 1 0 255 255 255 255 0.133074 0.359019
-0.069225 0.21404 -0.023054 0 1 -0 255 255 255 255 0.133074 0.359019
-0.054376 0.21404 -0.037677 0 1 -0 255 255 255 255 0.133074 0.359019
-0.061395 0.21404 -0.025232 -0 1 0 255 255 255 255 0.133074 0.359019
-0.054376 0.201475 -0.037677 0.871016 0 0.491255 255 255 255 255 0.133074 0.359019
-0.061395 0.21404 -0.025232 0.871016 0 0.491255 255 255 255 255 0.133074 0.359019
-0.061395 0.201475 -0.025232 0.871016 0 0.491255 255 255 255 255 0.133074 0.359019
-0.041919 0.201475 -0.030651 -0.491267 0 0.871009 255 255 255 255 0.133074 0.359019
-0.054376 0.21404 -0.037677 -0.491267 0 0.871009 255 255 255 255 0.133074 0.359019
-0.054376 0.201475 -0.037677 -0.491267 0 0.871009 255 255 255 255 0.133074 0.359019
-0.048937 0.21404 -0.018206 -0.871046 -0 -0.491201 255 255 255 255 0.133074 0.359019
-0.041919 0.201475 -0.030651 -0.871046 -0 -0.491201 255 255 255 255 0.133074 0.359019
-0.048937 0.201475 -0.018206 -0.871046 -0 -0.491201 255 255 255 255 0.133074 0.359019
-0.061395 0.21404 -0.025232 0.491237 -0 -0.871026 255 255 255 255 0.133074 0.359019
-0.048937 0.201475 -0.018206 0.491237 -0 -0.871026 255 255 255 255 0.133074 0.359019
-0.061395 0.201475 -0.025232 0.491237 -0 -0.871026 255 255 255 255 0.133074 0.359019
-0.027581 0.088702 -0.041573 0 0.137405 -0.990515 255 255 255 255 0.299097 0.11512
-0.005789 0.2479 0.016945 0 1 0 255 255 255 255 0.133074 0.359019
-0.03312 0.059174 0.045696 0 0.134893 0.99086 255 255 255 255 0.299097 0.11512
-0.069806 0.098532 6.4e-05 -0.830406 0.318358 0.457247 255 255 255 255 0.299186 0.160212
-0.08451 0.06027 -0 -0.830406 0.318358 0.457247 255 255 255 255 0.299186 0.160212
-0.059899 0.06027 0.044696 -0.830406 0.318358 0.457247 255 255 255 255 0.299186 0.160212
0.059899 0.06027 0.044696 0.830406 0.318358 0.457247 255 255 255 255 0.299186 0.160212
0.08451 0.06027 -0 0.830406 0.318358 0.457247 255 255 255 255 0.299186 0.160212
0.069806 0.098532 6.4e-05 0.830406 0.318358 0.457247 255 255 255 255 0.299186 0.160212
0.069806 0.098532 6.4e-05 0.829997 0.31973 -0.457032 255 255 255 255 0.299186 0.160212
0.08451 0.06027 -0 0.829997 0.31973 -0.457032 255 255 255 255 0.299186 0.160212
0.059899 0.06027 -0.044695 0.829997 0.31973 -0.457032 255 255 255 255 0.299186 0.160212
-0.059899 0.06027 -0.044695 -0.829997 0.31973 -0.457032 255 255 255 255 0.299186 0.160212
-0.08451 0.06027 -0 -0.829997 0.31973 -0.457032 255 255 255 255 0.299186 0.160212
-0.069806 0.098532 6.4e-05 -0.829997 0.31973 -0.457032 255 255 255 255 0.299186 0.160212
0.063802 0.011054 6.4e-05 0.822098 -0.345315 0.452673 255 255 255 255 0.299186 0.160212
0.08451 0.06027 -0 0.822098 -0.345315 0.452673 255 255 255 255 0.299186 0.160212
0.059899 0.06027 0.044696 0.822098 -0.345315 0.452673 255 255 255 255 0.299186 0.160212
0.059899 0.06027 -0.044695 0.82176 -0.34635 -0.452496 255 255 255 255 0.299186 0.160212
0.08451 0.06027 -0 0.82176 -0.34635 -0.452496 255 255 255 255 0.299186 0.160212
0.063802 0.011054 6.4e-05 0.82176 -0.34635 -0.452496 255 255 255 255 0.299186 0.160212
-0.03312 0.059175 -0.045669 -0 -0.186528 -0.98245 255 255 255 255 0.299097 0.11512
-0.063802 0.011054 6.4e-05 -0.82176 -0.34635 -0.452496 255 255 255 255 0.299186 0.160212
-0.08451 0.06027 -0 -0.82176 -0.34635 -0.452496 255 255 255 255 0.299186 0.160212
-0.059899 0.06027 -0.044695 -0.82176 -0.34635 -0.452496 255 255 255 255 0.299186 0.160212
-0.059899 0.06027 0.044696 -0.822098 -0.345315 0.452673 255 255 255 255 0.299186 0.160212
-0.08451 0.06027 -0 -0.822098 -0.345315 0.452673 255 255 255 255 0.299186 0.160212
-0.063802 0.011054 6.4e-05 -0.822098 -0.345315 0.452673 255 255 255 255 0.299186 0.160212
-0.025004 0.02308 0.038918 0 -0.184561 0.982821 255 255 255 255 0.299097 0.11512
-0.049882 0.097608 0.037285 -0.729416 0.552807 0.402935 255 255 255 255 0.299186 0.160212
-0.038432 0.118948 0.028735 -0.729416 0.552807 0.402935 255 255 255 255 0.299186 0.160212
-0.054018 0.119285 5.8e-05 -0.729416 0.552807 0.402935 255 255 255 255 0.299186 0.160212
-0.049882 0.097608 0.037285 0 0.371916 0.928266 255 255 255 255 0.299186 0.160212
0.049882 0.097608 0.037285 0 0.371916 0.928266 255 255 255 255 0.299186 0.160212
0.038432 0.118948 0.028735 0 0.371916 0.928266 255 255 255 255 0.299186 0.160212
0.049882 0.097608 0.037285 0.728143 0.554057 0.403521 255 255 255 255 0.299186 0.160212
0.069806 0.098532 6.4e-05 0.728143 0.554057 0.403521 255 255 255 255 0.299186 0.160212
0.054018 0.119285 5.8e-05 0.728143 0.554057 0.403521 255 255 255 255 0.299186 0.160212
-0.049882 0.097608 -0.037156 0 0.371428 -0.928462 255 255 255 255 0.299186 0.160212
0.049882 0.097608 -0.037156 0.729516 0.552637 -0.402988 255 255 255 255 0.299186 0.160212
0.038432 0.118948 -0.028619 0.729516 0.552637 -0.402988 255 255 255 255 0.299186 0.160212
0.054018 0.119285 5.8e-05 0.729516 0.552637 -0.402988 255 255 255 255 0.299186 0.160212
-0.049882 0.097608 -0.037156 -0.728235 0.553894 -0.403578 255 255 255 255 0.299186 0.160212
-0.069806 0.098532 6.4e-05 -0.728235 0.553894 -0.403578 255 255 255 255 0.299186 0.160212
-0.054018 0.119285 5.8e-05 -0.728235 0.553894 -0.403578 255 255 255 255 0.299186 0.160212
-0.038432 0.118948 0.028735 -0.818415 0.356523 0.450654 255 255 255 255 0.299186 0.160212
-0.025855 0.159682 0.01935 -0.818415 0.356523 0.450654 255 255 255 255 0.299186 0.160212
-0.036478 0.159682 5.8e-05 -0.818415 0.356523 0.450654 255 255 255 255 0.299186 0.160212
0.038432 0.118948 0.028735 0 0.224515 0.97447 255 255 255 255 0.299186 0.160212
0.038432 0.118948 0.028735 0.819373 0.355764 0.449511 255 255 255 255 0.299186 0.160212
0.054018 0.119285 5.8e-05 0.819373 0.355764 0.449511 255 255 255 255 0.299186 0.160212
0.036478 0.159682 5.8e-05 0.819373 0.355764 0.449511 255 255 255 255 0.299186 0.160212
-0.038432 0.118948 -0.028619 0 0.224515 -0.974471 255 255 255 255 0.299186 0.160212
0.038432 0.118948 -0.028619 0.818415 0.356522 -0.450654 255 255 255 255 0.299186 0.160212
0.025855 0.159682 -0.019234 0.818415 0.356522 -0.450654 255 255 255 255 0.299186 0.160212
0.036478 0.159682 5.8e-05 0.818415 0.356522 -0.450654 255 255 255 255 0.299186 0.160212
-0.038432 0.118948 -0.028619 -0.819373 0.355764 -0.449511 255 255 255 255 0.299186 0.160212
-0.054018 0.119285 5.8e-05 -0.819373 0.355764 -0.449511 255 255 255 255 0.299186 0.160212
-0.036478 0.159682 5.8e-05 -0.819373 0.355764 -0.449511 255 255 255 255 0.299186 0.160212
-0.025855 0.159682 0.01935 -0.918718 0.086687 0.385283 255 255 255 255 0.299186 0.160212
-0.02206 0.189595 0.021669 -0.918718 0.086687 0.385283 255 255 255 255 0.299186 0.160212
-0.031123 0.189595 5.8e-05 -0.918718 0.086687 0.385283 255 255 255 255 0.299186 0.160212
0.025855 0.159682 0.01935 0 -0.077293 0.997008 255 255 255 255 0.299186 0.160212
0.025855 0.159682 0.01935 0.865402 0.154924 0.476527 255 255 255 255 0.299186 0.160212
0.036478 0.159682 5.8e-05 0.865402 0.154924 0.476527 255 255 255 255 0.299186 0.160212
0.031123 0.189595 5.8e-05 0.865402 0.154924 0.476527 255 255 255 255 0.299186 0.160212
-0.025855 0.159682 -0.019234 0 -0.077293 -0.997008 255 255 255 255 0.299186 0.160212
0.025855 0.159682 -0.019234 0.918718 0.086687 -0.385283 255 255 255 255 0.299186 0.160212
0.02206 0.189595 -0.021553 0.918718 0.086687 -0.385283 255 255 255 255 0.299186 0.160212
0.031123 0.189595 5.8e-05 0.918718 0.086687 -0.385283 255 255 255 255 0.299186 0.160212
-0.025855 0.159682 -0.019234 -0.865402 0.154924 -0.476527 255 255 255 255 0.299186 0.160212
-0.036478 0.159682 5.8e-05 -0.865402 0.154924 -0.476527 255 255 255 255 0.299186 0.160212
-0.031123 0.189595 5.8e-05 -0.865402 0.154924 -0.476527 255 255 255 255 0.299186 0.160212
-0.02206 0.189595 0.021669 -0.838114 -0.272256 0.472696 255 255 255 255 0.133074 0.359019
-0.019289 0.193161 0.028636 -0.838114 -0.272256 0.472696 255 255 255 255 0.133074 0.359019
-0.035407 0.193161 5.8e-05 -0.838114 -0.272256 0.472696 255 255 255 255 0.133074 0.359019
0.02206 0.189595 0.021669 0 -0.890171 0.455626 255 255 255 255 0.133074 0.359019
0.02206 0.189595 0.021669 0.617908 -0.742321 0.259132 255 255 255 255 0.133074 0.359019
0.031123 0.189595 5.8e-05 0.617908 -0.742321 0.259132 255 255 255 255 0.133074 0.359019
0.035407 0.193161 5.8e-05 0.617908 -0.742321 0.259132 255 255 255 255 0.133074 0.359019
0.02206 0.189595 -0.021553 0 -0.890171 -0.455626 255 255 255 255 0.133074 0.359019
0.02206 0.189595 -0.021553 0.838114 -0.272256 -0.472696 255 255 255 255 0.133074 0.359019
0.019289 0.193161 -0.02852 0.838114 -0.272256 -0.472696 255 255 255 255 0.133074 0.359019
0.035407 0.193161 5.8e-05 0.838114 -0.272256 -0.472696 255 255 255 255 0.133074 0.359019
-0.02206 0.189595 -0.021553 -0.617907 -0.742321 -0.259132 255 255 255 255 0.133074 0.359019
-0.031123 0.189595 5.8e-05 -0.617907 -0.742321 -0.259132 255 255 255 255 0.133074 0.359019
-0.035407 0.193161 5.8e-05 -0.617907 -0.742321 -0.259132 255 255 255 255 0.133074 0.359019
-0.019289 0.222355 0.028636 -0.871017 0 0.491254 255 255 255 255 0.133074 0.359019
0.019289 0.193161 0.028636 0 0 1 255 255 255 255 0.133074 0.359019
0.035407 0.222355 5.8e-05 0.871017 0 0.491254 255 255 255 255 0.133074 0.359019
-0.019289 0.193161 -0.02852 0 -0 -1 255 255 255 255 0.133074 0.359019
0.019289 0.222355 -0.02852 0.871017 -0 -0.491254 255 255 255 255 0.133074 0.359019
-0.069225 0.21404 -0.023054 -0.871023 -0 -0.491243 255 255 255 255 0.133074 0.359019
-0.00772 0.222355 0.01944 -0.855491 0.114003 0.505113 255 255 255 255 0.133074 0.359019
-0.005789 0.2479 0.016945 -0.855491 0.114003 0.505113 255 255 255 255 0.133074 0.359019
-0.01079 0.2479 0.008475 -0.855491 0.114003 0.505113 255 255 255 255 0.133074 0.359019
-0.005789 0.2479 0.016945 0 0.097208 0.995264 255 255 255 255 0.133074 0.359019
-0.00772 0.222355 0.01944 0 0.097208 0.995264 255 255 255 255 0.133074 0.359019
0.00772 0.222355 0.01944 0 0.097208 0.995264 255 255 255 255 0.133074 0.359019
0.014171 0.222355 0.008003 0.868954 0.123863 0.479142 255 255 255 255 0.133074 0.359019
0.01079 0.2479 0.007531 0.868954 0.123863 0.479142 255 255 255 255 0.133074 0.359019
0.005968 0.2479 0.016276 0.868954 0.123863 0.479142 255 255 255 255 0.133074 0.359019
0.005789 0.2479 -0.000939 0 0.097208 -0.995264 255 255 255 255 0.133074 0.359019
0.00772 0.222355 -0.003434 0 0.097208 -0.995264 255 255 255 255 0.133074 0.359019
-0.00772 0.222355 -0.003434 0 0.097208 -0.995264 255 255 255 255 0.133074 0.359019
0.00772 0.222355 -0.003434 0.855491 0.114003 -0.505113 255 255 255 255 0.133074 0.359019
0.005789 0.2479 -0.000939 0.855491 0.114003 -0.505113 255 255 255 255 0.133074 0.359019
0.01079 0.2479 0.007531 0.855491 0.114003 -0.505113 255 255 255 255 0.133074 0.359019
-0.014171 0.222355 0.008003 -0.868954 0.123863 -0.479142 255 255 255 255 0.133074 0.359019
-0.01079 0.2479 0.008475 -0.868954 0.123863 -0.479142 255 255 255 255 0.133074 0.359019
-0.005968 0.2479 -0.00027 -0.868954 0.123863 -0.479142 255 255 255 255 0.133074 0.359019
-0.059899 0.06027 -0.044695 -0.10281 0.223298 -0.969313 255 255 255 255 0.299186 0.160212
-0.049882 0.097608 -0.037156 -0.10281 0.223298 -0.969313 255 255 255 255 0.299186 0.160212
-0.027581 0.088702 -0.041573 -0.10281 0.223298 -0.969313 255 255 255 255 0.299186 0.160212
0.027581 0.088702 -0.041573 0 0.444314 -0.895871 255 255 255 255 0.299186 0.160212
0.059899 0.06027 -0.044695 0.030139 0.142887 -0.98928 255 255 255 255 0.299186 0.160212
0.03312 0.059175 -0.045669 0.030139 0.142887 -0.98928 255 255 255 255 0.299186 0.160212
0.027581 0.088702 -0.041573 0.030139 0.142887 -0.98928 255 255 255 255 0.299186 0.160212
-0.025004 0.02308 -0.038816 -0 -0.392821 -0.919615 255 255 255 255 0.299186 0.160212
-0.059899 0.06027 -0.044695 -0.043639 -0.195813 -0.97967 255 255 255 255 0.299186 0.160212
-0.03312 0.059175 -0.045669 -0.043639 -0.195813 -0.97967 255 255 255 255 0.299186 0.160212
-0.025004 0.02308 -0.038816 -0.043639 -0.195813 -0.97967 255 255 255 255 0.299186 0.160212
0.059899 0.06027 -0.044695 0.099063 -0.245394 -0.964349 255 255 255 255 0.299186 0.160212
0.045221 0.011054 -0.033679 0.099063 -0.245394 -0.964349 255 255 255 255 0.299186 0.160212
0.025004 0.02308 -0.038816 0.099063 -0.245394 -0.964349 255 255 255 255 0.299186 0.160212
-0.027581 0.088703 0.041676 0 0.442251 0.896891 255 255 255 255 0.299186 0.160212
-0.059899 0.06027 0.044696 -0.0312 0.140571 0.989579 255 255 255 255 0.299186 0.160212
-0.03312 0.059174 0.045696 -0.0312 0.140571 0.989579 255 255 255 255 0.299186 0.160212
-0.027581 0.088703 0.041676 -0.0312 0.140571 0.989579 255 255 255 255 0.299186 0.160212
0.059899 0.06027 0.044696 0.10307 0.220181 0.969998 255 255 255 255 0.299186 0.160212
0.049882 0.097608 0.037285 0.10307 0.220181 0.969998 255 255 255 255 0.299186 0.160212
0.027581 0.088703 0.041676 0.10307 0.220181 0.969998 255 255 255 255 0.299186 0.160212
-0.059899 0.06027 0.044696 -0.099324 -0.243105 0.964901 255 255 255 255 0.299186 0.160212
-0.045221 0.011054 0.033807 -0.099324 -0.243105 0.964901 255 255 255 255 0.299186 0.160212
-0.025004 0.02308 0.038918 -0.099324 -0.243105 0.964901 255 255 255 255 0.299186 0.160212
0.025004 0.02308 0.038918 0 -0.391137 0.920332 255 255 255 255 0.299186 0.160212
0.059899 0.06027 0.044696 0.044537 -0.194043 0.979982 255 255 255 255 0.299186 0.160212
0.03312 0.059174 0.045696 0.044537 -0.194043 0.979982 255 255 255 255 0.299186 0.160212
0.025004 0.02308 0.038918 0.044537 -0.194043 0.979982 255 255 255 255 0.299186 0.160212
-0.019289 0.193161 -0.02852 -0.871017 -5.9e-05 -0.491254 255 255 255 255 0.133074 0.359019
-0.035407 0.193161 5.8e-05 -0.871017 -5.9e-05 -0.491254 255 255 255 255 0.133074 0.359019
-0.032154 0.203857 -0.005711 -0.871017 -5.9e-05 -0.491254 255 255 255 255 0.133074 0.359019
-0.032154 0.211659 -0.005711 -0.871063 -0 -0.491171 255 255 255 255 0.133074 0.359019
-0.019289 0.222355 -0.02852 -0.870997 -3.7e-05 -0.491287 255 255 255 255 0.133074 0.359019
-0.022542 0.211659 -0.022752 -0.870997 -3.7e-05 -0.491287 255 255 255 255 0.133074 0.359019
-0.032154 0.211659 -0.005711 -0.870997 -3.7e-05 -0.491287 255 255 255 255 0.133074 0.359019
-0.019289 0.222355 -0.02852 -0.871027 -0 -0.491236 255 255 255 255 0.133074 0.359019
-0.019289 0.193161 -0.02852 -0.871027 -0 -0.491236 255 255 255 255 0.133074 0.359019
-0.022542 0.203857 -0.022752 -0.871027 -0 -0.491236 255 255 255 255 0.133074 0.359019
-0.032154 0.203857 -0.005711 -0.040486 -0.998919 -0.022838 255 255 255 255 0.133074 0.359019
-0.043326 0.204496 -0.013855 -0.040486 -0.998919 -0.022838 255 255 255 255 0.133074 0.359019
-0.035291 0.204496 -0.028099 -0.040486 -0.998919 -0.022838 255 255 255 255 0.133074 0.359019
-0.032154 0.211659 -0.005711 -0.589066 0 0.808085 255 255 255 255 0.133074 0.359019
-0.032154 0.211659 -0.005711 -0.040553 0.998916 -0.022874 255 255 255 255 0.133074 0.359019
-0.022542 0.211659 -0.022752 -0.040553 0.998916 -0.022874 255 255 255 255 0.133074 0.359019
-0.035291 0.211019 -0.028099 -0.040553 0.998916 -0.022874 255 255 255 255 0.133074 0.359019
-0.035291 0.204496 -0.028099 0.386766 0 -0.922178 255 255 255 255 0.133074 0.359019
-0.035291 0.204496 -0.028099 0.802414 -0.388908 0.452639 255 255 255 255 0.133074 0.359019
-0.043326 0.204496 -0.013855 0.802414 -0.388908 0.452639 255 255 255 255 0.133074 0.359019
-0.046751 0.201475 -0.010379 0.802414 -0.388908 0.452639 255 255 255 255 0.133074 0.359019
-0.046751 0.21404 -0.010379 0.712313 0 0.701862 255 255 255 255 0.133074 0.359019
-0.035291 0.211019 -0.028099 0.802362 0.389089 0.452575 255 255 255 255 0.133074 0.359019
-0.034088 0.21404 -0.032829 0.802362 0.389089 0.452575 255 255 255 255 0.133074 0.359019
-0.046751 0.21404 -0.010379 0.802362 0.389089 0.452575 255 255 255 255 0.133074 0.359019
-0.034088 0.201475 -0.032829 0.969146 0 0.246487 255 255 255 255 0.133074 0.359019
-0.069225 0.21404 -0.023054 -0.491244 0 0.871022 255 255 255 255 0.133074 0.359019
-0.056563 0.201475 -0.045505 0.491256 0 -0.871015 255 255 255 255 0.133074 0.359019
-0.054376 0.21404 -0.037677 0.871016 0 0.491255 255 255 255 255 0.133074 0.359019
-0.041919 0.21404 -0.030651 -0.491267 0 0.871009 255 255 255 255 0.133074 0.359019
-0.041919 0.21404 -0.030651 -0.871046 -0 -0.491201 255 255 255 255 0.133074 0.359019
-0.048937 0.21404 -0.018206 0.491237 -0 -0.871026 255 255 255 255 0.133074 0.359019
3 0 1 2 
3 3 4 5 
3 6 7 8 
3 9 10 11 
3 12 13 14 
3 15 16 17 
3 18 19 20 
3 21 22 23 
3 24 25 26 
3 27 5 28 
3 29 30 31 
3 32 33 34 
3 35 36 37 
3 38 39 40 
3 41 42 43 
3 44 45 46 
3 47 48 49 
3 50 51 52 
3 53 54 55 
3 56 57 58 
3 59 60 61 
3 62 63 64 
3 65 66 67 
3 68 69 70 
3 71 72 73 
3 74 75 76 
3 77 78 79 
3 80 81 82 
3 83 84 85 
3 86 87 88 
3 89 90 91 
3 92 93 94 
3 95 96 97 
3 98 99 100 
3 101 102 103 
3 104 105 106 
3 107 108 109 
3 110 111 112 
3 113 114 115 
3 116 117 118 
3 119 120 121 
3 122 123 124 
3 125 126 127 
3 128 129 130 
3 131 132 133 
3 134 135 136 
3 137 138 139 
3 140 141 142 
3 140 143 144 
3 145 146 143 
3 147 148 149 
3 150 149 146 
3 142 148 151 
3 152 153 154 
3 155 156 157 
3 158 159 160 
3 161 162 163 
3 164 165 166 
3 167 168 169 
3 170 171 172 
3 173 174 175 
3 176 177 178 
3 179 180 181 
3 182 183 184 
3 185 186 187 
3 188 189 190 
3 191 192 193 
3 194 195 196 
3 197 198 199 
3 200 201 202 
3 203 204 205 
3 206 207 208 
3 209 210 211 
3 212 213 214 
3 215 216 217 
3 218 219 220 
3 221 222 223 
3 224 225 226 
3 227 228 229 
3 230 231 232 
3 233 234 235 
3 236 237 238 
3 239 240 241 
3 242 243 244 
3 245 246 247 
3 248 249 250 
3 251 252 253 
3 254 255 256 
3 257 258 259 
3 260 261 258 
3 262 263 261 
3 264 259 263 
3 265 266 267 
3 268 269 265 
3 270 271 268 
3 267 272 270 
3 273 274 275 
3 276 277 278 
3 279 280 281 
3 282 283 284 
3 0 285 1 
3 3 286 4 
3 6 287 7 
3 288 289 290 
3 291 292 293 
3 294 295 296 
3 27 3 5 
3 297 298 299 
3 300 301 302 
3 303 304 305 
3 38 306 39 
3 307 308 309 
3 310 311 312 
3 47 313 48 
3 314 315 316 
3 317 318 319 
3 320 321 322 
3 59 323 60 
3 324 325 326 
3 327 328 329 
3 330 331 332 
3 71 333 72 
3 334 335 336 
3 77 337 78 
3 338 339 340 
3 341 342 343 
3 344 345 346 
3 89 347 90 
3 348 349 350 
3 95 351 96 
3 352 353 354 
3 355 356 357 
3 358 359 360 
3 107 361 108 
3 362 363 364 
3 113 365 114 
3 366 367 368 
3 369 370 371 
3 122 372 123 
3 125 373 126 
3 128 374 129 
3 131 375 132 
3 134 376 135 
3 137 377 138 
3 140 144 141 
3 140 145 143 
3 145 150 146 
3 147 151 148 
3 150 147 149 
3 142 141 148 
3 378 379 380 
3 381 382 383 
3 384 385 386 
3 387 388 389 
3 390 391 392 
3 393 394 395 
3 396 397 398 
3 182 399 183 
3 400 401 402 
3 188 403 189 
3 404 405 406 
3 407 408 409 
3 197 410 198 
3 411 412 413 
3 414 415 416 
3 417 418 419 
3 209 420 210 
3 421 422 423 
3 424 425 426 
3 218 427 219 
3 428 429 430 
3 431 432 433 
3 434 435 436 
3 230 437 231 
3 438 439 440 
3 236 441 237 
3 442 443 444 
3 242 445 243 
3 446 447 448 
3 248 449 249 
3 251 450 252 
3 254 451 255 
3 257 260 258 
3 260 262 261 
3 262 264 263 
3 264 257 259 
3 265 269 266 
3 268 271 269 
3 270 272 271 
3 267 266 272 
3 273 452 274 
3 276 453 277 
3 279 454 280 
3 282 455 283 
