ply
format ascii 1.0
comment VCGLIB generated
comment TextureFile Texture_01_A.png
element vertex 433
property float x
property float y
property float z
property float nx
property float ny
property float nz
property uchar red
property uchar green
property uchar blue
property uchar alpha
property float texture_u
property float texture_v
element face 160
property list uchar int vertex_indices
end_header
0 0.013753 0.064312 -0.382695 0 0.923875 255 255 255 255 0.319554 0.161898
-0.045475 0.176905 0.045475 -0.382695 0 0.923875 255 255 255 255 0.319554 0.161898
-0.045475 0.013753 0.045475 -0.382695 0 0.923875 255 255 255 255 0.319554 0.161898
0.045476 0.013753 0.045475 0.382687 0 0.923878 255 255 255 255 0.319554 0.161898
0 0.176905 0.064312 0.382687 0 0.923878 255 255 255 255 0.319554 0.161898
0 0.013753 0.064312 0.382687 0 0.923878 255 255 255 255 0.319554 0.161898
0.064312 0.013753 -0 0.923882 0 0.382677 255 255 255 255 0.319554 0.161898
0.045476 0.176905 0.045475 0.923882 0 0.382677 255 255 255 255 0.319554 0.161898
0.045476 0.013753 0.045475 0.923882 0 0.382677 255 255 255 255 0.319554 0.161898
0.045476 0.013753 -0.045476 0.923885 -0 -0.38267 255 255 255 255 0.319554 0.161898
0.064312 0.176905 -0 0.923885 -0 -0.38267 255 255 255 255 0.319554 0.161898
0.064312 0.013753 -0 0.923885 -0 -0.38267 255 255 255 255 0.319554 0.161898
0 0.013753 -0.064312 0.38267 -0 -0.923885 255 255 255 255 0.319554 0.161898
0.045476 0.176905 -0.045476 0.38267 -0 -0.923885 255 255 255 255 0.319554 0.161898
0.045476 0.013753 -0.045476 0.38267 -0 -0.923885 255 255 255 255 0.319554 0.161898
-0.045475 0.013753 -0.045476 -0.382677 -0 -0.923882 255 255 255 255 0.319554 0.161898
0 0.176905 -0.064312 -0.382677 -0 -0.923882 255 255 255 255 0.319554 0.161898
0 0.013753 -0.064312 -0.382677 -0 -0.923882 255 255 255 255 0.319554 0.161898
-0.064312 0.013753 -0 -0.923878 -0 -0.382687 255 255 255 255 0.319554 0.161898
-0.045475 0.176905 -0.045476 -0.923878 -0 -0.382687 255 255 255 255 0.319554 0.161898
-0.045475 0.013753 -0.045476 -0.923878 -0 -0.382687 255 255 255 255 0.319554 0.161898
-0.045475 0.013753 0.045475 -0.923875 0 0.382695 255 255 255 255 0.319554 0.161898
-0.064312 0.176905 -0 -0.923875 0 0.382695 255 255 255 255 0.319554 0.161898
-0.064312 0.013753 -0 -0.923875 0 0.382695 255 255 255 255 0.319554 0.161898
0 0 0.055254 -0 -1 0 255 255 255 255 0.319554 0.161898
-0.039071 0 0.039071 -0 -1 0 255 255 255 255 0.319554 0.161898
0 0 0 -0 -1 0 255 255 255 255 0.319554 0.161898
0.039071 0 0.039071 0 -1 0 255 255 255 255 0.319554 0.161898
0.055254 0 0 0 -1 0 255 255 255 255 0.319554 0.161898
0.039071 -0 -0.039071 0 -1 0 255 255 255 255 0.319554 0.161898
0 -0 -0.055254 -0 -1 0 255 255 255 255 0.319554 0.161898
-0.039071 -0 -0.039071 0 -1 0 255 255 255 255 0.319554 0.161898
-0.055254 0 0 0 -1 0 255 255 255 255 0.319554 0.161898
-0.01647 0.327885 0.021457 -0.127646 0.98455 -0.119867 255 255 255 255 0.3412 0.240063
0.003333 0.331078 0.026595 -0.127646 0.98455 -0.119867 255 255 255 255 0.3412 0.240063
0 0.327408 -0 -0.127646 0.98455 -0.119867 255 255 255 255 0.3412 0.240063
0.003333 0.331078 0.026595 -0.127541 0.984562 -0.119882 255 255 255 255 0.3412 0.240063
0.021183 0.332119 0.016154 -0.127541 0.984562 -0.119882 255 255 255 255 0.3412 0.240063
0 0.327408 -0 -0.127541 0.984562 -0.119882 255 255 255 255 0.3412 0.240063
0.021183 0.332119 0.016154 -0.127501 0.98456 -0.119934 255 255 255 255 0.3412 0.240063
0.026624 0.330399 -0.00375 -0.127501 0.98456 -0.119934 255 255 255 255 0.3412 0.240063
0 0.327408 -0 -0.127501 0.98456 -0.119934 255 255 255 255 0.3412 0.240063
0.026624 0.330399 -0.00375 -0.127502 0.98456 -0.119938 255 255 255 255 0.3412 0.240063
0.01647 0.326927 -0.021457 -0.127502 0.98456 -0.119938 255 255 255 255 0.3412 0.240063
0 0.327408 -0 -0.127502 0.98456 -0.119938 255 255 255 255 0.3412 0.240063
0.01647 0.326927 -0.021457 -0.127607 0.984537 -0.120018 255 255 255 255 0.3412 0.240063
-0.003333 0.323734 -0.026595 -0.127607 0.984537 -0.120018 255 255 255 255 0.3412 0.240063
0 0.327408 -0 -0.127607 0.984537 -0.120018 255 255 255 255 0.3412 0.240063
-0.003333 0.323734 -0.026595 -0.127618 0.984535 -0.120016 255 255 255 255 0.3412 0.240063
-0.021183 0.322693 -0.016154 -0.127618 0.984535 -0.120016 255 255 255 255 0.3412 0.240063
0 0.327408 -0 -0.127618 0.984535 -0.120016 255 255 255 255 0.3412 0.240063
-0.021183 0.322693 -0.016154 -0.127651 0.984536 -0.119974 255 255 255 255 0.3412 0.240063
-0.026624 0.324413 0.00375 -0.127651 0.984536 -0.119974 255 255 255 255 0.3412 0.240063
0 0.327408 -0 -0.127651 0.984536 -0.119974 255 255 255 255 0.3412 0.240063
-0.026624 0.324413 0.00375 -0.127636 0.984552 -0.119859 255 255 255 255 0.3412 0.240063
-0.01647 0.327885 0.021457 -0.127636 0.984552 -0.119859 255 255 255 255 0.3412 0.240063
0 0.327408 -0 -0.127636 0.984552 -0.119859 255 255 255 255 0.3412 0.240063
0.055254 0 0 0.789266 -0.519798 0.32691 255 255 255 255 0.319554 0.161898
0.045476 0.013753 0.045475 0.789266 -0.519798 0.32691 255 255 255 255 0.319554 0.161898
0.039071 0 0.039071 0.789266 -0.519798 0.32691 255 255 255 255 0.319554 0.161898
0.039071 -0 -0.039071 0.789254 -0.519819 -0.326905 255 255 255 255 0.319554 0.161898
0.064312 0.013753 -0 0.789254 -0.519819 -0.326905 255 255 255 255 0.319554 0.161898
0.055254 0 0 0.789254 -0.519819 -0.326905 255 255 255 255 0.319554 0.161898
0.039071 -0 -0.039071 0.326907 -0.519815 -0.789255 255 255 255 255 0.319554 0.161898
0 0.013753 -0.064312 0.326907 -0.519815 -0.789255 255 255 255 255 0.319554 0.161898
0.045476 0.013753 -0.045476 0.326907 -0.519815 -0.789255 255 255 255 255 0.319554 0.161898
0 -0 -0.055254 -0.326913 -0.519817 -0.789252 255 255 255 255 0.319554 0.161898
-0.045475 0.013753 -0.045476 -0.326913 -0.519817 -0.789252 255 255 255 255 0.319554 0.161898
0 0.013753 -0.064312 -0.326913 -0.519817 -0.789252 255 255 255 255 0.319554 0.161898
-0.039071 -0 -0.039071 -0.789271 -0.519776 -0.326931 255 255 255 255 0.319554 0.161898
-0.064312 0.013753 -0 -0.789271 -0.519776 -0.326931 255 255 255 255 0.319554 0.161898
-0.045475 0.013753 -0.045476 -0.789271 -0.519776 -0.326931 255 255 255 255 0.319554 0.161898
-0.055254 0 0 -0.789247 -0.519814 0.326928 255 255 255 255 0.319554 0.161898
-0.045475 0.013753 0.045475 -0.789247 -0.519814 0.326928 255 255 255 255 0.319554 0.161898
-0.064312 0.013753 -0 -0.789247 -0.519814 0.326928 255 255 255 255 0.319554 0.161898
0 0 0.055254 -0.326919 -0.519755 0.78929 255 255 255 255 0.319554 0.161898
-0.045475 0.013753 0.045475 -0.326919 -0.519755 0.78929 255 255 255 255 0.319554 0.161898
-0.039071 0 0.039071 -0.326919 -0.519755 0.78929 255 255 255 255 0.319554 0.161898
0.039071 0 0.039071 0.326905 -0.519819 0.789254 255 255 255 255 0.319554 0.161898
0 0.013753 0.064312 0.326905 -0.519819 0.789254 255 255 255 255 0.319554 0.161898
0 0 0.055254 0.326905 -0.519819 0.789254 255 255 255 255 0.319554 0.161898
0 0.213428 0.05881 -0.296217 0.63312 0.715133 255 255 255 255 0.319554 0.161898
-0.021217 0.245964 0.021217 -0.296217 0.63312 0.715133 255 255 255 255 0.319554 0.161898
-0.041585 0.213428 0.041585 -0.296217 0.63312 0.715133 255 255 255 255 0.319554 0.161898
0 0.213428 0.05881 0.296205 0.633126 0.715132 255 255 255 255 0.319554 0.161898
0.021217 0.245964 0.021217 0.296205 0.633126 0.715132 255 255 255 255 0.319554 0.161898
0 0.245964 0.030005 0.296205 0.633126 0.715132 255 255 255 255 0.319554 0.161898
0.05881 0.213428 -0 0.715133 0.633119 0.296217 255 255 255 255 0.319554 0.161898
0.021217 0.245964 0.021217 0.715133 0.633119 0.296217 255 255 255 255 0.319554 0.161898
0.041585 0.213428 0.041585 0.715133 0.633119 0.296217 255 255 255 255 0.319554 0.161898
0.05881 0.213428 -0 0.715132 0.633126 -0.296205 255 255 255 255 0.319554 0.161898
0.021217 0.245964 -0.021217 0.715132 0.633126 -0.296205 255 255 255 255 0.319554 0.161898
0.030005 0.245964 -0 0.715132 0.633126 -0.296205 255 255 255 255 0.319554 0.161898
0 0.213428 -0.05881 0.296217 0.633119 -0.715133 255 255 255 255 0.319554 0.161898
0.021217 0.245964 -0.021217 0.296217 0.633119 -0.715133 255 255 255 255 0.319554 0.161898
0.041585 0.213428 -0.041585 0.296217 0.633119 -0.715133 255 255 255 255 0.319554 0.161898
0 0.213428 -0.05881 -0.296205 0.633126 -0.715132 255 255 255 255 0.319554 0.161898
-0.021217 0.245964 -0.021217 -0.296205 0.633126 -0.715132 255 255 255 255 0.319554 0.161898
0 0.245964 -0.030005 -0.296205 0.633126 -0.715132 255 255 255 255 0.319554 0.161898
-0.05881 0.213428 -0 -0.715133 0.633119 -0.296217 255 255 255 255 0.319554 0.161898
-0.021217 0.245964 -0.021217 -0.715133 0.633119 -0.296217 255 255 255 255 0.319554 0.161898
-0.041585 0.213428 -0.041585 -0.715133 0.633119 -0.296217 255 255 255 255 0.319554 0.161898
-0.05881 0.213428 -0 -0.715132 0.633126 0.296205 255 255 255 255 0.319554 0.161898
-0.021217 0.245964 0.021217 -0.715132 0.633126 0.296205 255 255 255 255 0.319554 0.161898
-0.030005 0.245964 -0 -0.715132 0.633126 0.296205 255 255 255 255 0.319554 0.161898
0 0.279387 0.026876 -0.381246 0.086171 0.920449 255 255 255 255 0.319554 0.161898
-0.021217 0.245964 0.021217 -0.381246 0.086171 0.920449 255 255 255 255 0.319554 0.161898
0 0.245964 0.030005 -0.381246 0.086171 0.920449 255 255 255 255 0.319554 0.161898
0 0.279387 0.026876 0.381254 0.086177 0.920445 255 255 255 255 0.319554 0.161898
0.021217 0.245964 0.021217 0.381254 0.086177 0.920445 255 255 255 255 0.319554 0.161898
0.019005 0.279387 0.019004 0.381254 0.086177 0.920445 255 255 255 255 0.319554 0.161898
0.019005 0.279387 0.019004 0.920455 0.086171 0.38123 255 255 255 255 0.319554 0.161898
0.030005 0.245964 -0 0.920455 0.086171 0.38123 255 255 255 255 0.319554 0.161898
0.026876 0.279387 -0 0.920455 0.086171 0.38123 255 255 255 255 0.319554 0.161898
0.026876 0.279387 -0 0.920464 0.086148 -0.381214 255 255 255 255 0.319554 0.161898
0.021217 0.245964 -0.021217 0.920464 0.086148 -0.381214 255 255 255 255 0.319554 0.161898
0.019005 0.279387 -0.019005 0.920464 0.086148 -0.381214 255 255 255 255 0.319554 0.161898
0.019005 0.279387 -0.019005 0.381256 0.086143 -0.920447 255 255 255 255 0.319554 0.161898
0 0.245964 -0.030005 0.381256 0.086143 -0.920447 255 255 255 255 0.319554 0.161898
0 0.279387 -0.026877 0.381256 0.086143 -0.920447 255 255 255 255 0.319554 0.161898
-0.019005 0.279387 -0.019005 -0.381247 0.086149 -0.920451 255 255 255 255 0.319554 0.161898
0 0.245964 -0.030005 -0.381247 0.086149 -0.920451 255 255 255 255 0.319554 0.161898
-0.021217 0.245964 -0.021217 -0.381247 0.086149 -0.920451 255 255 255 255 0.319554 0.161898
-0.026876 0.279387 -0 -0.920449 0.086171 -0.381246 255 255 255 255 0.319554 0.161898
-0.021217 0.245964 -0.021217 -0.920449 0.086171 -0.381246 255 255 255 255 0.319554 0.161898
-0.030005 0.245964 -0 -0.920449 0.086171 -0.381246 255 255 255 255 0.319554 0.161898
-0.019005 0.279387 0.019004 -0.92045 0.08616 0.381247 255 255 255 255 0.319554 0.161898
-0.030005 0.245964 -0 -0.92045 0.08616 0.381247 255 255 255 255 0.319554 0.161898
-0.021217 0.245964 0.021217 -0.92045 0.08616 0.381247 255 255 255 255 0.319554 0.161898
0 0.279387 0.026876 -0.188051 -0.87093 0.454002 255 255 255 255 0.319554 0.161898
-0.0243 0.283291 0.0243 -0.188051 -0.87093 0.454002 255 255 255 255 0.319554 0.161898
-0.019005 0.279387 0.019004 -0.188051 -0.87093 0.454002 255 255 255 255 0.319554 0.161898
0 0.279387 0.026876 0.18805 -0.870949 0.453965 255 255 255 255 0.319554 0.161898
0.0243 0.283291 0.0243 0.18805 -0.870949 0.453965 255 255 255 255 0.319554 0.161898
0 0.283291 0.034366 0.18805 -0.870949 0.453965 255 255 255 255 0.319554 0.161898
0.019005 0.279387 0.019004 0.45402 -0.870916 0.188073 255 255 255 255 0.319554 0.161898
0.034366 0.283291 -0 0.45402 -0.870916 0.188073 255 255 255 255 0.319554 0.161898
0.0243 0.283291 0.0243 0.45402 -0.870916 0.188073 255 255 255 255 0.319554 0.161898
0.019005 0.279387 -0.019005 0.453968 -0.870956 -0.188013 255 255 255 255 0.319554 0.161898
0.034366 0.283291 -0 0.453968 -0.870956 -0.188013 255 255 255 255 0.319554 0.161898
0.026876 0.279387 -0 0.453968 -0.870956 -0.188013 255 255 255 255 0.319554 0.161898
0 0.279387 -0.026877 0.18807 -0.870902 -0.454048 255 255 255 255 0.319554 0.161898
0.0243 0.283291 -0.0243 0.18807 -0.870902 -0.454048 255 255 255 255 0.319554 0.161898
0.019005 0.279387 -0.019005 0.18807 -0.870902 -0.454048 255 255 255 255 0.319554 0.161898
0 0.279387 -0.026877 -0.188069 -0.870921 -0.454011 255 255 255 255 0.319554 0.161898
-0.0243 0.283291 -0.0243 -0.188069 -0.870921 -0.454011 255 255 255 255 0.319554 0.161898
0 0.283291 -0.034366 -0.188069 -0.870921 -0.454011 255 255 255 255 0.319554 0.161898
-0.019005 0.279387 -0.019005 -0.454039 -0.870904 -0.188081 255 255 255 255 0.319554 0.161898
-0.034366 0.283291 -0 -0.454039 -0.870904 -0.188081 255 255 255 255 0.319554 0.161898
-0.0243 0.283291 -0.0243 -0.454039 -0.870904 -0.188081 255 255 255 255 0.319554 0.161898
-0.019005 0.279387 0.019004 -0.453968 -0.870954 0.188022 255 255 255 255 0.319554 0.161898
-0.034366 0.283291 -0 -0.453968 -0.870954 0.188022 255 255 255 255 0.319554 0.161898
-0.026876 0.279387 -0 -0.453968 -0.870954 0.188022 255 255 255 255 0.319554 0.161898
0 0.283291 0.034366 -0.382703 0 0.923871 255 255 255 255 0.319554 0.161898
-0.0243 0.305161 0.0243 -0.382703 0 0.923871 255 255 255 255 0.319554 0.161898
-0.0243 0.283291 0.0243 -0.382703 0 0.923871 255 255 255 255 0.319554 0.161898
0.0243 0.283291 0.0243 0.382703 0 0.923871 255 255 255 255 0.319554 0.161898
0 0.305161 0.034366 0.382703 0 0.923871 255 255 255 255 0.319554 0.161898
0 0.283291 0.034366 0.382703 0 0.923871 255 255 255 255 0.319554 0.161898
0.034366 0.283291 -0 0.923871 0 0.382703 255 255 255 255 0.319554 0.161898
0.0243 0.305161 0.0243 0.923871 0 0.382703 255 255 255 255 0.319554 0.161898
0.0243 0.283291 0.0243 0.923871 0 0.382703 255 255 255 255 0.319554 0.161898
0.0243 0.283291 -0.0243 0.923871 -0 -0.382703 255 255 255 255 0.319554 0.161898
0.034366 0.305161 -0 0.923871 -0 -0.382703 255 255 255 255 0.319554 0.161898
0.034366 0.283291 -0 0.923871 -0 -0.382703 255 255 255 255 0.319554 0.161898
0 0.283291 -0.034366 0.382703 -0 -0.923871 255 255 255 255 0.319554 0.161898
0.0243 0.305161 -0.0243 0.382703 -0 -0.923871 255 255 255 255 0.319554 0.161898
0.0243 0.283291 -0.0243 0.382703 -0 -0.923871 255 255 255 255 0.319554 0.161898
-0.0243 0.283291 -0.0243 -0.382703 -0 -0.923871 255 255 255 255 0.319554 0.161898
0 0.305161 -0.034366 -0.382703 -0 -0.923871 255 255 255 255 0.319554 0.161898
0 0.283291 -0.034366 -0.382703 -0 -0.923871 255 255 255 255 0.319554 0.161898
-0.034366 0.283291 -0 -0.923871 -0 -0.382703 255 255 255 255 0.319554 0.161898
-0.0243 0.305161 -0.0243 -0.923871 -0 -0.382703 255 255 255 255 0.319554 0.161898
-0.0243 0.283291 -0.0243 -0.923871 -0 -0.382703 255 255 255 255 0.319554 0.161898
-0.0243 0.283291 0.0243 -0.923871 0 0.382703 255 255 255 255 0.319554 0.161898
-0.034366 0.305161 -0 -0.923871 0 0.382703 255 255 255 255 0.319554 0.161898
-0.034366 0.283291 -0 -0.923871 0 0.382703 255 255 255 255 0.319554 0.161898
-0.0243 0.305161 0.0243 -0.078619 0.97867 0.189799 255 255 255 255 0.319554 0.161898
0 0.307167 0.024022 -0.078619 0.97867 0.189799 255 255 255 255 0.319554 0.161898
-0.016986 0.307167 0.016986 -0.078619 0.97867 0.189799 255 255 255 255 0.319554 0.161898
0.0243 0.305161 0.0243 0.078619 0.978672 0.189792 255 255 255 255 0.319554 0.161898
0 0.307167 0.024022 0.078619 0.978672 0.189792 255 255 255 255 0.319554 0.161898
0 0.305161 0.034366 0.078619 0.978672 0.189792 255 255 255 255 0.319554 0.161898
0.0243 0.305161 0.0243 0.189791 0.978671 0.078627 255 255 255 255 0.319554 0.161898
0.024023 0.307167 -0 0.189791 0.978671 0.078627 255 255 255 255 0.319554 0.161898
0.016986 0.307167 0.016986 0.189791 0.978671 0.078627 255 255 255 255 0.319554 0.161898
0.0243 0.305161 -0.0243 0.18981 0.978668 -0.078627 255 255 255 255 0.319554 0.161898
0.024023 0.307167 -0 0.18981 0.978668 -0.078627 255 255 255 255 0.319554 0.161898
0.034366 0.305161 -0 0.18981 0.978668 -0.078627 255 255 255 255 0.319554 0.161898
0.0243 0.305161 -0.0243 0.078627 0.978671 -0.189791 255 255 255 255 0.319554 0.161898
0 0.307167 -0.024023 0.078627 0.978671 -0.189791 255 255 255 255 0.319554 0.161898
0.016986 0.307167 -0.016986 0.078627 0.978671 -0.189791 255 255 255 255 0.319554 0.161898
-0.0243 0.305161 -0.0243 -0.078627 0.978668 -0.18981 255 255 255 255 0.319554 0.161898
0 0.307167 -0.024023 -0.078627 0.978668 -0.18981 255 255 255 255 0.319554 0.161898
0 0.305161 -0.034366 -0.078627 0.978668 -0.18981 255 255 255 255 0.319554 0.161898
-0.0243 0.305161 -0.0243 -0.189791 0.978671 -0.078627 255 255 255 255 0.319554 0.161898
-0.024023 0.307167 -0 -0.189791 0.978671 -0.078627 255 255 255 255 0.319554 0.161898
-0.016986 0.307167 -0.016986 -0.189791 0.978671 -0.078627 255 255 255 255 0.319554 0.161898
-0.0243 0.305161 0.0243 -0.18981 0.978668 0.078627 255 255 255 255 0.319554 0.161898
-0.024023 0.307167 -0 -0.18981 0.978668 0.078627 255 255 255 255 0.319554 0.161898
-0.034366 0.305161 -0 -0.18981 0.978668 0.078627 255 255 255 255 0.319554 0.161898
0 0.307167 0.024022 -0.375976 -0.186512 0.907665 255 255 255 255 0.3412 0.240063
-0.01647 0.327885 0.021457 -0.375976 -0.186512 0.907665 255 255 255 255 0.3412 0.240063
-0.016986 0.307167 0.016986 -0.375976 -0.186512 0.907665 255 255 255 255 0.3412 0.240063
0.016986 0.307167 0.016986 0.378303 -0.151008 0.913282 255 255 255 255 0.3412 0.240063
0.003333 0.331078 0.026595 0.378303 -0.151008 0.913282 255 255 255 255 0.3412 0.240063
0 0.307167 0.024022 0.378303 -0.151008 0.913282 255 255 255 255 0.3412 0.240063
0.024023 0.307167 -0 0.9146 -0.141204 0.378903 255 255 255 255 0.3412 0.240063
0.021183 0.332119 0.016154 0.9146 -0.141204 0.378903 255 255 255 255 0.3412 0.240063
0.016986 0.307167 0.016986 0.9146 -0.141204 0.378903 255 255 255 255 0.3412 0.240063
0.016986 0.307167 -0.016986 0.911501 -0.163003 -0.377619 255 255 255 255 0.3412 0.240063
0.026624 0.330399 -0.00375 0.911501 -0.163003 -0.377619 255 255 255 255 0.3412 0.240063
0.024023 0.307167 -0 0.911501 -0.163003 -0.377619 255 255 255 255 0.3412 0.240063
0 0.307167 -0.024023 0.375374 -0.195213 -0.906083 255 255 255 255 0.3412 0.240063
0.01647 0.326927 -0.021457 0.375374 -0.195213 -0.906083 255 255 255 255 0.3412 0.240063
0.016986 0.307167 -0.016986 0.375374 -0.195213 -0.906083 255 255 255 255 0.3412 0.240063
-0.016986 0.307167 -0.016986 -0.373765 -0.21526 -0.902199 255 255 255 255 0.3412 0.240063
-0.003333 0.323734 -0.026595 -0.373765 -0.21526 -0.902199 255 255 255 255 0.3412 0.240063
0 0.307167 -0.024023 -0.373765 -0.21526 -0.902199 255 255 255 255 0.3412 0.240063
-0.024023 0.307167 -0 -0.900501 -0.223433 -0.373062 255 255 255 255 0.3412 0.240063
-0.021183 0.322693 -0.016154 -0.900501 -0.223433 -0.373062 255 255 255 255 0.3412 0.240063
-0.016986 0.307167 -0.016986 -0.900501 -0.223433 -0.373062 255 255 255 255 0.3412 0.240063
-0.016986 0.307167 0.016986 -0.901793 -0.217242 0.373597 255 255 255 255 0.3412 0.240063
-0.026624 0.324413 0.00375 -0.901793 -0.217242 0.373597 255 255 255 255 0.3412 0.240063
-0.024023 0.307167 -0 -0.901793 -0.217242 0.373597 255 255 255 255 0.3412 0.240063
0.045476 0.176905 0.045475 0.915059 0.137856 0.379028 255 255 255 255 0.319554 0.161898
0.05881 0.213428 -0 0.915059 0.137856 0.379028 255 255 255 255 0.319554 0.161898
0.041585 0.213428 0.041585 0.915059 0.137856 0.379028 255 255 255 255 0.319554 0.161898
0.064312 0.176905 -0 0.91506 0.137849 -0.379029 255 255 255 255 0.319554 0.161898
0.041585 0.213428 -0.041585 0.91506 0.137849 -0.379029 255 255 255 255 0.319554 0.161898
0.05881 0.213428 -0 0.91506 0.137849 -0.379029 255 255 255 255 0.319554 0.161898
0 0.176905 -0.064312 0.379016 0.137865 -0.915063 255 255 255 255 0.319554 0.161898
0.041585 0.213428 -0.041585 0.379016 0.137865 -0.915063 255 255 255 255 0.319554 0.161898
0.045476 0.176905 -0.045476 0.379016 0.137865 -0.915063 255 255 255 255 0.319554 0.161898
-0.045475 0.176905 -0.045476 -0.379024 0.137849 -0.915062 255 255 255 255 0.319554 0.161898
0 0.213428 -0.05881 -0.379024 0.137849 -0.915062 255 255 255 255 0.319554 0.161898
0 0.176905 -0.064312 -0.379024 0.137849 -0.915062 255 255 255 255 0.319554 0.161898
-0.064312 0.176905 -0 -0.915059 0.137842 -0.379034 255 255 255 255 0.319554 0.161898
-0.041585 0.213428 -0.041585 -0.915059 0.137842 -0.379034 255 255 255 255 0.319554 0.161898
-0.045475 0.176905 -0.045476 -0.915059 0.137842 -0.379034 255 255 255 255 0.319554 0.161898
-0.045475 0.176905 0.045475 -0.915055 0.137848 0.379041 255 255 255 255 0.319554 0.161898
-0.05881 0.213428 -0 -0.915055 0.137848 0.379041 255 255 255 255 0.319554 0.161898
-0.064312 0.176905 -0 -0.915055 0.137848 0.379041 255 255 255 255 0.319554 0.161898
-0.045475 0.176905 0.045475 -0.37903 0.137832 0.915062 255 255 255 255 0.319554 0.161898
0 0.213428 0.05881 -0.37903 0.137832 0.915062 255 255 255 255 0.319554 0.161898
-0.041585 0.213428 0.041585 -0.37903 0.137832 0.915062 255 255 255 255 0.319554 0.161898
0 0.176905 0.064312 0.379029 0.137849 0.91506 255 255 255 255 0.319554 0.161898
0.041585 0.213428 0.041585 0.379029 0.137849 0.91506 255 255 255 255 0.319554 0.161898
0 0.213428 0.05881 0.379029 0.137849 0.91506 255 255 255 255 0.319554 0.161898
0 0.176905 0.064312 -0.382695 0 0.923875 255 255 255 255 0.319554 0.161898
0.045476 0.176905 0.045475 0.382687 0 0.923878 255 255 255 255 0.319554 0.161898
0.064312 0.176905 -0 0.923882 0 0.382677 255 255 255 255 0.319554 0.161898
0.045476 0.176905 -0.045476 0.923885 -0 -0.38267 255 255 255 255 0.319554 0.161898
0 0.176905 -0.064312 0.38267 -0 -0.923885 255 255 255 255 0.319554 0.161898
-0.045475 0.176905 -0.045476 -0.382677 -0 -0.923882 255 255 255 255 0.319554 0.161898
-0.064312 0.176905 -0 -0.923878 -0 -0.382687 255 255 255 255 0.319554 0.161898
-0.045475 0.176905 0.045475 -0.923875 0 0.382695 255 255 255 255 0.319554 0.161898
0.055254 0 0 0.789252 -0.519817 0.326913 255 255 255 255 0.319554 0.161898
0.064312 0.013753 -0 0.789252 -0.519817 0.326913 255 255 255 255 0.319554 0.161898
0.045476 0.013753 0.045475 0.789252 -0.519817 0.326913 255 255 255 255 0.319554 0.161898
0.039071 -0 -0.039071 0.789255 -0.519815 -0.326907 255 255 255 255 0.319554 0.161898
0.045476 0.013753 -0.045476 0.789255 -0.519815 -0.326907 255 255 255 255 0.319554 0.161898
0.064312 0.013753 -0 0.789255 -0.519815 -0.326907 255 255 255 255 0.319554 0.161898
0.039071 -0 -0.039071 0.326905 -0.519819 -0.789254 255 255 255 255 0.319554 0.161898
0 -0 -0.055254 0.326905 -0.519819 -0.789254 255 255 255 255 0.319554 0.161898
0 0.013753 -0.064312 0.326905 -0.519819 -0.789254 255 255 255 255 0.319554 0.161898
0 -0 -0.055254 -0.32691 -0.519798 -0.789266 255 255 255 255 0.319554 0.161898
-0.039071 -0 -0.039071 -0.32691 -0.519798 -0.789266 255 255 255 255 0.319554 0.161898
-0.045475 0.013753 -0.045476 -0.32691 -0.519798 -0.789266 255 255 255 255 0.319554 0.161898
-0.039071 -0 -0.039071 -0.789254 -0.519819 -0.326905 255 255 255 255 0.319554 0.161898
-0.055254 0 0 -0.789254 -0.519819 -0.326905 255 255 255 255 0.319554 0.161898
-0.064312 0.013753 -0 -0.789254 -0.519819 -0.326905 255 255 255 255 0.319554 0.161898
-0.055254 0 0 -0.789289 -0.519756 0.32692 255 255 255 255 0.319554 0.161898
-0.039071 0 0.039071 -0.789289 -0.519756 0.32692 255 255 255 255 0.319554 0.161898
-0.045475 0.013753 0.045475 -0.789289 -0.519756 0.32692 255 255 255 255 0.319554 0.161898
0 0 0.055254 -0.326928 -0.519814 0.789247 255 255 255 255 0.319554 0.161898
0 0.013753 0.064312 -0.326928 -0.519814 0.789247 255 255 255 255 0.319554 0.161898
-0.045475 0.013753 0.045475 -0.326928 -0.519814 0.789247 255 255 255 255 0.319554 0.161898
0.039071 0 0.039071 0.326931 -0.519776 0.789271 255 255 255 255 0.319554 0.161898
0.045476 0.013753 0.045475 0.326931 -0.519776 0.789271 255 255 255 255 0.319554 0.161898
0 0.013753 0.064312 0.326931 -0.519776 0.789271 255 255 255 255 0.319554 0.161898
0 0.213428 0.05881 -0.296205 0.633126 0.715132 255 255 255 255 0.319554 0.161898
0 0.245964 0.030005 -0.296205 0.633126 0.715132 255 255 255 255 0.319554 0.161898
-0.021217 0.245964 0.021217 -0.296205 0.633126 0.715132 255 255 255 255 0.319554 0.161898
0 0.213428 0.05881 0.296217 0.63312 0.715133 255 255 255 255 0.319554 0.161898
0.041585 0.213428 0.041585 0.296217 0.63312 0.715133 255 255 255 255 0.319554 0.161898
0.021217 0.245964 0.021217 0.296217 0.63312 0.715133 255 255 255 255 0.319554 0.161898
0.05881 0.213428 -0 0.715132 0.633126 0.296205 255 255 255 255 0.319554 0.161898
0.030005 0.245964 -0 0.715132 0.633126 0.296205 255 255 255 255 0.319554 0.161898
0.021217 0.245964 0.021217 0.715132 0.633126 0.296205 255 255 255 255 0.319554 0.161898
0.05881 0.213428 -0 0.715133 0.633119 -0.296217 255 255 255 255 0.319554 0.161898
0.041585 0.213428 -0.041585 0.715133 0.633119 -0.296217 255 255 255 255 0.319554 0.161898
0.021217 0.245964 -0.021217 0.715133 0.633119 -0.296217 255 255 255 255 0.319554 0.161898
0 0.213428 -0.05881 0.296205 0.633126 -0.715132 255 255 255 255 0.319554 0.161898
0 0.245964 -0.030005 0.296205 0.633126 -0.715132 255 255 255 255 0.319554 0.161898
0.021217 0.245964 -0.021217 0.296205 0.633126 -0.715132 255 255 255 255 0.319554 0.161898
0 0.213428 -0.05881 -0.296217 0.633119 -0.715133 255 255 255 255 0.319554 0.161898
-0.041585 0.213428 -0.041585 -0.296217 0.633119 -0.715133 255 255 255 255 0.319554 0.161898
-0.021217 0.245964 -0.021217 -0.296217 0.633119 -0.715133 255 255 255 255 0.319554 0.161898
-0.05881 0.213428 -0 -0.715132 0.633126 -0.296205 255 255 255 255 0.319554 0.161898
-0.030005 0.245964 -0 -0.715132 0.633126 -0.296205 255 255 255 255 0.319554 0.161898
-0.021217 0.245964 -0.021217 -0.715132 0.633126 -0.296205 255 255 255 255 0.319554 0.161898
-0.05881 0.213428 -0 -0.715133 0.633119 0.296217 255 255 255 255 0.319554 0.161898
-0.041585 0.213428 0.041585 -0.715133 0.633119 0.296217 255 255 255 255 0.319554 0.161898
-0.021217 0.245964 0.021217 -0.715133 0.633119 0.296217 255 255 255 255 0.319554 0.161898
0 0.279387 0.026876 -0.381254 0.086177 0.920445 255 255 255 255 0.319554 0.161898
-0.019005 0.279387 0.019004 -0.381254 0.086177 0.920445 255 255 255 255 0.319554 0.161898
-0.021217 0.245964 0.021217 -0.381254 0.086177 0.920445 255 255 255 255 0.319554 0.161898
0 0.279387 0.026876 0.381246 0.086171 0.920449 255 255 255 255 0.319554 0.161898
0 0.245964 0.030005 0.381246 0.086171 0.920449 255 255 255 255 0.319554 0.161898
0.021217 0.245964 0.021217 0.381246 0.086171 0.920449 255 255 255 255 0.319554 0.161898
0.019005 0.279387 0.019004 0.92045 0.08616 0.381247 255 255 255 255 0.319554 0.161898
0.021217 0.245964 0.021217 0.92045 0.08616 0.381247 255 255 255 255 0.319554 0.161898
0.030005 0.245964 -0 0.92045 0.08616 0.381247 255 255 255 255 0.319554 0.161898
0.026876 0.279387 -0 0.920449 0.086171 -0.381246 255 255 255 255 0.319554 0.161898
0.030005 0.245964 -0 0.920449 0.086171 -0.381246 255 255 255 255 0.319554 0.161898
0.021217 0.245964 -0.021217 0.920449 0.086171 -0.381246 255 255 255 255 0.319554 0.161898
0.019005 0.279387 -0.019005 0.381247 0.086149 -0.920451 255 255 255 255 0.319554 0.161898
0.021217 0.245964 -0.021217 0.381247 0.086149 -0.920451 255 255 255 255 0.319554 0.161898
0 0.245964 -0.030005 0.381247 0.086149 -0.920451 255 255 255 255 0.319554 0.161898
-0.019005 0.279387 -0.019005 -0.381256 0.086143 -0.920447 255 255 255 255 0.319554 0.161898
0 0.279387 -0.026877 -0.381256 0.086143 -0.920447 255 255 255 255 0.319554 0.161898
0 0.245964 -0.030005 -0.381256 0.086143 -0.920447 255 255 255 255 0.319554 0.161898
-0.026876 0.279387 -0 -0.920464 0.086148 -0.381214 255 255 255 255 0.319554 0.161898
-0.019005 0.279387 -0.019005 -0.920464 0.086148 -0.381214 255 255 255 255 0.319554 0.161898
-0.021217 0.245964 -0.021217 -0.920464 0.086148 -0.381214 255 255 255 255 0.319554 0.161898
-0.019005 0.279387 0.019004 -0.920455 0.086171 0.38123 255 255 255 255 0.319554 0.161898
-0.026876 0.279387 -0 -0.920455 0.086171 0.38123 255 255 255 255 0.319554 0.161898
-0.030005 0.245964 -0 -0.920455 0.086171 0.38123 255 255 255 255 0.319554 0.161898
0 0.279387 0.026876 -0.18805 -0.870949 0.453965 255 255 255 255 0.319554 0.161898
0 0.283291 0.034366 -0.18805 -0.870949 0.453965 255 255 255 255 0.319554 0.161898
-0.0243 0.283291 0.0243 -0.18805 -0.870949 0.453965 255 255 255 255 0.319554 0.161898
0 0.279387 0.026876 0.188051 -0.87093 0.454002 255 255 255 255 0.319554 0.161898
0.019005 0.279387 0.019004 0.188051 -0.87093 0.454002 255 255 255 255 0.319554 0.161898
0.0243 0.283291 0.0243 0.188051 -0.87093 0.454002 255 255 255 255 0.319554 0.161898
0.019005 0.279387 0.019004 0.453968 -0.870954 0.188022 255 255 255 255 0.319554 0.161898
0.026876 0.279387 -0 0.453968 -0.870954 0.188022 255 255 255 255 0.319554 0.161898
0.034366 0.283291 -0 0.453968 -0.870954 0.188022 255 255 255 255 0.319554 0.161898
0.019005 0.279387 -0.019005 0.454039 -0.870904 -0.188081 255 255 255 255 0.319554 0.161898
0.0243 0.283291 -0.0243 0.454039 -0.870904 -0.188081 255 255 255 255 0.319554 0.161898
0.034366 0.283291 -0 0.454039 -0.870904 -0.188081 255 255 255 255 0.319554 0.161898
0 0.279387 -0.026877 0.188069 -0.870921 -0.454011 255 255 255 255 0.319554 0.161898
0 0.283291 -0.034366 0.188069 -0.870921 -0.454011 255 255 255 255 0.319554 0.161898
0.0243 0.283291 -0.0243 0.188069 -0.870921 -0.454011 255 255 255 255 0.319554 0.161898
0 0.279387 -0.026877 -0.18807 -0.870902 -0.454048 255 255 255 255 0.319554 0.161898
-0.019005 0.279387 -0.019005 -0.18807 -0.870902 -0.454048 255 255 255 255 0.319554 0.161898
-0.0243 0.283291 -0.0243 -0.18807 -0.870902 -0.454048 255 255 255 255 0.319554 0.161898
-0.019005 0.279387 -0.019005 -0.453968 -0.870956 -0.188013 255 255 255 255 0.319554 0.161898
-0.026876 0.279387 -0 -0.453968 -0.870956 -0.188013 255 255 255 255 0.319554 0.161898
-0.034366 0.283291 -0 -0.453968 -0.870956 -0.188013 255 255 255 255 0.319554 0.161898
-0.019005 0.279387 0.019004 -0.45402 -0.870916 0.188073 255 255 255 255 0.319554 0.161898
-0.0243 0.283291 0.0243 -0.45402 -0.870916 0.188073 255 255 255 255 0.319554 0.161898
-0.034366 0.283291 -0 -0.45402 -0.870916 0.188073 255 255 255 255 0.319554 0.161898
0 0.305161 0.034366 -0.382703 0 0.923871 255 255 255 255 0.319554 0.161898
0.0243 0.305161 0.0243 0.382703 0 0.923871 255 255 255 255 0.319554 0.161898
0.034366 0.305161 -0 0.923871 0 0.382703 255 255 255 255 0.319554 0.161898
0.0243 0.305161 -0.0243 0.923871 -0 -0.382703 255 255 255 255 0.319554 0.161898
0 0.305161 -0.034366 0.382703 -0 -0.923871 255 255 255 255 0.319554 0.161898
-0.0243 0.305161 -0.0243 -0.382703 -0 -0.923871 255 255 255 255 0.319554 0.161898
-0.034366 0.305161 -0 -0.923871 -0 -0.382703 255 255 255 255 0.319554 0.161898
-0.0243 0.305161 0.0243 -0.923871 0 0.382703 255 255 255 255 0.319554 0.161898
-0.0243 0.305161 0.0243 -0.078619 0.978672 0.189792 255 255 255 255 0.319554 0.161898
0 0.305161 0.034366 -0.078619 0.978672 0.189792 255 255 255 255 0.319554 0.161898
0 0.307167 0.024022 -0.078619 0.978672 0.189792 255 255 255 255 0.319554 0.161898
0.0243 0.305161 0.0243 0.078619 0.97867 0.189799 255 255 255 255 0.319554 0.161898
0.016986 0.307167 0.016986 0.078619 0.97867 0.189799 255 255 255 255 0.319554 0.161898
0 0.307167 0.024022 0.078619 0.97867 0.189799 255 255 255 255 0.319554 0.161898
0.0243 0.305161 0.0243 0.18981 0.978668 0.078627 255 255 255 255 0.319554 0.161898
0.034366 0.305161 -0 0.18981 0.978668 0.078627 255 255 255 255 0.319554 0.161898
0.024023 0.307167 -0 0.18981 0.978668 0.078627 255 255 255 255 0.319554 0.161898
0.0243 0.305161 -0.0243 0.189791 0.978671 -0.078627 255 255 255 255 0.319554 0.161898
0.016986 0.307167 -0.016986 0.189791 0.978671 -0.078627 255 255 255 255 0.319554 0.161898
0.024023 0.307167 -0 0.189791 0.978671 -0.078627 255 255 255 255 0.319554 0.161898
0.0243 0.305161 -0.0243 0.078627 0.978668 -0.18981 255 255 255 255 0.319554 0.161898
0 0.305161 -0.034366 0.078627 0.978668 -0.18981 255 255 255 255 0.319554 0.161898
0 0.307167 -0.024023 0.078627 0.978668 -0.18981 255 255 255 255 0.319554 0.161898
-0.0243 0.305161 -0.0243 -0.078627 0.978671 -0.189791 255 255 255 255 0.319554 0.161898
-0.016986 0.307167 -0.016986 -0.078627 0.978671 -0.189791 255 255 255 255 0.319554 0.161898
0 0.307167 -0.024023 -0.078627 0.978671 -0.189791 255 255 255 255 0.319554 0.161898
-0.0243 0.305161 -0.0243 -0.18981 0.978668 -0.078627 255 255 255 255 0.319554 0.161898
-0.034366 0.305161 -0 -0.18981 0.978668 -0.078627 255 255 255 255 0.319554 0.161898
-0.024023 0.307167 -0 -0.18981 0.978668 -0.078627 255 255 255 255 0.319554 0.161898
-0.0243 0.305161 0.0243 -0.189791 0.978671 0.078627 255 255 255 255 0.319554 0.161898
-0.016986 0.307167 0.016986 -0.189791 0.978671 0.078627 255 255 255 255 0.319554 0.161898
-0.024023 0.307167 -0 -0.189791 0.978671 0.078627 255 255 255 255 0.319554 0.161898
0 0.307167 0.024022 -0.239805 -0.070763 0.968239 255 255 255 255 0.3412 0.240063
0.003333 0.331078 0.026595 -0.239805 -0.070763 0.968239 255 255 255 255 0.3412 0.240063
-0.01647 0.327885 0.021457 -0.239805 -0.070763 0.968239 255 255 255 255 0.3412 0.240063
0.016986 0.307167 0.016986 0.506546 -0.056515 0.860359 255 255 255 255 0.3412 0.240063
0.021183 0.332119 0.016154 0.506546 -0.056515 0.860359 255 255 255 255 0.3412 0.240063
0.003333 0.331078 0.026595 0.506546 -0.056515 0.860359 255 255 255 255 0.3412 0.240063
0.024023 0.307167 -0 0.961185 -0.064303 0.268308 255 255 255 255 0.3412 0.240063
0.026624 0.330399 -0.00375 0.961185 -0.064303 0.268308 255 255 255 255 0.3412 0.240063
0.021183 0.332119 0.016154 0.961185 -0.064303 0.268308 255 255 255 255 0.3412 0.240063
0.016986 0.307167 -0.016986 0.871462 -0.086479 -0.482779 255 255 255 255 0.3412 0.240063
0.01647 0.326927 -0.021457 0.871462 -0.086479 -0.482779 255 255 255 255 0.3412 0.240063
0.026624 0.330399 -0.00375 0.871462 -0.086479 -0.482779 255 255 255 255 0.3412 0.240063
0 0.307167 -0.024023 0.264427 -0.095784 -0.959637 255 255 255 255 0.3412 0.240063
-0.003333 0.323734 -0.026595 0.264427 -0.095784 -0.959637 255 255 255 255 0.3412 0.240063
0.01647 0.326927 -0.021457 0.264427 -0.095784 -0.959637 255 255 255 255 0.3412 0.240063
-0.016986 0.307167 -0.016986 -0.499049 -0.08871 -0.862021 255 255 255 255 0.3412 0.240063
-0.021183 0.322693 -0.016154 -0.499049 -0.08871 -0.862021 255 255 255 255 0.3412 0.240063
-0.003333 0.323734 -0.026595 -0.499049 -0.08871 -0.862021 255 255 255 255 0.3412 0.240063
-0.024023 0.307167 -0 -0.962668 -0.08965 -0.25541 255 255 255 255 0.3412 0.240063
-0.026624 0.324413 0.00375 -0.962668 -0.08965 -0.25541 255 255 255 255 0.3412 0.240063
-0.021183 0.322693 -0.016154 -0.962668 -0.08965 -0.25541 255 255 255 255 0.3412 0.240063
-0.016986 0.307167 0.016986 -0.856513 -0.088403 0.508498 255 255 255 255 0.3412 0.240063
-0.01647 0.327885 0.021457 -0.856513 -0.088403 0.508498 255 255 255 255 0.3412 0.240063
-0.026624 0.324413 0.00375 -0.856513 -0.088403 0.508498 255 255 255 255 0.3412 0.240063
0.045476 0.176905 0.045475 0.915062 0.137849 0.379024 255 255 255 255 0.319554 0.161898
0.064312 0.176905 -0 0.915062 0.137849 0.379024 255 255 255 255 0.319554 0.161898
0.05881 0.213428 -0 0.915062 0.137849 0.379024 255 255 255 255 0.319554 0.161898
0.064312 0.176905 -0 0.915063 0.137865 -0.379016 255 255 255 255 0.319554 0.161898
0.045476 0.176905 -0.045476 0.915063 0.137865 -0.379016 255 255 255 255 0.319554 0.161898
0.041585 0.213428 -0.041585 0.915063 0.137865 -0.379016 255 255 255 255 0.319554 0.161898
0 0.176905 -0.064312 0.379029 0.137849 -0.91506 255 255 255 255 0.319554 0.161898
0 0.213428 -0.05881 0.379029 0.137849 -0.91506 255 255 255 255 0.319554 0.161898
0.041585 0.213428 -0.041585 0.379029 0.137849 -0.91506 255 255 255 255 0.319554 0.161898
-0.045475 0.176905 -0.045476 -0.379028 0.137856 -0.915059 255 255 255 255 0.319554 0.161898
-0.041585 0.213428 -0.041585 -0.379028 0.137856 -0.915059 255 255 255 255 0.319554 0.161898
0 0.213428 -0.05881 -0.379028 0.137856 -0.915059 255 255 255 255 0.319554 0.161898
-0.064312 0.176905 -0 -0.91506 0.137849 -0.379029 255 255 255 255 0.319554 0.161898
-0.05881 0.213428 -0 -0.91506 0.137849 -0.379029 255 255 255 255 0.319554 0.161898
-0.041585 0.213428 -0.041585 -0.91506 0.137849 -0.379029 255 255 255 255 0.319554 0.161898
-0.045475 0.176905 0.045475 -0.915062 0.137831 0.37903 255 255 255 255 0.319554 0.161898
-0.041585 0.213428 0.041585 -0.915062 0.137831 0.37903 255 255 255 255 0.319554 0.161898
-0.05881 0.213428 -0 -0.915062 0.137831 0.37903 255 255 255 255 0.319554 0.161898
-0.045475 0.176905 0.045475 -0.379041 0.137848 0.915055 255 255 255 255 0.319554 0.161898
0 0.176905 0.064312 -0.379041 0.137848 0.915055 255 255 255 255 0.319554 0.161898
0 0.213428 0.05881 -0.379041 0.137848 0.915055 255 255 255 255 0.319554 0.161898
0 0.176905 0.064312 0.379034 0.137842 0.915059 255 255 255 255 0.319554 0.161898
0.045476 0.176905 0.045475 0.379034 0.137842 0.915059 255 255 255 255 0.319554 0.161898
0.041585 0.213428 0.041585 0.379034 0.137842 0.915059 255 255 255 255 0.319554 0.161898
3 0 1 2 
3 3 4 5 
3 6 7 8 
3 9 10 11 
3 12 13 14 
3 15 16 17 
3 18 19 20 
3 21 22 23 
3 24 25 26 
3 27 24 26 
3 28 27 26 
3 29 28 26 
3 30 29 26 
3 31 30 26 
3 32 31 26 
3 25 32 26 
3 33 34 35 
3 36 37 38 
3 39 40 41 
3 42 43 44 
3 45 46 47 
3 48 49 50 
3 51 52 53 
3 54 55 56 
3 57 58 59 
3 60 61 62 
3 63 64 65 
3 66 67 68 
3 69 70 71 
3 72 73 74 
3 75 76 77 
3 78 79 80 
3 81 82 83 
3 84 85 86 
3 87 88 89 
3 90 91 92 
3 93 94 95 
3 96 97 98 
3 99 100 101 
3 102 103 104 
3 105 106 107 
3 108 109 110 
3 111 112 113 
3 114 115 116 
3 117 118 119 
3 120 121 122 
3 123 124 125 
3 126 127 128 
3 129 130 131 
3 132 133 134 
3 135 136 137 
3 138 139 140 
3 141 142 143 
3 144 145 146 
3 147 148 149 
3 150 151 152 
3 153 154 155 
3 156 157 158 
3 159 160 161 
3 162 163 164 
3 165 166 167 
3 168 169 170 
3 171 172 173 
3 174 175 176 
3 177 178 179 
3 180 181 182 
3 183 184 185 
3 186 187 188 
3 189 190 191 
3 192 193 194 
3 195 196 197 
3 198 199 200 
3 201 202 203 
3 204 205 206 
3 207 208 209 
3 210 211 212 
3 213 214 215 
3 216 217 218 
3 219 220 221 
3 222 223 224 
3 225 226 227 
3 228 229 230 
3 231 232 233 
3 234 235 236 
3 237 238 239 
3 240 241 242 
3 243 244 245 
3 246 247 248 
3 0 249 1 
3 3 250 4 
3 6 251 7 
3 9 252 10 
3 12 253 13 
3 15 254 16 
3 18 255 19 
3 21 256 22 
3 257 258 259 
3 260 261 262 
3 263 264 265 
3 266 267 268 
3 269 270 271 
3 272 273 274 
3 275 276 277 
3 278 279 280 
3 281 282 283 
3 284 285 286 
3 287 288 289 
3 290 291 292 
3 293 294 295 
3 296 297 298 
3 299 300 301 
3 302 303 304 
3 305 306 307 
3 308 309 310 
3 311 312 313 
3 314 315 316 
3 317 318 319 
3 320 321 322 
3 323 324 325 
3 326 327 328 
3 329 330 331 
3 332 333 334 
3 335 336 337 
3 338 339 340 
3 341 342 343 
3 344 345 346 
3 347 348 349 
3 350 351 352 
3 153 353 154 
3 156 354 157 
3 159 355 160 
3 162 356 163 
3 165 357 166 
3 168 358 169 
3 171 359 172 
3 174 360 175 
3 361 362 363 
3 364 365 366 
3 367 368 369 
3 370 371 372 
3 373 374 375 
3 376 377 378 
3 379 380 381 
3 382 383 384 
3 385 386 387 
3 388 389 390 
3 391 392 393 
3 394 395 396 
3 397 398 399 
3 400 401 402 
3 403 404 405 
3 406 407 408 
3 409 410 411 
3 412 413 414 
3 415 416 417 
3 418 419 420 
3 421 422 423 
3 424 425 426 
3 427 428 429 
3 430 431 432 
