ply
format ascii 1.0
comment VCGLIB generated
comment TextureFile Texture_01_A.png
element vertex 459
property float x
property float y
property float z
property float nx
property float ny
property float nz
property uchar red
property uchar green
property uchar blue
property uchar alpha
property float texture_u
property float texture_v
element face 166
property list uchar int vertex_indices
end_header
-0.018812 0 0.018812 -0.192341 -0.864477 0.464419 255 255 255 255 0.471173 0.177159
0 0.012116 0.049156 -0.192341 -0.864477 0.464419 255 255 255 255 0.471173 0.177159
-0.03476 0.012116 0.03476 -0.192341 -0.864477 0.464419 255 255 255 255 0.471173 0.177159
0.018812 0 0.018812 0.192369 -0.864464 0.464431 255 255 255 255 0.471173 0.177159
0 0.012116 0.049156 0.192369 -0.864464 0.464431 255 255 255 255 0.471173 0.177159
0 0 0.026604 0.192369 -0.864464 0.464431 255 255 255 255 0.471173 0.177159
0.018812 0 0.018812 0.464419 -0.864477 0.192341 255 255 255 255 0.471173 0.177159
0.049156 0.012116 -0 0.464419 -0.864477 0.192341 255 255 255 255 0.471173 0.177159
0.03476 0.012116 0.03476 0.464419 -0.864477 0.192341 255 255 255 255 0.471173 0.177159
0.018812 -0 -0.018812 0.464431 -0.864464 -0.192369 255 255 255 255 0.471173 0.177159
0.049156 0.012116 -0 0.464431 -0.864464 -0.192369 255 255 255 255 0.471173 0.177159
0.026604 0 0 0.464431 -0.864464 -0.192369 255 255 255 255 0.471173 0.177159
0.018812 -0 -0.018812 0.192361 -0.864481 -0.464402 255 255 255 255 0.471173 0.177159
0 0.012116 -0.049158 0.192361 -0.864481 -0.464402 255 255 255 255 0.471173 0.177159
0.03476 0.012116 -0.03476 0.192361 -0.864481 -0.464402 255 255 255 255 0.471173 0.177159
-0.018812 -0 -0.018812 -0.192356 -0.864483 -0.4644 255 255 255 255 0.471173 0.177159
0 0.012116 -0.049158 -0.192356 -0.864483 -0.4644 255 255 255 255 0.471173 0.177159
0 -0 -0.026604 -0.192356 -0.864483 -0.4644 255 255 255 255 0.471173 0.177159
-0.018812 -0 -0.018812 -0.464402 -0.864481 -0.192361 255 255 255 255 0.471173 0.177159
-0.049158 0.012116 -0 -0.464402 -0.864481 -0.192361 255 255 255 255 0.471173 0.177159
-0.03476 0.012116 -0.03476 -0.464402 -0.864481 -0.192361 255 255 255 255 0.471173 0.177159
-0.018812 0 0.018812 -0.4644 -0.864483 0.192356 255 255 255 255 0.471173 0.177159
-0.049158 0.012116 -0 -0.4644 -0.864483 0.192356 255 255 255 255 0.471173 0.177159
-0.026604 0 0 -0.4644 -0.864483 0.192356 255 255 255 255 0.471173 0.177159
0 0.012116 0.049156 -0.325604 -0.525248 0.786191 255 255 255 255 0.471173 0.177159
-0.045415 0.034671 0.045416 -0.325604 -0.525248 0.786191 255 255 255 255 0.471173 0.177159
-0.03476 0.012116 0.03476 -0.325604 -0.525248 0.786191 255 255 255 255 0.471173 0.177159
0 0.012116 0.049156 0.325635 -0.525319 0.786131 255 255 255 255 0.471173 0.177159
0.045415 0.034671 0.045416 0.325635 -0.525319 0.786131 255 255 255 255 0.471173 0.177159
0 0.034671 0.064228 0.325635 -0.525319 0.786131 255 255 255 255 0.471173 0.177159
0.03476 0.012116 0.03476 0.786186 -0.525238 0.325633 255 255 255 255 0.471173 0.177159
0.064226 0.034671 -0 0.786186 -0.525238 0.325633 255 255 255 255 0.471173 0.177159
0.045415 0.034671 0.045416 0.786186 -0.525238 0.325633 255 255 255 255 0.471173 0.177159
0.03476 0.012116 -0.03476 0.786174 -0.525278 -0.325597 255 255 255 255 0.471173 0.177159
0.064226 0.034671 -0 0.786174 -0.525278 -0.325597 255 255 255 255 0.471173 0.177159
0.049156 0.012116 -0 0.786174 -0.525278 -0.325597 255 255 255 255 0.471173 0.177159
0 0.012116 -0.049158 0.325641 -0.525256 -0.786171 255 255 255 255 0.471173 0.177159
0.045415 0.034671 -0.045416 0.325641 -0.525256 -0.786171 255 255 255 255 0.471173 0.177159
0.03476 0.012116 -0.03476 0.325641 -0.525256 -0.786171 255 255 255 255 0.471173 0.177159
0 0.012116 -0.049158 -0.325662 -0.525266 -0.786155 255 255 255 255 0.471173 0.177159
-0.045415 0.034671 -0.045415 -0.325662 -0.525266 -0.786155 255 255 255 255 0.471173 0.177159
0 0.034671 -0.064228 -0.325662 -0.525266 -0.786155 255 255 255 255 0.471173 0.177159
-0.03476 0.012116 -0.03476 -0.786188 -0.525229 -0.325641 255 255 255 255 0.471173 0.177159
-0.064226 0.034671 -0 -0.786188 -0.525229 -0.325641 255 255 255 255 0.471173 0.177159
-0.045415 0.034671 -0.045415 -0.786188 -0.525229 -0.325641 255 255 255 255 0.471173 0.177159
-0.03476 0.012116 0.03476 -0.786191 -0.52522 0.32565 255 255 255 255 0.471173 0.177159
-0.064226 0.034671 -0 -0.786191 -0.52522 0.32565 255 255 255 255 0.471173 0.177159
-0.049158 0.012116 -0 -0.786191 -0.52522 0.32565 255 255 255 255 0.471173 0.177159
-0.045415 0.034671 0.045416 -0.376401 -0.180704 0.908663 255 255 255 255 0.471173 0.177159
0 0.061274 0.069519 -0.376401 -0.180704 0.908663 255 255 255 255 0.471173 0.177159
-0.049158 0.061274 0.049156 -0.376401 -0.180704 0.908663 255 255 255 255 0.471173 0.177159
0.045415 0.034671 0.045416 0.376391 -0.180722 0.908664 255 255 255 255 0.471173 0.177159
0 0.061274 0.069519 0.376391 -0.180722 0.908664 255 255 255 255 0.471173 0.177159
0 0.034671 0.064228 0.376391 -0.180722 0.908664 255 255 255 255 0.471173 0.177159
0.064226 0.034671 -0 0.908679 -0.180693 0.376369 255 255 255 255 0.471173 0.177159
0.049156 0.061274 0.049156 0.908679 -0.180693 0.376369 255 255 255 255 0.471173 0.177159
0.045415 0.034671 0.045416 0.908679 -0.180693 0.376369 255 255 255 255 0.471173 0.177159
0.045415 0.034671 -0.045416 0.908662 -0.18079 -0.376362 255 255 255 255 0.471173 0.177159
0.069519 0.061274 -0 0.908662 -0.18079 -0.376362 255 255 255 255 0.471173 0.177159
0.064226 0.034671 -0 0.908662 -0.18079 -0.376362 255 255 255 255 0.471173 0.177159
0 0.034671 -0.064228 0.376389 -0.180742 -0.90866 255 255 255 255 0.471173 0.177159
0.049156 0.061274 -0.049158 0.376389 -0.180742 -0.90866 255 255 255 255 0.471173 0.177159
0.045415 0.034671 -0.045416 0.376389 -0.180742 -0.90866 255 255 255 255 0.471173 0.177159
-0.045415 0.034671 -0.045415 -0.376408 -0.18072 -0.908657 255 255 255 255 0.471173 0.177159
0 0.061274 -0.069519 -0.376408 -0.18072 -0.908657 255 255 255 255 0.471173 0.177159
0 0.034671 -0.064228 -0.376408 -0.18072 -0.908657 255 255 255 255 0.471173 0.177159
-0.045415 0.034671 -0.045415 -0.90866 -0.180801 -0.376362 255 255 255 255 0.471173 0.177159
-0.069519 0.061274 -0 -0.90866 -0.180801 -0.376362 255 255 255 255 0.471173 0.177159
-0.049158 0.061274 -0.049158 -0.90866 -0.180801 -0.376362 255 255 255 255 0.471173 0.177159
-0.064226 0.034671 -0 -0.908656 -0.180788 0.376376 255 255 255 255 0.471173 0.177159
-0.049158 0.061274 0.049156 -0.908656 -0.180788 0.376376 255 255 255 255 0.471173 0.177159
-0.069519 0.061274 -0 -0.908656 -0.180788 0.376376 255 255 255 255 0.471173 0.177159
0 0.061274 0.069519 -0.376401 0.180704 0.908663 255 255 255 255 0.471173 0.177159
-0.045415 0.087877 0.045416 -0.376401 0.180704 0.908663 255 255 255 255 0.471173 0.177159
-0.049158 0.061274 0.049156 -0.376401 0.180704 0.908663 255 255 255 255 0.471173 0.177159
0 0.061274 0.069519 0.376391 0.180722 0.908664 255 255 255 255 0.471173 0.177159
0.045415 0.087877 0.045416 0.376391 0.180722 0.908664 255 255 255 255 0.471173 0.177159
0 0.087877 0.064228 0.376391 0.180722 0.908664 255 255 255 255 0.471173 0.177159
0.049156 0.061274 0.049156 0.908679 0.180693 0.376368 255 255 255 255 0.471173 0.177159
0.064226 0.087877 -0 0.908679 0.180693 0.376368 255 255 255 255 0.471173 0.177159
0.045415 0.087877 0.045416 0.908679 0.180693 0.376368 255 255 255 255 0.471173 0.177159
0.049156 0.061274 -0.049158 0.908649 0.180787 -0.376395 255 255 255 255 0.471173 0.177159
0.064226 0.087877 -0 0.908649 0.180787 -0.376395 255 255 255 255 0.471173 0.177159
0.069519 0.061274 -0 0.908649 0.180787 -0.376395 255 255 255 255 0.471173 0.177159
0.049156 0.061274 -0.049158 0.376389 0.180742 -0.90866 255 255 255 255 0.471173 0.177159
0 0.087877 -0.064228 0.376389 0.180742 -0.90866 255 255 255 255 0.471173 0.177159
0.045415 0.087877 -0.045416 0.376389 0.180742 -0.90866 255 255 255 255 0.471173 0.177159
0 0.061274 -0.069519 -0.376408 0.18072 -0.908657 255 255 255 255 0.471173 0.177159
-0.045415 0.087877 -0.045415 -0.376408 0.18072 -0.908657 255 255 255 255 0.471173 0.177159
0 0.087877 -0.064228 -0.376408 0.18072 -0.908657 255 255 255 255 0.471173 0.177159
-0.069519 0.061274 -0 -0.90866 0.180801 -0.376362 255 255 255 255 0.471173 0.177159
-0.045415 0.087877 -0.045415 -0.90866 0.180801 -0.376362 255 255 255 255 0.471173 0.177159
-0.049158 0.061274 -0.049158 -0.90866 0.180801 -0.376362 255 255 255 255 0.471173 0.177159
-0.049158 0.061274 0.049156 -0.908656 0.180789 0.376376 255 255 255 255 0.471173 0.177159
-0.064226 0.087877 -0 -0.908656 0.180789 0.376376 255 255 255 255 0.471173 0.177159
-0.069519 0.061274 -0 -0.908656 0.180789 0.376376 255 255 255 255 0.471173 0.177159
-0.045415 0.087877 0.045416 -0.302823 0.611427 0.731065 255 255 255 255 0.471173 0.177159
0 0.110432 0.045364 -0.302823 0.611427 0.731065 255 255 255 255 0.471173 0.177159
-0.032077 0.110432 0.032077 -0.302823 0.611427 0.731065 255 255 255 255 0.471173 0.177159
0.045415 0.087877 0.045416 0.302824 0.611428 0.731063 255 255 255 255 0.471173 0.177159
0 0.110432 0.045364 0.302824 0.611428 0.731063 255 255 255 255 0.471173 0.177159
0 0.087877 0.064228 0.302824 0.611428 0.731063 255 255 255 255 0.471173 0.177159
0.064226 0.087877 -0 0.731083 0.611411 0.30281 255 255 255 255 0.471173 0.177159
0.032077 0.110432 0.032077 0.731083 0.611411 0.30281 255 255 255 255 0.471173 0.177159
0.045415 0.087877 0.045416 0.731083 0.611411 0.30281 255 255 255 255 0.471173 0.177159
0.064226 0.087877 -0 0.731092 0.611388 -0.302835 255 255 255 255 0.471173 0.177159
0.032077 0.110432 -0.032077 0.731092 0.611388 -0.302835 255 255 255 255 0.471173 0.177159
0.045364 0.110432 -0 0.731092 0.611388 -0.302835 255 255 255 255 0.471173 0.177159
0.045415 0.087877 -0.045416 0.302823 0.611427 -0.731065 255 255 255 255 0.471173 0.177159
0 0.110432 -0.045364 0.302823 0.611427 -0.731065 255 255 255 255 0.471173 0.177159
0.032077 0.110432 -0.032077 0.302823 0.611427 -0.731065 255 255 255 255 0.471173 0.177159
-0.045415 0.087877 -0.045415 -0.302839 0.611425 -0.731059 255 255 255 255 0.471173 0.177159
0 0.110432 -0.045364 -0.302839 0.611425 -0.731059 255 255 255 255 0.471173 0.177159
0 0.087877 -0.064228 -0.302839 0.611425 -0.731059 255 255 255 255 0.471173 0.177159
-0.064226 0.087877 -0 -0.731086 0.611404 -0.302818 255 255 255 255 0.471173 0.177159
-0.032077 0.110432 -0.032077 -0.731086 0.611404 -0.302818 255 255 255 255 0.471173 0.177159
-0.045415 0.087877 -0.045415 -0.731086 0.611404 -0.302818 255 255 255 255 0.471173 0.177159
-0.064226 0.087877 -0 -0.731092 0.611388 0.302834 255 255 255 255 0.471173 0.177159
-0.032077 0.110432 0.032077 -0.731092 0.611388 0.302834 255 255 255 255 0.471173 0.177159
-0.045364 0.110432 -0 -0.731092 0.611388 0.302834 255 255 255 255 0.471173 0.177159
-0.032077 0.110432 0.032077 -0.164372 0.903064 0.39681 255 255 255 255 0.471173 0.177159
-7.5e-05 0.11982 0.023968 -0.164372 0.903064 0.39681 255 255 255 255 0.471173 0.177159
-0.017022 0.11982 0.016948 -0.164372 0.903064 0.39681 255 255 255 255 0.471173 0.177159
0 0.110432 0.045364 0.163976 0.903545 0.395877 255 255 255 255 0.471173 0.177159
0.016873 0.11982 0.016948 0.163976 0.903545 0.395877 255 255 255 255 0.471173 0.177159
-7.5e-05 0.11982 0.023968 0.163976 0.903545 0.395877 255 255 255 255 0.471173 0.177159
0.032077 0.110432 0.032077 0.395222 0.903881 0.163704 255 255 255 255 0.471173 0.177159
0.023893 0.11982 -0 0.395222 0.903881 0.163704 255 255 255 255 0.471173 0.177159
0.016873 0.11982 0.016948 0.395222 0.903881 0.163704 255 255 255 255 0.471173 0.177159
0.032077 0.110432 -0.032077 0.395215 0.903883 -0.163707 255 255 255 255 0.471173 0.177159
0.023893 0.11982 -0 0.395215 0.903883 -0.163707 255 255 255 255 0.471173 0.177159
0.045364 0.110432 -0 0.395215 0.903883 -0.163707 255 255 255 255 0.471173 0.177159
0 0.110432 -0.045364 0.163982 0.903542 -0.39588 255 255 255 255 0.471173 0.177159
0.016873 0.11982 -0.016948 0.163982 0.903542 -0.39588 255 255 255 255 0.471173 0.177159
0.032077 0.110432 -0.032077 0.163982 0.903542 -0.39588 255 255 255 255 0.471173 0.177159
-0.032077 0.110432 -0.032077 -0.16437 0.903061 -0.396816 255 255 255 255 0.471173 0.177159
-7.5e-05 0.11982 -0.023968 -0.16437 0.903061 -0.396816 255 255 255 255 0.471173 0.177159
0 0.110432 -0.045364 -0.16437 0.903061 -0.396816 255 255 255 255 0.471173 0.177159
-0.045364 0.110432 -0 -0.397471 0.902724 -0.164641 255 255 255 255 0.471173 0.177159
-0.017022 0.11982 -0.016948 -0.397471 0.902724 -0.164641 255 255 255 255 0.471173 0.177159
-0.032077 0.110432 -0.032077 -0.397471 0.902724 -0.164641 255 255 255 255 0.471173 0.177159
-0.045364 0.110432 -0 -0.397467 0.902727 0.164634 255 255 255 255 0.471173 0.177159
-0.017022 0.11982 0.016948 -0.397467 0.902727 0.164634 255 255 255 255 0.471173 0.177159
-0.024042 0.11982 -0 -0.397467 0.902727 0.164634 255 255 255 255 0.471173 0.177159
0 0 0.026604 -0 -1 0 255 255 255 255 0.471173 0.177159
-0.018812 0 0.018812 -0 -1 0 255 255 255 255 0.471173 0.177159
0 0 0 -0 -1 0 255 255 255 255 0.471173 0.177159
0.018812 0 0.018812 0 -1 0 255 255 255 255 0.471173 0.177159
0.026604 0 0 0 -1 0 255 255 255 255 0.471173 0.177159
0.018812 -0 -0.018812 0 -1 0 255 255 255 255 0.471173 0.177159
0 -0 -0.026604 -0 -1 0 255 255 255 255 0.471173 0.177159
-0.018812 -0 -0.018812 0 -1 0 255 255 255 255 0.471173 0.177159
-0.026604 0 0 0 -1 0 255 255 255 255 0.471173 0.177159
-0.01956 0.210068 -0.004701 0.263056 0.931289 -0.251996 255 255 255 255 0.340746 0.212478
-0.011184 0.206367 -0.009635 0.263056 0.931289 -0.251996 255 255 255 255 0.340746 0.212478
-0.018195 0.207817 -0.011595 0.263056 0.931289 -0.251996 255 255 255 255 0.340746 0.212478
-0.017022 0.11982 0.016948 -0.380372 -0.109662 0.918309 255 255 255 255 0.471173 0.177159
-7.5e-05 0.147156 0.027232 -0.380372 -0.109662 0.918309 255 255 255 255 0.471173 0.177159
-0.019331 0.147156 0.019256 -0.380372 -0.109662 0.918309 255 255 255 255 0.471173 0.177159
0.016873 0.11982 0.016948 0.380372 -0.109649 0.918311 255 255 255 255 0.471173 0.177159
-7.5e-05 0.147156 0.027232 0.380372 -0.109649 0.918311 255 255 255 255 0.471173 0.177159
-7.5e-05 0.11982 0.023968 0.380372 -0.109649 0.918311 255 255 255 255 0.471173 0.177159
0.023893 0.11982 -0 0.918307 -0.109682 0.38037 255 255 255 255 0.471173 0.177159
0.019182 0.147156 0.019256 0.918307 -0.109682 0.38037 255 255 255 255 0.471173 0.177159
0.016873 0.11982 0.016948 0.918307 -0.109682 0.38037 255 255 255 255 0.471173 0.177159
0.023893 0.11982 -0 0.918307 -0.109682 -0.380371 255 255 255 255 0.471173 0.177159
0.019182 0.147156 -0.019256 0.918307 -0.109682 -0.380371 255 255 255 255 0.471173 0.177159
0.027158 0.147156 -0 0.918307 -0.109682 -0.380371 255 255 255 255 0.471173 0.177159
0.016873 0.11982 -0.016948 0.380355 -0.109662 -0.918316 255 255 255 255 0.471173 0.177159
-7.5e-05 0.147156 -0.027232 0.380355 -0.109662 -0.918316 255 255 255 255 0.471173 0.177159
0.019182 0.147156 -0.019256 0.380355 -0.109662 -0.918316 255 255 255 255 0.471173 0.177159
-0.017022 0.11982 -0.016948 -0.380391 -0.109648 -0.918303 255 255 255 255 0.471173 0.177159
-7.5e-05 0.147156 -0.027232 -0.380391 -0.109648 -0.918303 255 255 255 255 0.471173 0.177159
-7.5e-05 0.11982 -0.023968 -0.380391 -0.109648 -0.918303 255 255 255 255 0.471173 0.177159
-0.024042 0.11982 -0 -0.918307 -0.109682 -0.38037 255 255 255 255 0.471173 0.177159
-0.019331 0.147156 -0.019256 -0.918307 -0.109682 -0.38037 255 255 255 255 0.471173 0.177159
-0.017022 0.11982 -0.016948 -0.918307 -0.109682 -0.38037 255 255 255 255 0.471173 0.177159
-0.024042 0.11982 -0 -0.918307 -0.109682 0.380371 255 255 255 255 0.471173 0.177159
-0.019331 0.147156 0.019256 -0.918307 -0.109682 0.380371 255 255 255 255 0.471173 0.177159
-0.027307 0.147156 -0 -0.918307 -0.109682 0.380371 255 255 255 255 0.471173 0.177159
-0.019331 0.147156 0.019256 0 1 -0 255 255 255 255 0.471173 0.177159
-7.5e-05 0.147156 0.027232 0 1 -0 255 255 255 255 0.471173 0.177159
-0.008681 0.147156 0.008607 0 1 -0 255 255 255 255 0.471173 0.177159
0.008532 0.147156 0.008607 0 1 -0 255 255 255 255 0.471173 0.177159
0.019182 0.147156 0.019256 -0 1 -0 255 255 255 255 0.471173 0.177159
0.027158 0.147156 -0 -0 1 -0 255 255 255 255 0.471173 0.177159
0.008532 0.147156 -0.008606 -0 1 0 255 255 255 255 0.471173 0.177159
0.019182 0.147156 -0.019256 -0 1 0 255 255 255 255 0.471173 0.177159
-7.5e-05 0.147156 -0.027232 -0 1 0 255 255 255 255 0.471173 0.177159
-0.008681 0.147156 -0.008606 0 1 0 255 255 255 255 0.471173 0.177159
-0.019331 0.147156 -0.019256 0 1 0 255 255 255 255 0.471173 0.177159
-0.027307 0.147156 -0 0 1 0 255 255 255 255 0.471173 0.177159
0.008532 0.147156 0.008607 0 0.126896 0.991916 255 255 255 255 0.340746 0.212474
-0.005729 0.160851 0.006855 0 0.126896 0.991916 255 255 255 255 0.340746 0.212474
-0.008681 0.147156 0.008607 0 0.126896 0.991916 255 255 255 255 0.340746 0.212474
0.008532 0.147156 0.008607 0.947218 0.10025 0.304513 255 255 255 255 0.340746 0.212474
0.01029 0.160851 -0.00137 0.947218 0.10025 0.304513 255 255 255 255 0.340746 0.212474
0.006393 0.160851 0.010752 0.947218 0.10025 0.304513 255 255 255 255 0.340746 0.212474
0.008532 0.147156 -0.008606 0.277654 0.420693 -0.86367 255 255 255 255 0.340746 0.212474
-0.001832 0.160851 -0.005267 0.277654 0.420693 -0.86367 255 255 255 255 0.340746 0.212474
0.01029 0.160851 -0.00137 0.277654 0.420693 -0.86367 255 255 255 255 0.340746 0.212474
-0.008681 0.147156 -0.008606 -0.833912 0.48241 -0.268087 255 255 255 255 0.340746 0.212474
-0.005729 0.160851 0.006855 -0.833912 0.48241 -0.268087 255 255 255 255 0.340746 0.212474
-0.001832 0.160851 -0.005267 -0.833912 0.48241 -0.268087 255 255 255 255 0.340746 0.212474
-0.005729 0.160851 0.006855 -0.644614 -0.468077 0.604464 255 255 255 255 0.340746 0.212474
-0.010286 0.180229 0.017001 -0.644614 -0.468077 0.604464 255 255 255 255 0.340746 0.212478
-0.017488 0.178982 0.008355 -0.644614 -0.468077 0.604464 255 255 255 255 0.340746 0.212478
0.006393 0.160851 0.010752 0.600614 0.274836 0.750818 255 255 255 255 0.340746 0.212474
-0.001792 0.181694 0.00967 0.600614 0.274836 0.750818 255 255 255 255 0.340746 0.212478
-0.010286 0.180229 0.017001 0.600614 0.274836 0.750818 255 255 255 255 0.340746 0.212478
-0.001832 0.160851 -0.005267 0.252889 0.563251 -0.786635 255 255 255 255 0.340746 0.212474
-0.001792 0.181694 0.00967 0.252889 0.563251 -0.786635 255 255 255 255 0.340746 0.212478
0.01029 0.160851 -0.00137 0.252889 0.563251 -0.786635 255 255 255 255 0.340746 0.212474
-0.005729 0.160851 0.006855 -0.923675 -0.242174 -0.296945 255 255 255 255 0.340746 0.212474
-0.008993 0.18045 0.001024 -0.923675 -0.242174 -0.296945 255 255 255 255 0.340746 0.212478
-0.001832 0.160851 -0.005267 -0.923675 -0.242174 -0.296945 255 255 255 255 0.340746 0.212474
-0.017488 0.178982 0.008355 -0.914956 -0.398508 0.063612 255 255 255 255 0.340746 0.212478
-0.025203 0.19606 0.004375 -0.914956 -0.398508 0.063612 255 255 255 255 0.340746 0.212478
-0.025397 0.195045 -0.004774 -0.914956 -0.398508 0.063612 255 255 255 255 0.340746 0.212478
-0.010286 0.180229 0.017001 -0.046604 0.59564 0.801899 255 255 255 255 0.340746 0.212478
-0.016085 0.19725 0.004021 -0.046604 0.59564 0.801899 255 255 255 255 0.340746 0.212478
-0.025203 0.19606 0.004375 -0.046604 0.59564 0.801899 255 255 255 255 0.340746 0.212478
-0.008993 0.18045 0.001024 0.676623 0.396336 -0.620564 255 255 255 255 0.340746 0.212478
-0.016085 0.19725 0.004021 0.676623 0.396336 -0.620564 255 255 255 255 0.340746 0.212478
-0.001792 0.181694 0.00967 0.676623 0.396336 -0.620564 255 255 255 255 0.340746 0.212478
-0.017488 0.178982 0.008355 -0.511533 -0.506429 -0.694164 255 255 255 255 0.340746 0.212478
-0.01628 0.196243 -0.005128 -0.511533 -0.506429 -0.694164 255 255 255 255 0.340746 0.212478
-0.008993 0.18045 0.001024 -0.511533 -0.506429 -0.694164 255 255 255 255 0.340746 0.212478
-0.025397 0.195045 -0.004774 -0.891556 0.347813 -0.290093 255 255 255 255 0.340746 0.212478
-0.01956 0.210068 -0.004701 -0.891556 0.347813 -0.290093 255 255 255 255 0.340746 0.212478
-0.018195 0.207817 -0.011595 -0.891556 0.347813 -0.290093 255 255 255 255 0.340746 0.212478
-0.016085 0.19725 0.004021 -0.040121 0.554654 0.831114 255 255 255 255 0.340746 0.212478
-0.01956 0.210068 -0.004701 -0.040121 0.554654 0.831114 255 255 255 255 0.340746 0.212478
-0.025203 0.19606 0.004375 -0.040121 0.554654 0.831114 255 255 255 255 0.340746 0.212478
-0.01628 0.196243 -0.005128 0.956768 -0.29062 0.011595 255 255 255 255 0.340746 0.212478
-0.01255 0.208618 -0.002741 0.956768 -0.29062 0.011595 255 255 255 255 0.340746 0.212478
-0.016085 0.19725 0.004021 0.956768 -0.29062 0.011595 255 255 255 255 0.340746 0.212478
-0.01628 0.196243 -0.005128 0.14834 -0.46356 -0.87356 255 255 255 255 0.340746 0.212478
-0.018195 0.207817 -0.011595 0.14834 -0.46356 -0.87356 255 255 255 255 0.340746 0.212478
-0.011184 0.206367 -0.009635 0.14834 -0.46356 -0.87356 255 255 255 255 0.340746 0.212478
-0.018812 0 0.018812 -0.192369 -0.864464 0.464431 255 255 255 255 0.471173 0.177159
0 0 0.026604 -0.192369 -0.864464 0.464431 255 255 255 255 0.471173 0.177159
0 0.012116 0.049156 -0.192369 -0.864464 0.464431 255 255 255 255 0.471173 0.177159
0.018812 0 0.018812 0.192341 -0.864477 0.464419 255 255 255 255 0.471173 0.177159
0.03476 0.012116 0.03476 0.192341 -0.864477 0.464419 255 255 255 255 0.471173 0.177159
0 0.012116 0.049156 0.192341 -0.864477 0.464419 255 255 255 255 0.471173 0.177159
0.018812 0 0.018812 0.464431 -0.864464 0.192369 255 255 255 255 0.471173 0.177159
0.026604 0 0 0.464431 -0.864464 0.192369 255 255 255 255 0.471173 0.177159
0.049156 0.012116 -0 0.464431 -0.864464 0.192369 255 255 255 255 0.471173 0.177159
0.018812 -0 -0.018812 0.464419 -0.864477 -0.192341 255 255 255 255 0.471173 0.177159
0.03476 0.012116 -0.03476 0.464419 -0.864477 -0.192341 255 255 255 255 0.471173 0.177159
0.049156 0.012116 -0 0.464419 -0.864477 -0.192341 255 255 255 255 0.471173 0.177159
0.018812 -0 -0.018812 0.192356 -0.864483 -0.4644 255 255 255 255 0.471173 0.177159
0 -0 -0.026604 0.192356 -0.864483 -0.4644 255 255 255 255 0.471173 0.177159
0 0.012116 -0.049158 0.192356 -0.864483 -0.4644 255 255 255 255 0.471173 0.177159
-0.018812 -0 -0.018812 -0.192361 -0.864481 -0.464402 255 255 255 255 0.471173 0.177159
-0.03476 0.012116 -0.03476 -0.192361 -0.864481 -0.464402 255 255 255 255 0.471173 0.177159
0 0.012116 -0.049158 -0.192361 -0.864481 -0.464402 255 255 255 255 0.471173 0.177159
-0.018812 -0 -0.018812 -0.4644 -0.864483 -0.192356 255 255 255 255 0.471173 0.177159
-0.026604 0 0 -0.4644 -0.864483 -0.192356 255 255 255 255 0.471173 0.177159
-0.049158 0.012116 -0 -0.4644 -0.864483 -0.192356 255 255 255 255 0.471173 0.177159
-0.018812 0 0.018812 -0.464402 -0.864481 0.192361 255 255 255 255 0.471173 0.177159
-0.03476 0.012116 0.03476 -0.464402 -0.864481 0.192361 255 255 255 255 0.471173 0.177159
-0.049158 0.012116 -0 -0.464402 -0.864481 0.192361 255 255 255 255 0.471173 0.177159
0 0.012116 0.049156 -0.325635 -0.525319 0.786131 255 255 255 255 0.471173 0.177159
0 0.034671 0.064228 -0.325635 -0.525319 0.786131 255 255 255 255 0.471173 0.177159
-0.045415 0.034671 0.045416 -0.325635 -0.525319 0.786131 255 255 255 255 0.471173 0.177159
0 0.012116 0.049156 0.325604 -0.525248 0.786191 255 255 255 255 0.471173 0.177159
0.03476 0.012116 0.03476 0.325604 -0.525248 0.786191 255 255 255 255 0.471173 0.177159
0.045415 0.034671 0.045416 0.325604 -0.525248 0.786191 255 255 255 255 0.471173 0.177159
0.03476 0.012116 0.03476 0.786174 -0.525278 0.325597 255 255 255 255 0.471173 0.177159
0.049156 0.012116 -0 0.786174 -0.525278 0.325597 255 255 255 255 0.471173 0.177159
0.064226 0.034671 -0 0.786174 -0.525278 0.325597 255 255 255 255 0.471173 0.177159
0.03476 0.012116 -0.03476 0.786186 -0.525239 -0.325633 255 255 255 255 0.471173 0.177159
0.045415 0.034671 -0.045416 0.786186 -0.525239 -0.325633 255 255 255 255 0.471173 0.177159
0.064226 0.034671 -0 0.786186 -0.525239 -0.325633 255 255 255 255 0.471173 0.177159
0 0.012116 -0.049158 0.325647 -0.525269 -0.78616 255 255 255 255 0.471173 0.177159
0 0.034671 -0.064228 0.325647 -0.525269 -0.78616 255 255 255 255 0.471173 0.177159
0.045415 0.034671 -0.045416 0.325647 -0.525269 -0.78616 255 255 255 255 0.471173 0.177159
0 0.012116 -0.049158 -0.325647 -0.525231 -0.786185 255 255 255 255 0.471173 0.177159
-0.03476 0.012116 -0.03476 -0.325647 -0.525231 -0.786185 255 255 255 255 0.471173 0.177159
-0.045415 0.034671 -0.045415 -0.325647 -0.525231 -0.786185 255 255 255 255 0.471173 0.177159
-0.03476 0.012116 -0.03476 -0.786191 -0.52522 -0.32565 255 255 255 255 0.471173 0.177159
-0.049158 0.012116 -0 -0.786191 -0.52522 -0.32565 255 255 255 255 0.471173 0.177159
-0.064226 0.034671 -0 -0.786191 -0.52522 -0.32565 255 255 255 255 0.471173 0.177159
-0.03476 0.012116 0.03476 -0.786186 -0.525238 0.325633 255 255 255 255 0.471173 0.177159
-0.045415 0.034671 0.045416 -0.786186 -0.525238 0.325633 255 255 255 255 0.471173 0.177159
-0.064226 0.034671 -0 -0.786186 -0.525238 0.325633 255 255 255 255 0.471173 0.177159
-0.045415 0.034671 0.045416 -0.376391 -0.180722 0.908664 255 255 255 255 0.471173 0.177159
0 0.034671 0.064228 -0.376391 -0.180722 0.908664 255 255 255 255 0.471173 0.177159
0 0.061274 0.069519 -0.376391 -0.180722 0.908664 255 255 255 255 0.471173 0.177159
0.045415 0.034671 0.045416 0.376416 -0.180677 0.908662 255 255 255 255 0.471173 0.177159
0.049156 0.061274 0.049156 0.376416 -0.180677 0.908662 255 255 255 255 0.471173 0.177159
0 0.061274 0.069519 0.376416 -0.180677 0.908662 255 255 255 255 0.471173 0.177159
0.064226 0.034671 -0 0.908644 -0.180786 0.376408 255 255 255 255 0.471173 0.177159
0.069519 0.061274 -0 0.908644 -0.180786 0.376408 255 255 255 255 0.471173 0.177159
0.049156 0.061274 0.049156 0.908644 -0.180786 0.376408 255 255 255 255 0.471173 0.177159
0.045415 0.034671 -0.045416 0.90866 -0.180723 -0.376399 255 255 255 255 0.471173 0.177159
0.049156 0.061274 -0.049158 0.90866 -0.180723 -0.376399 255 255 255 255 0.471173 0.177159
0.069519 0.061274 -0 0.90866 -0.180723 -0.376399 255 255 255 255 0.471173 0.177159
0 0.034671 -0.064228 0.376381 -0.180723 -0.908668 255 255 255 255 0.471173 0.177159
0 0.061274 -0.069519 0.376381 -0.180723 -0.908668 255 255 255 255 0.471173 0.177159
0.049156 0.061274 -0.049158 0.376381 -0.180723 -0.908668 255 255 255 255 0.471173 0.177159
-0.045415 0.034671 -0.045415 -0.376362 -0.180801 -0.90866 255 255 255 255 0.471173 0.177159
-0.049158 0.061274 -0.049158 -0.376362 -0.180801 -0.90866 255 255 255 255 0.471173 0.177159
0 0.061274 -0.069519 -0.376362 -0.180801 -0.90866 255 255 255 255 0.471173 0.177159
-0.045415 0.034671 -0.045415 -0.908659 -0.180789 -0.376369 255 255 255 255 0.471173 0.177159
-0.064226 0.034671 -0 -0.908659 -0.180789 -0.376369 255 255 255 255 0.471173 0.177159
-0.069519 0.061274 -0 -0.908659 -0.180789 -0.376369 255 255 255 255 0.471173 0.177159
-0.064226 0.034671 -0 -0.908667 -0.180759 0.376364 255 255 255 255 0.471173 0.177159
-0.045415 0.034671 0.045416 -0.908667 -0.180759 0.376364 255 255 255 255 0.471173 0.177159
-0.049158 0.061274 0.049156 -0.908667 -0.180759 0.376364 255 255 255 255 0.471173 0.177159
0 0.061274 0.069519 -0.376391 0.180722 0.908664 255 255 255 255 0.471173 0.177159
0 0.087877 0.064228 -0.376391 0.180722 0.908664 255 255 255 255 0.471173 0.177159
-0.045415 0.087877 0.045416 -0.376391 0.180722 0.908664 255 255 255 255 0.471173 0.177159
0 0.061274 0.069519 0.376416 0.180678 0.908662 255 255 255 255 0.471173 0.177159
0.049156 0.061274 0.049156 0.376416 0.180678 0.908662 255 255 255 255 0.471173 0.177159
0.045415 0.087877 0.045416 0.376416 0.180678 0.908662 255 255 255 255 0.471173 0.177159
0.049156 0.061274 0.049156 0.908644 0.180786 0.376408 255 255 255 255 0.471173 0.177159
0.069519 0.061274 -0 0.908644 0.180786 0.376408 255 255 255 255 0.471173 0.177159
0.064226 0.087877 -0 0.908644 0.180786 0.376408 255 255 255 255 0.471173 0.177159
0.049156 0.061274 -0.049158 0.908674 0.180721 -0.376367 255 255 255 255 0.471173 0.177159
0.045415 0.087877 -0.045416 0.908674 0.180721 -0.376367 255 255 255 255 0.471173 0.177159
0.064226 0.087877 -0 0.908674 0.180721 -0.376367 255 255 255 255 0.471173 0.177159
0.049156 0.061274 -0.049158 0.376381 0.180722 -0.908668 255 255 255 255 0.471173 0.177159
0 0.061274 -0.069519 0.376381 0.180722 -0.908668 255 255 255 255 0.471173 0.177159
0 0.087877 -0.064228 0.376381 0.180722 -0.908668 255 255 255 255 0.471173 0.177159
0 0.061274 -0.069519 -0.376362 0.1808 -0.90866 255 255 255 255 0.471173 0.177159
-0.049158 0.061274 -0.049158 -0.376362 0.1808 -0.90866 255 255 255 255 0.471173 0.177159
-0.045415 0.087877 -0.045415 -0.376362 0.1808 -0.90866 255 255 255 255 0.471173 0.177159
-0.069519 0.061274 -0 -0.908659 0.180789 -0.376369 255 255 255 255 0.471173 0.177159
-0.064226 0.087877 -0 -0.908659 0.180789 -0.376369 255 255 255 255 0.471173 0.177159
-0.045415 0.087877 -0.045415 -0.908659 0.180789 -0.376369 255 255 255 255 0.471173 0.177159
-0.049158 0.061274 0.049156 -0.908667 0.180759 0.376364 255 255 255 255 0.471173 0.177159
-0.045415 0.087877 0.045416 -0.908667 0.180759 0.376364 255 255 255 255 0.471173 0.177159
-0.064226 0.087877 -0 -0.908667 0.180759 0.376364 255 255 255 255 0.471173 0.177159
-0.045415 0.087877 0.045416 -0.302824 0.611428 0.731063 255 255 255 255 0.471173 0.177159
0 0.087877 0.064228 -0.302824 0.611428 0.731063 255 255 255 255 0.471173 0.177159
0 0.110432 0.045364 -0.302824 0.611428 0.731063 255 255 255 255 0.471173 0.177159
0.045415 0.087877 0.045416 0.302823 0.611427 0.731065 255 255 255 255 0.471173 0.177159
0.032077 0.110432 0.032077 0.302823 0.611427 0.731065 255 255 255 255 0.471173 0.177159
0 0.110432 0.045364 0.302823 0.611427 0.731065 255 255 255 255 0.471173 0.177159
0.064226 0.087877 -0 0.731092 0.611388 0.302834 255 255 255 255 0.471173 0.177159
0.045364 0.110432 -0 0.731092 0.611388 0.302834 255 255 255 255 0.471173 0.177159
0.032077 0.110432 0.032077 0.731092 0.611388 0.302834 255 255 255 255 0.471173 0.177159
0.064226 0.087877 -0 0.731083 0.611411 -0.30281 255 255 255 255 0.471173 0.177159
0.045415 0.087877 -0.045416 0.731083 0.611411 -0.30281 255 255 255 255 0.471173 0.177159
0.032077 0.110432 -0.032077 0.731083 0.611411 -0.30281 255 255 255 255 0.471173 0.177159
0.045415 0.087877 -0.045416 0.302824 0.611428 -0.731063 255 255 255 255 0.471173 0.177159
0 0.087877 -0.064228 0.302824 0.611428 -0.731063 255 255 255 255 0.471173 0.177159
0 0.110432 -0.045364 0.302824 0.611428 -0.731063 255 255 255 255 0.471173 0.177159
-0.045415 0.087877 -0.045415 -0.302829 0.611406 -0.731079 255 255 255 255 0.471173 0.177159
-0.032077 0.110432 -0.032077 -0.302829 0.611406 -0.731079 255 255 255 255 0.471173 0.177159
0 0.110432 -0.045364 -0.302829 0.611406 -0.731079 255 255 255 255 0.471173 0.177159
-0.064226 0.087877 -0 -0.731092 0.611388 -0.302835 255 255 255 255 0.471173 0.177159
-0.045364 0.110432 -0 -0.731092 0.611388 -0.302835 255 255 255 255 0.471173 0.177159
-0.032077 0.110432 -0.032077 -0.731092 0.611388 -0.302835 255 255 255 255 0.471173 0.177159
-0.064226 0.087877 -0 -0.731083 0.611411 0.30281 255 255 255 255 0.471173 0.177159
-0.045415 0.087877 0.045416 -0.731083 0.611411 0.30281 255 255 255 255 0.471173 0.177159
-0.032077 0.110432 0.032077 -0.731083 0.611411 0.30281 255 255 255 255 0.471173 0.177159
-0.032077 0.110432 0.032077 -0.16437 0.903061 0.396816 255 255 255 255 0.471173 0.177159
0 0.110432 0.045364 -0.16437 0.903061 0.396816 255 255 255 255 0.471173 0.177159
-7.5e-05 0.11982 0.023968 -0.16437 0.903061 0.396816 255 255 255 255 0.471173 0.177159
0 0.110432 0.045364 0.163982 0.903543 0.39588 255 255 255 255 0.471173 0.177159
0.032077 0.110432 0.032077 0.163982 0.903543 0.39588 255 255 255 255 0.471173 0.177159
0.016873 0.11982 0.016948 0.163982 0.903543 0.39588 255 255 255 255 0.471173 0.177159
0.032077 0.110432 0.032077 0.395215 0.903883 0.163707 255 255 255 255 0.471173 0.177159
0.045364 0.110432 -0 0.395215 0.903883 0.163707 255 255 255 255 0.471173 0.177159
0.023893 0.11982 -0 0.395215 0.903883 0.163707 255 255 255 255 0.471173 0.177159
0.032077 0.110432 -0.032077 0.395222 0.903881 -0.163704 255 255 255 255 0.471173 0.177159
0.016873 0.11982 -0.016948 0.395222 0.903881 -0.163704 255 255 255 255 0.471173 0.177159
0.023893 0.11982 -0 0.395222 0.903881 -0.163704 255 255 255 255 0.471173 0.177159
0 0.110432 -0.045364 0.163975 0.903545 -0.395877 255 255 255 255 0.471173 0.177159
-7.5e-05 0.11982 -0.023968 0.163975 0.903545 -0.395877 255 255 255 255 0.471173 0.177159
0.016873 0.11982 -0.016948 0.163975 0.903545 -0.395877 255 255 255 255 0.471173 0.177159
-0.032077 0.110432 -0.032077 -0.164372 0.903063 -0.396811 255 255 255 255 0.471173 0.177159
-0.017022 0.11982 -0.016948 -0.164372 0.903063 -0.396811 255 255 255 255 0.471173 0.177159
-7.5e-05 0.11982 -0.023968 -0.164372 0.903063 -0.396811 255 255 255 255 0.471173 0.177159
-0.045364 0.110432 -0 -0.397467 0.902727 -0.164634 255 255 255 255 0.471173 0.177159
-0.024042 0.11982 -0 -0.397467 0.902727 -0.164634 255 255 255 255 0.471173 0.177159
-0.017022 0.11982 -0.016948 -0.397467 0.902727 -0.164634 255 255 255 255 0.471173 0.177159
-0.045364 0.110432 -0 -0.39747 0.902724 0.164641 255 255 255 255 0.471173 0.177159
-0.032077 0.110432 0.032077 -0.39747 0.902724 0.164641 255 255 255 255 0.471173 0.177159
-0.017022 0.11982 0.016948 -0.39747 0.902724 0.164641 255 255 255 255 0.471173 0.177159
-0.01956 0.210068 -0.004701 0.263082 0.931293 -0.251954 255 255 255 255 0.340746 0.212478
-0.01255 0.208618 -0.002741 0.263082 0.931293 -0.251954 255 255 255 255 0.340746 0.212478
-0.011184 0.206367 -0.009635 0.263082 0.931293 -0.251954 255 255 255 255 0.340746 0.212478
-0.017022 0.11982 0.016948 -0.380391 -0.109648 0.918303 255 255 255 255 0.471173 0.177159
-7.5e-05 0.11982 0.023968 -0.380391 -0.109648 0.918303 255 255 255 255 0.471173 0.177159
-7.5e-05 0.147156 0.027232 -0.380391 -0.109648 0.918303 255 255 255 255 0.471173 0.177159
0.016873 0.11982 0.016948 0.380355 -0.109662 0.918316 255 255 255 255 0.471173 0.177159
0.019182 0.147156 0.019256 0.380355 -0.109662 0.918316 255 255 255 255 0.471173 0.177159
-7.5e-05 0.147156 0.027232 0.380355 -0.109662 0.918316 255 255 255 255 0.471173 0.177159
0.023893 0.11982 -0 0.918307 -0.109682 0.380371 255 255 255 255 0.471173 0.177159
0.027158 0.147156 -0 0.918307 -0.109682 0.380371 255 255 255 255 0.471173 0.177159
0.019182 0.147156 0.019256 0.918307 -0.109682 0.380371 255 255 255 255 0.471173 0.177159
0.023893 0.11982 -0 0.918307 -0.109682 -0.38037 255 255 255 255 0.471173 0.177159
0.016873 0.11982 -0.016948 0.918307 -0.109682 -0.38037 255 255 255 255 0.471173 0.177159
0.019182 0.147156 -0.019256 0.918307 -0.109682 -0.38037 255 255 255 255 0.471173 0.177159
0.016873 0.11982 -0.016948 0.380372 -0.109649 -0.918311 255 255 255 255 0.471173 0.177159
-7.5e-05 0.11982 -0.023968 0.380372 -0.109649 -0.918311 255 255 255 255 0.471173 0.177159
-7.5e-05 0.147156 -0.027232 0.380372 -0.109649 -0.918311 255 255 255 255 0.471173 0.177159
-0.017022 0.11982 -0.016948 -0.380372 -0.109663 -0.918309 255 255 255 255 0.471173 0.177159
-0.019331 0.147156 -0.019256 -0.380372 -0.109663 -0.918309 255 255 255 255 0.471173 0.177159
-7.5e-05 0.147156 -0.027232 -0.380372 -0.109663 -0.918309 255 255 255 255 0.471173 0.177159
-0.024042 0.11982 -0 -0.918307 -0.109682 -0.380371 255 255 255 255 0.471173 0.177159
-0.027307 0.147156 -0 -0.918307 -0.109682 -0.380371 255 255 255 255 0.471173 0.177159
-0.019331 0.147156 -0.019256 -0.918307 -0.109682 -0.380371 255 255 255 255 0.471173 0.177159
-0.024042 0.11982 -0 -0.918307 -0.109682 0.38037 255 255 255 255 0.471173 0.177159
-0.017022 0.11982 0.016948 -0.918307 -0.109682 0.38037 255 255 255 255 0.471173 0.177159
-0.019331 0.147156 0.019256 -0.918307 -0.109682 0.38037 255 255 255 255 0.471173 0.177159
0.008532 0.147156 0.008607 -0.300289 -0.193203 0.934077 255 255 255 255 0.340746 0.212474
0.006393 0.160851 0.010752 -0.300289 -0.193203 0.934077 255 255 255 255 0.340746 0.212474
-0.005729 0.160851 0.006855 -0.300289 -0.193203 0.934077 255 255 255 255 0.340746 0.212474
0.008532 0.147156 0.008607 0.991861 -0.127323 0 255 255 255 255 0.340746 0.212474
0.008532 0.147156 -0.008606 0.991861 -0.127323 0 255 255 255 255 0.340746 0.212474
0.01029 0.160851 -0.00137 0.991861 -0.127323 0 255 255 255 255 0.340746 0.212474
0.008532 0.147156 -0.008606 0 0.236873 -0.971541 255 255 255 255 0.340746 0.212474
-0.008681 0.147156 -0.008606 0 0.236873 -0.971541 255 255 255 255 0.340746 0.212474
-0.001832 0.160851 -0.005267 0 0.236873 -0.971541 255 255 255 255 0.340746 0.212474
-0.008681 0.147156 -0.008606 -0.977548 0.210713 0 255 255 255 255 0.340746 0.212474
-0.008681 0.147156 0.008607 -0.977548 0.210713 0 255 255 255 255 0.340746 0.212474
-0.005729 0.160851 0.006855 -0.977548 0.210713 0 255 255 255 255 0.340746 0.212474
-0.005729 0.160851 0.006855 -0.265844 -0.495486 0.826934 255 255 255 255 0.340746 0.212474
0.006393 0.160851 0.010752 -0.265844 -0.495486 0.826934 255 255 255 255 0.340746 0.212474
-0.010286 0.180229 0.017001 -0.265844 -0.495486 0.826934 255 255 255 255 0.340746 0.212478
0.006393 0.160851 0.010752 0.887026 0.363136 0.285162 255 255 255 255 0.340746 0.212474
0.01029 0.160851 -0.00137 0.887026 0.363136 0.285162 255 255 255 255 0.340746 0.212474
-0.001792 0.181694 0.00967 0.887026 0.363136 0.285162 255 255 255 255 0.340746 0.212478
-0.001832 0.160851 -0.005267 0.659122 0.437229 -0.611873 255 255 255 255 0.340746 0.212474
-0.008993 0.18045 0.001024 0.659122 0.437229 -0.611873 255 255 255 255 0.340746 0.212478
-0.001792 0.181694 0.00967 0.659122 0.437229 -0.611873 255 255 255 255 0.340746 0.212478
-0.005729 0.160851 0.006855 -0.586965 -0.319123 -0.744065 255 255 255 255 0.340746 0.212474
-0.017488 0.178982 0.008355 -0.586965 -0.319123 -0.744065 255 255 255 255 0.340746 0.212478
-0.008993 0.18045 0.001024 -0.586965 -0.319123 -0.744065 255 255 255 255 0.340746 0.212478
-0.017488 0.178982 0.008355 -0.741826 -0.184898 0.644598 255 255 255 255 0.340746 0.212478
-0.010286 0.180229 0.017001 -0.741826 -0.184898 0.644598 255 255 255 255 0.340746 0.212478
-0.025203 0.19606 0.004375 -0.741826 -0.184898 0.644598 255 255 255 255 0.340746 0.212478
-0.010286 0.180229 0.017001 0.439339 0.63457 0.635847 255 255 255 255 0.340746 0.212478
-0.001792 0.181694 0.00967 0.439339 0.63457 0.635847 255 255 255 255 0.340746 0.212478
-0.016085 0.19725 0.004021 0.439339 0.63457 0.635847 255 255 255 255 0.340746 0.212478
-0.008993 0.18045 0.001024 0.915334 0.397691 -0.063281 255 255 255 255 0.340746 0.212478
-0.01628 0.196243 -0.005128 0.915334 0.397691 -0.063281 255 255 255 255 0.340746 0.212478
-0.016085 0.19725 0.004021 0.915334 0.397691 -0.063281 255 255 255 255 0.340746 0.212478
-0.017488 0.178982 0.008355 0.050581 -0.616991 -0.785343 255 255 255 255 0.340746 0.212478
-0.025397 0.195045 -0.004774 0.050581 -0.616991 -0.785343 255 255 255 255 0.340746 0.212478
-0.01628 0.196243 -0.005128 0.050581 -0.616991 -0.785343 255 255 255 255 0.340746 0.212478
-0.025397 0.195045 -0.004774 -0.931887 0.362172 -0.02042 255 255 255 255 0.340746 0.212478
-0.025203 0.19606 0.004375 -0.931887 0.362172 -0.02042 255 255 255 255 0.340746 0.212478
-0.01956 0.210068 -0.004701 -0.931887 0.362172 -0.02042 255 255 255 255 0.340746 0.212478
-0.016085 0.19725 0.004021 -0.122927 0.535303 0.835667 255 255 255 255 0.340746 0.212478
-0.01255 0.208618 -0.002741 -0.122927 0.535303 0.835667 255 255 255 255 0.340746 0.212478
-0.01956 0.210068 -0.004701 -0.122927 0.535303 0.835667 255 255 255 255 0.340746 0.212478
-0.01628 0.196243 -0.005128 0.901103 -0.326616 0.285193 255 255 255 255 0.340746 0.212478
-0.011184 0.206367 -0.009635 0.901103 -0.326616 0.285193 255 255 255 255 0.340746 0.212478
-0.01255 0.208618 -0.002741 0.901103 -0.326616 0.285193 255 255 255 255 0.340746 0.212478
-0.01628 0.196243 -0.005128 0.029614 -0.483822 -0.874665 255 255 255 255 0.340746 0.212478
-0.025397 0.195045 -0.004774 0.029614 -0.483822 -0.874665 255 255 255 255 0.340746 0.212478
-0.018195 0.207817 -0.011595 0.029614 -0.483822 -0.874665 255 255 255 255 0.340746 0.212478
3 0 1 2 
3 3 4 5 
3 6 7 8 
3 9 10 11 
3 12 13 14 
3 15 16 17 
3 18 19 20 
3 21 22 23 
3 24 25 26 
3 27 28 29 
3 30 31 32 
3 33 34 35 
3 36 37 38 
3 39 40 41 
3 42 43 44 
3 45 46 47 
3 48 49 50 
3 51 52 53 
3 54 55 56 
3 57 58 59 
3 60 61 62 
3 63 64 65 
3 66 67 68 
3 69 70 71 
3 72 73 74 
3 75 76 77 
3 78 79 80 
3 81 82 83 
3 84 85 86 
3 87 88 89 
3 90 91 92 
3 93 94 95 
3 96 97 98 
3 99 100 101 
3 102 103 104 
3 105 106 107 
3 108 109 110 
3 111 112 113 
3 114 115 116 
3 117 118 119 
3 120 121 122 
3 123 124 125 
3 126 127 128 
3 129 130 131 
3 132 133 134 
3 135 136 137 
3 138 139 140 
3 141 142 143 
3 144 145 146 
3 147 144 146 
3 148 147 146 
3 149 148 146 
3 150 149 146 
3 151 150 146 
3 152 151 146 
3 145 152 146 
3 153 154 155 
3 156 157 158 
3 159 160 161 
3 162 163 164 
3 165 166 167 
3 168 169 170 
3 171 172 173 
3 174 175 176 
3 177 178 179 
3 180 181 182 
3 181 183 182 
3 184 185 183 
3 185 186 183 
3 187 188 186 
3 188 189 186 
3 190 191 189 
3 191 182 189 
3 192 193 194 
3 195 196 197 
3 198 199 200 
3 201 202 203 
3 204 205 206 
3 207 208 209 
3 210 211 212 
3 213 214 215 
3 216 217 218 
3 219 220 221 
3 222 223 224 
3 225 226 227 
3 228 229 230 
3 231 232 233 
3 234 235 236 
3 237 238 239 
3 240 241 242 
3 243 244 245 
3 246 247 248 
3 249 250 251 
3 252 253 254 
3 255 256 257 
3 258 259 260 
3 261 262 263 
3 264 265 266 
3 267 268 269 
3 270 271 272 
3 273 274 275 
3 276 277 278 
3 279 280 281 
3 282 283 284 
3 285 286 287 
3 288 289 290 
3 291 292 293 
3 294 295 296 
3 297 298 299 
3 300 301 302 
3 303 304 305 
3 306 307 308 
3 309 310 311 
3 312 313 314 
3 315 316 317 
3 318 319 320 
3 321 322 323 
3 324 325 326 
3 327 328 329 
3 330 331 332 
3 333 334 335 
3 336 337 338 
3 339 340 341 
3 342 343 344 
3 345 346 347 
3 348 349 350 
3 351 352 353 
3 354 355 356 
3 357 358 359 
3 360 361 362 
3 363 364 365 
3 366 367 368 
3 369 370 371 
3 372 373 374 
3 375 376 377 
3 378 379 380 
3 381 382 383 
3 384 385 386 
3 387 388 389 
3 390 391 392 
3 393 394 395 
3 396 397 398 
3 399 400 401 
3 402 403 404 
3 405 406 407 
3 408 409 410 
3 181 184 183 
3 185 187 186 
3 188 190 189 
3 191 180 182 
3 411 412 413 
3 414 415 416 
3 417 418 419 
3 420 421 422 
3 423 424 425 
3 426 427 428 
3 429 430 431 
3 432 433 434 
3 435 436 437 
3 438 439 440 
3 441 442 443 
3 444 445 446 
3 447 448 449 
3 450 451 452 
3 453 454 455 
3 456 457 458 
